M48
; DRILL file {KiCad (5.1.0)-1} date 03/04/2019 0:53:48
; FORMAT={-:-/ absolute / metric / decimal}
; #@! TF.CreationDate,2019-04-03T00:53:48+07:00
; #@! TF.GenerationSoftware,Kicad,Pcbnew,(5.1.0)-1
; #@! TF.FileFunction,Plated,1,2,PTH
FMAT,2
METRIC
T1C0.400
T2C0.500
T3C0.700
T4C0.991
T5C1.100
T6C1.499
T7C1.500
%
G90
G05
T1
X87.63Y-32.93
T3
X100.946Y-80.01
X100.946Y-87.63
X119.996Y-80.01
X119.996Y-87.63
X139.046Y-80.01
X139.046Y-87.63
X158.096Y-80.01
X158.096Y-87.63
X177.146Y-80.01
X177.146Y-87.63
X107.95Y-55.226
X115.57Y-55.226
X62.846Y-60.96
X62.846Y-68.58
X81.896Y-60.96
X81.896Y-68.58
X119.996Y-60.96
X119.996Y-68.58
X139.046Y-60.96
X139.046Y-68.58
X158.134Y-60.96
X158.134Y-68.58
X177.146Y-60.96
X177.146Y-68.58
X81.896Y-80.01
X81.896Y-87.63
X62.846Y-116.84
X62.846Y-124.46
X81.896Y-116.84
X81.896Y-124.46
X100.946Y-116.84
X100.946Y-124.46
X119.996Y-116.84
X119.996Y-124.46
X142.24Y-128.886
X149.86Y-128.886
X158.096Y-99.06
X158.096Y-106.68
X154.94Y-128.886
X162.56Y-128.886
X81.896Y-99.06
X81.896Y-106.68
X100.984Y-99.06
X100.984Y-106.68
X119.996Y-99.06
X119.996Y-106.68
X139.046Y-99.06
X139.046Y-106.68
X177.146Y-99.06
X177.146Y-106.68
X81.915Y-41.91
X81.915Y-49.53
X87.63Y-35.56
X95.25Y-35.56
X106.68Y-35.56
X114.3Y-35.56
X125.73Y-35.56
X133.35Y-35.56
X144.78Y-35.56
X152.4Y-35.56
X158.096Y-40.64
X158.096Y-48.26
X149.86Y-30.48
X157.48Y-30.48
X149.86Y-26.67
X157.48Y-26.67
X100.984Y-55.264
X100.984Y-62.884
T4
X163.83Y-71.755
X166.37Y-68.58
X168.91Y-68.58
X171.45Y-71.755
X68.58Y-90.805
X71.12Y-87.63
X73.66Y-87.63
X76.2Y-90.805
X87.63Y-90.805
X90.17Y-87.63
X92.71Y-87.63
X95.25Y-90.805
X106.68Y-90.805
X109.22Y-87.63
X111.76Y-87.63
X114.3Y-90.805
X125.73Y-90.805
X128.27Y-87.63
X130.81Y-87.63
X133.35Y-90.805
X144.78Y-90.805
X147.32Y-87.63
X149.86Y-87.63
X152.4Y-90.805
X163.83Y-90.805
X166.37Y-87.63
X168.91Y-87.63
X171.45Y-90.805
X68.58Y-109.855
X71.12Y-106.68
X73.66Y-106.68
X76.2Y-109.855
X87.63Y-109.855
X90.17Y-106.68
X92.71Y-106.68
X95.25Y-109.855
X106.68Y-109.855
X109.22Y-106.68
X111.76Y-106.68
X114.3Y-109.855
X125.73Y-109.855
X128.27Y-106.68
X130.81Y-106.68
X133.35Y-109.855
X144.78Y-109.855
X147.32Y-106.68
X149.86Y-106.68
X152.4Y-109.855
X163.83Y-109.855
X166.37Y-106.68
X168.91Y-106.68
X171.45Y-109.855
X68.58Y-128.905
X71.12Y-125.73
X73.66Y-125.73
X76.2Y-128.905
X87.63Y-128.905
X90.17Y-125.73
X92.71Y-125.73
X95.25Y-128.905
X106.68Y-128.905
X109.22Y-125.73
X111.76Y-125.73
X114.3Y-128.905
X125.73Y-128.905
X128.27Y-125.73
X130.81Y-125.73
X133.35Y-128.905
X172.72Y-119.38
X172.72Y-121.92
X175.895Y-116.84
X175.895Y-124.46
X156.822Y-115.57
X159.362Y-115.57
X106.68Y-52.705
X109.22Y-49.53
X111.76Y-49.53
X114.3Y-52.705
X139.7Y-116.84
X139.7Y-124.46
X147.32Y-125.73
X149.86Y-125.73
X68.58Y-52.705
X71.12Y-49.53
X73.66Y-49.53
X76.2Y-52.705
X87.63Y-52.705
X90.17Y-49.53
X92.71Y-49.53
X95.25Y-52.705
X125.73Y-52.705
X128.27Y-49.53
X130.81Y-49.53
X133.35Y-52.705
X144.78Y-52.705
X147.32Y-49.53
X149.86Y-49.53
X152.4Y-52.705
X163.83Y-52.705
X166.37Y-49.53
X168.91Y-49.53
X171.45Y-52.705
X68.58Y-71.755
X71.12Y-68.58
X73.66Y-68.58
X76.2Y-71.755
X87.63Y-71.755
X90.17Y-68.58
X92.71Y-68.58
X95.25Y-71.755
X106.68Y-71.755
X109.22Y-68.58
X111.76Y-68.58
X114.3Y-71.755
X125.73Y-71.755
X128.27Y-68.58
X130.81Y-68.58
X133.35Y-71.755
X144.78Y-71.755
X147.32Y-68.58
X149.86Y-68.58
X152.4Y-71.755
T5
X102.87Y-22.86
X102.87Y-25.4
X102.87Y-27.94
X102.87Y-30.48
X102.87Y-33.02
X102.87Y-35.56
X102.87Y-38.1
X102.87Y-40.64
X102.87Y-43.18
X102.87Y-45.72
X102.87Y-48.26
X102.87Y-50.8
X118.11Y-22.86
X118.11Y-25.4
X118.11Y-27.94
X118.11Y-30.48
X118.11Y-33.02
X118.11Y-35.56
X118.11Y-38.1
X118.11Y-40.64
X118.11Y-43.18
X118.11Y-45.72
X118.11Y-48.26
X118.11Y-50.8
T6
X163.83Y-60.96
X163.83Y-60.96
X165.1Y-58.42
X165.1Y-58.42
X170.18Y-58.42
X170.18Y-58.42
X171.45Y-60.96
X171.45Y-60.96
X68.58Y-80.01
X68.58Y-80.01
X69.85Y-77.47
X69.85Y-77.47
X74.93Y-77.47
X74.93Y-77.47
X76.2Y-80.01
X76.2Y-80.01
X87.63Y-80.01
X87.63Y-80.01
X88.9Y-77.47
X88.9Y-77.47
X93.98Y-77.47
X93.98Y-77.47
X95.25Y-80.01
X95.25Y-80.01
X106.68Y-80.01
X106.68Y-80.01
X107.95Y-77.47
X107.95Y-77.47
X113.03Y-77.47
X113.03Y-77.47
X114.3Y-80.01
X114.3Y-80.01
X125.73Y-80.01
X125.73Y-80.01
X127.0Y-77.47
X127.0Y-77.47
X132.08Y-77.47
X132.08Y-77.47
X133.35Y-80.01
X133.35Y-80.01
X144.78Y-80.01
X144.78Y-80.01
X146.05Y-77.47
X146.05Y-77.47
X151.13Y-77.47
X151.13Y-77.47
X152.4Y-80.01
X152.4Y-80.01
X163.83Y-80.01
X163.83Y-80.01
X165.1Y-77.47
X165.1Y-77.47
X170.18Y-77.47
X170.18Y-77.47
X171.45Y-80.01
X171.45Y-80.01
X68.58Y-99.06
X68.58Y-99.06
X69.85Y-96.52
X69.85Y-96.52
X74.93Y-96.52
X74.93Y-96.52
X76.2Y-99.06
X76.2Y-99.06
X87.63Y-99.06
X87.63Y-99.06
X88.9Y-96.52
X88.9Y-96.52
X93.98Y-96.52
X93.98Y-96.52
X95.25Y-99.06
X95.25Y-99.06
X106.68Y-99.06
X106.68Y-99.06
X107.95Y-96.52
X107.95Y-96.52
X113.03Y-96.52
X113.03Y-96.52
X114.3Y-99.06
X114.3Y-99.06
X125.73Y-99.06
X125.73Y-99.06
X127.0Y-96.52
X127.0Y-96.52
X132.08Y-96.52
X132.08Y-96.52
X133.35Y-99.06
X133.35Y-99.06
X144.78Y-99.06
X144.78Y-99.06
X146.05Y-96.52
X146.05Y-96.52
X151.13Y-96.52
X151.13Y-96.52
X152.4Y-99.06
X152.4Y-99.06
X163.83Y-99.06
X163.83Y-99.06
X165.1Y-96.52
X165.1Y-96.52
X170.18Y-96.52
X170.18Y-96.52
X171.45Y-99.06
X171.45Y-99.06
X68.58Y-118.11
X68.58Y-118.11
X69.85Y-115.57
X69.85Y-115.57
X74.93Y-115.57
X74.93Y-115.57
X76.2Y-118.11
X76.2Y-118.11
X87.63Y-118.11
X87.63Y-118.11
X88.9Y-115.57
X88.9Y-115.57
X93.98Y-115.57
X93.98Y-115.57
X95.25Y-118.11
X95.25Y-118.11
X106.68Y-118.11
X106.68Y-118.11
X107.95Y-115.57
X107.95Y-115.57
X113.03Y-115.57
X113.03Y-115.57
X114.3Y-118.11
X114.3Y-118.11
X125.73Y-118.11
X125.73Y-118.11
X127.0Y-115.57
X127.0Y-115.57
X132.08Y-115.57
X132.08Y-115.57
X133.35Y-118.11
X133.35Y-118.11
X162.56Y-118.11
X162.56Y-118.11
X162.56Y-123.19
X162.56Y-123.19
X165.1Y-116.84
X165.1Y-116.84
X165.1Y-124.46
X165.1Y-124.46
X154.282Y-123.19
X154.282Y-123.19
X155.552Y-125.73
X155.552Y-125.73
X160.632Y-125.73
X160.632Y-125.73
X161.902Y-123.19
X161.902Y-123.19
X106.68Y-41.91
X106.68Y-41.91
X107.95Y-39.37
X107.95Y-39.37
X113.03Y-39.37
X113.03Y-39.37
X114.3Y-41.91
X114.3Y-41.91
X144.78Y-118.11
X144.78Y-118.11
X146.05Y-115.57
X146.05Y-115.57
X151.13Y-115.57
X151.13Y-115.57
X152.4Y-118.11
X152.4Y-118.11
X68.58Y-41.91
X68.58Y-41.91
X69.85Y-39.37
X69.85Y-39.37
X74.93Y-39.37
X74.93Y-39.37
X76.2Y-41.91
X76.2Y-41.91
X87.63Y-41.91
X87.63Y-41.91
X88.9Y-39.37
X88.9Y-39.37
X93.98Y-39.37
X93.98Y-39.37
X95.25Y-41.91
X95.25Y-41.91
X125.73Y-41.91
X125.73Y-41.91
X127.0Y-39.37
X127.0Y-39.37
X132.08Y-39.37
X132.08Y-39.37
X133.35Y-41.91
X133.35Y-41.91
X144.78Y-41.91
X144.78Y-41.91
X146.05Y-39.37
X146.05Y-39.37
X151.13Y-39.37
X151.13Y-39.37
X152.4Y-41.91
X152.4Y-41.91
X163.83Y-41.91
X163.83Y-41.91
X165.1Y-39.37
X165.1Y-39.37
X170.18Y-39.37
X170.18Y-39.37
X171.45Y-41.91
X171.45Y-41.91
X68.58Y-60.96
X68.58Y-60.96
X69.85Y-58.42
X69.85Y-58.42
X74.93Y-58.42
X74.93Y-58.42
X76.2Y-60.96
X76.2Y-60.96
X87.63Y-60.96
X87.63Y-60.96
X88.9Y-58.42
X88.9Y-58.42
X93.98Y-58.42
X93.98Y-58.42
X95.25Y-60.96
X95.25Y-60.96
X106.68Y-60.96
X106.68Y-60.96
X107.95Y-58.42
X107.95Y-58.42
X113.03Y-58.42
X113.03Y-58.42
X114.3Y-60.96
X114.3Y-60.96
X125.73Y-60.96
X125.73Y-60.96
X127.0Y-58.42
X127.0Y-58.42
X132.08Y-58.42
X132.08Y-58.42
X133.35Y-60.96
X133.35Y-60.96
X144.78Y-60.96
X144.78Y-60.96
X146.05Y-58.42
X146.05Y-58.42
X151.13Y-58.42
X151.13Y-58.42
X152.4Y-60.96
X152.4Y-60.96
T7
X163.83Y-60.96
X163.83Y-60.96
X170.18Y-58.42
X170.18Y-58.42
X68.58Y-80.01
X68.58Y-80.01
X74.93Y-77.47
X74.93Y-77.47
X87.63Y-80.01
X87.63Y-80.01
X93.98Y-77.47
X93.98Y-77.47
X106.68Y-80.01
X106.68Y-80.01
X113.03Y-77.47
X113.03Y-77.47
X125.73Y-80.01
X125.73Y-80.01
X132.08Y-77.47
X132.08Y-77.47
X144.78Y-80.01
X144.78Y-80.01
X151.13Y-77.47
X151.13Y-77.47
X163.83Y-80.01
X163.83Y-80.01
X170.18Y-77.47
X170.18Y-77.47
X68.58Y-99.06
X68.58Y-99.06
X74.93Y-96.52
X74.93Y-96.52
X87.63Y-99.06
X87.63Y-99.06
X93.98Y-96.52
X93.98Y-96.52
X106.68Y-99.06
X106.68Y-99.06
X113.03Y-96.52
X113.03Y-96.52
X125.73Y-99.06
X125.73Y-99.06
X132.08Y-96.52
X132.08Y-96.52
X144.78Y-99.06
X144.78Y-99.06
X151.13Y-96.52
X151.13Y-96.52
X163.83Y-99.06
X163.83Y-99.06
X170.18Y-96.52
X170.18Y-96.52
X68.58Y-118.11
X68.58Y-118.11
X74.93Y-115.57
X74.93Y-115.57
X87.63Y-118.11
X87.63Y-118.11
X93.98Y-115.57
X93.98Y-115.57
X106.68Y-118.11
X106.68Y-118.11
X113.03Y-115.57
X113.03Y-115.57
X125.73Y-118.11
X125.73Y-118.11
X132.08Y-115.57
X132.08Y-115.57
X162.56Y-118.11
X162.56Y-118.11
X165.1Y-124.46
X165.1Y-124.46
X155.552Y-125.73
X155.552Y-125.73
X161.902Y-123.19
X161.902Y-123.19
X106.68Y-41.91
X106.68Y-41.91
X113.03Y-39.37
X113.03Y-39.37
X144.78Y-118.11
X144.78Y-118.11
X151.13Y-115.57
X151.13Y-115.57
X68.58Y-41.91
X68.58Y-41.91
X74.93Y-39.37
X74.93Y-39.37
X87.63Y-41.91
X87.63Y-41.91
X93.98Y-39.37
X93.98Y-39.37
X125.73Y-41.91
X125.73Y-41.91
X132.08Y-39.37
X132.08Y-39.37
X144.78Y-41.91
X144.78Y-41.91
X151.13Y-39.37
X151.13Y-39.37
X163.83Y-41.91
X163.83Y-41.91
X170.18Y-39.37
X170.18Y-39.37
X68.58Y-60.96
X68.58Y-60.96
X74.93Y-58.42
X74.93Y-58.42
X87.63Y-60.96
X87.63Y-60.96
X93.98Y-58.42
X93.98Y-58.42
X106.68Y-60.96
X106.68Y-60.96
X113.03Y-58.42
X113.03Y-58.42
X125.73Y-60.96
X125.73Y-60.96
X132.08Y-58.42
X132.08Y-58.42
X144.78Y-60.96
X144.78Y-60.96
X151.13Y-58.42
X151.13Y-58.42
T2
G00X164.865Y-24.94
M15
G01X164.865Y-24.34
M16
G05
G00X165.365Y-21.79
M15
G01X165.965Y-21.79
M16
G05
G00X165.365Y-27.49
M15
G01X165.965Y-27.49
M16
G05
G00X173.365Y-21.34
M15
G01X173.965Y-21.34
M16
G05
G00X173.365Y-27.94
M15
G01X173.965Y-27.94
M16
G05
G00X164.865Y-30.78
M15
G01X164.865Y-30.18
M16
G05
G00X165.965Y-27.63
M15
G01X165.365Y-27.63
M16
G05
G00X165.965Y-33.33
M15
G01X165.365Y-33.33
M16
G05
G00X173.965Y-27.18
M15
G01X173.365Y-27.18
M16
G05
G00X173.965Y-33.78
M15
G01X173.365Y-33.78
M16
G05
T0
M30
