M48
; DRILL file {KiCad (5.1.0)-1} date 03/04/2019 0:53:48
; FORMAT={-:-/ absolute / metric / decimal}
; #@! TF.CreationDate,2019-04-03T00:53:48+07:00
; #@! TF.GenerationSoftware,Kicad,Pcbnew,(5.1.0)-1
; #@! TF.FileFunction,NonPlated,1,2,NPTH
FMAT,2
METRIC
T1C1.200
T2C1.700
T3C3.050
T4C3.988
T5C4.000
%
G90
G05
T1
X168.165Y-24.64
X175.165Y-24.64
X168.165Y-30.48
X175.165Y-30.48
T2
X162.56Y-63.5
X172.72Y-63.5
X67.31Y-82.55
X77.47Y-82.55
X86.36Y-82.55
X96.52Y-82.55
X105.41Y-82.55
X115.57Y-82.55
X124.46Y-82.55
X134.62Y-82.55
X143.51Y-82.55
X153.67Y-82.55
X162.56Y-82.55
X172.72Y-82.55
X67.31Y-101.6
X77.47Y-101.6
X86.36Y-101.6
X96.52Y-101.6
X105.41Y-101.6
X115.57Y-101.6
X124.46Y-101.6
X134.62Y-101.6
X143.51Y-101.6
X153.67Y-101.6
X162.56Y-101.6
X172.72Y-101.6
X67.31Y-120.65
X77.47Y-120.65
X86.36Y-120.65
X96.52Y-120.65
X105.41Y-120.65
X115.57Y-120.65
X124.46Y-120.65
X134.62Y-120.65
X167.64Y-115.57
X167.64Y-125.73
X153.012Y-120.65
X163.172Y-120.65
X105.41Y-44.45
X115.57Y-44.45
X143.51Y-120.65
X153.67Y-120.65
X67.31Y-44.45
X77.47Y-44.45
X86.36Y-44.45
X96.52Y-44.45
X124.46Y-44.45
X134.62Y-44.45
X143.51Y-44.45
X153.67Y-44.45
X162.56Y-44.45
X172.72Y-44.45
X67.31Y-63.5
X77.47Y-63.5
X86.36Y-63.5
X96.52Y-63.5
X105.41Y-63.5
X115.57Y-63.5
X124.46Y-63.5
X134.62Y-63.5
X143.51Y-63.5
X153.67Y-63.5
T3
X146.192Y-127.65
X169.992Y-127.65
T4
X167.64Y-63.5
X167.64Y-63.5
X72.39Y-82.55
X72.39Y-82.55
X91.44Y-82.55
X91.44Y-82.55
X110.49Y-82.55
X110.49Y-82.55
X129.54Y-82.55
X129.54Y-82.55
X148.59Y-82.55
X148.59Y-82.55
X167.64Y-82.55
X167.64Y-82.55
X72.39Y-101.6
X72.39Y-101.6
X91.44Y-101.6
X91.44Y-101.6
X110.49Y-101.6
X110.49Y-101.6
X129.54Y-101.6
X129.54Y-101.6
X148.59Y-101.6
X148.59Y-101.6
X167.64Y-101.6
X167.64Y-101.6
X72.39Y-120.65
X72.39Y-120.65
X91.44Y-120.65
X91.44Y-120.65
X110.49Y-120.65
X110.49Y-120.65
X129.54Y-120.65
X129.54Y-120.65
X167.64Y-120.65
X167.64Y-120.65
X158.092Y-120.65
X158.092Y-120.65
X110.49Y-44.45
X110.49Y-44.45
X148.59Y-120.65
X148.59Y-120.65
X72.39Y-44.45
X72.39Y-44.45
X91.44Y-44.45
X91.44Y-44.45
X129.54Y-44.45
X129.54Y-44.45
X148.59Y-44.45
X148.59Y-44.45
X167.64Y-44.45
X167.64Y-44.45
X72.39Y-63.5
X72.39Y-63.5
X91.44Y-63.5
X91.44Y-63.5
X110.49Y-63.5
X110.49Y-63.5
X129.54Y-63.5
X129.54Y-63.5
X148.59Y-63.5
X148.59Y-63.5
T5
X167.64Y-63.5
X167.64Y-63.5
X72.39Y-82.55
X72.39Y-82.55
X91.44Y-82.55
X91.44Y-82.55
X110.49Y-82.55
X110.49Y-82.55
X129.54Y-82.55
X129.54Y-82.55
X148.59Y-82.55
X148.59Y-82.55
X167.64Y-82.55
X167.64Y-82.55
X72.39Y-101.6
X72.39Y-101.6
X91.44Y-101.6
X91.44Y-101.6
X110.49Y-101.6
X110.49Y-101.6
X129.54Y-101.6
X129.54Y-101.6
X148.59Y-101.6
X148.59Y-101.6
X167.64Y-101.6
X167.64Y-101.6
X72.39Y-120.65
X72.39Y-120.65
X91.44Y-120.65
X91.44Y-120.65
X110.49Y-120.65
X110.49Y-120.65
X129.54Y-120.65
X129.54Y-120.65
X167.64Y-120.65
X167.64Y-120.65
X146.192Y-112.41
X158.092Y-120.65
X158.092Y-120.65
X169.992Y-112.41
X110.49Y-44.45
X110.49Y-44.45
X148.59Y-120.65
X148.59Y-120.65
X72.39Y-44.45
X72.39Y-44.45
X91.44Y-44.45
X91.44Y-44.45
X129.54Y-44.45
X129.54Y-44.45
X148.59Y-44.45
X148.59Y-44.45
X167.64Y-44.45
X167.64Y-44.45
X72.39Y-63.5
X72.39Y-63.5
X91.44Y-63.5
X91.44Y-63.5
X110.49Y-63.5
X110.49Y-63.5
X129.54Y-63.5
X129.54Y-63.5
X148.59Y-63.5
X148.59Y-63.5
T0
M30
