G04 #@! TF.GenerationSoftware,KiCad,Pcbnew,(5.1.0)-1*
G04 #@! TF.CreationDate,2019-04-03T00:52:31+07:00*
G04 #@! TF.ProjectId,Nyquist,4e797175-6973-4742-9e6b-696361645f70,rev?*
G04 #@! TF.SameCoordinates,Original*
G04 #@! TF.FileFunction,Legend,Bot*
G04 #@! TF.FilePolarity,Positive*
%FSLAX46Y46*%
G04 Gerber Fmt 4.6, Leading zero omitted, Abs format (unit mm)*
G04 Created by KiCad (PCBNEW (5.1.0)-1) date 2019-04-03 00:52:31*
%MOMM*%
%LPD*%
G04 APERTURE LIST*
%ADD10C,0.250000*%
%ADD11C,0.300000*%
%ADD12C,0.010000*%
%ADD13C,0.120000*%
%ADD14C,0.200000*%
%ADD15C,0.100000*%
%ADD16C,0.381000*%
%ADD17C,0.150000*%
%ADD18C,0.127000*%
%ADD19C,0.254000*%
%ADD20C,0.050000*%
G04 APERTURE END LIST*
D10*
X93545714Y-23538571D02*
X93545714Y-22038571D01*
X93188571Y-22038571D01*
X92974285Y-22110000D01*
X92831428Y-22252857D01*
X92760000Y-22395714D01*
X92688571Y-22681428D01*
X92688571Y-22895714D01*
X92760000Y-23181428D01*
X92831428Y-23324285D01*
X92974285Y-23467142D01*
X93188571Y-23538571D01*
X93545714Y-23538571D01*
X92045714Y-22752857D02*
X91545714Y-22752857D01*
X91331428Y-23538571D02*
X92045714Y-23538571D01*
X92045714Y-22038571D01*
X91331428Y-22038571D01*
X90760000Y-23467142D02*
X90545714Y-23538571D01*
X90188571Y-23538571D01*
X90045714Y-23467142D01*
X89974285Y-23395714D01*
X89902857Y-23252857D01*
X89902857Y-23110000D01*
X89974285Y-22967142D01*
X90045714Y-22895714D01*
X90188571Y-22824285D01*
X90474285Y-22752857D01*
X90617142Y-22681428D01*
X90688571Y-22610000D01*
X90760000Y-22467142D01*
X90760000Y-22324285D01*
X90688571Y-22181428D01*
X90617142Y-22110000D01*
X90474285Y-22038571D01*
X90117142Y-22038571D01*
X89902857Y-22110000D01*
X89260000Y-23538571D02*
X89260000Y-22038571D01*
X87760000Y-22110000D02*
X87902857Y-22038571D01*
X88117142Y-22038571D01*
X88331428Y-22110000D01*
X88474285Y-22252857D01*
X88545714Y-22395714D01*
X88617142Y-22681428D01*
X88617142Y-22895714D01*
X88545714Y-23181428D01*
X88474285Y-23324285D01*
X88331428Y-23467142D01*
X88117142Y-23538571D01*
X87974285Y-23538571D01*
X87760000Y-23467142D01*
X87688571Y-23395714D01*
X87688571Y-22895714D01*
X87974285Y-22895714D01*
X87045714Y-23538571D02*
X87045714Y-22038571D01*
X86188571Y-23538571D01*
X86188571Y-22038571D01*
X85474285Y-22752857D02*
X84974285Y-22752857D01*
X84760000Y-23538571D02*
X85474285Y-23538571D01*
X85474285Y-22038571D01*
X84760000Y-22038571D01*
X84117142Y-23538571D02*
X84117142Y-22038571D01*
X83760000Y-22038571D01*
X83545714Y-22110000D01*
X83402857Y-22252857D01*
X83331428Y-22395714D01*
X83260000Y-22681428D01*
X83260000Y-22895714D01*
X83331428Y-23181428D01*
X83402857Y-23324285D01*
X83545714Y-23467142D01*
X83760000Y-23538571D01*
X84117142Y-23538571D01*
X80974285Y-22752857D02*
X80760000Y-22824285D01*
X80688571Y-22895714D01*
X80617142Y-23038571D01*
X80617142Y-23252857D01*
X80688571Y-23395714D01*
X80760000Y-23467142D01*
X80902857Y-23538571D01*
X81474285Y-23538571D01*
X81474285Y-22038571D01*
X80974285Y-22038571D01*
X80831428Y-22110000D01*
X80760000Y-22181428D01*
X80688571Y-22324285D01*
X80688571Y-22467142D01*
X80760000Y-22610000D01*
X80831428Y-22681428D01*
X80974285Y-22752857D01*
X81474285Y-22752857D01*
X79688571Y-22824285D02*
X79688571Y-23538571D01*
X80188571Y-22038571D02*
X79688571Y-22824285D01*
X79188571Y-22038571D01*
X77760000Y-22038571D02*
X76902857Y-22038571D01*
X77331428Y-23538571D02*
X77331428Y-22038571D01*
X75545714Y-23538571D02*
X76045714Y-22824285D01*
X76402857Y-23538571D02*
X76402857Y-22038571D01*
X75831428Y-22038571D01*
X75688571Y-22110000D01*
X75617142Y-22181428D01*
X75545714Y-22324285D01*
X75545714Y-22538571D01*
X75617142Y-22681428D01*
X75688571Y-22752857D01*
X75831428Y-22824285D01*
X76402857Y-22824285D01*
X74974285Y-23110000D02*
X74260000Y-23110000D01*
X75117142Y-23538571D02*
X74617142Y-22038571D01*
X74117142Y-23538571D01*
X73617142Y-23538571D02*
X73617142Y-22038571D01*
X72760000Y-23538571D01*
X72760000Y-22038571D01*
X70902857Y-23538571D02*
X70902857Y-22038571D01*
X70045714Y-23538571D02*
X70688571Y-22681428D01*
X70045714Y-22038571D02*
X70902857Y-22895714D01*
X69402857Y-23538571D02*
X69402857Y-22038571D01*
X68688571Y-22752857D02*
X68188571Y-22752857D01*
X67974285Y-23538571D02*
X68688571Y-23538571D01*
X68688571Y-22038571D01*
X67974285Y-22038571D01*
X67331428Y-23538571D02*
X67331428Y-22038571D01*
X66474285Y-23538571D01*
X66474285Y-22038571D01*
D11*
X89672857Y-26078571D02*
X89672857Y-24578571D01*
X89101428Y-24578571D01*
X88958571Y-24650000D01*
X88887142Y-24721428D01*
X88815714Y-24864285D01*
X88815714Y-25078571D01*
X88887142Y-25221428D01*
X88958571Y-25292857D01*
X89101428Y-25364285D01*
X89672857Y-25364285D01*
X87887142Y-24578571D02*
X87601428Y-24578571D01*
X87458571Y-24650000D01*
X87315714Y-24792857D01*
X87244285Y-25078571D01*
X87244285Y-25578571D01*
X87315714Y-25864285D01*
X87458571Y-26007142D01*
X87601428Y-26078571D01*
X87887142Y-26078571D01*
X88030000Y-26007142D01*
X88172857Y-25864285D01*
X88244285Y-25578571D01*
X88244285Y-25078571D01*
X88172857Y-24792857D01*
X88030000Y-24650000D01*
X87887142Y-24578571D01*
X86744285Y-24578571D02*
X86387142Y-26078571D01*
X86101428Y-25007142D01*
X85815714Y-26078571D01*
X85458571Y-24578571D01*
X84887142Y-25292857D02*
X84387142Y-25292857D01*
X84172857Y-26078571D02*
X84887142Y-26078571D01*
X84887142Y-24578571D01*
X84172857Y-24578571D01*
X82672857Y-26078571D02*
X83172857Y-25364285D01*
X83530000Y-26078571D02*
X83530000Y-24578571D01*
X82958571Y-24578571D01*
X82815714Y-24650000D01*
X82744285Y-24721428D01*
X82672857Y-24864285D01*
X82672857Y-25078571D01*
X82744285Y-25221428D01*
X82815714Y-25292857D01*
X82958571Y-25364285D01*
X83530000Y-25364285D01*
X80387142Y-25292857D02*
X80172857Y-25364285D01*
X80101428Y-25435714D01*
X80030000Y-25578571D01*
X80030000Y-25792857D01*
X80101428Y-25935714D01*
X80172857Y-26007142D01*
X80315714Y-26078571D01*
X80887142Y-26078571D01*
X80887142Y-24578571D01*
X80387142Y-24578571D01*
X80244285Y-24650000D01*
X80172857Y-24721428D01*
X80101428Y-24864285D01*
X80101428Y-25007142D01*
X80172857Y-25150000D01*
X80244285Y-25221428D01*
X80387142Y-25292857D01*
X80887142Y-25292857D01*
X79101428Y-25364285D02*
X79101428Y-26078571D01*
X79601428Y-24578571D02*
X79101428Y-25364285D01*
X78601428Y-24578571D01*
X75958571Y-26221428D02*
X76101428Y-26150000D01*
X76244285Y-26007142D01*
X76458571Y-25792857D01*
X76601428Y-25721428D01*
X76744285Y-25721428D01*
X76672857Y-26078571D02*
X76815714Y-26007142D01*
X76958571Y-25864285D01*
X77030000Y-25578571D01*
X77030000Y-25078571D01*
X76958571Y-24792857D01*
X76815714Y-24650000D01*
X76672857Y-24578571D01*
X76387142Y-24578571D01*
X76244285Y-24650000D01*
X76101428Y-24792857D01*
X76030000Y-25078571D01*
X76030000Y-25578571D01*
X76101428Y-25864285D01*
X76244285Y-26007142D01*
X76387142Y-26078571D01*
X76672857Y-26078571D01*
X75387142Y-26078571D02*
X75387142Y-24578571D01*
X74887142Y-25650000D01*
X74387142Y-24578571D01*
X74387142Y-26078571D01*
X73672857Y-26078571D02*
X73672857Y-24578571D01*
X72815714Y-26078571D02*
X73458571Y-25221428D01*
X72815714Y-24578571D02*
X73672857Y-25435714D01*
D12*
G36*
X70506052Y-25861951D02*
G01*
X70285637Y-25862418D01*
X70104554Y-25863317D01*
X69959377Y-25864751D01*
X69846682Y-25866820D01*
X69763043Y-25869625D01*
X69705035Y-25873266D01*
X69669235Y-25877843D01*
X69652215Y-25883458D01*
X69650553Y-25890211D01*
X69655086Y-25894551D01*
X69670783Y-25909241D01*
X69682539Y-25931516D01*
X69691074Y-25967918D01*
X69697106Y-26024988D01*
X69701353Y-26109265D01*
X69704534Y-26227292D01*
X69707081Y-26367915D01*
X69714253Y-26808546D01*
X69180363Y-26808546D01*
X69180363Y-26381364D01*
X69180688Y-26229973D01*
X69182109Y-26117869D01*
X69185299Y-26038158D01*
X69190931Y-25983946D01*
X69199678Y-25948341D01*
X69212211Y-25924449D01*
X69226545Y-25908000D01*
X69272727Y-25861819D01*
X68913169Y-25861819D01*
X68777550Y-25862184D01*
X68682240Y-25863721D01*
X68621368Y-25867088D01*
X68589064Y-25872943D01*
X68579458Y-25881947D01*
X68586679Y-25894757D01*
X68589896Y-25898104D01*
X68602888Y-25917681D01*
X68612455Y-25950898D01*
X68619082Y-26004082D01*
X68623254Y-26083563D01*
X68625455Y-26195668D01*
X68626172Y-26346727D01*
X68626181Y-26371468D01*
X68626181Y-26808546D01*
X68118181Y-26808546D01*
X68118181Y-26377409D01*
X68118695Y-26222295D01*
X68120591Y-26106759D01*
X68124402Y-26024206D01*
X68130661Y-25968041D01*
X68139899Y-25931669D01*
X68152649Y-25908494D01*
X68156397Y-25904046D01*
X68168924Y-25887991D01*
X68168703Y-25876624D01*
X68149706Y-25869135D01*
X68105904Y-25864718D01*
X68031271Y-25862566D01*
X67919779Y-25861872D01*
X67841091Y-25861819D01*
X67706902Y-25862058D01*
X67612868Y-25863313D01*
X67552960Y-25866392D01*
X67521151Y-25872101D01*
X67511413Y-25881248D01*
X67517719Y-25894641D01*
X67525785Y-25904046D01*
X67539483Y-25924978D01*
X67549538Y-25957481D01*
X67556483Y-26008148D01*
X67560848Y-26083576D01*
X67563167Y-26190360D01*
X67563972Y-26335095D01*
X67564000Y-26377409D01*
X67564000Y-26808546D01*
X67056000Y-26808546D01*
X67056000Y-26377409D01*
X67056513Y-26222295D01*
X67058410Y-26106759D01*
X67062220Y-26024206D01*
X67068479Y-25968041D01*
X67077717Y-25931669D01*
X67090467Y-25908494D01*
X67094215Y-25904046D01*
X67106743Y-25887991D01*
X67106521Y-25876624D01*
X67087524Y-25869135D01*
X67043722Y-25864718D01*
X66969089Y-25862566D01*
X66857597Y-25861872D01*
X66778909Y-25861819D01*
X66644721Y-25862058D01*
X66550686Y-25863313D01*
X66490778Y-25866392D01*
X66458969Y-25872101D01*
X66449231Y-25881248D01*
X66455537Y-25894641D01*
X66463603Y-25904046D01*
X66477301Y-25924978D01*
X66487357Y-25957481D01*
X66494301Y-26008148D01*
X66498666Y-26083576D01*
X66500985Y-26190360D01*
X66501791Y-26335095D01*
X66501818Y-26377409D01*
X66501818Y-26808546D01*
X65993818Y-26808546D01*
X65993818Y-26371468D01*
X65994365Y-26214421D01*
X65996328Y-26097217D01*
X66000193Y-26013529D01*
X66006445Y-25957028D01*
X66015569Y-25921385D01*
X66028050Y-25900271D01*
X66030104Y-25898104D01*
X66040202Y-25884381D01*
X66034746Y-25874607D01*
X66007868Y-25868125D01*
X65953696Y-25864274D01*
X65866359Y-25862396D01*
X65739989Y-25861832D01*
X65706831Y-25861819D01*
X65347272Y-25861819D01*
X65393454Y-25908000D01*
X65409786Y-25927331D01*
X65421751Y-25952441D01*
X65430024Y-25990224D01*
X65435276Y-26047574D01*
X65438179Y-26131384D01*
X65439407Y-26248546D01*
X65439636Y-26381364D01*
X65439636Y-26808546D01*
X64905746Y-26808546D01*
X64912918Y-26367915D01*
X64915754Y-26213889D01*
X64919008Y-26099503D01*
X64923400Y-26018217D01*
X64929648Y-25963490D01*
X64938471Y-25928782D01*
X64950586Y-25907551D01*
X64964913Y-25894551D01*
X64970389Y-25887113D01*
X64962437Y-25880870D01*
X64937632Y-25875721D01*
X64892548Y-25871565D01*
X64823761Y-25868302D01*
X64727845Y-25865832D01*
X64601376Y-25864052D01*
X64440929Y-25862864D01*
X64243079Y-25862166D01*
X64004401Y-25861858D01*
X63850777Y-25861819D01*
X62691818Y-25861819D01*
X62691818Y-27020777D01*
X62691951Y-27283948D01*
X62692417Y-27504363D01*
X62693317Y-27685446D01*
X62694751Y-27830623D01*
X62696820Y-27943318D01*
X62699624Y-28026957D01*
X62703265Y-28084965D01*
X62707842Y-28120765D01*
X62713457Y-28137785D01*
X62720210Y-28139447D01*
X62724551Y-28134914D01*
X62739240Y-28119217D01*
X62761515Y-28107461D01*
X62797918Y-28098926D01*
X62854987Y-28092894D01*
X62939265Y-28088647D01*
X63057291Y-28085466D01*
X63197914Y-28082919D01*
X63638545Y-28075747D01*
X63638545Y-28609637D01*
X63211363Y-28609637D01*
X63059973Y-28609312D01*
X62947868Y-28607891D01*
X62868157Y-28604701D01*
X62813946Y-28599069D01*
X62778341Y-28590322D01*
X62754449Y-28577789D01*
X62738000Y-28563455D01*
X62720550Y-28547132D01*
X62708164Y-28542629D01*
X62699975Y-28555836D01*
X62695113Y-28592641D01*
X62692711Y-28658935D01*
X62691902Y-28760605D01*
X62691818Y-28876831D01*
X62692184Y-29012450D01*
X62693721Y-29107760D01*
X62697087Y-29168632D01*
X62702943Y-29200936D01*
X62711946Y-29210542D01*
X62724756Y-29203321D01*
X62728104Y-29200104D01*
X62747681Y-29187112D01*
X62780897Y-29177545D01*
X62834081Y-29170918D01*
X62913562Y-29166746D01*
X63025668Y-29164545D01*
X63176727Y-29163828D01*
X63201467Y-29163819D01*
X63638545Y-29163819D01*
X63638545Y-29671819D01*
X63207409Y-29671819D01*
X63052294Y-29671305D01*
X62936758Y-29669409D01*
X62854205Y-29665598D01*
X62798040Y-29659339D01*
X62761668Y-29650101D01*
X62738494Y-29637351D01*
X62734045Y-29633603D01*
X62717991Y-29621076D01*
X62706623Y-29621297D01*
X62699134Y-29640294D01*
X62694718Y-29684096D01*
X62692566Y-29758729D01*
X62691871Y-29870221D01*
X62691818Y-29948909D01*
X62692057Y-30083098D01*
X62693312Y-30177132D01*
X62696391Y-30237040D01*
X62702100Y-30268849D01*
X62711248Y-30278587D01*
X62724640Y-30272281D01*
X62734045Y-30264215D01*
X62754978Y-30250517D01*
X62787480Y-30240462D01*
X62838148Y-30233517D01*
X62913576Y-30229152D01*
X63020360Y-30226833D01*
X63165095Y-30226028D01*
X63207409Y-30226000D01*
X63638545Y-30226000D01*
X63638545Y-30734000D01*
X63207409Y-30734000D01*
X63052294Y-30733487D01*
X62936758Y-30731590D01*
X62854205Y-30727780D01*
X62798040Y-30721521D01*
X62761668Y-30712283D01*
X62738494Y-30699533D01*
X62734045Y-30695785D01*
X62717991Y-30683257D01*
X62706623Y-30683479D01*
X62699134Y-30702476D01*
X62694718Y-30746278D01*
X62692566Y-30820911D01*
X62691871Y-30932403D01*
X62691818Y-31011091D01*
X62692057Y-31145279D01*
X62693312Y-31239314D01*
X62696391Y-31299222D01*
X62702100Y-31331031D01*
X62711248Y-31340769D01*
X62724640Y-31334463D01*
X62734045Y-31326397D01*
X62754978Y-31312699D01*
X62787480Y-31302643D01*
X62838148Y-31295699D01*
X62913576Y-31291334D01*
X63020360Y-31289015D01*
X63165095Y-31288209D01*
X63207409Y-31288182D01*
X63638545Y-31288182D01*
X63638545Y-31796182D01*
X63201467Y-31796182D01*
X63044420Y-31795635D01*
X62927216Y-31793672D01*
X62843528Y-31789807D01*
X62787027Y-31783555D01*
X62751384Y-31774431D01*
X62730270Y-31761950D01*
X62728104Y-31759896D01*
X62714380Y-31749798D01*
X62704607Y-31755254D01*
X62698124Y-31782132D01*
X62694273Y-31836304D01*
X62692395Y-31923641D01*
X62691831Y-32050011D01*
X62691818Y-32083169D01*
X62691818Y-32442728D01*
X62738000Y-32396546D01*
X62757330Y-32380214D01*
X62782441Y-32368249D01*
X62820224Y-32359976D01*
X62877574Y-32354724D01*
X62961383Y-32351821D01*
X63078546Y-32350593D01*
X63211363Y-32350364D01*
X63638545Y-32350364D01*
X63638545Y-32884254D01*
X63197914Y-32877082D01*
X63043888Y-32874246D01*
X62929503Y-32870992D01*
X62848217Y-32866600D01*
X62793490Y-32860352D01*
X62758781Y-32851529D01*
X62737551Y-32839414D01*
X62724551Y-32825087D01*
X62717113Y-32819611D01*
X62710869Y-32827563D01*
X62705720Y-32852368D01*
X62701565Y-32897452D01*
X62698302Y-32966239D01*
X62695831Y-33062155D01*
X62694052Y-33188624D01*
X62692864Y-33349071D01*
X62692166Y-33546921D01*
X62691858Y-33785599D01*
X62691818Y-33939223D01*
X62691818Y-35098182D01*
X63850777Y-35098182D01*
X64113948Y-35098049D01*
X64334362Y-35097583D01*
X64515445Y-35096683D01*
X64660622Y-35095249D01*
X64773318Y-35093180D01*
X64856957Y-35090376D01*
X64914964Y-35086735D01*
X64950765Y-35082158D01*
X64967784Y-35076543D01*
X64969446Y-35069790D01*
X64964913Y-35065449D01*
X64949217Y-35050760D01*
X64937460Y-35028485D01*
X64928925Y-34992082D01*
X64922893Y-34935013D01*
X64918646Y-34850735D01*
X64915465Y-34732709D01*
X64912918Y-34592086D01*
X64905746Y-34151455D01*
X65439636Y-34151455D01*
X65439636Y-34578637D01*
X65439312Y-34730027D01*
X65437891Y-34842132D01*
X65434700Y-34921843D01*
X65429068Y-34976054D01*
X65420322Y-35011659D01*
X65407788Y-35035551D01*
X65393454Y-35052000D01*
X65347272Y-35098182D01*
X65706831Y-35098182D01*
X65842450Y-35097816D01*
X65937760Y-35096279D01*
X65998631Y-35092913D01*
X66030935Y-35087057D01*
X66040541Y-35078054D01*
X66033320Y-35065244D01*
X66030104Y-35061896D01*
X66017111Y-35042319D01*
X66007544Y-35009103D01*
X66000917Y-34955919D01*
X65996746Y-34876438D01*
X65994544Y-34764332D01*
X65993827Y-34613273D01*
X65993818Y-34588533D01*
X65993818Y-34151455D01*
X66501818Y-34151455D01*
X66501818Y-34582591D01*
X66501304Y-34737706D01*
X66499408Y-34853242D01*
X66495597Y-34935795D01*
X66489339Y-34991960D01*
X66480101Y-35028332D01*
X66467351Y-35051506D01*
X66463603Y-35055955D01*
X66451075Y-35072009D01*
X66451296Y-35083377D01*
X66470294Y-35090866D01*
X66514095Y-35095282D01*
X66588728Y-35097434D01*
X66700221Y-35098129D01*
X66778909Y-35098182D01*
X66913097Y-35097943D01*
X67007131Y-35096688D01*
X67067039Y-35093609D01*
X67098849Y-35087900D01*
X67108587Y-35078752D01*
X67102281Y-35065360D01*
X67094215Y-35055955D01*
X67080516Y-35035022D01*
X67070461Y-35002520D01*
X67063517Y-34951852D01*
X67059151Y-34876424D01*
X67056832Y-34769640D01*
X67056027Y-34624905D01*
X67056000Y-34582591D01*
X67056000Y-34151455D01*
X67564000Y-34151455D01*
X67564000Y-34582591D01*
X67563486Y-34737706D01*
X67561590Y-34853242D01*
X67557779Y-34935795D01*
X67551521Y-34991960D01*
X67542283Y-35028332D01*
X67529532Y-35051506D01*
X67525785Y-35055955D01*
X67513257Y-35072009D01*
X67513478Y-35083377D01*
X67532476Y-35090866D01*
X67576277Y-35095282D01*
X67650910Y-35097434D01*
X67762402Y-35098129D01*
X67841091Y-35098182D01*
X67975279Y-35097943D01*
X68069313Y-35096688D01*
X68129221Y-35093609D01*
X68161030Y-35087900D01*
X68170768Y-35078752D01*
X68164463Y-35065360D01*
X68156397Y-35055955D01*
X68142698Y-35035022D01*
X68132643Y-35002520D01*
X68125699Y-34951852D01*
X68121333Y-34876424D01*
X68119014Y-34769640D01*
X68118209Y-34624905D01*
X68118181Y-34582591D01*
X68118181Y-34151455D01*
X68626181Y-34151455D01*
X68626181Y-34588533D01*
X68625635Y-34745580D01*
X68623672Y-34862784D01*
X68619806Y-34946472D01*
X68613554Y-35002973D01*
X68604430Y-35038616D01*
X68591949Y-35059730D01*
X68589896Y-35061896D01*
X68579798Y-35075620D01*
X68585253Y-35085393D01*
X68612131Y-35091876D01*
X68666304Y-35095727D01*
X68753640Y-35097605D01*
X68880011Y-35098169D01*
X68913169Y-35098182D01*
X69048881Y-35098037D01*
X69144300Y-35097025D01*
X69205315Y-35094277D01*
X69237816Y-35088925D01*
X69247691Y-35080102D01*
X69240829Y-35066939D01*
X69226545Y-35052000D01*
X69210214Y-35032670D01*
X69198248Y-35007559D01*
X69189975Y-34969776D01*
X69184724Y-34912426D01*
X69181820Y-34828617D01*
X69180592Y-34711454D01*
X69180363Y-34578637D01*
X69180363Y-34151455D01*
X69714253Y-34151455D01*
X69707081Y-34592086D01*
X69704246Y-34746112D01*
X69700991Y-34860497D01*
X69696599Y-34941783D01*
X69690351Y-34996510D01*
X69681529Y-35031219D01*
X69669413Y-35052449D01*
X69655086Y-35065449D01*
X69649610Y-35072887D01*
X69657562Y-35079131D01*
X69682368Y-35084280D01*
X69727451Y-35088435D01*
X69796239Y-35091698D01*
X69892154Y-35094169D01*
X70018623Y-35095948D01*
X70179070Y-35097136D01*
X70376920Y-35097834D01*
X70615598Y-35098142D01*
X70769223Y-35098182D01*
X71928181Y-35098182D01*
X71928181Y-33939223D01*
X71928049Y-33676052D01*
X71927582Y-33455638D01*
X71926683Y-33274555D01*
X71925249Y-33129378D01*
X71923180Y-33016682D01*
X71920375Y-32933043D01*
X71916734Y-32875036D01*
X71912157Y-32839235D01*
X71906542Y-32822216D01*
X71899789Y-32820554D01*
X71895449Y-32825087D01*
X71880759Y-32840783D01*
X71858484Y-32852540D01*
X71822082Y-32861075D01*
X71765012Y-32867107D01*
X71680735Y-32871354D01*
X71562708Y-32874535D01*
X71422085Y-32877082D01*
X70981454Y-32884254D01*
X70981454Y-32350364D01*
X71408636Y-32350364D01*
X71560027Y-32350688D01*
X71672131Y-32352109D01*
X71751842Y-32355300D01*
X71806054Y-32360932D01*
X71841659Y-32369678D01*
X71865551Y-32382212D01*
X71882000Y-32396546D01*
X71928181Y-32442728D01*
X71928181Y-32083169D01*
X71927816Y-31947550D01*
X71926279Y-31852240D01*
X71922912Y-31791369D01*
X71917057Y-31759065D01*
X71908053Y-31749459D01*
X71895243Y-31756680D01*
X71891896Y-31759896D01*
X71872319Y-31772889D01*
X71839102Y-31782456D01*
X71785918Y-31789083D01*
X71706437Y-31793254D01*
X71594332Y-31795456D01*
X71443273Y-31796173D01*
X71418532Y-31796182D01*
X70981454Y-31796182D01*
X70981454Y-31288182D01*
X71412591Y-31288182D01*
X71567705Y-31288696D01*
X71683241Y-31290592D01*
X71765794Y-31294403D01*
X71821959Y-31300661D01*
X71858331Y-31309899D01*
X71881506Y-31322649D01*
X71885954Y-31326397D01*
X71902009Y-31338925D01*
X71913376Y-31338704D01*
X71920865Y-31319706D01*
X71925282Y-31275905D01*
X71927434Y-31201272D01*
X71928128Y-31089779D01*
X71928181Y-31011091D01*
X71927942Y-30876903D01*
X71926687Y-30782869D01*
X71923608Y-30722961D01*
X71917899Y-30691151D01*
X71908752Y-30681413D01*
X71895359Y-30687719D01*
X71885954Y-30695785D01*
X71865022Y-30709484D01*
X71832519Y-30719539D01*
X71781852Y-30726483D01*
X71706424Y-30730849D01*
X71599640Y-30733168D01*
X71454905Y-30733973D01*
X71412591Y-30734000D01*
X70981454Y-30734000D01*
X70981454Y-30226000D01*
X71412591Y-30226000D01*
X71567705Y-30226514D01*
X71683241Y-30228410D01*
X71765794Y-30232221D01*
X71821959Y-30238479D01*
X71858331Y-30247717D01*
X71881506Y-30260468D01*
X71885954Y-30264215D01*
X71902009Y-30276743D01*
X71913376Y-30276522D01*
X71920865Y-30257524D01*
X71925282Y-30213723D01*
X71927434Y-30139090D01*
X71928128Y-30027598D01*
X71928181Y-29948909D01*
X71927942Y-29814721D01*
X71926687Y-29720687D01*
X71923608Y-29660779D01*
X71917899Y-29628970D01*
X71908752Y-29619232D01*
X71895359Y-29625537D01*
X71885954Y-29633603D01*
X71865022Y-29647302D01*
X71832519Y-29657357D01*
X71781852Y-29664301D01*
X71706424Y-29668667D01*
X71599640Y-29670986D01*
X71454905Y-29671791D01*
X71412591Y-29671818D01*
X70981454Y-29671819D01*
X70981454Y-29335396D01*
X69411272Y-29335396D01*
X69411272Y-29338057D01*
X69411138Y-29583118D01*
X69410604Y-29786987D01*
X69409479Y-29954656D01*
X69407570Y-30091114D01*
X69404683Y-30201352D01*
X69400625Y-30290360D01*
X69395203Y-30363128D01*
X69388225Y-30424647D01*
X69379497Y-30479906D01*
X69368826Y-30533897D01*
X69364183Y-30555290D01*
X69285460Y-30820962D01*
X69173514Y-31054788D01*
X69028195Y-31256895D01*
X68849350Y-31427409D01*
X68636830Y-31566458D01*
X68390482Y-31674168D01*
X68110156Y-31750667D01*
X67899507Y-31784989D01*
X67792297Y-31798225D01*
X67703356Y-31809086D01*
X67641795Y-31816470D01*
X67616724Y-31819271D01*
X67616644Y-31819273D01*
X67614573Y-31841145D01*
X67612777Y-31901888D01*
X67611370Y-31994189D01*
X67610468Y-32110737D01*
X67610181Y-32232082D01*
X67609479Y-32386513D01*
X67607070Y-32500775D01*
X67602502Y-32580863D01*
X67595326Y-32632774D01*
X67585088Y-32662503D01*
X67577021Y-32672411D01*
X67498602Y-32713052D01*
X67391561Y-32735583D01*
X67270355Y-32738538D01*
X67149441Y-32720446D01*
X67136818Y-32717119D01*
X67074694Y-32695068D01*
X67033166Y-32671429D01*
X67027490Y-32665293D01*
X67021965Y-32634588D01*
X67017152Y-32565704D01*
X67013370Y-32466641D01*
X67010939Y-32345402D01*
X67010171Y-32231166D01*
X67009818Y-31823332D01*
X66923227Y-31810183D01*
X66857752Y-31800776D01*
X66765113Y-31788121D01*
X66663964Y-31774761D01*
X66651353Y-31773130D01*
X66434577Y-31728853D01*
X66217691Y-31654606D01*
X66012107Y-31555868D01*
X65829239Y-31438112D01*
X65681355Y-31307726D01*
X65519394Y-31110645D01*
X65394259Y-30899777D01*
X65300689Y-30665141D01*
X65255417Y-30499935D01*
X65243943Y-30448028D01*
X65234507Y-30396264D01*
X65226913Y-30339646D01*
X65220962Y-30273179D01*
X65216458Y-30191869D01*
X65213204Y-30090718D01*
X65211001Y-29964731D01*
X65209654Y-29808914D01*
X65208964Y-29618269D01*
X65208735Y-29387802D01*
X65208727Y-29317339D01*
X65208798Y-29078464D01*
X65209134Y-28881588D01*
X65209921Y-28722529D01*
X65211345Y-28597104D01*
X65213590Y-28501132D01*
X65216843Y-28430429D01*
X65221289Y-28380813D01*
X65227113Y-28348101D01*
X65234501Y-28328112D01*
X65243638Y-28316663D01*
X65253391Y-28310267D01*
X65302080Y-28297257D01*
X65380772Y-28289361D01*
X65475928Y-28286443D01*
X65574005Y-28288367D01*
X65661462Y-28294996D01*
X65724759Y-28306194D01*
X65745744Y-28315228D01*
X65755008Y-28326098D01*
X65762747Y-28346055D01*
X65769148Y-28379198D01*
X65774397Y-28429629D01*
X65778682Y-28501449D01*
X65782189Y-28598757D01*
X65785105Y-28725655D01*
X65787617Y-28886245D01*
X65789912Y-29084625D01*
X65792175Y-29324899D01*
X65792281Y-29337000D01*
X65794529Y-29579519D01*
X65796788Y-29780580D01*
X65799289Y-29944908D01*
X65802261Y-30077227D01*
X65805935Y-30182260D01*
X65810541Y-30264732D01*
X65816309Y-30329366D01*
X65823469Y-30380886D01*
X65832251Y-30424017D01*
X65842887Y-30463481D01*
X65847978Y-30480152D01*
X65935086Y-30701947D01*
X66046833Y-30885653D01*
X66185459Y-31033097D01*
X66353204Y-31146107D01*
X66552305Y-31226508D01*
X66785003Y-31276127D01*
X66830863Y-31281957D01*
X67009818Y-31302608D01*
X67009818Y-29830772D01*
X67009898Y-29531972D01*
X67010196Y-29275970D01*
X67010796Y-29059383D01*
X67011786Y-28878827D01*
X67013251Y-28730919D01*
X67015276Y-28612275D01*
X67017947Y-28519511D01*
X67021351Y-28449245D01*
X67025572Y-28398092D01*
X67030697Y-28362669D01*
X67036812Y-28339593D01*
X67044001Y-28325480D01*
X67048101Y-28320653D01*
X67089284Y-28302789D01*
X67162255Y-28291496D01*
X67254863Y-28286506D01*
X67354958Y-28287551D01*
X67450387Y-28294364D01*
X67529001Y-28306676D01*
X67578648Y-28324219D01*
X67587614Y-28332546D01*
X67591989Y-28362400D01*
X67595981Y-28435728D01*
X67599548Y-28549824D01*
X67602652Y-28701980D01*
X67605252Y-28889491D01*
X67607308Y-29109649D01*
X67608780Y-29359748D01*
X67609629Y-29637082D01*
X67609828Y-29834895D01*
X67610181Y-31302608D01*
X67789136Y-31281957D01*
X68031538Y-31235997D01*
X68240967Y-31157744D01*
X68417670Y-31046987D01*
X68561891Y-30903517D01*
X68673878Y-30727125D01*
X68753876Y-30517599D01*
X68773374Y-30440806D01*
X68783054Y-30391294D01*
X68790975Y-30333529D01*
X68797301Y-30262682D01*
X68802194Y-30173925D01*
X68805820Y-30062429D01*
X68808340Y-29923365D01*
X68809918Y-29751905D01*
X68810718Y-29543219D01*
X68810909Y-29331807D01*
X68811098Y-29094179D01*
X68811769Y-28898468D01*
X68813076Y-28740412D01*
X68815172Y-28615749D01*
X68818213Y-28520215D01*
X68822352Y-28449548D01*
X68827742Y-28399484D01*
X68834540Y-28365762D01*
X68842898Y-28344118D01*
X68846854Y-28337684D01*
X68867589Y-28313634D01*
X68895664Y-28298520D01*
X68941245Y-28290301D01*
X69014494Y-28286935D01*
X69102373Y-28286364D01*
X69203230Y-28288801D01*
X69290254Y-28295333D01*
X69350518Y-28304790D01*
X69366609Y-28310267D01*
X69377356Y-28317559D01*
X69386226Y-28329619D01*
X69393400Y-28350586D01*
X69399056Y-28384597D01*
X69403375Y-28435787D01*
X69406537Y-28508295D01*
X69408720Y-28606258D01*
X69410106Y-28733812D01*
X69410873Y-28895095D01*
X69411202Y-29094244D01*
X69411272Y-29335396D01*
X70981454Y-29335396D01*
X70981454Y-29163819D01*
X71418532Y-29163818D01*
X71575579Y-29164365D01*
X71692783Y-29166328D01*
X71776471Y-29170194D01*
X71832972Y-29176446D01*
X71868615Y-29185570D01*
X71889729Y-29198051D01*
X71891896Y-29200104D01*
X71905619Y-29210202D01*
X71915393Y-29204747D01*
X71921875Y-29177869D01*
X71925726Y-29123696D01*
X71927604Y-29036360D01*
X71928168Y-28909989D01*
X71928181Y-28876831D01*
X71928181Y-28517273D01*
X71882000Y-28563455D01*
X71862669Y-28579786D01*
X71837559Y-28591752D01*
X71799776Y-28600025D01*
X71742426Y-28605276D01*
X71658616Y-28608180D01*
X71541454Y-28609408D01*
X71408636Y-28609637D01*
X70981454Y-28609637D01*
X70981454Y-28075747D01*
X71422085Y-28082919D01*
X71576111Y-28085754D01*
X71690497Y-28089009D01*
X71771783Y-28093401D01*
X71826510Y-28099649D01*
X71861218Y-28108471D01*
X71882449Y-28120587D01*
X71895449Y-28134914D01*
X71902887Y-28140390D01*
X71909130Y-28132438D01*
X71914279Y-28107632D01*
X71918435Y-28062549D01*
X71921698Y-27993761D01*
X71924168Y-27897846D01*
X71925948Y-27771377D01*
X71927136Y-27610930D01*
X71927834Y-27413080D01*
X71928142Y-27174402D01*
X71928181Y-27020777D01*
X71928181Y-25861819D01*
X70769223Y-25861819D01*
X70506052Y-25861951D01*
X70506052Y-25861951D01*
G37*
X70506052Y-25861951D02*
X70285637Y-25862418D01*
X70104554Y-25863317D01*
X69959377Y-25864751D01*
X69846682Y-25866820D01*
X69763043Y-25869625D01*
X69705035Y-25873266D01*
X69669235Y-25877843D01*
X69652215Y-25883458D01*
X69650553Y-25890211D01*
X69655086Y-25894551D01*
X69670783Y-25909241D01*
X69682539Y-25931516D01*
X69691074Y-25967918D01*
X69697106Y-26024988D01*
X69701353Y-26109265D01*
X69704534Y-26227292D01*
X69707081Y-26367915D01*
X69714253Y-26808546D01*
X69180363Y-26808546D01*
X69180363Y-26381364D01*
X69180688Y-26229973D01*
X69182109Y-26117869D01*
X69185299Y-26038158D01*
X69190931Y-25983946D01*
X69199678Y-25948341D01*
X69212211Y-25924449D01*
X69226545Y-25908000D01*
X69272727Y-25861819D01*
X68913169Y-25861819D01*
X68777550Y-25862184D01*
X68682240Y-25863721D01*
X68621368Y-25867088D01*
X68589064Y-25872943D01*
X68579458Y-25881947D01*
X68586679Y-25894757D01*
X68589896Y-25898104D01*
X68602888Y-25917681D01*
X68612455Y-25950898D01*
X68619082Y-26004082D01*
X68623254Y-26083563D01*
X68625455Y-26195668D01*
X68626172Y-26346727D01*
X68626181Y-26371468D01*
X68626181Y-26808546D01*
X68118181Y-26808546D01*
X68118181Y-26377409D01*
X68118695Y-26222295D01*
X68120591Y-26106759D01*
X68124402Y-26024206D01*
X68130661Y-25968041D01*
X68139899Y-25931669D01*
X68152649Y-25908494D01*
X68156397Y-25904046D01*
X68168924Y-25887991D01*
X68168703Y-25876624D01*
X68149706Y-25869135D01*
X68105904Y-25864718D01*
X68031271Y-25862566D01*
X67919779Y-25861872D01*
X67841091Y-25861819D01*
X67706902Y-25862058D01*
X67612868Y-25863313D01*
X67552960Y-25866392D01*
X67521151Y-25872101D01*
X67511413Y-25881248D01*
X67517719Y-25894641D01*
X67525785Y-25904046D01*
X67539483Y-25924978D01*
X67549538Y-25957481D01*
X67556483Y-26008148D01*
X67560848Y-26083576D01*
X67563167Y-26190360D01*
X67563972Y-26335095D01*
X67564000Y-26377409D01*
X67564000Y-26808546D01*
X67056000Y-26808546D01*
X67056000Y-26377409D01*
X67056513Y-26222295D01*
X67058410Y-26106759D01*
X67062220Y-26024206D01*
X67068479Y-25968041D01*
X67077717Y-25931669D01*
X67090467Y-25908494D01*
X67094215Y-25904046D01*
X67106743Y-25887991D01*
X67106521Y-25876624D01*
X67087524Y-25869135D01*
X67043722Y-25864718D01*
X66969089Y-25862566D01*
X66857597Y-25861872D01*
X66778909Y-25861819D01*
X66644721Y-25862058D01*
X66550686Y-25863313D01*
X66490778Y-25866392D01*
X66458969Y-25872101D01*
X66449231Y-25881248D01*
X66455537Y-25894641D01*
X66463603Y-25904046D01*
X66477301Y-25924978D01*
X66487357Y-25957481D01*
X66494301Y-26008148D01*
X66498666Y-26083576D01*
X66500985Y-26190360D01*
X66501791Y-26335095D01*
X66501818Y-26377409D01*
X66501818Y-26808546D01*
X65993818Y-26808546D01*
X65993818Y-26371468D01*
X65994365Y-26214421D01*
X65996328Y-26097217D01*
X66000193Y-26013529D01*
X66006445Y-25957028D01*
X66015569Y-25921385D01*
X66028050Y-25900271D01*
X66030104Y-25898104D01*
X66040202Y-25884381D01*
X66034746Y-25874607D01*
X66007868Y-25868125D01*
X65953696Y-25864274D01*
X65866359Y-25862396D01*
X65739989Y-25861832D01*
X65706831Y-25861819D01*
X65347272Y-25861819D01*
X65393454Y-25908000D01*
X65409786Y-25927331D01*
X65421751Y-25952441D01*
X65430024Y-25990224D01*
X65435276Y-26047574D01*
X65438179Y-26131384D01*
X65439407Y-26248546D01*
X65439636Y-26381364D01*
X65439636Y-26808546D01*
X64905746Y-26808546D01*
X64912918Y-26367915D01*
X64915754Y-26213889D01*
X64919008Y-26099503D01*
X64923400Y-26018217D01*
X64929648Y-25963490D01*
X64938471Y-25928782D01*
X64950586Y-25907551D01*
X64964913Y-25894551D01*
X64970389Y-25887113D01*
X64962437Y-25880870D01*
X64937632Y-25875721D01*
X64892548Y-25871565D01*
X64823761Y-25868302D01*
X64727845Y-25865832D01*
X64601376Y-25864052D01*
X64440929Y-25862864D01*
X64243079Y-25862166D01*
X64004401Y-25861858D01*
X63850777Y-25861819D01*
X62691818Y-25861819D01*
X62691818Y-27020777D01*
X62691951Y-27283948D01*
X62692417Y-27504363D01*
X62693317Y-27685446D01*
X62694751Y-27830623D01*
X62696820Y-27943318D01*
X62699624Y-28026957D01*
X62703265Y-28084965D01*
X62707842Y-28120765D01*
X62713457Y-28137785D01*
X62720210Y-28139447D01*
X62724551Y-28134914D01*
X62739240Y-28119217D01*
X62761515Y-28107461D01*
X62797918Y-28098926D01*
X62854987Y-28092894D01*
X62939265Y-28088647D01*
X63057291Y-28085466D01*
X63197914Y-28082919D01*
X63638545Y-28075747D01*
X63638545Y-28609637D01*
X63211363Y-28609637D01*
X63059973Y-28609312D01*
X62947868Y-28607891D01*
X62868157Y-28604701D01*
X62813946Y-28599069D01*
X62778341Y-28590322D01*
X62754449Y-28577789D01*
X62738000Y-28563455D01*
X62720550Y-28547132D01*
X62708164Y-28542629D01*
X62699975Y-28555836D01*
X62695113Y-28592641D01*
X62692711Y-28658935D01*
X62691902Y-28760605D01*
X62691818Y-28876831D01*
X62692184Y-29012450D01*
X62693721Y-29107760D01*
X62697087Y-29168632D01*
X62702943Y-29200936D01*
X62711946Y-29210542D01*
X62724756Y-29203321D01*
X62728104Y-29200104D01*
X62747681Y-29187112D01*
X62780897Y-29177545D01*
X62834081Y-29170918D01*
X62913562Y-29166746D01*
X63025668Y-29164545D01*
X63176727Y-29163828D01*
X63201467Y-29163819D01*
X63638545Y-29163819D01*
X63638545Y-29671819D01*
X63207409Y-29671819D01*
X63052294Y-29671305D01*
X62936758Y-29669409D01*
X62854205Y-29665598D01*
X62798040Y-29659339D01*
X62761668Y-29650101D01*
X62738494Y-29637351D01*
X62734045Y-29633603D01*
X62717991Y-29621076D01*
X62706623Y-29621297D01*
X62699134Y-29640294D01*
X62694718Y-29684096D01*
X62692566Y-29758729D01*
X62691871Y-29870221D01*
X62691818Y-29948909D01*
X62692057Y-30083098D01*
X62693312Y-30177132D01*
X62696391Y-30237040D01*
X62702100Y-30268849D01*
X62711248Y-30278587D01*
X62724640Y-30272281D01*
X62734045Y-30264215D01*
X62754978Y-30250517D01*
X62787480Y-30240462D01*
X62838148Y-30233517D01*
X62913576Y-30229152D01*
X63020360Y-30226833D01*
X63165095Y-30226028D01*
X63207409Y-30226000D01*
X63638545Y-30226000D01*
X63638545Y-30734000D01*
X63207409Y-30734000D01*
X63052294Y-30733487D01*
X62936758Y-30731590D01*
X62854205Y-30727780D01*
X62798040Y-30721521D01*
X62761668Y-30712283D01*
X62738494Y-30699533D01*
X62734045Y-30695785D01*
X62717991Y-30683257D01*
X62706623Y-30683479D01*
X62699134Y-30702476D01*
X62694718Y-30746278D01*
X62692566Y-30820911D01*
X62691871Y-30932403D01*
X62691818Y-31011091D01*
X62692057Y-31145279D01*
X62693312Y-31239314D01*
X62696391Y-31299222D01*
X62702100Y-31331031D01*
X62711248Y-31340769D01*
X62724640Y-31334463D01*
X62734045Y-31326397D01*
X62754978Y-31312699D01*
X62787480Y-31302643D01*
X62838148Y-31295699D01*
X62913576Y-31291334D01*
X63020360Y-31289015D01*
X63165095Y-31288209D01*
X63207409Y-31288182D01*
X63638545Y-31288182D01*
X63638545Y-31796182D01*
X63201467Y-31796182D01*
X63044420Y-31795635D01*
X62927216Y-31793672D01*
X62843528Y-31789807D01*
X62787027Y-31783555D01*
X62751384Y-31774431D01*
X62730270Y-31761950D01*
X62728104Y-31759896D01*
X62714380Y-31749798D01*
X62704607Y-31755254D01*
X62698124Y-31782132D01*
X62694273Y-31836304D01*
X62692395Y-31923641D01*
X62691831Y-32050011D01*
X62691818Y-32083169D01*
X62691818Y-32442728D01*
X62738000Y-32396546D01*
X62757330Y-32380214D01*
X62782441Y-32368249D01*
X62820224Y-32359976D01*
X62877574Y-32354724D01*
X62961383Y-32351821D01*
X63078546Y-32350593D01*
X63211363Y-32350364D01*
X63638545Y-32350364D01*
X63638545Y-32884254D01*
X63197914Y-32877082D01*
X63043888Y-32874246D01*
X62929503Y-32870992D01*
X62848217Y-32866600D01*
X62793490Y-32860352D01*
X62758781Y-32851529D01*
X62737551Y-32839414D01*
X62724551Y-32825087D01*
X62717113Y-32819611D01*
X62710869Y-32827563D01*
X62705720Y-32852368D01*
X62701565Y-32897452D01*
X62698302Y-32966239D01*
X62695831Y-33062155D01*
X62694052Y-33188624D01*
X62692864Y-33349071D01*
X62692166Y-33546921D01*
X62691858Y-33785599D01*
X62691818Y-33939223D01*
X62691818Y-35098182D01*
X63850777Y-35098182D01*
X64113948Y-35098049D01*
X64334362Y-35097583D01*
X64515445Y-35096683D01*
X64660622Y-35095249D01*
X64773318Y-35093180D01*
X64856957Y-35090376D01*
X64914964Y-35086735D01*
X64950765Y-35082158D01*
X64967784Y-35076543D01*
X64969446Y-35069790D01*
X64964913Y-35065449D01*
X64949217Y-35050760D01*
X64937460Y-35028485D01*
X64928925Y-34992082D01*
X64922893Y-34935013D01*
X64918646Y-34850735D01*
X64915465Y-34732709D01*
X64912918Y-34592086D01*
X64905746Y-34151455D01*
X65439636Y-34151455D01*
X65439636Y-34578637D01*
X65439312Y-34730027D01*
X65437891Y-34842132D01*
X65434700Y-34921843D01*
X65429068Y-34976054D01*
X65420322Y-35011659D01*
X65407788Y-35035551D01*
X65393454Y-35052000D01*
X65347272Y-35098182D01*
X65706831Y-35098182D01*
X65842450Y-35097816D01*
X65937760Y-35096279D01*
X65998631Y-35092913D01*
X66030935Y-35087057D01*
X66040541Y-35078054D01*
X66033320Y-35065244D01*
X66030104Y-35061896D01*
X66017111Y-35042319D01*
X66007544Y-35009103D01*
X66000917Y-34955919D01*
X65996746Y-34876438D01*
X65994544Y-34764332D01*
X65993827Y-34613273D01*
X65993818Y-34588533D01*
X65993818Y-34151455D01*
X66501818Y-34151455D01*
X66501818Y-34582591D01*
X66501304Y-34737706D01*
X66499408Y-34853242D01*
X66495597Y-34935795D01*
X66489339Y-34991960D01*
X66480101Y-35028332D01*
X66467351Y-35051506D01*
X66463603Y-35055955D01*
X66451075Y-35072009D01*
X66451296Y-35083377D01*
X66470294Y-35090866D01*
X66514095Y-35095282D01*
X66588728Y-35097434D01*
X66700221Y-35098129D01*
X66778909Y-35098182D01*
X66913097Y-35097943D01*
X67007131Y-35096688D01*
X67067039Y-35093609D01*
X67098849Y-35087900D01*
X67108587Y-35078752D01*
X67102281Y-35065360D01*
X67094215Y-35055955D01*
X67080516Y-35035022D01*
X67070461Y-35002520D01*
X67063517Y-34951852D01*
X67059151Y-34876424D01*
X67056832Y-34769640D01*
X67056027Y-34624905D01*
X67056000Y-34582591D01*
X67056000Y-34151455D01*
X67564000Y-34151455D01*
X67564000Y-34582591D01*
X67563486Y-34737706D01*
X67561590Y-34853242D01*
X67557779Y-34935795D01*
X67551521Y-34991960D01*
X67542283Y-35028332D01*
X67529532Y-35051506D01*
X67525785Y-35055955D01*
X67513257Y-35072009D01*
X67513478Y-35083377D01*
X67532476Y-35090866D01*
X67576277Y-35095282D01*
X67650910Y-35097434D01*
X67762402Y-35098129D01*
X67841091Y-35098182D01*
X67975279Y-35097943D01*
X68069313Y-35096688D01*
X68129221Y-35093609D01*
X68161030Y-35087900D01*
X68170768Y-35078752D01*
X68164463Y-35065360D01*
X68156397Y-35055955D01*
X68142698Y-35035022D01*
X68132643Y-35002520D01*
X68125699Y-34951852D01*
X68121333Y-34876424D01*
X68119014Y-34769640D01*
X68118209Y-34624905D01*
X68118181Y-34582591D01*
X68118181Y-34151455D01*
X68626181Y-34151455D01*
X68626181Y-34588533D01*
X68625635Y-34745580D01*
X68623672Y-34862784D01*
X68619806Y-34946472D01*
X68613554Y-35002973D01*
X68604430Y-35038616D01*
X68591949Y-35059730D01*
X68589896Y-35061896D01*
X68579798Y-35075620D01*
X68585253Y-35085393D01*
X68612131Y-35091876D01*
X68666304Y-35095727D01*
X68753640Y-35097605D01*
X68880011Y-35098169D01*
X68913169Y-35098182D01*
X69048881Y-35098037D01*
X69144300Y-35097025D01*
X69205315Y-35094277D01*
X69237816Y-35088925D01*
X69247691Y-35080102D01*
X69240829Y-35066939D01*
X69226545Y-35052000D01*
X69210214Y-35032670D01*
X69198248Y-35007559D01*
X69189975Y-34969776D01*
X69184724Y-34912426D01*
X69181820Y-34828617D01*
X69180592Y-34711454D01*
X69180363Y-34578637D01*
X69180363Y-34151455D01*
X69714253Y-34151455D01*
X69707081Y-34592086D01*
X69704246Y-34746112D01*
X69700991Y-34860497D01*
X69696599Y-34941783D01*
X69690351Y-34996510D01*
X69681529Y-35031219D01*
X69669413Y-35052449D01*
X69655086Y-35065449D01*
X69649610Y-35072887D01*
X69657562Y-35079131D01*
X69682368Y-35084280D01*
X69727451Y-35088435D01*
X69796239Y-35091698D01*
X69892154Y-35094169D01*
X70018623Y-35095948D01*
X70179070Y-35097136D01*
X70376920Y-35097834D01*
X70615598Y-35098142D01*
X70769223Y-35098182D01*
X71928181Y-35098182D01*
X71928181Y-33939223D01*
X71928049Y-33676052D01*
X71927582Y-33455638D01*
X71926683Y-33274555D01*
X71925249Y-33129378D01*
X71923180Y-33016682D01*
X71920375Y-32933043D01*
X71916734Y-32875036D01*
X71912157Y-32839235D01*
X71906542Y-32822216D01*
X71899789Y-32820554D01*
X71895449Y-32825087D01*
X71880759Y-32840783D01*
X71858484Y-32852540D01*
X71822082Y-32861075D01*
X71765012Y-32867107D01*
X71680735Y-32871354D01*
X71562708Y-32874535D01*
X71422085Y-32877082D01*
X70981454Y-32884254D01*
X70981454Y-32350364D01*
X71408636Y-32350364D01*
X71560027Y-32350688D01*
X71672131Y-32352109D01*
X71751842Y-32355300D01*
X71806054Y-32360932D01*
X71841659Y-32369678D01*
X71865551Y-32382212D01*
X71882000Y-32396546D01*
X71928181Y-32442728D01*
X71928181Y-32083169D01*
X71927816Y-31947550D01*
X71926279Y-31852240D01*
X71922912Y-31791369D01*
X71917057Y-31759065D01*
X71908053Y-31749459D01*
X71895243Y-31756680D01*
X71891896Y-31759896D01*
X71872319Y-31772889D01*
X71839102Y-31782456D01*
X71785918Y-31789083D01*
X71706437Y-31793254D01*
X71594332Y-31795456D01*
X71443273Y-31796173D01*
X71418532Y-31796182D01*
X70981454Y-31796182D01*
X70981454Y-31288182D01*
X71412591Y-31288182D01*
X71567705Y-31288696D01*
X71683241Y-31290592D01*
X71765794Y-31294403D01*
X71821959Y-31300661D01*
X71858331Y-31309899D01*
X71881506Y-31322649D01*
X71885954Y-31326397D01*
X71902009Y-31338925D01*
X71913376Y-31338704D01*
X71920865Y-31319706D01*
X71925282Y-31275905D01*
X71927434Y-31201272D01*
X71928128Y-31089779D01*
X71928181Y-31011091D01*
X71927942Y-30876903D01*
X71926687Y-30782869D01*
X71923608Y-30722961D01*
X71917899Y-30691151D01*
X71908752Y-30681413D01*
X71895359Y-30687719D01*
X71885954Y-30695785D01*
X71865022Y-30709484D01*
X71832519Y-30719539D01*
X71781852Y-30726483D01*
X71706424Y-30730849D01*
X71599640Y-30733168D01*
X71454905Y-30733973D01*
X71412591Y-30734000D01*
X70981454Y-30734000D01*
X70981454Y-30226000D01*
X71412591Y-30226000D01*
X71567705Y-30226514D01*
X71683241Y-30228410D01*
X71765794Y-30232221D01*
X71821959Y-30238479D01*
X71858331Y-30247717D01*
X71881506Y-30260468D01*
X71885954Y-30264215D01*
X71902009Y-30276743D01*
X71913376Y-30276522D01*
X71920865Y-30257524D01*
X71925282Y-30213723D01*
X71927434Y-30139090D01*
X71928128Y-30027598D01*
X71928181Y-29948909D01*
X71927942Y-29814721D01*
X71926687Y-29720687D01*
X71923608Y-29660779D01*
X71917899Y-29628970D01*
X71908752Y-29619232D01*
X71895359Y-29625537D01*
X71885954Y-29633603D01*
X71865022Y-29647302D01*
X71832519Y-29657357D01*
X71781852Y-29664301D01*
X71706424Y-29668667D01*
X71599640Y-29670986D01*
X71454905Y-29671791D01*
X71412591Y-29671818D01*
X70981454Y-29671819D01*
X70981454Y-29335396D01*
X69411272Y-29335396D01*
X69411272Y-29338057D01*
X69411138Y-29583118D01*
X69410604Y-29786987D01*
X69409479Y-29954656D01*
X69407570Y-30091114D01*
X69404683Y-30201352D01*
X69400625Y-30290360D01*
X69395203Y-30363128D01*
X69388225Y-30424647D01*
X69379497Y-30479906D01*
X69368826Y-30533897D01*
X69364183Y-30555290D01*
X69285460Y-30820962D01*
X69173514Y-31054788D01*
X69028195Y-31256895D01*
X68849350Y-31427409D01*
X68636830Y-31566458D01*
X68390482Y-31674168D01*
X68110156Y-31750667D01*
X67899507Y-31784989D01*
X67792297Y-31798225D01*
X67703356Y-31809086D01*
X67641795Y-31816470D01*
X67616724Y-31819271D01*
X67616644Y-31819273D01*
X67614573Y-31841145D01*
X67612777Y-31901888D01*
X67611370Y-31994189D01*
X67610468Y-32110737D01*
X67610181Y-32232082D01*
X67609479Y-32386513D01*
X67607070Y-32500775D01*
X67602502Y-32580863D01*
X67595326Y-32632774D01*
X67585088Y-32662503D01*
X67577021Y-32672411D01*
X67498602Y-32713052D01*
X67391561Y-32735583D01*
X67270355Y-32738538D01*
X67149441Y-32720446D01*
X67136818Y-32717119D01*
X67074694Y-32695068D01*
X67033166Y-32671429D01*
X67027490Y-32665293D01*
X67021965Y-32634588D01*
X67017152Y-32565704D01*
X67013370Y-32466641D01*
X67010939Y-32345402D01*
X67010171Y-32231166D01*
X67009818Y-31823332D01*
X66923227Y-31810183D01*
X66857752Y-31800776D01*
X66765113Y-31788121D01*
X66663964Y-31774761D01*
X66651353Y-31773130D01*
X66434577Y-31728853D01*
X66217691Y-31654606D01*
X66012107Y-31555868D01*
X65829239Y-31438112D01*
X65681355Y-31307726D01*
X65519394Y-31110645D01*
X65394259Y-30899777D01*
X65300689Y-30665141D01*
X65255417Y-30499935D01*
X65243943Y-30448028D01*
X65234507Y-30396264D01*
X65226913Y-30339646D01*
X65220962Y-30273179D01*
X65216458Y-30191869D01*
X65213204Y-30090718D01*
X65211001Y-29964731D01*
X65209654Y-29808914D01*
X65208964Y-29618269D01*
X65208735Y-29387802D01*
X65208727Y-29317339D01*
X65208798Y-29078464D01*
X65209134Y-28881588D01*
X65209921Y-28722529D01*
X65211345Y-28597104D01*
X65213590Y-28501132D01*
X65216843Y-28430429D01*
X65221289Y-28380813D01*
X65227113Y-28348101D01*
X65234501Y-28328112D01*
X65243638Y-28316663D01*
X65253391Y-28310267D01*
X65302080Y-28297257D01*
X65380772Y-28289361D01*
X65475928Y-28286443D01*
X65574005Y-28288367D01*
X65661462Y-28294996D01*
X65724759Y-28306194D01*
X65745744Y-28315228D01*
X65755008Y-28326098D01*
X65762747Y-28346055D01*
X65769148Y-28379198D01*
X65774397Y-28429629D01*
X65778682Y-28501449D01*
X65782189Y-28598757D01*
X65785105Y-28725655D01*
X65787617Y-28886245D01*
X65789912Y-29084625D01*
X65792175Y-29324899D01*
X65792281Y-29337000D01*
X65794529Y-29579519D01*
X65796788Y-29780580D01*
X65799289Y-29944908D01*
X65802261Y-30077227D01*
X65805935Y-30182260D01*
X65810541Y-30264732D01*
X65816309Y-30329366D01*
X65823469Y-30380886D01*
X65832251Y-30424017D01*
X65842887Y-30463481D01*
X65847978Y-30480152D01*
X65935086Y-30701947D01*
X66046833Y-30885653D01*
X66185459Y-31033097D01*
X66353204Y-31146107D01*
X66552305Y-31226508D01*
X66785003Y-31276127D01*
X66830863Y-31281957D01*
X67009818Y-31302608D01*
X67009818Y-29830772D01*
X67009898Y-29531972D01*
X67010196Y-29275970D01*
X67010796Y-29059383D01*
X67011786Y-28878827D01*
X67013251Y-28730919D01*
X67015276Y-28612275D01*
X67017947Y-28519511D01*
X67021351Y-28449245D01*
X67025572Y-28398092D01*
X67030697Y-28362669D01*
X67036812Y-28339593D01*
X67044001Y-28325480D01*
X67048101Y-28320653D01*
X67089284Y-28302789D01*
X67162255Y-28291496D01*
X67254863Y-28286506D01*
X67354958Y-28287551D01*
X67450387Y-28294364D01*
X67529001Y-28306676D01*
X67578648Y-28324219D01*
X67587614Y-28332546D01*
X67591989Y-28362400D01*
X67595981Y-28435728D01*
X67599548Y-28549824D01*
X67602652Y-28701980D01*
X67605252Y-28889491D01*
X67607308Y-29109649D01*
X67608780Y-29359748D01*
X67609629Y-29637082D01*
X67609828Y-29834895D01*
X67610181Y-31302608D01*
X67789136Y-31281957D01*
X68031538Y-31235997D01*
X68240967Y-31157744D01*
X68417670Y-31046987D01*
X68561891Y-30903517D01*
X68673878Y-30727125D01*
X68753876Y-30517599D01*
X68773374Y-30440806D01*
X68783054Y-30391294D01*
X68790975Y-30333529D01*
X68797301Y-30262682D01*
X68802194Y-30173925D01*
X68805820Y-30062429D01*
X68808340Y-29923365D01*
X68809918Y-29751905D01*
X68810718Y-29543219D01*
X68810909Y-29331807D01*
X68811098Y-29094179D01*
X68811769Y-28898468D01*
X68813076Y-28740412D01*
X68815172Y-28615749D01*
X68818213Y-28520215D01*
X68822352Y-28449548D01*
X68827742Y-28399484D01*
X68834540Y-28365762D01*
X68842898Y-28344118D01*
X68846854Y-28337684D01*
X68867589Y-28313634D01*
X68895664Y-28298520D01*
X68941245Y-28290301D01*
X69014494Y-28286935D01*
X69102373Y-28286364D01*
X69203230Y-28288801D01*
X69290254Y-28295333D01*
X69350518Y-28304790D01*
X69366609Y-28310267D01*
X69377356Y-28317559D01*
X69386226Y-28329619D01*
X69393400Y-28350586D01*
X69399056Y-28384597D01*
X69403375Y-28435787D01*
X69406537Y-28508295D01*
X69408720Y-28606258D01*
X69410106Y-28733812D01*
X69410873Y-28895095D01*
X69411202Y-29094244D01*
X69411272Y-29335396D01*
X70981454Y-29335396D01*
X70981454Y-29163819D01*
X71418532Y-29163818D01*
X71575579Y-29164365D01*
X71692783Y-29166328D01*
X71776471Y-29170194D01*
X71832972Y-29176446D01*
X71868615Y-29185570D01*
X71889729Y-29198051D01*
X71891896Y-29200104D01*
X71905619Y-29210202D01*
X71915393Y-29204747D01*
X71921875Y-29177869D01*
X71925726Y-29123696D01*
X71927604Y-29036360D01*
X71928168Y-28909989D01*
X71928181Y-28876831D01*
X71928181Y-28517273D01*
X71882000Y-28563455D01*
X71862669Y-28579786D01*
X71837559Y-28591752D01*
X71799776Y-28600025D01*
X71742426Y-28605276D01*
X71658616Y-28608180D01*
X71541454Y-28609408D01*
X71408636Y-28609637D01*
X70981454Y-28609637D01*
X70981454Y-28075747D01*
X71422085Y-28082919D01*
X71576111Y-28085754D01*
X71690497Y-28089009D01*
X71771783Y-28093401D01*
X71826510Y-28099649D01*
X71861218Y-28108471D01*
X71882449Y-28120587D01*
X71895449Y-28134914D01*
X71902887Y-28140390D01*
X71909130Y-28132438D01*
X71914279Y-28107632D01*
X71918435Y-28062549D01*
X71921698Y-27993761D01*
X71924168Y-27897846D01*
X71925948Y-27771377D01*
X71927136Y-27610930D01*
X71927834Y-27413080D01*
X71928142Y-27174402D01*
X71928181Y-27020777D01*
X71928181Y-25861819D01*
X70769223Y-25861819D01*
X70506052Y-25861951D01*
D13*
X160590000Y-32320000D02*
X160590000Y-33720000D01*
X161990000Y-32320000D02*
X160590000Y-32320000D01*
X161990000Y-33720000D02*
X161990000Y-32320000D01*
X160590000Y-33720000D02*
X161990000Y-33720000D01*
X86930000Y-32450000D02*
X88330000Y-32450000D01*
X88330000Y-32450000D02*
X88330000Y-31050000D01*
X88330000Y-31050000D02*
X86930000Y-31050000D01*
X86930000Y-31050000D02*
X86930000Y-32450000D01*
D14*
X177165000Y-28140000D02*
X164665000Y-28140000D01*
D15*
X177165000Y-21640000D02*
X179665000Y-21640000D01*
X179665000Y-27640000D02*
X177165000Y-27640000D01*
D14*
X177165000Y-21140000D02*
X177165000Y-28140000D01*
X164665000Y-21140000D02*
X177165000Y-21140000D01*
X164665000Y-28140000D02*
X164665000Y-21140000D01*
D15*
X179665000Y-27640000D02*
X179665000Y-21640000D01*
D16*
X164442000Y-125222000D02*
X164442000Y-127000000D01*
X164442000Y-114300000D02*
X164442000Y-116078000D01*
X162664000Y-114300000D02*
X164442000Y-114300000D01*
X151742000Y-114300000D02*
X153520000Y-114300000D01*
X151742000Y-116078000D02*
X151742000Y-114300000D01*
X151742000Y-127000000D02*
X151742000Y-125222000D01*
X153520000Y-127000000D02*
X151742000Y-127000000D01*
X164442000Y-127000000D02*
X162664000Y-127000000D01*
X164442000Y-125222000D02*
X164442000Y-127000000D01*
X164442000Y-114300000D02*
X164442000Y-116078000D01*
X162664000Y-114300000D02*
X164442000Y-114300000D01*
X151742000Y-114300000D02*
X153520000Y-114300000D01*
X151742000Y-116078000D02*
X151742000Y-114300000D01*
X151742000Y-127000000D02*
X151742000Y-125222000D01*
X153520000Y-127000000D02*
X151742000Y-127000000D01*
X164442000Y-127000000D02*
X162664000Y-127000000D01*
X164442000Y-127000000D02*
X162664000Y-127000000D01*
X153520000Y-127000000D02*
X151742000Y-127000000D01*
X151742000Y-127000000D02*
X151742000Y-125222000D01*
X151742000Y-116078000D02*
X151742000Y-114300000D01*
X151742000Y-114300000D02*
X153520000Y-114300000D01*
X162664000Y-114300000D02*
X164442000Y-114300000D01*
X164442000Y-114300000D02*
X164442000Y-116078000D01*
X164442000Y-125222000D02*
X164442000Y-127000000D01*
D13*
X123500000Y-55370000D02*
X123500000Y-53910000D01*
X120340000Y-55370000D02*
X120340000Y-53210000D01*
X120340000Y-55370000D02*
X121270000Y-55370000D01*
X123500000Y-55370000D02*
X122570000Y-55370000D01*
D16*
X142240000Y-116078000D02*
X142240000Y-114300000D01*
X142240000Y-127000000D02*
X142240000Y-125222000D01*
X144018000Y-127000000D02*
X142240000Y-127000000D01*
X154940000Y-127000000D02*
X153162000Y-127000000D01*
X154940000Y-125222000D02*
X154940000Y-127000000D01*
X154940000Y-114300000D02*
X154940000Y-116078000D01*
X153162000Y-114300000D02*
X154940000Y-114300000D01*
X142240000Y-114300000D02*
X144018000Y-114300000D01*
D17*
X139700000Y-120142000D02*
X139700000Y-119761000D01*
X139700000Y-121539000D02*
X139700000Y-121158000D01*
X139700000Y-121158000D02*
X140462000Y-120142000D01*
X138938000Y-120142000D02*
X140462000Y-120142000D01*
X138938000Y-121158000D02*
X140462000Y-121158000D01*
X139700000Y-121158000D02*
X138938000Y-120142000D01*
D16*
X142240000Y-116078000D02*
X142240000Y-114300000D01*
X142240000Y-127000000D02*
X142240000Y-125222000D01*
X144018000Y-127000000D02*
X142240000Y-127000000D01*
X154940000Y-127000000D02*
X153162000Y-127000000D01*
X154940000Y-125222000D02*
X154940000Y-127000000D01*
X154940000Y-114300000D02*
X154940000Y-116078000D01*
X153162000Y-114300000D02*
X154940000Y-114300000D01*
X142240000Y-114300000D02*
X144018000Y-114300000D01*
X142240000Y-114300000D02*
X144018000Y-114300000D01*
X153162000Y-114300000D02*
X154940000Y-114300000D01*
X154940000Y-114300000D02*
X154940000Y-116078000D01*
X154940000Y-125222000D02*
X154940000Y-127000000D01*
X154940000Y-127000000D02*
X153162000Y-127000000D01*
X144018000Y-127000000D02*
X142240000Y-127000000D01*
X142240000Y-127000000D02*
X142240000Y-125222000D01*
X142240000Y-116078000D02*
X142240000Y-114300000D01*
D15*
X179665000Y-27480000D02*
X177165000Y-27480000D01*
X177165000Y-33480000D02*
X179665000Y-33480000D01*
D14*
X177165000Y-26980000D02*
X164665000Y-26980000D01*
D15*
X179665000Y-27480000D02*
X179665000Y-33480000D01*
D14*
X177165000Y-33980000D02*
X177165000Y-26980000D01*
X164665000Y-33980000D02*
X177165000Y-33980000D01*
X164665000Y-26980000D02*
X164665000Y-33980000D01*
D13*
X128840000Y-32320000D02*
X128840000Y-33720000D01*
X130240000Y-32320000D02*
X128840000Y-32320000D01*
X130240000Y-33720000D02*
X130240000Y-32320000D01*
X128840000Y-33720000D02*
X130240000Y-33720000D01*
X122490000Y-29780000D02*
X122490000Y-31180000D01*
X123890000Y-29780000D02*
X122490000Y-29780000D01*
X123890000Y-31180000D02*
X123890000Y-29780000D01*
X122490000Y-31180000D02*
X123890000Y-31180000D01*
X130110000Y-24830000D02*
X131510000Y-24830000D01*
X131510000Y-24830000D02*
X131510000Y-23430000D01*
X131510000Y-23430000D02*
X130110000Y-23430000D01*
X130110000Y-23430000D02*
X130110000Y-24830000D01*
D18*
X96980000Y-26190000D02*
X96980000Y-29690000D01*
X96980000Y-29690000D02*
X90980000Y-29690000D01*
X90980000Y-29690000D02*
X90980000Y-26190000D01*
X90980000Y-26190000D02*
X96980000Y-26190000D01*
X95480000Y-27190000D02*
X95480000Y-28690000D01*
X95480000Y-28690000D02*
X92480000Y-28690000D01*
X92480000Y-28690000D02*
X92480000Y-27190000D01*
X92480000Y-27190000D02*
X95480000Y-27190000D01*
D14*
X100330000Y-27940000D02*
G75*
G03X100330000Y-27940000I-100000J0D01*
G01*
D16*
X66040000Y-39878000D02*
X66040000Y-38100000D01*
X66040000Y-50800000D02*
X66040000Y-49022000D01*
X67818000Y-50800000D02*
X66040000Y-50800000D01*
X78740000Y-50800000D02*
X76962000Y-50800000D01*
X78740000Y-49022000D02*
X78740000Y-50800000D01*
X78740000Y-38100000D02*
X78740000Y-39878000D01*
X76962000Y-38100000D02*
X78740000Y-38100000D01*
X66040000Y-38100000D02*
X67818000Y-38100000D01*
D17*
X71882000Y-52705000D02*
X71501000Y-52705000D01*
X73279000Y-52705000D02*
X72898000Y-52705000D01*
X72898000Y-52705000D02*
X71882000Y-51943000D01*
X71882000Y-53467000D02*
X71882000Y-51943000D01*
X72898000Y-53467000D02*
X72898000Y-51943000D01*
X72898000Y-52705000D02*
X71882000Y-53467000D01*
D16*
X66040000Y-39878000D02*
X66040000Y-38100000D01*
X66040000Y-50800000D02*
X66040000Y-49022000D01*
X67818000Y-50800000D02*
X66040000Y-50800000D01*
X78740000Y-50800000D02*
X76962000Y-50800000D01*
X78740000Y-49022000D02*
X78740000Y-50800000D01*
X78740000Y-38100000D02*
X78740000Y-39878000D01*
X76962000Y-38100000D02*
X78740000Y-38100000D01*
X66040000Y-38100000D02*
X67818000Y-38100000D01*
X66040000Y-38100000D02*
X67818000Y-38100000D01*
X76962000Y-38100000D02*
X78740000Y-38100000D01*
X78740000Y-38100000D02*
X78740000Y-39878000D01*
X78740000Y-49022000D02*
X78740000Y-50800000D01*
X78740000Y-50800000D02*
X76962000Y-50800000D01*
X67818000Y-50800000D02*
X66040000Y-50800000D01*
X66040000Y-50800000D02*
X66040000Y-49022000D01*
X66040000Y-39878000D02*
X66040000Y-38100000D01*
X85090000Y-39878000D02*
X85090000Y-38100000D01*
X85090000Y-50800000D02*
X85090000Y-49022000D01*
X86868000Y-50800000D02*
X85090000Y-50800000D01*
X97790000Y-50800000D02*
X96012000Y-50800000D01*
X97790000Y-49022000D02*
X97790000Y-50800000D01*
X97790000Y-38100000D02*
X97790000Y-39878000D01*
X96012000Y-38100000D02*
X97790000Y-38100000D01*
X85090000Y-38100000D02*
X86868000Y-38100000D01*
X85090000Y-38100000D02*
X86868000Y-38100000D01*
X96012000Y-38100000D02*
X97790000Y-38100000D01*
X97790000Y-38100000D02*
X97790000Y-39878000D01*
X97790000Y-49022000D02*
X97790000Y-50800000D01*
X97790000Y-50800000D02*
X96012000Y-50800000D01*
X86868000Y-50800000D02*
X85090000Y-50800000D01*
X85090000Y-50800000D02*
X85090000Y-49022000D01*
X85090000Y-39878000D02*
X85090000Y-38100000D01*
D17*
X91948000Y-52705000D02*
X90932000Y-53467000D01*
X91948000Y-53467000D02*
X91948000Y-51943000D01*
X90932000Y-53467000D02*
X90932000Y-51943000D01*
X91948000Y-52705000D02*
X90932000Y-51943000D01*
X92329000Y-52705000D02*
X91948000Y-52705000D01*
X90932000Y-52705000D02*
X90551000Y-52705000D01*
D16*
X85090000Y-38100000D02*
X86868000Y-38100000D01*
X96012000Y-38100000D02*
X97790000Y-38100000D01*
X97790000Y-38100000D02*
X97790000Y-39878000D01*
X97790000Y-49022000D02*
X97790000Y-50800000D01*
X97790000Y-50800000D02*
X96012000Y-50800000D01*
X86868000Y-50800000D02*
X85090000Y-50800000D01*
X85090000Y-50800000D02*
X85090000Y-49022000D01*
X85090000Y-39878000D02*
X85090000Y-38100000D01*
X104140000Y-39878000D02*
X104140000Y-38100000D01*
X104140000Y-50800000D02*
X104140000Y-49022000D01*
X105918000Y-50800000D02*
X104140000Y-50800000D01*
X116840000Y-50800000D02*
X115062000Y-50800000D01*
X116840000Y-49022000D02*
X116840000Y-50800000D01*
X116840000Y-38100000D02*
X116840000Y-39878000D01*
X115062000Y-38100000D02*
X116840000Y-38100000D01*
X104140000Y-38100000D02*
X105918000Y-38100000D01*
X104140000Y-38100000D02*
X105918000Y-38100000D01*
X115062000Y-38100000D02*
X116840000Y-38100000D01*
X116840000Y-38100000D02*
X116840000Y-39878000D01*
X116840000Y-49022000D02*
X116840000Y-50800000D01*
X116840000Y-50800000D02*
X115062000Y-50800000D01*
X105918000Y-50800000D02*
X104140000Y-50800000D01*
X104140000Y-50800000D02*
X104140000Y-49022000D01*
X104140000Y-39878000D02*
X104140000Y-38100000D01*
D17*
X110998000Y-52705000D02*
X109982000Y-53467000D01*
X110998000Y-53467000D02*
X110998000Y-51943000D01*
X109982000Y-53467000D02*
X109982000Y-51943000D01*
X110998000Y-52705000D02*
X109982000Y-51943000D01*
X111379000Y-52705000D02*
X110998000Y-52705000D01*
X109982000Y-52705000D02*
X109601000Y-52705000D01*
D16*
X104140000Y-38100000D02*
X105918000Y-38100000D01*
X115062000Y-38100000D02*
X116840000Y-38100000D01*
X116840000Y-38100000D02*
X116840000Y-39878000D01*
X116840000Y-49022000D02*
X116840000Y-50800000D01*
X116840000Y-50800000D02*
X115062000Y-50800000D01*
X105918000Y-50800000D02*
X104140000Y-50800000D01*
X104140000Y-50800000D02*
X104140000Y-49022000D01*
X104140000Y-39878000D02*
X104140000Y-38100000D01*
X123190000Y-39878000D02*
X123190000Y-38100000D01*
X123190000Y-50800000D02*
X123190000Y-49022000D01*
X124968000Y-50800000D02*
X123190000Y-50800000D01*
X135890000Y-50800000D02*
X134112000Y-50800000D01*
X135890000Y-49022000D02*
X135890000Y-50800000D01*
X135890000Y-38100000D02*
X135890000Y-39878000D01*
X134112000Y-38100000D02*
X135890000Y-38100000D01*
X123190000Y-38100000D02*
X124968000Y-38100000D01*
X123190000Y-38100000D02*
X124968000Y-38100000D01*
X134112000Y-38100000D02*
X135890000Y-38100000D01*
X135890000Y-38100000D02*
X135890000Y-39878000D01*
X135890000Y-49022000D02*
X135890000Y-50800000D01*
X135890000Y-50800000D02*
X134112000Y-50800000D01*
X124968000Y-50800000D02*
X123190000Y-50800000D01*
X123190000Y-50800000D02*
X123190000Y-49022000D01*
X123190000Y-39878000D02*
X123190000Y-38100000D01*
D17*
X130048000Y-52705000D02*
X129032000Y-53467000D01*
X130048000Y-53467000D02*
X130048000Y-51943000D01*
X129032000Y-53467000D02*
X129032000Y-51943000D01*
X130048000Y-52705000D02*
X129032000Y-51943000D01*
X130429000Y-52705000D02*
X130048000Y-52705000D01*
X129032000Y-52705000D02*
X128651000Y-52705000D01*
D16*
X123190000Y-38100000D02*
X124968000Y-38100000D01*
X134112000Y-38100000D02*
X135890000Y-38100000D01*
X135890000Y-38100000D02*
X135890000Y-39878000D01*
X135890000Y-49022000D02*
X135890000Y-50800000D01*
X135890000Y-50800000D02*
X134112000Y-50800000D01*
X124968000Y-50800000D02*
X123190000Y-50800000D01*
X123190000Y-50800000D02*
X123190000Y-49022000D01*
X123190000Y-39878000D02*
X123190000Y-38100000D01*
X142240000Y-39878000D02*
X142240000Y-38100000D01*
X142240000Y-50800000D02*
X142240000Y-49022000D01*
X144018000Y-50800000D02*
X142240000Y-50800000D01*
X154940000Y-50800000D02*
X153162000Y-50800000D01*
X154940000Y-49022000D02*
X154940000Y-50800000D01*
X154940000Y-38100000D02*
X154940000Y-39878000D01*
X153162000Y-38100000D02*
X154940000Y-38100000D01*
X142240000Y-38100000D02*
X144018000Y-38100000D01*
X142240000Y-38100000D02*
X144018000Y-38100000D01*
X153162000Y-38100000D02*
X154940000Y-38100000D01*
X154940000Y-38100000D02*
X154940000Y-39878000D01*
X154940000Y-49022000D02*
X154940000Y-50800000D01*
X154940000Y-50800000D02*
X153162000Y-50800000D01*
X144018000Y-50800000D02*
X142240000Y-50800000D01*
X142240000Y-50800000D02*
X142240000Y-49022000D01*
X142240000Y-39878000D02*
X142240000Y-38100000D01*
D17*
X149098000Y-52705000D02*
X148082000Y-53467000D01*
X149098000Y-53467000D02*
X149098000Y-51943000D01*
X148082000Y-53467000D02*
X148082000Y-51943000D01*
X149098000Y-52705000D02*
X148082000Y-51943000D01*
X149479000Y-52705000D02*
X149098000Y-52705000D01*
X148082000Y-52705000D02*
X147701000Y-52705000D01*
D16*
X142240000Y-38100000D02*
X144018000Y-38100000D01*
X153162000Y-38100000D02*
X154940000Y-38100000D01*
X154940000Y-38100000D02*
X154940000Y-39878000D01*
X154940000Y-49022000D02*
X154940000Y-50800000D01*
X154940000Y-50800000D02*
X153162000Y-50800000D01*
X144018000Y-50800000D02*
X142240000Y-50800000D01*
X142240000Y-50800000D02*
X142240000Y-49022000D01*
X142240000Y-39878000D02*
X142240000Y-38100000D01*
X161290000Y-39878000D02*
X161290000Y-38100000D01*
X161290000Y-50800000D02*
X161290000Y-49022000D01*
X163068000Y-50800000D02*
X161290000Y-50800000D01*
X173990000Y-50800000D02*
X172212000Y-50800000D01*
X173990000Y-49022000D02*
X173990000Y-50800000D01*
X173990000Y-38100000D02*
X173990000Y-39878000D01*
X172212000Y-38100000D02*
X173990000Y-38100000D01*
X161290000Y-38100000D02*
X163068000Y-38100000D01*
D17*
X167132000Y-52705000D02*
X166751000Y-52705000D01*
X168529000Y-52705000D02*
X168148000Y-52705000D01*
X168148000Y-52705000D02*
X167132000Y-51943000D01*
X167132000Y-53467000D02*
X167132000Y-51943000D01*
X168148000Y-53467000D02*
X168148000Y-51943000D01*
X168148000Y-52705000D02*
X167132000Y-53467000D01*
D16*
X161290000Y-39878000D02*
X161290000Y-38100000D01*
X161290000Y-50800000D02*
X161290000Y-49022000D01*
X163068000Y-50800000D02*
X161290000Y-50800000D01*
X173990000Y-50800000D02*
X172212000Y-50800000D01*
X173990000Y-49022000D02*
X173990000Y-50800000D01*
X173990000Y-38100000D02*
X173990000Y-39878000D01*
X172212000Y-38100000D02*
X173990000Y-38100000D01*
X161290000Y-38100000D02*
X163068000Y-38100000D01*
X161290000Y-38100000D02*
X163068000Y-38100000D01*
X172212000Y-38100000D02*
X173990000Y-38100000D01*
X173990000Y-38100000D02*
X173990000Y-39878000D01*
X173990000Y-49022000D02*
X173990000Y-50800000D01*
X173990000Y-50800000D02*
X172212000Y-50800000D01*
X163068000Y-50800000D02*
X161290000Y-50800000D01*
X161290000Y-50800000D02*
X161290000Y-49022000D01*
X161290000Y-39878000D02*
X161290000Y-38100000D01*
X66040000Y-58928000D02*
X66040000Y-57150000D01*
X66040000Y-69850000D02*
X66040000Y-68072000D01*
X67818000Y-69850000D02*
X66040000Y-69850000D01*
X78740000Y-69850000D02*
X76962000Y-69850000D01*
X78740000Y-68072000D02*
X78740000Y-69850000D01*
X78740000Y-57150000D02*
X78740000Y-58928000D01*
X76962000Y-57150000D02*
X78740000Y-57150000D01*
X66040000Y-57150000D02*
X67818000Y-57150000D01*
D17*
X71882000Y-71755000D02*
X71501000Y-71755000D01*
X73279000Y-71755000D02*
X72898000Y-71755000D01*
X72898000Y-71755000D02*
X71882000Y-70993000D01*
X71882000Y-72517000D02*
X71882000Y-70993000D01*
X72898000Y-72517000D02*
X72898000Y-70993000D01*
X72898000Y-71755000D02*
X71882000Y-72517000D01*
D16*
X66040000Y-58928000D02*
X66040000Y-57150000D01*
X66040000Y-69850000D02*
X66040000Y-68072000D01*
X67818000Y-69850000D02*
X66040000Y-69850000D01*
X78740000Y-69850000D02*
X76962000Y-69850000D01*
X78740000Y-68072000D02*
X78740000Y-69850000D01*
X78740000Y-57150000D02*
X78740000Y-58928000D01*
X76962000Y-57150000D02*
X78740000Y-57150000D01*
X66040000Y-57150000D02*
X67818000Y-57150000D01*
X66040000Y-57150000D02*
X67818000Y-57150000D01*
X76962000Y-57150000D02*
X78740000Y-57150000D01*
X78740000Y-57150000D02*
X78740000Y-58928000D01*
X78740000Y-68072000D02*
X78740000Y-69850000D01*
X78740000Y-69850000D02*
X76962000Y-69850000D01*
X67818000Y-69850000D02*
X66040000Y-69850000D01*
X66040000Y-69850000D02*
X66040000Y-68072000D01*
X66040000Y-58928000D02*
X66040000Y-57150000D01*
X85090000Y-58928000D02*
X85090000Y-57150000D01*
X85090000Y-69850000D02*
X85090000Y-68072000D01*
X86868000Y-69850000D02*
X85090000Y-69850000D01*
X97790000Y-69850000D02*
X96012000Y-69850000D01*
X97790000Y-68072000D02*
X97790000Y-69850000D01*
X97790000Y-57150000D02*
X97790000Y-58928000D01*
X96012000Y-57150000D02*
X97790000Y-57150000D01*
X85090000Y-57150000D02*
X86868000Y-57150000D01*
D17*
X90932000Y-71755000D02*
X90551000Y-71755000D01*
X92329000Y-71755000D02*
X91948000Y-71755000D01*
X91948000Y-71755000D02*
X90932000Y-70993000D01*
X90932000Y-72517000D02*
X90932000Y-70993000D01*
X91948000Y-72517000D02*
X91948000Y-70993000D01*
X91948000Y-71755000D02*
X90932000Y-72517000D01*
D16*
X85090000Y-58928000D02*
X85090000Y-57150000D01*
X85090000Y-69850000D02*
X85090000Y-68072000D01*
X86868000Y-69850000D02*
X85090000Y-69850000D01*
X97790000Y-69850000D02*
X96012000Y-69850000D01*
X97790000Y-68072000D02*
X97790000Y-69850000D01*
X97790000Y-57150000D02*
X97790000Y-58928000D01*
X96012000Y-57150000D02*
X97790000Y-57150000D01*
X85090000Y-57150000D02*
X86868000Y-57150000D01*
X85090000Y-57150000D02*
X86868000Y-57150000D01*
X96012000Y-57150000D02*
X97790000Y-57150000D01*
X97790000Y-57150000D02*
X97790000Y-58928000D01*
X97790000Y-68072000D02*
X97790000Y-69850000D01*
X97790000Y-69850000D02*
X96012000Y-69850000D01*
X86868000Y-69850000D02*
X85090000Y-69850000D01*
X85090000Y-69850000D02*
X85090000Y-68072000D01*
X85090000Y-58928000D02*
X85090000Y-57150000D01*
X104140000Y-58928000D02*
X104140000Y-57150000D01*
X104140000Y-69850000D02*
X104140000Y-68072000D01*
X105918000Y-69850000D02*
X104140000Y-69850000D01*
X116840000Y-69850000D02*
X115062000Y-69850000D01*
X116840000Y-68072000D02*
X116840000Y-69850000D01*
X116840000Y-57150000D02*
X116840000Y-58928000D01*
X115062000Y-57150000D02*
X116840000Y-57150000D01*
X104140000Y-57150000D02*
X105918000Y-57150000D01*
D17*
X109982000Y-71755000D02*
X109601000Y-71755000D01*
X111379000Y-71755000D02*
X110998000Y-71755000D01*
X110998000Y-71755000D02*
X109982000Y-70993000D01*
X109982000Y-72517000D02*
X109982000Y-70993000D01*
X110998000Y-72517000D02*
X110998000Y-70993000D01*
X110998000Y-71755000D02*
X109982000Y-72517000D01*
D16*
X104140000Y-58928000D02*
X104140000Y-57150000D01*
X104140000Y-69850000D02*
X104140000Y-68072000D01*
X105918000Y-69850000D02*
X104140000Y-69850000D01*
X116840000Y-69850000D02*
X115062000Y-69850000D01*
X116840000Y-68072000D02*
X116840000Y-69850000D01*
X116840000Y-57150000D02*
X116840000Y-58928000D01*
X115062000Y-57150000D02*
X116840000Y-57150000D01*
X104140000Y-57150000D02*
X105918000Y-57150000D01*
X104140000Y-57150000D02*
X105918000Y-57150000D01*
X115062000Y-57150000D02*
X116840000Y-57150000D01*
X116840000Y-57150000D02*
X116840000Y-58928000D01*
X116840000Y-68072000D02*
X116840000Y-69850000D01*
X116840000Y-69850000D02*
X115062000Y-69850000D01*
X105918000Y-69850000D02*
X104140000Y-69850000D01*
X104140000Y-69850000D02*
X104140000Y-68072000D01*
X104140000Y-58928000D02*
X104140000Y-57150000D01*
X123190000Y-58928000D02*
X123190000Y-57150000D01*
X123190000Y-69850000D02*
X123190000Y-68072000D01*
X124968000Y-69850000D02*
X123190000Y-69850000D01*
X135890000Y-69850000D02*
X134112000Y-69850000D01*
X135890000Y-68072000D02*
X135890000Y-69850000D01*
X135890000Y-57150000D02*
X135890000Y-58928000D01*
X134112000Y-57150000D02*
X135890000Y-57150000D01*
X123190000Y-57150000D02*
X124968000Y-57150000D01*
D17*
X129032000Y-71755000D02*
X128651000Y-71755000D01*
X130429000Y-71755000D02*
X130048000Y-71755000D01*
X130048000Y-71755000D02*
X129032000Y-70993000D01*
X129032000Y-72517000D02*
X129032000Y-70993000D01*
X130048000Y-72517000D02*
X130048000Y-70993000D01*
X130048000Y-71755000D02*
X129032000Y-72517000D01*
D16*
X123190000Y-58928000D02*
X123190000Y-57150000D01*
X123190000Y-69850000D02*
X123190000Y-68072000D01*
X124968000Y-69850000D02*
X123190000Y-69850000D01*
X135890000Y-69850000D02*
X134112000Y-69850000D01*
X135890000Y-68072000D02*
X135890000Y-69850000D01*
X135890000Y-57150000D02*
X135890000Y-58928000D01*
X134112000Y-57150000D02*
X135890000Y-57150000D01*
X123190000Y-57150000D02*
X124968000Y-57150000D01*
X123190000Y-57150000D02*
X124968000Y-57150000D01*
X134112000Y-57150000D02*
X135890000Y-57150000D01*
X135890000Y-57150000D02*
X135890000Y-58928000D01*
X135890000Y-68072000D02*
X135890000Y-69850000D01*
X135890000Y-69850000D02*
X134112000Y-69850000D01*
X124968000Y-69850000D02*
X123190000Y-69850000D01*
X123190000Y-69850000D02*
X123190000Y-68072000D01*
X123190000Y-58928000D02*
X123190000Y-57150000D01*
X142240000Y-58928000D02*
X142240000Y-57150000D01*
X142240000Y-69850000D02*
X142240000Y-68072000D01*
X144018000Y-69850000D02*
X142240000Y-69850000D01*
X154940000Y-69850000D02*
X153162000Y-69850000D01*
X154940000Y-68072000D02*
X154940000Y-69850000D01*
X154940000Y-57150000D02*
X154940000Y-58928000D01*
X153162000Y-57150000D02*
X154940000Y-57150000D01*
X142240000Y-57150000D02*
X144018000Y-57150000D01*
X142240000Y-57150000D02*
X144018000Y-57150000D01*
X153162000Y-57150000D02*
X154940000Y-57150000D01*
X154940000Y-57150000D02*
X154940000Y-58928000D01*
X154940000Y-68072000D02*
X154940000Y-69850000D01*
X154940000Y-69850000D02*
X153162000Y-69850000D01*
X144018000Y-69850000D02*
X142240000Y-69850000D01*
X142240000Y-69850000D02*
X142240000Y-68072000D01*
X142240000Y-58928000D02*
X142240000Y-57150000D01*
D17*
X149098000Y-71755000D02*
X148082000Y-72517000D01*
X149098000Y-72517000D02*
X149098000Y-70993000D01*
X148082000Y-72517000D02*
X148082000Y-70993000D01*
X149098000Y-71755000D02*
X148082000Y-70993000D01*
X149479000Y-71755000D02*
X149098000Y-71755000D01*
X148082000Y-71755000D02*
X147701000Y-71755000D01*
D16*
X142240000Y-57150000D02*
X144018000Y-57150000D01*
X153162000Y-57150000D02*
X154940000Y-57150000D01*
X154940000Y-57150000D02*
X154940000Y-58928000D01*
X154940000Y-68072000D02*
X154940000Y-69850000D01*
X154940000Y-69850000D02*
X153162000Y-69850000D01*
X144018000Y-69850000D02*
X142240000Y-69850000D01*
X142240000Y-69850000D02*
X142240000Y-68072000D01*
X142240000Y-58928000D02*
X142240000Y-57150000D01*
X161290000Y-58928000D02*
X161290000Y-57150000D01*
X161290000Y-69850000D02*
X161290000Y-68072000D01*
X163068000Y-69850000D02*
X161290000Y-69850000D01*
X173990000Y-69850000D02*
X172212000Y-69850000D01*
X173990000Y-68072000D02*
X173990000Y-69850000D01*
X173990000Y-57150000D02*
X173990000Y-58928000D01*
X172212000Y-57150000D02*
X173990000Y-57150000D01*
X161290000Y-57150000D02*
X163068000Y-57150000D01*
D17*
X167132000Y-71755000D02*
X166751000Y-71755000D01*
X168529000Y-71755000D02*
X168148000Y-71755000D01*
X168148000Y-71755000D02*
X167132000Y-70993000D01*
X167132000Y-72517000D02*
X167132000Y-70993000D01*
X168148000Y-72517000D02*
X168148000Y-70993000D01*
X168148000Y-71755000D02*
X167132000Y-72517000D01*
D16*
X161290000Y-58928000D02*
X161290000Y-57150000D01*
X161290000Y-69850000D02*
X161290000Y-68072000D01*
X163068000Y-69850000D02*
X161290000Y-69850000D01*
X173990000Y-69850000D02*
X172212000Y-69850000D01*
X173990000Y-68072000D02*
X173990000Y-69850000D01*
X173990000Y-57150000D02*
X173990000Y-58928000D01*
X172212000Y-57150000D02*
X173990000Y-57150000D01*
X161290000Y-57150000D02*
X163068000Y-57150000D01*
X161290000Y-57150000D02*
X163068000Y-57150000D01*
X172212000Y-57150000D02*
X173990000Y-57150000D01*
X173990000Y-57150000D02*
X173990000Y-58928000D01*
X173990000Y-68072000D02*
X173990000Y-69850000D01*
X173990000Y-69850000D02*
X172212000Y-69850000D01*
X163068000Y-69850000D02*
X161290000Y-69850000D01*
X161290000Y-69850000D02*
X161290000Y-68072000D01*
X161290000Y-58928000D02*
X161290000Y-57150000D01*
X66040000Y-77978000D02*
X66040000Y-76200000D01*
X66040000Y-88900000D02*
X66040000Y-87122000D01*
X67818000Y-88900000D02*
X66040000Y-88900000D01*
X78740000Y-88900000D02*
X76962000Y-88900000D01*
X78740000Y-87122000D02*
X78740000Y-88900000D01*
X78740000Y-76200000D02*
X78740000Y-77978000D01*
X76962000Y-76200000D02*
X78740000Y-76200000D01*
X66040000Y-76200000D02*
X67818000Y-76200000D01*
X66040000Y-76200000D02*
X67818000Y-76200000D01*
X76962000Y-76200000D02*
X78740000Y-76200000D01*
X78740000Y-76200000D02*
X78740000Y-77978000D01*
X78740000Y-87122000D02*
X78740000Y-88900000D01*
X78740000Y-88900000D02*
X76962000Y-88900000D01*
X67818000Y-88900000D02*
X66040000Y-88900000D01*
X66040000Y-88900000D02*
X66040000Y-87122000D01*
X66040000Y-77978000D02*
X66040000Y-76200000D01*
D17*
X72898000Y-90805000D02*
X71882000Y-91567000D01*
X72898000Y-91567000D02*
X72898000Y-90043000D01*
X71882000Y-91567000D02*
X71882000Y-90043000D01*
X72898000Y-90805000D02*
X71882000Y-90043000D01*
X73279000Y-90805000D02*
X72898000Y-90805000D01*
X71882000Y-90805000D02*
X71501000Y-90805000D01*
D16*
X66040000Y-76200000D02*
X67818000Y-76200000D01*
X76962000Y-76200000D02*
X78740000Y-76200000D01*
X78740000Y-76200000D02*
X78740000Y-77978000D01*
X78740000Y-87122000D02*
X78740000Y-88900000D01*
X78740000Y-88900000D02*
X76962000Y-88900000D01*
X67818000Y-88900000D02*
X66040000Y-88900000D01*
X66040000Y-88900000D02*
X66040000Y-87122000D01*
X66040000Y-77978000D02*
X66040000Y-76200000D01*
X85090000Y-77978000D02*
X85090000Y-76200000D01*
X85090000Y-88900000D02*
X85090000Y-87122000D01*
X86868000Y-88900000D02*
X85090000Y-88900000D01*
X97790000Y-88900000D02*
X96012000Y-88900000D01*
X97790000Y-87122000D02*
X97790000Y-88900000D01*
X97790000Y-76200000D02*
X97790000Y-77978000D01*
X96012000Y-76200000D02*
X97790000Y-76200000D01*
X85090000Y-76200000D02*
X86868000Y-76200000D01*
X85090000Y-76200000D02*
X86868000Y-76200000D01*
X96012000Y-76200000D02*
X97790000Y-76200000D01*
X97790000Y-76200000D02*
X97790000Y-77978000D01*
X97790000Y-87122000D02*
X97790000Y-88900000D01*
X97790000Y-88900000D02*
X96012000Y-88900000D01*
X86868000Y-88900000D02*
X85090000Y-88900000D01*
X85090000Y-88900000D02*
X85090000Y-87122000D01*
X85090000Y-77978000D02*
X85090000Y-76200000D01*
D17*
X91948000Y-90805000D02*
X90932000Y-91567000D01*
X91948000Y-91567000D02*
X91948000Y-90043000D01*
X90932000Y-91567000D02*
X90932000Y-90043000D01*
X91948000Y-90805000D02*
X90932000Y-90043000D01*
X92329000Y-90805000D02*
X91948000Y-90805000D01*
X90932000Y-90805000D02*
X90551000Y-90805000D01*
D16*
X85090000Y-76200000D02*
X86868000Y-76200000D01*
X96012000Y-76200000D02*
X97790000Y-76200000D01*
X97790000Y-76200000D02*
X97790000Y-77978000D01*
X97790000Y-87122000D02*
X97790000Y-88900000D01*
X97790000Y-88900000D02*
X96012000Y-88900000D01*
X86868000Y-88900000D02*
X85090000Y-88900000D01*
X85090000Y-88900000D02*
X85090000Y-87122000D01*
X85090000Y-77978000D02*
X85090000Y-76200000D01*
X104140000Y-77978000D02*
X104140000Y-76200000D01*
X104140000Y-88900000D02*
X104140000Y-87122000D01*
X105918000Y-88900000D02*
X104140000Y-88900000D01*
X116840000Y-88900000D02*
X115062000Y-88900000D01*
X116840000Y-87122000D02*
X116840000Y-88900000D01*
X116840000Y-76200000D02*
X116840000Y-77978000D01*
X115062000Y-76200000D02*
X116840000Y-76200000D01*
X104140000Y-76200000D02*
X105918000Y-76200000D01*
D17*
X109982000Y-90805000D02*
X109601000Y-90805000D01*
X111379000Y-90805000D02*
X110998000Y-90805000D01*
X110998000Y-90805000D02*
X109982000Y-90043000D01*
X109982000Y-91567000D02*
X109982000Y-90043000D01*
X110998000Y-91567000D02*
X110998000Y-90043000D01*
X110998000Y-90805000D02*
X109982000Y-91567000D01*
D16*
X104140000Y-77978000D02*
X104140000Y-76200000D01*
X104140000Y-88900000D02*
X104140000Y-87122000D01*
X105918000Y-88900000D02*
X104140000Y-88900000D01*
X116840000Y-88900000D02*
X115062000Y-88900000D01*
X116840000Y-87122000D02*
X116840000Y-88900000D01*
X116840000Y-76200000D02*
X116840000Y-77978000D01*
X115062000Y-76200000D02*
X116840000Y-76200000D01*
X104140000Y-76200000D02*
X105918000Y-76200000D01*
X104140000Y-76200000D02*
X105918000Y-76200000D01*
X115062000Y-76200000D02*
X116840000Y-76200000D01*
X116840000Y-76200000D02*
X116840000Y-77978000D01*
X116840000Y-87122000D02*
X116840000Y-88900000D01*
X116840000Y-88900000D02*
X115062000Y-88900000D01*
X105918000Y-88900000D02*
X104140000Y-88900000D01*
X104140000Y-88900000D02*
X104140000Y-87122000D01*
X104140000Y-77978000D02*
X104140000Y-76200000D01*
X123190000Y-77978000D02*
X123190000Y-76200000D01*
X123190000Y-88900000D02*
X123190000Y-87122000D01*
X124968000Y-88900000D02*
X123190000Y-88900000D01*
X135890000Y-88900000D02*
X134112000Y-88900000D01*
X135890000Y-87122000D02*
X135890000Y-88900000D01*
X135890000Y-76200000D02*
X135890000Y-77978000D01*
X134112000Y-76200000D02*
X135890000Y-76200000D01*
X123190000Y-76200000D02*
X124968000Y-76200000D01*
X123190000Y-76200000D02*
X124968000Y-76200000D01*
X134112000Y-76200000D02*
X135890000Y-76200000D01*
X135890000Y-76200000D02*
X135890000Y-77978000D01*
X135890000Y-87122000D02*
X135890000Y-88900000D01*
X135890000Y-88900000D02*
X134112000Y-88900000D01*
X124968000Y-88900000D02*
X123190000Y-88900000D01*
X123190000Y-88900000D02*
X123190000Y-87122000D01*
X123190000Y-77978000D02*
X123190000Y-76200000D01*
D17*
X130048000Y-90805000D02*
X129032000Y-91567000D01*
X130048000Y-91567000D02*
X130048000Y-90043000D01*
X129032000Y-91567000D02*
X129032000Y-90043000D01*
X130048000Y-90805000D02*
X129032000Y-90043000D01*
X130429000Y-90805000D02*
X130048000Y-90805000D01*
X129032000Y-90805000D02*
X128651000Y-90805000D01*
D16*
X123190000Y-76200000D02*
X124968000Y-76200000D01*
X134112000Y-76200000D02*
X135890000Y-76200000D01*
X135890000Y-76200000D02*
X135890000Y-77978000D01*
X135890000Y-87122000D02*
X135890000Y-88900000D01*
X135890000Y-88900000D02*
X134112000Y-88900000D01*
X124968000Y-88900000D02*
X123190000Y-88900000D01*
X123190000Y-88900000D02*
X123190000Y-87122000D01*
X123190000Y-77978000D02*
X123190000Y-76200000D01*
X142240000Y-77978000D02*
X142240000Y-76200000D01*
X142240000Y-88900000D02*
X142240000Y-87122000D01*
X144018000Y-88900000D02*
X142240000Y-88900000D01*
X154940000Y-88900000D02*
X153162000Y-88900000D01*
X154940000Y-87122000D02*
X154940000Y-88900000D01*
X154940000Y-76200000D02*
X154940000Y-77978000D01*
X153162000Y-76200000D02*
X154940000Y-76200000D01*
X142240000Y-76200000D02*
X144018000Y-76200000D01*
D17*
X148082000Y-90805000D02*
X147701000Y-90805000D01*
X149479000Y-90805000D02*
X149098000Y-90805000D01*
X149098000Y-90805000D02*
X148082000Y-90043000D01*
X148082000Y-91567000D02*
X148082000Y-90043000D01*
X149098000Y-91567000D02*
X149098000Y-90043000D01*
X149098000Y-90805000D02*
X148082000Y-91567000D01*
D16*
X142240000Y-77978000D02*
X142240000Y-76200000D01*
X142240000Y-88900000D02*
X142240000Y-87122000D01*
X144018000Y-88900000D02*
X142240000Y-88900000D01*
X154940000Y-88900000D02*
X153162000Y-88900000D01*
X154940000Y-87122000D02*
X154940000Y-88900000D01*
X154940000Y-76200000D02*
X154940000Y-77978000D01*
X153162000Y-76200000D02*
X154940000Y-76200000D01*
X142240000Y-76200000D02*
X144018000Y-76200000D01*
X142240000Y-76200000D02*
X144018000Y-76200000D01*
X153162000Y-76200000D02*
X154940000Y-76200000D01*
X154940000Y-76200000D02*
X154940000Y-77978000D01*
X154940000Y-87122000D02*
X154940000Y-88900000D01*
X154940000Y-88900000D02*
X153162000Y-88900000D01*
X144018000Y-88900000D02*
X142240000Y-88900000D01*
X142240000Y-88900000D02*
X142240000Y-87122000D01*
X142240000Y-77978000D02*
X142240000Y-76200000D01*
X161290000Y-77978000D02*
X161290000Y-76200000D01*
X161290000Y-88900000D02*
X161290000Y-87122000D01*
X163068000Y-88900000D02*
X161290000Y-88900000D01*
X173990000Y-88900000D02*
X172212000Y-88900000D01*
X173990000Y-87122000D02*
X173990000Y-88900000D01*
X173990000Y-76200000D02*
X173990000Y-77978000D01*
X172212000Y-76200000D02*
X173990000Y-76200000D01*
X161290000Y-76200000D02*
X163068000Y-76200000D01*
X161290000Y-76200000D02*
X163068000Y-76200000D01*
X172212000Y-76200000D02*
X173990000Y-76200000D01*
X173990000Y-76200000D02*
X173990000Y-77978000D01*
X173990000Y-87122000D02*
X173990000Y-88900000D01*
X173990000Y-88900000D02*
X172212000Y-88900000D01*
X163068000Y-88900000D02*
X161290000Y-88900000D01*
X161290000Y-88900000D02*
X161290000Y-87122000D01*
X161290000Y-77978000D02*
X161290000Y-76200000D01*
D17*
X168148000Y-90805000D02*
X167132000Y-91567000D01*
X168148000Y-91567000D02*
X168148000Y-90043000D01*
X167132000Y-91567000D02*
X167132000Y-90043000D01*
X168148000Y-90805000D02*
X167132000Y-90043000D01*
X168529000Y-90805000D02*
X168148000Y-90805000D01*
X167132000Y-90805000D02*
X166751000Y-90805000D01*
D16*
X161290000Y-76200000D02*
X163068000Y-76200000D01*
X172212000Y-76200000D02*
X173990000Y-76200000D01*
X173990000Y-76200000D02*
X173990000Y-77978000D01*
X173990000Y-87122000D02*
X173990000Y-88900000D01*
X173990000Y-88900000D02*
X172212000Y-88900000D01*
X163068000Y-88900000D02*
X161290000Y-88900000D01*
X161290000Y-88900000D02*
X161290000Y-87122000D01*
X161290000Y-77978000D02*
X161290000Y-76200000D01*
X66040000Y-97028000D02*
X66040000Y-95250000D01*
X66040000Y-107950000D02*
X66040000Y-106172000D01*
X67818000Y-107950000D02*
X66040000Y-107950000D01*
X78740000Y-107950000D02*
X76962000Y-107950000D01*
X78740000Y-106172000D02*
X78740000Y-107950000D01*
X78740000Y-95250000D02*
X78740000Y-97028000D01*
X76962000Y-95250000D02*
X78740000Y-95250000D01*
X66040000Y-95250000D02*
X67818000Y-95250000D01*
D17*
X71882000Y-109855000D02*
X71501000Y-109855000D01*
X73279000Y-109855000D02*
X72898000Y-109855000D01*
X72898000Y-109855000D02*
X71882000Y-109093000D01*
X71882000Y-110617000D02*
X71882000Y-109093000D01*
X72898000Y-110617000D02*
X72898000Y-109093000D01*
X72898000Y-109855000D02*
X71882000Y-110617000D01*
D16*
X66040000Y-97028000D02*
X66040000Y-95250000D01*
X66040000Y-107950000D02*
X66040000Y-106172000D01*
X67818000Y-107950000D02*
X66040000Y-107950000D01*
X78740000Y-107950000D02*
X76962000Y-107950000D01*
X78740000Y-106172000D02*
X78740000Y-107950000D01*
X78740000Y-95250000D02*
X78740000Y-97028000D01*
X76962000Y-95250000D02*
X78740000Y-95250000D01*
X66040000Y-95250000D02*
X67818000Y-95250000D01*
X66040000Y-95250000D02*
X67818000Y-95250000D01*
X76962000Y-95250000D02*
X78740000Y-95250000D01*
X78740000Y-95250000D02*
X78740000Y-97028000D01*
X78740000Y-106172000D02*
X78740000Y-107950000D01*
X78740000Y-107950000D02*
X76962000Y-107950000D01*
X67818000Y-107950000D02*
X66040000Y-107950000D01*
X66040000Y-107950000D02*
X66040000Y-106172000D01*
X66040000Y-97028000D02*
X66040000Y-95250000D01*
X85090000Y-97028000D02*
X85090000Y-95250000D01*
X85090000Y-107950000D02*
X85090000Y-106172000D01*
X86868000Y-107950000D02*
X85090000Y-107950000D01*
X97790000Y-107950000D02*
X96012000Y-107950000D01*
X97790000Y-106172000D02*
X97790000Y-107950000D01*
X97790000Y-95250000D02*
X97790000Y-97028000D01*
X96012000Y-95250000D02*
X97790000Y-95250000D01*
X85090000Y-95250000D02*
X86868000Y-95250000D01*
X85090000Y-95250000D02*
X86868000Y-95250000D01*
X96012000Y-95250000D02*
X97790000Y-95250000D01*
X97790000Y-95250000D02*
X97790000Y-97028000D01*
X97790000Y-106172000D02*
X97790000Y-107950000D01*
X97790000Y-107950000D02*
X96012000Y-107950000D01*
X86868000Y-107950000D02*
X85090000Y-107950000D01*
X85090000Y-107950000D02*
X85090000Y-106172000D01*
X85090000Y-97028000D02*
X85090000Y-95250000D01*
D17*
X91948000Y-109855000D02*
X90932000Y-110617000D01*
X91948000Y-110617000D02*
X91948000Y-109093000D01*
X90932000Y-110617000D02*
X90932000Y-109093000D01*
X91948000Y-109855000D02*
X90932000Y-109093000D01*
X92329000Y-109855000D02*
X91948000Y-109855000D01*
X90932000Y-109855000D02*
X90551000Y-109855000D01*
D16*
X85090000Y-95250000D02*
X86868000Y-95250000D01*
X96012000Y-95250000D02*
X97790000Y-95250000D01*
X97790000Y-95250000D02*
X97790000Y-97028000D01*
X97790000Y-106172000D02*
X97790000Y-107950000D01*
X97790000Y-107950000D02*
X96012000Y-107950000D01*
X86868000Y-107950000D02*
X85090000Y-107950000D01*
X85090000Y-107950000D02*
X85090000Y-106172000D01*
X85090000Y-97028000D02*
X85090000Y-95250000D01*
X104140000Y-97028000D02*
X104140000Y-95250000D01*
X104140000Y-107950000D02*
X104140000Y-106172000D01*
X105918000Y-107950000D02*
X104140000Y-107950000D01*
X116840000Y-107950000D02*
X115062000Y-107950000D01*
X116840000Y-106172000D02*
X116840000Y-107950000D01*
X116840000Y-95250000D02*
X116840000Y-97028000D01*
X115062000Y-95250000D02*
X116840000Y-95250000D01*
X104140000Y-95250000D02*
X105918000Y-95250000D01*
D17*
X109982000Y-109855000D02*
X109601000Y-109855000D01*
X111379000Y-109855000D02*
X110998000Y-109855000D01*
X110998000Y-109855000D02*
X109982000Y-109093000D01*
X109982000Y-110617000D02*
X109982000Y-109093000D01*
X110998000Y-110617000D02*
X110998000Y-109093000D01*
X110998000Y-109855000D02*
X109982000Y-110617000D01*
D16*
X104140000Y-97028000D02*
X104140000Y-95250000D01*
X104140000Y-107950000D02*
X104140000Y-106172000D01*
X105918000Y-107950000D02*
X104140000Y-107950000D01*
X116840000Y-107950000D02*
X115062000Y-107950000D01*
X116840000Y-106172000D02*
X116840000Y-107950000D01*
X116840000Y-95250000D02*
X116840000Y-97028000D01*
X115062000Y-95250000D02*
X116840000Y-95250000D01*
X104140000Y-95250000D02*
X105918000Y-95250000D01*
X104140000Y-95250000D02*
X105918000Y-95250000D01*
X115062000Y-95250000D02*
X116840000Y-95250000D01*
X116840000Y-95250000D02*
X116840000Y-97028000D01*
X116840000Y-106172000D02*
X116840000Y-107950000D01*
X116840000Y-107950000D02*
X115062000Y-107950000D01*
X105918000Y-107950000D02*
X104140000Y-107950000D01*
X104140000Y-107950000D02*
X104140000Y-106172000D01*
X104140000Y-97028000D02*
X104140000Y-95250000D01*
X123190000Y-97028000D02*
X123190000Y-95250000D01*
X123190000Y-107950000D02*
X123190000Y-106172000D01*
X124968000Y-107950000D02*
X123190000Y-107950000D01*
X135890000Y-107950000D02*
X134112000Y-107950000D01*
X135890000Y-106172000D02*
X135890000Y-107950000D01*
X135890000Y-95250000D02*
X135890000Y-97028000D01*
X134112000Y-95250000D02*
X135890000Y-95250000D01*
X123190000Y-95250000D02*
X124968000Y-95250000D01*
X123190000Y-95250000D02*
X124968000Y-95250000D01*
X134112000Y-95250000D02*
X135890000Y-95250000D01*
X135890000Y-95250000D02*
X135890000Y-97028000D01*
X135890000Y-106172000D02*
X135890000Y-107950000D01*
X135890000Y-107950000D02*
X134112000Y-107950000D01*
X124968000Y-107950000D02*
X123190000Y-107950000D01*
X123190000Y-107950000D02*
X123190000Y-106172000D01*
X123190000Y-97028000D02*
X123190000Y-95250000D01*
D17*
X130048000Y-109855000D02*
X129032000Y-110617000D01*
X130048000Y-110617000D02*
X130048000Y-109093000D01*
X129032000Y-110617000D02*
X129032000Y-109093000D01*
X130048000Y-109855000D02*
X129032000Y-109093000D01*
X130429000Y-109855000D02*
X130048000Y-109855000D01*
X129032000Y-109855000D02*
X128651000Y-109855000D01*
D16*
X123190000Y-95250000D02*
X124968000Y-95250000D01*
X134112000Y-95250000D02*
X135890000Y-95250000D01*
X135890000Y-95250000D02*
X135890000Y-97028000D01*
X135890000Y-106172000D02*
X135890000Y-107950000D01*
X135890000Y-107950000D02*
X134112000Y-107950000D01*
X124968000Y-107950000D02*
X123190000Y-107950000D01*
X123190000Y-107950000D02*
X123190000Y-106172000D01*
X123190000Y-97028000D02*
X123190000Y-95250000D01*
X142240000Y-97028000D02*
X142240000Y-95250000D01*
X142240000Y-107950000D02*
X142240000Y-106172000D01*
X144018000Y-107950000D02*
X142240000Y-107950000D01*
X154940000Y-107950000D02*
X153162000Y-107950000D01*
X154940000Y-106172000D02*
X154940000Y-107950000D01*
X154940000Y-95250000D02*
X154940000Y-97028000D01*
X153162000Y-95250000D02*
X154940000Y-95250000D01*
X142240000Y-95250000D02*
X144018000Y-95250000D01*
D17*
X148082000Y-109855000D02*
X147701000Y-109855000D01*
X149479000Y-109855000D02*
X149098000Y-109855000D01*
X149098000Y-109855000D02*
X148082000Y-109093000D01*
X148082000Y-110617000D02*
X148082000Y-109093000D01*
X149098000Y-110617000D02*
X149098000Y-109093000D01*
X149098000Y-109855000D02*
X148082000Y-110617000D01*
D16*
X142240000Y-97028000D02*
X142240000Y-95250000D01*
X142240000Y-107950000D02*
X142240000Y-106172000D01*
X144018000Y-107950000D02*
X142240000Y-107950000D01*
X154940000Y-107950000D02*
X153162000Y-107950000D01*
X154940000Y-106172000D02*
X154940000Y-107950000D01*
X154940000Y-95250000D02*
X154940000Y-97028000D01*
X153162000Y-95250000D02*
X154940000Y-95250000D01*
X142240000Y-95250000D02*
X144018000Y-95250000D01*
X142240000Y-95250000D02*
X144018000Y-95250000D01*
X153162000Y-95250000D02*
X154940000Y-95250000D01*
X154940000Y-95250000D02*
X154940000Y-97028000D01*
X154940000Y-106172000D02*
X154940000Y-107950000D01*
X154940000Y-107950000D02*
X153162000Y-107950000D01*
X144018000Y-107950000D02*
X142240000Y-107950000D01*
X142240000Y-107950000D02*
X142240000Y-106172000D01*
X142240000Y-97028000D02*
X142240000Y-95250000D01*
X161290000Y-97028000D02*
X161290000Y-95250000D01*
X161290000Y-107950000D02*
X161290000Y-106172000D01*
X163068000Y-107950000D02*
X161290000Y-107950000D01*
X173990000Y-107950000D02*
X172212000Y-107950000D01*
X173990000Y-106172000D02*
X173990000Y-107950000D01*
X173990000Y-95250000D02*
X173990000Y-97028000D01*
X172212000Y-95250000D02*
X173990000Y-95250000D01*
X161290000Y-95250000D02*
X163068000Y-95250000D01*
X161290000Y-95250000D02*
X163068000Y-95250000D01*
X172212000Y-95250000D02*
X173990000Y-95250000D01*
X173990000Y-95250000D02*
X173990000Y-97028000D01*
X173990000Y-106172000D02*
X173990000Y-107950000D01*
X173990000Y-107950000D02*
X172212000Y-107950000D01*
X163068000Y-107950000D02*
X161290000Y-107950000D01*
X161290000Y-107950000D02*
X161290000Y-106172000D01*
X161290000Y-97028000D02*
X161290000Y-95250000D01*
D17*
X168148000Y-109855000D02*
X167132000Y-110617000D01*
X168148000Y-110617000D02*
X168148000Y-109093000D01*
X167132000Y-110617000D02*
X167132000Y-109093000D01*
X168148000Y-109855000D02*
X167132000Y-109093000D01*
X168529000Y-109855000D02*
X168148000Y-109855000D01*
X167132000Y-109855000D02*
X166751000Y-109855000D01*
D16*
X161290000Y-95250000D02*
X163068000Y-95250000D01*
X172212000Y-95250000D02*
X173990000Y-95250000D01*
X173990000Y-95250000D02*
X173990000Y-97028000D01*
X173990000Y-106172000D02*
X173990000Y-107950000D01*
X173990000Y-107950000D02*
X172212000Y-107950000D01*
X163068000Y-107950000D02*
X161290000Y-107950000D01*
X161290000Y-107950000D02*
X161290000Y-106172000D01*
X161290000Y-97028000D02*
X161290000Y-95250000D01*
X66040000Y-116078000D02*
X66040000Y-114300000D01*
X66040000Y-127000000D02*
X66040000Y-125222000D01*
X67818000Y-127000000D02*
X66040000Y-127000000D01*
X78740000Y-127000000D02*
X76962000Y-127000000D01*
X78740000Y-125222000D02*
X78740000Y-127000000D01*
X78740000Y-114300000D02*
X78740000Y-116078000D01*
X76962000Y-114300000D02*
X78740000Y-114300000D01*
X66040000Y-114300000D02*
X67818000Y-114300000D01*
D17*
X71882000Y-128905000D02*
X71501000Y-128905000D01*
X73279000Y-128905000D02*
X72898000Y-128905000D01*
X72898000Y-128905000D02*
X71882000Y-128143000D01*
X71882000Y-129667000D02*
X71882000Y-128143000D01*
X72898000Y-129667000D02*
X72898000Y-128143000D01*
X72898000Y-128905000D02*
X71882000Y-129667000D01*
D16*
X66040000Y-116078000D02*
X66040000Y-114300000D01*
X66040000Y-127000000D02*
X66040000Y-125222000D01*
X67818000Y-127000000D02*
X66040000Y-127000000D01*
X78740000Y-127000000D02*
X76962000Y-127000000D01*
X78740000Y-125222000D02*
X78740000Y-127000000D01*
X78740000Y-114300000D02*
X78740000Y-116078000D01*
X76962000Y-114300000D02*
X78740000Y-114300000D01*
X66040000Y-114300000D02*
X67818000Y-114300000D01*
X66040000Y-114300000D02*
X67818000Y-114300000D01*
X76962000Y-114300000D02*
X78740000Y-114300000D01*
X78740000Y-114300000D02*
X78740000Y-116078000D01*
X78740000Y-125222000D02*
X78740000Y-127000000D01*
X78740000Y-127000000D02*
X76962000Y-127000000D01*
X67818000Y-127000000D02*
X66040000Y-127000000D01*
X66040000Y-127000000D02*
X66040000Y-125222000D01*
X66040000Y-116078000D02*
X66040000Y-114300000D01*
X85090000Y-116078000D02*
X85090000Y-114300000D01*
X85090000Y-127000000D02*
X85090000Y-125222000D01*
X86868000Y-127000000D02*
X85090000Y-127000000D01*
X97790000Y-127000000D02*
X96012000Y-127000000D01*
X97790000Y-125222000D02*
X97790000Y-127000000D01*
X97790000Y-114300000D02*
X97790000Y-116078000D01*
X96012000Y-114300000D02*
X97790000Y-114300000D01*
X85090000Y-114300000D02*
X86868000Y-114300000D01*
X85090000Y-114300000D02*
X86868000Y-114300000D01*
X96012000Y-114300000D02*
X97790000Y-114300000D01*
X97790000Y-114300000D02*
X97790000Y-116078000D01*
X97790000Y-125222000D02*
X97790000Y-127000000D01*
X97790000Y-127000000D02*
X96012000Y-127000000D01*
X86868000Y-127000000D02*
X85090000Y-127000000D01*
X85090000Y-127000000D02*
X85090000Y-125222000D01*
X85090000Y-116078000D02*
X85090000Y-114300000D01*
D17*
X91948000Y-128905000D02*
X90932000Y-129667000D01*
X91948000Y-129667000D02*
X91948000Y-128143000D01*
X90932000Y-129667000D02*
X90932000Y-128143000D01*
X91948000Y-128905000D02*
X90932000Y-128143000D01*
X92329000Y-128905000D02*
X91948000Y-128905000D01*
X90932000Y-128905000D02*
X90551000Y-128905000D01*
D16*
X85090000Y-114300000D02*
X86868000Y-114300000D01*
X96012000Y-114300000D02*
X97790000Y-114300000D01*
X97790000Y-114300000D02*
X97790000Y-116078000D01*
X97790000Y-125222000D02*
X97790000Y-127000000D01*
X97790000Y-127000000D02*
X96012000Y-127000000D01*
X86868000Y-127000000D02*
X85090000Y-127000000D01*
X85090000Y-127000000D02*
X85090000Y-125222000D01*
X85090000Y-116078000D02*
X85090000Y-114300000D01*
X104140000Y-116078000D02*
X104140000Y-114300000D01*
X104140000Y-127000000D02*
X104140000Y-125222000D01*
X105918000Y-127000000D02*
X104140000Y-127000000D01*
X116840000Y-127000000D02*
X115062000Y-127000000D01*
X116840000Y-125222000D02*
X116840000Y-127000000D01*
X116840000Y-114300000D02*
X116840000Y-116078000D01*
X115062000Y-114300000D02*
X116840000Y-114300000D01*
X104140000Y-114300000D02*
X105918000Y-114300000D01*
D17*
X109982000Y-128905000D02*
X109601000Y-128905000D01*
X111379000Y-128905000D02*
X110998000Y-128905000D01*
X110998000Y-128905000D02*
X109982000Y-128143000D01*
X109982000Y-129667000D02*
X109982000Y-128143000D01*
X110998000Y-129667000D02*
X110998000Y-128143000D01*
X110998000Y-128905000D02*
X109982000Y-129667000D01*
D16*
X104140000Y-116078000D02*
X104140000Y-114300000D01*
X104140000Y-127000000D02*
X104140000Y-125222000D01*
X105918000Y-127000000D02*
X104140000Y-127000000D01*
X116840000Y-127000000D02*
X115062000Y-127000000D01*
X116840000Y-125222000D02*
X116840000Y-127000000D01*
X116840000Y-114300000D02*
X116840000Y-116078000D01*
X115062000Y-114300000D02*
X116840000Y-114300000D01*
X104140000Y-114300000D02*
X105918000Y-114300000D01*
X104140000Y-114300000D02*
X105918000Y-114300000D01*
X115062000Y-114300000D02*
X116840000Y-114300000D01*
X116840000Y-114300000D02*
X116840000Y-116078000D01*
X116840000Y-125222000D02*
X116840000Y-127000000D01*
X116840000Y-127000000D02*
X115062000Y-127000000D01*
X105918000Y-127000000D02*
X104140000Y-127000000D01*
X104140000Y-127000000D02*
X104140000Y-125222000D01*
X104140000Y-116078000D02*
X104140000Y-114300000D01*
X123190000Y-116078000D02*
X123190000Y-114300000D01*
X123190000Y-127000000D02*
X123190000Y-125222000D01*
X124968000Y-127000000D02*
X123190000Y-127000000D01*
X135890000Y-127000000D02*
X134112000Y-127000000D01*
X135890000Y-125222000D02*
X135890000Y-127000000D01*
X135890000Y-114300000D02*
X135890000Y-116078000D01*
X134112000Y-114300000D02*
X135890000Y-114300000D01*
X123190000Y-114300000D02*
X124968000Y-114300000D01*
X123190000Y-114300000D02*
X124968000Y-114300000D01*
X134112000Y-114300000D02*
X135890000Y-114300000D01*
X135890000Y-114300000D02*
X135890000Y-116078000D01*
X135890000Y-125222000D02*
X135890000Y-127000000D01*
X135890000Y-127000000D02*
X134112000Y-127000000D01*
X124968000Y-127000000D02*
X123190000Y-127000000D01*
X123190000Y-127000000D02*
X123190000Y-125222000D01*
X123190000Y-116078000D02*
X123190000Y-114300000D01*
D17*
X130048000Y-128905000D02*
X129032000Y-129667000D01*
X130048000Y-129667000D02*
X130048000Y-128143000D01*
X129032000Y-129667000D02*
X129032000Y-128143000D01*
X130048000Y-128905000D02*
X129032000Y-128143000D01*
X130429000Y-128905000D02*
X130048000Y-128905000D01*
X129032000Y-128905000D02*
X128651000Y-128905000D01*
D16*
X123190000Y-114300000D02*
X124968000Y-114300000D01*
X134112000Y-114300000D02*
X135890000Y-114300000D01*
X135890000Y-114300000D02*
X135890000Y-116078000D01*
X135890000Y-125222000D02*
X135890000Y-127000000D01*
X135890000Y-127000000D02*
X134112000Y-127000000D01*
X124968000Y-127000000D02*
X123190000Y-127000000D01*
X123190000Y-127000000D02*
X123190000Y-125222000D01*
X123190000Y-116078000D02*
X123190000Y-114300000D01*
X163068000Y-127000000D02*
X161290000Y-127000000D01*
X173990000Y-127000000D02*
X172212000Y-127000000D01*
X173990000Y-125222000D02*
X173990000Y-127000000D01*
X173990000Y-114300000D02*
X173990000Y-116078000D01*
X172212000Y-114300000D02*
X173990000Y-114300000D01*
X161290000Y-114300000D02*
X163068000Y-114300000D01*
X161290000Y-116078000D02*
X161290000Y-114300000D01*
X161290000Y-127000000D02*
X161290000Y-125222000D01*
X161290000Y-127000000D02*
X161290000Y-125222000D01*
X161290000Y-116078000D02*
X161290000Y-114300000D01*
X161290000Y-114300000D02*
X163068000Y-114300000D01*
X172212000Y-114300000D02*
X173990000Y-114300000D01*
X173990000Y-114300000D02*
X173990000Y-116078000D01*
X173990000Y-125222000D02*
X173990000Y-127000000D01*
X173990000Y-127000000D02*
X172212000Y-127000000D01*
X163068000Y-127000000D02*
X161290000Y-127000000D01*
D17*
X175895000Y-120142000D02*
X176657000Y-121158000D01*
X176657000Y-120142000D02*
X175133000Y-120142000D01*
X176657000Y-121158000D02*
X175133000Y-121158000D01*
X175895000Y-120142000D02*
X175133000Y-121158000D01*
X175895000Y-119761000D02*
X175895000Y-120142000D01*
X175895000Y-121158000D02*
X175895000Y-121539000D01*
D16*
X161290000Y-127000000D02*
X161290000Y-125222000D01*
X161290000Y-116078000D02*
X161290000Y-114300000D01*
X161290000Y-114300000D02*
X163068000Y-114300000D01*
X172212000Y-114300000D02*
X173990000Y-114300000D01*
X173990000Y-114300000D02*
X173990000Y-116078000D01*
X173990000Y-125222000D02*
X173990000Y-127000000D01*
X173990000Y-127000000D02*
X172212000Y-127000000D01*
X163068000Y-127000000D02*
X161290000Y-127000000D01*
D17*
X119380000Y-21590000D02*
X119380000Y-52070000D01*
X119380000Y-21590000D02*
X114300000Y-21590000D01*
X114300000Y-21590000D02*
X114300000Y-19050000D01*
X114300000Y-19050000D02*
X106680000Y-19050000D01*
X106680000Y-19050000D02*
X106680000Y-21590000D01*
X106680000Y-21590000D02*
X101600000Y-21590000D01*
X101600000Y-21590000D02*
X101600000Y-52070000D01*
X101600000Y-52070000D02*
X119380000Y-52070000D01*
X162194761Y-33920380D02*
X161956666Y-34920380D01*
X161766190Y-34206095D01*
X161575714Y-34920380D01*
X161337619Y-33920380D01*
X160432857Y-34920380D02*
X161004285Y-34920380D01*
X160718571Y-34920380D02*
X160718571Y-33920380D01*
X160813809Y-34063238D01*
X160909047Y-34158476D01*
X161004285Y-34206095D01*
X89772857Y-32650380D02*
X89772857Y-33364666D01*
X89820476Y-33507523D01*
X89915714Y-33602761D01*
X90058571Y-33650380D01*
X90153809Y-33650380D01*
X89534761Y-33745619D02*
X88772857Y-33745619D01*
X88677619Y-32650380D02*
X88344285Y-33650380D01*
X88010952Y-32650380D01*
X87106190Y-33555142D02*
X87153809Y-33602761D01*
X87296666Y-33650380D01*
X87391904Y-33650380D01*
X87534761Y-33602761D01*
X87630000Y-33507523D01*
X87677619Y-33412285D01*
X87725238Y-33221809D01*
X87725238Y-33078952D01*
X87677619Y-32888476D01*
X87630000Y-32793238D01*
X87534761Y-32698000D01*
X87391904Y-32650380D01*
X87296666Y-32650380D01*
X87153809Y-32698000D01*
X87106190Y-32745619D01*
X86106190Y-33555142D02*
X86153809Y-33602761D01*
X86296666Y-33650380D01*
X86391904Y-33650380D01*
X86534761Y-33602761D01*
X86630000Y-33507523D01*
X86677619Y-33412285D01*
X86725238Y-33221809D01*
X86725238Y-33078952D01*
X86677619Y-32888476D01*
X86630000Y-32793238D01*
X86534761Y-32698000D01*
X86391904Y-32650380D01*
X86296666Y-32650380D01*
X86153809Y-32698000D01*
X86106190Y-32745619D01*
X85153809Y-33650380D02*
X85725238Y-33650380D01*
X85439523Y-33650380D02*
X85439523Y-32650380D01*
X85534761Y-32793238D01*
X85630000Y-32888476D01*
X85725238Y-32936095D01*
X171148333Y-22187380D02*
X171148333Y-22901666D01*
X171195952Y-23044523D01*
X171291190Y-23139761D01*
X171434047Y-23187380D01*
X171529285Y-23187380D01*
X170719761Y-22282619D02*
X170672142Y-22235000D01*
X170576904Y-22187380D01*
X170338809Y-22187380D01*
X170243571Y-22235000D01*
X170195952Y-22282619D01*
X170148333Y-22377857D01*
X170148333Y-22473095D01*
X170195952Y-22615952D01*
X170767380Y-23187380D01*
X170148333Y-23187380D01*
D19*
X159615999Y-117964857D02*
X159361999Y-118037428D01*
X158938665Y-118037428D01*
X158769332Y-117964857D01*
X158684665Y-117892285D01*
X158599999Y-117747142D01*
X158599999Y-117602000D01*
X158684665Y-117456857D01*
X158769332Y-117384285D01*
X158938665Y-117311714D01*
X159277332Y-117239142D01*
X159446665Y-117166571D01*
X159531332Y-117094000D01*
X159615999Y-116948857D01*
X159615999Y-116803714D01*
X159531332Y-116658571D01*
X159446665Y-116586000D01*
X159277332Y-116513428D01*
X158853999Y-116513428D01*
X158599999Y-116586000D01*
X158007332Y-116513428D02*
X157583999Y-118037428D01*
X157245332Y-116948857D01*
X156906665Y-118037428D01*
X156483332Y-116513428D01*
X159615999Y-117964857D02*
X159361999Y-118037428D01*
X158938665Y-118037428D01*
X158769332Y-117964857D01*
X158684665Y-117892285D01*
X158599999Y-117747142D01*
X158599999Y-117602000D01*
X158684665Y-117456857D01*
X158769332Y-117384285D01*
X158938665Y-117311714D01*
X159277332Y-117239142D01*
X159446665Y-117166571D01*
X159531332Y-117094000D01*
X159615999Y-116948857D01*
X159615999Y-116803714D01*
X159531332Y-116658571D01*
X159446665Y-116586000D01*
X159277332Y-116513428D01*
X158853999Y-116513428D01*
X158599999Y-116586000D01*
X158007332Y-116513428D02*
X157583999Y-118037428D01*
X157245332Y-116948857D01*
X156906665Y-118037428D01*
X156483332Y-116513428D01*
D17*
X157202952Y-114172990D02*
X156441047Y-114172990D01*
X159742952Y-114172990D02*
X158981047Y-114172990D01*
X159362000Y-114553942D02*
X159362000Y-113792038D01*
X119967619Y-54514761D02*
X119920000Y-54419523D01*
X119824761Y-54324285D01*
X119681904Y-54181428D01*
X119634285Y-54086190D01*
X119634285Y-53990952D01*
X119872380Y-54038571D02*
X119824761Y-53943333D01*
X119729523Y-53848095D01*
X119539047Y-53800476D01*
X119205714Y-53800476D01*
X119015238Y-53848095D01*
X118920000Y-53943333D01*
X118872380Y-54038571D01*
X118872380Y-54229047D01*
X118920000Y-54324285D01*
X119015238Y-54419523D01*
X119205714Y-54467142D01*
X119539047Y-54467142D01*
X119729523Y-54419523D01*
X119824761Y-54324285D01*
X119872380Y-54229047D01*
X119872380Y-54038571D01*
X118967619Y-54848095D02*
X118920000Y-54895714D01*
X118872380Y-54990952D01*
X118872380Y-55229047D01*
X118920000Y-55324285D01*
X118967619Y-55371904D01*
X119062857Y-55419523D01*
X119158095Y-55419523D01*
X119300952Y-55371904D01*
X119872380Y-54800476D01*
X119872380Y-55419523D01*
D19*
X150114001Y-124568857D02*
X149860001Y-124641428D01*
X149436667Y-124641428D01*
X149267334Y-124568857D01*
X149182667Y-124496285D01*
X149098001Y-124351142D01*
X149098001Y-124206000D01*
X149182667Y-124060857D01*
X149267334Y-123988285D01*
X149436667Y-123915714D01*
X149775334Y-123843142D01*
X149944667Y-123770571D01*
X150029334Y-123698000D01*
X150114001Y-123552857D01*
X150114001Y-123407714D01*
X150029334Y-123262571D01*
X149944667Y-123190000D01*
X149775334Y-123117428D01*
X149352001Y-123117428D01*
X149098001Y-123190000D01*
X148505334Y-123117428D02*
X148082001Y-124641428D01*
X147743334Y-123552857D01*
X147404667Y-124641428D01*
X146981334Y-123117428D01*
X150114001Y-124568857D02*
X149860001Y-124641428D01*
X149436667Y-124641428D01*
X149267334Y-124568857D01*
X149182667Y-124496285D01*
X149098001Y-124351142D01*
X149098001Y-124206000D01*
X149182667Y-124060857D01*
X149267334Y-123988285D01*
X149436667Y-123915714D01*
X149775334Y-123843142D01*
X149944667Y-123770571D01*
X150029334Y-123698000D01*
X150114001Y-123552857D01*
X150114001Y-123407714D01*
X150029334Y-123262571D01*
X149944667Y-123190000D01*
X149775334Y-123117428D01*
X149352001Y-123117428D01*
X149098001Y-123190000D01*
X148505334Y-123117428D02*
X148082001Y-124641428D01*
X147743334Y-123552857D01*
X147404667Y-124641428D01*
X146981334Y-123117428D01*
D17*
X147700952Y-127269866D02*
X146939047Y-127269866D01*
X147320000Y-127650818D02*
X147320000Y-126888914D01*
X150240952Y-127269866D02*
X149479047Y-127269866D01*
X130754285Y-33920380D02*
X130754285Y-34634666D01*
X130801904Y-34777523D01*
X130897142Y-34872761D01*
X131040000Y-34920380D01*
X131135238Y-34920380D01*
X130516190Y-35015619D02*
X129754285Y-35015619D01*
X128944761Y-34825142D02*
X128992380Y-34872761D01*
X129135238Y-34920380D01*
X129230476Y-34920380D01*
X129373333Y-34872761D01*
X129468571Y-34777523D01*
X129516190Y-34682285D01*
X129563809Y-34491809D01*
X129563809Y-34348952D01*
X129516190Y-34158476D01*
X129468571Y-34063238D01*
X129373333Y-33968000D01*
X129230476Y-33920380D01*
X129135238Y-33920380D01*
X128992380Y-33968000D01*
X128944761Y-34015619D01*
X128087619Y-33920380D02*
X128278095Y-33920380D01*
X128373333Y-33968000D01*
X128420952Y-34015619D01*
X128516190Y-34158476D01*
X128563809Y-34348952D01*
X128563809Y-34729904D01*
X128516190Y-34825142D01*
X128468571Y-34872761D01*
X128373333Y-34920380D01*
X128182857Y-34920380D01*
X128087619Y-34872761D01*
X128040000Y-34825142D01*
X127992380Y-34729904D01*
X127992380Y-34491809D01*
X128040000Y-34396571D01*
X128087619Y-34348952D01*
X128182857Y-34301333D01*
X128373333Y-34301333D01*
X128468571Y-34348952D01*
X128516190Y-34396571D01*
X128563809Y-34491809D01*
X125428095Y-31380380D02*
X125428095Y-32094666D01*
X125475714Y-32237523D01*
X125570952Y-32332761D01*
X125713809Y-32380380D01*
X125809047Y-32380380D01*
X125190000Y-32475619D02*
X124428095Y-32475619D01*
X123666190Y-31428000D02*
X123761428Y-31380380D01*
X123904285Y-31380380D01*
X124047142Y-31428000D01*
X124142380Y-31523238D01*
X124190000Y-31618476D01*
X124237619Y-31808952D01*
X124237619Y-31951809D01*
X124190000Y-32142285D01*
X124142380Y-32237523D01*
X124047142Y-32332761D01*
X123904285Y-32380380D01*
X123809047Y-32380380D01*
X123666190Y-32332761D01*
X123618571Y-32285142D01*
X123618571Y-31951809D01*
X123809047Y-31951809D01*
X123190000Y-32380380D02*
X123190000Y-31380380D01*
X122618571Y-32380380D01*
X122618571Y-31380380D01*
X122142380Y-32380380D02*
X122142380Y-31380380D01*
X121904285Y-31380380D01*
X121761428Y-31428000D01*
X121666190Y-31523238D01*
X121618571Y-31618476D01*
X121570952Y-31808952D01*
X121570952Y-31951809D01*
X121618571Y-32142285D01*
X121666190Y-32237523D01*
X121761428Y-32332761D01*
X121904285Y-32380380D01*
X122142380Y-32380380D01*
X120618571Y-32380380D02*
X121190000Y-32380380D01*
X120904285Y-32380380D02*
X120904285Y-31380380D01*
X120999523Y-31523238D01*
X121094761Y-31618476D01*
X121190000Y-31666095D01*
X133024285Y-25030380D02*
X133024285Y-25744666D01*
X133071904Y-25887523D01*
X133167142Y-25982761D01*
X133310000Y-26030380D01*
X133405238Y-26030380D01*
X132786190Y-26125619D02*
X132024285Y-26125619D01*
X131214761Y-26030380D02*
X131548095Y-25554190D01*
X131786190Y-26030380D02*
X131786190Y-25030380D01*
X131405238Y-25030380D01*
X131310000Y-25078000D01*
X131262380Y-25125619D01*
X131214761Y-25220857D01*
X131214761Y-25363714D01*
X131262380Y-25458952D01*
X131310000Y-25506571D01*
X131405238Y-25554190D01*
X131786190Y-25554190D01*
X130262380Y-25078000D02*
X130357619Y-25030380D01*
X130500476Y-25030380D01*
X130643333Y-25078000D01*
X130738571Y-25173238D01*
X130786190Y-25268476D01*
X130833809Y-25458952D01*
X130833809Y-25601809D01*
X130786190Y-25792285D01*
X130738571Y-25887523D01*
X130643333Y-25982761D01*
X130500476Y-26030380D01*
X130405238Y-26030380D01*
X130262380Y-25982761D01*
X130214761Y-25935142D01*
X130214761Y-25601809D01*
X130405238Y-25601809D01*
X129452857Y-25506571D02*
X129310000Y-25554190D01*
X129262380Y-25601809D01*
X129214761Y-25697047D01*
X129214761Y-25839904D01*
X129262380Y-25935142D01*
X129310000Y-25982761D01*
X129405238Y-26030380D01*
X129786190Y-26030380D01*
X129786190Y-25030380D01*
X129452857Y-25030380D01*
X129357619Y-25078000D01*
X129310000Y-25125619D01*
X129262380Y-25220857D01*
X129262380Y-25316095D01*
X129310000Y-25411333D01*
X129357619Y-25458952D01*
X129452857Y-25506571D01*
X129786190Y-25506571D01*
X128262380Y-26030380D02*
X128833809Y-26030380D01*
X128548095Y-26030380D02*
X128548095Y-25030380D01*
X128643333Y-25173238D01*
X128738571Y-25268476D01*
X128833809Y-25316095D01*
D20*
X96325710Y-25289490D02*
X96592823Y-24907900D01*
X96783618Y-25289490D02*
X96783618Y-24488151D01*
X96478346Y-24488151D01*
X96402028Y-24526310D01*
X96363869Y-24564469D01*
X96325710Y-24640787D01*
X96325710Y-24755264D01*
X96363869Y-24831582D01*
X96402028Y-24869741D01*
X96478346Y-24907900D01*
X96783618Y-24907900D01*
X96020438Y-25251331D02*
X95905961Y-25289490D01*
X95715166Y-25289490D01*
X95638848Y-25251331D01*
X95600689Y-25213172D01*
X95562530Y-25136854D01*
X95562530Y-25060536D01*
X95600689Y-24984218D01*
X95638848Y-24946059D01*
X95715166Y-24907900D01*
X95867802Y-24869741D01*
X95944120Y-24831582D01*
X95982279Y-24793423D01*
X96020438Y-24717105D01*
X96020438Y-24640787D01*
X95982279Y-24564469D01*
X95944120Y-24526310D01*
X95867802Y-24488151D01*
X95677007Y-24488151D01*
X95562530Y-24526310D01*
X95333576Y-24488151D02*
X94875668Y-24488151D01*
X95104622Y-25289490D02*
X95104622Y-24488151D01*
X94799350Y-25365808D02*
X94188806Y-25365808D01*
X93578262Y-25289490D02*
X94036170Y-25289490D01*
X93807216Y-25289490D02*
X93807216Y-24488151D01*
X93883534Y-24602628D01*
X93959852Y-24678946D01*
X94036170Y-24717105D01*
X98428885Y-31047787D02*
X98695885Y-30666358D01*
X98886599Y-31047787D02*
X98886599Y-30246787D01*
X98581456Y-30246787D01*
X98505170Y-30284930D01*
X98467027Y-30323072D01*
X98428885Y-30399358D01*
X98428885Y-30513787D01*
X98467027Y-30590072D01*
X98505170Y-30628215D01*
X98581456Y-30666358D01*
X98886599Y-30666358D01*
X98085599Y-30628215D02*
X97818599Y-30628215D01*
X97704170Y-31047787D02*
X98085599Y-31047787D01*
X98085599Y-30246787D01*
X97704170Y-30246787D01*
X97399027Y-31009644D02*
X97284599Y-31047787D01*
X97093885Y-31047787D01*
X97017599Y-31009644D01*
X96979456Y-30971501D01*
X96941313Y-30895215D01*
X96941313Y-30818930D01*
X96979456Y-30742644D01*
X97017599Y-30704501D01*
X97093885Y-30666358D01*
X97246456Y-30628215D01*
X97322742Y-30590072D01*
X97360885Y-30551930D01*
X97399027Y-30475644D01*
X97399027Y-30399358D01*
X97360885Y-30323072D01*
X97322742Y-30284930D01*
X97246456Y-30246787D01*
X97055742Y-30246787D01*
X96941313Y-30284930D01*
X96598027Y-30628215D02*
X96331027Y-30628215D01*
X96216599Y-31047787D02*
X96598027Y-31047787D01*
X96598027Y-30246787D01*
X96216599Y-30246787D01*
X95987742Y-30246787D02*
X95530027Y-30246787D01*
X95758885Y-31047787D02*
X95758885Y-30246787D01*
X95453742Y-31124072D02*
X94843456Y-31124072D01*
X94385742Y-30628215D02*
X94271313Y-30666358D01*
X94233170Y-30704501D01*
X94195027Y-30780787D01*
X94195027Y-30895215D01*
X94233170Y-30971501D01*
X94271313Y-31009644D01*
X94347599Y-31047787D01*
X94652742Y-31047787D01*
X94652742Y-30246787D01*
X94385742Y-30246787D01*
X94309456Y-30284930D01*
X94271313Y-30323072D01*
X94233170Y-30399358D01*
X94233170Y-30475644D01*
X94271313Y-30551930D01*
X94309456Y-30590072D01*
X94385742Y-30628215D01*
X94652742Y-30628215D01*
X93851742Y-30246787D02*
X93851742Y-30895215D01*
X93813599Y-30971501D01*
X93775456Y-31009644D01*
X93699170Y-31047787D01*
X93546599Y-31047787D01*
X93470313Y-31009644D01*
X93432170Y-30971501D01*
X93394027Y-30895215D01*
X93394027Y-30246787D01*
X93127027Y-30246787D02*
X92669313Y-30246787D01*
X92898170Y-31047787D02*
X92898170Y-30246787D01*
X92516742Y-30246787D02*
X92059027Y-30246787D01*
X92287885Y-31047787D02*
X92287885Y-30246787D01*
X91639456Y-30246787D02*
X91486885Y-30246787D01*
X91410599Y-30284930D01*
X91334313Y-30361215D01*
X91296170Y-30513787D01*
X91296170Y-30780787D01*
X91334313Y-30933358D01*
X91410599Y-31009644D01*
X91486885Y-31047787D01*
X91639456Y-31047787D01*
X91715742Y-31009644D01*
X91792027Y-30933358D01*
X91830170Y-30780787D01*
X91830170Y-30513787D01*
X91792027Y-30361215D01*
X91715742Y-30284930D01*
X91639456Y-30246787D01*
X90952885Y-31047787D02*
X90952885Y-30246787D01*
X90495170Y-31047787D01*
X90495170Y-30246787D01*
D17*
X74040952Y-51069866D02*
X73279047Y-51069866D01*
X71500952Y-51069866D02*
X70739047Y-51069866D01*
X71120000Y-51450818D02*
X71120000Y-50688914D01*
D19*
X73914001Y-48368857D02*
X73660001Y-48441428D01*
X73236667Y-48441428D01*
X73067334Y-48368857D01*
X72982667Y-48296285D01*
X72898001Y-48151142D01*
X72898001Y-48006000D01*
X72982667Y-47860857D01*
X73067334Y-47788285D01*
X73236667Y-47715714D01*
X73575334Y-47643142D01*
X73744667Y-47570571D01*
X73829334Y-47498000D01*
X73914001Y-47352857D01*
X73914001Y-47207714D01*
X73829334Y-47062571D01*
X73744667Y-46990000D01*
X73575334Y-46917428D01*
X73152001Y-46917428D01*
X72898001Y-46990000D01*
X72305334Y-46917428D02*
X71882001Y-48441428D01*
X71543334Y-47352857D01*
X71204667Y-48441428D01*
X70781334Y-46917428D01*
X73914001Y-48368857D02*
X73660001Y-48441428D01*
X73236667Y-48441428D01*
X73067334Y-48368857D01*
X72982667Y-48296285D01*
X72898001Y-48151142D01*
X72898001Y-48006000D01*
X72982667Y-47860857D01*
X73067334Y-47788285D01*
X73236667Y-47715714D01*
X73575334Y-47643142D01*
X73744667Y-47570571D01*
X73829334Y-47498000D01*
X73914001Y-47352857D01*
X73914001Y-47207714D01*
X73829334Y-47062571D01*
X73744667Y-46990000D01*
X73575334Y-46917428D01*
X73152001Y-46917428D01*
X72898001Y-46990000D01*
X72305334Y-46917428D02*
X71882001Y-48441428D01*
X71543334Y-47352857D01*
X71204667Y-48441428D01*
X70781334Y-46917428D01*
X92964001Y-48368857D02*
X92710001Y-48441428D01*
X92286667Y-48441428D01*
X92117334Y-48368857D01*
X92032667Y-48296285D01*
X91948001Y-48151142D01*
X91948001Y-48006000D01*
X92032667Y-47860857D01*
X92117334Y-47788285D01*
X92286667Y-47715714D01*
X92625334Y-47643142D01*
X92794667Y-47570571D01*
X92879334Y-47498000D01*
X92964001Y-47352857D01*
X92964001Y-47207714D01*
X92879334Y-47062571D01*
X92794667Y-46990000D01*
X92625334Y-46917428D01*
X92202001Y-46917428D01*
X91948001Y-46990000D01*
X91355334Y-46917428D02*
X90932001Y-48441428D01*
X90593334Y-47352857D01*
X90254667Y-48441428D01*
X89831334Y-46917428D01*
X92964001Y-48368857D02*
X92710001Y-48441428D01*
X92286667Y-48441428D01*
X92117334Y-48368857D01*
X92032667Y-48296285D01*
X91948001Y-48151142D01*
X91948001Y-48006000D01*
X92032667Y-47860857D01*
X92117334Y-47788285D01*
X92286667Y-47715714D01*
X92625334Y-47643142D01*
X92794667Y-47570571D01*
X92879334Y-47498000D01*
X92964001Y-47352857D01*
X92964001Y-47207714D01*
X92879334Y-47062571D01*
X92794667Y-46990000D01*
X92625334Y-46917428D01*
X92202001Y-46917428D01*
X91948001Y-46990000D01*
X91355334Y-46917428D02*
X90932001Y-48441428D01*
X90593334Y-47352857D01*
X90254667Y-48441428D01*
X89831334Y-46917428D01*
D17*
X90550952Y-51069866D02*
X89789047Y-51069866D01*
X90170000Y-51450818D02*
X90170000Y-50688914D01*
X93090952Y-51069866D02*
X92329047Y-51069866D01*
D19*
X112014001Y-48368857D02*
X111760001Y-48441428D01*
X111336667Y-48441428D01*
X111167334Y-48368857D01*
X111082667Y-48296285D01*
X110998001Y-48151142D01*
X110998001Y-48006000D01*
X111082667Y-47860857D01*
X111167334Y-47788285D01*
X111336667Y-47715714D01*
X111675334Y-47643142D01*
X111844667Y-47570571D01*
X111929334Y-47498000D01*
X112014001Y-47352857D01*
X112014001Y-47207714D01*
X111929334Y-47062571D01*
X111844667Y-46990000D01*
X111675334Y-46917428D01*
X111252001Y-46917428D01*
X110998001Y-46990000D01*
X110405334Y-46917428D02*
X109982001Y-48441428D01*
X109643334Y-47352857D01*
X109304667Y-48441428D01*
X108881334Y-46917428D01*
X112014001Y-48368857D02*
X111760001Y-48441428D01*
X111336667Y-48441428D01*
X111167334Y-48368857D01*
X111082667Y-48296285D01*
X110998001Y-48151142D01*
X110998001Y-48006000D01*
X111082667Y-47860857D01*
X111167334Y-47788285D01*
X111336667Y-47715714D01*
X111675334Y-47643142D01*
X111844667Y-47570571D01*
X111929334Y-47498000D01*
X112014001Y-47352857D01*
X112014001Y-47207714D01*
X111929334Y-47062571D01*
X111844667Y-46990000D01*
X111675334Y-46917428D01*
X111252001Y-46917428D01*
X110998001Y-46990000D01*
X110405334Y-46917428D02*
X109982001Y-48441428D01*
X109643334Y-47352857D01*
X109304667Y-48441428D01*
X108881334Y-46917428D01*
D17*
X109600952Y-51069866D02*
X108839047Y-51069866D01*
X109220000Y-51450818D02*
X109220000Y-50688914D01*
X112140952Y-51069866D02*
X111379047Y-51069866D01*
D19*
X131064001Y-48368857D02*
X130810001Y-48441428D01*
X130386667Y-48441428D01*
X130217334Y-48368857D01*
X130132667Y-48296285D01*
X130048001Y-48151142D01*
X130048001Y-48006000D01*
X130132667Y-47860857D01*
X130217334Y-47788285D01*
X130386667Y-47715714D01*
X130725334Y-47643142D01*
X130894667Y-47570571D01*
X130979334Y-47498000D01*
X131064001Y-47352857D01*
X131064001Y-47207714D01*
X130979334Y-47062571D01*
X130894667Y-46990000D01*
X130725334Y-46917428D01*
X130302001Y-46917428D01*
X130048001Y-46990000D01*
X129455334Y-46917428D02*
X129032001Y-48441428D01*
X128693334Y-47352857D01*
X128354667Y-48441428D01*
X127931334Y-46917428D01*
X131064001Y-48368857D02*
X130810001Y-48441428D01*
X130386667Y-48441428D01*
X130217334Y-48368857D01*
X130132667Y-48296285D01*
X130048001Y-48151142D01*
X130048001Y-48006000D01*
X130132667Y-47860857D01*
X130217334Y-47788285D01*
X130386667Y-47715714D01*
X130725334Y-47643142D01*
X130894667Y-47570571D01*
X130979334Y-47498000D01*
X131064001Y-47352857D01*
X131064001Y-47207714D01*
X130979334Y-47062571D01*
X130894667Y-46990000D01*
X130725334Y-46917428D01*
X130302001Y-46917428D01*
X130048001Y-46990000D01*
X129455334Y-46917428D02*
X129032001Y-48441428D01*
X128693334Y-47352857D01*
X128354667Y-48441428D01*
X127931334Y-46917428D01*
D17*
X128650952Y-51069866D02*
X127889047Y-51069866D01*
X128270000Y-51450818D02*
X128270000Y-50688914D01*
X131190952Y-51069866D02*
X130429047Y-51069866D01*
D19*
X150114001Y-48368857D02*
X149860001Y-48441428D01*
X149436667Y-48441428D01*
X149267334Y-48368857D01*
X149182667Y-48296285D01*
X149098001Y-48151142D01*
X149098001Y-48006000D01*
X149182667Y-47860857D01*
X149267334Y-47788285D01*
X149436667Y-47715714D01*
X149775334Y-47643142D01*
X149944667Y-47570571D01*
X150029334Y-47498000D01*
X150114001Y-47352857D01*
X150114001Y-47207714D01*
X150029334Y-47062571D01*
X149944667Y-46990000D01*
X149775334Y-46917428D01*
X149352001Y-46917428D01*
X149098001Y-46990000D01*
X148505334Y-46917428D02*
X148082001Y-48441428D01*
X147743334Y-47352857D01*
X147404667Y-48441428D01*
X146981334Y-46917428D01*
X150114001Y-48368857D02*
X149860001Y-48441428D01*
X149436667Y-48441428D01*
X149267334Y-48368857D01*
X149182667Y-48296285D01*
X149098001Y-48151142D01*
X149098001Y-48006000D01*
X149182667Y-47860857D01*
X149267334Y-47788285D01*
X149436667Y-47715714D01*
X149775334Y-47643142D01*
X149944667Y-47570571D01*
X150029334Y-47498000D01*
X150114001Y-47352857D01*
X150114001Y-47207714D01*
X150029334Y-47062571D01*
X149944667Y-46990000D01*
X149775334Y-46917428D01*
X149352001Y-46917428D01*
X149098001Y-46990000D01*
X148505334Y-46917428D02*
X148082001Y-48441428D01*
X147743334Y-47352857D01*
X147404667Y-48441428D01*
X146981334Y-46917428D01*
D17*
X147700952Y-51069866D02*
X146939047Y-51069866D01*
X147320000Y-51450818D02*
X147320000Y-50688914D01*
X150240952Y-51069866D02*
X149479047Y-51069866D01*
X169290952Y-51069866D02*
X168529047Y-51069866D01*
X166750952Y-51069866D02*
X165989047Y-51069866D01*
X166370000Y-51450818D02*
X166370000Y-50688914D01*
D19*
X169164001Y-48368857D02*
X168910001Y-48441428D01*
X168486667Y-48441428D01*
X168317334Y-48368857D01*
X168232667Y-48296285D01*
X168148001Y-48151142D01*
X168148001Y-48006000D01*
X168232667Y-47860857D01*
X168317334Y-47788285D01*
X168486667Y-47715714D01*
X168825334Y-47643142D01*
X168994667Y-47570571D01*
X169079334Y-47498000D01*
X169164001Y-47352857D01*
X169164001Y-47207714D01*
X169079334Y-47062571D01*
X168994667Y-46990000D01*
X168825334Y-46917428D01*
X168402001Y-46917428D01*
X168148001Y-46990000D01*
X167555334Y-46917428D02*
X167132001Y-48441428D01*
X166793334Y-47352857D01*
X166454667Y-48441428D01*
X166031334Y-46917428D01*
X169164001Y-48368857D02*
X168910001Y-48441428D01*
X168486667Y-48441428D01*
X168317334Y-48368857D01*
X168232667Y-48296285D01*
X168148001Y-48151142D01*
X168148001Y-48006000D01*
X168232667Y-47860857D01*
X168317334Y-47788285D01*
X168486667Y-47715714D01*
X168825334Y-47643142D01*
X168994667Y-47570571D01*
X169079334Y-47498000D01*
X169164001Y-47352857D01*
X169164001Y-47207714D01*
X169079334Y-47062571D01*
X168994667Y-46990000D01*
X168825334Y-46917428D01*
X168402001Y-46917428D01*
X168148001Y-46990000D01*
X167555334Y-46917428D02*
X167132001Y-48441428D01*
X166793334Y-47352857D01*
X166454667Y-48441428D01*
X166031334Y-46917428D01*
D17*
X74040952Y-70119866D02*
X73279047Y-70119866D01*
X71500952Y-70119866D02*
X70739047Y-70119866D01*
X71120000Y-70500818D02*
X71120000Y-69738914D01*
D19*
X73914001Y-67418857D02*
X73660001Y-67491428D01*
X73236667Y-67491428D01*
X73067334Y-67418857D01*
X72982667Y-67346285D01*
X72898001Y-67201142D01*
X72898001Y-67056000D01*
X72982667Y-66910857D01*
X73067334Y-66838285D01*
X73236667Y-66765714D01*
X73575334Y-66693142D01*
X73744667Y-66620571D01*
X73829334Y-66548000D01*
X73914001Y-66402857D01*
X73914001Y-66257714D01*
X73829334Y-66112571D01*
X73744667Y-66040000D01*
X73575334Y-65967428D01*
X73152001Y-65967428D01*
X72898001Y-66040000D01*
X72305334Y-65967428D02*
X71882001Y-67491428D01*
X71543334Y-66402857D01*
X71204667Y-67491428D01*
X70781334Y-65967428D01*
X73914001Y-67418857D02*
X73660001Y-67491428D01*
X73236667Y-67491428D01*
X73067334Y-67418857D01*
X72982667Y-67346285D01*
X72898001Y-67201142D01*
X72898001Y-67056000D01*
X72982667Y-66910857D01*
X73067334Y-66838285D01*
X73236667Y-66765714D01*
X73575334Y-66693142D01*
X73744667Y-66620571D01*
X73829334Y-66548000D01*
X73914001Y-66402857D01*
X73914001Y-66257714D01*
X73829334Y-66112571D01*
X73744667Y-66040000D01*
X73575334Y-65967428D01*
X73152001Y-65967428D01*
X72898001Y-66040000D01*
X72305334Y-65967428D02*
X71882001Y-67491428D01*
X71543334Y-66402857D01*
X71204667Y-67491428D01*
X70781334Y-65967428D01*
D17*
X93090952Y-70119866D02*
X92329047Y-70119866D01*
X90550952Y-70119866D02*
X89789047Y-70119866D01*
X90170000Y-70500818D02*
X90170000Y-69738914D01*
D19*
X92964001Y-67418857D02*
X92710001Y-67491428D01*
X92286667Y-67491428D01*
X92117334Y-67418857D01*
X92032667Y-67346285D01*
X91948001Y-67201142D01*
X91948001Y-67056000D01*
X92032667Y-66910857D01*
X92117334Y-66838285D01*
X92286667Y-66765714D01*
X92625334Y-66693142D01*
X92794667Y-66620571D01*
X92879334Y-66548000D01*
X92964001Y-66402857D01*
X92964001Y-66257714D01*
X92879334Y-66112571D01*
X92794667Y-66040000D01*
X92625334Y-65967428D01*
X92202001Y-65967428D01*
X91948001Y-66040000D01*
X91355334Y-65967428D02*
X90932001Y-67491428D01*
X90593334Y-66402857D01*
X90254667Y-67491428D01*
X89831334Y-65967428D01*
X92964001Y-67418857D02*
X92710001Y-67491428D01*
X92286667Y-67491428D01*
X92117334Y-67418857D01*
X92032667Y-67346285D01*
X91948001Y-67201142D01*
X91948001Y-67056000D01*
X92032667Y-66910857D01*
X92117334Y-66838285D01*
X92286667Y-66765714D01*
X92625334Y-66693142D01*
X92794667Y-66620571D01*
X92879334Y-66548000D01*
X92964001Y-66402857D01*
X92964001Y-66257714D01*
X92879334Y-66112571D01*
X92794667Y-66040000D01*
X92625334Y-65967428D01*
X92202001Y-65967428D01*
X91948001Y-66040000D01*
X91355334Y-65967428D02*
X90932001Y-67491428D01*
X90593334Y-66402857D01*
X90254667Y-67491428D01*
X89831334Y-65967428D01*
D17*
X112140952Y-70119866D02*
X111379047Y-70119866D01*
X109600952Y-70119866D02*
X108839047Y-70119866D01*
X109220000Y-70500818D02*
X109220000Y-69738914D01*
D19*
X112014001Y-67418857D02*
X111760001Y-67491428D01*
X111336667Y-67491428D01*
X111167334Y-67418857D01*
X111082667Y-67346285D01*
X110998001Y-67201142D01*
X110998001Y-67056000D01*
X111082667Y-66910857D01*
X111167334Y-66838285D01*
X111336667Y-66765714D01*
X111675334Y-66693142D01*
X111844667Y-66620571D01*
X111929334Y-66548000D01*
X112014001Y-66402857D01*
X112014001Y-66257714D01*
X111929334Y-66112571D01*
X111844667Y-66040000D01*
X111675334Y-65967428D01*
X111252001Y-65967428D01*
X110998001Y-66040000D01*
X110405334Y-65967428D02*
X109982001Y-67491428D01*
X109643334Y-66402857D01*
X109304667Y-67491428D01*
X108881334Y-65967428D01*
X112014001Y-67418857D02*
X111760001Y-67491428D01*
X111336667Y-67491428D01*
X111167334Y-67418857D01*
X111082667Y-67346285D01*
X110998001Y-67201142D01*
X110998001Y-67056000D01*
X111082667Y-66910857D01*
X111167334Y-66838285D01*
X111336667Y-66765714D01*
X111675334Y-66693142D01*
X111844667Y-66620571D01*
X111929334Y-66548000D01*
X112014001Y-66402857D01*
X112014001Y-66257714D01*
X111929334Y-66112571D01*
X111844667Y-66040000D01*
X111675334Y-65967428D01*
X111252001Y-65967428D01*
X110998001Y-66040000D01*
X110405334Y-65967428D02*
X109982001Y-67491428D01*
X109643334Y-66402857D01*
X109304667Y-67491428D01*
X108881334Y-65967428D01*
D17*
X131190952Y-70119866D02*
X130429047Y-70119866D01*
X128650952Y-70119866D02*
X127889047Y-70119866D01*
X128270000Y-70500818D02*
X128270000Y-69738914D01*
D19*
X131064001Y-67418857D02*
X130810001Y-67491428D01*
X130386667Y-67491428D01*
X130217334Y-67418857D01*
X130132667Y-67346285D01*
X130048001Y-67201142D01*
X130048001Y-67056000D01*
X130132667Y-66910857D01*
X130217334Y-66838285D01*
X130386667Y-66765714D01*
X130725334Y-66693142D01*
X130894667Y-66620571D01*
X130979334Y-66548000D01*
X131064001Y-66402857D01*
X131064001Y-66257714D01*
X130979334Y-66112571D01*
X130894667Y-66040000D01*
X130725334Y-65967428D01*
X130302001Y-65967428D01*
X130048001Y-66040000D01*
X129455334Y-65967428D02*
X129032001Y-67491428D01*
X128693334Y-66402857D01*
X128354667Y-67491428D01*
X127931334Y-65967428D01*
X131064001Y-67418857D02*
X130810001Y-67491428D01*
X130386667Y-67491428D01*
X130217334Y-67418857D01*
X130132667Y-67346285D01*
X130048001Y-67201142D01*
X130048001Y-67056000D01*
X130132667Y-66910857D01*
X130217334Y-66838285D01*
X130386667Y-66765714D01*
X130725334Y-66693142D01*
X130894667Y-66620571D01*
X130979334Y-66548000D01*
X131064001Y-66402857D01*
X131064001Y-66257714D01*
X130979334Y-66112571D01*
X130894667Y-66040000D01*
X130725334Y-65967428D01*
X130302001Y-65967428D01*
X130048001Y-66040000D01*
X129455334Y-65967428D02*
X129032001Y-67491428D01*
X128693334Y-66402857D01*
X128354667Y-67491428D01*
X127931334Y-65967428D01*
X150114001Y-67418857D02*
X149860001Y-67491428D01*
X149436667Y-67491428D01*
X149267334Y-67418857D01*
X149182667Y-67346285D01*
X149098001Y-67201142D01*
X149098001Y-67056000D01*
X149182667Y-66910857D01*
X149267334Y-66838285D01*
X149436667Y-66765714D01*
X149775334Y-66693142D01*
X149944667Y-66620571D01*
X150029334Y-66548000D01*
X150114001Y-66402857D01*
X150114001Y-66257714D01*
X150029334Y-66112571D01*
X149944667Y-66040000D01*
X149775334Y-65967428D01*
X149352001Y-65967428D01*
X149098001Y-66040000D01*
X148505334Y-65967428D02*
X148082001Y-67491428D01*
X147743334Y-66402857D01*
X147404667Y-67491428D01*
X146981334Y-65967428D01*
X150114001Y-67418857D02*
X149860001Y-67491428D01*
X149436667Y-67491428D01*
X149267334Y-67418857D01*
X149182667Y-67346285D01*
X149098001Y-67201142D01*
X149098001Y-67056000D01*
X149182667Y-66910857D01*
X149267334Y-66838285D01*
X149436667Y-66765714D01*
X149775334Y-66693142D01*
X149944667Y-66620571D01*
X150029334Y-66548000D01*
X150114001Y-66402857D01*
X150114001Y-66257714D01*
X150029334Y-66112571D01*
X149944667Y-66040000D01*
X149775334Y-65967428D01*
X149352001Y-65967428D01*
X149098001Y-66040000D01*
X148505334Y-65967428D02*
X148082001Y-67491428D01*
X147743334Y-66402857D01*
X147404667Y-67491428D01*
X146981334Y-65967428D01*
D17*
X147700952Y-70119866D02*
X146939047Y-70119866D01*
X147320000Y-70500818D02*
X147320000Y-69738914D01*
X150240952Y-70119866D02*
X149479047Y-70119866D01*
X169290952Y-70119866D02*
X168529047Y-70119866D01*
X166750952Y-70119866D02*
X165989047Y-70119866D01*
X166370000Y-70500818D02*
X166370000Y-69738914D01*
D19*
X169164001Y-67418857D02*
X168910001Y-67491428D01*
X168486667Y-67491428D01*
X168317334Y-67418857D01*
X168232667Y-67346285D01*
X168148001Y-67201142D01*
X168148001Y-67056000D01*
X168232667Y-66910857D01*
X168317334Y-66838285D01*
X168486667Y-66765714D01*
X168825334Y-66693142D01*
X168994667Y-66620571D01*
X169079334Y-66548000D01*
X169164001Y-66402857D01*
X169164001Y-66257714D01*
X169079334Y-66112571D01*
X168994667Y-66040000D01*
X168825334Y-65967428D01*
X168402001Y-65967428D01*
X168148001Y-66040000D01*
X167555334Y-65967428D02*
X167132001Y-67491428D01*
X166793334Y-66402857D01*
X166454667Y-67491428D01*
X166031334Y-65967428D01*
X169164001Y-67418857D02*
X168910001Y-67491428D01*
X168486667Y-67491428D01*
X168317334Y-67418857D01*
X168232667Y-67346285D01*
X168148001Y-67201142D01*
X168148001Y-67056000D01*
X168232667Y-66910857D01*
X168317334Y-66838285D01*
X168486667Y-66765714D01*
X168825334Y-66693142D01*
X168994667Y-66620571D01*
X169079334Y-66548000D01*
X169164001Y-66402857D01*
X169164001Y-66257714D01*
X169079334Y-66112571D01*
X168994667Y-66040000D01*
X168825334Y-65967428D01*
X168402001Y-65967428D01*
X168148001Y-66040000D01*
X167555334Y-65967428D02*
X167132001Y-67491428D01*
X166793334Y-66402857D01*
X166454667Y-67491428D01*
X166031334Y-65967428D01*
X73914001Y-86468857D02*
X73660001Y-86541428D01*
X73236667Y-86541428D01*
X73067334Y-86468857D01*
X72982667Y-86396285D01*
X72898001Y-86251142D01*
X72898001Y-86106000D01*
X72982667Y-85960857D01*
X73067334Y-85888285D01*
X73236667Y-85815714D01*
X73575334Y-85743142D01*
X73744667Y-85670571D01*
X73829334Y-85598000D01*
X73914001Y-85452857D01*
X73914001Y-85307714D01*
X73829334Y-85162571D01*
X73744667Y-85090000D01*
X73575334Y-85017428D01*
X73152001Y-85017428D01*
X72898001Y-85090000D01*
X72305334Y-85017428D02*
X71882001Y-86541428D01*
X71543334Y-85452857D01*
X71204667Y-86541428D01*
X70781334Y-85017428D01*
X73914001Y-86468857D02*
X73660001Y-86541428D01*
X73236667Y-86541428D01*
X73067334Y-86468857D01*
X72982667Y-86396285D01*
X72898001Y-86251142D01*
X72898001Y-86106000D01*
X72982667Y-85960857D01*
X73067334Y-85888285D01*
X73236667Y-85815714D01*
X73575334Y-85743142D01*
X73744667Y-85670571D01*
X73829334Y-85598000D01*
X73914001Y-85452857D01*
X73914001Y-85307714D01*
X73829334Y-85162571D01*
X73744667Y-85090000D01*
X73575334Y-85017428D01*
X73152001Y-85017428D01*
X72898001Y-85090000D01*
X72305334Y-85017428D02*
X71882001Y-86541428D01*
X71543334Y-85452857D01*
X71204667Y-86541428D01*
X70781334Y-85017428D01*
D17*
X71500952Y-89169866D02*
X70739047Y-89169866D01*
X71120000Y-89550818D02*
X71120000Y-88788914D01*
X74040952Y-89169866D02*
X73279047Y-89169866D01*
D19*
X92964001Y-86468857D02*
X92710001Y-86541428D01*
X92286667Y-86541428D01*
X92117334Y-86468857D01*
X92032667Y-86396285D01*
X91948001Y-86251142D01*
X91948001Y-86106000D01*
X92032667Y-85960857D01*
X92117334Y-85888285D01*
X92286667Y-85815714D01*
X92625334Y-85743142D01*
X92794667Y-85670571D01*
X92879334Y-85598000D01*
X92964001Y-85452857D01*
X92964001Y-85307714D01*
X92879334Y-85162571D01*
X92794667Y-85090000D01*
X92625334Y-85017428D01*
X92202001Y-85017428D01*
X91948001Y-85090000D01*
X91355334Y-85017428D02*
X90932001Y-86541428D01*
X90593334Y-85452857D01*
X90254667Y-86541428D01*
X89831334Y-85017428D01*
X92964001Y-86468857D02*
X92710001Y-86541428D01*
X92286667Y-86541428D01*
X92117334Y-86468857D01*
X92032667Y-86396285D01*
X91948001Y-86251142D01*
X91948001Y-86106000D01*
X92032667Y-85960857D01*
X92117334Y-85888285D01*
X92286667Y-85815714D01*
X92625334Y-85743142D01*
X92794667Y-85670571D01*
X92879334Y-85598000D01*
X92964001Y-85452857D01*
X92964001Y-85307714D01*
X92879334Y-85162571D01*
X92794667Y-85090000D01*
X92625334Y-85017428D01*
X92202001Y-85017428D01*
X91948001Y-85090000D01*
X91355334Y-85017428D02*
X90932001Y-86541428D01*
X90593334Y-85452857D01*
X90254667Y-86541428D01*
X89831334Y-85017428D01*
D17*
X90550952Y-89169866D02*
X89789047Y-89169866D01*
X90170000Y-89550818D02*
X90170000Y-88788914D01*
X93090952Y-89169866D02*
X92329047Y-89169866D01*
X112140952Y-89169866D02*
X111379047Y-89169866D01*
X109600952Y-89169866D02*
X108839047Y-89169866D01*
X109220000Y-89550818D02*
X109220000Y-88788914D01*
D19*
X112014001Y-86468857D02*
X111760001Y-86541428D01*
X111336667Y-86541428D01*
X111167334Y-86468857D01*
X111082667Y-86396285D01*
X110998001Y-86251142D01*
X110998001Y-86106000D01*
X111082667Y-85960857D01*
X111167334Y-85888285D01*
X111336667Y-85815714D01*
X111675334Y-85743142D01*
X111844667Y-85670571D01*
X111929334Y-85598000D01*
X112014001Y-85452857D01*
X112014001Y-85307714D01*
X111929334Y-85162571D01*
X111844667Y-85090000D01*
X111675334Y-85017428D01*
X111252001Y-85017428D01*
X110998001Y-85090000D01*
X110405334Y-85017428D02*
X109982001Y-86541428D01*
X109643334Y-85452857D01*
X109304667Y-86541428D01*
X108881334Y-85017428D01*
X112014001Y-86468857D02*
X111760001Y-86541428D01*
X111336667Y-86541428D01*
X111167334Y-86468857D01*
X111082667Y-86396285D01*
X110998001Y-86251142D01*
X110998001Y-86106000D01*
X111082667Y-85960857D01*
X111167334Y-85888285D01*
X111336667Y-85815714D01*
X111675334Y-85743142D01*
X111844667Y-85670571D01*
X111929334Y-85598000D01*
X112014001Y-85452857D01*
X112014001Y-85307714D01*
X111929334Y-85162571D01*
X111844667Y-85090000D01*
X111675334Y-85017428D01*
X111252001Y-85017428D01*
X110998001Y-85090000D01*
X110405334Y-85017428D02*
X109982001Y-86541428D01*
X109643334Y-85452857D01*
X109304667Y-86541428D01*
X108881334Y-85017428D01*
X131064001Y-86468857D02*
X130810001Y-86541428D01*
X130386667Y-86541428D01*
X130217334Y-86468857D01*
X130132667Y-86396285D01*
X130048001Y-86251142D01*
X130048001Y-86106000D01*
X130132667Y-85960857D01*
X130217334Y-85888285D01*
X130386667Y-85815714D01*
X130725334Y-85743142D01*
X130894667Y-85670571D01*
X130979334Y-85598000D01*
X131064001Y-85452857D01*
X131064001Y-85307714D01*
X130979334Y-85162571D01*
X130894667Y-85090000D01*
X130725334Y-85017428D01*
X130302001Y-85017428D01*
X130048001Y-85090000D01*
X129455334Y-85017428D02*
X129032001Y-86541428D01*
X128693334Y-85452857D01*
X128354667Y-86541428D01*
X127931334Y-85017428D01*
X131064001Y-86468857D02*
X130810001Y-86541428D01*
X130386667Y-86541428D01*
X130217334Y-86468857D01*
X130132667Y-86396285D01*
X130048001Y-86251142D01*
X130048001Y-86106000D01*
X130132667Y-85960857D01*
X130217334Y-85888285D01*
X130386667Y-85815714D01*
X130725334Y-85743142D01*
X130894667Y-85670571D01*
X130979334Y-85598000D01*
X131064001Y-85452857D01*
X131064001Y-85307714D01*
X130979334Y-85162571D01*
X130894667Y-85090000D01*
X130725334Y-85017428D01*
X130302001Y-85017428D01*
X130048001Y-85090000D01*
X129455334Y-85017428D02*
X129032001Y-86541428D01*
X128693334Y-85452857D01*
X128354667Y-86541428D01*
X127931334Y-85017428D01*
D17*
X128650952Y-89169866D02*
X127889047Y-89169866D01*
X128270000Y-89550818D02*
X128270000Y-88788914D01*
X131190952Y-89169866D02*
X130429047Y-89169866D01*
X150240952Y-89169866D02*
X149479047Y-89169866D01*
X147700952Y-89169866D02*
X146939047Y-89169866D01*
X147320000Y-89550818D02*
X147320000Y-88788914D01*
D19*
X150114001Y-86468857D02*
X149860001Y-86541428D01*
X149436667Y-86541428D01*
X149267334Y-86468857D01*
X149182667Y-86396285D01*
X149098001Y-86251142D01*
X149098001Y-86106000D01*
X149182667Y-85960857D01*
X149267334Y-85888285D01*
X149436667Y-85815714D01*
X149775334Y-85743142D01*
X149944667Y-85670571D01*
X150029334Y-85598000D01*
X150114001Y-85452857D01*
X150114001Y-85307714D01*
X150029334Y-85162571D01*
X149944667Y-85090000D01*
X149775334Y-85017428D01*
X149352001Y-85017428D01*
X149098001Y-85090000D01*
X148505334Y-85017428D02*
X148082001Y-86541428D01*
X147743334Y-85452857D01*
X147404667Y-86541428D01*
X146981334Y-85017428D01*
X150114001Y-86468857D02*
X149860001Y-86541428D01*
X149436667Y-86541428D01*
X149267334Y-86468857D01*
X149182667Y-86396285D01*
X149098001Y-86251142D01*
X149098001Y-86106000D01*
X149182667Y-85960857D01*
X149267334Y-85888285D01*
X149436667Y-85815714D01*
X149775334Y-85743142D01*
X149944667Y-85670571D01*
X150029334Y-85598000D01*
X150114001Y-85452857D01*
X150114001Y-85307714D01*
X150029334Y-85162571D01*
X149944667Y-85090000D01*
X149775334Y-85017428D01*
X149352001Y-85017428D01*
X149098001Y-85090000D01*
X148505334Y-85017428D02*
X148082001Y-86541428D01*
X147743334Y-85452857D01*
X147404667Y-86541428D01*
X146981334Y-85017428D01*
X169164001Y-86468857D02*
X168910001Y-86541428D01*
X168486667Y-86541428D01*
X168317334Y-86468857D01*
X168232667Y-86396285D01*
X168148001Y-86251142D01*
X168148001Y-86106000D01*
X168232667Y-85960857D01*
X168317334Y-85888285D01*
X168486667Y-85815714D01*
X168825334Y-85743142D01*
X168994667Y-85670571D01*
X169079334Y-85598000D01*
X169164001Y-85452857D01*
X169164001Y-85307714D01*
X169079334Y-85162571D01*
X168994667Y-85090000D01*
X168825334Y-85017428D01*
X168402001Y-85017428D01*
X168148001Y-85090000D01*
X167555334Y-85017428D02*
X167132001Y-86541428D01*
X166793334Y-85452857D01*
X166454667Y-86541428D01*
X166031334Y-85017428D01*
X169164001Y-86468857D02*
X168910001Y-86541428D01*
X168486667Y-86541428D01*
X168317334Y-86468857D01*
X168232667Y-86396285D01*
X168148001Y-86251142D01*
X168148001Y-86106000D01*
X168232667Y-85960857D01*
X168317334Y-85888285D01*
X168486667Y-85815714D01*
X168825334Y-85743142D01*
X168994667Y-85670571D01*
X169079334Y-85598000D01*
X169164001Y-85452857D01*
X169164001Y-85307714D01*
X169079334Y-85162571D01*
X168994667Y-85090000D01*
X168825334Y-85017428D01*
X168402001Y-85017428D01*
X168148001Y-85090000D01*
X167555334Y-85017428D02*
X167132001Y-86541428D01*
X166793334Y-85452857D01*
X166454667Y-86541428D01*
X166031334Y-85017428D01*
D17*
X166750952Y-89169866D02*
X165989047Y-89169866D01*
X166370000Y-89550818D02*
X166370000Y-88788914D01*
X169290952Y-89169866D02*
X168529047Y-89169866D01*
X74040952Y-108219866D02*
X73279047Y-108219866D01*
X71500952Y-108219866D02*
X70739047Y-108219866D01*
X71120000Y-108600818D02*
X71120000Y-107838914D01*
D19*
X73914001Y-105518857D02*
X73660001Y-105591428D01*
X73236667Y-105591428D01*
X73067334Y-105518857D01*
X72982667Y-105446285D01*
X72898001Y-105301142D01*
X72898001Y-105156000D01*
X72982667Y-105010857D01*
X73067334Y-104938285D01*
X73236667Y-104865714D01*
X73575334Y-104793142D01*
X73744667Y-104720571D01*
X73829334Y-104648000D01*
X73914001Y-104502857D01*
X73914001Y-104357714D01*
X73829334Y-104212571D01*
X73744667Y-104140000D01*
X73575334Y-104067428D01*
X73152001Y-104067428D01*
X72898001Y-104140000D01*
X72305334Y-104067428D02*
X71882001Y-105591428D01*
X71543334Y-104502857D01*
X71204667Y-105591428D01*
X70781334Y-104067428D01*
X73914001Y-105518857D02*
X73660001Y-105591428D01*
X73236667Y-105591428D01*
X73067334Y-105518857D01*
X72982667Y-105446285D01*
X72898001Y-105301142D01*
X72898001Y-105156000D01*
X72982667Y-105010857D01*
X73067334Y-104938285D01*
X73236667Y-104865714D01*
X73575334Y-104793142D01*
X73744667Y-104720571D01*
X73829334Y-104648000D01*
X73914001Y-104502857D01*
X73914001Y-104357714D01*
X73829334Y-104212571D01*
X73744667Y-104140000D01*
X73575334Y-104067428D01*
X73152001Y-104067428D01*
X72898001Y-104140000D01*
X72305334Y-104067428D02*
X71882001Y-105591428D01*
X71543334Y-104502857D01*
X71204667Y-105591428D01*
X70781334Y-104067428D01*
X92964001Y-105518857D02*
X92710001Y-105591428D01*
X92286667Y-105591428D01*
X92117334Y-105518857D01*
X92032667Y-105446285D01*
X91948001Y-105301142D01*
X91948001Y-105156000D01*
X92032667Y-105010857D01*
X92117334Y-104938285D01*
X92286667Y-104865714D01*
X92625334Y-104793142D01*
X92794667Y-104720571D01*
X92879334Y-104648000D01*
X92964001Y-104502857D01*
X92964001Y-104357714D01*
X92879334Y-104212571D01*
X92794667Y-104140000D01*
X92625334Y-104067428D01*
X92202001Y-104067428D01*
X91948001Y-104140000D01*
X91355334Y-104067428D02*
X90932001Y-105591428D01*
X90593334Y-104502857D01*
X90254667Y-105591428D01*
X89831334Y-104067428D01*
X92964001Y-105518857D02*
X92710001Y-105591428D01*
X92286667Y-105591428D01*
X92117334Y-105518857D01*
X92032667Y-105446285D01*
X91948001Y-105301142D01*
X91948001Y-105156000D01*
X92032667Y-105010857D01*
X92117334Y-104938285D01*
X92286667Y-104865714D01*
X92625334Y-104793142D01*
X92794667Y-104720571D01*
X92879334Y-104648000D01*
X92964001Y-104502857D01*
X92964001Y-104357714D01*
X92879334Y-104212571D01*
X92794667Y-104140000D01*
X92625334Y-104067428D01*
X92202001Y-104067428D01*
X91948001Y-104140000D01*
X91355334Y-104067428D02*
X90932001Y-105591428D01*
X90593334Y-104502857D01*
X90254667Y-105591428D01*
X89831334Y-104067428D01*
D17*
X90550952Y-108219866D02*
X89789047Y-108219866D01*
X90170000Y-108600818D02*
X90170000Y-107838914D01*
X93090952Y-108219866D02*
X92329047Y-108219866D01*
X112140952Y-108219866D02*
X111379047Y-108219866D01*
X109600952Y-108219866D02*
X108839047Y-108219866D01*
X109220000Y-108600818D02*
X109220000Y-107838914D01*
D19*
X112014001Y-105518857D02*
X111760001Y-105591428D01*
X111336667Y-105591428D01*
X111167334Y-105518857D01*
X111082667Y-105446285D01*
X110998001Y-105301142D01*
X110998001Y-105156000D01*
X111082667Y-105010857D01*
X111167334Y-104938285D01*
X111336667Y-104865714D01*
X111675334Y-104793142D01*
X111844667Y-104720571D01*
X111929334Y-104648000D01*
X112014001Y-104502857D01*
X112014001Y-104357714D01*
X111929334Y-104212571D01*
X111844667Y-104140000D01*
X111675334Y-104067428D01*
X111252001Y-104067428D01*
X110998001Y-104140000D01*
X110405334Y-104067428D02*
X109982001Y-105591428D01*
X109643334Y-104502857D01*
X109304667Y-105591428D01*
X108881334Y-104067428D01*
X112014001Y-105518857D02*
X111760001Y-105591428D01*
X111336667Y-105591428D01*
X111167334Y-105518857D01*
X111082667Y-105446285D01*
X110998001Y-105301142D01*
X110998001Y-105156000D01*
X111082667Y-105010857D01*
X111167334Y-104938285D01*
X111336667Y-104865714D01*
X111675334Y-104793142D01*
X111844667Y-104720571D01*
X111929334Y-104648000D01*
X112014001Y-104502857D01*
X112014001Y-104357714D01*
X111929334Y-104212571D01*
X111844667Y-104140000D01*
X111675334Y-104067428D01*
X111252001Y-104067428D01*
X110998001Y-104140000D01*
X110405334Y-104067428D02*
X109982001Y-105591428D01*
X109643334Y-104502857D01*
X109304667Y-105591428D01*
X108881334Y-104067428D01*
X131064001Y-105518857D02*
X130810001Y-105591428D01*
X130386667Y-105591428D01*
X130217334Y-105518857D01*
X130132667Y-105446285D01*
X130048001Y-105301142D01*
X130048001Y-105156000D01*
X130132667Y-105010857D01*
X130217334Y-104938285D01*
X130386667Y-104865714D01*
X130725334Y-104793142D01*
X130894667Y-104720571D01*
X130979334Y-104648000D01*
X131064001Y-104502857D01*
X131064001Y-104357714D01*
X130979334Y-104212571D01*
X130894667Y-104140000D01*
X130725334Y-104067428D01*
X130302001Y-104067428D01*
X130048001Y-104140000D01*
X129455334Y-104067428D02*
X129032001Y-105591428D01*
X128693334Y-104502857D01*
X128354667Y-105591428D01*
X127931334Y-104067428D01*
X131064001Y-105518857D02*
X130810001Y-105591428D01*
X130386667Y-105591428D01*
X130217334Y-105518857D01*
X130132667Y-105446285D01*
X130048001Y-105301142D01*
X130048001Y-105156000D01*
X130132667Y-105010857D01*
X130217334Y-104938285D01*
X130386667Y-104865714D01*
X130725334Y-104793142D01*
X130894667Y-104720571D01*
X130979334Y-104648000D01*
X131064001Y-104502857D01*
X131064001Y-104357714D01*
X130979334Y-104212571D01*
X130894667Y-104140000D01*
X130725334Y-104067428D01*
X130302001Y-104067428D01*
X130048001Y-104140000D01*
X129455334Y-104067428D02*
X129032001Y-105591428D01*
X128693334Y-104502857D01*
X128354667Y-105591428D01*
X127931334Y-104067428D01*
D17*
X128650952Y-108219866D02*
X127889047Y-108219866D01*
X128270000Y-108600818D02*
X128270000Y-107838914D01*
X131190952Y-108219866D02*
X130429047Y-108219866D01*
X150240952Y-108219866D02*
X149479047Y-108219866D01*
X147700952Y-108219866D02*
X146939047Y-108219866D01*
X147320000Y-108600818D02*
X147320000Y-107838914D01*
D19*
X150114001Y-105518857D02*
X149860001Y-105591428D01*
X149436667Y-105591428D01*
X149267334Y-105518857D01*
X149182667Y-105446285D01*
X149098001Y-105301142D01*
X149098001Y-105156000D01*
X149182667Y-105010857D01*
X149267334Y-104938285D01*
X149436667Y-104865714D01*
X149775334Y-104793142D01*
X149944667Y-104720571D01*
X150029334Y-104648000D01*
X150114001Y-104502857D01*
X150114001Y-104357714D01*
X150029334Y-104212571D01*
X149944667Y-104140000D01*
X149775334Y-104067428D01*
X149352001Y-104067428D01*
X149098001Y-104140000D01*
X148505334Y-104067428D02*
X148082001Y-105591428D01*
X147743334Y-104502857D01*
X147404667Y-105591428D01*
X146981334Y-104067428D01*
X150114001Y-105518857D02*
X149860001Y-105591428D01*
X149436667Y-105591428D01*
X149267334Y-105518857D01*
X149182667Y-105446285D01*
X149098001Y-105301142D01*
X149098001Y-105156000D01*
X149182667Y-105010857D01*
X149267334Y-104938285D01*
X149436667Y-104865714D01*
X149775334Y-104793142D01*
X149944667Y-104720571D01*
X150029334Y-104648000D01*
X150114001Y-104502857D01*
X150114001Y-104357714D01*
X150029334Y-104212571D01*
X149944667Y-104140000D01*
X149775334Y-104067428D01*
X149352001Y-104067428D01*
X149098001Y-104140000D01*
X148505334Y-104067428D02*
X148082001Y-105591428D01*
X147743334Y-104502857D01*
X147404667Y-105591428D01*
X146981334Y-104067428D01*
X169164001Y-105518857D02*
X168910001Y-105591428D01*
X168486667Y-105591428D01*
X168317334Y-105518857D01*
X168232667Y-105446285D01*
X168148001Y-105301142D01*
X168148001Y-105156000D01*
X168232667Y-105010857D01*
X168317334Y-104938285D01*
X168486667Y-104865714D01*
X168825334Y-104793142D01*
X168994667Y-104720571D01*
X169079334Y-104648000D01*
X169164001Y-104502857D01*
X169164001Y-104357714D01*
X169079334Y-104212571D01*
X168994667Y-104140000D01*
X168825334Y-104067428D01*
X168402001Y-104067428D01*
X168148001Y-104140000D01*
X167555334Y-104067428D02*
X167132001Y-105591428D01*
X166793334Y-104502857D01*
X166454667Y-105591428D01*
X166031334Y-104067428D01*
X169164001Y-105518857D02*
X168910001Y-105591428D01*
X168486667Y-105591428D01*
X168317334Y-105518857D01*
X168232667Y-105446285D01*
X168148001Y-105301142D01*
X168148001Y-105156000D01*
X168232667Y-105010857D01*
X168317334Y-104938285D01*
X168486667Y-104865714D01*
X168825334Y-104793142D01*
X168994667Y-104720571D01*
X169079334Y-104648000D01*
X169164001Y-104502857D01*
X169164001Y-104357714D01*
X169079334Y-104212571D01*
X168994667Y-104140000D01*
X168825334Y-104067428D01*
X168402001Y-104067428D01*
X168148001Y-104140000D01*
X167555334Y-104067428D02*
X167132001Y-105591428D01*
X166793334Y-104502857D01*
X166454667Y-105591428D01*
X166031334Y-104067428D01*
D17*
X166750952Y-108219866D02*
X165989047Y-108219866D01*
X166370000Y-108600818D02*
X166370000Y-107838914D01*
X169290952Y-108219866D02*
X168529047Y-108219866D01*
X74040952Y-127269866D02*
X73279047Y-127269866D01*
X71500952Y-127269866D02*
X70739047Y-127269866D01*
X71120000Y-127650818D02*
X71120000Y-126888914D01*
D19*
X73914001Y-124568857D02*
X73660001Y-124641428D01*
X73236667Y-124641428D01*
X73067334Y-124568857D01*
X72982667Y-124496285D01*
X72898001Y-124351142D01*
X72898001Y-124206000D01*
X72982667Y-124060857D01*
X73067334Y-123988285D01*
X73236667Y-123915714D01*
X73575334Y-123843142D01*
X73744667Y-123770571D01*
X73829334Y-123698000D01*
X73914001Y-123552857D01*
X73914001Y-123407714D01*
X73829334Y-123262571D01*
X73744667Y-123190000D01*
X73575334Y-123117428D01*
X73152001Y-123117428D01*
X72898001Y-123190000D01*
X72305334Y-123117428D02*
X71882001Y-124641428D01*
X71543334Y-123552857D01*
X71204667Y-124641428D01*
X70781334Y-123117428D01*
X73914001Y-124568857D02*
X73660001Y-124641428D01*
X73236667Y-124641428D01*
X73067334Y-124568857D01*
X72982667Y-124496285D01*
X72898001Y-124351142D01*
X72898001Y-124206000D01*
X72982667Y-124060857D01*
X73067334Y-123988285D01*
X73236667Y-123915714D01*
X73575334Y-123843142D01*
X73744667Y-123770571D01*
X73829334Y-123698000D01*
X73914001Y-123552857D01*
X73914001Y-123407714D01*
X73829334Y-123262571D01*
X73744667Y-123190000D01*
X73575334Y-123117428D01*
X73152001Y-123117428D01*
X72898001Y-123190000D01*
X72305334Y-123117428D02*
X71882001Y-124641428D01*
X71543334Y-123552857D01*
X71204667Y-124641428D01*
X70781334Y-123117428D01*
X92964001Y-124568857D02*
X92710001Y-124641428D01*
X92286667Y-124641428D01*
X92117334Y-124568857D01*
X92032667Y-124496285D01*
X91948001Y-124351142D01*
X91948001Y-124206000D01*
X92032667Y-124060857D01*
X92117334Y-123988285D01*
X92286667Y-123915714D01*
X92625334Y-123843142D01*
X92794667Y-123770571D01*
X92879334Y-123698000D01*
X92964001Y-123552857D01*
X92964001Y-123407714D01*
X92879334Y-123262571D01*
X92794667Y-123190000D01*
X92625334Y-123117428D01*
X92202001Y-123117428D01*
X91948001Y-123190000D01*
X91355334Y-123117428D02*
X90932001Y-124641428D01*
X90593334Y-123552857D01*
X90254667Y-124641428D01*
X89831334Y-123117428D01*
X92964001Y-124568857D02*
X92710001Y-124641428D01*
X92286667Y-124641428D01*
X92117334Y-124568857D01*
X92032667Y-124496285D01*
X91948001Y-124351142D01*
X91948001Y-124206000D01*
X92032667Y-124060857D01*
X92117334Y-123988285D01*
X92286667Y-123915714D01*
X92625334Y-123843142D01*
X92794667Y-123770571D01*
X92879334Y-123698000D01*
X92964001Y-123552857D01*
X92964001Y-123407714D01*
X92879334Y-123262571D01*
X92794667Y-123190000D01*
X92625334Y-123117428D01*
X92202001Y-123117428D01*
X91948001Y-123190000D01*
X91355334Y-123117428D02*
X90932001Y-124641428D01*
X90593334Y-123552857D01*
X90254667Y-124641428D01*
X89831334Y-123117428D01*
D17*
X90550952Y-127269866D02*
X89789047Y-127269866D01*
X90170000Y-127650818D02*
X90170000Y-126888914D01*
X93090952Y-127269866D02*
X92329047Y-127269866D01*
X112140952Y-127269866D02*
X111379047Y-127269866D01*
X109600952Y-127269866D02*
X108839047Y-127269866D01*
X109220000Y-127650818D02*
X109220000Y-126888914D01*
D19*
X112014001Y-124568857D02*
X111760001Y-124641428D01*
X111336667Y-124641428D01*
X111167334Y-124568857D01*
X111082667Y-124496285D01*
X110998001Y-124351142D01*
X110998001Y-124206000D01*
X111082667Y-124060857D01*
X111167334Y-123988285D01*
X111336667Y-123915714D01*
X111675334Y-123843142D01*
X111844667Y-123770571D01*
X111929334Y-123698000D01*
X112014001Y-123552857D01*
X112014001Y-123407714D01*
X111929334Y-123262571D01*
X111844667Y-123190000D01*
X111675334Y-123117428D01*
X111252001Y-123117428D01*
X110998001Y-123190000D01*
X110405334Y-123117428D02*
X109982001Y-124641428D01*
X109643334Y-123552857D01*
X109304667Y-124641428D01*
X108881334Y-123117428D01*
X112014001Y-124568857D02*
X111760001Y-124641428D01*
X111336667Y-124641428D01*
X111167334Y-124568857D01*
X111082667Y-124496285D01*
X110998001Y-124351142D01*
X110998001Y-124206000D01*
X111082667Y-124060857D01*
X111167334Y-123988285D01*
X111336667Y-123915714D01*
X111675334Y-123843142D01*
X111844667Y-123770571D01*
X111929334Y-123698000D01*
X112014001Y-123552857D01*
X112014001Y-123407714D01*
X111929334Y-123262571D01*
X111844667Y-123190000D01*
X111675334Y-123117428D01*
X111252001Y-123117428D01*
X110998001Y-123190000D01*
X110405334Y-123117428D02*
X109982001Y-124641428D01*
X109643334Y-123552857D01*
X109304667Y-124641428D01*
X108881334Y-123117428D01*
X131064001Y-124568857D02*
X130810001Y-124641428D01*
X130386667Y-124641428D01*
X130217334Y-124568857D01*
X130132667Y-124496285D01*
X130048001Y-124351142D01*
X130048001Y-124206000D01*
X130132667Y-124060857D01*
X130217334Y-123988285D01*
X130386667Y-123915714D01*
X130725334Y-123843142D01*
X130894667Y-123770571D01*
X130979334Y-123698000D01*
X131064001Y-123552857D01*
X131064001Y-123407714D01*
X130979334Y-123262571D01*
X130894667Y-123190000D01*
X130725334Y-123117428D01*
X130302001Y-123117428D01*
X130048001Y-123190000D01*
X129455334Y-123117428D02*
X129032001Y-124641428D01*
X128693334Y-123552857D01*
X128354667Y-124641428D01*
X127931334Y-123117428D01*
X131064001Y-124568857D02*
X130810001Y-124641428D01*
X130386667Y-124641428D01*
X130217334Y-124568857D01*
X130132667Y-124496285D01*
X130048001Y-124351142D01*
X130048001Y-124206000D01*
X130132667Y-124060857D01*
X130217334Y-123988285D01*
X130386667Y-123915714D01*
X130725334Y-123843142D01*
X130894667Y-123770571D01*
X130979334Y-123698000D01*
X131064001Y-123552857D01*
X131064001Y-123407714D01*
X130979334Y-123262571D01*
X130894667Y-123190000D01*
X130725334Y-123117428D01*
X130302001Y-123117428D01*
X130048001Y-123190000D01*
X129455334Y-123117428D02*
X129032001Y-124641428D01*
X128693334Y-123552857D01*
X128354667Y-124641428D01*
X127931334Y-123117428D01*
D17*
X128650952Y-127269866D02*
X127889047Y-127269866D01*
X128270000Y-127650818D02*
X128270000Y-126888914D01*
X131190952Y-127269866D02*
X130429047Y-127269866D01*
D19*
X171558857Y-119125999D02*
X171631428Y-119379999D01*
X171631428Y-119803332D01*
X171558857Y-119972665D01*
X171486285Y-120057332D01*
X171341142Y-120141999D01*
X171196000Y-120141999D01*
X171050857Y-120057332D01*
X170978285Y-119972665D01*
X170905714Y-119803332D01*
X170833142Y-119464665D01*
X170760571Y-119295332D01*
X170688000Y-119210665D01*
X170542857Y-119125999D01*
X170397714Y-119125999D01*
X170252571Y-119210665D01*
X170180000Y-119295332D01*
X170107428Y-119464665D01*
X170107428Y-119887999D01*
X170180000Y-120141999D01*
X170107428Y-120734665D02*
X171631428Y-121157999D01*
X170542857Y-121496665D01*
X171631428Y-121835332D01*
X170107428Y-122258665D01*
X171558857Y-119125999D02*
X171631428Y-119379999D01*
X171631428Y-119803332D01*
X171558857Y-119972665D01*
X171486285Y-120057332D01*
X171341142Y-120141999D01*
X171196000Y-120141999D01*
X171050857Y-120057332D01*
X170978285Y-119972665D01*
X170905714Y-119803332D01*
X170833142Y-119464665D01*
X170760571Y-119295332D01*
X170688000Y-119210665D01*
X170542857Y-119125999D01*
X170397714Y-119125999D01*
X170252571Y-119210665D01*
X170180000Y-119295332D01*
X170107428Y-119464665D01*
X170107428Y-119887999D01*
X170180000Y-120141999D01*
X170107428Y-120734665D02*
X171631428Y-121157999D01*
X170542857Y-121496665D01*
X171631428Y-121835332D01*
X170107428Y-122258665D01*
D17*
X174259866Y-121539047D02*
X174259866Y-122300952D01*
X174640818Y-121920000D02*
X173878914Y-121920000D01*
X174259866Y-118999047D02*
X174259866Y-119760952D01*
M02*
