  0
SECTION
  2
HEADER
  9
$ACADVER
  1
AC1009
  9
$INSBASE
 10
0.0
 20
0.0
 30
0.0
  9
$EXTMIN
 10
0.0
 20
0.0
 30
0.0
  9
$EXTMAX
 10
0.0
 20
0.0
 30
0.0
  0
ENDSEC
  0
SECTION
  2
TABLES
  0
TABLE
  2
VPORT
 70
0
  0
ENDTAB
  0
TABLE
  2
LTYPE
 70
1
  0
LTYPE
  2
CONTINUOUS
 70
0
  3
Solid line
 72
65
 73
0
 40
0.0
  0
ENDTAB
  0
TABLE
  2
LAYER
 70
1
  0
LAYER
  2
0
 70
64
 62
7
  6
continuous
  0
ENDTAB
  0
TABLE
  2
STYLE
 70
1
  0
STYLE
  2
STANDARD
 70
0
 40
0
 41
1.0
 50
0.0
 71
0
 42
1
 3
ARIAL.TTF
 4

  0
ENDTAB
  0
TABLE
  2
VIEW
 70
0
  0
ENDTAB
  0
ENDSEC
  0
SECTION
  2
BLOCKS
  0
BLOCK
  8
0
  2
SHAPE2DVIEW
 70
0
 10
0.0
 20
0.0
 30
0.0
  3
SHAPE2DVIEW
  0
ARC
  8
0
 62
0
 10
-72.9356365868
 20
-51.8422056063
 30
0.0
 40
2.0
 50
-30.0
 51
-0.0
  0
ARC
  8
0
 62
0
 10
-93.4983788061
 20
-55.76225
 30
0.0
 40
0.4
 50
-0.0
 51
30.0
  0
ARC
  8
0
 62
0
 10
-93.4983788061
 20
32.175
 30
0.0
 40
0.4
 50
-0.0
 51
30.0
  0
ARC
  8
0
 62
0
 10
-204.168375
 20
52.697
 30
0.0
 40
0.4
 50
90.0
 51
-180.0
  0
ARC
  8
0
 62
0
 10
-106.538375
 20
52.697
 30
0.0
 40
0.4
 50
90.0
 51
-180.0
  0
ARC
  8
0
 62
0
 10
-89.0511597273
 20
-38.4964520987
 30
0.0
 40
2.0
 50
150.0
 51
-180.0
  0
LINE
  8
0
 62
0
 10
-104.118420529
 20
-71.4243194273
 30
0.0
 11
-89.2106365867
 21
-80.0313324994
 31
0.0
  0
LINE
  8
0
 62
0
 10
-82.3848125
 20
-22.4141016152
 30
0.0
 11
-82.3848125
 21
49.2000000004
 31
0.0
  0
LINE
  8
0
 62
0
 10
-191.668375
 20
56.963
 30
0.0
 11
-194.668375
 21
56.963
 31
0.0
  0
LINE
  8
0
 62
0
 10
-204.168375
 20
56.963
 30
0.0
 11
-207.368375003
 21
56.963
 31
0.0
  0
LINE
  8
0
 62
0
 10
-222.112031487
 20
49.2000000004
 30
0.0
 11
-222.112031487
 21
17.8875314873
 31
0.0
  0
ARC
  8
0
 62
0
 10
-222.637
 20
17.8875314873
 30
0.0
 40
0.524968512671
 50
-90.0
 51
-0.0
  0
LINE
  8
0
 62
0
 10
-222.637
 20
17.3625629747
 30
0.0
 11
-222.637
 21
16.8249965014
 31
0.0
  0
ARC
  8
0
 62
0
 10
-222.637
 20
16.3000279887
 30
0.0
 40
0.524968512671
 50
90.0
 51
-90.0
  0
LINE
  8
0
 62
0
 10
-222.637
 20
15.7750594761
 30
0.0
 11
-222.637
 21
15.2374930028
 31
0.0
  0
ARC
  8
0
 62
0
 10
-222.637
 20
14.7125244902
 30
0.0
 40
0.524968512671
 50
90.0
 51
-90.0
  0
LINE
  8
0
 62
0
 10
-222.637
 20
14.1875559775
 30
0.0
 11
-222.637
 21
13.6499895042
 31
0.0
  0
ARC
  8
0
 62
0
 10
-222.637
 20
13.1250209916
 30
0.0
 40
0.524968512671
 50
90.0
 51
-90.0
  0
LINE
  8
0
 62
0
 10
-222.637
 20
12.6000524789
 30
0.0
 11
-222.637
 21
12.0624860056
 31
0.0
  0
ARC
  8
0
 62
0
 10
-222.637
 20
11.537517493
 30
0.0
 40
0.524968512671
 50
90.0
 51
-90.0
  0
LINE
  8
0
 62
0
 10
-222.637
 20
11.0125489803
 30
0.0
 11
-222.637
 21
10.474982507
 31
0.0
  0
ARC
  8
0
 62
0
 10
-222.637
 20
9.95001399437
 30
0.0
 40
0.524968512671
 50
90.0
 51
-90.0
  0
LINE
  8
0
 62
0
 10
-222.637
 20
9.4250454817
 30
0.0
 11
-222.637
 21
8.88747900845
 31
0.0
  0
ARC
  8
0
 62
0
 10
-222.637
 20
8.36251049578
 30
0.0
 40
0.524968512671
 50
90.0
 51
-90.0
  0
LINE
  8
0
 62
0
 10
-222.637
 20
7.83754198311
 30
0.0
 11
-222.637
 21
7.29997550986
 31
0.0
  0
ARC
  8
0
 62
0
 10
-222.637
 20
6.77500699719
 30
0.0
 40
0.524968512671
 50
90.0
 51
-90.0
  0
LINE
  8
0
 62
0
 10
-222.637
 20
6.25003848452
 30
0.0
 11
-222.637
 21
5.71247201126
 31
0.0
  0
ARC
  8
0
 62
0
 10
-222.637
 20
5.18750349859
 30
0.0
 40
0.524968512671
 50
90.0
 51
-90.0
  0
LINE
  8
0
 62
0
 10
-222.637
 20
4.66253498592
 30
0.0
 11
-222.637
 21
4.12496851267
 31
0.0
  0
ARC
  8
0
 62
0
 10
-222.637
 20
3.6
 30
0.0
 40
0.524968512671
 50
90.0
 51
-90.0
  0
LINE
  8
0
 62
0
 10
-222.637
 20
3.07503148733
 30
0.0
 11
-222.637
 21
2.53746501408
 31
0.0
  0
ARC
  8
0
 62
0
 10
-222.637
 20
2.01249650141
 30
0.0
 40
0.524968512671
 50
90.0
 51
-90.0
  0
LINE
  8
0
 62
0
 10
-222.637
 20
1.48752798874
 30
0.0
 11
-222.637
 21
0.949961515484
 31
0.0
  0
ARC
  8
0
 62
0
 10
-222.637
 20
0.424993002813
 30
0.0
 40
0.524968512671
 50
90.0
 51
-90.0
  0
LINE
  8
0
 62
0
 10
-222.637
 20
-0.0999755098578
 30
0.0
 11
-222.637
 21
-0.637541983109
 31
0.0
  0
ARC
  8
0
 62
0
 10
-222.637
 20
-1.16251049578
 30
0.0
 40
0.524968512671
 50
90.0
 51
-90.0
  0
LINE
  8
0
 62
0
 10
-222.637
 20
-1.68747900845
 30
0.0
 11
-222.637
 21
-2.2250454817
 31
0.0
  0
ARC
  8
0
 62
0
 10
-222.637
 20
-2.75001399437
 30
0.0
 40
0.524968512671
 50
90.0
 51
-90.0
  0
LINE
  8
0
 62
0
 10
-222.637
 20
-3.27498250704
 30
0.0
 11
-222.637
 21
-3.8125489803
 31
0.0
  0
ARC
  8
0
 62
0
 10
-222.637
 20
-4.33751749297
 30
0.0
 40
0.524968512671
 50
90.0
 51
-90.0
  0
LINE
  8
0
 62
0
 10
-222.637
 20
-4.86248600564
 30
0.0
 11
-222.637
 21
-5.40005247889
 31
0.0
  0
ARC
  8
0
 62
0
 10
-222.637
 20
-5.92502099156
 30
0.0
 40
0.524968512671
 50
90.0
 51
-90.0
  0
LINE
  8
0
 62
0
 10
-222.637
 20
-6.44998950423
 30
0.0
 11
-222.637
 21
-6.98755597748
 31
0.0
  0
ARC
  8
0
 62
0
 10
-222.637
 20
-7.51252449015
 30
0.0
 40
0.524968512671
 50
90.0
 51
-90.0
  0
LINE
  8
0
 62
0
 10
-222.637
 20
-8.03749300282
 30
0.0
 11
-222.637
 21
-8.57505947608
 31
0.0
  0
ARC
  8
0
 62
0
 10
-222.637
 20
-9.10002798875
 30
0.0
 40
0.524968512671
 50
90.0
 51
-90.0
  0
LINE
  8
0
 62
0
 10
-222.637
 20
-9.62499650142
 30
0.0
 11
-222.637
 21
-10.1625629747
 31
0.0
  0
ARC
  8
0
 62
0
 10
-222.637
 20
-10.6875314873
 30
0.0
 40
0.524968512671
 50
-0.0
 51
90.0
  0
LINE
  8
0
 62
0
 10
-222.112031487
 20
-10.6875314873
 30
0.0
 11
-222.112031487
 21
-40.0
 31
0.0
  0
ARC
  8
0
 62
0
 10
-220.112031487
 20
-40.0
 30
0.0
 40
2.0
 50
180.0
 51
-90.0
  0
LINE
  8
0
 62
0
 10
-220.112031487
 20
-42.0
 30
0.0
 11
-155.61873514
 21
-42.0
 31
0.0
  0
ARC
  8
0
 62
0
 10
-155.61873514
 20
-44.0
 30
0.0
 40
2.0
 50
60.0
 51
90.0
  0
LINE
  8
0
 62
0
 10
-154.61873514
 20
-42.2679491924
 30
0.0
 11
-107.294670529
 21
-69.5905106349
 31
0.0
  0
LINE
  8
0
 62
0
 10
-106.968420529
 20
-69.4021501096
 30
0.0
 11
-107.294670529
 21
-69.5905106349
 31
0.0
  0
ARC
  8
0
 62
0
 10
-106.718420529
 20
-69.8351628115
 30
0.0
 40
0.5
 50
60.0
 51
120.0
  0
LINE
  8
0
 62
0
 10
-104.368420529
 20
-70.6145856749
 30
0.0
 11
-106.468420529
 21
-69.4021501096
 31
0.0
  0
ARC
  8
0
 62
0
 10
-104.618420529
 20
-71.0475983768
 30
0.0
 40
0.5
 50
-0.0
 51
60.0
  0
LINE
  8
0
 62
0
 10
-104.118420529
 20
-71.4243194273
 30
0.0
 11
-104.118420529
 21
-71.0475983768
 31
0.0
  0
ARC
  8
0
 62
0
 10
-88.2106365867
 20
-78.2992816918
 30
0.0
 40
2.0
 50
-120.0
 51
-30.0
  0
LINE
  8
0
 62
0
 10
-86.4785857792
 20
-79.2992816918
 30
0.0
 11
-71.2035857792
 21
-52.8422056063
 31
0.0
  0
ARC
  8
0
 62
0
 10
-72.9356365868
 20
-51.8422056063
 30
0.0
 40
2.0
 50
-0.0
 51
60.0
  0
LINE
  8
0
 62
0
 10
-71.9356365868
 20
-50.1101547987
 30
0.0
 11
-86.594670529
 21
-41.6467576062
 31
0.0
  0
LINE
  8
0
 62
0
 10
-87.418420529
 20
-42.1223498904
 30
0.0
 11
-86.594670529
 21
-41.6467576062
 31
0.0
  0
ARC
  8
0
 62
0
 10
-87.668420529
 20
-41.6893371885
 30
0.0
 40
0.5
 50
-120.0
 51
-60.0
  0
LINE
  8
0
 62
0
 10
-90.018420529
 20
-40.9099143251
 30
0.0
 11
-87.918420529
 21
-42.1223498904
 31
0.0
  0
ARC
  8
0
 62
0
 10
-89.768420529
 20
-40.4769016232
 30
0.0
 40
0.5
 50
-180.0
 51
-120.0
  0
LINE
  8
0
 62
0
 10
-90.268420529
 20
-40.0833598278
 30
0.0
 11
-90.268420529
 21
-40.4769016232
 31
0.0
  0
ARC
  8
0
 62
0
 10
-89.0511597273
 20
-38.4964520987
 30
0.0
 40
2.0
 50
-180.0
 51
-127.490537778
  0
LINE
  8
0
 62
0
 10
-90.7832105348
 20
-37.4964520987
 30
0.0
 11
-82.6527616924
 21
-23.4141016152
 31
0.0
  0
ARC
  8
0
 62
0
 10
-84.3848125
 20
-22.4141016152
 30
0.0
 40
2.0
 50
-30.0
 51
0.0
  0
ARC
  8
0
 62
0
 10
-84.3848125
 20
49.2000000004
 30
0.0
 40
2.0
 50
-0.0
 51
90.0
  0
LINE
  8
0
 62
0
 10
-91.0370130384
 20
51.2000000004
 30
0.0
 11
-84.3848125
 21
51.2000000004
 31
0.0
  0
ARC
  8
0
 62
0
 10
-91.0370130384
 20
52.1000000004
 30
0.0
 40
0.9
 50
-150.0
 51
-90.0
  0
LINE
  8
0
 62
0
 10
-92.0185084958
 20
52.0
 30
0.0
 11
-91.8164359018
 21
51.6500000004
 31
0.0
  0
ARC
  8
0
 62
0
 10
-93.4041491418
 20
51.2
 30
0.0
 40
1.6
 50
30.0
 51
40.0709606583
  0
LINE
  8
0
 62
0
 10
-92.869048433
 20
53.0493848981
 30
0.0
 11
-92.1797527175
 21
52.2299773765
 31
0.0
  0
ARC
  8
0
 62
0
 10
-92.3333749967
 20
53.5000000008
 30
0.0
 40
0.700000000819
 50
-180.0
 51
-139.929039342
  0
LINE
  8
0
 62
0
 10
-93.0333749975
 20
56.1630000008
 30
0.0
 11
-93.0333749975
 21
53.5000000008
 31
0.0
  0
ARC
  8
0
 62
0
 10
-93.8333749967
 20
56.1630000008
 30
0.0
 40
0.799999999181
 50
-0.0
 51
90.0
  0
LINE
  8
0
 62
0
 10
-93.8333749967
 20
56.963
 30
0.0
 11
-97.0383749999
 21
56.963
 31
0.0
  0
LINE
  8
0
 62
0
 10
-97.0383749999
 20
56.963
 30
0.0
 11
-97.0383749999
 21
53.097
 31
0.0
  0
ARC
  8
0
 62
0
 10
-97.0383749999
 20
52.697
 30
0.0
 40
0.4
 50
90.0
 51
-90.0
  0
LINE
  8
0
 62
0
 10
-97.0383749999
 20
52.297
 30
0.0
 11
-106.538375
 21
52.297
 31
0.0
  0
ARC
  8
0
 62
0
 10
-106.538375
 20
52.697
 30
0.0
 40
0.4
 50
-180.0
 51
-90.0
  0
LINE
  8
0
 62
0
 10
-106.538375
 20
53.097
 30
0.0
 11
-106.538375
 21
56.963
 31
0.0
  0
LINE
  8
0
 62
0
 10
-106.538375
 20
56.963
 30
0.0
 11
-109.533375
 21
56.963
 31
0.0
  0
LINE
  8
0
 62
0
 10
-109.533375
 20
56.463
 30
0.0
 11
-109.533375
 21
56.963
 31
0.0
  0
LINE
  8
0
 62
0
 10
-191.668375
 20
56.463
 30
0.0
 11
-109.533375
 21
56.463
 31
0.0
  0
LINE
  8
0
 62
0
 10
-191.668375
 20
56.963
 30
0.0
 11
-191.668375
 21
56.463
 31
0.0
  0
LINE
  8
0
 62
0
 10
-194.668375
 20
56.963
 30
0.0
 11
-194.668375
 21
53.097
 31
0.0
  0
ARC
  8
0
 62
0
 10
-194.668375
 20
52.697
 30
0.0
 40
0.4
 50
90.0
 51
-90.0
  0
LINE
  8
0
 62
0
 10
-194.668375
 20
52.297
 30
0.0
 11
-204.168375
 21
52.297
 31
0.0
  0
ARC
  8
0
 62
0
 10
-204.168375
 20
52.697
 30
0.0
 40
0.4
 50
-180.0
 51
-90.0
  0
LINE
  8
0
 62
0
 10
-204.168375
 20
53.097
 30
0.0
 11
-204.168375
 21
56.963
 31
0.0
  0
ARC
  8
0
 62
0
 10
-207.368375003
 20
56.1630000008
 30
0.0
 40
0.799999999181
 50
90.0
 51
-180.0
  0
LINE
  8
0
 62
0
 10
-208.168375002
 20
53.5000000008
 30
0.0
 11
-208.168375002
 21
56.1630000008
 31
0.0
  0
ARC
  8
0
 62
0
 10
-208.868375003
 20
53.5000000008
 30
0.0
 40
0.700000000819
 50
-90.0
 51
-0.0
  0
LINE
  8
0
 62
0
 10
-210.182975858
 20
52.8
 30
0.0
 11
-208.868375003
 21
52.8
 31
0.0
  0
ARC
  8
0
 62
0
 10
-210.182975858
 20
51.2
 30
0.0
 40
1.6
 50
90.0
 51
150.0
  0
LINE
  8
0
 62
0
 10
-211.770689098
 20
51.6500000004
 30
0.0
 11
-211.568616504
 21
52.0
 31
0.0
  0
ARC
  8
0
 62
0
 10
-212.550111962
 20
52.1000000004
 30
0.0
 40
0.9
 50
-90.0
 51
-30.0
  0
LINE
  8
0
 62
0
 10
-220.112031487
 20
51.2000000004
 30
0.0
 11
-212.550111962
 21
51.2000000004
 31
0.0
  0
ARC
  8
0
 62
0
 10
-220.112031487
 20
49.2000000004
 30
0.0
 40
2.0
 50
90.0
 51
180.0
  0
ARC
  8
0
 62
0
 10
-100.888462252
 20
32.175
 30
0.0
 40
0.4
 50
150.0
 51
-150.0
  0
LINE
  8
0
 62
0
 10
-99.3873515519
 20
35.575
 30
0.0
 11
-101.234872413
 21
32.375
 31
0.0
  0
ARC
  8
0
 62
0
 10
-99.0409413904
 20
35.375
 30
0.0
 40
0.4
 50
90.0
 51
150.0
  0
LINE
  8
0
 62
0
 10
-95.3458996675
 20
35.775
 30
0.0
 11
-99.0409413904
 21
35.775
 31
0.0
  0
ARC
  8
0
 62
0
 10
-95.3458996675
 20
35.375
 30
0.0
 40
0.4
 50
30.0
 51
90.0
  0
LINE
  8
0
 62
0
 10
-93.1519686446
 20
32.375
 30
0.0
 11
-94.999489506
 21
35.575
 31
0.0
  0
ARC
  8
0
 62
0
 10
-93.4983788061
 20
32.175
 30
0.0
 40
0.4
 50
-30.0
 51
-0.0
  0
LINE
  8
0
 62
0
 10
-94.999489506
 20
28.775
 30
0.0
 11
-93.1519686446
 21
31.975
 31
0.0
  0
ARC
  8
0
 62
0
 10
-95.3458996675
 20
28.975
 30
0.0
 40
0.4
 50
-90.0
 51
-30.0
  0
LINE
  8
0
 62
0
 10
-99.0409413904
 20
28.575
 30
0.0
 11
-95.3458996675
 21
28.575
 31
0.0
  0
ARC
  8
0
 62
0
 10
-99.0409413904
 20
28.975
 30
0.0
 40
0.4
 50
-150.0
 51
-90.0
  0
LINE
  8
0
 62
0
 10
-101.234872413
 20
31.975
 30
0.0
 11
-99.3873515519
 21
28.775
 31
0.0
  0
ARC
  8
0
 62
0
 10
-121.1173125
 20
33.3874355653
 30
0.0
 40
0.5
 50
-0.0
 51
60.0
  0
LINE
  8
0
 62
0
 10
-120.6173125
 20
30.9625644347
 30
0.0
 11
-120.6173125
 21
33.3874355653
 31
0.0
  0
ARC
  8
0
 62
0
 10
-121.1173125
 20
30.9625644347
 30
0.0
 40
0.5
 50
-60.0
 51
-0.0
  0
LINE
  8
0
 62
0
 10
-122.9673125
 20
29.3171161675
 30
0.0
 11
-120.8673125
 21
30.5295517328
 31
0.0
  0
ARC
  8
0
 62
0
 10
-123.2173125
 20
29.7501288694
 30
0.0
 40
0.5
 50
-120.0
 51
-60.0
  0
LINE
  8
0
 62
0
 10
-125.5673125
 20
30.5295517328
 30
0.0
 11
-123.4673125
 21
29.3171161675
 31
0.0
  0
ARC
  8
0
 62
0
 10
-125.3173125
 20
30.9625644347
 30
0.0
 40
0.5
 50
-180.0
 51
-120.0
  0
LINE
  8
0
 62
0
 10
-125.8173125
 20
33.3874355653
 30
0.0
 11
-125.8173125
 21
30.9625644347
 31
0.0
  0
ARC
  8
0
 62
0
 10
-125.3173125
 20
33.3874355653
 30
0.0
 40
0.5
 50
120.0
 51
-180.0
  0
LINE
  8
0
 62
0
 10
-123.4673125
 20
35.0328838325
 30
0.0
 11
-125.5673125
 21
33.8204482672
 31
0.0
  0
ARC
  8
0
 62
0
 10
-123.2173125
 20
34.5998711306
 30
0.0
 40
0.5
 50
60.0
 51
120.0
  0
LINE
  8
0
 62
0
 10
-120.8673125
 20
33.8204482672
 30
0.0
 11
-122.9673125
 21
35.0328838325
 31
0.0
  0
ARC
  8
0
 62
0
 10
-197.3173125
 20
-23.7625644347
 30
0.0
 40
0.5
 50
-0.0
 51
60.0
  0
LINE
  8
0
 62
0
 10
-196.8173125
 20
-26.1874355653
 30
0.0
 11
-196.8173125
 21
-23.7625644347
 31
0.0
  0
ARC
  8
0
 62
0
 10
-197.3173125
 20
-26.1874355653
 30
0.0
 40
0.5
 50
-60.0
 51
-0.0
  0
LINE
  8
0
 62
0
 10
-199.1673125
 20
-27.8328838325
 30
0.0
 11
-197.0673125
 21
-26.6204482672
 31
0.0
  0
ARC
  8
0
 62
0
 10
-199.4173125
 20
-27.3998711306
 30
0.0
 40
0.5
 50
-120.0
 51
-60.0
  0
LINE
  8
0
 62
0
 10
-201.7673125
 20
-26.6204482672
 30
0.0
 11
-199.6673125
 21
-27.8328838325
 31
0.0
  0
ARC
  8
0
 62
0
 10
-201.5173125
 20
-26.1874355653
 30
0.0
 40
0.5
 50
-180.0
 51
-120.0
  0
LINE
  8
0
 62
0
 10
-202.0173125
 20
-23.7625644347
 30
0.0
 11
-202.0173125
 21
-26.1874355653
 31
0.0
  0
ARC
  8
0
 62
0
 10
-201.5173125
 20
-23.7625644347
 30
0.0
 40
0.5
 50
120.0
 51
-180.0
  0
LINE
  8
0
 62
0
 10
-199.6673125
 20
-22.1171161675
 30
0.0
 11
-201.7673125
 21
-23.3295517328
 31
0.0
  0
ARC
  8
0
 62
0
 10
-199.4173125
 20
-22.5501288694
 30
0.0
 40
0.5
 50
60.0
 51
120.0
  0
LINE
  8
0
 62
0
 10
-197.0673125
 20
-23.3295517328
 30
0.0
 11
-199.1673125
 21
-22.1171161675
 31
0.0
  0
ARC
  8
0
 62
0
 10
-197.3173125
 20
33.3874355653
 30
0.0
 40
0.5
 50
-0.0
 51
60.0
  0
LINE
  8
0
 62
0
 10
-196.8173125
 20
30.9625644347
 30
0.0
 11
-196.8173125
 21
33.3874355653
 31
0.0
  0
ARC
  8
0
 62
0
 10
-197.3173125
 20
30.9625644347
 30
0.0
 40
0.5
 50
-60.0
 51
-0.0
  0
LINE
  8
0
 62
0
 10
-199.1673125
 20
29.3171161675
 30
0.0
 11
-197.0673125
 21
30.5295517328
 31
0.0
  0
ARC
  8
0
 62
0
 10
-199.4173125
 20
29.7501288694
 30
0.0
 40
0.5
 50
-120.0
 51
-60.0
  0
LINE
  8
0
 62
0
 10
-201.7673125
 20
30.5295517328
 30
0.0
 11
-199.6673125
 21
29.3171161675
 31
0.0
  0
ARC
  8
0
 62
0
 10
-201.5173125
 20
30.9625644347
 30
0.0
 40
0.5
 50
-180.0
 51
-120.0
  0
LINE
  8
0
 62
0
 10
-202.0173125
 20
33.3874355653
 30
0.0
 11
-202.0173125
 21
30.9625644347
 31
0.0
  0
ARC
  8
0
 62
0
 10
-201.5173125
 20
33.3874355653
 30
0.0
 40
0.5
 50
120.0
 51
-180.0
  0
LINE
  8
0
 62
0
 10
-199.6673125
 20
35.0328838325
 30
0.0
 11
-201.7673125
 21
33.8204482672
 31
0.0
  0
ARC
  8
0
 62
0
 10
-199.4173125
 20
34.5998711306
 30
0.0
 40
0.5
 50
60.0
 51
120.0
  0
LINE
  8
0
 62
0
 10
-197.0673125
 20
33.8204482672
 30
0.0
 11
-199.1673125
 21
35.0328838325
 31
0.0
  0
ARC
  8
0
 62
0
 10
-100.888462252
 20
-55.76225
 30
0.0
 40
0.4
 50
150.0
 51
-150.0
  0
LINE
  8
0
 62
0
 10
-99.3873515519
 20
-52.36225
 30
0.0
 11
-101.234872413
 21
-55.56225
 31
0.0
  0
ARC
  8
0
 62
0
 10
-99.0409413904
 20
-52.56225
 30
0.0
 40
0.4
 50
90.0
 51
150.0
  0
LINE
  8
0
 62
0
 10
-95.3458996675
 20
-52.16225
 30
0.0
 11
-99.0409413904
 21
-52.16225
 31
0.0
  0
ARC
  8
0
 62
0
 10
-95.3458996675
 20
-52.56225
 30
0.0
 40
0.4
 50
30.0
 51
90.0
  0
LINE
  8
0
 62
0
 10
-93.1519686446
 20
-55.56225
 30
0.0
 11
-94.999489506
 21
-52.36225
 31
0.0
  0
ARC
  8
0
 62
0
 10
-93.4983788061
 20
-55.76225
 30
0.0
 40
0.4
 50
-30.0
 51
-0.0
  0
LINE
  8
0
 62
0
 10
-94.999489506
 20
-59.16225
 30
0.0
 11
-93.1519686446
 21
-55.96225
 31
0.0
  0
ARC
  8
0
 62
0
 10
-95.3458996675
 20
-58.96225
 30
0.0
 40
0.4
 50
-90.0
 51
-30.0
  0
LINE
  8
0
 62
0
 10
-99.0409413904
 20
-59.36225
 30
0.0
 11
-95.3458996675
 21
-59.36225
 31
0.0
  0
ARC
  8
0
 62
0
 10
-99.0409413904
 20
-58.96225
 30
0.0
 40
0.4
 50
-150.0
 51
-90.0
  0
LINE
  8
0
 62
0
 10
-101.234872413
 20
-55.96225
 30
0.0
 11
-99.3873515519
 21
-59.16225
 31
0.0
  0
ENDBLK
  0
ENDSEC
  0
SECTION
  2
ENTITIES
  0
INSERT
  2
SHAPE2DVIEW
  8
0
 10
0.0
 20
0.0
 30
0.0
  0
ENDSEC
  0
EOF
