  0
SECTION
  2
HEADER
  9
$ACADVER
  1
AC1009
  9
$INSBASE
 10
0.0
 20
0.0
 30
0.0
  9
$EXTMIN
 10
0.0
 20
0.0
 30
0.0
  9
$EXTMAX
 10
0.0
 20
0.0
 30
0.0
  0
ENDSEC
  0
SECTION
  2
TABLES
  0
TABLE
  2
VPORT
 70
0
  0
ENDTAB
  0
TABLE
  2
LTYPE
 70
1
  0
LTYPE
  2
CONTINUOUS
 70
0
  3
Solid line
 72
65
 73
0
 40
0.0
  0
ENDTAB
  0
TABLE
  2
LAYER
 70
1
  0
LAYER
  2
0
 70
64
 62
7
  6
continuous
  0
ENDTAB
  0
TABLE
  2
STYLE
 70
1
  0
STYLE
  2
STANDARD
 70
0
 40
0
 41
1.0
 50
0.0
 71
0
 42
1
 3
ARIAL.TTF
 4

  0
ENDTAB
  0
TABLE
  2
VIEW
 70
0
  0
ENDTAB
  0
ENDSEC
  0
SECTION
  2
BLOCKS
  0
BLOCK
  8
0
  2
SHAPE2DVIEW
 70
0
 10
0.0
 20
0.0
 30
0.0
  3
SHAPE2DVIEW
  0
ARC
  8
0
 62
0
 10
-168.63075
 20
-100.624954471
 30
0.0
 40
2.15
 50
-180.0
 51
-0.0
  0
ARC
  8
0
 62
0
 10
-256.568
 20
-100.624954471
 30
0.0
 40
2.15
 50
-180.0
 51
-0.0
  0
ARC
  8
0
 62
0
 10
-199.418
 20
1.6
 30
0.0
 40
1.35
 50
180.0
 51
-0.0
  0
ARC
  8
0
 62
0
 10
-256.568
 20
1.59893750005
 30
0.0
 40
1.35
 50
180.0
 51
-0.0
  0
ARC
  8
0
 62
0
 10
-256.568
 20
-74.6010624999
 30
0.0
 40
1.35
 50
-180.0
 51
-0.0
  0
ARC
  8
0
 62
0
 10
-278.493
 20
-108.897350698
 30
0.0
 40
1.35
 50
-180.0
 51
-0.0
  0
ARC
  8
0
 62
0
 10
-185.128533942
 20
-110.149954471
 30
0.0
 40
1.35
 50
-180.0
 51
-0.0
  0
ARC
  8
0
 62
0
 10
-152.132966058
 20
-91.099954471
 30
0.0
 40
1.35
 50
-180.0
 51
-0.0
  0
ARC
  8
0
 62
0
 10
-193.61722991
 20
-115.541205918
 30
0.0
 40
1.35
 50
-180.0
 51
-0.0
  0
ARC
  8
0
 62
0
 10
-162.232290738
 20
-70.8549110025
 30
0.0
 40
1.35
 50
-180.0
 51
-0.0
  0
ARC
  8
0
 62
0
 10
-178.993
 20
16.8477256983
 30
0.0
 40
1.35
 50
-180.0
 51
-0.0
  0
ARC
  8
0
 62
0
 10
-278.493
 20
16.8477256983
 30
0.0
 40
1.35
 50
-180.0
 51
-0.0
  0
ARC
  8
0
 62
0
 10
-159.317393567
 20
-72.1061610028
 30
0.0
 40
0.7
 50
150.0
 51
-180.0
  0
LINE
  8
0
 62
0
 10
-281.056000001
 20
-75.2602994616
 30
0.0
 11
-281.056000001
 21
-75.6602994616
 31
0.0
  0
ARC
  8
0
 62
0
 10
-281.056000001
 20
-76.0602994616
 30
0.0
 40
0.400000000001
 50
90.0000000002
 51
-90.0000000002
  0
LINE
  8
0
 62
0
 10
-281.056000001
 20
-76.4602994616
 30
0.0
 11
-281.056000001
 21
-90.4799999999
 31
0.0
  0
ARC
  8
0
 62
0
 10
-280.756000001
 20
-90.4799999999
 30
0.0
 40
0.3
 50
-180.0
 51
-90.0
  0
LINE
  8
0
 62
0
 10
-280.756000001
 20
-90.7799999999
 30
0.0
 11
-274.08
 21
-90.7799999999
 31
0.0
  0
ARC
  8
0
 62
0
 10
-274.08
 20
-91.7799999999
 30
0.0
 40
1.0
 50
-0.0
 51
90.0
  0
LINE
  8
0
 62
0
 10
-273.08
 20
-91.7799999999
 30
0.0
 11
-273.08
 21
-100.28
 31
0.0
  0
ARC
  8
0
 62
0
 10
-274.08
 20
-100.28
 30
0.0
 40
1.0
 50
-90.0
 51
-0.0
  0
LINE
  8
0
 62
0
 10
-274.08
 20
-101.28
 30
0.0
 11
-281.056000001
 21
-101.28
 31
0.0
  0
ARC
  8
0
 62
0
 10
-281.056000001
 20
-101.58
 30
0.0
 40
0.3
 50
90.0
 51
-180.0
  0
LINE
  8
0
 62
0
 10
-281.356000001
 20
-101.58
 30
0.0
 11
-281.356000001
 21
-109.957943142
 31
0.0
  0
ARC
  8
0
 62
0
 10
-281.056000001
 20
-109.957943142
 30
0.0
 40
0.3
 50
-180.0
 51
-120.0
  0
LINE
  8
0
 62
0
 10
-281.206000001
 20
-110.217750763
 30
0.0
 11
-278.543
 21
-111.755234531
 31
0.0
  0
ARC
  8
0
 62
0
 10
-278.893
 20
-112.361452313
 30
0.0
 40
0.7
 50
-0.0
 51
60.0
  0
LINE
  8
0
 62
0
 10
-278.193
 20
-112.361452313
 30
0.0
 11
-278.193
 21
-117.0885625
 31
0.0
  0
ARC
  8
0
 62
0
 10
-275.243
 20
-117.0885625
 30
0.0
 40
2.95
 50
-180.0
 51
-90.0
  0
LINE
  8
0
 62
0
 10
-275.243
 20
-120.0385625
 30
0.0
 11
-199.793
 21
-120.0385625
 31
0.0
  0
ARC
  8
0
 62
0
 10
-199.793
 20
-117.0885625
 30
0.0
 40
2.95
 50
-90.0
 51
-60.0
  0
LINE
  8
0
 62
0
 10
-198.318
 20
-119.643337441
 30
0.0
 11
-195.265064846
 21
-117.880724508
 31
0.0
  0
ARC
  8
0
 62
0
 10
-194.915064846
 20
-118.486942291
 30
0.0
 40
0.7
 50
60.0
 51
120.0
  0
LINE
  8
0
 62
0
 10
-194.565064846
 20
-117.880724508
 30
0.0
 11
-193.76722991
 21
-118.341354724
 31
0.0
  0
ARC
  8
0
 62
0
 10
-193.61722991
 20
-118.081547103
 30
0.0
 40
0.3
 50
-120.0
 51
-60.0
  0
LINE
  8
0
 62
0
 10
-193.46722991
 20
-118.341354724
 30
0.0
 11
-191.26722991
 21
-117.071184132
 31
0.0
  0
ARC
  8
0
 62
0
 10
-191.41722991
 20
-116.81137651
 30
0.0
 40
0.3
 50
-60.0
 51
-0.0
  0
LINE
  8
0
 62
0
 10
-191.11722991
 20
-116.81137651
 30
0.0
 11
-191.11722991
 21
-115.89011608
 31
0.0
  0
ARC
  8
0
 62
0
 10
-190.41722991
 20
-115.89011608
 30
0.0
 40
0.7
 50
120.0
 51
-180.0
  0
LINE
  8
0
 62
0
 10
-190.76722991
 20
-115.283898297
 30
0.0
 11
-189.489646835
 21
-114.546285365
 31
0.0
  0
ARC
  8
0
 62
0
 10
-187.789646835
 20
-117.490771737
 30
0.0
 40
3.40000000001
 50
30.0
 51
120.0
  0
LINE
  8
0
 62
0
 10
-184.845160462
 20
-115.790771737
 30
0.0
 11
-178.021049357
 21
-127.610478887
 31
0.0
  0
ARC
  8
0
 62
0
 10
-175.466274416
 20
-126.135478887
 30
0.0
 40
2.95
 50
-150.0
 51
-60.0
  0
LINE
  8
0
 62
0
 10
-173.991274416
 20
-128.690253828
 30
0.0
 11
-141.645225585
 21
-110.015253828
 31
0.0
  0
ARC
  8
0
 62
0
 10
-143.120225585
 20
-107.460478887
 30
0.0
 40
2.95
 50
-60.0
 51
30.0
  0
LINE
  8
0
 62
0
 10
-140.565450644
 20
-105.985478887
 30
0.0
 11
-159.92361135
 21
-72.4561610028
 31
0.0
  0
ARC
  8
0
 62
0
 10
-159.317393567
 20
-72.1061610028
 30
0.0
 40
0.7
 50
-180.0
 51
-150.0
  0
LINE
  8
0
 62
0
 10
-159.92361135
 20
-71.7561610028
 30
0.0
 11
-159.48987696
 21
-71.0049110025
 31
0.0
  0
ARC
  8
0
 62
0
 10
-159.749684581
 20
-70.8549110025
 30
0.0
 40
0.3
 50
-30.0
 51
30.0
  0
LINE
  8
0
 62
0
 10
-159.48987696
 20
-70.7049110025
 30
0.0
 11
-160.731180038
 21
-68.5549110025
 31
0.0
  0
ARC
  8
0
 62
0
 10
-160.99098766
 20
-68.7049110025
 30
0.0
 40
0.3
 50
30.0
 51
90.0
  0
LINE
  8
0
 62
0
 10
-160.99098766
 20
-68.4049110025
 30
0.0
 11
-161.858456439
 21
-68.4049110025
 31
0.0
  0
ARC
  8
0
 62
0
 10
-161.858456439
 20
-67.7049110025
 30
0.0
 40
0.7
 50
-150.0
 51
-90.0
  0
LINE
  8
0
 62
0
 10
-162.464674222
 20
-68.0549110025
 30
0.0
 11
-177.612134296
 21
-41.8187405495
 31
0.0
  0
ARC
  8
0
 62
0
 10
-176.443000001
 20
-41.1437405495
 30
0.0
 40
1.34999999994
 50
-180.0
 51
-150.0
  0
LINE
  8
0
 62
0
 10
-177.793000001
 20
-41.1437405495
 30
0.0
 11
-177.793000001
 21
14.2496494866
 31
0.0
  0
ARC
  8
0
 62
0
 10
-177.093000001
 20
14.2496494866
 30
0.0
 40
0.7
 50
120.0
 51
-180.0
  0
LINE
  8
0
 62
0
 10
-177.443000001
 20
14.8558672692
 30
0.0
 11
-176.643
 21
15.3177474849
 31
0.0
  0
ARC
  8
0
 62
0
 10
-176.793
 20
15.577555106
 30
0.0
 40
0.3
 50
-60.0
 51
-0.0
  0
LINE
  8
0
 62
0
 10
-176.493
 20
15.577555106
 30
0.0
 11
-176.493
 21
18.1178962905
 31
0.0
  0
ARC
  8
0
 62
0
 10
-176.793
 20
18.1178962905
 30
0.0
 40
0.3
 50
-0.0
 51
60.0
  0
LINE
  8
0
 62
0
 10
-176.643
 20
18.3777039116
 30
0.0
 11
-177.443000001
 21
18.8395841273
 31
0.0
  0
ARC
  8
0
 62
0
 10
-177.093000001
 20
19.4458019099
 30
0.0
 40
0.7
 50
-180.0
 51
-120.0
  0
LINE
  8
0
 62
0
 10
-177.793000001
 20
19.4458019099
 30
0.0
 11
-177.793000001
 21
29.7989375001
 31
0.0
  0
ARC
  8
0
 62
0
 10
-180.743000001
 20
29.7989375001
 30
0.0
 40
2.95
 50
-0.0
 51
90.0
  0
LINE
  8
0
 62
0
 10
-180.743000001
 20
32.7489375001
 30
0.0
 11
-275.243
 21
32.7489375001
 31
0.0
  0
ARC
  8
0
 62
0
 10
-275.243
 20
29.7989375001
 30
0.0
 40
2.95
 50
90.0
 51
-180.0
  0
LINE
  8
0
 62
0
 10
-278.193
 20
29.7989375001
 30
0.0
 11
-278.193
 21
20.3118273134
 31
0.0
  0
ARC
  8
0
 62
0
 10
-278.893
 20
20.3118273134
 30
0.0
 40
0.7
 50
-60.0
 51
-0.0
  0
LINE
  8
0
 62
0
 10
-278.543
 20
19.7056095307
 30
0.0
 11
-281.206000001
 21
18.1681257634
 31
0.0
  0
ARC
  8
0
 62
0
 10
-281.056000001
 20
17.9083181423
 30
0.0
 40
0.3
 50
120.0
 51
-180.0
  0
LINE
  8
0
 62
0
 10
-281.356000001
 20
17.9083181423
 30
0.0
 11
-281.356000001
 21
7.15
 31
0.0
  0
ARC
  8
0
 62
0
 10
-281.056000001
 20
7.15
 30
0.0
 40
0.3
 50
-180.0
 51
-90.0
  0
LINE
  8
0
 62
0
 10
-281.056000001
 20
6.85
 30
0.0
 11
-274.08
 21
6.85
 31
0.0
  0
ARC
  8
0
 62
0
 10
-274.08
 20
5.85
 30
0.0
 40
1.0
 50
-0.0
 51
90.0
  0
LINE
  8
0
 62
0
 10
-273.08
 20
5.85
 30
0.0
 11
-273.08
 21
-2.65
 31
0.0
  0
ARC
  8
0
 62
0
 10
-274.08
 20
-2.65
 30
0.0
 40
1.0
 50
-90.0
 51
-0.0
  0
LINE
  8
0
 62
0
 10
-274.08
 20
-3.65
 30
0.0
 11
-280.756000001
 21
-3.65
 31
0.0
  0
ARC
  8
0
 62
0
 10
-280.756000001
 20
-3.95
 30
0.0
 40
0.3
 50
90.0
 51
-180.0
  0
LINE
  8
0
 62
0
 10
-281.056000001
 20
-3.95
 30
0.0
 11
-281.056000001
 21
-17.9697005384
 31
0.0
  0
ARC
  8
0
 62
0
 10
-281.056000001
 20
-18.3697005384
 30
0.0
 40
0.4
 50
-89.9999999976
 51
89.9999999976
  0
LINE
  8
0
 62
0
 10
-281.056000001
 20
-18.7697005384
 30
0.0
 11
-281.056000001
 21
-19.1697005384
 31
0.0
  0
ARC
  8
0
 62
0
 10
-281.056000001
 20
-19.5697005384
 30
0.0
 40
0.4
 50
-90.0
 51
90.0
  0
LINE
  8
0
 62
0
 10
-281.056000001
 20
-19.9697005384
 30
0.0
 11
-281.056000001
 21
-20.3697005384
 31
0.0
  0
ARC
  8
0
 62
0
 10
-281.056000001
 20
-20.7697005384
 30
0.0
 40
0.4
 50
-90.0
 51
90.0
  0
LINE
  8
0
 62
0
 10
-281.056000001
 20
-21.1697005384
 30
0.0
 11
-281.056000001
 21
-21.5697005384
 31
0.0
  0
ARC
  8
0
 62
0
 10
-281.056000001
 20
-21.9697005384
 30
0.0
 40
0.4
 50
-90.0
 51
90.0
  0
LINE
  8
0
 62
0
 10
-281.056000001
 20
-22.3697005384
 30
0.0
 11
-281.056000001
 21
-22.7697005384
 31
0.0
  0
ARC
  8
0
 62
0
 10
-281.056000001
 20
-23.1697005384
 30
0.0
 40
0.4
 50
-90.0
 51
90.0
  0
LINE
  8
0
 62
0
 10
-281.056000001
 20
-23.5697005384
 30
0.0
 11
-281.056000001
 21
-23.9697005384
 31
0.0
  0
ARC
  8
0
 62
0
 10
-281.056000001
 20
-24.3697005384
 30
0.0
 40
0.4
 50
90.0
 51
-90.0
  0
LINE
  8
0
 62
0
 10
-281.056000001
 20
-24.7697005384
 30
0.0
 11
-281.056000001
 21
-35.1999001795
 31
0.0
  0
ARC
  8
0
 62
0
 10
-281.056000001
 20
-35.5999001795
 30
0.0
 40
0.4
 50
-89.9999999977
 51
89.9999999976
  0
LINE
  8
0
 62
0
 10
-281.056000001
 20
-35.9999001795
 30
0.0
 11
-281.056000001
 21
-36.3999001795
 31
0.0
  0
ARC
  8
0
 62
0
 10
-281.056000001
 20
-36.7999001795
 30
0.0
 40
0.4
 50
-90.0000000001
 51
90.0000000001
  0
LINE
  8
0
 62
0
 10
-281.056000001
 20
-37.1999001795
 30
0.0
 11
-281.056000001
 21
-37.5999001795
 31
0.0
  0
ARC
  8
0
 62
0
 10
-281.056000001
 20
-37.9999001795
 30
0.0
 40
0.4
 50
-90.0000000001
 51
90.0000000001
  0
LINE
  8
0
 62
0
 10
-281.056000001
 20
-38.3999001795
 30
0.0
 11
-281.056000001
 21
-38.7999001795
 31
0.0
  0
ARC
  8
0
 62
0
 10
-281.056000001
 20
-39.1999001795
 30
0.0
 40
0.4
 50
-90.0000000001
 51
90.0000000001
  0
LINE
  8
0
 62
0
 10
-281.056000001
 20
-39.5999001795
 30
0.0
 11
-281.056000001
 21
-39.9999001795
 31
0.0
  0
ARC
  8
0
 62
0
 10
-281.056000001
 20
-40.3999001795
 30
0.0
 40
0.4
 50
-90.0000000001
 51
90.0000000001
  0
LINE
  8
0
 62
0
 10
-281.056000001
 20
-40.7999001795
 30
0.0
 11
-281.056000001
 21
-41.1999001795
 31
0.0
  0
ARC
  8
0
 62
0
 10
-281.056000001
 20
-41.5999001795
 30
0.0
 40
0.4
 50
90.0000000001
 51
-90.0
  0
LINE
  8
0
 62
0
 10
-281.056000001
 20
-41.9999001795
 30
0.0
 11
-281.056000001
 21
-52.4300998205
 31
0.0
  0
ARC
  8
0
 62
0
 10
-281.056000001
 20
-52.8300998205
 30
0.0
 40
0.4
 50
-89.9999999977
 51
89.9999999976
  0
LINE
  8
0
 62
0
 10
-281.056000001
 20
-53.2300998205
 30
0.0
 11
-281.056000001
 21
-53.6300998205
 31
0.0
  0
ARC
  8
0
 62
0
 10
-281.056000001
 20
-54.0300998205
 30
0.0
 40
0.4
 50
-90.0000000001
 51
90.0000000001
  0
LINE
  8
0
 62
0
 10
-281.056000001
 20
-54.4300998205
 30
0.0
 11
-281.056000001
 21
-54.8300998205
 31
0.0
  0
ARC
  8
0
 62
0
 10
-281.056000001
 20
-55.2300998205
 30
0.0
 40
0.4
 50
-90.0000000001
 51
90.0000000001
  0
LINE
  8
0
 62
0
 10
-281.056000001
 20
-55.6300998205
 30
0.0
 11
-281.056000001
 21
-56.0300998205
 31
0.0
  0
ARC
  8
0
 62
0
 10
-281.056000001
 20
-56.4300998205
 30
0.0
 40
0.4
 50
-90.0000000001
 51
90.0000000001
  0
LINE
  8
0
 62
0
 10
-281.056000001
 20
-56.8300998205
 30
0.0
 11
-281.056000001
 21
-57.2300998205
 31
0.0
  0
ARC
  8
0
 62
0
 10
-281.056000001
 20
-57.6300998205
 30
0.0
 40
0.4
 50
-90.0000000001
 51
90.0000000001
  0
LINE
  8
0
 62
0
 10
-281.056000001
 20
-58.0300998205
 30
0.0
 11
-281.056000001
 21
-58.4300998205
 31
0.0
  0
ARC
  8
0
 62
0
 10
-281.056000001
 20
-58.8300998205
 30
0.0
 40
0.4
 50
90.0000000001
 51
-90.0
  0
LINE
  8
0
 62
0
 10
-281.056000001
 20
-59.2300998205
 30
0.0
 11
-281.056000001
 21
-69.6602994616
 31
0.0
  0
ARC
  8
0
 62
0
 10
-281.056000001
 20
-70.0602994616
 30
0.0
 40
0.399999999999
 50
-89.9999999978
 51
89.9999999978
  0
LINE
  8
0
 62
0
 10
-281.056000001
 20
-70.4602994616
 30
0.0
 11
-281.056000001
 21
-70.8602994616
 31
0.0
  0
ARC
  8
0
 62
0
 10
-281.056000001
 20
-71.2602994616
 30
0.0
 40
0.4
 50
-90.0000000002
 51
90.0000000002
  0
LINE
  8
0
 62
0
 10
-281.056000001
 20
-71.6602994616
 30
0.0
 11
-281.056000001
 21
-72.0602994616
 31
0.0
  0
ARC
  8
0
 62
0
 10
-281.056000001
 20
-72.4602994616
 30
0.0
 40
0.4
 50
-90.0000000002
 51
90.0000000002
  0
LINE
  8
0
 62
0
 10
-281.056000001
 20
-72.8602994616
 30
0.0
 11
-281.056000001
 21
-73.2602994616
 31
0.0
  0
ARC
  8
0
 62
0
 10
-281.056000001
 20
-73.6602994616
 30
0.0
 40
0.4
 50
-90.0000000002
 51
90.0000000002
  0
LINE
  8
0
 62
0
 10
-281.056000001
 20
-74.0602994616
 30
0.0
 11
-281.056000001
 21
-74.4602994616
 31
0.0
  0
ARC
  8
0
 62
0
 10
-281.056000001
 20
-74.8602994616
 30
0.0
 40
0.4
 50
-90.0000000002
 51
90.0000000002
  0
ARC
  8
0
 62
0
 10
-256.568
 20
-100.624954471
 30
0.0
 40
2.15
 50
-0.0
 51
-180.0
  0
ARC
  8
0
 62
0
 10
-256.568
 20
1.59893750005
 30
0.0
 40
1.35
 50
-0.0
 51
180.0
  0
ARC
  8
0
 62
0
 10
-278.493
 20
-108.897350698
 30
0.0
 40
1.35
 50
-0.0
 51
-180.0
  0
ARC
  8
0
 62
0
 10
-152.132966058
 20
-91.099954471
 30
0.0
 40
1.35
 50
-0.0
 51
-180.0
  0
ARC
  8
0
 62
0
 10
-162.232290738
 20
-70.8549110025
 30
0.0
 40
1.35
 50
-0.0
 51
-180.0
  0
ARC
  8
0
 62
0
 10
-278.493
 20
16.8477256983
 30
0.0
 40
1.35
 50
-0.0
 51
-180.0
  0
ARC
  8
0
 62
0
 10
-178.993
 20
16.8477256983
 30
0.0
 40
1.35
 50
-0.0
 51
-180.0
  0
ARC
  8
0
 62
0
 10
-193.61722991
 20
-115.541205918
 30
0.0
 40
1.35
 50
-0.0
 51
-180.0
  0
ARC
  8
0
 62
0
 10
-185.128533942
 20
-110.149954471
 30
0.0
 40
1.35
 50
-0.0
 51
-180.0
  0
ARC
  8
0
 62
0
 10
-256.568
 20
-74.6010624999
 30
0.0
 40
1.35
 50
-0.0
 51
-180.0
  0
ARC
  8
0
 62
0
 10
-199.418
 20
1.6
 30
0.0
 40
1.35
 50
-0.0
 51
180.0
  0
ARC
  8
0
 62
0
 10
-168.63075
 20
-100.624954471
 30
0.0
 40
2.15
 50
-0.0
 51
-180.0
  0
ENDBLK
  0
ENDSEC
  0
SECTION
  2
ENTITIES
  0
INSERT
  2
SHAPE2DVIEW
  8
0
 10
0.0
 20
0.0
 30
0.0
  0
ENDSEC
  0
EOF
