G04 #@! TF.GenerationSoftware,KiCad,Pcbnew,(5.1.5)-3*
G04 #@! TF.CreationDate,2020-04-30T15:02:57+07:00*
G04 #@! TF.ProjectId,Lily58,4c696c79-3538-42e6-9b69-6361645f7063,rev?*
G04 #@! TF.SameCoordinates,Original*
G04 #@! TF.FileFunction,Legend,Bot*
G04 #@! TF.FilePolarity,Positive*
%FSLAX46Y46*%
G04 Gerber Fmt 4.6, Leading zero omitted, Abs format (unit mm)*
G04 Created by KiCad (PCBNEW (5.1.5)-3) date 2020-04-30 15:02:57*
%MOMM*%
%LPD*%
G04 APERTURE LIST*
%ADD10C,0.200000*%
%ADD11C,0.150000*%
%ADD12C,0.010000*%
%ADD13C,0.280000*%
%ADD14C,0.120000*%
%ADD15C,0.381000*%
%ADD16C,0.250000*%
G04 APERTURE END LIST*
D10*
X224900000Y-42700000D02*
X225460000Y-43436755D01*
X82937528Y-50750629D02*
X82937528Y-44443695D01*
X82937528Y-57057562D02*
X82937528Y-50750629D01*
X115211711Y-37086762D02*
X104803877Y-37086762D01*
X218692418Y-120789735D02*
X223959999Y-120789735D01*
X213424836Y-120789735D02*
X218692418Y-120789735D01*
X208157255Y-120789735D02*
X213424836Y-120789735D01*
X202889673Y-120789735D02*
X208157255Y-120789735D01*
X197622092Y-120789735D02*
X202889673Y-120789735D01*
X192354511Y-120789735D02*
X197622092Y-120789735D01*
X187086929Y-120789735D02*
X192354511Y-120789735D01*
X181819348Y-120789735D02*
X187086929Y-120789735D01*
X181113524Y-120860778D02*
X181819348Y-120789735D01*
X180456326Y-121064561D02*
X181113524Y-120860778D01*
X179861773Y-121387065D02*
X180456326Y-121064561D01*
X179343884Y-121814271D02*
X179861773Y-121387065D01*
X178916678Y-122332160D02*
X179343884Y-121814271D01*
X178594174Y-122926713D02*
X178916678Y-122332160D01*
X178390391Y-123583911D02*
X178594174Y-122926713D01*
X178319348Y-124289735D02*
X178390391Y-123583911D01*
X199807654Y-38170488D02*
X189919538Y-37585374D01*
X208420758Y-38945561D02*
X199807654Y-38170488D01*
X215525697Y-39885159D02*
X208420758Y-38945561D01*
X220889319Y-40963847D02*
X215525697Y-39885159D01*
X178989563Y-37215654D02*
X167250881Y-37086762D01*
X189919538Y-37585374D02*
X178989563Y-37215654D01*
X177658308Y-135255660D02*
X177403500Y-135393876D01*
X177880261Y-135072571D02*
X177658308Y-135255660D01*
X178063349Y-134850619D02*
X177880261Y-135072571D01*
X178201565Y-134595810D02*
X178063349Y-134850619D01*
X178288901Y-134314154D02*
X178201565Y-134595810D01*
X178319348Y-134011658D02*
X178288901Y-134314154D01*
X225460000Y-52918378D02*
X225460000Y-62400000D01*
X225460000Y-43436755D02*
X225460000Y-52918378D01*
X82937528Y-69671429D02*
X82937528Y-63364495D01*
X82937528Y-75978362D02*
X82937528Y-69671429D01*
X82937528Y-82285296D02*
X82937528Y-75978362D01*
X82937528Y-88592229D02*
X82937528Y-82285296D01*
X104807833Y-37086762D02*
X94400000Y-37086762D01*
X125619545Y-37086762D02*
X115211711Y-37086762D01*
X136027379Y-37086762D02*
X125619545Y-37086762D01*
X146435213Y-37086762D02*
X136027379Y-37086762D01*
X156843047Y-37086762D02*
X146435213Y-37086762D01*
X167250881Y-37086762D02*
X156843047Y-37086762D01*
X83400937Y-37265961D02*
X83579303Y-37169210D01*
X83245570Y-37394123D02*
X83400937Y-37265961D01*
X83117409Y-37549489D02*
X83245570Y-37394123D01*
X83020657Y-37727855D02*
X83117409Y-37549489D01*
X82959523Y-37925015D02*
X83020657Y-37727855D01*
X82938210Y-38136762D02*
X82959523Y-37925015D01*
X83776462Y-37108075D02*
X83988210Y-37086762D01*
X83579303Y-37169210D02*
X83776462Y-37108075D01*
X94396044Y-37086762D02*
X83988210Y-37086762D01*
X82937528Y-63364495D02*
X82937528Y-57057562D01*
X82937528Y-44443695D02*
X82937528Y-38136762D01*
X88291758Y-116318073D02*
X89993333Y-119989540D01*
X86863105Y-112530670D02*
X88291758Y-116318073D01*
X85688004Y-108649127D02*
X86863105Y-112530670D01*
X84747083Y-104695246D02*
X85688004Y-108649127D01*
X84020972Y-100690825D02*
X84747083Y-104695246D01*
X83490297Y-96657663D02*
X84020972Y-100690825D01*
X83135690Y-92617561D02*
X83490297Y-96657663D01*
X82937777Y-88592317D02*
X83135690Y-92617561D01*
X104288864Y-143357278D02*
X104456758Y-143271756D01*
X104130206Y-143404468D02*
X104288864Y-143357278D01*
X103981252Y-143413974D02*
X104130206Y-143404468D01*
X103842470Y-143386445D02*
X103981252Y-143413974D01*
X103714328Y-143322532D02*
X103842470Y-143386445D01*
X103597295Y-143222884D02*
X103714328Y-143322532D01*
X103491837Y-143088150D02*
X103597295Y-143222884D01*
X103398425Y-142918979D02*
X103491837Y-143088150D01*
X116186619Y-136480784D02*
X117862313Y-135510645D01*
X114510925Y-137450923D02*
X116186619Y-136480784D01*
X112835230Y-138421062D02*
X114510925Y-137450923D01*
X111159536Y-139391201D02*
X112835230Y-138421062D01*
X109483841Y-140361340D02*
X111159536Y-139391201D01*
X107808147Y-141331479D02*
X109483841Y-140361340D01*
X106132452Y-142301617D02*
X107808147Y-141331479D01*
X104456758Y-143271756D02*
X106132452Y-142301617D01*
X101722730Y-140052659D02*
X103398425Y-142918979D01*
X100047036Y-137186340D02*
X101722730Y-140052659D01*
X98371341Y-134320020D02*
X100047036Y-137186340D01*
X96695647Y-131453701D02*
X98371341Y-134320020D01*
X95019952Y-128587381D02*
X96695647Y-131453701D01*
X93344258Y-125721062D02*
X95019952Y-128587381D01*
X91668563Y-122854742D02*
X93344258Y-125721062D01*
X89992869Y-119988423D02*
X91668563Y-122854742D01*
X169449826Y-135511658D02*
X176819348Y-135511658D01*
X162080304Y-135511658D02*
X169449826Y-135511658D01*
X154710782Y-135511658D02*
X162080304Y-135511658D01*
X147341260Y-135511658D02*
X154710782Y-135511658D01*
X139971738Y-135511658D02*
X147341260Y-135511658D01*
X132602217Y-135511658D02*
X139971738Y-135511658D01*
X125232695Y-135511658D02*
X132602217Y-135511658D01*
X117863173Y-135511658D02*
X125232695Y-135511658D01*
X178319348Y-132816013D02*
X178319348Y-134011658D01*
X178319348Y-131597973D02*
X178319348Y-132816013D01*
X178319348Y-130379933D02*
X178319348Y-131597973D01*
X178319348Y-129161894D02*
X178319348Y-130379933D01*
X178319348Y-127943854D02*
X178319348Y-129161894D01*
X178319348Y-126725814D02*
X178319348Y-127943854D01*
X178319348Y-125507775D02*
X178319348Y-126725814D01*
X178319348Y-124289735D02*
X178319348Y-125507775D01*
X177121844Y-135481211D02*
X176819348Y-135511658D01*
X177403500Y-135393876D02*
X177121844Y-135481211D01*
X224278471Y-42156190D02*
X220889319Y-40963847D01*
X224900000Y-42700000D02*
X224278471Y-42156190D01*
X224262495Y-120759288D02*
X223959999Y-120789735D01*
X224544152Y-120671952D02*
X224262495Y-120759288D01*
X224798960Y-120533736D02*
X224544152Y-120671952D01*
X225020912Y-120350648D02*
X224798960Y-120533736D01*
X225204001Y-120128696D02*
X225020912Y-120350648D01*
X225342217Y-119873887D02*
X225204001Y-120128696D01*
X225429552Y-119592231D02*
X225342217Y-119873887D01*
X225459999Y-119289735D02*
X225429552Y-119592231D01*
X225460000Y-109808112D02*
X225460000Y-119289735D01*
X225460000Y-100326490D02*
X225460000Y-109808112D01*
X225460000Y-90844867D02*
X225460000Y-100326490D01*
X225460000Y-81363245D02*
X225460000Y-90844867D01*
X225460000Y-71881623D02*
X225460000Y-81363245D01*
X225460000Y-62400000D02*
X225460000Y-71881623D01*
D11*
X110363000Y-81788000D02*
X107823000Y-81788000D01*
X106553000Y-80518000D02*
X106553000Y-75438000D01*
X107823000Y-74168000D02*
X110363000Y-74168000D01*
X111633000Y-75438000D02*
X111633000Y-80518000D01*
X106553000Y-75438000D02*
G75*
G02X107823000Y-74168000I1270000J0D01*
G01*
X107823000Y-81788000D02*
G75*
G02X106553000Y-80518000I0J1270000D01*
G01*
X111633000Y-80518000D02*
G75*
G02X110363000Y-81788000I-1270000J0D01*
G01*
X110363000Y-74168000D02*
G75*
G02X111633000Y-75438000I0J-1270000D01*
G01*
D12*
G36*
X102339585Y-59216312D02*
G01*
X102213209Y-59341368D01*
X102155274Y-59401225D01*
X102111318Y-59451447D01*
X102088503Y-59483671D01*
X102086834Y-59488978D01*
X102100960Y-59513868D01*
X102138235Y-59558695D01*
X102191006Y-59614356D01*
X102198624Y-59621932D01*
X102255496Y-59675459D01*
X102302268Y-59714688D01*
X102329853Y-59732072D01*
X102331579Y-59732334D01*
X102355265Y-59718197D01*
X102399877Y-59680552D01*
X102457146Y-59626544D01*
X102477799Y-59605958D01*
X102602856Y-59479583D01*
X102339585Y-59216312D01*
G37*
X102339585Y-59216312D02*
X102213209Y-59341368D01*
X102155274Y-59401225D01*
X102111318Y-59451447D01*
X102088503Y-59483671D01*
X102086834Y-59488978D01*
X102100960Y-59513868D01*
X102138235Y-59558695D01*
X102191006Y-59614356D01*
X102198624Y-59621932D01*
X102255496Y-59675459D01*
X102302268Y-59714688D01*
X102329853Y-59732072D01*
X102331579Y-59732334D01*
X102355265Y-59718197D01*
X102399877Y-59680552D01*
X102457146Y-59626544D01*
X102477799Y-59605958D01*
X102602856Y-59479583D01*
X102339585Y-59216312D01*
G36*
X102622363Y-58868891D02*
G01*
X102583545Y-58823443D01*
X102529104Y-58766861D01*
X102467430Y-58707197D01*
X102406914Y-58652504D01*
X102355946Y-58610836D01*
X102322918Y-58590245D01*
X102318524Y-58589334D01*
X102288420Y-58604160D01*
X102239900Y-58642831D01*
X102181609Y-58696635D01*
X102122191Y-58756862D01*
X102070291Y-58814800D01*
X102034552Y-58861738D01*
X102023334Y-58886804D01*
X102037606Y-58914734D01*
X102075921Y-58963511D01*
X102131521Y-59024935D01*
X102166740Y-59060860D01*
X102230793Y-59122344D01*
X102284912Y-59170467D01*
X102321436Y-59198607D01*
X102331349Y-59203167D01*
X102355426Y-59188761D01*
X102399570Y-59151018D01*
X102455623Y-59098156D01*
X102515429Y-59038389D01*
X102570831Y-58979934D01*
X102613670Y-58931007D01*
X102635791Y-58899823D01*
X102637167Y-58895152D01*
X102622363Y-58868891D01*
G37*
X102622363Y-58868891D02*
X102583545Y-58823443D01*
X102529104Y-58766861D01*
X102467430Y-58707197D01*
X102406914Y-58652504D01*
X102355946Y-58610836D01*
X102322918Y-58590245D01*
X102318524Y-58589334D01*
X102288420Y-58604160D01*
X102239900Y-58642831D01*
X102181609Y-58696635D01*
X102122191Y-58756862D01*
X102070291Y-58814800D01*
X102034552Y-58861738D01*
X102023334Y-58886804D01*
X102037606Y-58914734D01*
X102075921Y-58963511D01*
X102131521Y-59024935D01*
X102166740Y-59060860D01*
X102230793Y-59122344D01*
X102284912Y-59170467D01*
X102321436Y-59198607D01*
X102331349Y-59203167D01*
X102355426Y-59188761D01*
X102399570Y-59151018D01*
X102455623Y-59098156D01*
X102515429Y-59038389D01*
X102570831Y-58979934D01*
X102613670Y-58931007D01*
X102635791Y-58899823D01*
X102637167Y-58895152D01*
X102622363Y-58868891D01*
G36*
X102635665Y-52479076D02*
G01*
X102629197Y-52410592D01*
X102614822Y-52366089D01*
X102589596Y-52336417D01*
X102550987Y-52312634D01*
X102495835Y-52296505D01*
X102412875Y-52286097D01*
X102316288Y-52281721D01*
X102220251Y-52283687D01*
X102138944Y-52292308D01*
X102097771Y-52302699D01*
X102044883Y-52344221D01*
X102007026Y-52418036D01*
X101986142Y-52516178D01*
X101984175Y-52630684D01*
X101995883Y-52720454D01*
X102018636Y-52766841D01*
X102059355Y-52810412D01*
X102091231Y-52830691D01*
X102131042Y-52843464D01*
X102188775Y-52850347D01*
X102274418Y-52852956D01*
X102323484Y-52853167D01*
X102420972Y-52852384D01*
X102486031Y-52848723D01*
X102528556Y-52840222D01*
X102558442Y-52824916D01*
X102585213Y-52801213D01*
X102611658Y-52770313D01*
X102627275Y-52735344D01*
X102634833Y-52684551D01*
X102637102Y-52606179D01*
X102637167Y-52580694D01*
X102635665Y-52479076D01*
G37*
X102635665Y-52479076D02*
X102629197Y-52410592D01*
X102614822Y-52366089D01*
X102589596Y-52336417D01*
X102550987Y-52312634D01*
X102495835Y-52296505D01*
X102412875Y-52286097D01*
X102316288Y-52281721D01*
X102220251Y-52283687D01*
X102138944Y-52292308D01*
X102097771Y-52302699D01*
X102044883Y-52344221D01*
X102007026Y-52418036D01*
X101986142Y-52516178D01*
X101984175Y-52630684D01*
X101995883Y-52720454D01*
X102018636Y-52766841D01*
X102059355Y-52810412D01*
X102091231Y-52830691D01*
X102131042Y-52843464D01*
X102188775Y-52850347D01*
X102274418Y-52852956D01*
X102323484Y-52853167D01*
X102420972Y-52852384D01*
X102486031Y-52848723D01*
X102528556Y-52840222D01*
X102558442Y-52824916D01*
X102585213Y-52801213D01*
X102611658Y-52770313D01*
X102627275Y-52735344D01*
X102634833Y-52684551D01*
X102637102Y-52606179D01*
X102637167Y-52580694D01*
X102635665Y-52479076D01*
G36*
X102686280Y-58152425D02*
G01*
X102648036Y-58107943D01*
X102593316Y-58049574D01*
X102529498Y-57984659D01*
X102463962Y-57920542D01*
X102404086Y-57864565D01*
X102357250Y-57824072D01*
X102330833Y-57806405D01*
X102329341Y-57806167D01*
X102306091Y-57820555D01*
X102261610Y-57858798D01*
X102203241Y-57913518D01*
X102138326Y-57977336D01*
X102074208Y-58042873D01*
X102018232Y-58102748D01*
X101977738Y-58149584D01*
X101960071Y-58176002D01*
X101959834Y-58177493D01*
X101974043Y-58199968D01*
X102012668Y-58245189D01*
X102069709Y-58306457D01*
X102134901Y-58372843D01*
X102205521Y-58441385D01*
X102266334Y-58497231D01*
X102310612Y-58534409D01*
X102331160Y-58547000D01*
X102354410Y-58532613D01*
X102398891Y-58494369D01*
X102457260Y-58439649D01*
X102522175Y-58375831D01*
X102586293Y-58310295D01*
X102642269Y-58250419D01*
X102682763Y-58203583D01*
X102700430Y-58177166D01*
X102700667Y-58175674D01*
X102686280Y-58152425D01*
G37*
X102686280Y-58152425D02*
X102648036Y-58107943D01*
X102593316Y-58049574D01*
X102529498Y-57984659D01*
X102463962Y-57920542D01*
X102404086Y-57864565D01*
X102357250Y-57824072D01*
X102330833Y-57806405D01*
X102329341Y-57806167D01*
X102306091Y-57820555D01*
X102261610Y-57858798D01*
X102203241Y-57913518D01*
X102138326Y-57977336D01*
X102074208Y-58042873D01*
X102018232Y-58102748D01*
X101977738Y-58149584D01*
X101960071Y-58176002D01*
X101959834Y-58177493D01*
X101974043Y-58199968D01*
X102012668Y-58245189D01*
X102069709Y-58306457D01*
X102134901Y-58372843D01*
X102205521Y-58441385D01*
X102266334Y-58497231D01*
X102310612Y-58534409D01*
X102331160Y-58547000D01*
X102354410Y-58532613D01*
X102398891Y-58494369D01*
X102457260Y-58439649D01*
X102522175Y-58375831D01*
X102586293Y-58310295D01*
X102642269Y-58250419D01*
X102682763Y-58203583D01*
X102700430Y-58177166D01*
X102700667Y-58175674D01*
X102686280Y-58152425D01*
G36*
X102029697Y-59461558D02*
G01*
X101990879Y-59416110D01*
X101936437Y-59359528D01*
X101874763Y-59299864D01*
X101814247Y-59245171D01*
X101763279Y-59203503D01*
X101730251Y-59182912D01*
X101725858Y-59182000D01*
X101695753Y-59196827D01*
X101647233Y-59235497D01*
X101588942Y-59289301D01*
X101529524Y-59349528D01*
X101477624Y-59407466D01*
X101441886Y-59454405D01*
X101430667Y-59479471D01*
X101444940Y-59507401D01*
X101483254Y-59556178D01*
X101538854Y-59617602D01*
X101574073Y-59653527D01*
X101638126Y-59715010D01*
X101692245Y-59763134D01*
X101728770Y-59791273D01*
X101738683Y-59795834D01*
X101762759Y-59781427D01*
X101806903Y-59743685D01*
X101862957Y-59690823D01*
X101922763Y-59631056D01*
X101978164Y-59572601D01*
X102021004Y-59523674D01*
X102043124Y-59492490D01*
X102044500Y-59487818D01*
X102029697Y-59461558D01*
G37*
X102029697Y-59461558D02*
X101990879Y-59416110D01*
X101936437Y-59359528D01*
X101874763Y-59299864D01*
X101814247Y-59245171D01*
X101763279Y-59203503D01*
X101730251Y-59182912D01*
X101725858Y-59182000D01*
X101695753Y-59196827D01*
X101647233Y-59235497D01*
X101588942Y-59289301D01*
X101529524Y-59349528D01*
X101477624Y-59407466D01*
X101441886Y-59454405D01*
X101430667Y-59479471D01*
X101444940Y-59507401D01*
X101483254Y-59556178D01*
X101538854Y-59617602D01*
X101574073Y-59653527D01*
X101638126Y-59715010D01*
X101692245Y-59763134D01*
X101728770Y-59791273D01*
X101738683Y-59795834D01*
X101762759Y-59781427D01*
X101806903Y-59743685D01*
X101862957Y-59690823D01*
X101922763Y-59631056D01*
X101978164Y-59572601D01*
X102021004Y-59523674D01*
X102043124Y-59492490D01*
X102044500Y-59487818D01*
X102029697Y-59461558D01*
G36*
X101903094Y-58151408D02*
G01*
X101865352Y-58107264D01*
X101812489Y-58051211D01*
X101752723Y-57991405D01*
X101694268Y-57936004D01*
X101645340Y-57893164D01*
X101614156Y-57871044D01*
X101609485Y-57869667D01*
X101585408Y-57884074D01*
X101541264Y-57921816D01*
X101485211Y-57974678D01*
X101425405Y-58034445D01*
X101370004Y-58092900D01*
X101327164Y-58141827D01*
X101305044Y-58173011D01*
X101303667Y-58177683D01*
X101317828Y-58200896D01*
X101355863Y-58245809D01*
X101411098Y-58304813D01*
X101447073Y-58341193D01*
X101511126Y-58402677D01*
X101565245Y-58450800D01*
X101601770Y-58478940D01*
X101611683Y-58483500D01*
X101635759Y-58469094D01*
X101679903Y-58431352D01*
X101735957Y-58378489D01*
X101795763Y-58318723D01*
X101851164Y-58260268D01*
X101894004Y-58211340D01*
X101916124Y-58180156D01*
X101917500Y-58175485D01*
X101903094Y-58151408D01*
G37*
X101903094Y-58151408D02*
X101865352Y-58107264D01*
X101812489Y-58051211D01*
X101752723Y-57991405D01*
X101694268Y-57936004D01*
X101645340Y-57893164D01*
X101614156Y-57871044D01*
X101609485Y-57869667D01*
X101585408Y-57884074D01*
X101541264Y-57921816D01*
X101485211Y-57974678D01*
X101425405Y-58034445D01*
X101370004Y-58092900D01*
X101327164Y-58141827D01*
X101305044Y-58173011D01*
X101303667Y-58177683D01*
X101317828Y-58200896D01*
X101355863Y-58245809D01*
X101411098Y-58304813D01*
X101447073Y-58341193D01*
X101511126Y-58402677D01*
X101565245Y-58450800D01*
X101601770Y-58478940D01*
X101611683Y-58483500D01*
X101635759Y-58469094D01*
X101679903Y-58431352D01*
X101735957Y-58378489D01*
X101795763Y-58318723D01*
X101851164Y-58260268D01*
X101894004Y-58211340D01*
X101916124Y-58180156D01*
X101917500Y-58175485D01*
X101903094Y-58151408D01*
G36*
X101246378Y-58147627D02*
G01*
X101207945Y-58102853D01*
X101155689Y-58050020D01*
X101099263Y-57998278D01*
X101048319Y-57956775D01*
X101012511Y-57934657D01*
X101005945Y-57933167D01*
X100977097Y-57947535D01*
X100930271Y-57984449D01*
X100875048Y-58034623D01*
X100821010Y-58088772D01*
X100777738Y-58137613D01*
X100754812Y-58171859D01*
X100753334Y-58177972D01*
X100767442Y-58202195D01*
X100804674Y-58246506D01*
X100857392Y-58301911D01*
X100865124Y-58309599D01*
X100923640Y-58363381D01*
X100974119Y-58402670D01*
X101006588Y-58419798D01*
X101008722Y-58420000D01*
X101037571Y-58405633D01*
X101084397Y-58368719D01*
X101139619Y-58318545D01*
X101193657Y-58264395D01*
X101236930Y-58215555D01*
X101259856Y-58181309D01*
X101261334Y-58175195D01*
X101246378Y-58147627D01*
G37*
X101246378Y-58147627D02*
X101207945Y-58102853D01*
X101155689Y-58050020D01*
X101099263Y-57998278D01*
X101048319Y-57956775D01*
X101012511Y-57934657D01*
X101005945Y-57933167D01*
X100977097Y-57947535D01*
X100930271Y-57984449D01*
X100875048Y-58034623D01*
X100821010Y-58088772D01*
X100777738Y-58137613D01*
X100754812Y-58171859D01*
X100753334Y-58177972D01*
X100767442Y-58202195D01*
X100804674Y-58246506D01*
X100857392Y-58301911D01*
X100865124Y-58309599D01*
X100923640Y-58363381D01*
X100974119Y-58402670D01*
X101006588Y-58419798D01*
X101008722Y-58420000D01*
X101037571Y-58405633D01*
X101084397Y-58368719D01*
X101139619Y-58318545D01*
X101193657Y-58264395D01*
X101236930Y-58215555D01*
X101259856Y-58181309D01*
X101261334Y-58175195D01*
X101246378Y-58147627D01*
G36*
X101310427Y-58744075D02*
G01*
X101272685Y-58699931D01*
X101219823Y-58643878D01*
X101160056Y-58584072D01*
X101101601Y-58528670D01*
X101052674Y-58485831D01*
X101021490Y-58463710D01*
X101016818Y-58462334D01*
X100992742Y-58476740D01*
X100948598Y-58514483D01*
X100892544Y-58567345D01*
X100832738Y-58627112D01*
X100777337Y-58685567D01*
X100734497Y-58734494D01*
X100712377Y-58765678D01*
X100711000Y-58770349D01*
X100725162Y-58793562D01*
X100763196Y-58838475D01*
X100818431Y-58897480D01*
X100854407Y-58933860D01*
X100918459Y-58995344D01*
X100972579Y-59043467D01*
X101009103Y-59071607D01*
X101019016Y-59076167D01*
X101043093Y-59061761D01*
X101087237Y-59024018D01*
X101143290Y-58971156D01*
X101203096Y-58911389D01*
X101258497Y-58852934D01*
X101301337Y-58804007D01*
X101323457Y-58772823D01*
X101324834Y-58768152D01*
X101310427Y-58744075D01*
G37*
X101310427Y-58744075D02*
X101272685Y-58699931D01*
X101219823Y-58643878D01*
X101160056Y-58584072D01*
X101101601Y-58528670D01*
X101052674Y-58485831D01*
X101021490Y-58463710D01*
X101016818Y-58462334D01*
X100992742Y-58476740D01*
X100948598Y-58514483D01*
X100892544Y-58567345D01*
X100832738Y-58627112D01*
X100777337Y-58685567D01*
X100734497Y-58734494D01*
X100712377Y-58765678D01*
X100711000Y-58770349D01*
X100725162Y-58793562D01*
X100763196Y-58838475D01*
X100818431Y-58897480D01*
X100854407Y-58933860D01*
X100918459Y-58995344D01*
X100972579Y-59043467D01*
X101009103Y-59071607D01*
X101019016Y-59076167D01*
X101043093Y-59061761D01*
X101087237Y-59024018D01*
X101143290Y-58971156D01*
X101203096Y-58911389D01*
X101258497Y-58852934D01*
X101301337Y-58804007D01*
X101323457Y-58772823D01*
X101324834Y-58768152D01*
X101310427Y-58744075D01*
G36*
X101373946Y-59464758D02*
G01*
X101335703Y-59420277D01*
X101280983Y-59361907D01*
X101217165Y-59296992D01*
X101151628Y-59232875D01*
X101091753Y-59176898D01*
X101044917Y-59136405D01*
X101018499Y-59118738D01*
X101017008Y-59118500D01*
X100993758Y-59132888D01*
X100949277Y-59171132D01*
X100890907Y-59225852D01*
X100825992Y-59289670D01*
X100761875Y-59355206D01*
X100705898Y-59415082D01*
X100665405Y-59461918D01*
X100647738Y-59488335D01*
X100647500Y-59489827D01*
X100661709Y-59512302D01*
X100700335Y-59557522D01*
X100757375Y-59618790D01*
X100822568Y-59685176D01*
X100893188Y-59753718D01*
X100954001Y-59809564D01*
X100998279Y-59846743D01*
X101018827Y-59859334D01*
X101042076Y-59844946D01*
X101086558Y-59806703D01*
X101144927Y-59751983D01*
X101209842Y-59688165D01*
X101273959Y-59622628D01*
X101329936Y-59562753D01*
X101370429Y-59515917D01*
X101388096Y-59489499D01*
X101388334Y-59488008D01*
X101373946Y-59464758D01*
G37*
X101373946Y-59464758D02*
X101335703Y-59420277D01*
X101280983Y-59361907D01*
X101217165Y-59296992D01*
X101151628Y-59232875D01*
X101091753Y-59176898D01*
X101044917Y-59136405D01*
X101018499Y-59118738D01*
X101017008Y-59118500D01*
X100993758Y-59132888D01*
X100949277Y-59171132D01*
X100890907Y-59225852D01*
X100825992Y-59289670D01*
X100761875Y-59355206D01*
X100705898Y-59415082D01*
X100665405Y-59461918D01*
X100647738Y-59488335D01*
X100647500Y-59489827D01*
X100661709Y-59512302D01*
X100700335Y-59557522D01*
X100757375Y-59618790D01*
X100822568Y-59685176D01*
X100893188Y-59753718D01*
X100954001Y-59809564D01*
X100998279Y-59846743D01*
X101018827Y-59859334D01*
X101042076Y-59844946D01*
X101086558Y-59806703D01*
X101144927Y-59751983D01*
X101209842Y-59688165D01*
X101273959Y-59622628D01*
X101329936Y-59562753D01*
X101370429Y-59515917D01*
X101388096Y-59489499D01*
X101388334Y-59488008D01*
X101373946Y-59464758D01*
G36*
X101322277Y-52478176D02*
G01*
X101311114Y-52428703D01*
X101286102Y-52389389D01*
X101262962Y-52364706D01*
X101201090Y-52302834D01*
X98046361Y-52302834D01*
X97987809Y-52353199D01*
X97955833Y-52385516D01*
X97937166Y-52422289D01*
X97927431Y-52476696D01*
X97922808Y-52548990D01*
X97923919Y-52657274D01*
X97939039Y-52731240D01*
X97947930Y-52750380D01*
X97990644Y-52797335D01*
X98046659Y-52829755D01*
X98078700Y-52834859D01*
X98144345Y-52839298D01*
X98244687Y-52843091D01*
X98380823Y-52846252D01*
X98553848Y-52848800D01*
X98764858Y-52850748D01*
X99014949Y-52852115D01*
X99305215Y-52852916D01*
X99624756Y-52853167D01*
X99926224Y-52853144D01*
X100188215Y-52852941D01*
X100413584Y-52852361D01*
X100605187Y-52851205D01*
X100765881Y-52849273D01*
X100898520Y-52846368D01*
X101005961Y-52842291D01*
X101091059Y-52836843D01*
X101156671Y-52829826D01*
X101205651Y-52821040D01*
X101240857Y-52810288D01*
X101265143Y-52797371D01*
X101281366Y-52782090D01*
X101292382Y-52764247D01*
X101301046Y-52743642D01*
X101303802Y-52736396D01*
X101315382Y-52684767D01*
X101323021Y-52610127D01*
X101324834Y-52553828D01*
X101322277Y-52478176D01*
G37*
X101322277Y-52478176D02*
X101311114Y-52428703D01*
X101286102Y-52389389D01*
X101262962Y-52364706D01*
X101201090Y-52302834D01*
X98046361Y-52302834D01*
X97987809Y-52353199D01*
X97955833Y-52385516D01*
X97937166Y-52422289D01*
X97927431Y-52476696D01*
X97922808Y-52548990D01*
X97923919Y-52657274D01*
X97939039Y-52731240D01*
X97947930Y-52750380D01*
X97990644Y-52797335D01*
X98046659Y-52829755D01*
X98078700Y-52834859D01*
X98144345Y-52839298D01*
X98244687Y-52843091D01*
X98380823Y-52846252D01*
X98553848Y-52848800D01*
X98764858Y-52850748D01*
X99014949Y-52852115D01*
X99305215Y-52852916D01*
X99624756Y-52853167D01*
X99926224Y-52853144D01*
X100188215Y-52852941D01*
X100413584Y-52852361D01*
X100605187Y-52851205D01*
X100765881Y-52849273D01*
X100898520Y-52846368D01*
X101005961Y-52842291D01*
X101091059Y-52836843D01*
X101156671Y-52829826D01*
X101205651Y-52821040D01*
X101240857Y-52810288D01*
X101265143Y-52797371D01*
X101281366Y-52782090D01*
X101292382Y-52764247D01*
X101301046Y-52743642D01*
X101303802Y-52736396D01*
X101315382Y-52684767D01*
X101323021Y-52610127D01*
X101324834Y-52553828D01*
X101322277Y-52478176D01*
G36*
X102635301Y-55658307D02*
G01*
X102627669Y-55601296D01*
X102611224Y-55560524D01*
X102586088Y-55526639D01*
X102535009Y-55467250D01*
X100480596Y-55461549D01*
X98426184Y-55455848D01*
X98420301Y-54438412D01*
X98414417Y-53420977D01*
X98355029Y-53369905D01*
X98281172Y-53330902D01*
X98188195Y-53315160D01*
X98092347Y-53322680D01*
X98009877Y-53353462D01*
X97986972Y-53369909D01*
X97927584Y-53420983D01*
X97921791Y-54651619D01*
X97915999Y-55882255D01*
X98040744Y-56007000D01*
X102533258Y-56007000D01*
X102585213Y-55955046D01*
X102612435Y-55922900D01*
X102628132Y-55886221D01*
X102635357Y-55832637D01*
X102637164Y-55749777D01*
X102637167Y-55744560D01*
X102635301Y-55658307D01*
G37*
X102635301Y-55658307D02*
X102627669Y-55601296D01*
X102611224Y-55560524D01*
X102586088Y-55526639D01*
X102535009Y-55467250D01*
X100480596Y-55461549D01*
X98426184Y-55455848D01*
X98420301Y-54438412D01*
X98414417Y-53420977D01*
X98355029Y-53369905D01*
X98281172Y-53330902D01*
X98188195Y-53315160D01*
X98092347Y-53322680D01*
X98009877Y-53353462D01*
X97986972Y-53369909D01*
X97927584Y-53420983D01*
X97921791Y-54651619D01*
X97915999Y-55882255D01*
X98040744Y-56007000D01*
X102533258Y-56007000D01*
X102585213Y-55955046D01*
X102612435Y-55922900D01*
X102628132Y-55886221D01*
X102635357Y-55832637D01*
X102637164Y-55749777D01*
X102637167Y-55744560D01*
X102635301Y-55658307D01*
G36*
X102634783Y-50991170D02*
G01*
X102625285Y-50935808D01*
X102605156Y-50894436D01*
X102586091Y-50869972D01*
X102535014Y-50810584D01*
X100569966Y-50800000D01*
X100235935Y-50798161D01*
X99941627Y-50796422D01*
X99684430Y-50794723D01*
X99461732Y-50793001D01*
X99270923Y-50791195D01*
X99109392Y-50789244D01*
X98974527Y-50787086D01*
X98863717Y-50784659D01*
X98774352Y-50781902D01*
X98703820Y-50778753D01*
X98649511Y-50775150D01*
X98608812Y-50771032D01*
X98579113Y-50766337D01*
X98557804Y-50761004D01*
X98542272Y-50754970D01*
X98536484Y-50752017D01*
X98464793Y-50692553D01*
X98417718Y-50603850D01*
X98397075Y-50516507D01*
X98376316Y-50448176D01*
X98342325Y-50389728D01*
X98337482Y-50384215D01*
X98305453Y-50356642D01*
X98266252Y-50341466D01*
X98206784Y-50335231D01*
X98148489Y-50334334D01*
X98044127Y-50339583D01*
X97974312Y-50359577D01*
X97932092Y-50400687D01*
X97910519Y-50469284D01*
X97903026Y-50559329D01*
X97903338Y-50647689D01*
X97909237Y-50731409D01*
X97917752Y-50784212D01*
X97972858Y-50931862D01*
X98058128Y-51067270D01*
X98165851Y-51180283D01*
X98274520Y-51253887D01*
X98305850Y-51269657D01*
X98336950Y-51283594D01*
X98370505Y-51295814D01*
X98409201Y-51306428D01*
X98455720Y-51315551D01*
X98512749Y-51323297D01*
X98582971Y-51329778D01*
X98669071Y-51335109D01*
X98773733Y-51339402D01*
X98899642Y-51342771D01*
X99049483Y-51345331D01*
X99225940Y-51347193D01*
X99431698Y-51348473D01*
X99669441Y-51349283D01*
X99941854Y-51349736D01*
X100251621Y-51349947D01*
X100548010Y-51350021D01*
X100884665Y-51350000D01*
X101181497Y-51349798D01*
X101441019Y-51349375D01*
X101665739Y-51348694D01*
X101858170Y-51347716D01*
X102020823Y-51346402D01*
X102156207Y-51344714D01*
X102266834Y-51342614D01*
X102355215Y-51340062D01*
X102423860Y-51337022D01*
X102475281Y-51333454D01*
X102511989Y-51329320D01*
X102536493Y-51324581D01*
X102550987Y-51319367D01*
X102591884Y-51293636D01*
X102617455Y-51261282D01*
X102631176Y-51212426D01*
X102636527Y-51137190D01*
X102637167Y-51074616D01*
X102634783Y-50991170D01*
G37*
X102634783Y-50991170D02*
X102625285Y-50935808D01*
X102605156Y-50894436D01*
X102586091Y-50869972D01*
X102535014Y-50810584D01*
X100569966Y-50800000D01*
X100235935Y-50798161D01*
X99941627Y-50796422D01*
X99684430Y-50794723D01*
X99461732Y-50793001D01*
X99270923Y-50791195D01*
X99109392Y-50789244D01*
X98974527Y-50787086D01*
X98863717Y-50784659D01*
X98774352Y-50781902D01*
X98703820Y-50778753D01*
X98649511Y-50775150D01*
X98608812Y-50771032D01*
X98579113Y-50766337D01*
X98557804Y-50761004D01*
X98542272Y-50754970D01*
X98536484Y-50752017D01*
X98464793Y-50692553D01*
X98417718Y-50603850D01*
X98397075Y-50516507D01*
X98376316Y-50448176D01*
X98342325Y-50389728D01*
X98337482Y-50384215D01*
X98305453Y-50356642D01*
X98266252Y-50341466D01*
X98206784Y-50335231D01*
X98148489Y-50334334D01*
X98044127Y-50339583D01*
X97974312Y-50359577D01*
X97932092Y-50400687D01*
X97910519Y-50469284D01*
X97903026Y-50559329D01*
X97903338Y-50647689D01*
X97909237Y-50731409D01*
X97917752Y-50784212D01*
X97972858Y-50931862D01*
X98058128Y-51067270D01*
X98165851Y-51180283D01*
X98274520Y-51253887D01*
X98305850Y-51269657D01*
X98336950Y-51283594D01*
X98370505Y-51295814D01*
X98409201Y-51306428D01*
X98455720Y-51315551D01*
X98512749Y-51323297D01*
X98582971Y-51329778D01*
X98669071Y-51335109D01*
X98773733Y-51339402D01*
X98899642Y-51342771D01*
X99049483Y-51345331D01*
X99225940Y-51347193D01*
X99431698Y-51348473D01*
X99669441Y-51349283D01*
X99941854Y-51349736D01*
X100251621Y-51349947D01*
X100548010Y-51350021D01*
X100884665Y-51350000D01*
X101181497Y-51349798D01*
X101441019Y-51349375D01*
X101665739Y-51348694D01*
X101858170Y-51347716D01*
X102020823Y-51346402D01*
X102156207Y-51344714D01*
X102266834Y-51342614D01*
X102355215Y-51340062D01*
X102423860Y-51337022D01*
X102475281Y-51333454D01*
X102511989Y-51329320D01*
X102536493Y-51324581D01*
X102550987Y-51319367D01*
X102591884Y-51293636D01*
X102617455Y-51261282D01*
X102631176Y-51212426D01*
X102636527Y-51137190D01*
X102637167Y-51074616D01*
X102634783Y-50991170D01*
G36*
X102685361Y-41034871D02*
G01*
X102673007Y-40887750D01*
X102649533Y-40757717D01*
X102612290Y-40632349D01*
X102558627Y-40499225D01*
X102519062Y-40413830D01*
X102406329Y-40223136D01*
X102265887Y-40060344D01*
X102101699Y-39928672D01*
X101917726Y-39831336D01*
X101731250Y-39774220D01*
X101587081Y-39755671D01*
X101424458Y-39752783D01*
X101264107Y-39765186D01*
X101156853Y-39784526D01*
X101038956Y-39821083D01*
X100904896Y-39875872D01*
X100763649Y-39943899D01*
X100624188Y-40020171D01*
X100495490Y-40099696D01*
X100386527Y-40177480D01*
X100306276Y-40248530D01*
X100289936Y-40266824D01*
X100271704Y-40282812D01*
X100252699Y-40278384D01*
X100225672Y-40248244D01*
X100185802Y-40190729D01*
X100107356Y-40087769D01*
X100010536Y-39982136D01*
X99906341Y-39884407D01*
X99805769Y-39805156D01*
X99745725Y-39767572D01*
X99558407Y-39690023D01*
X99359801Y-39650476D01*
X99155343Y-39648045D01*
X98950469Y-39681842D01*
X98750612Y-39750979D01*
X98561208Y-39854569D01*
X98390757Y-39988857D01*
X98223745Y-40173172D01*
X98088182Y-40384220D01*
X97985641Y-40618745D01*
X97917696Y-40873488D01*
X97896617Y-41012347D01*
X97884550Y-41128731D01*
X97879035Y-41221978D01*
X97880179Y-41309053D01*
X97888093Y-41406920D01*
X97899797Y-41507834D01*
X97944880Y-41736311D01*
X98020793Y-41960264D01*
X98123097Y-42170031D01*
X98247351Y-42355952D01*
X98336723Y-42458356D01*
X98515697Y-42613412D01*
X98709626Y-42730696D01*
X98914897Y-42810478D01*
X99127896Y-42853030D01*
X99314450Y-42857834D01*
X99314450Y-42203783D01*
X99142345Y-42178882D01*
X98977341Y-42115508D01*
X98822812Y-42013164D01*
X98777072Y-41972988D01*
X98645876Y-41822205D01*
X98549536Y-41650160D01*
X98489454Y-41461535D01*
X98467031Y-41261009D01*
X98483670Y-41053263D01*
X98490653Y-41016751D01*
X98535561Y-40870483D01*
X98605989Y-40723542D01*
X98692876Y-40593423D01*
X98734983Y-40544966D01*
X98860404Y-40440519D01*
X99002391Y-40367505D01*
X99153267Y-40327667D01*
X99305358Y-40322750D01*
X99450986Y-40354499D01*
X99494346Y-40372397D01*
X99569982Y-40414426D01*
X99640777Y-40469584D01*
X99709261Y-40541701D01*
X99777966Y-40634607D01*
X99849420Y-40752131D01*
X99926153Y-40898102D01*
X100010696Y-41076351D01*
X100105579Y-41290708D01*
X100114157Y-41310614D01*
X100261517Y-41653143D01*
X100163467Y-41768599D01*
X100006440Y-41928604D01*
X99839652Y-42052622D01*
X99666476Y-42140156D01*
X99490285Y-42190709D01*
X99314450Y-42203783D01*
X99314450Y-42857834D01*
X99345008Y-42858621D01*
X99562620Y-42827523D01*
X99777116Y-42760005D01*
X99984884Y-42656340D01*
X100182308Y-42516797D01*
X100365774Y-42341647D01*
X100399154Y-42303903D01*
X100456743Y-42238568D01*
X100504292Y-42187551D01*
X100535031Y-42157971D01*
X100542265Y-42153417D01*
X100561229Y-42168565D01*
X100599458Y-42208772D01*
X100649588Y-42266186D01*
X100663634Y-42282927D01*
X100814842Y-42433453D01*
X100985914Y-42548373D01*
X101172611Y-42626882D01*
X101370690Y-42668173D01*
X101473000Y-42669801D01*
X101473000Y-42024152D01*
X101353921Y-42015126D01*
X101245979Y-41986046D01*
X101146425Y-41934008D01*
X101052504Y-41856107D01*
X100961465Y-41749437D01*
X100870555Y-41611096D01*
X100777022Y-41438178D01*
X100678113Y-41227778D01*
X100643430Y-41148715D01*
X100596428Y-41039257D01*
X100555867Y-40943386D01*
X100524537Y-40867813D01*
X100505227Y-40819246D01*
X100500308Y-40804534D01*
X100515148Y-40784444D01*
X100554824Y-40747246D01*
X100604934Y-40705680D01*
X100809015Y-40566094D01*
X101014620Y-40468785D01*
X101221830Y-40413723D01*
X101377750Y-40400138D01*
X101542197Y-40409954D01*
X101680179Y-40445647D01*
X101800922Y-40510324D01*
X101871167Y-40566340D01*
X101973536Y-40685492D01*
X102049927Y-40830490D01*
X102100003Y-40993495D01*
X102123424Y-41166667D01*
X102119851Y-41342166D01*
X102088945Y-41512152D01*
X102030367Y-41668786D01*
X101943777Y-41804226D01*
X101925616Y-41825278D01*
X101810257Y-41928254D01*
X101682312Y-41992811D01*
X101535206Y-42021837D01*
X101473000Y-42024152D01*
X101473000Y-42669801D01*
X101575910Y-42671440D01*
X101784029Y-42635876D01*
X101990807Y-42560676D01*
X102028517Y-42542384D01*
X102172621Y-42450081D01*
X102310172Y-42325352D01*
X102431787Y-42178010D01*
X102526085Y-42021906D01*
X102590143Y-41879726D01*
X102636274Y-41741717D01*
X102666691Y-41596885D01*
X102683607Y-41434237D01*
X102689236Y-41242781D01*
X102689246Y-41211500D01*
X102685361Y-41034871D01*
G37*
X102685361Y-41034871D02*
X102673007Y-40887750D01*
X102649533Y-40757717D01*
X102612290Y-40632349D01*
X102558627Y-40499225D01*
X102519062Y-40413830D01*
X102406329Y-40223136D01*
X102265887Y-40060344D01*
X102101699Y-39928672D01*
X101917726Y-39831336D01*
X101731250Y-39774220D01*
X101587081Y-39755671D01*
X101424458Y-39752783D01*
X101264107Y-39765186D01*
X101156853Y-39784526D01*
X101038956Y-39821083D01*
X100904896Y-39875872D01*
X100763649Y-39943899D01*
X100624188Y-40020171D01*
X100495490Y-40099696D01*
X100386527Y-40177480D01*
X100306276Y-40248530D01*
X100289936Y-40266824D01*
X100271704Y-40282812D01*
X100252699Y-40278384D01*
X100225672Y-40248244D01*
X100185802Y-40190729D01*
X100107356Y-40087769D01*
X100010536Y-39982136D01*
X99906341Y-39884407D01*
X99805769Y-39805156D01*
X99745725Y-39767572D01*
X99558407Y-39690023D01*
X99359801Y-39650476D01*
X99155343Y-39648045D01*
X98950469Y-39681842D01*
X98750612Y-39750979D01*
X98561208Y-39854569D01*
X98390757Y-39988857D01*
X98223745Y-40173172D01*
X98088182Y-40384220D01*
X97985641Y-40618745D01*
X97917696Y-40873488D01*
X97896617Y-41012347D01*
X97884550Y-41128731D01*
X97879035Y-41221978D01*
X97880179Y-41309053D01*
X97888093Y-41406920D01*
X97899797Y-41507834D01*
X97944880Y-41736311D01*
X98020793Y-41960264D01*
X98123097Y-42170031D01*
X98247351Y-42355952D01*
X98336723Y-42458356D01*
X98515697Y-42613412D01*
X98709626Y-42730696D01*
X98914897Y-42810478D01*
X99127896Y-42853030D01*
X99314450Y-42857834D01*
X99314450Y-42203783D01*
X99142345Y-42178882D01*
X98977341Y-42115508D01*
X98822812Y-42013164D01*
X98777072Y-41972988D01*
X98645876Y-41822205D01*
X98549536Y-41650160D01*
X98489454Y-41461535D01*
X98467031Y-41261009D01*
X98483670Y-41053263D01*
X98490653Y-41016751D01*
X98535561Y-40870483D01*
X98605989Y-40723542D01*
X98692876Y-40593423D01*
X98734983Y-40544966D01*
X98860404Y-40440519D01*
X99002391Y-40367505D01*
X99153267Y-40327667D01*
X99305358Y-40322750D01*
X99450986Y-40354499D01*
X99494346Y-40372397D01*
X99569982Y-40414426D01*
X99640777Y-40469584D01*
X99709261Y-40541701D01*
X99777966Y-40634607D01*
X99849420Y-40752131D01*
X99926153Y-40898102D01*
X100010696Y-41076351D01*
X100105579Y-41290708D01*
X100114157Y-41310614D01*
X100261517Y-41653143D01*
X100163467Y-41768599D01*
X100006440Y-41928604D01*
X99839652Y-42052622D01*
X99666476Y-42140156D01*
X99490285Y-42190709D01*
X99314450Y-42203783D01*
X99314450Y-42857834D01*
X99345008Y-42858621D01*
X99562620Y-42827523D01*
X99777116Y-42760005D01*
X99984884Y-42656340D01*
X100182308Y-42516797D01*
X100365774Y-42341647D01*
X100399154Y-42303903D01*
X100456743Y-42238568D01*
X100504292Y-42187551D01*
X100535031Y-42157971D01*
X100542265Y-42153417D01*
X100561229Y-42168565D01*
X100599458Y-42208772D01*
X100649588Y-42266186D01*
X100663634Y-42282927D01*
X100814842Y-42433453D01*
X100985914Y-42548373D01*
X101172611Y-42626882D01*
X101370690Y-42668173D01*
X101473000Y-42669801D01*
X101473000Y-42024152D01*
X101353921Y-42015126D01*
X101245979Y-41986046D01*
X101146425Y-41934008D01*
X101052504Y-41856107D01*
X100961465Y-41749437D01*
X100870555Y-41611096D01*
X100777022Y-41438178D01*
X100678113Y-41227778D01*
X100643430Y-41148715D01*
X100596428Y-41039257D01*
X100555867Y-40943386D01*
X100524537Y-40867813D01*
X100505227Y-40819246D01*
X100500308Y-40804534D01*
X100515148Y-40784444D01*
X100554824Y-40747246D01*
X100604934Y-40705680D01*
X100809015Y-40566094D01*
X101014620Y-40468785D01*
X101221830Y-40413723D01*
X101377750Y-40400138D01*
X101542197Y-40409954D01*
X101680179Y-40445647D01*
X101800922Y-40510324D01*
X101871167Y-40566340D01*
X101973536Y-40685492D01*
X102049927Y-40830490D01*
X102100003Y-40993495D01*
X102123424Y-41166667D01*
X102119851Y-41342166D01*
X102088945Y-41512152D01*
X102030367Y-41668786D01*
X101943777Y-41804226D01*
X101925616Y-41825278D01*
X101810257Y-41928254D01*
X101682312Y-41992811D01*
X101535206Y-42021837D01*
X101473000Y-42024152D01*
X101473000Y-42669801D01*
X101575910Y-42671440D01*
X101784029Y-42635876D01*
X101990807Y-42560676D01*
X102028517Y-42542384D01*
X102172621Y-42450081D01*
X102310172Y-42325352D01*
X102431787Y-42178010D01*
X102526085Y-42021906D01*
X102590143Y-41879726D01*
X102636274Y-41741717D01*
X102666691Y-41596885D01*
X102683607Y-41434237D01*
X102689236Y-41242781D01*
X102689246Y-41211500D01*
X102685361Y-41034871D01*
G36*
X102616000Y-43965528D02*
G01*
X102568136Y-43909882D01*
X102509472Y-43868785D01*
X102426945Y-43844683D01*
X102332396Y-43837138D01*
X102237669Y-43845715D01*
X102154606Y-43869977D01*
X102095050Y-43909488D01*
X102081380Y-43927821D01*
X102073907Y-43953903D01*
X102067386Y-44006005D01*
X102061705Y-44086757D01*
X102056754Y-44198786D01*
X102052421Y-44344723D01*
X102048595Y-44527196D01*
X102045164Y-44748834D01*
X102044500Y-44799250D01*
X102033917Y-45624750D01*
X101441250Y-45691482D01*
X101288003Y-45708584D01*
X101149165Y-45723785D01*
X101030094Y-45736521D01*
X100936143Y-45746230D01*
X100872668Y-45752350D01*
X100845024Y-45754318D01*
X100844280Y-45754206D01*
X100848814Y-45733952D01*
X100864777Y-45684322D01*
X100888834Y-45615618D01*
X100891547Y-45608124D01*
X100948114Y-45393978D01*
X100969235Y-45159880D01*
X100961090Y-44960327D01*
X100918296Y-44703232D01*
X100840181Y-44463543D01*
X100729131Y-44244395D01*
X100587533Y-44048928D01*
X100417774Y-43880279D01*
X100222239Y-43741584D01*
X100003316Y-43635981D01*
X99935345Y-43611847D01*
X99857044Y-43587251D01*
X99790851Y-43570282D01*
X99725629Y-43559579D01*
X99650238Y-43553778D01*
X99553542Y-43551519D01*
X99441000Y-43551381D01*
X99315675Y-43552460D01*
X99221928Y-43555689D01*
X99149014Y-43562415D01*
X99086184Y-43573988D01*
X99022693Y-43591756D01*
X98964750Y-43611146D01*
X98722418Y-43715762D01*
X98509022Y-43851276D01*
X98324512Y-44017731D01*
X98168842Y-44215169D01*
X98054648Y-44416700D01*
X97983324Y-44598109D01*
X97929527Y-44803004D01*
X97895520Y-45017205D01*
X97883566Y-45226534D01*
X97895485Y-45413676D01*
X97943707Y-45650609D01*
X98018889Y-45878987D01*
X98117370Y-46091194D01*
X98235489Y-46279618D01*
X98369586Y-46436643D01*
X98401958Y-46467205D01*
X98470379Y-46519896D01*
X98532314Y-46542542D01*
X98597129Y-46534695D01*
X98674192Y-46495903D01*
X98739174Y-46451029D01*
X98837220Y-46373133D01*
X98898558Y-46306556D01*
X98924479Y-46243953D01*
X98916270Y-46177978D01*
X98875221Y-46101286D01*
X98814610Y-46021127D01*
X98676851Y-45824335D01*
X98580881Y-45622848D01*
X98526280Y-45415190D01*
X98512625Y-45199885D01*
X98530288Y-45024737D01*
X98580982Y-44839501D01*
X98665915Y-44665852D01*
X98779822Y-44510938D01*
X98917439Y-44381904D01*
X99073500Y-44285896D01*
X99075215Y-44285090D01*
X99131746Y-44260285D01*
X99182610Y-44243849D01*
X99238928Y-44234088D01*
X99311822Y-44229307D01*
X99412414Y-44227812D01*
X99451584Y-44227750D01*
X99561114Y-44228353D01*
X99639628Y-44231465D01*
X99698439Y-44239043D01*
X99748861Y-44253045D01*
X99802206Y-44275427D01*
X99844438Y-44295704D01*
X100008900Y-44399022D01*
X100146968Y-44533283D01*
X100256502Y-44694732D01*
X100335363Y-44879616D01*
X100381412Y-45084181D01*
X100393188Y-45258584D01*
X100387294Y-45404573D01*
X100366767Y-45538663D01*
X100328242Y-45676602D01*
X100272197Y-45824850D01*
X100233869Y-45924498D01*
X100212756Y-45999265D01*
X100205960Y-46061519D01*
X100207739Y-46100016D01*
X100233068Y-46219810D01*
X100281451Y-46315967D01*
X100348901Y-46380918D01*
X100358766Y-46386624D01*
X100376241Y-46395223D01*
X100395886Y-46401829D01*
X100421565Y-46406212D01*
X100457138Y-46408142D01*
X100506468Y-46407391D01*
X100573415Y-46403727D01*
X100661841Y-46396922D01*
X100775609Y-46386745D01*
X100918579Y-46372968D01*
X101094613Y-46355360D01*
X101307573Y-46333691D01*
X101389526Y-46325312D01*
X101634792Y-46300234D01*
X101841442Y-46279028D01*
X102012967Y-46261180D01*
X102152859Y-46246178D01*
X102264607Y-46233510D01*
X102351703Y-46222662D01*
X102417636Y-46213122D01*
X102465898Y-46204377D01*
X102499979Y-46195914D01*
X102523370Y-46187222D01*
X102539560Y-46177787D01*
X102552042Y-46167096D01*
X102564305Y-46154637D01*
X102566480Y-46152445D01*
X102616001Y-46102925D01*
X102616001Y-45034226D01*
X102616000Y-43965528D01*
G37*
X102616000Y-43965528D02*
X102568136Y-43909882D01*
X102509472Y-43868785D01*
X102426945Y-43844683D01*
X102332396Y-43837138D01*
X102237669Y-43845715D01*
X102154606Y-43869977D01*
X102095050Y-43909488D01*
X102081380Y-43927821D01*
X102073907Y-43953903D01*
X102067386Y-44006005D01*
X102061705Y-44086757D01*
X102056754Y-44198786D01*
X102052421Y-44344723D01*
X102048595Y-44527196D01*
X102045164Y-44748834D01*
X102044500Y-44799250D01*
X102033917Y-45624750D01*
X101441250Y-45691482D01*
X101288003Y-45708584D01*
X101149165Y-45723785D01*
X101030094Y-45736521D01*
X100936143Y-45746230D01*
X100872668Y-45752350D01*
X100845024Y-45754318D01*
X100844280Y-45754206D01*
X100848814Y-45733952D01*
X100864777Y-45684322D01*
X100888834Y-45615618D01*
X100891547Y-45608124D01*
X100948114Y-45393978D01*
X100969235Y-45159880D01*
X100961090Y-44960327D01*
X100918296Y-44703232D01*
X100840181Y-44463543D01*
X100729131Y-44244395D01*
X100587533Y-44048928D01*
X100417774Y-43880279D01*
X100222239Y-43741584D01*
X100003316Y-43635981D01*
X99935345Y-43611847D01*
X99857044Y-43587251D01*
X99790851Y-43570282D01*
X99725629Y-43559579D01*
X99650238Y-43553778D01*
X99553542Y-43551519D01*
X99441000Y-43551381D01*
X99315675Y-43552460D01*
X99221928Y-43555689D01*
X99149014Y-43562415D01*
X99086184Y-43573988D01*
X99022693Y-43591756D01*
X98964750Y-43611146D01*
X98722418Y-43715762D01*
X98509022Y-43851276D01*
X98324512Y-44017731D01*
X98168842Y-44215169D01*
X98054648Y-44416700D01*
X97983324Y-44598109D01*
X97929527Y-44803004D01*
X97895520Y-45017205D01*
X97883566Y-45226534D01*
X97895485Y-45413676D01*
X97943707Y-45650609D01*
X98018889Y-45878987D01*
X98117370Y-46091194D01*
X98235489Y-46279618D01*
X98369586Y-46436643D01*
X98401958Y-46467205D01*
X98470379Y-46519896D01*
X98532314Y-46542542D01*
X98597129Y-46534695D01*
X98674192Y-46495903D01*
X98739174Y-46451029D01*
X98837220Y-46373133D01*
X98898558Y-46306556D01*
X98924479Y-46243953D01*
X98916270Y-46177978D01*
X98875221Y-46101286D01*
X98814610Y-46021127D01*
X98676851Y-45824335D01*
X98580881Y-45622848D01*
X98526280Y-45415190D01*
X98512625Y-45199885D01*
X98530288Y-45024737D01*
X98580982Y-44839501D01*
X98665915Y-44665852D01*
X98779822Y-44510938D01*
X98917439Y-44381904D01*
X99073500Y-44285896D01*
X99075215Y-44285090D01*
X99131746Y-44260285D01*
X99182610Y-44243849D01*
X99238928Y-44234088D01*
X99311822Y-44229307D01*
X99412414Y-44227812D01*
X99451584Y-44227750D01*
X99561114Y-44228353D01*
X99639628Y-44231465D01*
X99698439Y-44239043D01*
X99748861Y-44253045D01*
X99802206Y-44275427D01*
X99844438Y-44295704D01*
X100008900Y-44399022D01*
X100146968Y-44533283D01*
X100256502Y-44694732D01*
X100335363Y-44879616D01*
X100381412Y-45084181D01*
X100393188Y-45258584D01*
X100387294Y-45404573D01*
X100366767Y-45538663D01*
X100328242Y-45676602D01*
X100272197Y-45824850D01*
X100233869Y-45924498D01*
X100212756Y-45999265D01*
X100205960Y-46061519D01*
X100207739Y-46100016D01*
X100233068Y-46219810D01*
X100281451Y-46315967D01*
X100348901Y-46380918D01*
X100358766Y-46386624D01*
X100376241Y-46395223D01*
X100395886Y-46401829D01*
X100421565Y-46406212D01*
X100457138Y-46408142D01*
X100506468Y-46407391D01*
X100573415Y-46403727D01*
X100661841Y-46396922D01*
X100775609Y-46386745D01*
X100918579Y-46372968D01*
X101094613Y-46355360D01*
X101307573Y-46333691D01*
X101389526Y-46325312D01*
X101634792Y-46300234D01*
X101841442Y-46279028D01*
X102012967Y-46261180D01*
X102152859Y-46246178D01*
X102264607Y-46233510D01*
X102351703Y-46222662D01*
X102417636Y-46213122D01*
X102465898Y-46204377D01*
X102499979Y-46195914D01*
X102523370Y-46187222D01*
X102539560Y-46177787D01*
X102552042Y-46167096D01*
X102564305Y-46154637D01*
X102566480Y-46152445D01*
X102616001Y-46102925D01*
X102616001Y-45034226D01*
X102616000Y-43965528D01*
G36*
X103960084Y-61391046D02*
G01*
X103631277Y-61097675D01*
X103295242Y-60839395D01*
X102953807Y-60616870D01*
X102608803Y-60430762D01*
X102262056Y-60281734D01*
X101915396Y-60170449D01*
X101570651Y-60097569D01*
X101229650Y-60063756D01*
X100894222Y-60069675D01*
X100566195Y-60115986D01*
X100488893Y-60133156D01*
X100407080Y-60151440D01*
X100359342Y-60158411D01*
X100339076Y-60154473D01*
X100338699Y-60142363D01*
X100348161Y-60109028D01*
X100363462Y-60046070D01*
X100381768Y-59965301D01*
X100387587Y-59938598D01*
X100402382Y-59858056D01*
X100412965Y-59769147D01*
X100419859Y-59663596D01*
X100423586Y-59533125D01*
X100424668Y-59369458D01*
X100424652Y-59351334D01*
X100422548Y-59167617D01*
X100415475Y-59013954D01*
X100401412Y-58878363D01*
X100378334Y-58748864D01*
X100344220Y-58613475D01*
X100297047Y-58460216D01*
X100251332Y-58324750D01*
X100130151Y-58022284D01*
X99973772Y-57711038D01*
X99786429Y-57397640D01*
X99572353Y-57088715D01*
X99335777Y-56790892D01*
X99115693Y-56546750D01*
X98933267Y-56356250D01*
X98711622Y-56584426D01*
X98447007Y-56878354D01*
X98208732Y-57186881D01*
X97998403Y-57506376D01*
X97817629Y-57833208D01*
X97668016Y-58163747D01*
X97551174Y-58494360D01*
X97468708Y-58821417D01*
X97422228Y-59141287D01*
X97413340Y-59450338D01*
X97416204Y-59510356D01*
X97455604Y-59840027D01*
X97532964Y-60178282D01*
X97646314Y-60519639D01*
X97793686Y-60858618D01*
X97973110Y-61189739D01*
X98081129Y-61361081D01*
X98227801Y-61582245D01*
X98159183Y-61672139D01*
X98022519Y-61870895D01*
X97889525Y-62101345D01*
X97764953Y-62352864D01*
X97653555Y-62614829D01*
X97560086Y-62876613D01*
X97489298Y-63127592D01*
X97470718Y-63211123D01*
X97446826Y-63358866D01*
X97429534Y-63529506D01*
X97419435Y-63709210D01*
X97417118Y-63884146D01*
X97423175Y-64040481D01*
X97431723Y-64124417D01*
X97482866Y-64398695D01*
X97561208Y-64687169D01*
X97662189Y-64976044D01*
X97781246Y-65251527D01*
X97848211Y-65383834D01*
X97979851Y-65611801D01*
X98134169Y-65848925D01*
X98303403Y-66084736D01*
X98479796Y-66308767D01*
X98655588Y-66510548D01*
X98773840Y-66632667D01*
X98935933Y-66791417D01*
X98936881Y-66790429D01*
X98936881Y-66113573D01*
X98890075Y-66071495D01*
X98844021Y-66024022D01*
X98779730Y-65949541D01*
X98703209Y-65855746D01*
X98620466Y-65750334D01*
X98537509Y-65640999D01*
X98460345Y-65535437D01*
X98394984Y-65441341D01*
X98377980Y-65415584D01*
X98222494Y-65156757D01*
X98085497Y-64889353D01*
X97970712Y-64622038D01*
X97881861Y-64363478D01*
X97822839Y-64123256D01*
X97803957Y-63976314D01*
X97795468Y-63801498D01*
X97796904Y-63611851D01*
X97807794Y-63420416D01*
X97827671Y-63240235D01*
X97856064Y-63084350D01*
X97860918Y-63064308D01*
X97955208Y-62756925D01*
X98084462Y-62447455D01*
X98250792Y-62131103D01*
X98331457Y-61996254D01*
X98429129Y-61852672D01*
X98472773Y-61803687D01*
X98472773Y-61353682D01*
X98467723Y-61351824D01*
X98443231Y-61324668D01*
X98403426Y-61267022D01*
X98352477Y-61185979D01*
X98294552Y-61088633D01*
X98233819Y-60982080D01*
X98174447Y-60873412D01*
X98120604Y-60769725D01*
X98094470Y-60716584D01*
X97976826Y-60448593D01*
X97890172Y-60196883D01*
X97832090Y-59951730D01*
X97800164Y-59703413D01*
X97791852Y-59499500D01*
X97794267Y-59362806D01*
X97802379Y-59223703D01*
X97814969Y-59100021D01*
X97822637Y-59049110D01*
X97889536Y-58766800D01*
X97992402Y-58472544D01*
X98128567Y-58171701D01*
X98295364Y-57869628D01*
X98490124Y-57571683D01*
X98689332Y-57308750D01*
X98755492Y-57228474D01*
X98816371Y-57156910D01*
X98864554Y-57102638D01*
X98889872Y-57076622D01*
X98935887Y-57034993D01*
X99009018Y-57118955D01*
X99260155Y-57428265D01*
X99481349Y-57744173D01*
X99670502Y-58062808D01*
X99825514Y-58380299D01*
X99944284Y-58692772D01*
X100023311Y-58989511D01*
X100058612Y-59235810D01*
X100068473Y-59497873D01*
X100053470Y-59761799D01*
X100014185Y-60013691D01*
X99974137Y-60170216D01*
X99937000Y-60292197D01*
X99641375Y-60441661D01*
X99418220Y-60558760D01*
X99231740Y-60666597D01*
X99078101Y-60768204D01*
X98953470Y-60866615D01*
X98854014Y-60964862D01*
X98775899Y-61065977D01*
X98715292Y-61172993D01*
X98714315Y-61175040D01*
X98676109Y-61250505D01*
X98644518Y-61296588D01*
X98610639Y-61323293D01*
X98567440Y-61340062D01*
X98511598Y-61352613D01*
X98472773Y-61353682D01*
X98472773Y-61803687D01*
X98524751Y-61745346D01*
X98625455Y-61669207D01*
X98738374Y-61619185D01*
X98870639Y-61590212D01*
X98909431Y-61585463D01*
X99077205Y-61554316D01*
X99218116Y-61496834D01*
X99339774Y-61408301D01*
X99449790Y-61284001D01*
X99491083Y-61224962D01*
X99530113Y-61162319D01*
X99545247Y-61121563D01*
X99532352Y-61098487D01*
X99487294Y-61088880D01*
X99405940Y-61088534D01*
X99358717Y-61090186D01*
X99170601Y-61097584D01*
X99289926Y-61017352D01*
X99365415Y-60969069D01*
X99460981Y-60911394D01*
X99559277Y-60854722D01*
X99586671Y-60839489D01*
X99670342Y-60792277D01*
X99726034Y-60755497D01*
X99763284Y-60719963D01*
X99791627Y-60676489D01*
X99820598Y-60615889D01*
X99821983Y-60612804D01*
X99857090Y-60530987D01*
X99888723Y-60451255D01*
X99906055Y-60402680D01*
X99932256Y-60345366D01*
X99974334Y-60307070D01*
X100024530Y-60282047D01*
X100117589Y-60245202D01*
X100200139Y-60218079D01*
X100263393Y-60203137D01*
X100298569Y-60202831D01*
X100301337Y-60204615D01*
X100300965Y-60229399D01*
X100288133Y-60283424D01*
X100265434Y-60356363D01*
X100257429Y-60379429D01*
X100231849Y-60455212D01*
X100214423Y-60514209D01*
X100208016Y-60546437D01*
X100208647Y-60549369D01*
X100231662Y-60548488D01*
X100285165Y-60538557D01*
X100358780Y-60521583D01*
X100380051Y-60516233D01*
X100699917Y-60454799D01*
X101020184Y-60434225D01*
X101341473Y-60454677D01*
X101664407Y-60516321D01*
X101989608Y-60619323D01*
X102317699Y-60763847D01*
X102649303Y-60950061D01*
X102985040Y-61178128D01*
X103049917Y-61226637D01*
X103145385Y-61300052D01*
X103237854Y-61372917D01*
X103317349Y-61437260D01*
X103373891Y-61485110D01*
X103378000Y-61488772D01*
X103473250Y-61574286D01*
X103388584Y-61649498D01*
X103173088Y-61829271D01*
X102935168Y-62007463D01*
X102690144Y-62173189D01*
X102453334Y-62315566D01*
X102443152Y-62321230D01*
X102375874Y-62356617D01*
X102293728Y-62397040D01*
X102205078Y-62438744D01*
X102118290Y-62477973D01*
X102041730Y-62510970D01*
X101983761Y-62533979D01*
X101952750Y-62543246D01*
X101949892Y-62542704D01*
X101747585Y-62276455D01*
X101511314Y-62028237D01*
X101247571Y-61803615D01*
X100962846Y-61608150D01*
X100681721Y-61455898D01*
X100615951Y-61426972D01*
X100526561Y-61390736D01*
X100421400Y-61350038D01*
X100308318Y-61307726D01*
X100195165Y-61266650D01*
X100089791Y-61229658D01*
X100000048Y-61199598D01*
X99933784Y-61179320D01*
X99898850Y-61171672D01*
X99898450Y-61171667D01*
X99882462Y-61188018D01*
X99852427Y-61230061D01*
X99814914Y-61287279D01*
X99776492Y-61349156D01*
X99743731Y-61405177D01*
X99723199Y-61444824D01*
X99719852Y-61457575D01*
X99743079Y-61467248D01*
X99797477Y-61485302D01*
X99873473Y-61508636D01*
X99917945Y-61521712D01*
X100267153Y-61640951D01*
X100584167Y-61787335D01*
X100869803Y-61961683D01*
X101124876Y-62164815D01*
X101350202Y-62397551D01*
X101546596Y-62660710D01*
X101714872Y-62955111D01*
X101855845Y-63281575D01*
X101948681Y-63563500D01*
X102011333Y-63809755D01*
X102063582Y-64074725D01*
X102102104Y-64339254D01*
X102122584Y-64566076D01*
X102135916Y-64796068D01*
X102032000Y-64783929D01*
X101954188Y-64775539D01*
X101857562Y-64766066D01*
X101779917Y-64759044D01*
X101579323Y-64735763D01*
X101366312Y-64700373D01*
X101150194Y-64655185D01*
X100940281Y-64602511D01*
X100745885Y-64544664D01*
X100576317Y-64483956D01*
X100455374Y-64430175D01*
X100379664Y-64391879D01*
X100409161Y-64226398D01*
X100421791Y-64120489D01*
X100428923Y-63983768D01*
X100430833Y-63827362D01*
X100427799Y-63662398D01*
X100420098Y-63500001D01*
X100408005Y-63351297D01*
X100391799Y-63227413D01*
X100383188Y-63182500D01*
X100307665Y-62903048D01*
X100202948Y-62610448D01*
X100074254Y-62316213D01*
X99926795Y-62031857D01*
X99765786Y-61768895D01*
X99700100Y-61674145D01*
X99627557Y-61573373D01*
X99522750Y-61656821D01*
X99464030Y-61701854D01*
X99416404Y-61735296D01*
X99393118Y-61748545D01*
X99392577Y-61769016D01*
X99414757Y-61818749D01*
X99457284Y-61892911D01*
X99488362Y-61942173D01*
X99673375Y-62255459D01*
X99824529Y-62570633D01*
X99940741Y-62884228D01*
X100020925Y-63192776D01*
X100063999Y-63492811D01*
X100068878Y-63780864D01*
X100068014Y-63796334D01*
X100032186Y-64087906D01*
X99960055Y-64391086D01*
X99853749Y-64699728D01*
X99715395Y-65007686D01*
X99547122Y-65308816D01*
X99540779Y-65319055D01*
X99484882Y-65404017D01*
X99409556Y-65511620D01*
X99322273Y-65631818D01*
X99230509Y-65754570D01*
X99141737Y-65869830D01*
X99063431Y-65967555D01*
X99020229Y-66018579D01*
X98936881Y-66113573D01*
X98936881Y-66790429D01*
X99114924Y-66604699D01*
X99344607Y-66349444D01*
X99560594Y-66078627D01*
X99757948Y-65799590D01*
X99931733Y-65519678D01*
X100077014Y-65246233D01*
X100170404Y-65034530D01*
X100205001Y-64947600D01*
X100233605Y-64876506D01*
X100252806Y-64829678D01*
X100259090Y-64815370D01*
X100279398Y-64819796D01*
X100331210Y-64837378D01*
X100406806Y-64865350D01*
X100498466Y-64900946D01*
X100503353Y-64902884D01*
X100891109Y-65037183D01*
X101299336Y-65141788D01*
X101717759Y-65214912D01*
X102136105Y-65254766D01*
X102544098Y-65259560D01*
X102550412Y-65259344D01*
X102622406Y-65256834D01*
X102609457Y-64891709D01*
X102602826Y-64750282D01*
X102593173Y-64603586D01*
X102581575Y-64465265D01*
X102569113Y-64348968D01*
X102563044Y-64304334D01*
X102520089Y-64061769D01*
X102464045Y-63811345D01*
X102398048Y-63564404D01*
X102325236Y-63332287D01*
X102248746Y-63126336D01*
X102215901Y-63049524D01*
X102154987Y-62913759D01*
X102327285Y-62844631D01*
X102638141Y-62703270D01*
X102955426Y-62527456D01*
X103271122Y-62322526D01*
X103577211Y-62093821D01*
X103865675Y-61846678D01*
X103960678Y-61757112D01*
X104150583Y-61573395D01*
X103960084Y-61391046D01*
G37*
X103960084Y-61391046D02*
X103631277Y-61097675D01*
X103295242Y-60839395D01*
X102953807Y-60616870D01*
X102608803Y-60430762D01*
X102262056Y-60281734D01*
X101915396Y-60170449D01*
X101570651Y-60097569D01*
X101229650Y-60063756D01*
X100894222Y-60069675D01*
X100566195Y-60115986D01*
X100488893Y-60133156D01*
X100407080Y-60151440D01*
X100359342Y-60158411D01*
X100339076Y-60154473D01*
X100338699Y-60142363D01*
X100348161Y-60109028D01*
X100363462Y-60046070D01*
X100381768Y-59965301D01*
X100387587Y-59938598D01*
X100402382Y-59858056D01*
X100412965Y-59769147D01*
X100419859Y-59663596D01*
X100423586Y-59533125D01*
X100424668Y-59369458D01*
X100424652Y-59351334D01*
X100422548Y-59167617D01*
X100415475Y-59013954D01*
X100401412Y-58878363D01*
X100378334Y-58748864D01*
X100344220Y-58613475D01*
X100297047Y-58460216D01*
X100251332Y-58324750D01*
X100130151Y-58022284D01*
X99973772Y-57711038D01*
X99786429Y-57397640D01*
X99572353Y-57088715D01*
X99335777Y-56790892D01*
X99115693Y-56546750D01*
X98933267Y-56356250D01*
X98711622Y-56584426D01*
X98447007Y-56878354D01*
X98208732Y-57186881D01*
X97998403Y-57506376D01*
X97817629Y-57833208D01*
X97668016Y-58163747D01*
X97551174Y-58494360D01*
X97468708Y-58821417D01*
X97422228Y-59141287D01*
X97413340Y-59450338D01*
X97416204Y-59510356D01*
X97455604Y-59840027D01*
X97532964Y-60178282D01*
X97646314Y-60519639D01*
X97793686Y-60858618D01*
X97973110Y-61189739D01*
X98081129Y-61361081D01*
X98227801Y-61582245D01*
X98159183Y-61672139D01*
X98022519Y-61870895D01*
X97889525Y-62101345D01*
X97764953Y-62352864D01*
X97653555Y-62614829D01*
X97560086Y-62876613D01*
X97489298Y-63127592D01*
X97470718Y-63211123D01*
X97446826Y-63358866D01*
X97429534Y-63529506D01*
X97419435Y-63709210D01*
X97417118Y-63884146D01*
X97423175Y-64040481D01*
X97431723Y-64124417D01*
X97482866Y-64398695D01*
X97561208Y-64687169D01*
X97662189Y-64976044D01*
X97781246Y-65251527D01*
X97848211Y-65383834D01*
X97979851Y-65611801D01*
X98134169Y-65848925D01*
X98303403Y-66084736D01*
X98479796Y-66308767D01*
X98655588Y-66510548D01*
X98773840Y-66632667D01*
X98935933Y-66791417D01*
X98936881Y-66790429D01*
X98936881Y-66113573D01*
X98890075Y-66071495D01*
X98844021Y-66024022D01*
X98779730Y-65949541D01*
X98703209Y-65855746D01*
X98620466Y-65750334D01*
X98537509Y-65640999D01*
X98460345Y-65535437D01*
X98394984Y-65441341D01*
X98377980Y-65415584D01*
X98222494Y-65156757D01*
X98085497Y-64889353D01*
X97970712Y-64622038D01*
X97881861Y-64363478D01*
X97822839Y-64123256D01*
X97803957Y-63976314D01*
X97795468Y-63801498D01*
X97796904Y-63611851D01*
X97807794Y-63420416D01*
X97827671Y-63240235D01*
X97856064Y-63084350D01*
X97860918Y-63064308D01*
X97955208Y-62756925D01*
X98084462Y-62447455D01*
X98250792Y-62131103D01*
X98331457Y-61996254D01*
X98429129Y-61852672D01*
X98472773Y-61803687D01*
X98472773Y-61353682D01*
X98467723Y-61351824D01*
X98443231Y-61324668D01*
X98403426Y-61267022D01*
X98352477Y-61185979D01*
X98294552Y-61088633D01*
X98233819Y-60982080D01*
X98174447Y-60873412D01*
X98120604Y-60769725D01*
X98094470Y-60716584D01*
X97976826Y-60448593D01*
X97890172Y-60196883D01*
X97832090Y-59951730D01*
X97800164Y-59703413D01*
X97791852Y-59499500D01*
X97794267Y-59362806D01*
X97802379Y-59223703D01*
X97814969Y-59100021D01*
X97822637Y-59049110D01*
X97889536Y-58766800D01*
X97992402Y-58472544D01*
X98128567Y-58171701D01*
X98295364Y-57869628D01*
X98490124Y-57571683D01*
X98689332Y-57308750D01*
X98755492Y-57228474D01*
X98816371Y-57156910D01*
X98864554Y-57102638D01*
X98889872Y-57076622D01*
X98935887Y-57034993D01*
X99009018Y-57118955D01*
X99260155Y-57428265D01*
X99481349Y-57744173D01*
X99670502Y-58062808D01*
X99825514Y-58380299D01*
X99944284Y-58692772D01*
X100023311Y-58989511D01*
X100058612Y-59235810D01*
X100068473Y-59497873D01*
X100053470Y-59761799D01*
X100014185Y-60013691D01*
X99974137Y-60170216D01*
X99937000Y-60292197D01*
X99641375Y-60441661D01*
X99418220Y-60558760D01*
X99231740Y-60666597D01*
X99078101Y-60768204D01*
X98953470Y-60866615D01*
X98854014Y-60964862D01*
X98775899Y-61065977D01*
X98715292Y-61172993D01*
X98714315Y-61175040D01*
X98676109Y-61250505D01*
X98644518Y-61296588D01*
X98610639Y-61323293D01*
X98567440Y-61340062D01*
X98511598Y-61352613D01*
X98472773Y-61353682D01*
X98472773Y-61803687D01*
X98524751Y-61745346D01*
X98625455Y-61669207D01*
X98738374Y-61619185D01*
X98870639Y-61590212D01*
X98909431Y-61585463D01*
X99077205Y-61554316D01*
X99218116Y-61496834D01*
X99339774Y-61408301D01*
X99449790Y-61284001D01*
X99491083Y-61224962D01*
X99530113Y-61162319D01*
X99545247Y-61121563D01*
X99532352Y-61098487D01*
X99487294Y-61088880D01*
X99405940Y-61088534D01*
X99358717Y-61090186D01*
X99170601Y-61097584D01*
X99289926Y-61017352D01*
X99365415Y-60969069D01*
X99460981Y-60911394D01*
X99559277Y-60854722D01*
X99586671Y-60839489D01*
X99670342Y-60792277D01*
X99726034Y-60755497D01*
X99763284Y-60719963D01*
X99791627Y-60676489D01*
X99820598Y-60615889D01*
X99821983Y-60612804D01*
X99857090Y-60530987D01*
X99888723Y-60451255D01*
X99906055Y-60402680D01*
X99932256Y-60345366D01*
X99974334Y-60307070D01*
X100024530Y-60282047D01*
X100117589Y-60245202D01*
X100200139Y-60218079D01*
X100263393Y-60203137D01*
X100298569Y-60202831D01*
X100301337Y-60204615D01*
X100300965Y-60229399D01*
X100288133Y-60283424D01*
X100265434Y-60356363D01*
X100257429Y-60379429D01*
X100231849Y-60455212D01*
X100214423Y-60514209D01*
X100208016Y-60546437D01*
X100208647Y-60549369D01*
X100231662Y-60548488D01*
X100285165Y-60538557D01*
X100358780Y-60521583D01*
X100380051Y-60516233D01*
X100699917Y-60454799D01*
X101020184Y-60434225D01*
X101341473Y-60454677D01*
X101664407Y-60516321D01*
X101989608Y-60619323D01*
X102317699Y-60763847D01*
X102649303Y-60950061D01*
X102985040Y-61178128D01*
X103049917Y-61226637D01*
X103145385Y-61300052D01*
X103237854Y-61372917D01*
X103317349Y-61437260D01*
X103373891Y-61485110D01*
X103378000Y-61488772D01*
X103473250Y-61574286D01*
X103388584Y-61649498D01*
X103173088Y-61829271D01*
X102935168Y-62007463D01*
X102690144Y-62173189D01*
X102453334Y-62315566D01*
X102443152Y-62321230D01*
X102375874Y-62356617D01*
X102293728Y-62397040D01*
X102205078Y-62438744D01*
X102118290Y-62477973D01*
X102041730Y-62510970D01*
X101983761Y-62533979D01*
X101952750Y-62543246D01*
X101949892Y-62542704D01*
X101747585Y-62276455D01*
X101511314Y-62028237D01*
X101247571Y-61803615D01*
X100962846Y-61608150D01*
X100681721Y-61455898D01*
X100615951Y-61426972D01*
X100526561Y-61390736D01*
X100421400Y-61350038D01*
X100308318Y-61307726D01*
X100195165Y-61266650D01*
X100089791Y-61229658D01*
X100000048Y-61199598D01*
X99933784Y-61179320D01*
X99898850Y-61171672D01*
X99898450Y-61171667D01*
X99882462Y-61188018D01*
X99852427Y-61230061D01*
X99814914Y-61287279D01*
X99776492Y-61349156D01*
X99743731Y-61405177D01*
X99723199Y-61444824D01*
X99719852Y-61457575D01*
X99743079Y-61467248D01*
X99797477Y-61485302D01*
X99873473Y-61508636D01*
X99917945Y-61521712D01*
X100267153Y-61640951D01*
X100584167Y-61787335D01*
X100869803Y-61961683D01*
X101124876Y-62164815D01*
X101350202Y-62397551D01*
X101546596Y-62660710D01*
X101714872Y-62955111D01*
X101855845Y-63281575D01*
X101948681Y-63563500D01*
X102011333Y-63809755D01*
X102063582Y-64074725D01*
X102102104Y-64339254D01*
X102122584Y-64566076D01*
X102135916Y-64796068D01*
X102032000Y-64783929D01*
X101954188Y-64775539D01*
X101857562Y-64766066D01*
X101779917Y-64759044D01*
X101579323Y-64735763D01*
X101366312Y-64700373D01*
X101150194Y-64655185D01*
X100940281Y-64602511D01*
X100745885Y-64544664D01*
X100576317Y-64483956D01*
X100455374Y-64430175D01*
X100379664Y-64391879D01*
X100409161Y-64226398D01*
X100421791Y-64120489D01*
X100428923Y-63983768D01*
X100430833Y-63827362D01*
X100427799Y-63662398D01*
X100420098Y-63500001D01*
X100408005Y-63351297D01*
X100391799Y-63227413D01*
X100383188Y-63182500D01*
X100307665Y-62903048D01*
X100202948Y-62610448D01*
X100074254Y-62316213D01*
X99926795Y-62031857D01*
X99765786Y-61768895D01*
X99700100Y-61674145D01*
X99627557Y-61573373D01*
X99522750Y-61656821D01*
X99464030Y-61701854D01*
X99416404Y-61735296D01*
X99393118Y-61748545D01*
X99392577Y-61769016D01*
X99414757Y-61818749D01*
X99457284Y-61892911D01*
X99488362Y-61942173D01*
X99673375Y-62255459D01*
X99824529Y-62570633D01*
X99940741Y-62884228D01*
X100020925Y-63192776D01*
X100063999Y-63492811D01*
X100068878Y-63780864D01*
X100068014Y-63796334D01*
X100032186Y-64087906D01*
X99960055Y-64391086D01*
X99853749Y-64699728D01*
X99715395Y-65007686D01*
X99547122Y-65308816D01*
X99540779Y-65319055D01*
X99484882Y-65404017D01*
X99409556Y-65511620D01*
X99322273Y-65631818D01*
X99230509Y-65754570D01*
X99141737Y-65869830D01*
X99063431Y-65967555D01*
X99020229Y-66018579D01*
X98936881Y-66113573D01*
X98936881Y-66790429D01*
X99114924Y-66604699D01*
X99344607Y-66349444D01*
X99560594Y-66078627D01*
X99757948Y-65799590D01*
X99931733Y-65519678D01*
X100077014Y-65246233D01*
X100170404Y-65034530D01*
X100205001Y-64947600D01*
X100233605Y-64876506D01*
X100252806Y-64829678D01*
X100259090Y-64815370D01*
X100279398Y-64819796D01*
X100331210Y-64837378D01*
X100406806Y-64865350D01*
X100498466Y-64900946D01*
X100503353Y-64902884D01*
X100891109Y-65037183D01*
X101299336Y-65141788D01*
X101717759Y-65214912D01*
X102136105Y-65254766D01*
X102544098Y-65259560D01*
X102550412Y-65259344D01*
X102622406Y-65256834D01*
X102609457Y-64891709D01*
X102602826Y-64750282D01*
X102593173Y-64603586D01*
X102581575Y-64465265D01*
X102569113Y-64348968D01*
X102563044Y-64304334D01*
X102520089Y-64061769D01*
X102464045Y-63811345D01*
X102398048Y-63564404D01*
X102325236Y-63332287D01*
X102248746Y-63126336D01*
X102215901Y-63049524D01*
X102154987Y-62913759D01*
X102327285Y-62844631D01*
X102638141Y-62703270D01*
X102955426Y-62527456D01*
X103271122Y-62322526D01*
X103577211Y-62093821D01*
X103865675Y-61846678D01*
X103960678Y-61757112D01*
X104150583Y-61573395D01*
X103960084Y-61391046D01*
G36*
X101325821Y-47339612D02*
G01*
X101324845Y-47291423D01*
X101324834Y-47286423D01*
X101322969Y-47203784D01*
X101315153Y-47150440D01*
X101298056Y-47113436D01*
X101272879Y-47084288D01*
X101221544Y-47048213D01*
X101168782Y-47032367D01*
X101166821Y-47032334D01*
X101138003Y-47040329D01*
X101073358Y-47063438D01*
X100976073Y-47100346D01*
X100849337Y-47149737D01*
X100696338Y-47210296D01*
X100520264Y-47280708D01*
X100324303Y-47359659D01*
X100111643Y-47445832D01*
X99885472Y-47537913D01*
X99648979Y-47634586D01*
X99405350Y-47734537D01*
X99157775Y-47836450D01*
X98909441Y-47939009D01*
X98663537Y-48040901D01*
X98423250Y-48140809D01*
X98191768Y-48237419D01*
X97972281Y-48329415D01*
X97767975Y-48415483D01*
X97582038Y-48494306D01*
X97417660Y-48564570D01*
X97278028Y-48624960D01*
X97166329Y-48674161D01*
X97085752Y-48710857D01*
X97039486Y-48733733D01*
X97032649Y-48737787D01*
X96865600Y-48870406D01*
X96731050Y-49023896D01*
X96630653Y-49193871D01*
X96566063Y-49375947D01*
X96538933Y-49565738D01*
X96550918Y-49758860D01*
X96589635Y-49912383D01*
X96634951Y-50030435D01*
X96679389Y-50112478D01*
X96726893Y-50164560D01*
X96769816Y-50188742D01*
X96849191Y-50198077D01*
X96938468Y-50174420D01*
X97026216Y-50121344D01*
X97049350Y-50101330D01*
X97092272Y-50055522D01*
X97109012Y-50013579D01*
X97107517Y-49954323D01*
X97106841Y-49948135D01*
X97092186Y-49869483D01*
X97068127Y-49784451D01*
X97060405Y-49762834D01*
X97032462Y-49633824D01*
X97045216Y-49505211D01*
X97097175Y-49380895D01*
X97186849Y-49264778D01*
X97282334Y-49182176D01*
X97344068Y-49142529D01*
X97429108Y-49095790D01*
X97529642Y-49045404D01*
X97637860Y-48994818D01*
X97745954Y-48947476D01*
X97846113Y-48906826D01*
X97930528Y-48876311D01*
X97991387Y-48859379D01*
X98017495Y-48857821D01*
X98042428Y-48867465D01*
X98103328Y-48892313D01*
X98197164Y-48931099D01*
X98320904Y-48982554D01*
X98471519Y-49045411D01*
X98645976Y-49118405D01*
X98841246Y-49200267D01*
X99054297Y-49289730D01*
X99282098Y-49385527D01*
X99521619Y-49486391D01*
X99596109Y-49517788D01*
X99885432Y-49639746D01*
X100138304Y-49746174D01*
X100357304Y-49837939D01*
X100545010Y-49915906D01*
X100704001Y-49980943D01*
X100836854Y-50033916D01*
X100946149Y-50075693D01*
X101034463Y-50107141D01*
X101104374Y-50129126D01*
X101158461Y-50142515D01*
X101199302Y-50148175D01*
X101229475Y-50146973D01*
X101251558Y-50139776D01*
X101268131Y-50127451D01*
X101281770Y-50110864D01*
X101295055Y-50090882D01*
X101296055Y-50089354D01*
X101316197Y-50032827D01*
X101325257Y-49951580D01*
X101324026Y-49859310D01*
X101313296Y-49769713D01*
X101293859Y-49696485D01*
X101271079Y-49657339D01*
X101245276Y-49642890D01*
X101184297Y-49614366D01*
X101092249Y-49573466D01*
X100973241Y-49521890D01*
X100831381Y-49461335D01*
X100670777Y-49393501D01*
X100495539Y-49320086D01*
X100309773Y-49242789D01*
X100117589Y-49163310D01*
X99923094Y-49083347D01*
X99730397Y-49004598D01*
X99543606Y-48928763D01*
X99366830Y-48857541D01*
X99204176Y-48792630D01*
X99059753Y-48735729D01*
X98937670Y-48688538D01*
X98842034Y-48652754D01*
X98839409Y-48651800D01*
X98650568Y-48583182D01*
X98733576Y-48556406D01*
X98767696Y-48543953D01*
X98837496Y-48517266D01*
X98939329Y-48477777D01*
X99069548Y-48426917D01*
X99224504Y-48366117D01*
X99400550Y-48296810D01*
X99594038Y-48220426D01*
X99801321Y-48138398D01*
X100018751Y-48052156D01*
X100039209Y-48044031D01*
X100295644Y-47942347D01*
X100515684Y-47855097D01*
X100702099Y-47780647D01*
X100857660Y-47717366D01*
X100985137Y-47663621D01*
X101087302Y-47617778D01*
X101166923Y-47578205D01*
X101226773Y-47543270D01*
X101269622Y-47511339D01*
X101298241Y-47480781D01*
X101315399Y-47449961D01*
X101323868Y-47417249D01*
X101326418Y-47381010D01*
X101325821Y-47339612D01*
G37*
X101325821Y-47339612D02*
X101324845Y-47291423D01*
X101324834Y-47286423D01*
X101322969Y-47203784D01*
X101315153Y-47150440D01*
X101298056Y-47113436D01*
X101272879Y-47084288D01*
X101221544Y-47048213D01*
X101168782Y-47032367D01*
X101166821Y-47032334D01*
X101138003Y-47040329D01*
X101073358Y-47063438D01*
X100976073Y-47100346D01*
X100849337Y-47149737D01*
X100696338Y-47210296D01*
X100520264Y-47280708D01*
X100324303Y-47359659D01*
X100111643Y-47445832D01*
X99885472Y-47537913D01*
X99648979Y-47634586D01*
X99405350Y-47734537D01*
X99157775Y-47836450D01*
X98909441Y-47939009D01*
X98663537Y-48040901D01*
X98423250Y-48140809D01*
X98191768Y-48237419D01*
X97972281Y-48329415D01*
X97767975Y-48415483D01*
X97582038Y-48494306D01*
X97417660Y-48564570D01*
X97278028Y-48624960D01*
X97166329Y-48674161D01*
X97085752Y-48710857D01*
X97039486Y-48733733D01*
X97032649Y-48737787D01*
X96865600Y-48870406D01*
X96731050Y-49023896D01*
X96630653Y-49193871D01*
X96566063Y-49375947D01*
X96538933Y-49565738D01*
X96550918Y-49758860D01*
X96589635Y-49912383D01*
X96634951Y-50030435D01*
X96679389Y-50112478D01*
X96726893Y-50164560D01*
X96769816Y-50188742D01*
X96849191Y-50198077D01*
X96938468Y-50174420D01*
X97026216Y-50121344D01*
X97049350Y-50101330D01*
X97092272Y-50055522D01*
X97109012Y-50013579D01*
X97107517Y-49954323D01*
X97106841Y-49948135D01*
X97092186Y-49869483D01*
X97068127Y-49784451D01*
X97060405Y-49762834D01*
X97032462Y-49633824D01*
X97045216Y-49505211D01*
X97097175Y-49380895D01*
X97186849Y-49264778D01*
X97282334Y-49182176D01*
X97344068Y-49142529D01*
X97429108Y-49095790D01*
X97529642Y-49045404D01*
X97637860Y-48994818D01*
X97745954Y-48947476D01*
X97846113Y-48906826D01*
X97930528Y-48876311D01*
X97991387Y-48859379D01*
X98017495Y-48857821D01*
X98042428Y-48867465D01*
X98103328Y-48892313D01*
X98197164Y-48931099D01*
X98320904Y-48982554D01*
X98471519Y-49045411D01*
X98645976Y-49118405D01*
X98841246Y-49200267D01*
X99054297Y-49289730D01*
X99282098Y-49385527D01*
X99521619Y-49486391D01*
X99596109Y-49517788D01*
X99885432Y-49639746D01*
X100138304Y-49746174D01*
X100357304Y-49837939D01*
X100545010Y-49915906D01*
X100704001Y-49980943D01*
X100836854Y-50033916D01*
X100946149Y-50075693D01*
X101034463Y-50107141D01*
X101104374Y-50129126D01*
X101158461Y-50142515D01*
X101199302Y-50148175D01*
X101229475Y-50146973D01*
X101251558Y-50139776D01*
X101268131Y-50127451D01*
X101281770Y-50110864D01*
X101295055Y-50090882D01*
X101296055Y-50089354D01*
X101316197Y-50032827D01*
X101325257Y-49951580D01*
X101324026Y-49859310D01*
X101313296Y-49769713D01*
X101293859Y-49696485D01*
X101271079Y-49657339D01*
X101245276Y-49642890D01*
X101184297Y-49614366D01*
X101092249Y-49573466D01*
X100973241Y-49521890D01*
X100831381Y-49461335D01*
X100670777Y-49393501D01*
X100495539Y-49320086D01*
X100309773Y-49242789D01*
X100117589Y-49163310D01*
X99923094Y-49083347D01*
X99730397Y-49004598D01*
X99543606Y-48928763D01*
X99366830Y-48857541D01*
X99204176Y-48792630D01*
X99059753Y-48735729D01*
X98937670Y-48688538D01*
X98842034Y-48652754D01*
X98839409Y-48651800D01*
X98650568Y-48583182D01*
X98733576Y-48556406D01*
X98767696Y-48543953D01*
X98837496Y-48517266D01*
X98939329Y-48477777D01*
X99069548Y-48426917D01*
X99224504Y-48366117D01*
X99400550Y-48296810D01*
X99594038Y-48220426D01*
X99801321Y-48138398D01*
X100018751Y-48052156D01*
X100039209Y-48044031D01*
X100295644Y-47942347D01*
X100515684Y-47855097D01*
X100702099Y-47780647D01*
X100857660Y-47717366D01*
X100985137Y-47663621D01*
X101087302Y-47617778D01*
X101166923Y-47578205D01*
X101226773Y-47543270D01*
X101269622Y-47511339D01*
X101298241Y-47480781D01*
X101315399Y-47449961D01*
X101323868Y-47417249D01*
X101326418Y-47381010D01*
X101325821Y-47339612D01*
D13*
X96700000Y-76270000D02*
X104320000Y-76270000D01*
X104320000Y-76270000D02*
G75*
G03X104320000Y-73730000I0J1270000D01*
G01*
X96700000Y-73730000D02*
G75*
G03X96700000Y-76270000I0J-1270000D01*
G01*
X96700000Y-73730000D02*
X104320000Y-73730000D01*
D11*
X95811000Y-70400000D02*
X97589000Y-70400000D01*
X95811000Y-68114000D02*
X95811000Y-70400000D01*
X97589000Y-68114000D02*
X95811000Y-68114000D01*
X97589000Y-70400000D02*
X97589000Y-68114000D01*
X98311000Y-70400000D02*
X100089000Y-70400000D01*
X98311000Y-68114000D02*
X98311000Y-70400000D01*
X100089000Y-68114000D02*
X98311000Y-68114000D01*
X100089000Y-70400000D02*
X100089000Y-68114000D01*
X100911000Y-70400000D02*
X102689000Y-70400000D01*
X100911000Y-68114000D02*
X100911000Y-70400000D01*
X102689000Y-68114000D02*
X100911000Y-68114000D01*
X102689000Y-70400000D02*
X102689000Y-68114000D01*
X103411000Y-70400000D02*
X105189000Y-70400000D01*
X103411000Y-68114000D02*
X103411000Y-70400000D01*
X105189000Y-68114000D02*
X103411000Y-68114000D01*
X105189000Y-70400000D02*
X105189000Y-68114000D01*
D14*
X87792000Y-82321000D02*
X85992000Y-82321000D01*
X82282000Y-82321000D02*
X83742000Y-82321000D01*
X82282000Y-73381000D02*
X83742000Y-73381000D01*
X82282000Y-73381000D02*
X82282000Y-82321000D01*
X87792000Y-73381000D02*
X85992000Y-73381000D01*
D11*
X96740768Y-125902591D02*
X96410813Y-126093091D01*
X96410813Y-126093091D02*
X100855813Y-133792057D01*
X100260295Y-123870591D02*
X99380414Y-124378591D01*
X102800295Y-128270000D02*
X100260295Y-123870591D01*
X106545574Y-130947012D02*
X105720074Y-129517205D01*
X107625074Y-132816761D02*
X107434574Y-132486806D01*
X107295118Y-133007261D02*
X107625074Y-132816761D01*
X105698574Y-129442047D02*
G75*
G02X102800295Y-128270000I-698574J2442047D01*
G01*
X104325517Y-134721761D02*
X104655473Y-134531261D01*
X104325517Y-134721761D02*
G75*
G02X100855813Y-133792057I-1270000J2199704D01*
G01*
D15*
X96325739Y-124675739D02*
X97214739Y-126215532D01*
X108213261Y-119865532D02*
X107324261Y-118325739D01*
X107324261Y-118325739D02*
X105784468Y-119214739D01*
X97865532Y-123786739D02*
X96325739Y-124675739D01*
X101786739Y-134134468D02*
X102675739Y-135674261D01*
X102675739Y-135674261D02*
X104215532Y-134785261D01*
X112134468Y-130213261D02*
X113674261Y-129324261D01*
X113674261Y-129324261D02*
X112785261Y-127784468D01*
D14*
X157684000Y-116412600D02*
X159716000Y-116412600D01*
X157684000Y-116590400D02*
X159716000Y-116590400D01*
X159690600Y-116514200D02*
X157684000Y-116514200D01*
X157684000Y-121899000D02*
X159716000Y-121899000D01*
X157684000Y-116311000D02*
X157684000Y-121899000D01*
X159716000Y-116311000D02*
X157684000Y-116311000D01*
X159716000Y-121899000D02*
X159716000Y-116311000D01*
D11*
X159400000Y-118585000D02*
X158000000Y-118585000D01*
X158700000Y-118585000D02*
X158000000Y-119625000D01*
X158000000Y-119625000D02*
X159400000Y-119625000D01*
X159400000Y-119625000D02*
X158700000Y-118585000D01*
D14*
X137414000Y-117322600D02*
X139446000Y-117322600D01*
X137414000Y-117500400D02*
X139446000Y-117500400D01*
X139420600Y-117424200D02*
X137414000Y-117424200D01*
X137414000Y-122809000D02*
X139446000Y-122809000D01*
X137414000Y-117221000D02*
X137414000Y-122809000D01*
X139446000Y-117221000D02*
X137414000Y-117221000D01*
X139446000Y-122809000D02*
X139446000Y-117221000D01*
D11*
X139130000Y-119495000D02*
X137730000Y-119495000D01*
X138430000Y-119495000D02*
X137730000Y-120535000D01*
X137730000Y-120535000D02*
X139130000Y-120535000D01*
X139130000Y-120535000D02*
X138430000Y-119495000D01*
D14*
X120904000Y-117957600D02*
X122936000Y-117957600D01*
X120904000Y-118135400D02*
X122936000Y-118135400D01*
X122910600Y-118059200D02*
X120904000Y-118059200D01*
X120904000Y-123444000D02*
X122936000Y-123444000D01*
X120904000Y-117856000D02*
X120904000Y-123444000D01*
X122936000Y-117856000D02*
X120904000Y-117856000D01*
X122936000Y-123444000D02*
X122936000Y-117856000D01*
D11*
X122620000Y-120130000D02*
X121220000Y-120130000D01*
X121920000Y-120130000D02*
X121220000Y-121170000D01*
X121220000Y-121170000D02*
X122620000Y-121170000D01*
X122620000Y-121170000D02*
X121920000Y-120130000D01*
D14*
X110073918Y-120876313D02*
X111833682Y-119860313D01*
X110162818Y-121030293D02*
X111922582Y-120014293D01*
X111862485Y-119961001D02*
X110124718Y-120964301D01*
X112817118Y-125627675D02*
X114576882Y-124611675D01*
X110023118Y-120788325D02*
X112817118Y-125627675D01*
X111782882Y-119772325D02*
X110023118Y-120788325D01*
X114576882Y-124611675D02*
X111782882Y-119772325D01*
D11*
X112646218Y-121899667D02*
X111433782Y-122599667D01*
X112040000Y-122249667D02*
X111953782Y-123500333D01*
X111953782Y-123500333D02*
X113166218Y-122800333D01*
X113166218Y-122800333D02*
X112040000Y-122249667D01*
D14*
X111379000Y-95732600D02*
X113411000Y-95732600D01*
X111379000Y-95910400D02*
X113411000Y-95910400D01*
X113385600Y-95834200D02*
X111379000Y-95834200D01*
X111379000Y-101219000D02*
X113411000Y-101219000D01*
X111379000Y-95631000D02*
X111379000Y-101219000D01*
X113411000Y-95631000D02*
X111379000Y-95631000D01*
X113411000Y-101219000D02*
X113411000Y-95631000D01*
D11*
X113095000Y-97905000D02*
X111695000Y-97905000D01*
X112395000Y-97905000D02*
X111695000Y-98945000D01*
X111695000Y-98945000D02*
X113095000Y-98945000D01*
X113095000Y-98945000D02*
X112395000Y-97905000D01*
D14*
X205234000Y-104347600D02*
X207266000Y-104347600D01*
X205234000Y-104525400D02*
X207266000Y-104525400D01*
X207240600Y-104449200D02*
X205234000Y-104449200D01*
X205234000Y-109834000D02*
X207266000Y-109834000D01*
X205234000Y-104246000D02*
X205234000Y-109834000D01*
X207266000Y-104246000D02*
X205234000Y-104246000D01*
X207266000Y-109834000D02*
X207266000Y-104246000D01*
D11*
X206950000Y-106520000D02*
X205550000Y-106520000D01*
X206250000Y-106520000D02*
X205550000Y-107560000D01*
X205550000Y-107560000D02*
X206950000Y-107560000D01*
X206950000Y-107560000D02*
X206250000Y-106520000D01*
D14*
X186309000Y-99902600D02*
X188341000Y-99902600D01*
X186309000Y-100080400D02*
X188341000Y-100080400D01*
X188315600Y-100004200D02*
X186309000Y-100004200D01*
X186309000Y-105389000D02*
X188341000Y-105389000D01*
X186309000Y-99801000D02*
X186309000Y-105389000D01*
X188341000Y-99801000D02*
X186309000Y-99801000D01*
X188341000Y-105389000D02*
X188341000Y-99801000D01*
D11*
X188025000Y-102075000D02*
X186625000Y-102075000D01*
X187325000Y-102075000D02*
X186625000Y-103115000D01*
X186625000Y-103115000D02*
X188025000Y-103115000D01*
X188025000Y-103115000D02*
X187325000Y-102075000D01*
D14*
X167259000Y-97362600D02*
X169291000Y-97362600D01*
X167259000Y-97540400D02*
X169291000Y-97540400D01*
X169265600Y-97464200D02*
X167259000Y-97464200D01*
X167259000Y-102849000D02*
X169291000Y-102849000D01*
X167259000Y-97261000D02*
X167259000Y-102849000D01*
X169291000Y-97261000D02*
X167259000Y-97261000D01*
X169291000Y-102849000D02*
X169291000Y-97261000D01*
D11*
X168975000Y-99535000D02*
X167575000Y-99535000D01*
X168275000Y-99535000D02*
X167575000Y-100575000D01*
X167575000Y-100575000D02*
X168975000Y-100575000D01*
X168975000Y-100575000D02*
X168275000Y-99535000D01*
D14*
X147984000Y-97362600D02*
X150016000Y-97362600D01*
X147984000Y-97540400D02*
X150016000Y-97540400D01*
X149990600Y-97464200D02*
X147984000Y-97464200D01*
X147984000Y-102849000D02*
X150016000Y-102849000D01*
X147984000Y-97261000D02*
X147984000Y-102849000D01*
X150016000Y-97261000D02*
X147984000Y-97261000D01*
X150016000Y-102849000D02*
X150016000Y-97261000D01*
D11*
X149700000Y-99535000D02*
X148300000Y-99535000D01*
X149000000Y-99535000D02*
X148300000Y-100575000D01*
X148300000Y-100575000D02*
X149700000Y-100575000D01*
X149700000Y-100575000D02*
X149000000Y-99535000D01*
D14*
X139217400Y-94869000D02*
X139217400Y-96901000D01*
X139039600Y-94869000D02*
X139039600Y-96901000D01*
X139115800Y-96875600D02*
X139115800Y-94869000D01*
X133731000Y-94869000D02*
X133731000Y-96901000D01*
X139319000Y-94869000D02*
X133731000Y-94869000D01*
X139319000Y-96901000D02*
X139319000Y-94869000D01*
X133731000Y-96901000D02*
X139319000Y-96901000D01*
D11*
X137045000Y-96585000D02*
X137045000Y-95185000D01*
X137045000Y-95885000D02*
X136005000Y-95185000D01*
X136005000Y-95185000D02*
X136005000Y-96585000D01*
X136005000Y-96585000D02*
X137045000Y-95885000D01*
D14*
X127784000Y-101447600D02*
X129816000Y-101447600D01*
X127784000Y-101625400D02*
X129816000Y-101625400D01*
X129790600Y-101549200D02*
X127784000Y-101549200D01*
X127784000Y-106934000D02*
X129816000Y-106934000D01*
X127784000Y-101346000D02*
X127784000Y-106934000D01*
X129816000Y-101346000D02*
X127784000Y-101346000D01*
X129816000Y-106934000D02*
X129816000Y-101346000D01*
D11*
X129500000Y-103620000D02*
X128100000Y-103620000D01*
X128800000Y-103620000D02*
X128100000Y-104660000D01*
X128100000Y-104660000D02*
X129500000Y-104660000D01*
X129500000Y-104660000D02*
X128800000Y-103620000D01*
D14*
X205234000Y-84662600D02*
X207266000Y-84662600D01*
X205234000Y-84840400D02*
X207266000Y-84840400D01*
X207240600Y-84764200D02*
X205234000Y-84764200D01*
X205234000Y-90149000D02*
X207266000Y-90149000D01*
X205234000Y-84561000D02*
X205234000Y-90149000D01*
X207266000Y-84561000D02*
X205234000Y-84561000D01*
X207266000Y-90149000D02*
X207266000Y-84561000D01*
D11*
X206950000Y-86835000D02*
X205550000Y-86835000D01*
X206250000Y-86835000D02*
X205550000Y-87875000D01*
X205550000Y-87875000D02*
X206950000Y-87875000D01*
X206950000Y-87875000D02*
X206250000Y-86835000D01*
D14*
X186234000Y-80217600D02*
X188266000Y-80217600D01*
X186234000Y-80395400D02*
X188266000Y-80395400D01*
X188240600Y-80319200D02*
X186234000Y-80319200D01*
X186234000Y-85704000D02*
X188266000Y-85704000D01*
X186234000Y-80116000D02*
X186234000Y-85704000D01*
X188266000Y-80116000D02*
X186234000Y-80116000D01*
X188266000Y-85704000D02*
X188266000Y-80116000D01*
D11*
X187950000Y-82390000D02*
X186550000Y-82390000D01*
X187250000Y-82390000D02*
X186550000Y-83430000D01*
X186550000Y-83430000D02*
X187950000Y-83430000D01*
X187950000Y-83430000D02*
X187250000Y-82390000D01*
D14*
X167234000Y-78312600D02*
X169266000Y-78312600D01*
X167234000Y-78490400D02*
X169266000Y-78490400D01*
X169240600Y-78414200D02*
X167234000Y-78414200D01*
X167234000Y-83799000D02*
X169266000Y-83799000D01*
X167234000Y-78211000D02*
X167234000Y-83799000D01*
X169266000Y-78211000D02*
X167234000Y-78211000D01*
X169266000Y-83799000D02*
X169266000Y-78211000D01*
D11*
X168950000Y-80485000D02*
X167550000Y-80485000D01*
X168250000Y-80485000D02*
X167550000Y-81525000D01*
X167550000Y-81525000D02*
X168950000Y-81525000D01*
X168950000Y-81525000D02*
X168250000Y-80485000D01*
D14*
X147984000Y-78587600D02*
X150016000Y-78587600D01*
X147984000Y-78765400D02*
X150016000Y-78765400D01*
X149990600Y-78689200D02*
X147984000Y-78689200D01*
X147984000Y-84074000D02*
X150016000Y-84074000D01*
X147984000Y-78486000D02*
X147984000Y-84074000D01*
X150016000Y-78486000D02*
X147984000Y-78486000D01*
X150016000Y-84074000D02*
X150016000Y-78486000D01*
D11*
X149700000Y-80760000D02*
X148300000Y-80760000D01*
X149000000Y-80760000D02*
X148300000Y-81800000D01*
X148300000Y-81800000D02*
X149700000Y-81800000D01*
X149700000Y-81800000D02*
X149000000Y-80760000D01*
D14*
X130234000Y-78587600D02*
X132266000Y-78587600D01*
X130234000Y-78765400D02*
X132266000Y-78765400D01*
X132240600Y-78689200D02*
X130234000Y-78689200D01*
X130234000Y-84074000D02*
X132266000Y-84074000D01*
X130234000Y-78486000D02*
X130234000Y-84074000D01*
X132266000Y-78486000D02*
X130234000Y-78486000D01*
X132266000Y-84074000D02*
X132266000Y-78486000D01*
D11*
X131950000Y-80760000D02*
X130550000Y-80760000D01*
X131250000Y-80760000D02*
X130550000Y-81800000D01*
X130550000Y-81800000D02*
X131950000Y-81800000D01*
X131950000Y-81800000D02*
X131250000Y-80760000D01*
D14*
X127734000Y-78587600D02*
X129766000Y-78587600D01*
X127734000Y-78765400D02*
X129766000Y-78765400D01*
X129740600Y-78689200D02*
X127734000Y-78689200D01*
X127734000Y-84074000D02*
X129766000Y-84074000D01*
X127734000Y-78486000D02*
X127734000Y-84074000D01*
X129766000Y-78486000D02*
X127734000Y-78486000D01*
X129766000Y-84074000D02*
X129766000Y-78486000D01*
D11*
X129450000Y-80760000D02*
X128050000Y-80760000D01*
X128750000Y-80760000D02*
X128050000Y-81800000D01*
X128050000Y-81800000D02*
X129450000Y-81800000D01*
X129450000Y-81800000D02*
X128750000Y-80760000D01*
D14*
X206629000Y-66522600D02*
X208661000Y-66522600D01*
X206629000Y-66700400D02*
X208661000Y-66700400D01*
X208635600Y-66624200D02*
X206629000Y-66624200D01*
X206629000Y-72009000D02*
X208661000Y-72009000D01*
X206629000Y-66421000D02*
X206629000Y-72009000D01*
X208661000Y-66421000D02*
X206629000Y-66421000D01*
X208661000Y-72009000D02*
X208661000Y-66421000D01*
D11*
X208345000Y-68695000D02*
X206945000Y-68695000D01*
X207645000Y-68695000D02*
X206945000Y-69735000D01*
X206945000Y-69735000D02*
X208345000Y-69735000D01*
X208345000Y-69735000D02*
X207645000Y-68695000D01*
D14*
X187579000Y-63982600D02*
X189611000Y-63982600D01*
X187579000Y-64160400D02*
X189611000Y-64160400D01*
X189585600Y-64084200D02*
X187579000Y-64084200D01*
X187579000Y-69469000D02*
X189611000Y-69469000D01*
X187579000Y-63881000D02*
X187579000Y-69469000D01*
X189611000Y-63881000D02*
X187579000Y-63881000D01*
X189611000Y-69469000D02*
X189611000Y-63881000D01*
D11*
X189295000Y-66155000D02*
X187895000Y-66155000D01*
X188595000Y-66155000D02*
X187895000Y-67195000D01*
X187895000Y-67195000D02*
X189295000Y-67195000D01*
X189295000Y-67195000D02*
X188595000Y-66155000D01*
D14*
X168529000Y-59537600D02*
X170561000Y-59537600D01*
X168529000Y-59715400D02*
X170561000Y-59715400D01*
X170535600Y-59639200D02*
X168529000Y-59639200D01*
X168529000Y-65024000D02*
X170561000Y-65024000D01*
X168529000Y-59436000D02*
X168529000Y-65024000D01*
X170561000Y-59436000D02*
X168529000Y-59436000D01*
X170561000Y-65024000D02*
X170561000Y-59436000D01*
D11*
X170245000Y-61710000D02*
X168845000Y-61710000D01*
X169545000Y-61710000D02*
X168845000Y-62750000D01*
X168845000Y-62750000D02*
X170245000Y-62750000D01*
X170245000Y-62750000D02*
X169545000Y-61710000D01*
D14*
X149479000Y-58902600D02*
X151511000Y-58902600D01*
X149479000Y-59080400D02*
X151511000Y-59080400D01*
X151485600Y-59004200D02*
X149479000Y-59004200D01*
X149479000Y-64389000D02*
X151511000Y-64389000D01*
X149479000Y-58801000D02*
X149479000Y-64389000D01*
X151511000Y-58801000D02*
X149479000Y-58801000D01*
X151511000Y-64389000D02*
X151511000Y-58801000D01*
D11*
X151195000Y-61075000D02*
X149795000Y-61075000D01*
X150495000Y-61075000D02*
X149795000Y-62115000D01*
X149795000Y-62115000D02*
X151195000Y-62115000D01*
X151195000Y-62115000D02*
X150495000Y-61075000D01*
D14*
X138582400Y-56769000D02*
X138582400Y-58801000D01*
X138404600Y-56769000D02*
X138404600Y-58801000D01*
X138480800Y-58775600D02*
X138480800Y-56769000D01*
X133096000Y-56769000D02*
X133096000Y-58801000D01*
X138684000Y-56769000D02*
X133096000Y-56769000D01*
X138684000Y-58801000D02*
X138684000Y-56769000D01*
X133096000Y-58801000D02*
X138684000Y-58801000D01*
D11*
X136410000Y-58485000D02*
X136410000Y-57085000D01*
X136410000Y-57785000D02*
X135370000Y-57085000D01*
X135370000Y-57085000D02*
X135370000Y-58485000D01*
X135370000Y-58485000D02*
X136410000Y-57785000D01*
D14*
X127734000Y-63347600D02*
X129766000Y-63347600D01*
X127734000Y-63525400D02*
X129766000Y-63525400D01*
X129740600Y-63449200D02*
X127734000Y-63449200D01*
X127734000Y-68834000D02*
X129766000Y-68834000D01*
X127734000Y-63246000D02*
X127734000Y-68834000D01*
X129766000Y-63246000D02*
X127734000Y-63246000D01*
X129766000Y-68834000D02*
X129766000Y-63246000D01*
D11*
X129450000Y-65520000D02*
X128050000Y-65520000D01*
X128750000Y-65520000D02*
X128050000Y-66560000D01*
X128050000Y-66560000D02*
X129450000Y-66560000D01*
X129450000Y-66560000D02*
X128750000Y-65520000D01*
D14*
X205994000Y-46837600D02*
X208026000Y-46837600D01*
X205994000Y-47015400D02*
X208026000Y-47015400D01*
X208000600Y-46939200D02*
X205994000Y-46939200D01*
X205994000Y-52324000D02*
X208026000Y-52324000D01*
X205994000Y-46736000D02*
X205994000Y-52324000D01*
X208026000Y-46736000D02*
X205994000Y-46736000D01*
X208026000Y-52324000D02*
X208026000Y-46736000D01*
D11*
X207710000Y-49010000D02*
X206310000Y-49010000D01*
X207010000Y-49010000D02*
X206310000Y-50050000D01*
X206310000Y-50050000D02*
X207710000Y-50050000D01*
X207710000Y-50050000D02*
X207010000Y-49010000D01*
D14*
X187579000Y-44297600D02*
X189611000Y-44297600D01*
X187579000Y-44475400D02*
X189611000Y-44475400D01*
X189585600Y-44399200D02*
X187579000Y-44399200D01*
X187579000Y-49784000D02*
X189611000Y-49784000D01*
X187579000Y-44196000D02*
X187579000Y-49784000D01*
X189611000Y-44196000D02*
X187579000Y-44196000D01*
X189611000Y-49784000D02*
X189611000Y-44196000D01*
D11*
X189295000Y-46470000D02*
X187895000Y-46470000D01*
X188595000Y-46470000D02*
X187895000Y-47510000D01*
X187895000Y-47510000D02*
X189295000Y-47510000D01*
X189295000Y-47510000D02*
X188595000Y-46470000D01*
D14*
X167259000Y-41122600D02*
X169291000Y-41122600D01*
X167259000Y-41300400D02*
X169291000Y-41300400D01*
X169265600Y-41224200D02*
X167259000Y-41224200D01*
X167259000Y-46609000D02*
X169291000Y-46609000D01*
X167259000Y-41021000D02*
X167259000Y-46609000D01*
X169291000Y-41021000D02*
X167259000Y-41021000D01*
X169291000Y-46609000D02*
X169291000Y-41021000D01*
D11*
X168975000Y-43295000D02*
X167575000Y-43295000D01*
X168275000Y-43295000D02*
X167575000Y-44335000D01*
X167575000Y-44335000D02*
X168975000Y-44335000D01*
X168975000Y-44335000D02*
X168275000Y-43295000D01*
D14*
X148209000Y-41122600D02*
X150241000Y-41122600D01*
X148209000Y-41300400D02*
X150241000Y-41300400D01*
X150215600Y-41224200D02*
X148209000Y-41224200D01*
X148209000Y-46609000D02*
X150241000Y-46609000D01*
X148209000Y-41021000D02*
X148209000Y-46609000D01*
X150241000Y-41021000D02*
X148209000Y-41021000D01*
X150241000Y-46609000D02*
X150241000Y-41021000D01*
D11*
X149925000Y-43295000D02*
X148525000Y-43295000D01*
X149225000Y-43295000D02*
X148525000Y-44335000D01*
X148525000Y-44335000D02*
X149925000Y-44335000D01*
X149925000Y-44335000D02*
X149225000Y-43295000D01*
D14*
X130234000Y-42392600D02*
X132266000Y-42392600D01*
X130234000Y-42570400D02*
X132266000Y-42570400D01*
X132240600Y-42494200D02*
X130234000Y-42494200D01*
X130234000Y-47879000D02*
X132266000Y-47879000D01*
X130234000Y-42291000D02*
X130234000Y-47879000D01*
X132266000Y-42291000D02*
X130234000Y-42291000D01*
X132266000Y-47879000D02*
X132266000Y-42291000D01*
D11*
X131950000Y-44565000D02*
X130550000Y-44565000D01*
X131250000Y-44565000D02*
X130550000Y-45605000D01*
X130550000Y-45605000D02*
X131950000Y-45605000D01*
X131950000Y-45605000D02*
X131250000Y-44565000D01*
D14*
X127734000Y-42392600D02*
X129766000Y-42392600D01*
X127734000Y-42570400D02*
X129766000Y-42570400D01*
X129740600Y-42494200D02*
X127734000Y-42494200D01*
X127734000Y-47879000D02*
X129766000Y-47879000D01*
X127734000Y-42291000D02*
X127734000Y-47879000D01*
X129766000Y-42291000D02*
X127734000Y-42291000D01*
X129766000Y-47879000D02*
X129766000Y-42291000D01*
D11*
X129450000Y-44565000D02*
X128050000Y-44565000D01*
X128750000Y-44565000D02*
X128050000Y-45605000D01*
X128050000Y-45605000D02*
X129450000Y-45605000D01*
X129450000Y-45605000D02*
X128750000Y-44565000D01*
X163020000Y-130354000D02*
X163020000Y-130735000D01*
X163020000Y-130735000D02*
X171910000Y-130735000D01*
X163020000Y-126290000D02*
X163020000Y-127306000D01*
X168100000Y-126290000D02*
X163020000Y-126290000D01*
X172291000Y-124385000D02*
X170640000Y-124385000D01*
X174450000Y-124385000D02*
X174069000Y-124385000D01*
X174450000Y-124766000D02*
X174450000Y-124385000D01*
X170564162Y-124366040D02*
G75*
G02X168100000Y-126290000I-2464162J616040D01*
G01*
X174450000Y-128195000D02*
X174450000Y-127814000D01*
X174450000Y-128195000D02*
G75*
G02X171910000Y-130735000I-2540000J0D01*
G01*
D15*
X161750000Y-130100000D02*
X163528000Y-130100000D01*
X163528000Y-117400000D02*
X161750000Y-117400000D01*
X161750000Y-117400000D02*
X161750000Y-119178000D01*
X161750000Y-128322000D02*
X161750000Y-130100000D01*
X172672000Y-130100000D02*
X174450000Y-130100000D01*
X174450000Y-130100000D02*
X174450000Y-128322000D01*
X174450000Y-119178000D02*
X174450000Y-117400000D01*
X174450000Y-117400000D02*
X172672000Y-117400000D01*
D11*
X143920000Y-130354000D02*
X143920000Y-130735000D01*
X143920000Y-130735000D02*
X152810000Y-130735000D01*
X143920000Y-126290000D02*
X143920000Y-127306000D01*
X149000000Y-126290000D02*
X143920000Y-126290000D01*
X153191000Y-124385000D02*
X151540000Y-124385000D01*
X155350000Y-124385000D02*
X154969000Y-124385000D01*
X155350000Y-124766000D02*
X155350000Y-124385000D01*
X151464162Y-124366040D02*
G75*
G02X149000000Y-126290000I-2464162J616040D01*
G01*
X155350000Y-128195000D02*
X155350000Y-127814000D01*
X155350000Y-128195000D02*
G75*
G02X152810000Y-130735000I-2540000J0D01*
G01*
D15*
X142650000Y-130100000D02*
X144428000Y-130100000D01*
X144428000Y-117400000D02*
X142650000Y-117400000D01*
X142650000Y-117400000D02*
X142650000Y-119178000D01*
X142650000Y-128322000D02*
X142650000Y-130100000D01*
X153572000Y-130100000D02*
X155350000Y-130100000D01*
X155350000Y-130100000D02*
X155350000Y-128322000D01*
X155350000Y-119178000D02*
X155350000Y-117400000D01*
X155350000Y-117400000D02*
X153572000Y-117400000D01*
D11*
X124920000Y-132604000D02*
X124920000Y-132985000D01*
X124920000Y-132985000D02*
X133810000Y-132985000D01*
X124920000Y-128540000D02*
X124920000Y-129556000D01*
X130000000Y-128540000D02*
X124920000Y-128540000D01*
X134191000Y-126635000D02*
X132540000Y-126635000D01*
X136350000Y-126635000D02*
X135969000Y-126635000D01*
X136350000Y-127016000D02*
X136350000Y-126635000D01*
X132464162Y-126616040D02*
G75*
G02X130000000Y-128540000I-2464162J616040D01*
G01*
X136350000Y-130445000D02*
X136350000Y-130064000D01*
X136350000Y-130445000D02*
G75*
G02X133810000Y-132985000I-2540000J0D01*
G01*
D15*
X123650000Y-132350000D02*
X125428000Y-132350000D01*
X125428000Y-119650000D02*
X123650000Y-119650000D01*
X123650000Y-119650000D02*
X123650000Y-121428000D01*
X123650000Y-130572000D02*
X123650000Y-132350000D01*
X134572000Y-132350000D02*
X136350000Y-132350000D01*
X136350000Y-132350000D02*
X136350000Y-130572000D01*
X136350000Y-121428000D02*
X136350000Y-119650000D01*
X136350000Y-119650000D02*
X134572000Y-119650000D01*
D11*
X96320000Y-104104000D02*
X96320000Y-104485000D01*
X96320000Y-104485000D02*
X105210000Y-104485000D01*
X96320000Y-100040000D02*
X96320000Y-101056000D01*
X101400000Y-100040000D02*
X96320000Y-100040000D01*
X105591000Y-98135000D02*
X103940000Y-98135000D01*
X107750000Y-98135000D02*
X107369000Y-98135000D01*
X107750000Y-98516000D02*
X107750000Y-98135000D01*
X103864162Y-98116040D02*
G75*
G02X101400000Y-100040000I-2464162J616040D01*
G01*
X107750000Y-101945000D02*
X107750000Y-101564000D01*
X107750000Y-101945000D02*
G75*
G02X105210000Y-104485000I-2540000J0D01*
G01*
D15*
X95050000Y-103850000D02*
X96828000Y-103850000D01*
X96828000Y-91150000D02*
X95050000Y-91150000D01*
X95050000Y-91150000D02*
X95050000Y-92928000D01*
X95050000Y-102072000D02*
X95050000Y-103850000D01*
X105972000Y-103850000D02*
X107750000Y-103850000D01*
X107750000Y-103850000D02*
X107750000Y-102072000D01*
X107750000Y-92928000D02*
X107750000Y-91150000D01*
X107750000Y-91150000D02*
X105972000Y-91150000D01*
D11*
X210670000Y-117604000D02*
X210670000Y-117985000D01*
X210670000Y-117985000D02*
X219560000Y-117985000D01*
X210670000Y-113540000D02*
X210670000Y-114556000D01*
X215750000Y-113540000D02*
X210670000Y-113540000D01*
X219941000Y-111635000D02*
X218290000Y-111635000D01*
X222100000Y-111635000D02*
X221719000Y-111635000D01*
X222100000Y-112016000D02*
X222100000Y-111635000D01*
X218214162Y-111616040D02*
G75*
G02X215750000Y-113540000I-2464162J616040D01*
G01*
X222100000Y-115445000D02*
X222100000Y-115064000D01*
X222100000Y-115445000D02*
G75*
G02X219560000Y-117985000I-2540000J0D01*
G01*
D15*
X209400000Y-117350000D02*
X211178000Y-117350000D01*
X211178000Y-104650000D02*
X209400000Y-104650000D01*
X209400000Y-104650000D02*
X209400000Y-106428000D01*
X209400000Y-115572000D02*
X209400000Y-117350000D01*
X220322000Y-117350000D02*
X222100000Y-117350000D01*
X222100000Y-117350000D02*
X222100000Y-115572000D01*
X222100000Y-106428000D02*
X222100000Y-104650000D01*
X222100000Y-104650000D02*
X220322000Y-104650000D01*
D11*
X191620000Y-116104000D02*
X191620000Y-116485000D01*
X191620000Y-116485000D02*
X200510000Y-116485000D01*
X191620000Y-112040000D02*
X191620000Y-113056000D01*
X196700000Y-112040000D02*
X191620000Y-112040000D01*
X200891000Y-110135000D02*
X199240000Y-110135000D01*
X203050000Y-110135000D02*
X202669000Y-110135000D01*
X203050000Y-110516000D02*
X203050000Y-110135000D01*
X199164162Y-110116040D02*
G75*
G02X196700000Y-112040000I-2464162J616040D01*
G01*
X203050000Y-113945000D02*
X203050000Y-113564000D01*
X203050000Y-113945000D02*
G75*
G02X200510000Y-116485000I-2540000J0D01*
G01*
D15*
X190350000Y-115850000D02*
X192128000Y-115850000D01*
X192128000Y-103150000D02*
X190350000Y-103150000D01*
X190350000Y-103150000D02*
X190350000Y-104928000D01*
X190350000Y-114072000D02*
X190350000Y-115850000D01*
X201272000Y-115850000D02*
X203050000Y-115850000D01*
X203050000Y-115850000D02*
X203050000Y-114072000D01*
X203050000Y-104928000D02*
X203050000Y-103150000D01*
X203050000Y-103150000D02*
X201272000Y-103150000D01*
D11*
X172520000Y-111404000D02*
X172520000Y-111785000D01*
X172520000Y-111785000D02*
X181410000Y-111785000D01*
X172520000Y-107340000D02*
X172520000Y-108356000D01*
X177600000Y-107340000D02*
X172520000Y-107340000D01*
X181791000Y-105435000D02*
X180140000Y-105435000D01*
X183950000Y-105435000D02*
X183569000Y-105435000D01*
X183950000Y-105816000D02*
X183950000Y-105435000D01*
X180064162Y-105416040D02*
G75*
G02X177600000Y-107340000I-2464162J616040D01*
G01*
X183950000Y-109245000D02*
X183950000Y-108864000D01*
X183950000Y-109245000D02*
G75*
G02X181410000Y-111785000I-2540000J0D01*
G01*
D15*
X171250000Y-111150000D02*
X173028000Y-111150000D01*
X173028000Y-98450000D02*
X171250000Y-98450000D01*
X171250000Y-98450000D02*
X171250000Y-100228000D01*
X171250000Y-109372000D02*
X171250000Y-111150000D01*
X182172000Y-111150000D02*
X183950000Y-111150000D01*
X183950000Y-111150000D02*
X183950000Y-109372000D01*
X183950000Y-100228000D02*
X183950000Y-98450000D01*
X183950000Y-98450000D02*
X182172000Y-98450000D01*
D11*
X153520000Y-110004000D02*
X153520000Y-110385000D01*
X153520000Y-110385000D02*
X162410000Y-110385000D01*
X153520000Y-105940000D02*
X153520000Y-106956000D01*
X158600000Y-105940000D02*
X153520000Y-105940000D01*
X162791000Y-104035000D02*
X161140000Y-104035000D01*
X164950000Y-104035000D02*
X164569000Y-104035000D01*
X164950000Y-104416000D02*
X164950000Y-104035000D01*
X161064162Y-104016040D02*
G75*
G02X158600000Y-105940000I-2464162J616040D01*
G01*
X164950000Y-107845000D02*
X164950000Y-107464000D01*
X164950000Y-107845000D02*
G75*
G02X162410000Y-110385000I-2540000J0D01*
G01*
D15*
X152250000Y-109750000D02*
X154028000Y-109750000D01*
X154028000Y-97050000D02*
X152250000Y-97050000D01*
X152250000Y-97050000D02*
X152250000Y-98828000D01*
X152250000Y-107972000D02*
X152250000Y-109750000D01*
X163172000Y-109750000D02*
X164950000Y-109750000D01*
X164950000Y-109750000D02*
X164950000Y-107972000D01*
X164950000Y-98828000D02*
X164950000Y-97050000D01*
X164950000Y-97050000D02*
X163172000Y-97050000D01*
D11*
X134420000Y-111404000D02*
X134420000Y-111785000D01*
X134420000Y-111785000D02*
X143310000Y-111785000D01*
X134420000Y-107340000D02*
X134420000Y-108356000D01*
X139500000Y-107340000D02*
X134420000Y-107340000D01*
X143691000Y-105435000D02*
X142040000Y-105435000D01*
X145850000Y-105435000D02*
X145469000Y-105435000D01*
X145850000Y-105816000D02*
X145850000Y-105435000D01*
X141964162Y-105416040D02*
G75*
G02X139500000Y-107340000I-2464162J616040D01*
G01*
X145850000Y-109245000D02*
X145850000Y-108864000D01*
X145850000Y-109245000D02*
G75*
G02X143310000Y-111785000I-2540000J0D01*
G01*
D15*
X133150000Y-111150000D02*
X134928000Y-111150000D01*
X134928000Y-98450000D02*
X133150000Y-98450000D01*
X133150000Y-98450000D02*
X133150000Y-100228000D01*
X133150000Y-109372000D02*
X133150000Y-111150000D01*
X144072000Y-111150000D02*
X145850000Y-111150000D01*
X145850000Y-111150000D02*
X145850000Y-109372000D01*
X145850000Y-100228000D02*
X145850000Y-98450000D01*
X145850000Y-98450000D02*
X144072000Y-98450000D01*
D11*
X115420000Y-113704000D02*
X115420000Y-114085000D01*
X115420000Y-114085000D02*
X124310000Y-114085000D01*
X115420000Y-109640000D02*
X115420000Y-110656000D01*
X120500000Y-109640000D02*
X115420000Y-109640000D01*
X124691000Y-107735000D02*
X123040000Y-107735000D01*
X126850000Y-107735000D02*
X126469000Y-107735000D01*
X126850000Y-108116000D02*
X126850000Y-107735000D01*
X122964162Y-107716040D02*
G75*
G02X120500000Y-109640000I-2464162J616040D01*
G01*
X126850000Y-111545000D02*
X126850000Y-111164000D01*
X126850000Y-111545000D02*
G75*
G02X124310000Y-114085000I-2540000J0D01*
G01*
D15*
X114150000Y-113450000D02*
X115928000Y-113450000D01*
X115928000Y-100750000D02*
X114150000Y-100750000D01*
X114150000Y-100750000D02*
X114150000Y-102528000D01*
X114150000Y-111672000D02*
X114150000Y-113450000D01*
X125072000Y-113450000D02*
X126850000Y-113450000D01*
X126850000Y-113450000D02*
X126850000Y-111672000D01*
X126850000Y-102528000D02*
X126850000Y-100750000D01*
X126850000Y-100750000D02*
X125072000Y-100750000D01*
D11*
X210620000Y-98604000D02*
X210620000Y-98985000D01*
X210620000Y-98985000D02*
X219510000Y-98985000D01*
X210620000Y-94540000D02*
X210620000Y-95556000D01*
X215700000Y-94540000D02*
X210620000Y-94540000D01*
X219891000Y-92635000D02*
X218240000Y-92635000D01*
X222050000Y-92635000D02*
X221669000Y-92635000D01*
X222050000Y-93016000D02*
X222050000Y-92635000D01*
X218164162Y-92616040D02*
G75*
G02X215700000Y-94540000I-2464162J616040D01*
G01*
X222050000Y-96445000D02*
X222050000Y-96064000D01*
X222050000Y-96445000D02*
G75*
G02X219510000Y-98985000I-2540000J0D01*
G01*
D15*
X209350000Y-98350000D02*
X211128000Y-98350000D01*
X211128000Y-85650000D02*
X209350000Y-85650000D01*
X209350000Y-85650000D02*
X209350000Y-87428000D01*
X209350000Y-96572000D02*
X209350000Y-98350000D01*
X220272000Y-98350000D02*
X222050000Y-98350000D01*
X222050000Y-98350000D02*
X222050000Y-96572000D01*
X222050000Y-87428000D02*
X222050000Y-85650000D01*
X222050000Y-85650000D02*
X220272000Y-85650000D01*
D11*
X191620000Y-97104000D02*
X191620000Y-97485000D01*
X191620000Y-97485000D02*
X200510000Y-97485000D01*
X191620000Y-93040000D02*
X191620000Y-94056000D01*
X196700000Y-93040000D02*
X191620000Y-93040000D01*
X200891000Y-91135000D02*
X199240000Y-91135000D01*
X203050000Y-91135000D02*
X202669000Y-91135000D01*
X203050000Y-91516000D02*
X203050000Y-91135000D01*
X199164162Y-91116040D02*
G75*
G02X196700000Y-93040000I-2464162J616040D01*
G01*
X203050000Y-94945000D02*
X203050000Y-94564000D01*
X203050000Y-94945000D02*
G75*
G02X200510000Y-97485000I-2540000J0D01*
G01*
D15*
X190350000Y-96850000D02*
X192128000Y-96850000D01*
X192128000Y-84150000D02*
X190350000Y-84150000D01*
X190350000Y-84150000D02*
X190350000Y-85928000D01*
X190350000Y-95072000D02*
X190350000Y-96850000D01*
X201272000Y-96850000D02*
X203050000Y-96850000D01*
X203050000Y-96850000D02*
X203050000Y-95072000D01*
X203050000Y-85928000D02*
X203050000Y-84150000D01*
X203050000Y-84150000D02*
X201272000Y-84150000D01*
D11*
X172520000Y-92304000D02*
X172520000Y-92685000D01*
X172520000Y-92685000D02*
X181410000Y-92685000D01*
X172520000Y-88240000D02*
X172520000Y-89256000D01*
X177600000Y-88240000D02*
X172520000Y-88240000D01*
X181791000Y-86335000D02*
X180140000Y-86335000D01*
X183950000Y-86335000D02*
X183569000Y-86335000D01*
X183950000Y-86716000D02*
X183950000Y-86335000D01*
X180064162Y-86316040D02*
G75*
G02X177600000Y-88240000I-2464162J616040D01*
G01*
X183950000Y-90145000D02*
X183950000Y-89764000D01*
X183950000Y-90145000D02*
G75*
G02X181410000Y-92685000I-2540000J0D01*
G01*
D15*
X171250000Y-92050000D02*
X173028000Y-92050000D01*
X173028000Y-79350000D02*
X171250000Y-79350000D01*
X171250000Y-79350000D02*
X171250000Y-81128000D01*
X171250000Y-90272000D02*
X171250000Y-92050000D01*
X182172000Y-92050000D02*
X183950000Y-92050000D01*
X183950000Y-92050000D02*
X183950000Y-90272000D01*
X183950000Y-81128000D02*
X183950000Y-79350000D01*
X183950000Y-79350000D02*
X182172000Y-79350000D01*
D11*
X153520000Y-91004000D02*
X153520000Y-91385000D01*
X153520000Y-91385000D02*
X162410000Y-91385000D01*
X153520000Y-86940000D02*
X153520000Y-87956000D01*
X158600000Y-86940000D02*
X153520000Y-86940000D01*
X162791000Y-85035000D02*
X161140000Y-85035000D01*
X164950000Y-85035000D02*
X164569000Y-85035000D01*
X164950000Y-85416000D02*
X164950000Y-85035000D01*
X161064162Y-85016040D02*
G75*
G02X158600000Y-86940000I-2464162J616040D01*
G01*
X164950000Y-88845000D02*
X164950000Y-88464000D01*
X164950000Y-88845000D02*
G75*
G02X162410000Y-91385000I-2540000J0D01*
G01*
D15*
X152250000Y-90750000D02*
X154028000Y-90750000D01*
X154028000Y-78050000D02*
X152250000Y-78050000D01*
X152250000Y-78050000D02*
X152250000Y-79828000D01*
X152250000Y-88972000D02*
X152250000Y-90750000D01*
X163172000Y-90750000D02*
X164950000Y-90750000D01*
X164950000Y-90750000D02*
X164950000Y-88972000D01*
X164950000Y-79828000D02*
X164950000Y-78050000D01*
X164950000Y-78050000D02*
X163172000Y-78050000D01*
D11*
X134420000Y-92304000D02*
X134420000Y-92685000D01*
X134420000Y-92685000D02*
X143310000Y-92685000D01*
X134420000Y-88240000D02*
X134420000Y-89256000D01*
X139500000Y-88240000D02*
X134420000Y-88240000D01*
X143691000Y-86335000D02*
X142040000Y-86335000D01*
X145850000Y-86335000D02*
X145469000Y-86335000D01*
X145850000Y-86716000D02*
X145850000Y-86335000D01*
X141964162Y-86316040D02*
G75*
G02X139500000Y-88240000I-2464162J616040D01*
G01*
X145850000Y-90145000D02*
X145850000Y-89764000D01*
X145850000Y-90145000D02*
G75*
G02X143310000Y-92685000I-2540000J0D01*
G01*
D15*
X133150000Y-92050000D02*
X134928000Y-92050000D01*
X134928000Y-79350000D02*
X133150000Y-79350000D01*
X133150000Y-79350000D02*
X133150000Y-81128000D01*
X133150000Y-90272000D02*
X133150000Y-92050000D01*
X144072000Y-92050000D02*
X145850000Y-92050000D01*
X145850000Y-92050000D02*
X145850000Y-90272000D01*
X145850000Y-81128000D02*
X145850000Y-79350000D01*
X145850000Y-79350000D02*
X144072000Y-79350000D01*
D11*
X115420000Y-94704000D02*
X115420000Y-95085000D01*
X115420000Y-95085000D02*
X124310000Y-95085000D01*
X115420000Y-90640000D02*
X115420000Y-91656000D01*
X120500000Y-90640000D02*
X115420000Y-90640000D01*
X124691000Y-88735000D02*
X123040000Y-88735000D01*
X126850000Y-88735000D02*
X126469000Y-88735000D01*
X126850000Y-89116000D02*
X126850000Y-88735000D01*
X122964162Y-88716040D02*
G75*
G02X120500000Y-90640000I-2464162J616040D01*
G01*
X126850000Y-92545000D02*
X126850000Y-92164000D01*
X126850000Y-92545000D02*
G75*
G02X124310000Y-95085000I-2540000J0D01*
G01*
D15*
X114150000Y-94450000D02*
X115928000Y-94450000D01*
X115928000Y-81750000D02*
X114150000Y-81750000D01*
X114150000Y-81750000D02*
X114150000Y-83528000D01*
X114150000Y-92672000D02*
X114150000Y-94450000D01*
X125072000Y-94450000D02*
X126850000Y-94450000D01*
X126850000Y-94450000D02*
X126850000Y-92672000D01*
X126850000Y-83528000D02*
X126850000Y-81750000D01*
X126850000Y-81750000D02*
X125072000Y-81750000D01*
D11*
X210620000Y-79404000D02*
X210620000Y-79785000D01*
X210620000Y-79785000D02*
X219510000Y-79785000D01*
X210620000Y-75340000D02*
X210620000Y-76356000D01*
X215700000Y-75340000D02*
X210620000Y-75340000D01*
X219891000Y-73435000D02*
X218240000Y-73435000D01*
X222050000Y-73435000D02*
X221669000Y-73435000D01*
X222050000Y-73816000D02*
X222050000Y-73435000D01*
X218164162Y-73416040D02*
G75*
G02X215700000Y-75340000I-2464162J616040D01*
G01*
X222050000Y-77245000D02*
X222050000Y-76864000D01*
X222050000Y-77245000D02*
G75*
G02X219510000Y-79785000I-2540000J0D01*
G01*
D15*
X209350000Y-79150000D02*
X211128000Y-79150000D01*
X211128000Y-66450000D02*
X209350000Y-66450000D01*
X209350000Y-66450000D02*
X209350000Y-68228000D01*
X209350000Y-77372000D02*
X209350000Y-79150000D01*
X220272000Y-79150000D02*
X222050000Y-79150000D01*
X222050000Y-79150000D02*
X222050000Y-77372000D01*
X222050000Y-68228000D02*
X222050000Y-66450000D01*
X222050000Y-66450000D02*
X220272000Y-66450000D01*
D11*
X191620000Y-77904000D02*
X191620000Y-78285000D01*
X191620000Y-78285000D02*
X200510000Y-78285000D01*
X191620000Y-73840000D02*
X191620000Y-74856000D01*
X196700000Y-73840000D02*
X191620000Y-73840000D01*
X200891000Y-71935000D02*
X199240000Y-71935000D01*
X203050000Y-71935000D02*
X202669000Y-71935000D01*
X203050000Y-72316000D02*
X203050000Y-71935000D01*
X199164162Y-71916040D02*
G75*
G02X196700000Y-73840000I-2464162J616040D01*
G01*
X203050000Y-75745000D02*
X203050000Y-75364000D01*
X203050000Y-75745000D02*
G75*
G02X200510000Y-78285000I-2540000J0D01*
G01*
D15*
X190350000Y-77650000D02*
X192128000Y-77650000D01*
X192128000Y-64950000D02*
X190350000Y-64950000D01*
X190350000Y-64950000D02*
X190350000Y-66728000D01*
X190350000Y-75872000D02*
X190350000Y-77650000D01*
X201272000Y-77650000D02*
X203050000Y-77650000D01*
X203050000Y-77650000D02*
X203050000Y-75872000D01*
X203050000Y-66728000D02*
X203050000Y-64950000D01*
X203050000Y-64950000D02*
X201272000Y-64950000D01*
D11*
X172520000Y-73204000D02*
X172520000Y-73585000D01*
X172520000Y-73585000D02*
X181410000Y-73585000D01*
X172520000Y-69140000D02*
X172520000Y-70156000D01*
X177600000Y-69140000D02*
X172520000Y-69140000D01*
X181791000Y-67235000D02*
X180140000Y-67235000D01*
X183950000Y-67235000D02*
X183569000Y-67235000D01*
X183950000Y-67616000D02*
X183950000Y-67235000D01*
X180064162Y-67216040D02*
G75*
G02X177600000Y-69140000I-2464162J616040D01*
G01*
X183950000Y-71045000D02*
X183950000Y-70664000D01*
X183950000Y-71045000D02*
G75*
G02X181410000Y-73585000I-2540000J0D01*
G01*
D15*
X171250000Y-72950000D02*
X173028000Y-72950000D01*
X173028000Y-60250000D02*
X171250000Y-60250000D01*
X171250000Y-60250000D02*
X171250000Y-62028000D01*
X171250000Y-71172000D02*
X171250000Y-72950000D01*
X182172000Y-72950000D02*
X183950000Y-72950000D01*
X183950000Y-72950000D02*
X183950000Y-71172000D01*
X183950000Y-62028000D02*
X183950000Y-60250000D01*
X183950000Y-60250000D02*
X182172000Y-60250000D01*
D11*
X153520000Y-71904000D02*
X153520000Y-72285000D01*
X153520000Y-72285000D02*
X162410000Y-72285000D01*
X153520000Y-67840000D02*
X153520000Y-68856000D01*
X158600000Y-67840000D02*
X153520000Y-67840000D01*
X162791000Y-65935000D02*
X161140000Y-65935000D01*
X164950000Y-65935000D02*
X164569000Y-65935000D01*
X164950000Y-66316000D02*
X164950000Y-65935000D01*
X161064162Y-65916040D02*
G75*
G02X158600000Y-67840000I-2464162J616040D01*
G01*
X164950000Y-69745000D02*
X164950000Y-69364000D01*
X164950000Y-69745000D02*
G75*
G02X162410000Y-72285000I-2540000J0D01*
G01*
D15*
X152250000Y-71650000D02*
X154028000Y-71650000D01*
X154028000Y-58950000D02*
X152250000Y-58950000D01*
X152250000Y-58950000D02*
X152250000Y-60728000D01*
X152250000Y-69872000D02*
X152250000Y-71650000D01*
X163172000Y-71650000D02*
X164950000Y-71650000D01*
X164950000Y-71650000D02*
X164950000Y-69872000D01*
X164950000Y-60728000D02*
X164950000Y-58950000D01*
X164950000Y-58950000D02*
X163172000Y-58950000D01*
D11*
X134420000Y-73304000D02*
X134420000Y-73685000D01*
X134420000Y-73685000D02*
X143310000Y-73685000D01*
X134420000Y-69240000D02*
X134420000Y-70256000D01*
X139500000Y-69240000D02*
X134420000Y-69240000D01*
X143691000Y-67335000D02*
X142040000Y-67335000D01*
X145850000Y-67335000D02*
X145469000Y-67335000D01*
X145850000Y-67716000D02*
X145850000Y-67335000D01*
X141964162Y-67316040D02*
G75*
G02X139500000Y-69240000I-2464162J616040D01*
G01*
X145850000Y-71145000D02*
X145850000Y-70764000D01*
X145850000Y-71145000D02*
G75*
G02X143310000Y-73685000I-2540000J0D01*
G01*
D15*
X133150000Y-73050000D02*
X134928000Y-73050000D01*
X134928000Y-60350000D02*
X133150000Y-60350000D01*
X133150000Y-60350000D02*
X133150000Y-62128000D01*
X133150000Y-71272000D02*
X133150000Y-73050000D01*
X144072000Y-73050000D02*
X145850000Y-73050000D01*
X145850000Y-73050000D02*
X145850000Y-71272000D01*
X145850000Y-62128000D02*
X145850000Y-60350000D01*
X145850000Y-60350000D02*
X144072000Y-60350000D01*
D11*
X115420000Y-75704000D02*
X115420000Y-76085000D01*
X115420000Y-76085000D02*
X124310000Y-76085000D01*
X115420000Y-71640000D02*
X115420000Y-72656000D01*
X120500000Y-71640000D02*
X115420000Y-71640000D01*
X124691000Y-69735000D02*
X123040000Y-69735000D01*
X126850000Y-69735000D02*
X126469000Y-69735000D01*
X126850000Y-70116000D02*
X126850000Y-69735000D01*
X122964162Y-69716040D02*
G75*
G02X120500000Y-71640000I-2464162J616040D01*
G01*
X126850000Y-73545000D02*
X126850000Y-73164000D01*
X126850000Y-73545000D02*
G75*
G02X124310000Y-76085000I-2540000J0D01*
G01*
D15*
X114150000Y-75450000D02*
X115928000Y-75450000D01*
X115928000Y-62750000D02*
X114150000Y-62750000D01*
X114150000Y-62750000D02*
X114150000Y-64528000D01*
X114150000Y-73672000D02*
X114150000Y-75450000D01*
X125072000Y-75450000D02*
X126850000Y-75450000D01*
X126850000Y-75450000D02*
X126850000Y-73672000D01*
X126850000Y-64528000D02*
X126850000Y-62750000D01*
X126850000Y-62750000D02*
X125072000Y-62750000D01*
D11*
X210620000Y-60504000D02*
X210620000Y-60885000D01*
X210620000Y-60885000D02*
X219510000Y-60885000D01*
X210620000Y-56440000D02*
X210620000Y-57456000D01*
X215700000Y-56440000D02*
X210620000Y-56440000D01*
X219891000Y-54535000D02*
X218240000Y-54535000D01*
X222050000Y-54535000D02*
X221669000Y-54535000D01*
X222050000Y-54916000D02*
X222050000Y-54535000D01*
X218164162Y-54516040D02*
G75*
G02X215700000Y-56440000I-2464162J616040D01*
G01*
X222050000Y-58345000D02*
X222050000Y-57964000D01*
X222050000Y-58345000D02*
G75*
G02X219510000Y-60885000I-2540000J0D01*
G01*
D15*
X209350000Y-60250000D02*
X211128000Y-60250000D01*
X211128000Y-47550000D02*
X209350000Y-47550000D01*
X209350000Y-47550000D02*
X209350000Y-49328000D01*
X209350000Y-58472000D02*
X209350000Y-60250000D01*
X220272000Y-60250000D02*
X222050000Y-60250000D01*
X222050000Y-60250000D02*
X222050000Y-58472000D01*
X222050000Y-49328000D02*
X222050000Y-47550000D01*
X222050000Y-47550000D02*
X220272000Y-47550000D01*
D11*
X191620000Y-59004000D02*
X191620000Y-59385000D01*
X191620000Y-59385000D02*
X200510000Y-59385000D01*
X191620000Y-54940000D02*
X191620000Y-55956000D01*
X196700000Y-54940000D02*
X191620000Y-54940000D01*
X200891000Y-53035000D02*
X199240000Y-53035000D01*
X203050000Y-53035000D02*
X202669000Y-53035000D01*
X203050000Y-53416000D02*
X203050000Y-53035000D01*
X199164162Y-53016040D02*
G75*
G02X196700000Y-54940000I-2464162J616040D01*
G01*
X203050000Y-56845000D02*
X203050000Y-56464000D01*
X203050000Y-56845000D02*
G75*
G02X200510000Y-59385000I-2540000J0D01*
G01*
D15*
X190350000Y-58750000D02*
X192128000Y-58750000D01*
X192128000Y-46050000D02*
X190350000Y-46050000D01*
X190350000Y-46050000D02*
X190350000Y-47828000D01*
X190350000Y-56972000D02*
X190350000Y-58750000D01*
X201272000Y-58750000D02*
X203050000Y-58750000D01*
X203050000Y-58750000D02*
X203050000Y-56972000D01*
X203050000Y-47828000D02*
X203050000Y-46050000D01*
X203050000Y-46050000D02*
X201272000Y-46050000D01*
D11*
X172520000Y-54204000D02*
X172520000Y-54585000D01*
X172520000Y-54585000D02*
X181410000Y-54585000D01*
X172520000Y-50140000D02*
X172520000Y-51156000D01*
X177600000Y-50140000D02*
X172520000Y-50140000D01*
X181791000Y-48235000D02*
X180140000Y-48235000D01*
X183950000Y-48235000D02*
X183569000Y-48235000D01*
X183950000Y-48616000D02*
X183950000Y-48235000D01*
X180064162Y-48216040D02*
G75*
G02X177600000Y-50140000I-2464162J616040D01*
G01*
X183950000Y-52045000D02*
X183950000Y-51664000D01*
X183950000Y-52045000D02*
G75*
G02X181410000Y-54585000I-2540000J0D01*
G01*
D15*
X171250000Y-53950000D02*
X173028000Y-53950000D01*
X173028000Y-41250000D02*
X171250000Y-41250000D01*
X171250000Y-41250000D02*
X171250000Y-43028000D01*
X171250000Y-52172000D02*
X171250000Y-53950000D01*
X182172000Y-53950000D02*
X183950000Y-53950000D01*
X183950000Y-53950000D02*
X183950000Y-52172000D01*
X183950000Y-43028000D02*
X183950000Y-41250000D01*
X183950000Y-41250000D02*
X182172000Y-41250000D01*
D11*
X153520000Y-52814000D02*
X153520000Y-53195000D01*
X153520000Y-53195000D02*
X162410000Y-53195000D01*
X153520000Y-48750000D02*
X153520000Y-49766000D01*
X158600000Y-48750000D02*
X153520000Y-48750000D01*
X162791000Y-46845000D02*
X161140000Y-46845000D01*
X164950000Y-46845000D02*
X164569000Y-46845000D01*
X164950000Y-47226000D02*
X164950000Y-46845000D01*
X161064162Y-46826040D02*
G75*
G02X158600000Y-48750000I-2464162J616040D01*
G01*
X164950000Y-50655000D02*
X164950000Y-50274000D01*
X164950000Y-50655000D02*
G75*
G02X162410000Y-53195000I-2540000J0D01*
G01*
D15*
X152250000Y-52560000D02*
X154028000Y-52560000D01*
X154028000Y-39860000D02*
X152250000Y-39860000D01*
X152250000Y-39860000D02*
X152250000Y-41638000D01*
X152250000Y-50782000D02*
X152250000Y-52560000D01*
X163172000Y-52560000D02*
X164950000Y-52560000D01*
X164950000Y-52560000D02*
X164950000Y-50782000D01*
X164950000Y-41638000D02*
X164950000Y-39860000D01*
X164950000Y-39860000D02*
X163172000Y-39860000D01*
D11*
X134420000Y-54204000D02*
X134420000Y-54585000D01*
X134420000Y-54585000D02*
X143310000Y-54585000D01*
X134420000Y-50140000D02*
X134420000Y-51156000D01*
X139500000Y-50140000D02*
X134420000Y-50140000D01*
X143691000Y-48235000D02*
X142040000Y-48235000D01*
X145850000Y-48235000D02*
X145469000Y-48235000D01*
X145850000Y-48616000D02*
X145850000Y-48235000D01*
X141964162Y-48216040D02*
G75*
G02X139500000Y-50140000I-2464162J616040D01*
G01*
X145850000Y-52045000D02*
X145850000Y-51664000D01*
X145850000Y-52045000D02*
G75*
G02X143310000Y-54585000I-2540000J0D01*
G01*
D15*
X133150000Y-53950000D02*
X134928000Y-53950000D01*
X134928000Y-41250000D02*
X133150000Y-41250000D01*
X133150000Y-41250000D02*
X133150000Y-43028000D01*
X133150000Y-52172000D02*
X133150000Y-53950000D01*
X144072000Y-53950000D02*
X145850000Y-53950000D01*
X145850000Y-53950000D02*
X145850000Y-52172000D01*
X145850000Y-43028000D02*
X145850000Y-41250000D01*
X145850000Y-41250000D02*
X144072000Y-41250000D01*
D11*
X115420000Y-56604000D02*
X115420000Y-56985000D01*
X115420000Y-56985000D02*
X124310000Y-56985000D01*
X115420000Y-52540000D02*
X115420000Y-53556000D01*
X120500000Y-52540000D02*
X115420000Y-52540000D01*
X124691000Y-50635000D02*
X123040000Y-50635000D01*
X126850000Y-50635000D02*
X126469000Y-50635000D01*
X126850000Y-51016000D02*
X126850000Y-50635000D01*
X122964162Y-50616040D02*
G75*
G02X120500000Y-52540000I-2464162J616040D01*
G01*
X126850000Y-54445000D02*
X126850000Y-54064000D01*
X126850000Y-54445000D02*
G75*
G02X124310000Y-56985000I-2540000J0D01*
G01*
D15*
X114150000Y-56350000D02*
X115928000Y-56350000D01*
X115928000Y-43650000D02*
X114150000Y-43650000D01*
X114150000Y-43650000D02*
X114150000Y-45428000D01*
X114150000Y-54572000D02*
X114150000Y-56350000D01*
X125072000Y-56350000D02*
X126850000Y-56350000D01*
X126850000Y-56350000D02*
X126850000Y-54572000D01*
X126850000Y-45428000D02*
X126850000Y-43650000D01*
X126850000Y-43650000D02*
X125072000Y-43650000D01*
D11*
X88650000Y-39300000D02*
X88650000Y-37400000D01*
X89150000Y-39300000D02*
X88650000Y-39300000D01*
X83700000Y-37400000D02*
X88650000Y-37400000D01*
X83650000Y-39300000D02*
X83650000Y-37400000D01*
X83150000Y-51300000D02*
X83150000Y-39300000D01*
X89150000Y-51300000D02*
X83150000Y-51300000D01*
X89150000Y-39300000D02*
X89150000Y-51300000D01*
X83150000Y-39300000D02*
X83650000Y-39300000D01*
X85688000Y-54539300D02*
X85688000Y-57539300D01*
X85688000Y-57539300D02*
X83688000Y-57539300D01*
X83688000Y-57539300D02*
X83688000Y-54539300D01*
X83688000Y-54539300D02*
X85688000Y-54539300D01*
X87938000Y-54539300D02*
X87938000Y-57539300D01*
X87938000Y-57539300D02*
X85938000Y-57539300D01*
X85938000Y-57539300D02*
X85938000Y-54539300D01*
X85938000Y-54539300D02*
X87938000Y-54539300D01*
X87900000Y-61700000D02*
X85900000Y-61700000D01*
X85900000Y-61700000D02*
X85900000Y-59700000D01*
X85900000Y-59700000D02*
X87900000Y-59700000D01*
X87900000Y-59700000D02*
X87900000Y-61700000D01*
X85700000Y-61700000D02*
X83700000Y-61700000D01*
X83700000Y-61700000D02*
X83700000Y-59700000D01*
X83700000Y-59700000D02*
X85700000Y-59700000D01*
X85700000Y-59700000D02*
X85700000Y-61700000D01*
D16*
X90910000Y-37320000D02*
X108690000Y-37320000D01*
X108690000Y-37320000D02*
X108690000Y-70340000D01*
X90910000Y-70340000D02*
X90910000Y-37320000D01*
X106150000Y-39860000D02*
X108690000Y-39860000D01*
D11*
X108690000Y-39860000D02*
X108690000Y-70340000D01*
D16*
X108690000Y-70340000D02*
X106150000Y-70340000D01*
X106150000Y-70340000D02*
X106150000Y-39860000D01*
X90910000Y-39860000D02*
X93450000Y-39860000D01*
X93450000Y-39860000D02*
X93450000Y-70340000D01*
X93450000Y-70340000D02*
X90910000Y-70340000D01*
D11*
X90910000Y-70340000D02*
X90910000Y-39860000D01*
X111855285Y-80970380D02*
X112426714Y-80970380D01*
X112141000Y-80970380D02*
X112141000Y-79970380D01*
X112236238Y-80113238D01*
X112331476Y-80208476D01*
X112426714Y-80256095D01*
X110069190Y-83002380D02*
X110069190Y-82002380D01*
X109640619Y-82954761D02*
X109497761Y-83002380D01*
X109259666Y-83002380D01*
X109164428Y-82954761D01*
X109116809Y-82907142D01*
X109069190Y-82811904D01*
X109069190Y-82716666D01*
X109116809Y-82621428D01*
X109164428Y-82573809D01*
X109259666Y-82526190D01*
X109450142Y-82478571D01*
X109545380Y-82430952D01*
X109593000Y-82383333D01*
X109640619Y-82288095D01*
X109640619Y-82192857D01*
X109593000Y-82097619D01*
X109545380Y-82050000D01*
X109450142Y-82002380D01*
X109212047Y-82002380D01*
X109069190Y-82050000D01*
X108640619Y-83002380D02*
X108640619Y-82002380D01*
X108259666Y-82002380D01*
X108164428Y-82050000D01*
X108116809Y-82097619D01*
X108069190Y-82192857D01*
X108069190Y-82335714D01*
X108116809Y-82430952D01*
X108164428Y-82478571D01*
X108259666Y-82526190D01*
X108640619Y-82526190D01*
D16*
X104724761Y-70737714D02*
X104772380Y-70880571D01*
X104772380Y-71118666D01*
X104724761Y-71213904D01*
X104677142Y-71261523D01*
X104581904Y-71309142D01*
X104486666Y-71309142D01*
X104391428Y-71261523D01*
X104343809Y-71213904D01*
X104296190Y-71118666D01*
X104248571Y-70928190D01*
X104200952Y-70832952D01*
X104153333Y-70785333D01*
X104058095Y-70737714D01*
X103962857Y-70737714D01*
X103867619Y-70785333D01*
X103820000Y-70832952D01*
X103772380Y-70928190D01*
X103772380Y-71166285D01*
X103820000Y-71309142D01*
X104772380Y-71737714D02*
X103772380Y-71737714D01*
X103772380Y-71975809D01*
X103820000Y-72118666D01*
X103915238Y-72213904D01*
X104010476Y-72261523D01*
X104200952Y-72309142D01*
X104343809Y-72309142D01*
X104534285Y-72261523D01*
X104629523Y-72213904D01*
X104724761Y-72118666D01*
X104772380Y-71975809D01*
X104772380Y-71737714D01*
X104486666Y-72690095D02*
X104486666Y-73166285D01*
X104772380Y-72594857D02*
X103772380Y-72928190D01*
X104772380Y-73261523D01*
X102184761Y-70888523D02*
X102232380Y-71031380D01*
X102232380Y-71269476D01*
X102184761Y-71364714D01*
X102137142Y-71412333D01*
X102041904Y-71459952D01*
X101946666Y-71459952D01*
X101851428Y-71412333D01*
X101803809Y-71364714D01*
X101756190Y-71269476D01*
X101708571Y-71079000D01*
X101660952Y-70983761D01*
X101613333Y-70936142D01*
X101518095Y-70888523D01*
X101422857Y-70888523D01*
X101327619Y-70936142D01*
X101280000Y-70983761D01*
X101232380Y-71079000D01*
X101232380Y-71317095D01*
X101280000Y-71459952D01*
X102137142Y-72459952D02*
X102184761Y-72412333D01*
X102232380Y-72269476D01*
X102232380Y-72174238D01*
X102184761Y-72031380D01*
X102089523Y-71936142D01*
X101994285Y-71888523D01*
X101803809Y-71840904D01*
X101660952Y-71840904D01*
X101470476Y-71888523D01*
X101375238Y-71936142D01*
X101280000Y-72031380D01*
X101232380Y-72174238D01*
X101232380Y-72269476D01*
X101280000Y-72412333D01*
X101327619Y-72459952D01*
X102232380Y-73364714D02*
X102232380Y-72888523D01*
X101232380Y-72888523D01*
X98692380Y-70618666D02*
X99692380Y-70952000D01*
X98692380Y-71285333D01*
X99597142Y-72190095D02*
X99644761Y-72142476D01*
X99692380Y-71999619D01*
X99692380Y-71904380D01*
X99644761Y-71761523D01*
X99549523Y-71666285D01*
X99454285Y-71618666D01*
X99263809Y-71571047D01*
X99120952Y-71571047D01*
X98930476Y-71618666D01*
X98835238Y-71666285D01*
X98740000Y-71761523D01*
X98692380Y-71904380D01*
X98692380Y-71999619D01*
X98740000Y-72142476D01*
X98787619Y-72190095D01*
X99597142Y-73190095D02*
X99644761Y-73142476D01*
X99692380Y-72999619D01*
X99692380Y-72904380D01*
X99644761Y-72761523D01*
X99549523Y-72666285D01*
X99454285Y-72618666D01*
X99263809Y-72571047D01*
X99120952Y-72571047D01*
X98930476Y-72618666D01*
X98835238Y-72666285D01*
X98740000Y-72761523D01*
X98692380Y-72904380D01*
X98692380Y-72999619D01*
X98740000Y-73142476D01*
X98787619Y-73190095D01*
X96200000Y-71190095D02*
X96152380Y-71094857D01*
X96152380Y-70952000D01*
X96200000Y-70809142D01*
X96295238Y-70713904D01*
X96390476Y-70666285D01*
X96580952Y-70618666D01*
X96723809Y-70618666D01*
X96914285Y-70666285D01*
X97009523Y-70713904D01*
X97104761Y-70809142D01*
X97152380Y-70952000D01*
X97152380Y-71047238D01*
X97104761Y-71190095D01*
X97057142Y-71237714D01*
X96723809Y-71237714D01*
X96723809Y-71047238D01*
X97152380Y-71666285D02*
X96152380Y-71666285D01*
X97152380Y-72237714D01*
X96152380Y-72237714D01*
X97152380Y-72713904D02*
X96152380Y-72713904D01*
X96152380Y-72952000D01*
X96200000Y-73094857D01*
X96295238Y-73190095D01*
X96390476Y-73237714D01*
X96580952Y-73285333D01*
X96723809Y-73285333D01*
X96914285Y-73237714D01*
X97009523Y-73190095D01*
X97104761Y-73094857D01*
X97152380Y-72952000D01*
X97152380Y-72713904D01*
D11*
X85061869Y-55905966D02*
X84680917Y-55639300D01*
X85061869Y-55448823D02*
X84261869Y-55448823D01*
X84261869Y-55753585D01*
X84299965Y-55829776D01*
X84338060Y-55867871D01*
X84414250Y-55905966D01*
X84528536Y-55905966D01*
X84604726Y-55867871D01*
X84642822Y-55829776D01*
X84680917Y-55753585D01*
X84680917Y-55448823D01*
X85061869Y-56667871D02*
X85061869Y-56210728D01*
X85061869Y-56439300D02*
X84261869Y-56439300D01*
X84376155Y-56363109D01*
X84452345Y-56286919D01*
X84490441Y-56210728D01*
X87311869Y-55905966D02*
X86930917Y-55639300D01*
X87311869Y-55448823D02*
X86511869Y-55448823D01*
X86511869Y-55753585D01*
X86549965Y-55829776D01*
X86588060Y-55867871D01*
X86664250Y-55905966D01*
X86778536Y-55905966D01*
X86854726Y-55867871D01*
X86892822Y-55829776D01*
X86930917Y-55753585D01*
X86930917Y-55448823D01*
X87311869Y-56667871D02*
X87311869Y-56210728D01*
X87311869Y-56439300D02*
X86511869Y-56439300D01*
X86626155Y-56363109D01*
X86702345Y-56286919D01*
X86740441Y-56210728D01*
X87490476Y-62761904D02*
X87490476Y-61961904D01*
X87185714Y-61961904D01*
X87109523Y-62000000D01*
X87071428Y-62038095D01*
X87033333Y-62114285D01*
X87033333Y-62228571D01*
X87071428Y-62304761D01*
X87109523Y-62342857D01*
X87185714Y-62380952D01*
X87490476Y-62380952D01*
X86728571Y-62038095D02*
X86690476Y-62000000D01*
X86614285Y-61961904D01*
X86423809Y-61961904D01*
X86347619Y-62000000D01*
X86309523Y-62038095D01*
X86271428Y-62114285D01*
X86271428Y-62190476D01*
X86309523Y-62304761D01*
X86766666Y-62761904D01*
X86271428Y-62761904D01*
X85290476Y-62761904D02*
X85290476Y-61961904D01*
X84985714Y-61961904D01*
X84909523Y-62000000D01*
X84871428Y-62038095D01*
X84833333Y-62114285D01*
X84833333Y-62228571D01*
X84871428Y-62304761D01*
X84909523Y-62342857D01*
X84985714Y-62380952D01*
X85290476Y-62380952D01*
X84071428Y-62761904D02*
X84528571Y-62761904D01*
X84300000Y-62761904D02*
X84300000Y-61961904D01*
X84376190Y-62076190D01*
X84452380Y-62152380D01*
X84528571Y-62190476D01*
M02*
