G04 #@! TF.GenerationSoftware,KiCad,Pcbnew,(5.1.5)-3*
G04 #@! TF.CreationDate,2020-04-30T15:02:57+07:00*
G04 #@! TF.ProjectId,Lily58,4c696c79-3538-42e6-9b69-6361645f7063,rev?*
G04 #@! TF.SameCoordinates,Original*
G04 #@! TF.FileFunction,Soldermask,Top*
G04 #@! TF.FilePolarity,Negative*
%FSLAX46Y46*%
G04 Gerber Fmt 4.6, Leading zero omitted, Abs format (unit mm)*
G04 Created by KiCad (PCBNEW (5.1.5)-3) date 2020-04-30 15:02:57*
%MOMM*%
%LPD*%
G04 APERTURE LIST*
%ADD10C,0.200000*%
%ADD11R,1.797000X1.797000*%
%ADD12C,1.797000*%
%ADD13O,2.100000X2.100000*%
%ADD14R,1.543000X1.035000*%
%ADD15R,0.781000X0.781000*%
%ADD16O,2.400000X1.300000*%
%ADD17O,2.100000X1.300000*%
%ADD18C,1.000000*%
%ADD19R,2.720000X2.200000*%
%ADD20R,2.720000X1.000000*%
%ADD21C,2.500000*%
%ADD22C,2.150000*%
%ADD23C,0.100000*%
%ADD24C,3.400000*%
%ADD25C,2.800000*%
%ADD26C,1.950000*%
%ADD27C,2.100000*%
%ADD28C,1.400000*%
%ADD29C,2.600000*%
%ADD30C,4.400000*%
%ADD31C,1.650000*%
%ADD32C,2.300000*%
%ADD33R,1.600000X2.000000*%
%ADD34R,2.000000X1.600000*%
%ADD35R,2.950000X2.900000*%
%ADD36C,1.600000*%
%ADD37R,1.600000X2.500000*%
%ADD38C,5.300000*%
%ADD39C,1.924000*%
%ADD40R,1.924000X1.924000*%
G04 APERTURE END LIST*
D10*
X224900000Y-42700000D02*
X225460000Y-43436755D01*
X82937528Y-50750629D02*
X82937528Y-44443695D01*
X82937528Y-57057562D02*
X82937528Y-50750629D01*
X115211711Y-37086762D02*
X104803877Y-37086762D01*
X218692418Y-120789735D02*
X223959999Y-120789735D01*
X213424836Y-120789735D02*
X218692418Y-120789735D01*
X208157255Y-120789735D02*
X213424836Y-120789735D01*
X202889673Y-120789735D02*
X208157255Y-120789735D01*
X197622092Y-120789735D02*
X202889673Y-120789735D01*
X192354511Y-120789735D02*
X197622092Y-120789735D01*
X187086929Y-120789735D02*
X192354511Y-120789735D01*
X181819348Y-120789735D02*
X187086929Y-120789735D01*
X181113524Y-120860778D02*
X181819348Y-120789735D01*
X180456326Y-121064561D02*
X181113524Y-120860778D01*
X179861773Y-121387065D02*
X180456326Y-121064561D01*
X179343884Y-121814271D02*
X179861773Y-121387065D01*
X178916678Y-122332160D02*
X179343884Y-121814271D01*
X178594174Y-122926713D02*
X178916678Y-122332160D01*
X178390391Y-123583911D02*
X178594174Y-122926713D01*
X178319348Y-124289735D02*
X178390391Y-123583911D01*
X199807654Y-38170488D02*
X189919538Y-37585374D01*
X208420758Y-38945561D02*
X199807654Y-38170488D01*
X215525697Y-39885159D02*
X208420758Y-38945561D01*
X220889319Y-40963847D02*
X215525697Y-39885159D01*
X178989563Y-37215654D02*
X167250881Y-37086762D01*
X189919538Y-37585374D02*
X178989563Y-37215654D01*
X177658308Y-135255660D02*
X177403500Y-135393876D01*
X177880261Y-135072571D02*
X177658308Y-135255660D01*
X178063349Y-134850619D02*
X177880261Y-135072571D01*
X178201565Y-134595810D02*
X178063349Y-134850619D01*
X178288901Y-134314154D02*
X178201565Y-134595810D01*
X178319348Y-134011658D02*
X178288901Y-134314154D01*
X225460000Y-52918378D02*
X225460000Y-62400000D01*
X225460000Y-43436755D02*
X225460000Y-52918378D01*
X82937528Y-69671429D02*
X82937528Y-63364495D01*
X82937528Y-75978362D02*
X82937528Y-69671429D01*
X82937528Y-82285296D02*
X82937528Y-75978362D01*
X82937528Y-88592229D02*
X82937528Y-82285296D01*
X104807833Y-37086762D02*
X94400000Y-37086762D01*
X125619545Y-37086762D02*
X115211711Y-37086762D01*
X136027379Y-37086762D02*
X125619545Y-37086762D01*
X146435213Y-37086762D02*
X136027379Y-37086762D01*
X156843047Y-37086762D02*
X146435213Y-37086762D01*
X167250881Y-37086762D02*
X156843047Y-37086762D01*
X83400937Y-37265961D02*
X83579303Y-37169210D01*
X83245570Y-37394123D02*
X83400937Y-37265961D01*
X83117409Y-37549489D02*
X83245570Y-37394123D01*
X83020657Y-37727855D02*
X83117409Y-37549489D01*
X82959523Y-37925015D02*
X83020657Y-37727855D01*
X82938210Y-38136762D02*
X82959523Y-37925015D01*
X83776462Y-37108075D02*
X83988210Y-37086762D01*
X83579303Y-37169210D02*
X83776462Y-37108075D01*
X94396044Y-37086762D02*
X83988210Y-37086762D01*
X82937528Y-63364495D02*
X82937528Y-57057562D01*
X82937528Y-44443695D02*
X82937528Y-38136762D01*
X88291758Y-116318073D02*
X89993333Y-119989540D01*
X86863105Y-112530670D02*
X88291758Y-116318073D01*
X85688004Y-108649127D02*
X86863105Y-112530670D01*
X84747083Y-104695246D02*
X85688004Y-108649127D01*
X84020972Y-100690825D02*
X84747083Y-104695246D01*
X83490297Y-96657663D02*
X84020972Y-100690825D01*
X83135690Y-92617561D02*
X83490297Y-96657663D01*
X82937777Y-88592317D02*
X83135690Y-92617561D01*
X104288864Y-143357278D02*
X104456758Y-143271756D01*
X104130206Y-143404468D02*
X104288864Y-143357278D01*
X103981252Y-143413974D02*
X104130206Y-143404468D01*
X103842470Y-143386445D02*
X103981252Y-143413974D01*
X103714328Y-143322532D02*
X103842470Y-143386445D01*
X103597295Y-143222884D02*
X103714328Y-143322532D01*
X103491837Y-143088150D02*
X103597295Y-143222884D01*
X103398425Y-142918979D02*
X103491837Y-143088150D01*
X116186619Y-136480784D02*
X117862313Y-135510645D01*
X114510925Y-137450923D02*
X116186619Y-136480784D01*
X112835230Y-138421062D02*
X114510925Y-137450923D01*
X111159536Y-139391201D02*
X112835230Y-138421062D01*
X109483841Y-140361340D02*
X111159536Y-139391201D01*
X107808147Y-141331479D02*
X109483841Y-140361340D01*
X106132452Y-142301617D02*
X107808147Y-141331479D01*
X104456758Y-143271756D02*
X106132452Y-142301617D01*
X101722730Y-140052659D02*
X103398425Y-142918979D01*
X100047036Y-137186340D02*
X101722730Y-140052659D01*
X98371341Y-134320020D02*
X100047036Y-137186340D01*
X96695647Y-131453701D02*
X98371341Y-134320020D01*
X95019952Y-128587381D02*
X96695647Y-131453701D01*
X93344258Y-125721062D02*
X95019952Y-128587381D01*
X91668563Y-122854742D02*
X93344258Y-125721062D01*
X89992869Y-119988423D02*
X91668563Y-122854742D01*
X169449826Y-135511658D02*
X176819348Y-135511658D01*
X162080304Y-135511658D02*
X169449826Y-135511658D01*
X154710782Y-135511658D02*
X162080304Y-135511658D01*
X147341260Y-135511658D02*
X154710782Y-135511658D01*
X139971738Y-135511658D02*
X147341260Y-135511658D01*
X132602217Y-135511658D02*
X139971738Y-135511658D01*
X125232695Y-135511658D02*
X132602217Y-135511658D01*
X117863173Y-135511658D02*
X125232695Y-135511658D01*
X178319348Y-132816013D02*
X178319348Y-134011658D01*
X178319348Y-131597973D02*
X178319348Y-132816013D01*
X178319348Y-130379933D02*
X178319348Y-131597973D01*
X178319348Y-129161894D02*
X178319348Y-130379933D01*
X178319348Y-127943854D02*
X178319348Y-129161894D01*
X178319348Y-126725814D02*
X178319348Y-127943854D01*
X178319348Y-125507775D02*
X178319348Y-126725814D01*
X178319348Y-124289735D02*
X178319348Y-125507775D01*
X177121844Y-135481211D02*
X176819348Y-135511658D01*
X177403500Y-135393876D02*
X177121844Y-135481211D01*
X224278471Y-42156190D02*
X220889319Y-40963847D01*
X224900000Y-42700000D02*
X224278471Y-42156190D01*
X224262495Y-120759288D02*
X223959999Y-120789735D01*
X224544152Y-120671952D02*
X224262495Y-120759288D01*
X224798960Y-120533736D02*
X224544152Y-120671952D01*
X225020912Y-120350648D02*
X224798960Y-120533736D01*
X225204001Y-120128696D02*
X225020912Y-120350648D01*
X225342217Y-119873887D02*
X225204001Y-120128696D01*
X225429552Y-119592231D02*
X225342217Y-119873887D01*
X225459999Y-119289735D02*
X225429552Y-119592231D01*
X225460000Y-109808112D02*
X225460000Y-119289735D01*
X225460000Y-100326490D02*
X225460000Y-109808112D01*
X225460000Y-90844867D02*
X225460000Y-100326490D01*
X225460000Y-81363245D02*
X225460000Y-90844867D01*
X225460000Y-71881623D02*
X225460000Y-81363245D01*
X225460000Y-62400000D02*
X225460000Y-71881623D01*
D11*
X110363000Y-80518000D03*
D12*
X107823000Y-80518000D03*
X110363000Y-77978000D03*
X107823000Y-77978000D03*
X110363000Y-75438000D03*
X107823000Y-75438000D03*
D13*
X99240000Y-75000000D03*
X101780000Y-75000000D03*
X104320000Y-75000000D03*
X96700000Y-75000000D03*
D14*
X96700000Y-68756620D03*
X96700000Y-69757380D03*
X99200000Y-68756620D03*
X99200000Y-69757380D03*
X101800000Y-68756620D03*
X101800000Y-69757380D03*
X104300000Y-68756620D03*
X104300000Y-69757380D03*
D15*
X89000000Y-60700000D03*
D14*
X89000000Y-60199620D03*
X89000000Y-61200380D03*
D16*
X89052000Y-82171000D03*
X89052000Y-73531000D03*
D17*
X84882000Y-82171000D03*
X84882000Y-73531000D03*
D18*
X88572000Y-74961000D03*
X88572000Y-80741000D03*
D19*
X90221000Y-77851000D03*
X90221000Y-77851000D03*
X90221000Y-77851000D03*
D16*
X89052000Y-73531000D03*
X89052000Y-82171000D03*
D17*
X84882000Y-73531000D03*
X84882000Y-82171000D03*
D19*
X90221000Y-77851000D03*
D18*
X88572000Y-80741000D03*
X88572000Y-74961000D03*
D20*
X90221000Y-75451000D03*
X90221000Y-75451000D03*
X90221000Y-74651000D03*
X90221000Y-74651000D03*
X90221000Y-80251000D03*
X90221000Y-81051000D03*
X90221000Y-80251000D03*
X90221000Y-81051000D03*
D21*
X88215000Y-71100000D03*
D22*
X85725000Y-69850000D03*
X85725000Y-65350000D03*
D21*
X88215000Y-64090000D03*
D23*
G36*
X101752354Y-134434913D02*
G01*
X104263828Y-132984913D01*
X105738828Y-135539687D01*
X103227354Y-136989687D01*
X101752354Y-134434913D01*
G37*
D24*
X101870591Y-131739705D03*
X100895295Y-124970443D03*
D23*
G36*
X97027058Y-121170461D02*
G01*
X99538532Y-119720461D01*
X101013532Y-122275235D01*
X98502058Y-123725235D01*
X97027058Y-121170461D01*
G37*
D24*
X104705295Y-131569557D03*
X99330591Y-127340295D03*
D25*
X108129409Y-122260295D03*
D26*
X104679200Y-122321913D02*
X105910210Y-122538973D01*
D25*
X110669409Y-126659705D03*
D27*
X102460000Y-122600591D03*
X107540000Y-131399409D03*
D28*
X103972693Y-133620653D03*
D29*
X110109550Y-124050000D03*
D26*
X109318468Y-128442249D02*
X108890942Y-129616865D01*
D28*
X98752693Y-124579347D03*
D25*
X107627114Y-122550295D03*
X107194102Y-122800295D03*
X109734102Y-127199705D03*
X110167114Y-126949705D03*
D30*
X105000000Y-127000000D03*
D31*
X111089959Y-129020376D02*
X110765039Y-129913084D01*
D32*
X102250000Y-122236860D03*
X107750000Y-131763140D03*
D31*
X105359715Y-120550787D02*
X106295283Y-120715753D01*
D33*
X158700000Y-117475000D03*
X158700000Y-120735000D03*
X138430000Y-118385000D03*
X138430000Y-121645000D03*
X121920000Y-119020000D03*
X121920000Y-122280000D03*
D23*
G36*
X110292180Y-120822354D02*
G01*
X111677820Y-120022354D01*
X112677820Y-121754404D01*
X111292180Y-122554404D01*
X110292180Y-120822354D01*
G37*
G36*
X111922180Y-123645596D02*
G01*
X113307820Y-122845596D01*
X114307820Y-124577646D01*
X112922180Y-125377646D01*
X111922180Y-123645596D01*
G37*
D33*
X112395000Y-96795000D03*
X112395000Y-100055000D03*
X206250000Y-105410000D03*
X206250000Y-108670000D03*
X187325000Y-100965000D03*
X187325000Y-104225000D03*
X168275000Y-98425000D03*
X168275000Y-101685000D03*
X149000000Y-98425000D03*
X149000000Y-101685000D03*
D34*
X138155000Y-95885000D03*
X134895000Y-95885000D03*
D33*
X128800000Y-102510000D03*
X128800000Y-105770000D03*
X206250000Y-85725000D03*
X206250000Y-88985000D03*
X187250000Y-81280000D03*
X187250000Y-84540000D03*
X168250000Y-79375000D03*
X168250000Y-82635000D03*
X149000000Y-79650000D03*
X149000000Y-82910000D03*
X131250000Y-79650000D03*
X131250000Y-82910000D03*
X128750000Y-79650000D03*
X128750000Y-82910000D03*
X207645000Y-67585000D03*
X207645000Y-70845000D03*
X188595000Y-65045000D03*
X188595000Y-68305000D03*
X169545000Y-60600000D03*
X169545000Y-63860000D03*
X150495000Y-59965000D03*
X150495000Y-63225000D03*
D34*
X137520000Y-57785000D03*
X134260000Y-57785000D03*
D33*
X128750000Y-64410000D03*
X128750000Y-67670000D03*
X207010000Y-47900000D03*
X207010000Y-51160000D03*
X188595000Y-45360000D03*
X188595000Y-48620000D03*
X168275000Y-42185000D03*
X168275000Y-45445000D03*
X149225000Y-42185000D03*
X149225000Y-45445000D03*
X131250000Y-43455000D03*
X131250000Y-46715000D03*
X128750000Y-43455000D03*
X128750000Y-46715000D03*
D29*
X108000000Y-85000000D03*
X86000000Y-85000000D03*
D35*
X174390000Y-128830000D03*
D24*
X170640000Y-128830000D03*
X164290000Y-126290000D03*
D35*
X160540000Y-126290000D03*
D24*
X171910000Y-126290000D03*
X165560000Y-128830000D03*
D25*
X165560000Y-118670000D03*
D26*
X163888258Y-121688778D02*
X164691742Y-120731222D01*
D25*
X170640000Y-118670000D03*
D27*
X163020000Y-123750000D03*
X173180000Y-123750000D03*
D28*
X173320000Y-127950000D03*
D29*
X168100000Y-117850000D03*
D26*
X171508258Y-120731222D02*
X172311742Y-121688778D01*
D28*
X162880000Y-127950000D03*
D25*
X165560000Y-119250000D03*
X165560000Y-119750000D03*
X170640000Y-119750000D03*
X170640000Y-119250000D03*
D30*
X168100000Y-123750000D03*
D31*
X172894676Y-119486129D02*
X173505324Y-120213871D01*
D32*
X162600000Y-123750000D03*
X173600000Y-123750000D03*
D31*
X162694676Y-120213871D02*
X163305324Y-119486129D01*
D35*
X155290000Y-128830000D03*
D24*
X151540000Y-128830000D03*
X145190000Y-126290000D03*
D35*
X141440000Y-126290000D03*
D24*
X152810000Y-126290000D03*
X146460000Y-128830000D03*
D25*
X146460000Y-118670000D03*
D26*
X144788258Y-121688778D02*
X145591742Y-120731222D01*
D25*
X151540000Y-118670000D03*
D27*
X143920000Y-123750000D03*
X154080000Y-123750000D03*
D28*
X154220000Y-127950000D03*
D29*
X149000000Y-117850000D03*
D26*
X152408258Y-120731222D02*
X153211742Y-121688778D01*
D28*
X143780000Y-127950000D03*
D25*
X146460000Y-119250000D03*
X146460000Y-119750000D03*
X151540000Y-119750000D03*
X151540000Y-119250000D03*
D30*
X149000000Y-123750000D03*
D31*
X153794676Y-119486129D02*
X154405324Y-120213871D01*
D32*
X143500000Y-123750000D03*
X154500000Y-123750000D03*
D31*
X143594676Y-120213871D02*
X144205324Y-119486129D01*
D35*
X136290000Y-131080000D03*
D24*
X132540000Y-131080000D03*
X126190000Y-128540000D03*
D35*
X122440000Y-128540000D03*
D24*
X133810000Y-128540000D03*
X127460000Y-131080000D03*
D25*
X127460000Y-120920000D03*
D26*
X125788258Y-123938778D02*
X126591742Y-122981222D01*
D25*
X132540000Y-120920000D03*
D27*
X124920000Y-126000000D03*
X135080000Y-126000000D03*
D28*
X135220000Y-130200000D03*
D29*
X130000000Y-120100000D03*
D26*
X133408258Y-122981222D02*
X134211742Y-123938778D01*
D28*
X124780000Y-130200000D03*
D25*
X127460000Y-121500000D03*
X127460000Y-122000000D03*
X132540000Y-122000000D03*
X132540000Y-121500000D03*
D30*
X130000000Y-126000000D03*
D31*
X134794676Y-121736129D02*
X135405324Y-122463871D01*
D32*
X124500000Y-126000000D03*
X135500000Y-126000000D03*
D31*
X124594676Y-122463871D02*
X125205324Y-121736129D01*
D35*
X107690000Y-102580000D03*
D24*
X103940000Y-102580000D03*
X97590000Y-100040000D03*
D35*
X93840000Y-100040000D03*
D24*
X105210000Y-100040000D03*
X98860000Y-102580000D03*
D25*
X98860000Y-92420000D03*
D26*
X97188258Y-95438778D02*
X97991742Y-94481222D01*
D25*
X103940000Y-92420000D03*
D27*
X96320000Y-97500000D03*
X106480000Y-97500000D03*
D28*
X106620000Y-101700000D03*
D29*
X101400000Y-91600000D03*
D26*
X104808258Y-94481222D02*
X105611742Y-95438778D01*
D28*
X96180000Y-101700000D03*
D25*
X98860000Y-93000000D03*
X98860000Y-93500000D03*
X103940000Y-93500000D03*
X103940000Y-93000000D03*
D30*
X101400000Y-97500000D03*
D31*
X106194676Y-93236129D02*
X106805324Y-93963871D01*
D32*
X95900000Y-97500000D03*
X106900000Y-97500000D03*
D31*
X95994676Y-93963871D02*
X96605324Y-93236129D01*
D35*
X222040000Y-116080000D03*
D24*
X218290000Y-116080000D03*
X211940000Y-113540000D03*
D35*
X208190000Y-113540000D03*
D24*
X219560000Y-113540000D03*
X213210000Y-116080000D03*
D25*
X213210000Y-105920000D03*
D26*
X211538258Y-108938778D02*
X212341742Y-107981222D01*
D25*
X218290000Y-105920000D03*
D27*
X210670000Y-111000000D03*
X220830000Y-111000000D03*
D28*
X220970000Y-115200000D03*
D29*
X215750000Y-105100000D03*
D26*
X219158258Y-107981222D02*
X219961742Y-108938778D01*
D28*
X210530000Y-115200000D03*
D25*
X213210000Y-106500000D03*
X213210000Y-107000000D03*
X218290000Y-107000000D03*
X218290000Y-106500000D03*
D30*
X215750000Y-111000000D03*
D31*
X220544676Y-106736129D02*
X221155324Y-107463871D01*
D32*
X210250000Y-111000000D03*
X221250000Y-111000000D03*
D31*
X210344676Y-107463871D02*
X210955324Y-106736129D01*
D35*
X202990000Y-114580000D03*
D24*
X199240000Y-114580000D03*
X192890000Y-112040000D03*
D35*
X189140000Y-112040000D03*
D24*
X200510000Y-112040000D03*
X194160000Y-114580000D03*
D25*
X194160000Y-104420000D03*
D26*
X192488258Y-107438778D02*
X193291742Y-106481222D01*
D25*
X199240000Y-104420000D03*
D27*
X191620000Y-109500000D03*
X201780000Y-109500000D03*
D28*
X201920000Y-113700000D03*
D29*
X196700000Y-103600000D03*
D26*
X200108258Y-106481222D02*
X200911742Y-107438778D01*
D28*
X191480000Y-113700000D03*
D25*
X194160000Y-105000000D03*
X194160000Y-105500000D03*
X199240000Y-105500000D03*
X199240000Y-105000000D03*
D30*
X196700000Y-109500000D03*
D31*
X201494676Y-105236129D02*
X202105324Y-105963871D01*
D32*
X191200000Y-109500000D03*
X202200000Y-109500000D03*
D31*
X191294676Y-105963871D02*
X191905324Y-105236129D01*
D35*
X183890000Y-109880000D03*
D24*
X180140000Y-109880000D03*
X173790000Y-107340000D03*
D35*
X170040000Y-107340000D03*
D24*
X181410000Y-107340000D03*
X175060000Y-109880000D03*
D25*
X175060000Y-99720000D03*
D26*
X173388258Y-102738778D02*
X174191742Y-101781222D01*
D25*
X180140000Y-99720000D03*
D27*
X172520000Y-104800000D03*
X182680000Y-104800000D03*
D28*
X182820000Y-109000000D03*
D29*
X177600000Y-98900000D03*
D26*
X181008258Y-101781222D02*
X181811742Y-102738778D01*
D28*
X172380000Y-109000000D03*
D25*
X175060000Y-100300000D03*
X175060000Y-100800000D03*
X180140000Y-100800000D03*
X180140000Y-100300000D03*
D30*
X177600000Y-104800000D03*
D31*
X182394676Y-100536129D02*
X183005324Y-101263871D01*
D32*
X172100000Y-104800000D03*
X183100000Y-104800000D03*
D31*
X172194676Y-101263871D02*
X172805324Y-100536129D01*
D35*
X164890000Y-108480000D03*
D24*
X161140000Y-108480000D03*
X154790000Y-105940000D03*
D35*
X151040000Y-105940000D03*
D24*
X162410000Y-105940000D03*
X156060000Y-108480000D03*
D25*
X156060000Y-98320000D03*
D26*
X154388258Y-101338778D02*
X155191742Y-100381222D01*
D25*
X161140000Y-98320000D03*
D27*
X153520000Y-103400000D03*
X163680000Y-103400000D03*
D28*
X163820000Y-107600000D03*
D29*
X158600000Y-97500000D03*
D26*
X162008258Y-100381222D02*
X162811742Y-101338778D01*
D28*
X153380000Y-107600000D03*
D25*
X156060000Y-98900000D03*
X156060000Y-99400000D03*
X161140000Y-99400000D03*
X161140000Y-98900000D03*
D30*
X158600000Y-103400000D03*
D31*
X163394676Y-99136129D02*
X164005324Y-99863871D01*
D32*
X153100000Y-103400000D03*
X164100000Y-103400000D03*
D31*
X153194676Y-99863871D02*
X153805324Y-99136129D01*
D35*
X145790000Y-109880000D03*
D24*
X142040000Y-109880000D03*
X135690000Y-107340000D03*
D35*
X131940000Y-107340000D03*
D24*
X143310000Y-107340000D03*
X136960000Y-109880000D03*
D25*
X136960000Y-99720000D03*
D26*
X135288258Y-102738778D02*
X136091742Y-101781222D01*
D25*
X142040000Y-99720000D03*
D27*
X134420000Y-104800000D03*
X144580000Y-104800000D03*
D28*
X144720000Y-109000000D03*
D29*
X139500000Y-98900000D03*
D26*
X142908258Y-101781222D02*
X143711742Y-102738778D01*
D28*
X134280000Y-109000000D03*
D25*
X136960000Y-100300000D03*
X136960000Y-100800000D03*
X142040000Y-100800000D03*
X142040000Y-100300000D03*
D30*
X139500000Y-104800000D03*
D31*
X144294676Y-100536129D02*
X144905324Y-101263871D01*
D32*
X134000000Y-104800000D03*
X145000000Y-104800000D03*
D31*
X134094676Y-101263871D02*
X134705324Y-100536129D01*
D35*
X126790000Y-112180000D03*
D24*
X123040000Y-112180000D03*
X116690000Y-109640000D03*
D35*
X112940000Y-109640000D03*
D24*
X124310000Y-109640000D03*
X117960000Y-112180000D03*
D25*
X117960000Y-102020000D03*
D26*
X116288258Y-105038778D02*
X117091742Y-104081222D01*
D25*
X123040000Y-102020000D03*
D27*
X115420000Y-107100000D03*
X125580000Y-107100000D03*
D28*
X125720000Y-111300000D03*
D29*
X120500000Y-101200000D03*
D26*
X123908258Y-104081222D02*
X124711742Y-105038778D01*
D28*
X115280000Y-111300000D03*
D25*
X117960000Y-102600000D03*
X117960000Y-103100000D03*
X123040000Y-103100000D03*
X123040000Y-102600000D03*
D30*
X120500000Y-107100000D03*
D31*
X125294676Y-102836129D02*
X125905324Y-103563871D01*
D32*
X115000000Y-107100000D03*
X126000000Y-107100000D03*
D31*
X115094676Y-103563871D02*
X115705324Y-102836129D01*
D35*
X221990000Y-97080000D03*
D24*
X218240000Y-97080000D03*
X211890000Y-94540000D03*
D35*
X208140000Y-94540000D03*
D24*
X219510000Y-94540000D03*
X213160000Y-97080000D03*
D25*
X213160000Y-86920000D03*
D26*
X211488258Y-89938778D02*
X212291742Y-88981222D01*
D25*
X218240000Y-86920000D03*
D27*
X210620000Y-92000000D03*
X220780000Y-92000000D03*
D28*
X220920000Y-96200000D03*
D29*
X215700000Y-86100000D03*
D26*
X219108258Y-88981222D02*
X219911742Y-89938778D01*
D28*
X210480000Y-96200000D03*
D25*
X213160000Y-87500000D03*
X213160000Y-88000000D03*
X218240000Y-88000000D03*
X218240000Y-87500000D03*
D30*
X215700000Y-92000000D03*
D31*
X220494676Y-87736129D02*
X221105324Y-88463871D01*
D32*
X210200000Y-92000000D03*
X221200000Y-92000000D03*
D31*
X210294676Y-88463871D02*
X210905324Y-87736129D01*
D35*
X202990000Y-95580000D03*
D24*
X199240000Y-95580000D03*
X192890000Y-93040000D03*
D35*
X189140000Y-93040000D03*
D24*
X200510000Y-93040000D03*
X194160000Y-95580000D03*
D25*
X194160000Y-85420000D03*
D26*
X192488258Y-88438778D02*
X193291742Y-87481222D01*
D25*
X199240000Y-85420000D03*
D27*
X191620000Y-90500000D03*
X201780000Y-90500000D03*
D28*
X201920000Y-94700000D03*
D29*
X196700000Y-84600000D03*
D26*
X200108258Y-87481222D02*
X200911742Y-88438778D01*
D28*
X191480000Y-94700000D03*
D25*
X194160000Y-86000000D03*
X194160000Y-86500000D03*
X199240000Y-86500000D03*
X199240000Y-86000000D03*
D30*
X196700000Y-90500000D03*
D31*
X201494676Y-86236129D02*
X202105324Y-86963871D01*
D32*
X191200000Y-90500000D03*
X202200000Y-90500000D03*
D31*
X191294676Y-86963871D02*
X191905324Y-86236129D01*
D35*
X183890000Y-90780000D03*
D24*
X180140000Y-90780000D03*
X173790000Y-88240000D03*
D35*
X170040000Y-88240000D03*
D24*
X181410000Y-88240000D03*
X175060000Y-90780000D03*
D25*
X175060000Y-80620000D03*
D26*
X173388258Y-83638778D02*
X174191742Y-82681222D01*
D25*
X180140000Y-80620000D03*
D27*
X172520000Y-85700000D03*
X182680000Y-85700000D03*
D28*
X182820000Y-89900000D03*
D29*
X177600000Y-79800000D03*
D26*
X181008258Y-82681222D02*
X181811742Y-83638778D01*
D28*
X172380000Y-89900000D03*
D25*
X175060000Y-81200000D03*
X175060000Y-81700000D03*
X180140000Y-81700000D03*
X180140000Y-81200000D03*
D30*
X177600000Y-85700000D03*
D31*
X182394676Y-81436129D02*
X183005324Y-82163871D01*
D32*
X172100000Y-85700000D03*
X183100000Y-85700000D03*
D31*
X172194676Y-82163871D02*
X172805324Y-81436129D01*
D35*
X164890000Y-89480000D03*
D24*
X161140000Y-89480000D03*
X154790000Y-86940000D03*
D35*
X151040000Y-86940000D03*
D24*
X162410000Y-86940000D03*
X156060000Y-89480000D03*
D25*
X156060000Y-79320000D03*
D26*
X154388258Y-82338778D02*
X155191742Y-81381222D01*
D25*
X161140000Y-79320000D03*
D27*
X153520000Y-84400000D03*
X163680000Y-84400000D03*
D28*
X163820000Y-88600000D03*
D29*
X158600000Y-78500000D03*
D26*
X162008258Y-81381222D02*
X162811742Y-82338778D01*
D28*
X153380000Y-88600000D03*
D25*
X156060000Y-79900000D03*
X156060000Y-80400000D03*
X161140000Y-80400000D03*
X161140000Y-79900000D03*
D30*
X158600000Y-84400000D03*
D31*
X163394676Y-80136129D02*
X164005324Y-80863871D01*
D32*
X153100000Y-84400000D03*
X164100000Y-84400000D03*
D31*
X153194676Y-80863871D02*
X153805324Y-80136129D01*
D35*
X145790000Y-90780000D03*
D24*
X142040000Y-90780000D03*
X135690000Y-88240000D03*
D35*
X131940000Y-88240000D03*
D24*
X143310000Y-88240000D03*
X136960000Y-90780000D03*
D25*
X136960000Y-80620000D03*
D26*
X135288258Y-83638778D02*
X136091742Y-82681222D01*
D25*
X142040000Y-80620000D03*
D27*
X134420000Y-85700000D03*
X144580000Y-85700000D03*
D28*
X144720000Y-89900000D03*
D29*
X139500000Y-79800000D03*
D26*
X142908258Y-82681222D02*
X143711742Y-83638778D01*
D28*
X134280000Y-89900000D03*
D25*
X136960000Y-81200000D03*
X136960000Y-81700000D03*
X142040000Y-81700000D03*
X142040000Y-81200000D03*
D30*
X139500000Y-85700000D03*
D31*
X144294676Y-81436129D02*
X144905324Y-82163871D01*
D32*
X134000000Y-85700000D03*
X145000000Y-85700000D03*
D31*
X134094676Y-82163871D02*
X134705324Y-81436129D01*
D35*
X126790000Y-93180000D03*
D24*
X123040000Y-93180000D03*
X116690000Y-90640000D03*
D35*
X112940000Y-90640000D03*
D24*
X124310000Y-90640000D03*
X117960000Y-93180000D03*
D25*
X117960000Y-83020000D03*
D26*
X116288258Y-86038778D02*
X117091742Y-85081222D01*
D25*
X123040000Y-83020000D03*
D27*
X115420000Y-88100000D03*
X125580000Y-88100000D03*
D28*
X125720000Y-92300000D03*
D29*
X120500000Y-82200000D03*
D26*
X123908258Y-85081222D02*
X124711742Y-86038778D01*
D28*
X115280000Y-92300000D03*
D25*
X117960000Y-83600000D03*
X117960000Y-84100000D03*
X123040000Y-84100000D03*
X123040000Y-83600000D03*
D30*
X120500000Y-88100000D03*
D31*
X125294676Y-83836129D02*
X125905324Y-84563871D01*
D32*
X115000000Y-88100000D03*
X126000000Y-88100000D03*
D31*
X115094676Y-84563871D02*
X115705324Y-83836129D01*
D35*
X221990000Y-77880000D03*
D24*
X218240000Y-77880000D03*
X211890000Y-75340000D03*
D35*
X208140000Y-75340000D03*
D24*
X219510000Y-75340000D03*
X213160000Y-77880000D03*
D25*
X213160000Y-67720000D03*
D26*
X211488258Y-70738778D02*
X212291742Y-69781222D01*
D25*
X218240000Y-67720000D03*
D27*
X210620000Y-72800000D03*
X220780000Y-72800000D03*
D28*
X220920000Y-77000000D03*
D29*
X215700000Y-66900000D03*
D26*
X219108258Y-69781222D02*
X219911742Y-70738778D01*
D28*
X210480000Y-77000000D03*
D25*
X213160000Y-68300000D03*
X213160000Y-68800000D03*
X218240000Y-68800000D03*
X218240000Y-68300000D03*
D30*
X215700000Y-72800000D03*
D31*
X220494676Y-68536129D02*
X221105324Y-69263871D01*
D32*
X210200000Y-72800000D03*
X221200000Y-72800000D03*
D31*
X210294676Y-69263871D02*
X210905324Y-68536129D01*
D35*
X202990000Y-76380000D03*
D24*
X199240000Y-76380000D03*
X192890000Y-73840000D03*
D35*
X189140000Y-73840000D03*
D24*
X200510000Y-73840000D03*
X194160000Y-76380000D03*
D25*
X194160000Y-66220000D03*
D26*
X192488258Y-69238778D02*
X193291742Y-68281222D01*
D25*
X199240000Y-66220000D03*
D27*
X191620000Y-71300000D03*
X201780000Y-71300000D03*
D28*
X201920000Y-75500000D03*
D29*
X196700000Y-65400000D03*
D26*
X200108258Y-68281222D02*
X200911742Y-69238778D01*
D28*
X191480000Y-75500000D03*
D25*
X194160000Y-66800000D03*
X194160000Y-67300000D03*
X199240000Y-67300000D03*
X199240000Y-66800000D03*
D30*
X196700000Y-71300000D03*
D31*
X201494676Y-67036129D02*
X202105324Y-67763871D01*
D32*
X191200000Y-71300000D03*
X202200000Y-71300000D03*
D31*
X191294676Y-67763871D02*
X191905324Y-67036129D01*
D35*
X183890000Y-71680000D03*
D24*
X180140000Y-71680000D03*
X173790000Y-69140000D03*
D35*
X170040000Y-69140000D03*
D24*
X181410000Y-69140000D03*
X175060000Y-71680000D03*
D25*
X175060000Y-61520000D03*
D26*
X173388258Y-64538778D02*
X174191742Y-63581222D01*
D25*
X180140000Y-61520000D03*
D27*
X172520000Y-66600000D03*
X182680000Y-66600000D03*
D28*
X182820000Y-70800000D03*
D29*
X177600000Y-60700000D03*
D26*
X181008258Y-63581222D02*
X181811742Y-64538778D01*
D28*
X172380000Y-70800000D03*
D25*
X175060000Y-62100000D03*
X175060000Y-62600000D03*
X180140000Y-62600000D03*
X180140000Y-62100000D03*
D30*
X177600000Y-66600000D03*
D31*
X182394676Y-62336129D02*
X183005324Y-63063871D01*
D32*
X172100000Y-66600000D03*
X183100000Y-66600000D03*
D31*
X172194676Y-63063871D02*
X172805324Y-62336129D01*
D35*
X164890000Y-70380000D03*
D24*
X161140000Y-70380000D03*
X154790000Y-67840000D03*
D35*
X151040000Y-67840000D03*
D24*
X162410000Y-67840000D03*
X156060000Y-70380000D03*
D25*
X156060000Y-60220000D03*
D26*
X154388258Y-63238778D02*
X155191742Y-62281222D01*
D25*
X161140000Y-60220000D03*
D27*
X153520000Y-65300000D03*
X163680000Y-65300000D03*
D28*
X163820000Y-69500000D03*
D29*
X158600000Y-59400000D03*
D26*
X162008258Y-62281222D02*
X162811742Y-63238778D01*
D28*
X153380000Y-69500000D03*
D25*
X156060000Y-60800000D03*
X156060000Y-61300000D03*
X161140000Y-61300000D03*
X161140000Y-60800000D03*
D30*
X158600000Y-65300000D03*
D31*
X163394676Y-61036129D02*
X164005324Y-61763871D01*
D32*
X153100000Y-65300000D03*
X164100000Y-65300000D03*
D31*
X153194676Y-61763871D02*
X153805324Y-61036129D01*
D35*
X145790000Y-71780000D03*
D24*
X142040000Y-71780000D03*
X135690000Y-69240000D03*
D35*
X131940000Y-69240000D03*
D24*
X143310000Y-69240000D03*
X136960000Y-71780000D03*
D25*
X136960000Y-61620000D03*
D26*
X135288258Y-64638778D02*
X136091742Y-63681222D01*
D25*
X142040000Y-61620000D03*
D27*
X134420000Y-66700000D03*
X144580000Y-66700000D03*
D28*
X144720000Y-70900000D03*
D29*
X139500000Y-60800000D03*
D26*
X142908258Y-63681222D02*
X143711742Y-64638778D01*
D28*
X134280000Y-70900000D03*
D25*
X136960000Y-62200000D03*
X136960000Y-62700000D03*
X142040000Y-62700000D03*
X142040000Y-62200000D03*
D30*
X139500000Y-66700000D03*
D31*
X144294676Y-62436129D02*
X144905324Y-63163871D01*
D32*
X134000000Y-66700000D03*
X145000000Y-66700000D03*
D31*
X134094676Y-63163871D02*
X134705324Y-62436129D01*
D35*
X126790000Y-74180000D03*
D24*
X123040000Y-74180000D03*
X116690000Y-71640000D03*
D35*
X112940000Y-71640000D03*
D24*
X124310000Y-71640000D03*
X117960000Y-74180000D03*
D25*
X117960000Y-64020000D03*
D26*
X116288258Y-67038778D02*
X117091742Y-66081222D01*
D25*
X123040000Y-64020000D03*
D27*
X115420000Y-69100000D03*
X125580000Y-69100000D03*
D28*
X125720000Y-73300000D03*
D29*
X120500000Y-63200000D03*
D26*
X123908258Y-66081222D02*
X124711742Y-67038778D01*
D28*
X115280000Y-73300000D03*
D25*
X117960000Y-64600000D03*
X117960000Y-65100000D03*
X123040000Y-65100000D03*
X123040000Y-64600000D03*
D30*
X120500000Y-69100000D03*
D31*
X125294676Y-64836129D02*
X125905324Y-65563871D01*
D32*
X115000000Y-69100000D03*
X126000000Y-69100000D03*
D31*
X115094676Y-65563871D02*
X115705324Y-64836129D01*
D35*
X221990000Y-58980000D03*
D24*
X218240000Y-58980000D03*
X211890000Y-56440000D03*
D35*
X208140000Y-56440000D03*
D24*
X219510000Y-56440000D03*
X213160000Y-58980000D03*
D25*
X213160000Y-48820000D03*
D26*
X211488258Y-51838778D02*
X212291742Y-50881222D01*
D25*
X218240000Y-48820000D03*
D27*
X210620000Y-53900000D03*
X220780000Y-53900000D03*
D28*
X220920000Y-58100000D03*
D29*
X215700000Y-48000000D03*
D26*
X219108258Y-50881222D02*
X219911742Y-51838778D01*
D28*
X210480000Y-58100000D03*
D25*
X213160000Y-49400000D03*
X213160000Y-49900000D03*
X218240000Y-49900000D03*
X218240000Y-49400000D03*
D30*
X215700000Y-53900000D03*
D31*
X220494676Y-49636129D02*
X221105324Y-50363871D01*
D32*
X210200000Y-53900000D03*
X221200000Y-53900000D03*
D31*
X210294676Y-50363871D02*
X210905324Y-49636129D01*
D35*
X202990000Y-57480000D03*
D24*
X199240000Y-57480000D03*
X192890000Y-54940000D03*
D35*
X189140000Y-54940000D03*
D24*
X200510000Y-54940000D03*
X194160000Y-57480000D03*
D25*
X194160000Y-47320000D03*
D26*
X192488258Y-50338778D02*
X193291742Y-49381222D01*
D25*
X199240000Y-47320000D03*
D27*
X191620000Y-52400000D03*
X201780000Y-52400000D03*
D28*
X201920000Y-56600000D03*
D29*
X196700000Y-46500000D03*
D26*
X200108258Y-49381222D02*
X200911742Y-50338778D01*
D28*
X191480000Y-56600000D03*
D25*
X194160000Y-47900000D03*
X194160000Y-48400000D03*
X199240000Y-48400000D03*
X199240000Y-47900000D03*
D30*
X196700000Y-52400000D03*
D31*
X201494676Y-48136129D02*
X202105324Y-48863871D01*
D32*
X191200000Y-52400000D03*
X202200000Y-52400000D03*
D31*
X191294676Y-48863871D02*
X191905324Y-48136129D01*
D35*
X183890000Y-52680000D03*
D24*
X180140000Y-52680000D03*
X173790000Y-50140000D03*
D35*
X170040000Y-50140000D03*
D24*
X181410000Y-50140000D03*
X175060000Y-52680000D03*
D25*
X175060000Y-42520000D03*
D26*
X173388258Y-45538778D02*
X174191742Y-44581222D01*
D25*
X180140000Y-42520000D03*
D27*
X172520000Y-47600000D03*
X182680000Y-47600000D03*
D28*
X182820000Y-51800000D03*
D29*
X177600000Y-41700000D03*
D26*
X181008258Y-44581222D02*
X181811742Y-45538778D01*
D28*
X172380000Y-51800000D03*
D25*
X175060000Y-43100000D03*
X175060000Y-43600000D03*
X180140000Y-43600000D03*
X180140000Y-43100000D03*
D30*
X177600000Y-47600000D03*
D31*
X182394676Y-43336129D02*
X183005324Y-44063871D01*
D32*
X172100000Y-47600000D03*
X183100000Y-47600000D03*
D31*
X172194676Y-44063871D02*
X172805324Y-43336129D01*
D35*
X164890000Y-51290000D03*
D24*
X161140000Y-51290000D03*
X154790000Y-48750000D03*
D35*
X151040000Y-48750000D03*
D24*
X162410000Y-48750000D03*
X156060000Y-51290000D03*
D25*
X156060000Y-41130000D03*
D26*
X154388258Y-44148778D02*
X155191742Y-43191222D01*
D25*
X161140000Y-41130000D03*
D27*
X153520000Y-46210000D03*
X163680000Y-46210000D03*
D28*
X163820000Y-50410000D03*
D29*
X158600000Y-40310000D03*
D26*
X162008258Y-43191222D02*
X162811742Y-44148778D01*
D28*
X153380000Y-50410000D03*
D25*
X156060000Y-41710000D03*
X156060000Y-42210000D03*
X161140000Y-42210000D03*
X161140000Y-41710000D03*
D30*
X158600000Y-46210000D03*
D31*
X163394676Y-41946129D02*
X164005324Y-42673871D01*
D32*
X153100000Y-46210000D03*
X164100000Y-46210000D03*
D31*
X153194676Y-42673871D02*
X153805324Y-41946129D01*
D35*
X145790000Y-52680000D03*
D24*
X142040000Y-52680000D03*
X135690000Y-50140000D03*
D35*
X131940000Y-50140000D03*
D24*
X143310000Y-50140000D03*
X136960000Y-52680000D03*
D25*
X136960000Y-42520000D03*
D26*
X135288258Y-45538778D02*
X136091742Y-44581222D01*
D25*
X142040000Y-42520000D03*
D27*
X134420000Y-47600000D03*
X144580000Y-47600000D03*
D28*
X144720000Y-51800000D03*
D29*
X139500000Y-41700000D03*
D26*
X142908258Y-44581222D02*
X143711742Y-45538778D01*
D28*
X134280000Y-51800000D03*
D25*
X136960000Y-43100000D03*
X136960000Y-43600000D03*
X142040000Y-43600000D03*
X142040000Y-43100000D03*
D30*
X139500000Y-47600000D03*
D31*
X144294676Y-43336129D02*
X144905324Y-44063871D01*
D32*
X134000000Y-47600000D03*
X145000000Y-47600000D03*
D31*
X134094676Y-44063871D02*
X134705324Y-43336129D01*
D35*
X126790000Y-55080000D03*
D24*
X123040000Y-55080000D03*
X116690000Y-52540000D03*
D35*
X112940000Y-52540000D03*
D24*
X124310000Y-52540000D03*
X117960000Y-55080000D03*
D25*
X117960000Y-44920000D03*
D26*
X116288258Y-47938778D02*
X117091742Y-46981222D01*
D25*
X123040000Y-44920000D03*
D27*
X115420000Y-50000000D03*
X125580000Y-50000000D03*
D28*
X125720000Y-54200000D03*
D29*
X120500000Y-44100000D03*
D26*
X123908258Y-46981222D02*
X124711742Y-47938778D01*
D28*
X115280000Y-54200000D03*
D25*
X117960000Y-45500000D03*
X117960000Y-46000000D03*
X123040000Y-46000000D03*
X123040000Y-45500000D03*
D30*
X120500000Y-50000000D03*
D31*
X125294676Y-45736129D02*
X125905324Y-46463871D01*
D32*
X115000000Y-50000000D03*
X126000000Y-50000000D03*
D31*
X115094676Y-46463871D02*
X115705324Y-45736129D01*
D36*
X86150000Y-47800000D03*
X86150000Y-40800000D03*
D37*
X84050000Y-49600000D03*
X88250000Y-51100000D03*
X84050000Y-42600000D03*
X84050000Y-45600000D03*
D36*
X87900000Y-40800000D03*
X87900000Y-47800000D03*
D37*
X90000000Y-42600000D03*
X90000000Y-45600000D03*
X90000000Y-49600000D03*
X85800000Y-51100000D03*
D38*
X129600000Y-59600000D03*
X205800000Y-61800000D03*
X129600000Y-97600000D03*
X205800000Y-100000000D03*
X105000000Y-114800000D03*
D12*
X84688000Y-53499300D03*
X84688000Y-58579300D03*
X86938000Y-53499300D03*
X86938000Y-58579300D03*
X86900000Y-60700000D03*
X84700000Y-60700000D03*
D39*
X93478815Y-47405745D03*
X108718815Y-65185745D03*
X93478815Y-57565745D03*
X108718815Y-55025745D03*
X108718815Y-49945745D03*
X93478815Y-67725745D03*
X108718815Y-47405745D03*
X108718815Y-42325745D03*
X93478815Y-62645745D03*
X108718815Y-70265745D03*
X93478815Y-55025745D03*
X93478815Y-44865745D03*
X93478815Y-49945745D03*
X93478815Y-52485745D03*
X93478815Y-65185745D03*
X93478815Y-60105745D03*
X108718815Y-62645745D03*
X108718815Y-60105745D03*
X93478815Y-70265745D03*
X108718815Y-67725745D03*
X108718815Y-44865745D03*
X93478815Y-42325745D03*
X108718815Y-57565745D03*
X108718815Y-52485745D03*
X92180000Y-41130000D03*
X92180000Y-43670000D03*
X92180000Y-46210000D03*
X92180000Y-48750000D03*
X92180000Y-51290000D03*
X92180000Y-53830000D03*
X92180000Y-56370000D03*
X92180000Y-58910000D03*
X92180000Y-61450000D03*
X92180000Y-63990000D03*
X92180000Y-66530000D03*
X92180000Y-69070000D03*
X107420000Y-69070000D03*
X107420000Y-66530000D03*
X107420000Y-63990000D03*
X107420000Y-61450000D03*
X107420000Y-58910000D03*
X107420000Y-56370000D03*
X107420000Y-53830000D03*
X107420000Y-51290000D03*
X107420000Y-48750000D03*
X107420000Y-46210000D03*
X107420000Y-43670000D03*
X107420000Y-41130000D03*
D40*
X223520000Y-81407000D03*
X223520000Y-83947000D03*
X223520000Y-86487000D03*
M02*
