<?xml version="1.0" encoding="UTF-8" standalone="no"?>
<!-- Created with Inkscape (http://www.inkscape.org/) -->

<svg
   xmlns:dc="http://purl.org/dc/elements/1.1/"
   xmlns:cc="http://creativecommons.org/ns#"
   xmlns:rdf="http://www.w3.org/1999/02/22-rdf-syntax-ns#"
   xmlns:svg="http://www.w3.org/2000/svg"
   xmlns="http://www.w3.org/2000/svg"
   xmlns:sodipodi="http://sodipodi.sourceforge.net/DTD/sodipodi-0.dtd"
   xmlns:inkscape="http://www.inkscape.org/namespaces/inkscape"
   version="1.1"
   id="svg2"
   xml:space="preserve"
   width="1209.4493"
   height="1020.472"
   viewBox="0 0 1209.4493 1020.472"
   sodipodi:docname="Lily58_case.svg"
   inkscape:version="0.92.4 (5da689c313, 2019-01-14)"><metadata
     id="metadata8"><rdf:RDF><cc:Work
         rdf:about=""><dc:format>image/svg+xml</dc:format><dc:type
           rdf:resource="http://purl.org/dc/dcmitype/StillImage" /><dc:title></dc:title></cc:Work></rdf:RDF></metadata><defs
     id="defs6"><clipPath
       clipPathUnits="userSpaceOnUse"
       id="clipPath18"><path
         d="M 0,765.354 H 907.087 V 0 H 0 Z"
         id="path16"
         inkscape:connector-curvature="0" /></clipPath><clipPath
       clipPathUnits="userSpaceOnUse"
       id="clipPath86"><path
         d="M 0,765.354 H 907.087 V 0 H 0 Z"
         id="path84"
         inkscape:connector-curvature="0" /></clipPath><clipPath
       clipPathUnits="userSpaceOnUse"
       id="clipPath178"><path
         d="M 0,765.354 H 907.087 V 0 H 0 Z"
         id="path176"
         inkscape:connector-curvature="0" /></clipPath></defs><sodipodi:namedview
     pagecolor="#ffffff"
     bordercolor="#666666"
     borderopacity="1"
     objecttolerance="10"
     gridtolerance="10"
     guidetolerance="10"
     inkscape:pageopacity="0"
     inkscape:pageshadow="2"
     inkscape:window-width="1366"
     inkscape:window-height="716"
     id="namedview4"
     showgrid="false"
     inkscape:zoom="0.23126554"
     inkscape:cx="529.05408"
     inkscape:cy="510.23599"
     inkscape:window-x="-8"
     inkscape:window-y="-8"
     inkscape:window-maximized="1"
     inkscape:current-layer="g10" /><g
     id="g10"
     inkscape:groupmode="layer"
     inkscape:label="Lily58_case"
     transform="matrix(1.3333333,0,0,-1.3333333,0,1020.472)"><g
       id="g12"><g
         id="g14"
         clip-path="url(#clipPath18)"><g
           id="g20"
           transform="translate(833.9912,414.4227)"><path
             d="M 0,0 C 0,9.949 -73.8,18 -165.002,18"
             style="fill:none;stroke:#01ff00;stroke-width:0.5;stroke-linecap:butt;stroke-linejoin:miter;stroke-miterlimit:10;stroke-dasharray:none;stroke-opacity:1"
             id="path22"
             inkscape:connector-curvature="0" /></g><g
           id="g24"
           transform="translate(833.9912,414.4227)"><path
             d="M 0,0 V -215.017"
             style="fill:none;stroke:#01ff00;stroke-width:0.5;stroke-linecap:butt;stroke-linejoin:miter;stroke-miterlimit:10;stroke-dasharray:none;stroke-opacity:1"
             id="path26"
             inkscape:connector-curvature="0" /></g><g
           id="g28"
           transform="translate(833.9912,199.4061)"><path
             d="M 0,0 C 0,-2.351 -1.901,-4.252 -4.252,-4.252"
             style="fill:none;stroke:#01ff00;stroke-width:0.5;stroke-linecap:butt;stroke-linejoin:miter;stroke-miterlimit:10;stroke-dasharray:none;stroke-opacity:1"
             id="path30"
             inkscape:connector-curvature="0" /></g><g
           id="g32"
           transform="translate(700.3643,185.2332)"><path
             d="M 0,0 C 0,5.483 4.437,9.921 9.921,9.921"
             style="fill:none;stroke:#01ff00;stroke-width:0.5;stroke-linecap:butt;stroke-linejoin:miter;stroke-miterlimit:10;stroke-dasharray:none;stroke-opacity:1"
             id="path34"
             inkscape:connector-curvature="0" /></g><g
           id="g36"
           transform="translate(710.2852,195.1541)"><path
             d="M 0,0 H 119.454"
             style="fill:none;stroke:#01ff00;stroke-width:0.5;stroke-linecap:butt;stroke-linejoin:miter;stroke-miterlimit:10;stroke-dasharray:none;stroke-opacity:1"
             id="path38"
             inkscape:connector-curvature="0" /></g><g
           id="g40"
           transform="translate(700.3643,157.6746)"><path
             d="M 0,0 C 0,-2.351 -1.902,-4.252 -4.252,-4.252"
             style="fill:none;stroke:#01ff00;stroke-width:0.5;stroke-linecap:butt;stroke-linejoin:miter;stroke-miterlimit:10;stroke-dasharray:none;stroke-opacity:1"
             id="path42"
             inkscape:connector-curvature="0" /></g><g
           id="g44"
           transform="translate(700.3643,185.2332)"><path
             d="M 0,0 V -27.622"
             style="fill:none;stroke:#01ff00;stroke-width:0.5;stroke-linecap:butt;stroke-linejoin:miter;stroke-miterlimit:10;stroke-dasharray:none;stroke-opacity:1"
             id="path46"
             inkscape:connector-curvature="0" /></g><g
           id="g48"
           transform="translate(528.9922,153.4227)"><path
             d="M 0,0 H 167.12"
             style="fill:none;stroke:#01ff00;stroke-width:0.5;stroke-linecap:butt;stroke-linejoin:miter;stroke-miterlimit:10;stroke-dasharray:none;stroke-opacity:1"
             id="path50"
             inkscape:connector-curvature="0" /></g><g
           id="g52"
           transform="translate(449.9897,197.4256)"><path
             d="M 0,0 4.75,-8.125 9.5,-16.25 14.25,-24.375 19,-32.5 23.75,-40.625 28.5,-48.75 33.25,-56.875 38,-65"
             style="fill:none;stroke:#01ff00;stroke-width:0.5;stroke-linecap:butt;stroke-linejoin:miter;stroke-miterlimit:10;stroke-dasharray:none;stroke-opacity:1"
             id="path54"
             inkscape:connector-curvature="0" /></g><g
           id="g56"
           transform="translate(490.9902,131.4256)"><path
             d="M 0,0 4.75,2.75 9.5,5.5 14.25,8.25 19,11 23.75,13.75 28.5,16.5 33.25,19.25 38,22"
             style="fill:none;stroke:#01ff00;stroke-width:0.5;stroke-linecap:butt;stroke-linejoin:miter;stroke-miterlimit:10;stroke-dasharray:none;stroke-opacity:1"
             id="path58"
             inkscape:connector-curvature="0" /></g><g
           id="g60"
           transform="translate(487.9902,132.4256)"><path
             d="m 0,0 0.368,-0.568 0.343,-0.425 0.331,-0.289 0.333,-0.162 0.348,-0.044 0.378,0.065 0.42,0.165 L 3,-1"
             style="fill:none;stroke:#01ff00;stroke-width:0.5;stroke-linecap:butt;stroke-linejoin:miter;stroke-miterlimit:10;stroke-dasharray:none;stroke-opacity:1"
             id="path62"
             inkscape:connector-curvature="0" /></g><g
           id="g64"
           transform="translate(429.9912,286.4227)"><path
             d="M 0,0 1.023,-18.262 3.125,-34.719 5.977,-49.254 9.25,-61.75 12.617,-72.09 15.75,-80.156 18.32,-85.832 20,-89"
             style="fill:none;stroke:#01ff00;stroke-width:0.5;stroke-linecap:butt;stroke-linejoin:miter;stroke-miterlimit:10;stroke-dasharray:none;stroke-opacity:1"
             id="path66"
             inkscape:connector-curvature="0" /></g><g
           id="g68"
           transform="translate(429.9902,286.4227)"><path
             d="M 0,0 V 143.023"
             style="fill:none;stroke:#01ff00;stroke-width:0.5;stroke-linecap:butt;stroke-linejoin:miter;stroke-miterlimit:10;stroke-dasharray:none;stroke-opacity:1"
             id="path70"
             inkscape:connector-curvature="0" /></g><g
           id="g72"
           transform="translate(668.9893,432.4227)"><path
             d="M 0,0 H -236.021"
             style="fill:none;stroke:#01ff00;stroke-width:0.5;stroke-linecap:butt;stroke-linejoin:miter;stroke-miterlimit:10;stroke-dasharray:none;stroke-opacity:1"
             id="path74"
             inkscape:connector-curvature="0" /></g><g
           id="g76"
           transform="translate(429.9922,429.4461)"><path
             d="M 0,0 C 0,1.645 1.332,2.977 2.977,2.977"
             style="fill:none;stroke:#01ff00;stroke-width:0.5;stroke-linecap:butt;stroke-linejoin:miter;stroke-miterlimit:10;stroke-dasharray:none;stroke-opacity:1"
             id="path78"
             inkscape:connector-curvature="0" /></g></g></g><g
       id="g80"><g
         id="g82"
         clip-path="url(#clipPath86)"><g
           id="g88"
           transform="translate(413.0005,414.3543)"><path
             d="M 0,0 C 0,9.949 -73.8,18 -165.002,18"
             style="fill:none;stroke:#000000;stroke-width:1;stroke-linecap:butt;stroke-linejoin:miter;stroke-miterlimit:10;stroke-dasharray:none;stroke-opacity:1"
             id="path90"
             inkscape:connector-curvature="0" /></g><g
           id="g92"
           transform="translate(413.0005,414.3543)"><path
             d="M 0,0 V -215.017"
             style="fill:none;stroke:#000000;stroke-width:1;stroke-linecap:butt;stroke-linejoin:miter;stroke-miterlimit:10;stroke-dasharray:none;stroke-opacity:1"
             id="path94"
             inkscape:connector-curvature="0" /></g><g
           id="g96"
           transform="translate(413.0005,199.3377)"><path
             d="M 0,0 C 0,-2.35 -1.901,-4.252 -4.252,-4.252"
             style="fill:none;stroke:#000000;stroke-width:1;stroke-linecap:butt;stroke-linejoin:miter;stroke-miterlimit:10;stroke-dasharray:none;stroke-opacity:1"
             id="path98"
             inkscape:connector-curvature="0" /></g><g
           id="g100"
           transform="translate(279.3735,185.1649)"><path
             d="M 0,0 C 0,5.483 4.437,9.921 9.921,9.921"
             style="fill:none;stroke:#000000;stroke-width:1;stroke-linecap:butt;stroke-linejoin:miter;stroke-miterlimit:10;stroke-dasharray:none;stroke-opacity:1"
             id="path102"
             inkscape:connector-curvature="0" /></g><g
           id="g104"
           transform="translate(289.2949,195.0858)"><path
             d="M 0,0 H 119.454"
             style="fill:none;stroke:#000000;stroke-width:1;stroke-linecap:butt;stroke-linejoin:miter;stroke-miterlimit:10;stroke-dasharray:none;stroke-opacity:1"
             id="path106"
             inkscape:connector-curvature="0" /></g><g
           id="g108"
           transform="translate(279.3735,157.6063)"><path
             d="M 0,0 C 0,-2.35 -1.902,-4.252 -4.252,-4.252"
             style="fill:none;stroke:#000000;stroke-width:1;stroke-linecap:butt;stroke-linejoin:miter;stroke-miterlimit:10;stroke-dasharray:none;stroke-opacity:1"
             id="path110"
             inkscape:connector-curvature="0" /></g><g
           id="g112"
           transform="translate(279.3735,185.1649)"><path
             d="M 0,0 V -27.622"
             style="fill:none;stroke:#000000;stroke-width:1;stroke-linecap:butt;stroke-linejoin:miter;stroke-miterlimit:10;stroke-dasharray:none;stroke-opacity:1"
             id="path114"
             inkscape:connector-curvature="0" /></g><g
           id="g116"
           transform="translate(108.002,153.3543)"><path
             d="M 0,0 H 167.12"
             style="fill:none;stroke:#000000;stroke-width:1;stroke-linecap:butt;stroke-linejoin:miter;stroke-miterlimit:10;stroke-dasharray:none;stroke-opacity:1"
             id="path118"
             inkscape:connector-curvature="0" /></g><g
           id="g120"
           transform="translate(69.9995,131.3573)"><path
             d="M 0,0 4.75,2.75 9.5,5.5 14.25,8.25 19,11 23.75,13.75 28.5,16.5 33.25,19.25 38,22"
             style="fill:none;stroke:#000000;stroke-width:1;stroke-linecap:butt;stroke-linejoin:miter;stroke-miterlimit:10;stroke-dasharray:none;stroke-opacity:1"
             id="path122"
             inkscape:connector-curvature="0" /></g><g
           id="g124"
           transform="translate(9.0005,286.3543)"><path
             d="M 0,0 0.883,-18.425"
             style="fill:none;stroke:#000000;stroke-width:1;stroke-linecap:butt;stroke-linejoin:miter;stroke-miterlimit:10;stroke-dasharray:none;stroke-opacity:1"
             id="path126"
             inkscape:connector-curvature="0" /></g><g
           id="g128"
           transform="translate(9,286.3543)"><path
             d="M 0,0 V 143.023"
             style="fill:none;stroke:#000000;stroke-width:1;stroke-linecap:butt;stroke-linejoin:miter;stroke-miterlimit:10;stroke-dasharray:none;stroke-opacity:1"
             id="path130"
             inkscape:connector-curvature="0" /></g><g
           id="g132"
           transform="translate(247.9985,432.3543)"><path
             d="M 0,0 H -236.02"
             style="fill:none;stroke:#000000;stroke-width:1;stroke-linecap:butt;stroke-linejoin:miter;stroke-miterlimit:10;stroke-dasharray:none;stroke-opacity:1"
             id="path134"
             inkscape:connector-curvature="0" /></g><g
           id="g136"
           transform="translate(9.002,429.3778)"><path
             d="M 0,0 C 0,1.646 1.331,2.977 2.977,2.977"
             style="fill:none;stroke:#000000;stroke-width:1;stroke-linecap:butt;stroke-linejoin:miter;stroke-miterlimit:10;stroke-dasharray:none;stroke-opacity:1"
             id="path138"
             inkscape:connector-curvature="0" /></g><g
           id="g140"
           transform="translate(144.6255,368.4159)"><path
             d="m 0,0 c 0,1.837 -1.49,3.327 -3.328,3.327 -1.836,0 -3.326,-1.49 -3.326,-3.327 0,-1.838 1.49,-3.328 3.326,-3.328 C -1.49,-3.328 0,-1.838 0,0 Z"
             style="fill:none;stroke:#000000;stroke-width:1;stroke-linecap:round;stroke-linejoin:miter;stroke-miterlimit:4;stroke-dasharray:none;stroke-opacity:1"
             id="path142"
             inkscape:connector-curvature="0" /></g><g
           id="g144"
           transform="translate(144.6255,260.7)"><path
             d="m 0,0 c 0,1.837 -1.49,3.327 -3.328,3.327 -1.836,0 -3.326,-1.49 -3.326,-3.327 0,-1.838 1.49,-3.329 3.326,-3.329 C -1.49,-3.329 0,-1.838 0,0 Z"
             style="fill:none;stroke:#000000;stroke-width:1;stroke-linecap:round;stroke-linejoin:miter;stroke-miterlimit:4;stroke-dasharray:none;stroke-opacity:1"
             id="path146"
             inkscape:connector-curvature="0" /></g><g
           id="g148"
           transform="translate(360.625,253.8963)"><path
             d="m 0,0 c 0,1.838 -1.49,3.328 -3.328,3.328 -1.836,0 -3.326,-1.49 -3.326,-3.328 0,-1.838 1.49,-3.328 3.326,-3.328 C -1.49,-3.328 0,-1.838 0,0 Z"
             style="fill:none;stroke:#000000;stroke-width:1;stroke-linecap:round;stroke-linejoin:miter;stroke-miterlimit:4;stroke-dasharray:none;stroke-opacity:1"
             id="path150"
             inkscape:connector-curvature="0" /></g><g
           id="g152"
           transform="translate(360.625,362.1795)"><path
             d="m 0,0 c 0,1.838 -1.49,3.328 -3.328,3.328 -1.836,0 -3.326,-1.49 -3.326,-3.328 0,-1.838 1.49,-3.328 3.326,-3.328 C -1.49,-3.328 0,-1.838 0,0 Z"
             style="fill:none;stroke:#000000;stroke-width:1;stroke-linecap:round;stroke-linejoin:miter;stroke-miterlimit:4;stroke-dasharray:none;stroke-opacity:1"
             id="path154"
             inkscape:connector-curvature="0" /></g><g
           id="g156"
           transform="translate(74.8936,211.9432)"><path
             d="m 0,0 c 0,1.838 -1.49,3.328 -3.328,3.328 -1.836,0 -3.326,-1.49 -3.326,-3.328 0,-1.838 1.49,-3.328 3.326,-3.328 C -1.49,-3.328 0,-1.838 0,0 Z"
             style="fill:none;stroke:#000000;stroke-width:1;stroke-linecap:round;stroke-linejoin:miter;stroke-miterlimit:4;stroke-dasharray:none;stroke-opacity:1"
             id="path158"
             inkscape:connector-curvature="0" /></g><g
           id="g160"
           transform="translate(28.9995,196.6658)"><path
             d="m 0,0 4.767,-8.111 4.767,-8.112 4.767,-8.111 4.767,-8.111 4.766,-8.112 4.768,-8.111 4.767,-8.111 4.767,-8.112"
             style="fill:none;stroke:#000000;stroke-width:1;stroke-linecap:butt;stroke-linejoin:miter;stroke-miterlimit:10;stroke-dasharray:none;stroke-opacity:1"
             id="path162"
             inkscape:connector-curvature="0" /></g><g
           id="g164"
           transform="translate(67.1353,131.7752)"><path
             d="M 0,0 0.271,-0.336 0.697,-0.604 1.012,-0.749 1.317,-0.844 1.64,-0.848 1.991,-0.817 2.352,-0.7 2.864,-0.418"
             style="fill:none;stroke:#000000;stroke-width:1;stroke-linecap:butt;stroke-linejoin:miter;stroke-miterlimit:10;stroke-dasharray:none;stroke-opacity:1"
             id="path166"
             inkscape:connector-curvature="0" /></g><g
           id="g168"
           transform="translate(9.8833,267.9295)"><path
             d="m 0,0 2.117,-16.579 2.873,-14.643 3.298,-12.589 3.392,-10.417 3.156,-8.126 2.589,-5.717 1.692,-3.193"
             style="fill:none;stroke:#000000;stroke-width:1;stroke-linecap:butt;stroke-linejoin:miter;stroke-miterlimit:10;stroke-dasharray:none;stroke-opacity:1"
             id="path170"
             inkscape:connector-curvature="0" /></g></g></g><g
       id="g172"><g
         id="g174"
         clip-path="url(#clipPath178)"><g
           id="g180"
           transform="translate(413.0005,738.3543)"><path
             d="M 0,0 C 0,9.949 -73.8,18 -165.002,18"
             style="fill:none;stroke:#000000;stroke-width:1;stroke-linecap:butt;stroke-linejoin:miter;stroke-miterlimit:10;stroke-dasharray:none;stroke-opacity:1"
             id="path182"
             inkscape:connector-curvature="0" /></g><g
           id="g184"
           transform="translate(413.0005,738.3543)"><path
             d="M 0,0 V -215.016"
             style="fill:none;stroke:#000000;stroke-width:1;stroke-linecap:butt;stroke-linejoin:miter;stroke-miterlimit:10;stroke-dasharray:none;stroke-opacity:1"
             id="path186"
             inkscape:connector-curvature="0" /></g><g
           id="g188"
           transform="translate(413.0005,523.3382)"><path
             d="M 0,0 C 0,-2.351 -1.901,-4.252 -4.252,-4.252"
             style="fill:none;stroke:#000000;stroke-width:1;stroke-linecap:butt;stroke-linejoin:miter;stroke-miterlimit:10;stroke-dasharray:none;stroke-opacity:1"
             id="path190"
             inkscape:connector-curvature="0" /></g><g
           id="g192"
           transform="translate(279.3735,509.1649)"><path
             d="M 0,0 C 0,5.484 4.437,9.921 9.921,9.921"
             style="fill:none;stroke:#000000;stroke-width:1;stroke-linecap:butt;stroke-linejoin:miter;stroke-miterlimit:10;stroke-dasharray:none;stroke-opacity:1"
             id="path194"
             inkscape:connector-curvature="0" /></g><g
           id="g196"
           transform="translate(289.2949,519.0862)"><path
             d="M 0,0 H 119.454"
             style="fill:none;stroke:#000000;stroke-width:1;stroke-linecap:butt;stroke-linejoin:miter;stroke-miterlimit:10;stroke-dasharray:none;stroke-opacity:1"
             id="path198"
             inkscape:connector-curvature="0" /></g><g
           id="g200"
           transform="translate(279.3735,481.6068)"><path
             d="M 0,0 C 0,-2.351 -1.902,-4.252 -4.252,-4.252"
             style="fill:none;stroke:#000000;stroke-width:1;stroke-linecap:butt;stroke-linejoin:miter;stroke-miterlimit:10;stroke-dasharray:none;stroke-opacity:1"
             id="path202"
             inkscape:connector-curvature="0" /></g><g
           id="g204"
           transform="translate(279.3735,509.1649)"><path
             d="M 0,0 V -27.622"
             style="fill:none;stroke:#000000;stroke-width:1;stroke-linecap:butt;stroke-linejoin:miter;stroke-miterlimit:10;stroke-dasharray:none;stroke-opacity:1"
             id="path206"
             inkscape:connector-curvature="0" /></g><g
           id="g208"
           transform="translate(108.002,477.3548)"><path
             d="M 0,0 H 167.12"
             style="fill:none;stroke:#000000;stroke-width:1;stroke-linecap:butt;stroke-linejoin:miter;stroke-miterlimit:10;stroke-dasharray:none;stroke-opacity:1"
             id="path210"
             inkscape:connector-curvature="0" /></g><g
           id="g212"
           transform="translate(28.9995,520.6663)"><path
             d="m 0,0 4.767,-8.111 4.767,-8.112 4.767,-8.111 4.767,-8.112 4.766,-8.111 4.768,-8.111 4.767,-8.112 4.767,-8.112"
             style="fill:none;stroke:#000000;stroke-width:1;stroke-linecap:butt;stroke-linejoin:miter;stroke-miterlimit:10;stroke-dasharray:none;stroke-opacity:1"
             id="path214"
             inkscape:connector-curvature="0" /></g><g
           id="g216"
           transform="translate(69.9995,455.3573)"><path
             d="M 0,0 4.75,2.75 9.5,5.5 14.25,8.25 19,11 23.75,13.75 28.5,16.5 33.25,19.25 38,22"
             style="fill:none;stroke:#000000;stroke-width:1;stroke-linecap:butt;stroke-linejoin:miter;stroke-miterlimit:10;stroke-dasharray:none;stroke-opacity:1"
             id="path218"
             inkscape:connector-curvature="0" /></g><g
           id="g220"
           transform="translate(67.1353,455.7747)"><path
             d="m 0,0 0.271,-0.335 0.426,-0.269 0.315,-0.145 0.305,-0.095 0.323,-0.003 0.351,0.03 0.361,0.117 0.512,0.283"
             style="fill:none;stroke:#000000;stroke-width:1;stroke-linecap:butt;stroke-linejoin:miter;stroke-miterlimit:10;stroke-dasharray:none;stroke-opacity:1"
             id="path222"
             inkscape:connector-curvature="0" /></g><g
           id="g224"
           transform="translate(9.0024,607.6483)"><path
             d="m 0,0 0.881,-15.719 2.117,-16.579 2.873,-14.643 3.297,-12.589 3.393,-10.416 3.156,-8.127 2.589,-5.718 1.692,-3.191"
             style="fill:none;stroke:#000000;stroke-width:1;stroke-linecap:butt;stroke-linejoin:miter;stroke-miterlimit:10;stroke-dasharray:none;stroke-opacity:1"
             id="path226"
             inkscape:connector-curvature="0" /></g><g
           id="g228"
           transform="translate(247.9985,756.3543)"><path
             d="M 0,0 H -154.116"
             style="fill:none;stroke:#000000;stroke-width:1;stroke-linecap:butt;stroke-linejoin:miter;stroke-miterlimit:10;stroke-dasharray:none;stroke-opacity:1"
             id="path230"
             inkscape:connector-curvature="0" /></g><path
           d="m 351.325,693.102 h -39.686 v 39.685 h 39.686 z"
           style="fill:none;stroke:#000000;stroke-width:1;stroke-linecap:butt;stroke-linejoin:miter;stroke-miterlimit:4;stroke-dasharray:none;stroke-opacity:1"
           id="path232"
           inkscape:connector-curvature="0" /><path
           d="m 351.325,531.247 h -39.686 v 39.685 h 39.686 z"
           style="fill:none;stroke:#000000;stroke-width:1;stroke-linecap:butt;stroke-linejoin:miter;stroke-miterlimit:4;stroke-dasharray:none;stroke-opacity:1"
           id="path234"
           inkscape:connector-curvature="0" /><path
           d="m 351.282,585.103 h -39.686 v 39.685 h 39.686 z"
           style="fill:none;stroke:#000000;stroke-width:1;stroke-linecap:butt;stroke-linejoin:miter;stroke-miterlimit:4;stroke-dasharray:none;stroke-opacity:1"
           id="path236"
           inkscape:connector-curvature="0" /><path
           d="m 351.322,639.527 h -39.686 v 39.685 h 39.686 z"
           style="fill:none;stroke:#000000;stroke-width:1;stroke-linecap:butt;stroke-linejoin:miter;stroke-miterlimit:4;stroke-dasharray:none;stroke-opacity:1"
           id="path238"
           inkscape:connector-curvature="0" /><path
           d="m 297.181,544.567 h -39.686 v 39.685 h 39.686 z"
           style="fill:none;stroke:#000000;stroke-width:1;stroke-linecap:butt;stroke-linejoin:miter;stroke-miterlimit:4;stroke-dasharray:none;stroke-opacity:1"
           id="path240"
           inkscape:connector-curvature="0" /><path
           d="m 297.184,598.712 h -39.686 v 39.685 h 39.686 z"
           style="fill:none;stroke:#000000;stroke-width:1;stroke-linecap:butt;stroke-linejoin:miter;stroke-miterlimit:4;stroke-dasharray:none;stroke-opacity:1"
           id="path242"
           inkscape:connector-curvature="0" /><path
           d="m 297.178,652.851 h -39.686 v 39.685 h 39.686 z"
           style="fill:none;stroke:#000000;stroke-width:1;stroke-linecap:butt;stroke-linejoin:miter;stroke-miterlimit:4;stroke-dasharray:none;stroke-opacity:1"
           id="path244"
           inkscape:connector-curvature="0" /><path
           d="m 297.195,706.71 h -39.686 v 39.685 h 39.686 z"
           style="fill:none;stroke:#000000;stroke-width:1;stroke-linecap:butt;stroke-linejoin:miter;stroke-miterlimit:4;stroke-dasharray:none;stroke-opacity:1"
           id="path246"
           inkscape:connector-curvature="0" /><path
           d="m 243.125,710.649 h -39.686 v 39.685 h 39.686 z"
           style="fill:none;stroke:#000000;stroke-width:1;stroke-linecap:butt;stroke-linejoin:miter;stroke-miterlimit:4;stroke-dasharray:none;stroke-opacity:1"
           id="path248"
           inkscape:connector-curvature="0" /><path
           d="m 243.325,656.534 h -39.686 v 39.686 h 39.686 z"
           style="fill:none;stroke:#000000;stroke-width:1;stroke-linecap:butt;stroke-linejoin:miter;stroke-miterlimit:4;stroke-dasharray:none;stroke-opacity:1"
           id="path250"
           inkscape:connector-curvature="0" /><path
           d="m 243.325,602.397 h -39.686 v 39.685 h 39.686 z"
           style="fill:none;stroke:#000000;stroke-width:1;stroke-linecap:butt;stroke-linejoin:miter;stroke-miterlimit:4;stroke-dasharray:none;stroke-opacity:1"
           id="path252"
           inkscape:connector-curvature="0" /><path
           d="m 243.322,548.538 h -39.686 v 39.685 h 39.686 z"
           style="fill:none;stroke:#000000;stroke-width:1;stroke-linecap:butt;stroke-linejoin:miter;stroke-miterlimit:4;stroke-dasharray:none;stroke-opacity:1"
           id="path254"
           inkscape:connector-curvature="0" /><path
           d="m 216.11,490.852 h -39.686 v 39.685 h 39.686 z"
           style="fill:none;stroke:#000000;stroke-width:1;stroke-linecap:butt;stroke-linejoin:miter;stroke-miterlimit:4;stroke-dasharray:none;stroke-opacity:1"
           id="path256"
           inkscape:connector-curvature="0" /><path
           d="m 162.25,484.473 h -39.686 v 39.686 h 39.686 z"
           style="fill:none;stroke:#000000;stroke-width:1;stroke-linecap:butt;stroke-linejoin:miter;stroke-miterlimit:4;stroke-dasharray:none;stroke-opacity:1"
           id="path258"
           inkscape:connector-curvature="0" /><path
           d="m 189.184,544.568 h -39.686 v 39.685 h 39.686 z"
           style="fill:none;stroke:#000000;stroke-width:1;stroke-linecap:butt;stroke-linejoin:miter;stroke-miterlimit:4;stroke-dasharray:none;stroke-opacity:1"
           id="path260"
           inkscape:connector-curvature="0" /><path
           d="m 189.184,598.705 h -39.686 v 39.685 h 39.686 z"
           style="fill:none;stroke:#000000;stroke-width:1;stroke-linecap:butt;stroke-linejoin:miter;stroke-miterlimit:4;stroke-dasharray:none;stroke-opacity:1"
           id="path262"
           inkscape:connector-curvature="0" /><path
           d="m 189.181,652.567 h -39.686 v 39.685 h 39.686 z"
           style="fill:none;stroke:#000000;stroke-width:1;stroke-linecap:butt;stroke-linejoin:miter;stroke-miterlimit:4;stroke-dasharray:none;stroke-opacity:1"
           id="path264"
           inkscape:connector-curvature="0" /><path
           d="m 189.181,706.71 h -39.686 v 39.685 h 39.686 z"
           style="fill:none;stroke:#000000;stroke-width:1;stroke-linecap:butt;stroke-linejoin:miter;stroke-miterlimit:4;stroke-dasharray:none;stroke-opacity:1"
           id="path266"
           inkscape:connector-curvature="0" /><path
           d="M 135.322,699.907 H 95.636 v 39.685 h 39.686 z"
           style="fill:none;stroke:#000000;stroke-width:1;stroke-linecap:butt;stroke-linejoin:miter;stroke-miterlimit:4;stroke-dasharray:none;stroke-opacity:1"
           id="path268"
           inkscape:connector-curvature="0" /><path
           d="M 135.325,645.761 H 95.639 v 39.685 h 39.686 z"
           style="fill:none;stroke:#000000;stroke-width:1;stroke-linecap:butt;stroke-linejoin:miter;stroke-miterlimit:4;stroke-dasharray:none;stroke-opacity:1"
           id="path270"
           inkscape:connector-curvature="0" /><path
           d="M 135.322,591.911 H 95.636 v 39.685 h 39.686 z"
           style="fill:none;stroke:#000000;stroke-width:1;stroke-linecap:butt;stroke-linejoin:miter;stroke-miterlimit:4;stroke-dasharray:none;stroke-opacity:1"
           id="path272"
           inkscape:connector-curvature="0" /><path
           d="M 135.322,538.044 H 95.636 v 39.685 h 39.686 z"
           style="fill:none;stroke:#000000;stroke-width:1;stroke-linecap:butt;stroke-linejoin:miter;stroke-miterlimit:4;stroke-dasharray:none;stroke-opacity:1"
           id="path274"
           inkscape:connector-curvature="0" /><g
           id="g276"
           transform="translate(98.6494,494.2196)"><path
             d="m 0,0 -34.369,-19.843 -19.842,34.368 34.368,19.843 z"
             style="fill:none;stroke:#000000;stroke-width:1;stroke-linecap:butt;stroke-linejoin:miter;stroke-miterlimit:4;stroke-dasharray:none;stroke-opacity:1"
             id="path278"
             inkscape:connector-curvature="0" /></g><path
           d="M 81.045,565.26 H 41.496 v 39.685 h 39.549 z"
           style="fill:none;stroke:#000000;stroke-width:1;stroke-linecap:butt;stroke-linejoin:miter;stroke-miterlimit:4;stroke-dasharray:none;stroke-opacity:1"
           id="path280"
           inkscape:connector-curvature="0" /><g
           id="g282"
           transform="translate(9,620.1258)"><path
             d="M 0,0 C 0,-3.446 2.79,-6.234 6.237,-6.234"
             style="fill:none;stroke:#000000;stroke-width:1;stroke-linecap:round;stroke-linejoin:miter;stroke-miterlimit:4;stroke-dasharray:none;stroke-opacity:1"
             id="path284"
             inkscape:connector-curvature="0" /></g><g
           id="g286"
           transform="translate(15.2368,613.8914)"><path
             d="M 0,0 H 66.175"
             style="fill:none;stroke:#000000;stroke-width:1;stroke-linecap:round;stroke-linejoin:miter;stroke-miterlimit:4;stroke-dasharray:none;stroke-opacity:1"
             id="path288"
             inkscape:connector-curvature="0" /></g><g
           id="g290"
           transform="translate(81.4121,613.8909)"><path
             d="M 0,0 C 3.446,0 6.235,2.79 6.235,6.236"
             style="fill:none;stroke:#000000;stroke-width:1;stroke-linecap:round;stroke-linejoin:miter;stroke-miterlimit:4;stroke-dasharray:none;stroke-opacity:1"
             id="path292"
             inkscape:connector-curvature="0" /></g><g
           id="g294"
           transform="translate(15.2363,613.8909)"><path
             d="M 0,0 C -3.489,0 -6.234,-2.749 -6.234,-6.243"
             style="fill:none;stroke:#000000;stroke-width:1;stroke-linecap:round;stroke-linejoin:miter;stroke-miterlimit:4;stroke-dasharray:none;stroke-opacity:1"
             id="path296"
             inkscape:connector-curvature="0" /></g><g
           id="g298"
           transform="translate(84.166,620.7347)"><path
             d="m 0,0 c 0,1.837 -1.49,3.328 -3.328,3.328 -1.837,0 -3.327,-1.491 -3.327,-3.328 0,-1.838 1.49,-3.328 3.327,-3.328 C -1.49,-3.328 0,-1.838 0,0 Z"
             style="fill:none;stroke:#000000;stroke-width:1;stroke-linecap:round;stroke-linejoin:miter;stroke-miterlimit:4;stroke-dasharray:none;stroke-opacity:1"
             id="path300"
             inkscape:connector-curvature="0" /></g><g
           id="g302"
           transform="translate(21.8037,620.7347)"><path
             d="m 0,0 c 0,1.837 -1.49,3.328 -3.328,3.328 -1.837,0 -3.327,-1.491 -3.327,-3.328 0,-1.838 1.49,-3.328 3.327,-3.328 C -1.49,-3.328 0,-1.838 0,0 Z"
             style="fill:none;stroke:#000000;stroke-width:1;stroke-linecap:round;stroke-linejoin:miter;stroke-miterlimit:4;stroke-dasharray:none;stroke-opacity:1"
             id="path304"
             inkscape:connector-curvature="0" /></g><g
           id="g306"
           transform="translate(87.647,750.1185)"><path
             d="M 0,0 C 0,3.447 -2.789,6.235 -6.236,6.235"
             style="fill:none;stroke:#000000;stroke-width:1;stroke-linecap:round;stroke-linejoin:miter;stroke-miterlimit:4;stroke-dasharray:none;stroke-opacity:1"
             id="path308"
             inkscape:connector-curvature="0" /></g><g
           id="g310"
           transform="translate(15.2354,756.3538)"><path
             d="M 0,0 C -3.447,0 -6.235,-2.789 -6.235,-6.236"
             style="fill:none;stroke:#000000;stroke-width:1;stroke-linecap:round;stroke-linejoin:miter;stroke-miterlimit:4;stroke-dasharray:none;stroke-opacity:1"
             id="path312"
             inkscape:connector-curvature="0" /></g><g
           id="g314"
           transform="translate(93.8823,756.3543)"><path
             d="M 0,0 C -3.446,0 -6.235,-2.789 -6.235,-6.236"
             style="fill:none;stroke:#000000;stroke-width:1;stroke-linecap:round;stroke-linejoin:miter;stroke-miterlimit:4;stroke-dasharray:none;stroke-opacity:1"
             id="path316"
             inkscape:connector-curvature="0" /></g><g
           id="g318"
           transform="translate(81.4111,756.3538)"><path
             d="M 0,0 H -66.176"
             style="fill:none;stroke:#000000;stroke-width:1;stroke-linecap:butt;stroke-linejoin:miter;stroke-miterlimit:10;stroke-dasharray:none;stroke-opacity:1"
             id="path320"
             inkscape:connector-curvature="0" /></g><g
           id="g322"
           transform="translate(230.5674,530.534)"><path
             d="M 0,0 H 39.687"
             style="fill:none;stroke:#000000;stroke-width:1;stroke-linecap:round;stroke-linejoin:round;stroke-miterlimit:4;stroke-dasharray:none;stroke-opacity:1"
             id="path324"
             inkscape:connector-curvature="0" /></g><g
           id="g326"
           transform="translate(270.2539,530.534)"><path
             d="M 0,0 V -39.686"
             style="fill:none;stroke:#000000;stroke-width:1;stroke-linecap:round;stroke-linejoin:round;stroke-miterlimit:4;stroke-dasharray:none;stroke-opacity:1"
             id="path328"
             inkscape:connector-curvature="0" /></g><g
           id="g330"
           transform="translate(270.2539,490.8475)"><path
             d="M 0,0 H -39.687"
             style="fill:none;stroke:#000000;stroke-width:1;stroke-linecap:round;stroke-linejoin:round;stroke-miterlimit:4;stroke-dasharray:none;stroke-opacity:1"
             id="path332"
             inkscape:connector-curvature="0" /></g><g
           id="g334"
           transform="translate(230.5674,503.3988)"><path
             d="M 0,0 V 27.135"
             style="fill:none;stroke:#000000;stroke-width:1;stroke-linecap:round;stroke-linejoin:round;stroke-miterlimit:4;stroke-dasharray:none;stroke-opacity:1"
             id="path336"
             inkscape:connector-curvature="0" /></g><g
           id="g338"
           transform="translate(230.5674,490.8475)"><path
             d="M 0,0 V 12.551"
             style="fill:none;stroke:#000000;stroke-width:1;stroke-linecap:round;stroke-linejoin:round;stroke-miterlimit:4;stroke-dasharray:none;stroke-opacity:1"
             id="path340"
             inkscape:connector-curvature="0" /></g><g
           id="g342"
           transform="translate(365.4917,728.5374)"><path
             d="M 0,0 H 39.686"
             style="fill:none;stroke:#000000;stroke-width:1;stroke-linecap:round;stroke-linejoin:round;stroke-miterlimit:4;stroke-dasharray:none;stroke-opacity:1"
             id="path344"
             inkscape:connector-curvature="0" /></g><g
           id="g346"
           transform="translate(405.1777,728.5374)"><path
             d="M 0,0 V -39.687"
             style="fill:none;stroke:#000000;stroke-width:1;stroke-linecap:round;stroke-linejoin:round;stroke-miterlimit:4;stroke-dasharray:none;stroke-opacity:1"
             id="path348"
             inkscape:connector-curvature="0" /></g><g
           id="g350"
           transform="translate(405.1777,688.8509)"><path
             d="M 0,0 H -39.686"
             style="fill:none;stroke:#000000;stroke-width:1;stroke-linecap:round;stroke-linejoin:round;stroke-miterlimit:4;stroke-dasharray:none;stroke-opacity:1"
             id="path352"
             inkscape:connector-curvature="0" /></g><g
           id="g354"
           transform="translate(365.4917,688.8509)"><path
             d="M 0,0 V 39.687"
             style="fill:none;stroke:#000000;stroke-width:1;stroke-linecap:round;stroke-linejoin:round;stroke-miterlimit:4;stroke-dasharray:none;stroke-opacity:1"
             id="path356"
             inkscape:connector-curvature="0" /></g><g
           id="g358"
           transform="translate(365.4917,674.9583)"><path
             d="M 0,0 H 39.686"
             style="fill:none;stroke:#000000;stroke-width:1;stroke-linecap:round;stroke-linejoin:round;stroke-miterlimit:4;stroke-dasharray:none;stroke-opacity:1"
             id="path360"
             inkscape:connector-curvature="0" /></g><g
           id="g362"
           transform="translate(405.1777,674.9583)"><path
             d="M 0,0 V -39.679"
             style="fill:none;stroke:#000000;stroke-width:1;stroke-linecap:round;stroke-linejoin:round;stroke-miterlimit:4;stroke-dasharray:none;stroke-opacity:1"
             id="path364"
             inkscape:connector-curvature="0" /></g><g
           id="g366"
           transform="translate(405.1777,635.2791)"><path
             d="M 0,0 H -39.686"
             style="fill:none;stroke:#000000;stroke-width:1;stroke-linecap:round;stroke-linejoin:round;stroke-miterlimit:4;stroke-dasharray:none;stroke-opacity:1"
             id="path368"
             inkscape:connector-curvature="0" /></g><g
           id="g370"
           transform="translate(365.4917,635.2791)"><path
             d="M 0,0 V 39.679"
             style="fill:none;stroke:#000000;stroke-width:1;stroke-linecap:round;stroke-linejoin:round;stroke-miterlimit:4;stroke-dasharray:none;stroke-opacity:1"
             id="path372"
             inkscape:connector-curvature="0" /></g><path
           d="m 405.322,526.993 h -39.686 v 39.685 h 39.686 z"
           style="fill:none;stroke:#000000;stroke-width:1;stroke-linecap:butt;stroke-linejoin:miter;stroke-miterlimit:4;stroke-dasharray:none;stroke-opacity:1"
           id="path374"
           inkscape:connector-curvature="0" /><path
           d="m 405.183,580.847 h -39.686 v 39.685 h 39.686 z"
           style="fill:none;stroke:#000000;stroke-width:1;stroke-linecap:butt;stroke-linejoin:miter;stroke-miterlimit:4;stroke-dasharray:none;stroke-opacity:1"
           id="path376"
           inkscape:connector-curvature="0" /><g
           id="g378"
           transform="translate(9,620.1258)"><path
             d="M 0,0 V 129.993"
             style="fill:none;stroke:#000000;stroke-width:1;stroke-linecap:round;stroke-linejoin:miter;stroke-miterlimit:4;stroke-dasharray:none;stroke-opacity:1"
             id="path380"
             inkscape:connector-curvature="0" /></g><g
           id="g382"
           transform="translate(87.647,620.1273)"><path
             d="M 0,0 V 129.952"
             style="fill:none;stroke:#000000;stroke-width:1;stroke-linecap:round;stroke-linejoin:miter;stroke-miterlimit:4;stroke-dasharray:none;stroke-opacity:1"
             id="path384"
             inkscape:connector-curvature="0" /></g><g
           id="g386"
           transform="translate(144.6255,692.4158)"><path
             d="m 0,0 c 0,1.837 -1.49,3.328 -3.328,3.328 -1.836,0 -3.326,-1.491 -3.326,-3.328 0,-1.838 1.49,-3.329 3.326,-3.329 C -1.49,-3.329 0,-1.838 0,0 Z"
             style="fill:none;stroke:#000000;stroke-width:1;stroke-linecap:round;stroke-linejoin:miter;stroke-miterlimit:4;stroke-dasharray:none;stroke-opacity:1"
             id="path388"
             inkscape:connector-curvature="0" /></g><g
           id="g390"
           transform="translate(144.6255,584.6995)"><path
             d="m 0,0 c 0,1.837 -1.49,3.328 -3.328,3.328 -1.836,0 -3.326,-1.491 -3.326,-3.328 0,-1.838 1.49,-3.329 3.326,-3.329 C -1.49,-3.329 0,-1.838 0,0 Z"
             style="fill:none;stroke:#000000;stroke-width:1;stroke-linecap:round;stroke-linejoin:miter;stroke-miterlimit:4;stroke-dasharray:none;stroke-opacity:1"
             id="path392"
             inkscape:connector-curvature="0" /></g><g
           id="g394"
           transform="translate(360.625,577.8963)"><path
             d="m 0,0 c 0,1.837 -1.49,3.328 -3.328,3.328 -1.836,0 -3.326,-1.491 -3.326,-3.328 0,-1.838 1.49,-3.329 3.326,-3.329 C -1.49,-3.329 0,-1.838 0,0 Z"
             style="fill:none;stroke:#000000;stroke-width:1;stroke-linecap:round;stroke-linejoin:miter;stroke-miterlimit:4;stroke-dasharray:none;stroke-opacity:1"
             id="path396"
             inkscape:connector-curvature="0" /></g><g
           id="g398"
           transform="translate(360.625,686.18)"><path
             d="m 0,0 c 0,1.837 -1.49,3.328 -3.328,3.328 -1.836,0 -3.326,-1.491 -3.326,-3.328 0,-1.838 1.49,-3.329 3.326,-3.329 C -1.49,-3.329 0,-1.838 0,0 Z"
             style="fill:none;stroke:#000000;stroke-width:1;stroke-linecap:round;stroke-linejoin:miter;stroke-miterlimit:4;stroke-dasharray:none;stroke-opacity:1"
             id="path400"
             inkscape:connector-curvature="0" /></g><g
           id="g402"
           transform="translate(74.8936,535.9437)"><path
             d="m 0,0 c 0,1.837 -1.49,3.328 -3.328,3.328 -1.836,0 -3.326,-1.491 -3.326,-3.328 0,-1.838 1.49,-3.329 3.326,-3.329 C -1.49,-3.329 0,-1.838 0,0 Z"
             style="fill:none;stroke:#000000;stroke-width:1;stroke-linecap:round;stroke-linejoin:miter;stroke-miterlimit:4;stroke-dasharray:none;stroke-opacity:1"
             id="path404"
             inkscape:connector-curvature="0" /></g></g></g></g></svg>