G04 #@! TF.GenerationSoftware,KiCad,Pcbnew,(5.0.2)-1*
G04 #@! TF.CreationDate,2019-04-21T02:01:40-04:00*
G04 #@! TF.ProjectId,Zen2,5a656e32-2e6b-4696-9361-645f70636258,rev?*
G04 #@! TF.SameCoordinates,Original*
G04 #@! TF.FileFunction,Copper,L1,Top*
G04 #@! TF.FilePolarity,Positive*
%FSLAX46Y46*%
G04 Gerber Fmt 4.6, Leading zero omitted, Abs format (unit mm)*
G04 Created by KiCad (PCBNEW (5.0.2)-1) date 4/21/2019 2:01:40 AM*
%MOMM*%
%LPD*%
G01*
G04 APERTURE LIST*
G04 #@! TA.AperFunction,ComponentPad*
%ADD10C,1.524000*%
G04 #@! TD*
G04 #@! TA.AperFunction,ComponentPad*
%ADD11O,1.525000X1.200000*%
G04 #@! TD*
G04 #@! TA.AperFunction,ComponentPad*
%ADD12O,2.200000X1.700000*%
G04 #@! TD*
G04 #@! TA.AperFunction,ComponentPad*
%ADD13O,2.200000X2.200000*%
G04 #@! TD*
G04 #@! TA.AperFunction,ComponentPad*
%ADD14O,2.500000X2.500000*%
G04 #@! TD*
G04 #@! TA.AperFunction,ComponentPad*
%ADD15R,1.600000X1.600000*%
G04 #@! TD*
G04 #@! TA.AperFunction,ComponentPad*
%ADD16C,1.600000*%
G04 #@! TD*
G04 #@! TA.AperFunction,SMDPad,CuDef*
%ADD17R,1.200000X1.600000*%
G04 #@! TD*
G04 #@! TA.AperFunction,Conductor*
%ADD18R,0.500000X2.900000*%
G04 #@! TD*
G04 #@! TA.AperFunction,SMDPad,CuDef*
%ADD19R,1.500000X0.750000*%
G04 #@! TD*
G04 #@! TA.AperFunction,ComponentPad*
%ADD20R,1.700000X1.700000*%
G04 #@! TD*
G04 #@! TA.AperFunction,ComponentPad*
%ADD21O,1.700000X1.700000*%
G04 #@! TD*
G04 #@! TA.AperFunction,ComponentPad*
%ADD22C,2.500000*%
G04 #@! TD*
G04 #@! TA.AperFunction,Conductor*
%ADD23C,2.500000*%
G04 #@! TD*
G04 #@! TA.AperFunction,ComponentPad*
%ADD24C,2.200000*%
G04 #@! TD*
G04 #@! TA.AperFunction,Conductor*
%ADD25C,2.200000*%
G04 #@! TD*
G04 #@! TA.AperFunction,ComponentPad*
%ADD26C,1.400000*%
G04 #@! TD*
G04 #@! TA.AperFunction,Conductor*
%ADD27C,1.400000*%
G04 #@! TD*
G04 #@! TA.AperFunction,SMDPad,CuDef*
%ADD28R,0.600000X1.200000*%
G04 #@! TD*
G04 #@! TA.AperFunction,SMDPad,CuDef*
%ADD29R,1.200000X0.600000*%
G04 #@! TD*
G04 #@! TA.AperFunction,WasherPad*
%ADD30O,1.600000X1.000000*%
G04 #@! TD*
G04 #@! TA.AperFunction,WasherPad*
%ADD31O,2.100000X1.000000*%
G04 #@! TD*
G04 #@! TA.AperFunction,SMDPad,CuDef*
%ADD32R,2.450000X0.300000*%
G04 #@! TD*
G04 #@! TA.AperFunction,SMDPad,CuDef*
%ADD33R,1.450000X0.300000*%
G04 #@! TD*
G04 #@! TA.AperFunction,SMDPad,CuDef*
%ADD34R,2.450000X0.600000*%
G04 #@! TD*
G04 #@! TA.AperFunction,SMDPad,CuDef*
%ADD35R,1.800000X1.400000*%
G04 #@! TD*
G04 #@! TA.AperFunction,SMDPad,CuDef*
%ADD36C,1.400000*%
G04 #@! TD*
G04 #@! TA.AperFunction,Conductor*
%ADD37C,0.100000*%
G04 #@! TD*
G04 #@! TA.AperFunction,SMDPad,CuDef*
%ADD38R,2.400000X1.500000*%
G04 #@! TD*
G04 #@! TA.AperFunction,SMDPad,CuDef*
%ADD39R,1.250000X1.000000*%
G04 #@! TD*
G04 #@! TA.AperFunction,SMDPad,CuDef*
%ADD40C,1.000000*%
G04 #@! TD*
G04 #@! TA.AperFunction,ComponentPad*
%ADD41O,2.500000X2.100000*%
G04 #@! TD*
G04 #@! TA.AperFunction,ComponentPad*
%ADD42C,1.700000*%
G04 #@! TD*
G04 #@! TA.AperFunction,ComponentPad*
%ADD43C,1.100000*%
G04 #@! TD*
G04 #@! TA.AperFunction,Conductor*
%ADD44C,1.100000*%
G04 #@! TD*
G04 #@! TA.AperFunction,ViaPad*
%ADD45C,0.600000*%
G04 #@! TD*
G04 #@! TA.AperFunction,Conductor*
%ADD46C,0.250000*%
G04 #@! TD*
G04 #@! TA.AperFunction,Conductor*
%ADD47C,0.350000*%
G04 #@! TD*
G04 #@! TA.AperFunction,Conductor*
%ADD48C,0.600000*%
G04 #@! TD*
G04 #@! TA.AperFunction,Conductor*
%ADD49C,0.450000*%
G04 #@! TD*
G04 APERTURE END LIST*
D10*
G04 #@! TO.P,E1,1*
G04 #@! TO.N,/rotaryA*
X261819860Y-188475760D03*
G04 #@! TO.P,E1,3*
G04 #@! TO.N,GND*
X264319860Y-188475760D03*
G04 #@! TO.P,E1,2*
G04 #@! TO.N,/rotaryB*
X266819860Y-188475760D03*
D11*
G04 #@! TO.P,E1,4*
G04 #@! TO.N,/k33*
X266819860Y-173975760D03*
D10*
G04 #@! TO.P,E1,5*
G04 #@! TO.N,/col6*
X261819860Y-173975760D03*
G04 #@! TD*
D12*
G04 #@! TO.P,J2,2*
G04 #@! TO.N,/RGB*
X264100000Y-163850000D03*
G04 #@! TO.P,J2,1*
G04 #@! TO.N,GND*
X262600000Y-168050000D03*
G04 #@! TO.P,J2,4*
G04 #@! TO.N,+5V*
X271100000Y-163850000D03*
G04 #@! TO.P,J2,3*
G04 #@! TO.N,/SERIAL*
X268100000Y-163850000D03*
G04 #@! TO.P,J2,4*
G04 #@! TO.N,+5V*
X271100000Y-169800000D03*
G04 #@! TO.P,J2,3*
G04 #@! TO.N,/SERIAL*
X268100000Y-169800000D03*
G04 #@! TO.P,J2,2*
G04 #@! TO.N,/RGB*
X264100000Y-169800000D03*
G04 #@! TO.P,J2,1*
G04 #@! TO.N,GND*
X262600000Y-165600000D03*
G04 #@! TD*
D13*
G04 #@! TO.P,K26,1*
G04 #@! TO.N,/k26*
X153819500Y-205026000D03*
X153819500Y-195026000D03*
D14*
X152559500Y-203836000D03*
X152559500Y-196216000D03*
G04 #@! TO.P,K26,2*
G04 #@! TO.N,/col0*
X155099500Y-202566000D03*
X155099500Y-197486000D03*
D13*
X155919500Y-200026000D03*
D14*
G04 #@! TO.P,K26,1*
G04 #@! TO.N,/k26*
X149067000Y-197486000D03*
D13*
X140257000Y-196226000D03*
D14*
G04 #@! TO.P,K26,2*
G04 #@! TO.N,/col0*
X142717000Y-194946000D03*
X147797000Y-194946000D03*
D13*
X145257000Y-194126000D03*
D14*
G04 #@! TO.P,K26,1*
G04 #@! TO.N,/k26*
X141447000Y-197486000D03*
D13*
X150257000Y-196226000D03*
G04 #@! TD*
D14*
G04 #@! TO.P,K27,1*
G04 #@! TO.N,Net-(D28-Pad2)*
X172879000Y-197486000D03*
D13*
X164069000Y-196226000D03*
D14*
G04 #@! TO.P,K27,2*
G04 #@! TO.N,/col1*
X166529000Y-194946000D03*
X171609000Y-194946000D03*
D13*
X169069000Y-194126000D03*
D14*
G04 #@! TO.P,K27,1*
G04 #@! TO.N,Net-(D28-Pad2)*
X165259000Y-197486000D03*
D13*
X174069000Y-196226000D03*
G04 #@! TD*
G04 #@! TO.P,K19,1*
G04 #@! TO.N,/k19*
X153819500Y-185976000D03*
X153819500Y-175976000D03*
D14*
X152559500Y-184786000D03*
X152559500Y-177166000D03*
G04 #@! TO.P,K19,2*
G04 #@! TO.N,/col0*
X155099500Y-183516000D03*
X155099500Y-178436000D03*
D13*
X155919500Y-180976000D03*
D14*
G04 #@! TO.P,K19,1*
G04 #@! TO.N,/k19*
X149067000Y-178436000D03*
D13*
X140257000Y-177176000D03*
D14*
G04 #@! TO.P,K19,2*
G04 #@! TO.N,/col0*
X142717000Y-175896000D03*
X147797000Y-175896000D03*
D13*
X145257000Y-175076000D03*
D14*
G04 #@! TO.P,K19,1*
G04 #@! TO.N,/k19*
X141447000Y-178436000D03*
D13*
X150257000Y-177176000D03*
G04 #@! TD*
G04 #@! TO.P,K0,1*
G04 #@! TO.N,/k0*
X153818500Y-128825000D03*
X153818500Y-118825000D03*
D14*
X152558500Y-127635000D03*
X152558500Y-120015000D03*
G04 #@! TO.P,K0,2*
G04 #@! TO.N,/col0*
X155098500Y-126365000D03*
X155098500Y-121285000D03*
D13*
X155918500Y-123825000D03*
D14*
G04 #@! TO.P,K0,1*
G04 #@! TO.N,/k0*
X149066000Y-121285000D03*
D13*
X140256000Y-120025000D03*
D14*
G04 #@! TO.P,K0,2*
G04 #@! TO.N,/col0*
X142716000Y-118745000D03*
X147796000Y-118745000D03*
D13*
X145256000Y-117925000D03*
D14*
G04 #@! TO.P,K0,1*
G04 #@! TO.N,/k0*
X141446000Y-121285000D03*
D13*
X150256000Y-120025000D03*
G04 #@! TD*
D15*
G04 #@! TO.P,U1,1*
G04 #@! TO.N,/SERIAL*
X256700000Y-117209000D03*
D16*
G04 #@! TO.P,U1,2*
G04 #@! TO.N,/rotaryB*
X256700000Y-119749000D03*
G04 #@! TO.P,U1,3*
G04 #@! TO.N,GND*
X256700000Y-122289000D03*
G04 #@! TO.P,U1,4*
X256700000Y-124829000D03*
G04 #@! TO.P,U1,5*
G04 #@! TO.N,/SCL*
X256700000Y-127369000D03*
G04 #@! TO.P,U1,6*
G04 #@! TO.N,/SDA*
X256700000Y-129909000D03*
G04 #@! TO.P,U1,7*
G04 #@! TO.N,/rotaryA*
X256700000Y-132449000D03*
G04 #@! TO.P,U1,8*
G04 #@! TO.N,/row0*
X256700000Y-134989000D03*
G04 #@! TO.P,U1,9*
G04 #@! TO.N,/row3*
X256700000Y-137529000D03*
G04 #@! TO.P,U1,10*
G04 #@! TO.N,/row1*
X256700000Y-140069000D03*
G04 #@! TO.P,U1,11*
G04 #@! TO.N,/row4*
X256700000Y-142609000D03*
G04 #@! TO.P,U1,12*
G04 #@! TO.N,/row2*
X256700000Y-145149000D03*
G04 #@! TO.P,U1,13*
G04 #@! TO.N,Net-(SJ11-Pad1)*
X271940000Y-145149000D03*
G04 #@! TO.P,U1,14*
G04 #@! TO.N,/col6*
X271940000Y-142609000D03*
G04 #@! TO.P,U1,15*
G04 #@! TO.N,/col4*
X271940000Y-140069000D03*
G04 #@! TO.P,U1,16*
G04 #@! TO.N,/col5*
X271940000Y-137529000D03*
G04 #@! TO.P,U1,17*
G04 #@! TO.N,/col3*
X271940000Y-134989000D03*
G04 #@! TO.P,U1,18*
G04 #@! TO.N,/col2*
X271940000Y-132449000D03*
G04 #@! TO.P,U1,19*
G04 #@! TO.N,/col1*
X271940000Y-129909000D03*
G04 #@! TO.P,U1,20*
G04 #@! TO.N,/col0*
X271940000Y-127369000D03*
G04 #@! TO.P,U1,21*
G04 #@! TO.N,Net-(SJ1-Pad1)*
X271940000Y-124829000D03*
G04 #@! TO.P,U1,22*
G04 #@! TO.N,/RST*
X271940000Y-122289000D03*
G04 #@! TO.P,U1,23*
G04 #@! TO.N,GND*
X271940000Y-119749000D03*
G04 #@! TO.P,U1,24*
G04 #@! TO.N,Net-(SJ13-Pad1)*
X271940000Y-117209000D03*
G04 #@! TD*
D17*
G04 #@! TO.P,D1,1*
G04 #@! TO.N,/row0*
X158354000Y-127607000D03*
G04 #@! TO.P,D1,2*
G04 #@! TO.N,/k0*
X158354000Y-124807000D03*
D16*
X158354000Y-122307000D03*
D15*
G04 #@! TO.P,D1,1*
G04 #@! TO.N,/row0*
X158354000Y-130107000D03*
D18*
G04 #@! TD*
G04 #@! TO.N,/k0*
G04 #@! TO.C,D1*
X158354000Y-123707000D03*
G04 #@! TO.N,/row0*
G04 #@! TO.C,D1*
X158354000Y-128707000D03*
G04 #@! TD*
D17*
G04 #@! TO.P,D2,1*
G04 #@! TO.N,/row0*
X160735000Y-127607000D03*
G04 #@! TO.P,D2,2*
G04 #@! TO.N,Net-(D2-Pad2)*
X160735000Y-124807000D03*
D16*
X160735000Y-122307000D03*
D15*
G04 #@! TO.P,D2,1*
G04 #@! TO.N,/row0*
X160735000Y-130107000D03*
D18*
G04 #@! TD*
G04 #@! TO.N,Net-(D2-Pad2)*
G04 #@! TO.C,D2*
X160735000Y-123707000D03*
G04 #@! TO.N,/row0*
G04 #@! TO.C,D2*
X160735000Y-128707000D03*
G04 #@! TD*
D17*
G04 #@! TO.P,D3,1*
G04 #@! TO.N,/row0*
X178594000Y-127607000D03*
G04 #@! TO.P,D3,2*
G04 #@! TO.N,Net-(D3-Pad2)*
X178594000Y-124807000D03*
D16*
X178594000Y-122307000D03*
D15*
G04 #@! TO.P,D3,1*
G04 #@! TO.N,/row0*
X178594000Y-130107000D03*
D18*
G04 #@! TD*
G04 #@! TO.N,Net-(D3-Pad2)*
G04 #@! TO.C,D3*
X178594000Y-123707000D03*
G04 #@! TO.N,/row0*
G04 #@! TO.C,D3*
X178594000Y-128707000D03*
G04 #@! TD*
D17*
G04 #@! TO.P,D4,1*
G04 #@! TO.N,/row0*
X197645000Y-127607000D03*
G04 #@! TO.P,D4,2*
G04 #@! TO.N,Net-(D4-Pad2)*
X197645000Y-124807000D03*
D16*
X197645000Y-122307000D03*
D15*
G04 #@! TO.P,D4,1*
G04 #@! TO.N,/row0*
X197645000Y-130107000D03*
D18*
G04 #@! TD*
G04 #@! TO.N,Net-(D4-Pad2)*
G04 #@! TO.C,D4*
X197645000Y-123707000D03*
G04 #@! TO.N,/row0*
G04 #@! TO.C,D4*
X197645000Y-128707000D03*
G04 #@! TD*
D17*
G04 #@! TO.P,D5,1*
G04 #@! TO.N,/row0*
X216695000Y-127607000D03*
G04 #@! TO.P,D5,2*
G04 #@! TO.N,Net-(D5-Pad2)*
X216695000Y-124807000D03*
D16*
X216695000Y-122307000D03*
D15*
G04 #@! TO.P,D5,1*
G04 #@! TO.N,/row0*
X216695000Y-130107000D03*
D18*
G04 #@! TD*
G04 #@! TO.N,Net-(D5-Pad2)*
G04 #@! TO.C,D5*
X216695000Y-123707000D03*
G04 #@! TO.N,/row0*
G04 #@! TO.C,D5*
X216695000Y-128707000D03*
G04 #@! TD*
D17*
G04 #@! TO.P,D6,1*
G04 #@! TO.N,/row0*
X235745000Y-127607000D03*
G04 #@! TO.P,D6,2*
G04 #@! TO.N,Net-(D6-Pad2)*
X235745000Y-124807000D03*
D16*
X235745000Y-122307000D03*
D15*
G04 #@! TO.P,D6,1*
G04 #@! TO.N,/row0*
X235745000Y-130107000D03*
D18*
G04 #@! TD*
G04 #@! TO.N,Net-(D6-Pad2)*
G04 #@! TO.C,D6*
X235745000Y-123707000D03*
G04 #@! TO.N,/row0*
G04 #@! TO.C,D6*
X235745000Y-128707000D03*
G04 #@! TD*
D17*
G04 #@! TO.P,D7,1*
G04 #@! TO.N,/row1*
X158354000Y-146657000D03*
G04 #@! TO.P,D7,2*
G04 #@! TO.N,/k6*
X158354000Y-143857000D03*
D16*
X158354000Y-141357000D03*
D15*
G04 #@! TO.P,D7,1*
G04 #@! TO.N,/row1*
X158354000Y-149157000D03*
D18*
G04 #@! TD*
G04 #@! TO.N,/k6*
G04 #@! TO.C,D7*
X158354000Y-142757000D03*
G04 #@! TO.N,/row1*
G04 #@! TO.C,D7*
X158354000Y-147757000D03*
G04 #@! TD*
D17*
G04 #@! TO.P,D8,1*
G04 #@! TO.N,/row1*
X160735000Y-146657000D03*
G04 #@! TO.P,D8,2*
G04 #@! TO.N,Net-(D8-Pad2)*
X160735000Y-143857000D03*
D16*
X160735000Y-141357000D03*
D15*
G04 #@! TO.P,D8,1*
G04 #@! TO.N,/row1*
X160735000Y-149157000D03*
D18*
G04 #@! TD*
G04 #@! TO.N,Net-(D8-Pad2)*
G04 #@! TO.C,D8*
X160735000Y-142757000D03*
G04 #@! TO.N,/row1*
G04 #@! TO.C,D8*
X160735000Y-147757000D03*
G04 #@! TD*
D17*
G04 #@! TO.P,D9,1*
G04 #@! TO.N,/row1*
X178594000Y-146657000D03*
G04 #@! TO.P,D9,2*
G04 #@! TO.N,Net-(D9-Pad2)*
X178594000Y-143857000D03*
D16*
X178594000Y-141357000D03*
D15*
G04 #@! TO.P,D9,1*
G04 #@! TO.N,/row1*
X178594000Y-149157000D03*
D18*
G04 #@! TD*
G04 #@! TO.N,Net-(D9-Pad2)*
G04 #@! TO.C,D9*
X178594000Y-142757000D03*
G04 #@! TO.N,/row1*
G04 #@! TO.C,D9*
X178594000Y-147757000D03*
G04 #@! TD*
D17*
G04 #@! TO.P,D10,1*
G04 #@! TO.N,/row1*
X197645000Y-146657000D03*
G04 #@! TO.P,D10,2*
G04 #@! TO.N,Net-(D10-Pad2)*
X197645000Y-143857000D03*
D16*
X197645000Y-141357000D03*
D15*
G04 #@! TO.P,D10,1*
G04 #@! TO.N,/row1*
X197645000Y-149157000D03*
D18*
G04 #@! TD*
G04 #@! TO.N,Net-(D10-Pad2)*
G04 #@! TO.C,D10*
X197645000Y-142757000D03*
G04 #@! TO.N,/row1*
G04 #@! TO.C,D10*
X197645000Y-147757000D03*
G04 #@! TD*
D17*
G04 #@! TO.P,D11,1*
G04 #@! TO.N,/row1*
X216695000Y-146657000D03*
G04 #@! TO.P,D11,2*
G04 #@! TO.N,Net-(D11-Pad2)*
X216695000Y-143857000D03*
D16*
X216695000Y-141357000D03*
D15*
G04 #@! TO.P,D11,1*
G04 #@! TO.N,/row1*
X216695000Y-149157000D03*
D18*
G04 #@! TD*
G04 #@! TO.N,Net-(D11-Pad2)*
G04 #@! TO.C,D11*
X216695000Y-142757000D03*
G04 #@! TO.N,/row1*
G04 #@! TO.C,D11*
X216695000Y-147757000D03*
G04 #@! TD*
D17*
G04 #@! TO.P,D12,1*
G04 #@! TO.N,/row1*
X235745000Y-146657000D03*
G04 #@! TO.P,D12,2*
G04 #@! TO.N,Net-(D12-Pad2)*
X235745000Y-143857000D03*
D16*
X235745000Y-141357000D03*
D15*
G04 #@! TO.P,D12,1*
G04 #@! TO.N,/row1*
X235745000Y-149157000D03*
D18*
G04 #@! TD*
G04 #@! TO.N,Net-(D12-Pad2)*
G04 #@! TO.C,D12*
X235745000Y-142757000D03*
G04 #@! TO.N,/row1*
G04 #@! TO.C,D12*
X235745000Y-147757000D03*
G04 #@! TD*
D17*
G04 #@! TO.P,D13,1*
G04 #@! TO.N,/row2*
X158354000Y-165707000D03*
G04 #@! TO.P,D13,2*
G04 #@! TO.N,/k12*
X158354000Y-162907000D03*
D16*
X158354000Y-160407000D03*
D15*
G04 #@! TO.P,D13,1*
G04 #@! TO.N,/row2*
X158354000Y-168207000D03*
D18*
G04 #@! TD*
G04 #@! TO.N,/k12*
G04 #@! TO.C,D13*
X158354000Y-161807000D03*
G04 #@! TO.N,/row2*
G04 #@! TO.C,D13*
X158354000Y-166807000D03*
G04 #@! TD*
D17*
G04 #@! TO.P,D14,1*
G04 #@! TO.N,/row2*
X160735000Y-165707000D03*
G04 #@! TO.P,D14,2*
G04 #@! TO.N,Net-(D14-Pad2)*
X160735000Y-162907000D03*
D16*
X160735000Y-160407000D03*
D15*
G04 #@! TO.P,D14,1*
G04 #@! TO.N,/row2*
X160735000Y-168207000D03*
D18*
G04 #@! TD*
G04 #@! TO.N,Net-(D14-Pad2)*
G04 #@! TO.C,D14*
X160735000Y-161807000D03*
G04 #@! TO.N,/row2*
G04 #@! TO.C,D14*
X160735000Y-166807000D03*
G04 #@! TD*
D17*
G04 #@! TO.P,D15,1*
G04 #@! TO.N,/row2*
X178594000Y-165707000D03*
G04 #@! TO.P,D15,2*
G04 #@! TO.N,Net-(D15-Pad2)*
X178594000Y-162907000D03*
D16*
X178594000Y-160407000D03*
D15*
G04 #@! TO.P,D15,1*
G04 #@! TO.N,/row2*
X178594000Y-168207000D03*
D18*
G04 #@! TD*
G04 #@! TO.N,Net-(D15-Pad2)*
G04 #@! TO.C,D15*
X178594000Y-161807000D03*
G04 #@! TO.N,/row2*
G04 #@! TO.C,D15*
X178594000Y-166807000D03*
G04 #@! TD*
D17*
G04 #@! TO.P,D16,1*
G04 #@! TO.N,/row2*
X197645000Y-165707000D03*
G04 #@! TO.P,D16,2*
G04 #@! TO.N,Net-(D16-Pad2)*
X197645000Y-162907000D03*
D16*
X197645000Y-160407000D03*
D15*
G04 #@! TO.P,D16,1*
G04 #@! TO.N,/row2*
X197645000Y-168207000D03*
D18*
G04 #@! TD*
G04 #@! TO.N,Net-(D16-Pad2)*
G04 #@! TO.C,D16*
X197645000Y-161807000D03*
G04 #@! TO.N,/row2*
G04 #@! TO.C,D16*
X197645000Y-166807000D03*
G04 #@! TD*
D17*
G04 #@! TO.P,D17,1*
G04 #@! TO.N,/row2*
X216695000Y-165707000D03*
G04 #@! TO.P,D17,2*
G04 #@! TO.N,Net-(D17-Pad2)*
X216695000Y-162907000D03*
D16*
X216695000Y-160407000D03*
D15*
G04 #@! TO.P,D17,1*
G04 #@! TO.N,/row2*
X216695000Y-168207000D03*
D18*
G04 #@! TD*
G04 #@! TO.N,Net-(D17-Pad2)*
G04 #@! TO.C,D17*
X216695000Y-161807000D03*
G04 #@! TO.N,/row2*
G04 #@! TO.C,D17*
X216695000Y-166807000D03*
G04 #@! TD*
D17*
G04 #@! TO.P,D18,1*
G04 #@! TO.N,/row2*
X235745000Y-165707000D03*
G04 #@! TO.P,D18,2*
G04 #@! TO.N,Net-(D18-Pad2)*
X235745000Y-162907000D03*
D16*
X235745000Y-160407000D03*
D15*
G04 #@! TO.P,D18,1*
G04 #@! TO.N,/row2*
X235745000Y-168207000D03*
D18*
G04 #@! TD*
G04 #@! TO.N,Net-(D18-Pad2)*
G04 #@! TO.C,D18*
X235745000Y-161807000D03*
G04 #@! TO.N,/row2*
G04 #@! TO.C,D18*
X235745000Y-166807000D03*
G04 #@! TD*
D17*
G04 #@! TO.P,D19,1*
G04 #@! TO.N,/row2*
X245270000Y-203807000D03*
G04 #@! TO.P,D19,2*
G04 #@! TO.N,/k18*
X245270000Y-201007000D03*
D16*
X245270000Y-198507000D03*
D15*
G04 #@! TO.P,D19,1*
G04 #@! TO.N,/row2*
X245270000Y-206307000D03*
D18*
G04 #@! TD*
G04 #@! TO.N,/k18*
G04 #@! TO.C,D19*
X245270000Y-199907000D03*
G04 #@! TO.N,/row2*
G04 #@! TO.C,D19*
X245270000Y-204907000D03*
G04 #@! TD*
D17*
G04 #@! TO.P,D20,1*
G04 #@! TO.N,/row3*
X158354000Y-184757000D03*
G04 #@! TO.P,D20,2*
G04 #@! TO.N,/k19*
X158354000Y-181957000D03*
D16*
X158354000Y-179457000D03*
D15*
G04 #@! TO.P,D20,1*
G04 #@! TO.N,/row3*
X158354000Y-187257000D03*
D18*
G04 #@! TD*
G04 #@! TO.N,/k19*
G04 #@! TO.C,D20*
X158354000Y-180857000D03*
G04 #@! TO.N,/row3*
G04 #@! TO.C,D20*
X158354000Y-185857000D03*
G04 #@! TD*
D17*
G04 #@! TO.P,D21,1*
G04 #@! TO.N,/row3*
X160735000Y-184757000D03*
G04 #@! TO.P,D21,2*
G04 #@! TO.N,Net-(D21-Pad2)*
X160735000Y-181957000D03*
D16*
X160735000Y-179457000D03*
D15*
G04 #@! TO.P,D21,1*
G04 #@! TO.N,/row3*
X160735000Y-187257000D03*
D18*
G04 #@! TD*
G04 #@! TO.N,Net-(D21-Pad2)*
G04 #@! TO.C,D21*
X160735000Y-180857000D03*
G04 #@! TO.N,/row3*
G04 #@! TO.C,D21*
X160735000Y-185857000D03*
G04 #@! TD*
D17*
G04 #@! TO.P,D22,1*
G04 #@! TO.N,/row3*
X178594000Y-184757000D03*
G04 #@! TO.P,D22,2*
G04 #@! TO.N,Net-(D22-Pad2)*
X178594000Y-181957000D03*
D16*
X178594000Y-179457000D03*
D15*
G04 #@! TO.P,D22,1*
G04 #@! TO.N,/row3*
X178594000Y-187257000D03*
D18*
G04 #@! TD*
G04 #@! TO.N,Net-(D22-Pad2)*
G04 #@! TO.C,D22*
X178594000Y-180857000D03*
G04 #@! TO.N,/row3*
G04 #@! TO.C,D22*
X178594000Y-185857000D03*
G04 #@! TD*
D17*
G04 #@! TO.P,D23,1*
G04 #@! TO.N,/row3*
X197645000Y-184757000D03*
G04 #@! TO.P,D23,2*
G04 #@! TO.N,Net-(D23-Pad2)*
X197645000Y-181957000D03*
D16*
X197645000Y-179457000D03*
D15*
G04 #@! TO.P,D23,1*
G04 #@! TO.N,/row3*
X197645000Y-187257000D03*
D18*
G04 #@! TD*
G04 #@! TO.N,Net-(D23-Pad2)*
G04 #@! TO.C,D23*
X197645000Y-180857000D03*
G04 #@! TO.N,/row3*
G04 #@! TO.C,D23*
X197645000Y-185857000D03*
G04 #@! TD*
D17*
G04 #@! TO.P,D24,1*
G04 #@! TO.N,/row3*
X216695000Y-184757000D03*
G04 #@! TO.P,D24,2*
G04 #@! TO.N,Net-(D24-Pad2)*
X216695000Y-181957000D03*
D16*
X216695000Y-179457000D03*
D15*
G04 #@! TO.P,D24,1*
G04 #@! TO.N,/row3*
X216695000Y-187257000D03*
D18*
G04 #@! TD*
G04 #@! TO.N,Net-(D24-Pad2)*
G04 #@! TO.C,D24*
X216695000Y-180857000D03*
G04 #@! TO.N,/row3*
G04 #@! TO.C,D24*
X216695000Y-185857000D03*
G04 #@! TD*
D17*
G04 #@! TO.P,D25,1*
G04 #@! TO.N,/row3*
X235745000Y-184757000D03*
G04 #@! TO.P,D25,2*
G04 #@! TO.N,Net-(D25-Pad2)*
X235745000Y-181957000D03*
D16*
X235745000Y-179457000D03*
D15*
G04 #@! TO.P,D25,1*
G04 #@! TO.N,/row3*
X235745000Y-187257000D03*
D18*
G04 #@! TD*
G04 #@! TO.N,Net-(D25-Pad2)*
G04 #@! TO.C,D25*
X235745000Y-180857000D03*
G04 #@! TO.N,/row3*
G04 #@! TO.C,D25*
X235745000Y-185857000D03*
G04 #@! TD*
D17*
G04 #@! TO.P,D26,1*
G04 #@! TO.N,/row3*
X241698000Y-203807000D03*
G04 #@! TO.P,D26,2*
G04 #@! TO.N,/k25*
X241698000Y-201007000D03*
D16*
X241698000Y-198507000D03*
D15*
G04 #@! TO.P,D26,1*
G04 #@! TO.N,/row3*
X241698000Y-206307000D03*
D18*
G04 #@! TD*
G04 #@! TO.N,/k25*
G04 #@! TO.C,D26*
X241698000Y-199907000D03*
G04 #@! TO.N,/row3*
G04 #@! TO.C,D26*
X241698000Y-204907000D03*
G04 #@! TD*
D17*
G04 #@! TO.P,D27,1*
G04 #@! TO.N,/row4*
X158354000Y-203807000D03*
G04 #@! TO.P,D27,2*
G04 #@! TO.N,/k26*
X158354000Y-201007000D03*
D16*
X158354000Y-198507000D03*
D15*
G04 #@! TO.P,D27,1*
G04 #@! TO.N,/row4*
X158354000Y-206307000D03*
D18*
G04 #@! TD*
G04 #@! TO.N,/k26*
G04 #@! TO.C,D27*
X158354000Y-199907000D03*
G04 #@! TO.N,/row4*
G04 #@! TO.C,D27*
X158354000Y-204907000D03*
G04 #@! TD*
D17*
G04 #@! TO.P,D28,1*
G04 #@! TO.N,/row4*
X160735000Y-203807000D03*
G04 #@! TO.P,D28,2*
G04 #@! TO.N,Net-(D28-Pad2)*
X160735000Y-201007000D03*
D16*
X160735000Y-198507000D03*
D15*
G04 #@! TO.P,D28,1*
G04 #@! TO.N,/row4*
X160735000Y-206307000D03*
D18*
G04 #@! TD*
G04 #@! TO.N,Net-(D28-Pad2)*
G04 #@! TO.C,D28*
X160735000Y-199907000D03*
G04 #@! TO.N,/row4*
G04 #@! TO.C,D28*
X160735000Y-204907000D03*
G04 #@! TD*
D17*
G04 #@! TO.P,D29,1*
G04 #@! TO.N,/row4*
X178594000Y-203807000D03*
G04 #@! TO.P,D29,2*
G04 #@! TO.N,Net-(D29-Pad2)*
X178594000Y-201007000D03*
D16*
X178594000Y-198507000D03*
D15*
G04 #@! TO.P,D29,1*
G04 #@! TO.N,/row4*
X178594000Y-206307000D03*
D18*
G04 #@! TD*
G04 #@! TO.N,Net-(D29-Pad2)*
G04 #@! TO.C,D29*
X178594000Y-199907000D03*
G04 #@! TO.N,/row4*
G04 #@! TO.C,D29*
X178594000Y-204907000D03*
G04 #@! TD*
D17*
G04 #@! TO.P,D30,1*
G04 #@! TO.N,/row4*
X197645000Y-203807000D03*
G04 #@! TO.P,D30,2*
G04 #@! TO.N,Net-(D30-Pad2)*
X197645000Y-201007000D03*
D16*
X197645000Y-198507000D03*
D15*
G04 #@! TO.P,D30,1*
G04 #@! TO.N,/row4*
X197645000Y-206307000D03*
D18*
G04 #@! TD*
G04 #@! TO.N,Net-(D30-Pad2)*
G04 #@! TO.C,D30*
X197645000Y-199907000D03*
G04 #@! TO.N,/row4*
G04 #@! TO.C,D30*
X197645000Y-204907000D03*
G04 #@! TD*
D17*
G04 #@! TO.P,D31,1*
G04 #@! TO.N,/row4*
X216695000Y-203807000D03*
G04 #@! TO.P,D31,2*
G04 #@! TO.N,Net-(D31-Pad2)*
X216695000Y-201007000D03*
D16*
X216695000Y-198507000D03*
D15*
G04 #@! TO.P,D31,1*
G04 #@! TO.N,/row4*
X216695000Y-206307000D03*
D18*
G04 #@! TD*
G04 #@! TO.N,Net-(D31-Pad2)*
G04 #@! TO.C,D31*
X216695000Y-199907000D03*
G04 #@! TO.N,/row4*
G04 #@! TO.C,D31*
X216695000Y-204907000D03*
G04 #@! TD*
D17*
G04 #@! TO.P,D32,1*
G04 #@! TO.N,/row4*
X234554000Y-203807000D03*
G04 #@! TO.P,D32,2*
G04 #@! TO.N,Net-(D32-Pad2)*
X234554000Y-201007000D03*
D16*
X234554000Y-198507000D03*
D15*
G04 #@! TO.P,D32,1*
G04 #@! TO.N,/row4*
X234554000Y-206307000D03*
D18*
G04 #@! TD*
G04 #@! TO.N,Net-(D32-Pad2)*
G04 #@! TO.C,D32*
X234554000Y-199907000D03*
G04 #@! TO.N,/row4*
G04 #@! TO.C,D32*
X234554000Y-204907000D03*
G04 #@! TD*
D17*
G04 #@! TO.P,D33,1*
G04 #@! TO.N,/row4*
X238126000Y-203807000D03*
G04 #@! TO.P,D33,2*
G04 #@! TO.N,Net-(D33-Pad2)*
X238126000Y-201007000D03*
D16*
X238126000Y-198507000D03*
D15*
G04 #@! TO.P,D33,1*
G04 #@! TO.N,/row4*
X238126000Y-206307000D03*
D18*
G04 #@! TD*
G04 #@! TO.N,Net-(D33-Pad2)*
G04 #@! TO.C,D33*
X238126000Y-199907000D03*
G04 #@! TO.N,/row4*
G04 #@! TO.C,D33*
X238126000Y-204907000D03*
G04 #@! TD*
D19*
G04 #@! TO.P,F3,1*
G04 #@! TO.N,GND*
X254454000Y-165963000D03*
X254454000Y-167413000D03*
G04 #@! TD*
G04 #@! TO.P,F4,1*
G04 #@! TO.N,/5V-2*
X254454000Y-156438000D03*
X254454000Y-157888000D03*
G04 #@! TD*
G04 #@! TO.P,F5,1*
G04 #@! TO.N,/RGB*
X254454000Y-161201000D03*
X254454000Y-162651000D03*
G04 #@! TD*
D20*
G04 #@! TO.P,J1,1*
G04 #@! TO.N,Net-(J1-Pad1)*
X260500000Y-150500000D03*
D21*
G04 #@! TO.P,J1,2*
G04 #@! TO.N,Net-(J1-Pad2)*
X263040000Y-150500000D03*
G04 #@! TO.P,J1,3*
G04 #@! TO.N,Net-(J1-Pad3)*
X265580000Y-150500000D03*
G04 #@! TO.P,J1,4*
G04 #@! TO.N,Net-(J1-Pad4)*
X268120000Y-150500000D03*
G04 #@! TD*
D14*
G04 #@! TO.P,K1,1*
G04 #@! TO.N,Net-(D2-Pad2)*
X172879000Y-121285000D03*
D13*
X164069000Y-120025000D03*
D14*
G04 #@! TO.P,K1,2*
G04 #@! TO.N,/col1*
X166529000Y-118745000D03*
X171609000Y-118745000D03*
D13*
X169069000Y-117925000D03*
D14*
G04 #@! TO.P,K1,1*
G04 #@! TO.N,Net-(D2-Pad2)*
X165259000Y-121285000D03*
D13*
X174069000Y-120025000D03*
G04 #@! TD*
D14*
G04 #@! TO.P,K2,1*
G04 #@! TO.N,Net-(D3-Pad2)*
X191929000Y-121285000D03*
D13*
X183119000Y-120025000D03*
D14*
G04 #@! TO.P,K2,2*
G04 #@! TO.N,/col2*
X185579000Y-118745000D03*
X190659000Y-118745000D03*
D13*
X188119000Y-117925000D03*
D14*
G04 #@! TO.P,K2,1*
G04 #@! TO.N,Net-(D3-Pad2)*
X184309000Y-121285000D03*
D13*
X193119000Y-120025000D03*
G04 #@! TD*
D14*
G04 #@! TO.P,K3,1*
G04 #@! TO.N,Net-(D4-Pad2)*
X210979000Y-121285000D03*
D13*
X202169000Y-120025000D03*
D14*
G04 #@! TO.P,K3,2*
G04 #@! TO.N,/col3*
X204629000Y-118745000D03*
X209709000Y-118745000D03*
D13*
X207169000Y-117925000D03*
D14*
G04 #@! TO.P,K3,1*
G04 #@! TO.N,Net-(D4-Pad2)*
X203359000Y-121285000D03*
D13*
X212169000Y-120025000D03*
G04 #@! TD*
D14*
G04 #@! TO.P,K4,1*
G04 #@! TO.N,Net-(D5-Pad2)*
X230029000Y-121285000D03*
D13*
X221219000Y-120025000D03*
D14*
G04 #@! TO.P,K4,2*
G04 #@! TO.N,/col4*
X223679000Y-118745000D03*
X228759000Y-118745000D03*
D13*
X226219000Y-117925000D03*
D14*
G04 #@! TO.P,K4,1*
G04 #@! TO.N,Net-(D5-Pad2)*
X222409000Y-121285000D03*
D13*
X231219000Y-120025000D03*
G04 #@! TD*
D14*
G04 #@! TO.P,K5,1*
G04 #@! TO.N,Net-(D6-Pad2)*
X249079000Y-121285000D03*
D13*
X240269000Y-120025000D03*
D14*
G04 #@! TO.P,K5,2*
G04 #@! TO.N,/col5*
X242729000Y-118745000D03*
X247809000Y-118745000D03*
D13*
X245269000Y-117925000D03*
D14*
G04 #@! TO.P,K5,1*
G04 #@! TO.N,Net-(D6-Pad2)*
X241459000Y-121285000D03*
D13*
X250269000Y-120025000D03*
G04 #@! TD*
G04 #@! TO.P,K6,1*
G04 #@! TO.N,/k6*
X153818500Y-147875000D03*
X153818500Y-137875000D03*
D14*
X152558500Y-146685000D03*
X152558500Y-139065000D03*
G04 #@! TO.P,K6,2*
G04 #@! TO.N,/col0*
X155098500Y-145415000D03*
X155098500Y-140335000D03*
D13*
X155918500Y-142875000D03*
D14*
G04 #@! TO.P,K6,1*
G04 #@! TO.N,/k6*
X149066000Y-140335000D03*
D13*
X140256000Y-139075000D03*
D14*
G04 #@! TO.P,K6,2*
G04 #@! TO.N,/col0*
X142716000Y-137795000D03*
X147796000Y-137795000D03*
D13*
X145256000Y-136975000D03*
D14*
G04 #@! TO.P,K6,1*
G04 #@! TO.N,/k6*
X141446000Y-140335000D03*
D13*
X150256000Y-139075000D03*
G04 #@! TD*
D14*
G04 #@! TO.P,K7,1*
G04 #@! TO.N,Net-(D8-Pad2)*
X172879000Y-140335000D03*
D13*
X164069000Y-139075000D03*
D14*
G04 #@! TO.P,K7,2*
G04 #@! TO.N,/col1*
X166529000Y-137795000D03*
X171609000Y-137795000D03*
D13*
X169069000Y-136975000D03*
D14*
G04 #@! TO.P,K7,1*
G04 #@! TO.N,Net-(D8-Pad2)*
X165259000Y-140335000D03*
D13*
X174069000Y-139075000D03*
G04 #@! TD*
D14*
G04 #@! TO.P,K8,1*
G04 #@! TO.N,Net-(D9-Pad2)*
X191929000Y-140335000D03*
D13*
X183119000Y-139075000D03*
D14*
G04 #@! TO.P,K8,2*
G04 #@! TO.N,/col2*
X185579000Y-137795000D03*
X190659000Y-137795000D03*
D13*
X188119000Y-136975000D03*
D14*
G04 #@! TO.P,K8,1*
G04 #@! TO.N,Net-(D9-Pad2)*
X184309000Y-140335000D03*
D13*
X193119000Y-139075000D03*
G04 #@! TD*
D14*
G04 #@! TO.P,K9,1*
G04 #@! TO.N,Net-(D10-Pad2)*
X210979000Y-140335000D03*
D13*
X202169000Y-139075000D03*
D14*
G04 #@! TO.P,K9,2*
G04 #@! TO.N,/col3*
X204629000Y-137795000D03*
X209709000Y-137795000D03*
D13*
X207169000Y-136975000D03*
D14*
G04 #@! TO.P,K9,1*
G04 #@! TO.N,Net-(D10-Pad2)*
X203359000Y-140335000D03*
D13*
X212169000Y-139075000D03*
G04 #@! TD*
D14*
G04 #@! TO.P,K10,1*
G04 #@! TO.N,Net-(D11-Pad2)*
X230029000Y-140335000D03*
D13*
X221219000Y-139075000D03*
D14*
G04 #@! TO.P,K10,2*
G04 #@! TO.N,/col4*
X223679000Y-137795000D03*
X228759000Y-137795000D03*
D13*
X226219000Y-136975000D03*
D14*
G04 #@! TO.P,K10,1*
G04 #@! TO.N,Net-(D11-Pad2)*
X222409000Y-140335000D03*
D13*
X231219000Y-139075000D03*
G04 #@! TD*
D14*
G04 #@! TO.P,K11,1*
G04 #@! TO.N,Net-(D12-Pad2)*
X249079000Y-140335000D03*
D13*
X240269000Y-139075000D03*
D14*
G04 #@! TO.P,K11,2*
G04 #@! TO.N,/col5*
X242729000Y-137795000D03*
X247809000Y-137795000D03*
D13*
X245269000Y-136975000D03*
D14*
G04 #@! TO.P,K11,1*
G04 #@! TO.N,Net-(D12-Pad2)*
X241459000Y-140335000D03*
D13*
X250269000Y-139075000D03*
G04 #@! TD*
G04 #@! TO.P,K12,1*
G04 #@! TO.N,/k12*
X153819500Y-166926000D03*
X153819500Y-156926000D03*
D14*
X152559500Y-165736000D03*
X152559500Y-158116000D03*
G04 #@! TO.P,K12,2*
G04 #@! TO.N,/col0*
X155099500Y-164466000D03*
X155099500Y-159386000D03*
D13*
X155919500Y-161926000D03*
D14*
G04 #@! TO.P,K12,1*
G04 #@! TO.N,/k12*
X149067000Y-159386000D03*
D13*
X140257000Y-158126000D03*
D14*
G04 #@! TO.P,K12,2*
G04 #@! TO.N,/col0*
X142717000Y-156846000D03*
X147797000Y-156846000D03*
D13*
X145257000Y-156026000D03*
D14*
G04 #@! TO.P,K12,1*
G04 #@! TO.N,/k12*
X141447000Y-159386000D03*
D13*
X150257000Y-158126000D03*
G04 #@! TD*
D14*
G04 #@! TO.P,K13,1*
G04 #@! TO.N,Net-(D14-Pad2)*
X172879000Y-159386000D03*
D13*
X164069000Y-158126000D03*
D14*
G04 #@! TO.P,K13,2*
G04 #@! TO.N,/col1*
X166529000Y-156846000D03*
X171609000Y-156846000D03*
D13*
X169069000Y-156026000D03*
D14*
G04 #@! TO.P,K13,1*
G04 #@! TO.N,Net-(D14-Pad2)*
X165259000Y-159386000D03*
D13*
X174069000Y-158126000D03*
G04 #@! TD*
D14*
G04 #@! TO.P,K14,1*
G04 #@! TO.N,Net-(D15-Pad2)*
X191930000Y-159386000D03*
D13*
X183120000Y-158126000D03*
D14*
G04 #@! TO.P,K14,2*
G04 #@! TO.N,/col2*
X185580000Y-156846000D03*
X190660000Y-156846000D03*
D13*
X188120000Y-156026000D03*
D14*
G04 #@! TO.P,K14,1*
G04 #@! TO.N,Net-(D15-Pad2)*
X184310000Y-159386000D03*
D13*
X193120000Y-158126000D03*
G04 #@! TD*
D14*
G04 #@! TO.P,K15,1*
G04 #@! TO.N,Net-(D16-Pad2)*
X210980000Y-159386000D03*
D13*
X202170000Y-158126000D03*
D14*
G04 #@! TO.P,K15,2*
G04 #@! TO.N,/col3*
X204630000Y-156846000D03*
X209710000Y-156846000D03*
D13*
X207170000Y-156026000D03*
D14*
G04 #@! TO.P,K15,1*
G04 #@! TO.N,Net-(D16-Pad2)*
X203360000Y-159386000D03*
D13*
X212170000Y-158126000D03*
G04 #@! TD*
D14*
G04 #@! TO.P,K16,1*
G04 #@! TO.N,Net-(D17-Pad2)*
X230030000Y-159386000D03*
D13*
X221220000Y-158126000D03*
D14*
G04 #@! TO.P,K16,2*
G04 #@! TO.N,/col4*
X223680000Y-156846000D03*
X228760000Y-156846000D03*
D13*
X226220000Y-156026000D03*
D14*
G04 #@! TO.P,K16,1*
G04 #@! TO.N,Net-(D17-Pad2)*
X222410000Y-159386000D03*
D13*
X231220000Y-158126000D03*
G04 #@! TD*
D14*
G04 #@! TO.P,K17,1*
G04 #@! TO.N,Net-(D18-Pad2)*
X249080000Y-159386000D03*
D13*
X240270000Y-158126000D03*
D14*
G04 #@! TO.P,K17,2*
G04 #@! TO.N,/col5*
X242730000Y-156846000D03*
X247810000Y-156846000D03*
D13*
X245270000Y-156026000D03*
D14*
G04 #@! TO.P,K17,1*
G04 #@! TO.N,Net-(D18-Pad2)*
X241460000Y-159386000D03*
D13*
X250270000Y-158126000D03*
G04 #@! TD*
D22*
G04 #@! TO.P,K18,1*
G04 #@! TO.N,/k18*
X279351557Y-217491295D03*
D23*
G04 #@! TD*
G04 #@! TO.N,/k18*
G04 #@! TO.C,K18*
X279351557Y-217491295D02*
X279351557Y-217491295D01*
D24*
G04 #@! TO.P,K18,1*
G04 #@! TO.N,/k18*
X272351873Y-211995103D03*
D25*
G04 #@! TD*
G04 #@! TO.N,/k18*
G04 #@! TO.C,K18*
X272351873Y-211995103D02*
X272351873Y-211995103D01*
D22*
G04 #@! TO.P,K18,2*
G04 #@! TO.N,/col6*
X275122295Y-212116591D03*
D23*
G04 #@! TD*
G04 #@! TO.N,/col6*
G04 #@! TO.C,K18*
X275122295Y-212116591D02*
X275122295Y-212116591D01*
D22*
G04 #@! TO.P,K18,2*
G04 #@! TO.N,/col6*
X279521705Y-214656591D03*
D23*
G04 #@! TD*
G04 #@! TO.N,/col6*
G04 #@! TO.C,K18*
X279521705Y-214656591D02*
X279521705Y-214656591D01*
D26*
G04 #@! TO.P,K18,2*
G04 #@! TO.N,/col6*
X277732000Y-212676450D03*
D27*
G04 #@! TD*
G04 #@! TO.N,/col6*
G04 #@! TO.C,K18*
X277385590Y-212476450D02*
X278078410Y-212876450D01*
D22*
G04 #@! TO.P,K18,1*
G04 #@! TO.N,/k18*
X272752443Y-213681295D03*
D23*
G04 #@! TD*
G04 #@! TO.N,/k18*
G04 #@! TO.C,K18*
X272752443Y-213681295D02*
X272752443Y-213681295D01*
D24*
G04 #@! TO.P,K18,1*
G04 #@! TO.N,/k18*
X281012127Y-216995103D03*
D25*
G04 #@! TD*
G04 #@! TO.N,/k18*
G04 #@! TO.C,K18*
X281012127Y-216995103D02*
X281012127Y-216995103D01*
D14*
G04 #@! TO.P,K20,1*
G04 #@! TO.N,Net-(D21-Pad2)*
X172879000Y-178436000D03*
D13*
X164069000Y-177176000D03*
D14*
G04 #@! TO.P,K20,2*
G04 #@! TO.N,/col1*
X166529000Y-175896000D03*
X171609000Y-175896000D03*
D13*
X169069000Y-175076000D03*
D14*
G04 #@! TO.P,K20,1*
G04 #@! TO.N,Net-(D21-Pad2)*
X165259000Y-178436000D03*
D13*
X174069000Y-177176000D03*
G04 #@! TD*
D14*
G04 #@! TO.P,K21,1*
G04 #@! TO.N,Net-(D22-Pad2)*
X191930000Y-178436000D03*
D13*
X183120000Y-177176000D03*
D14*
G04 #@! TO.P,K21,2*
G04 #@! TO.N,/col2*
X185580000Y-175896000D03*
X190660000Y-175896000D03*
D13*
X188120000Y-175076000D03*
D14*
G04 #@! TO.P,K21,1*
G04 #@! TO.N,Net-(D22-Pad2)*
X184310000Y-178436000D03*
D13*
X193120000Y-177176000D03*
G04 #@! TD*
D14*
G04 #@! TO.P,K22,1*
G04 #@! TO.N,Net-(D23-Pad2)*
X210980000Y-178436000D03*
D13*
X202170000Y-177176000D03*
D14*
G04 #@! TO.P,K22,2*
G04 #@! TO.N,/col3*
X204630000Y-175896000D03*
X209710000Y-175896000D03*
D13*
X207170000Y-175076000D03*
D14*
G04 #@! TO.P,K22,1*
G04 #@! TO.N,Net-(D23-Pad2)*
X203360000Y-178436000D03*
D13*
X212170000Y-177176000D03*
G04 #@! TD*
D14*
G04 #@! TO.P,K23,1*
G04 #@! TO.N,Net-(D24-Pad2)*
X230030000Y-178436000D03*
D13*
X221220000Y-177176000D03*
D14*
G04 #@! TO.P,K23,2*
G04 #@! TO.N,/col4*
X223680000Y-175896000D03*
X228760000Y-175896000D03*
D13*
X226220000Y-175076000D03*
D14*
G04 #@! TO.P,K23,1*
G04 #@! TO.N,Net-(D24-Pad2)*
X222410000Y-178436000D03*
D13*
X231220000Y-177176000D03*
G04 #@! TD*
D14*
G04 #@! TO.P,K24,1*
G04 #@! TO.N,Net-(D25-Pad2)*
X249080000Y-178436000D03*
D13*
X240270000Y-177176000D03*
D14*
G04 #@! TO.P,K24,2*
G04 #@! TO.N,/col5*
X242730000Y-175896000D03*
X247810000Y-175896000D03*
D13*
X245270000Y-175076000D03*
D14*
G04 #@! TO.P,K24,1*
G04 #@! TO.N,Net-(D25-Pad2)*
X241460000Y-178436000D03*
D13*
X250270000Y-177176000D03*
G04 #@! TD*
D22*
G04 #@! TO.P,K24-1,1*
G04 #@! TO.N,/k25*
X253224295Y-211955443D03*
D23*
G04 #@! TD*
G04 #@! TO.N,/k25*
G04 #@! TO.C,K24-1*
X253224295Y-211955443D02*
X253224295Y-211955443D01*
D24*
G04 #@! TO.P,K24-1,1*
G04 #@! TO.N,/k25*
X247728103Y-218955127D03*
D25*
G04 #@! TD*
G04 #@! TO.N,/k25*
G04 #@! TO.C,K24-1*
X247728103Y-218955127D02*
X247728103Y-218955127D01*
D22*
G04 #@! TO.P,K24-1,2*
G04 #@! TO.N,/col6*
X247849591Y-216184705D03*
D23*
G04 #@! TD*
G04 #@! TO.N,/col6*
G04 #@! TO.C,K24-1*
X247849591Y-216184705D02*
X247849591Y-216184705D01*
D22*
G04 #@! TO.P,K24-1,2*
G04 #@! TO.N,/col6*
X250389591Y-211785295D03*
D23*
G04 #@! TD*
G04 #@! TO.N,/col6*
G04 #@! TO.C,K24-1*
X250389591Y-211785295D02*
X250389591Y-211785295D01*
D24*
G04 #@! TO.P,K24-1,2*
G04 #@! TO.N,/col6*
X248409450Y-213575000D03*
D25*
G04 #@! TD*
G04 #@! TO.N,/col6*
G04 #@! TO.C,K24-1*
X248409450Y-213575000D02*
X248409450Y-213575000D01*
D22*
G04 #@! TO.P,K24-1,1*
G04 #@! TO.N,/k25*
X249414295Y-218554557D03*
D23*
G04 #@! TD*
G04 #@! TO.N,/k25*
G04 #@! TO.C,K24-1*
X249414295Y-218554557D02*
X249414295Y-218554557D01*
D24*
G04 #@! TO.P,K24-1,1*
G04 #@! TO.N,/k25*
X252728103Y-210294873D03*
D25*
G04 #@! TD*
G04 #@! TO.N,/k25*
G04 #@! TO.C,K24-1*
X252728103Y-210294873D02*
X252728103Y-210294873D01*
D22*
G04 #@! TO.P,K25,1*
G04 #@! TO.N,/k25*
X262851557Y-207931295D03*
D23*
G04 #@! TD*
G04 #@! TO.N,/k25*
G04 #@! TO.C,K25*
X262851557Y-207931295D02*
X262851557Y-207931295D01*
D24*
G04 #@! TO.P,K25,1*
G04 #@! TO.N,/k25*
X255851873Y-202435103D03*
D25*
G04 #@! TD*
G04 #@! TO.N,/k25*
G04 #@! TO.C,K25*
X255851873Y-202435103D02*
X255851873Y-202435103D01*
D22*
G04 #@! TO.P,K25,2*
G04 #@! TO.N,/col6*
X258622295Y-202556591D03*
D23*
G04 #@! TD*
G04 #@! TO.N,/col6*
G04 #@! TO.C,K25*
X258622295Y-202556591D02*
X258622295Y-202556591D01*
D22*
G04 #@! TO.P,K25,2*
G04 #@! TO.N,/col6*
X263021705Y-205096591D03*
D23*
G04 #@! TD*
G04 #@! TO.N,/col6*
G04 #@! TO.C,K25*
X263021705Y-205096591D02*
X263021705Y-205096591D01*
D26*
G04 #@! TO.P,K25,2*
G04 #@! TO.N,/col6*
X261232000Y-203116450D03*
D27*
G04 #@! TD*
G04 #@! TO.N,/col6*
G04 #@! TO.C,K25*
X260885590Y-202916450D02*
X261578410Y-203316450D01*
D22*
G04 #@! TO.P,K25,1*
G04 #@! TO.N,/k25*
X256252443Y-204121295D03*
D23*
G04 #@! TD*
G04 #@! TO.N,/k25*
G04 #@! TO.C,K25*
X256252443Y-204121295D02*
X256252443Y-204121295D01*
D24*
G04 #@! TO.P,K25,1*
G04 #@! TO.N,/k25*
X264512127Y-207435103D03*
D25*
G04 #@! TD*
G04 #@! TO.N,/k25*
G04 #@! TO.C,K25*
X264512127Y-207435103D02*
X264512127Y-207435103D01*
D22*
G04 #@! TO.P,K25-1,1*
G04 #@! TO.N,/k18*
X269724295Y-221475443D03*
D23*
G04 #@! TD*
G04 #@! TO.N,/k18*
G04 #@! TO.C,K25-1*
X269724295Y-221475443D02*
X269724295Y-221475443D01*
D24*
G04 #@! TO.P,K25-1,1*
G04 #@! TO.N,/k18*
X264228103Y-228475127D03*
D25*
G04 #@! TD*
G04 #@! TO.N,/k18*
G04 #@! TO.C,K25-1*
X264228103Y-228475127D02*
X264228103Y-228475127D01*
D22*
G04 #@! TO.P,K25-1,2*
G04 #@! TO.N,/col6*
X264349591Y-225704705D03*
D23*
G04 #@! TD*
G04 #@! TO.N,/col6*
G04 #@! TO.C,K25-1*
X264349591Y-225704705D02*
X264349591Y-225704705D01*
D22*
G04 #@! TO.P,K25-1,2*
G04 #@! TO.N,/col6*
X266889591Y-221305295D03*
D23*
G04 #@! TD*
G04 #@! TO.N,/col6*
G04 #@! TO.C,K25-1*
X266889591Y-221305295D02*
X266889591Y-221305295D01*
D24*
G04 #@! TO.P,K25-1,2*
G04 #@! TO.N,/col6*
X264909450Y-223095000D03*
D25*
G04 #@! TD*
G04 #@! TO.N,/col6*
G04 #@! TO.C,K25-1*
X264909450Y-223095000D02*
X264909450Y-223095000D01*
D22*
G04 #@! TO.P,K25-1,1*
G04 #@! TO.N,/k18*
X265914295Y-228074557D03*
D23*
G04 #@! TD*
G04 #@! TO.N,/k18*
G04 #@! TO.C,K25-1*
X265914295Y-228074557D02*
X265914295Y-228074557D01*
D24*
G04 #@! TO.P,K25-1,1*
G04 #@! TO.N,/k18*
X269228103Y-219814873D03*
D25*
G04 #@! TD*
G04 #@! TO.N,/k18*
G04 #@! TO.C,K25-1*
X269228103Y-219814873D02*
X269228103Y-219814873D01*
D14*
G04 #@! TO.P,K28,1*
G04 #@! TO.N,Net-(D29-Pad2)*
X191930000Y-197486000D03*
D13*
X183120000Y-196226000D03*
D14*
G04 #@! TO.P,K28,2*
G04 #@! TO.N,/col2*
X185580000Y-194946000D03*
X190660000Y-194946000D03*
D13*
X188120000Y-194126000D03*
D14*
G04 #@! TO.P,K28,1*
G04 #@! TO.N,Net-(D29-Pad2)*
X184310000Y-197486000D03*
D13*
X193120000Y-196226000D03*
G04 #@! TD*
D14*
G04 #@! TO.P,K29,1*
G04 #@! TO.N,Net-(D30-Pad2)*
X210980000Y-197486000D03*
D13*
X202170000Y-196226000D03*
D14*
G04 #@! TO.P,K29,2*
G04 #@! TO.N,/col3*
X204630000Y-194946000D03*
X209710000Y-194946000D03*
D13*
X207170000Y-194126000D03*
D14*
G04 #@! TO.P,K29,1*
G04 #@! TO.N,Net-(D30-Pad2)*
X203360000Y-197486000D03*
D13*
X212170000Y-196226000D03*
G04 #@! TD*
D14*
G04 #@! TO.P,K30,1*
G04 #@! TO.N,Net-(D31-Pad2)*
X230030000Y-197486000D03*
D13*
X221220000Y-196226000D03*
D14*
G04 #@! TO.P,K30,2*
G04 #@! TO.N,/col4*
X223680000Y-194946000D03*
X228760000Y-194946000D03*
D13*
X226220000Y-194126000D03*
D14*
G04 #@! TO.P,K30,1*
G04 #@! TO.N,Net-(D31-Pad2)*
X222410000Y-197486000D03*
D13*
X231220000Y-196226000D03*
G04 #@! TD*
D22*
G04 #@! TO.P,K31,1*
G04 #@! TO.N,Net-(D32-Pad2)*
X244186443Y-225078705D03*
D23*
G04 #@! TD*
G04 #@! TO.N,Net-(D32-Pad2)*
G04 #@! TO.C,K31*
X244186443Y-225078705D02*
X244186443Y-225078705D01*
D24*
G04 #@! TO.P,K31,1*
G04 #@! TO.N,Net-(D32-Pad2)*
X251186127Y-230574897D03*
D25*
G04 #@! TD*
G04 #@! TO.N,Net-(D32-Pad2)*
G04 #@! TO.C,K31*
X251186127Y-230574897D02*
X251186127Y-230574897D01*
D22*
G04 #@! TO.P,K31,2*
G04 #@! TO.N,/col5*
X248415705Y-230453409D03*
D23*
G04 #@! TD*
G04 #@! TO.N,/col5*
G04 #@! TO.C,K31*
X248415705Y-230453409D02*
X248415705Y-230453409D01*
D22*
G04 #@! TO.P,K31,2*
G04 #@! TO.N,/col5*
X244016295Y-227913409D03*
D23*
G04 #@! TD*
G04 #@! TO.N,/col5*
G04 #@! TO.C,K31*
X244016295Y-227913409D02*
X244016295Y-227913409D01*
D24*
G04 #@! TO.P,K31,2*
G04 #@! TO.N,/col5*
X245806000Y-229893550D03*
D25*
G04 #@! TD*
G04 #@! TO.N,/col5*
G04 #@! TO.C,K31*
X245806000Y-229893550D02*
X245806000Y-229893550D01*
D22*
G04 #@! TO.P,K31,1*
G04 #@! TO.N,Net-(D32-Pad2)*
X250785557Y-228888705D03*
D23*
G04 #@! TD*
G04 #@! TO.N,Net-(D32-Pad2)*
G04 #@! TO.C,K31*
X250785557Y-228888705D02*
X250785557Y-228888705D01*
D24*
G04 #@! TO.P,K31,1*
G04 #@! TO.N,Net-(D32-Pad2)*
X242525873Y-225574897D03*
D25*
G04 #@! TD*
G04 #@! TO.N,Net-(D32-Pad2)*
G04 #@! TO.C,K31*
X242525873Y-225574897D02*
X242525873Y-225574897D01*
D22*
G04 #@! TO.P,K32,1*
G04 #@! TO.N,Net-(D33-Pad2)*
X260686443Y-234598705D03*
D23*
G04 #@! TD*
G04 #@! TO.N,Net-(D33-Pad2)*
G04 #@! TO.C,K32*
X260686443Y-234598705D02*
X260686443Y-234598705D01*
D24*
G04 #@! TO.P,K32,1*
G04 #@! TO.N,Net-(D33-Pad2)*
X267686127Y-240094897D03*
D25*
G04 #@! TD*
G04 #@! TO.N,Net-(D33-Pad2)*
G04 #@! TO.C,K32*
X267686127Y-240094897D02*
X267686127Y-240094897D01*
D22*
G04 #@! TO.P,K32,2*
G04 #@! TO.N,/col6*
X264915705Y-239973409D03*
D23*
G04 #@! TD*
G04 #@! TO.N,/col6*
G04 #@! TO.C,K32*
X264915705Y-239973409D02*
X264915705Y-239973409D01*
D22*
G04 #@! TO.P,K32,2*
G04 #@! TO.N,/col6*
X260516295Y-237433409D03*
D23*
G04 #@! TD*
G04 #@! TO.N,/col6*
G04 #@! TO.C,K32*
X260516295Y-237433409D02*
X260516295Y-237433409D01*
D24*
G04 #@! TO.P,K32,2*
G04 #@! TO.N,/col6*
X262306000Y-239413550D03*
D25*
G04 #@! TD*
G04 #@! TO.N,/col6*
G04 #@! TO.C,K32*
X262306000Y-239413550D02*
X262306000Y-239413550D01*
D22*
G04 #@! TO.P,K32,1*
G04 #@! TO.N,Net-(D33-Pad2)*
X267285557Y-238408705D03*
D23*
G04 #@! TD*
G04 #@! TO.N,Net-(D33-Pad2)*
G04 #@! TO.C,K32*
X267285557Y-238408705D02*
X267285557Y-238408705D01*
D24*
G04 #@! TO.P,K32,1*
G04 #@! TO.N,Net-(D33-Pad2)*
X259025873Y-235094897D03*
D25*
G04 #@! TD*
G04 #@! TO.N,Net-(D33-Pad2)*
G04 #@! TO.C,K32*
X259025873Y-235094897D02*
X259025873Y-235094897D01*
D10*
G04 #@! TO.P,E2,1*
G04 #@! TO.N,/rotaryA*
X145138000Y-131326000D03*
G04 #@! TO.P,E2,3*
G04 #@! TO.N,GND*
X147638000Y-131326000D03*
G04 #@! TO.P,E2,2*
G04 #@! TO.N,/rotaryB*
X150138000Y-131326000D03*
G04 #@! TO.P,E2,4*
G04 #@! TO.N,/k0*
X150138000Y-116826000D03*
G04 #@! TO.P,E2,5*
G04 #@! TO.N,/col0*
X145138000Y-116826000D03*
G04 #@! TD*
G04 #@! TO.P,E3,1*
G04 #@! TO.N,/rotaryA*
X145138000Y-150376000D03*
G04 #@! TO.P,E3,3*
G04 #@! TO.N,GND*
X147638000Y-150376000D03*
G04 #@! TO.P,E3,2*
G04 #@! TO.N,/rotaryB*
X150138000Y-150376000D03*
G04 #@! TO.P,E3,4*
G04 #@! TO.N,/k6*
X150138000Y-135876000D03*
G04 #@! TO.P,E3,5*
G04 #@! TO.N,/col0*
X145138000Y-135876000D03*
G04 #@! TD*
G04 #@! TO.P,E4,1*
G04 #@! TO.N,/rotaryA*
X145138000Y-169426000D03*
G04 #@! TO.P,E4,3*
G04 #@! TO.N,GND*
X147638000Y-169426000D03*
G04 #@! TO.P,E4,2*
G04 #@! TO.N,/rotaryB*
X150138000Y-169426000D03*
G04 #@! TO.P,E4,4*
G04 #@! TO.N,/k12*
X150138000Y-154926000D03*
G04 #@! TO.P,E4,5*
G04 #@! TO.N,/col0*
X145138000Y-154926000D03*
G04 #@! TD*
G04 #@! TO.P,E5,1*
G04 #@! TO.N,/rotaryA*
X145138000Y-188476000D03*
G04 #@! TO.P,E5,3*
G04 #@! TO.N,GND*
X147638000Y-188476000D03*
G04 #@! TO.P,E5,2*
G04 #@! TO.N,/rotaryB*
X150138000Y-188476000D03*
G04 #@! TO.P,E5,4*
G04 #@! TO.N,/k19*
X150138000Y-173976000D03*
G04 #@! TO.P,E5,5*
G04 #@! TO.N,/col0*
X145138000Y-173976000D03*
G04 #@! TD*
G04 #@! TO.P,E6,1*
G04 #@! TO.N,/rotaryA*
X145138000Y-207526000D03*
G04 #@! TO.P,E6,3*
G04 #@! TO.N,GND*
X147638000Y-207526000D03*
G04 #@! TO.P,E6,2*
G04 #@! TO.N,/rotaryB*
X150138000Y-207526000D03*
G04 #@! TO.P,E6,4*
G04 #@! TO.N,/k26*
X150138000Y-193026000D03*
G04 #@! TO.P,E6,5*
G04 #@! TO.N,/col0*
X145138000Y-193026000D03*
G04 #@! TD*
D28*
G04 #@! TO.P,ELITE-C,2*
G04 #@! TO.N,+5V*
X269300000Y-124900000D03*
G04 #@! TO.P,ELITE-C,1*
G04 #@! TO.N,Net-(SJ1-Pad1)*
X270100000Y-124900000D03*
G04 #@! TD*
D29*
G04 #@! TO.P,SJ4,2*
G04 #@! TO.N,Net-(J1-Pad4)*
X268100000Y-148000000D03*
G04 #@! TO.P,SJ4,1*
G04 #@! TO.N,/SDA*
X268100000Y-147200000D03*
G04 #@! TD*
G04 #@! TO.P,SJ6,2*
G04 #@! TO.N,Net-(J1-Pad3)*
X265600000Y-148000000D03*
G04 #@! TO.P,SJ6,1*
G04 #@! TO.N,/SCL*
X265600000Y-147200000D03*
G04 #@! TD*
G04 #@! TO.P,SJ8,2*
G04 #@! TO.N,Net-(J1-Pad2)*
X263000000Y-148000000D03*
G04 #@! TO.P,SJ8,1*
G04 #@! TO.N,+5V*
X263000000Y-147200000D03*
G04 #@! TD*
G04 #@! TO.P,SJ10,2*
G04 #@! TO.N,Net-(J1-Pad1)*
X260500000Y-148000000D03*
G04 #@! TO.P,SJ10,1*
G04 #@! TO.N,GND*
X260500000Y-147200000D03*
G04 #@! TD*
D30*
G04 #@! TO.P,USB1,*
G04 #@! TO.N,*
X271800000Y-161820000D03*
X271800000Y-153180000D03*
D31*
X267620000Y-161820000D03*
X267620000Y-153180000D03*
G04 #@! TD*
D30*
G04 #@! TO.P,USB2,*
G04 #@! TO.N,*
X271800000Y-153180000D03*
X271800000Y-161820000D03*
D31*
X267620000Y-153180000D03*
X267620000Y-161820000D03*
D32*
G04 #@! TO.P,USB2,6*
G04 #@! TO.N,/SERIAL*
X266205000Y-157750000D03*
G04 #@! TO.P,USB2,7*
G04 #@! TO.N,/RGB*
X266205000Y-157250000D03*
G04 #@! TO.P,USB2,8*
G04 #@! TO.N,/SERIAL*
X266205000Y-156750000D03*
G04 #@! TO.P,USB2,5*
G04 #@! TO.N,/RGB*
X266205000Y-158250000D03*
D33*
G04 #@! TO.P,USB2,9*
G04 #@! TO.N,Net-(USB2-Pad9)*
X266705000Y-156250000D03*
G04 #@! TO.P,USB2,4*
G04 #@! TO.N,Net-(USB2-Pad4)*
X266705000Y-158750000D03*
G04 #@! TO.P,USB2,10*
G04 #@! TO.N,Net-(USB2-Pad10)*
X266705000Y-155750000D03*
G04 #@! TO.P,USB2,3*
G04 #@! TO.N,Net-(USB2-Pad3)*
X266705000Y-159250000D03*
D34*
G04 #@! TO.P,USB2,2*
G04 #@! TO.N,+5V*
X266205000Y-159950000D03*
G04 #@! TO.P,USB2,11*
X266205000Y-155050000D03*
G04 #@! TO.P,USB2,1*
G04 #@! TO.N,GND*
X266205000Y-160725000D03*
G04 #@! TO.P,USB2,12*
X266205000Y-154275000D03*
G04 #@! TD*
D35*
G04 #@! TO.P,LED34,1*
G04 #@! TO.N,/5V-2*
X147656860Y-99281660D03*
G04 #@! TO.P,LED34,2*
G04 #@! TO.N,Net-(LED34-Pad2)*
X147656860Y-95981660D03*
G04 #@! TO.P,LED34,3*
G04 #@! TO.N,/GND-2*
X142856860Y-95981660D03*
G04 #@! TO.P,LED34,4*
G04 #@! TO.N,/RGB*
X142856860Y-99281660D03*
G04 #@! TD*
G04 #@! TO.P,LED35,1*
G04 #@! TO.N,/5V-2*
X171469460Y-99281660D03*
G04 #@! TO.P,LED35,2*
G04 #@! TO.N,Net-(LED35-Pad2)*
X171469460Y-95981660D03*
G04 #@! TO.P,LED35,3*
G04 #@! TO.N,/GND-2*
X166669460Y-95981660D03*
G04 #@! TO.P,LED35,4*
G04 #@! TO.N,Net-(LED34-Pad2)*
X166669460Y-99281660D03*
G04 #@! TD*
G04 #@! TO.P,LED36,1*
G04 #@! TO.N,/5V-2*
X190519540Y-99281660D03*
G04 #@! TO.P,LED36,2*
G04 #@! TO.N,Net-(LED36-Pad2)*
X190519540Y-95981660D03*
G04 #@! TO.P,LED36,3*
G04 #@! TO.N,/GND-2*
X185719540Y-95981660D03*
G04 #@! TO.P,LED36,4*
G04 #@! TO.N,Net-(LED35-Pad2)*
X185719540Y-99281660D03*
G04 #@! TD*
G04 #@! TO.P,LED37,1*
G04 #@! TO.N,/5V-2*
X209569620Y-99281660D03*
G04 #@! TO.P,LED37,2*
G04 #@! TO.N,Net-(LED37-Pad2)*
X209569620Y-95981660D03*
G04 #@! TO.P,LED37,3*
G04 #@! TO.N,/GND-2*
X204769620Y-95981660D03*
G04 #@! TO.P,LED37,4*
G04 #@! TO.N,Net-(LED36-Pad2)*
X204769620Y-99281660D03*
G04 #@! TD*
G04 #@! TO.P,LED38,1*
G04 #@! TO.N,/5V-2*
X228619700Y-99281660D03*
G04 #@! TO.P,LED38,2*
G04 #@! TO.N,Net-(LED38-Pad2)*
X228619700Y-95981660D03*
G04 #@! TO.P,LED38,3*
G04 #@! TO.N,/GND-2*
X223819700Y-95981660D03*
G04 #@! TO.P,LED38,4*
G04 #@! TO.N,Net-(LED37-Pad2)*
X223819700Y-99281660D03*
G04 #@! TD*
G04 #@! TO.P,LED39,1*
G04 #@! TO.N,/5V-2*
X247669780Y-99281660D03*
G04 #@! TO.P,LED39,2*
G04 #@! TO.N,/RGBrow10*
X247669780Y-95981660D03*
G04 #@! TO.P,LED39,3*
G04 #@! TO.N,/GND-2*
X242869780Y-95981660D03*
G04 #@! TO.P,LED39,4*
G04 #@! TO.N,Net-(LED38-Pad2)*
X242869780Y-99281660D03*
G04 #@! TD*
G04 #@! TO.P,LED40,1*
G04 #@! TO.N,/5V-2*
X147656860Y-80231580D03*
G04 #@! TO.P,LED40,2*
G04 #@! TO.N,Net-(LED40-Pad2)*
X147656860Y-76931580D03*
G04 #@! TO.P,LED40,3*
G04 #@! TO.N,/GND-2*
X142856860Y-76931580D03*
G04 #@! TO.P,LED40,4*
G04 #@! TO.N,/RGBrow10*
X142856860Y-80231580D03*
G04 #@! TD*
G04 #@! TO.P,LED41,1*
G04 #@! TO.N,/5V-2*
X171469460Y-80231580D03*
G04 #@! TO.P,LED41,2*
G04 #@! TO.N,Net-(LED41-Pad2)*
X171469460Y-76931580D03*
G04 #@! TO.P,LED41,3*
G04 #@! TO.N,/GND-2*
X166669460Y-76931580D03*
G04 #@! TO.P,LED41,4*
G04 #@! TO.N,Net-(LED40-Pad2)*
X166669460Y-80231580D03*
G04 #@! TD*
G04 #@! TO.P,LED42,1*
G04 #@! TO.N,/5V-2*
X190519540Y-80231580D03*
G04 #@! TO.P,LED42,2*
G04 #@! TO.N,Net-(LED42-Pad2)*
X190519540Y-76931580D03*
G04 #@! TO.P,LED42,3*
G04 #@! TO.N,/GND-2*
X185719540Y-76931580D03*
G04 #@! TO.P,LED42,4*
G04 #@! TO.N,Net-(LED41-Pad2)*
X185719540Y-80231580D03*
G04 #@! TD*
G04 #@! TO.P,LED43,1*
G04 #@! TO.N,/5V-2*
X209569620Y-80231580D03*
G04 #@! TO.P,LED43,2*
G04 #@! TO.N,Net-(LED43-Pad2)*
X209569620Y-76931580D03*
G04 #@! TO.P,LED43,3*
G04 #@! TO.N,/GND-2*
X204769620Y-76931580D03*
G04 #@! TO.P,LED43,4*
G04 #@! TO.N,Net-(LED42-Pad2)*
X204769620Y-80231580D03*
G04 #@! TD*
G04 #@! TO.P,LED44,1*
G04 #@! TO.N,/5V-2*
X228619700Y-80231580D03*
G04 #@! TO.P,LED44,2*
G04 #@! TO.N,Net-(LED44-Pad2)*
X228619700Y-76931580D03*
G04 #@! TO.P,LED44,3*
G04 #@! TO.N,/GND-2*
X223819700Y-76931580D03*
G04 #@! TO.P,LED44,4*
G04 #@! TO.N,Net-(LED43-Pad2)*
X223819700Y-80231580D03*
G04 #@! TD*
G04 #@! TO.P,LED45,1*
G04 #@! TO.N,/5V-2*
X247669780Y-80231580D03*
G04 #@! TO.P,LED45,2*
G04 #@! TO.N,/RGBrow12*
X247669780Y-76931580D03*
G04 #@! TO.P,LED45,3*
G04 #@! TO.N,/GND-2*
X242869780Y-76931580D03*
G04 #@! TO.P,LED45,4*
G04 #@! TO.N,Net-(LED44-Pad2)*
X242869780Y-80231580D03*
G04 #@! TD*
G04 #@! TO.P,LED46,1*
G04 #@! TO.N,/5V-2*
X147656860Y-61181500D03*
G04 #@! TO.P,LED46,2*
G04 #@! TO.N,Net-(LED46-Pad2)*
X147656860Y-57881500D03*
G04 #@! TO.P,LED46,3*
G04 #@! TO.N,/GND-2*
X142856860Y-57881500D03*
G04 #@! TO.P,LED46,4*
G04 #@! TO.N,/RGBrow12*
X142856860Y-61181500D03*
G04 #@! TD*
G04 #@! TO.P,LED47,1*
G04 #@! TO.N,/5V-2*
X171469460Y-61181500D03*
G04 #@! TO.P,LED47,2*
G04 #@! TO.N,Net-(LED47-Pad2)*
X171469460Y-57881500D03*
G04 #@! TO.P,LED47,3*
G04 #@! TO.N,/GND-2*
X166669460Y-57881500D03*
G04 #@! TO.P,LED47,4*
G04 #@! TO.N,Net-(LED46-Pad2)*
X166669460Y-61181500D03*
G04 #@! TD*
G04 #@! TO.P,LED48,1*
G04 #@! TO.N,/5V-2*
X190519540Y-61181500D03*
G04 #@! TO.P,LED48,2*
G04 #@! TO.N,Net-(LED48-Pad2)*
X190519540Y-57881500D03*
G04 #@! TO.P,LED48,3*
G04 #@! TO.N,/GND-2*
X185719540Y-57881500D03*
G04 #@! TO.P,LED48,4*
G04 #@! TO.N,Net-(LED47-Pad2)*
X185719540Y-61181500D03*
G04 #@! TD*
G04 #@! TO.P,LED49,1*
G04 #@! TO.N,/5V-2*
X209569620Y-61181500D03*
G04 #@! TO.P,LED49,2*
G04 #@! TO.N,Net-(LED49-Pad2)*
X209569620Y-57881500D03*
G04 #@! TO.P,LED49,3*
G04 #@! TO.N,/GND-2*
X204769620Y-57881500D03*
G04 #@! TO.P,LED49,4*
G04 #@! TO.N,Net-(LED48-Pad2)*
X204769620Y-61181500D03*
G04 #@! TD*
G04 #@! TO.P,LED50,1*
G04 #@! TO.N,/5V-2*
X228619700Y-61181500D03*
G04 #@! TO.P,LED50,2*
G04 #@! TO.N,Net-(LED50-Pad2)*
X228619700Y-57881500D03*
G04 #@! TO.P,LED50,3*
G04 #@! TO.N,/GND-2*
X223819700Y-57881500D03*
G04 #@! TO.P,LED50,4*
G04 #@! TO.N,Net-(LED49-Pad2)*
X223819700Y-61181500D03*
G04 #@! TD*
G04 #@! TO.P,LED51,1*
G04 #@! TO.N,/5V-2*
X247669780Y-61181500D03*
G04 #@! TO.P,LED51,2*
G04 #@! TO.N,/RGBrow23*
X247669780Y-57881500D03*
G04 #@! TO.P,LED51,3*
G04 #@! TO.N,/GND-2*
X242869780Y-57881500D03*
G04 #@! TO.P,LED51,4*
G04 #@! TO.N,Net-(LED50-Pad2)*
X242869780Y-61181500D03*
G04 #@! TD*
G04 #@! TO.P,LED52,1*
G04 #@! TO.N,/5V-2*
X147656860Y-42131420D03*
G04 #@! TO.P,LED52,2*
G04 #@! TO.N,Net-(LED52-Pad2)*
X147656860Y-38831420D03*
G04 #@! TO.P,LED52,3*
G04 #@! TO.N,/GND-2*
X142856860Y-38831420D03*
G04 #@! TO.P,LED52,4*
G04 #@! TO.N,/RGBrow23*
X142856860Y-42131420D03*
G04 #@! TD*
G04 #@! TO.P,LED53,1*
G04 #@! TO.N,/5V-2*
X171469460Y-42131420D03*
G04 #@! TO.P,LED53,2*
G04 #@! TO.N,Net-(LED53-Pad2)*
X171469460Y-38831420D03*
G04 #@! TO.P,LED53,3*
G04 #@! TO.N,/GND-2*
X166669460Y-38831420D03*
G04 #@! TO.P,LED53,4*
G04 #@! TO.N,Net-(LED52-Pad2)*
X166669460Y-42131420D03*
G04 #@! TD*
G04 #@! TO.P,LED54,1*
G04 #@! TO.N,/5V-2*
X190519540Y-42131420D03*
G04 #@! TO.P,LED54,2*
G04 #@! TO.N,Net-(LED54-Pad2)*
X190519540Y-38831420D03*
G04 #@! TO.P,LED54,3*
G04 #@! TO.N,/GND-2*
X185719540Y-38831420D03*
G04 #@! TO.P,LED54,4*
G04 #@! TO.N,Net-(LED53-Pad2)*
X185719540Y-42131420D03*
G04 #@! TD*
G04 #@! TO.P,LED55,1*
G04 #@! TO.N,/5V-2*
X209569620Y-42131420D03*
G04 #@! TO.P,LED55,2*
G04 #@! TO.N,Net-(LED55-Pad2)*
X209569620Y-38831420D03*
G04 #@! TO.P,LED55,3*
G04 #@! TO.N,/GND-2*
X204769620Y-38831420D03*
G04 #@! TO.P,LED55,4*
G04 #@! TO.N,Net-(LED54-Pad2)*
X204769620Y-42131420D03*
G04 #@! TD*
G04 #@! TO.P,LED56,1*
G04 #@! TO.N,/5V-2*
X228619700Y-42131420D03*
G04 #@! TO.P,LED56,2*
G04 #@! TO.N,Net-(LED56-Pad2)*
X228619700Y-38831420D03*
G04 #@! TO.P,LED56,3*
G04 #@! TO.N,/GND-2*
X223819700Y-38831420D03*
G04 #@! TO.P,LED56,4*
G04 #@! TO.N,Net-(LED55-Pad2)*
X223819700Y-42131420D03*
G04 #@! TD*
G04 #@! TO.P,LED57,1*
G04 #@! TO.N,/5V-2*
X247669780Y-42131420D03*
G04 #@! TO.P,LED57,2*
G04 #@! TO.N,/RGBrow34*
X247669780Y-38831420D03*
G04 #@! TO.P,LED57,3*
G04 #@! TO.N,/GND-2*
X242869780Y-38831420D03*
G04 #@! TO.P,LED57,4*
G04 #@! TO.N,Net-(LED56-Pad2)*
X242869780Y-42131420D03*
G04 #@! TD*
G04 #@! TO.P,LED58,1*
G04 #@! TO.N,/5V-2*
X147656860Y-23081340D03*
G04 #@! TO.P,LED58,2*
G04 #@! TO.N,Net-(LED58-Pad2)*
X147656860Y-19781340D03*
G04 #@! TO.P,LED58,3*
G04 #@! TO.N,/GND-2*
X142856860Y-19781340D03*
G04 #@! TO.P,LED58,4*
G04 #@! TO.N,/RGBrow34*
X142856860Y-23081340D03*
G04 #@! TD*
G04 #@! TO.P,LED59,1*
G04 #@! TO.N,/5V-2*
X171469460Y-23081340D03*
G04 #@! TO.P,LED59,2*
G04 #@! TO.N,Net-(LED59-Pad2)*
X171469460Y-19781340D03*
G04 #@! TO.P,LED59,3*
G04 #@! TO.N,/GND-2*
X166669460Y-19781340D03*
G04 #@! TO.P,LED59,4*
G04 #@! TO.N,Net-(LED58-Pad2)*
X166669460Y-23081340D03*
G04 #@! TD*
G04 #@! TO.P,LED60,1*
G04 #@! TO.N,/5V-2*
X190519540Y-23081340D03*
G04 #@! TO.P,LED60,2*
G04 #@! TO.N,Net-(LED60-Pad2)*
X190519540Y-19781340D03*
G04 #@! TO.P,LED60,3*
G04 #@! TO.N,/GND-2*
X185719540Y-19781340D03*
G04 #@! TO.P,LED60,4*
G04 #@! TO.N,Net-(LED59-Pad2)*
X185719540Y-23081340D03*
G04 #@! TD*
G04 #@! TO.P,LED61,1*
G04 #@! TO.N,/5V-2*
X209569620Y-23081340D03*
G04 #@! TO.P,LED61,2*
G04 #@! TO.N,Net-(LED61-Pad2)*
X209569620Y-19781340D03*
G04 #@! TO.P,LED61,3*
G04 #@! TO.N,/GND-2*
X204769620Y-19781340D03*
G04 #@! TO.P,LED61,4*
G04 #@! TO.N,Net-(LED60-Pad2)*
X204769620Y-23081340D03*
G04 #@! TD*
G04 #@! TO.P,LED62,1*
G04 #@! TO.N,/5V-2*
X228619700Y-23081340D03*
G04 #@! TO.P,LED62,2*
G04 #@! TO.N,Net-(LED62-Pad2)*
X228619700Y-19781340D03*
G04 #@! TO.P,LED62,3*
G04 #@! TO.N,/GND-2*
X223819700Y-19781340D03*
G04 #@! TO.P,LED62,4*
G04 #@! TO.N,Net-(LED61-Pad2)*
X223819700Y-23081340D03*
G04 #@! TD*
D36*
G04 #@! TO.P,LED63,1*
G04 #@! TO.N,/5V-2*
X260773461Y-12888942D03*
D37*
G04 #@! TD*
G04 #@! TO.N,/5V-2*
G04 #@! TO.C,LED63*
G36*
X259644038Y-12732724D02*
X261202884Y-11832724D01*
X261902884Y-13045160D01*
X260344038Y-13945160D01*
X259644038Y-12732724D01*
X259644038Y-12732724D01*
G37*
D36*
G04 #@! TO.P,LED63,2*
G04 #@! TO.N,Net-(LED63-Pad2)*
X259123461Y-10031058D03*
D37*
G04 #@! TD*
G04 #@! TO.N,Net-(LED63-Pad2)*
G04 #@! TO.C,LED63*
G36*
X257994038Y-9874840D02*
X259552884Y-8974840D01*
X260252884Y-10187276D01*
X258694038Y-11087276D01*
X257994038Y-9874840D01*
X257994038Y-9874840D01*
G37*
D36*
G04 #@! TO.P,LED63,3*
G04 #@! TO.N,/GND-2*
X254966539Y-12431058D03*
D37*
G04 #@! TD*
G04 #@! TO.N,/GND-2*
G04 #@! TO.C,LED63*
G36*
X253837116Y-12274840D02*
X255395962Y-11374840D01*
X256095962Y-12587276D01*
X254537116Y-13487276D01*
X253837116Y-12274840D01*
X253837116Y-12274840D01*
G37*
D36*
G04 #@! TO.P,LED63,4*
G04 #@! TO.N,Net-(LED62-Pad2)*
X256616539Y-15288942D03*
D37*
G04 #@! TD*
G04 #@! TO.N,Net-(LED62-Pad2)*
G04 #@! TO.C,LED63*
G36*
X255487116Y-15132724D02*
X257045962Y-14232724D01*
X257745962Y-15445160D01*
X256187116Y-16345160D01*
X255487116Y-15132724D01*
X255487116Y-15132724D01*
G37*
D36*
G04 #@! TO.P,LED64,1*
G04 #@! TO.N,/5V-2*
X277293461Y-3358942D03*
D37*
G04 #@! TD*
G04 #@! TO.N,/5V-2*
G04 #@! TO.C,LED64*
G36*
X276164038Y-3202724D02*
X277722884Y-2302724D01*
X278422884Y-3515160D01*
X276864038Y-4415160D01*
X276164038Y-3202724D01*
X276164038Y-3202724D01*
G37*
D36*
G04 #@! TO.P,LED64,2*
G04 #@! TO.N,Net-(LED64-Pad2)*
X275643461Y-501058D03*
D37*
G04 #@! TD*
G04 #@! TO.N,Net-(LED64-Pad2)*
G04 #@! TO.C,LED64*
G36*
X274514038Y-344840D02*
X276072884Y555160D01*
X276772884Y-657276D01*
X275214038Y-1557276D01*
X274514038Y-344840D01*
X274514038Y-344840D01*
G37*
D36*
G04 #@! TO.P,LED64,3*
G04 #@! TO.N,/GND-2*
X271486539Y-2901058D03*
D37*
G04 #@! TD*
G04 #@! TO.N,/GND-2*
G04 #@! TO.C,LED64*
G36*
X270357116Y-2744840D02*
X271915962Y-1844840D01*
X272615962Y-3057276D01*
X271057116Y-3957276D01*
X270357116Y-2744840D01*
X270357116Y-2744840D01*
G37*
D36*
G04 #@! TO.P,LED64,4*
G04 #@! TO.N,Net-(LED63-Pad2)*
X273136539Y-5758942D03*
D37*
G04 #@! TD*
G04 #@! TO.N,Net-(LED63-Pad2)*
G04 #@! TO.C,LED64*
G36*
X272007116Y-5602724D02*
X273565962Y-4702724D01*
X274265962Y-5915160D01*
X272707116Y-6815160D01*
X272007116Y-5602724D01*
X272007116Y-5602724D01*
G37*
D36*
G04 #@! TO.P,LED65,1*
G04 #@! TO.N,/5V-2*
X256033461Y-4658942D03*
D37*
G04 #@! TD*
G04 #@! TO.N,/5V-2*
G04 #@! TO.C,LED65*
G36*
X254904038Y-4502724D02*
X256462884Y-3602724D01*
X257162884Y-4815160D01*
X255604038Y-5715160D01*
X254904038Y-4502724D01*
X254904038Y-4502724D01*
G37*
D36*
G04 #@! TO.P,LED65,2*
G04 #@! TO.N,Net-(LED65-Pad2)*
X254383461Y-1801058D03*
D37*
G04 #@! TD*
G04 #@! TO.N,Net-(LED65-Pad2)*
G04 #@! TO.C,LED65*
G36*
X253254038Y-1644840D02*
X254812884Y-744840D01*
X255512884Y-1957276D01*
X253954038Y-2857276D01*
X253254038Y-1644840D01*
X253254038Y-1644840D01*
G37*
D36*
G04 #@! TO.P,LED65,3*
G04 #@! TO.N,/GND-2*
X250226539Y-4201058D03*
D37*
G04 #@! TD*
G04 #@! TO.N,/GND-2*
G04 #@! TO.C,LED65*
G36*
X249097116Y-4044840D02*
X250655962Y-3144840D01*
X251355962Y-4357276D01*
X249797116Y-5257276D01*
X249097116Y-4044840D01*
X249097116Y-4044840D01*
G37*
D36*
G04 #@! TO.P,LED65,4*
G04 #@! TO.N,Net-(LED62-Pad2)*
X251876539Y-7058942D03*
D37*
G04 #@! TD*
G04 #@! TO.N,Net-(LED62-Pad2)*
G04 #@! TO.C,LED65*
G36*
X250747116Y-6902724D02*
X252305962Y-6002724D01*
X253005962Y-7215160D01*
X251447116Y-8115160D01*
X250747116Y-6902724D01*
X250747116Y-6902724D01*
G37*
D36*
G04 #@! TO.P,LED66,1*
G04 #@! TO.N,/5V-2*
X272523461Y4871058D03*
D37*
G04 #@! TD*
G04 #@! TO.N,/5V-2*
G04 #@! TO.C,LED66*
G36*
X271394038Y5027276D02*
X272952884Y5927276D01*
X273652884Y4714840D01*
X272094038Y3814840D01*
X271394038Y5027276D01*
X271394038Y5027276D01*
G37*
D36*
G04 #@! TO.P,LED66,2*
G04 #@! TO.N,Net-(LED66-Pad2)*
X270873461Y7728942D03*
D37*
G04 #@! TD*
G04 #@! TO.N,Net-(LED66-Pad2)*
G04 #@! TO.C,LED66*
G36*
X269744038Y7885160D02*
X271302884Y8785160D01*
X272002884Y7572724D01*
X270444038Y6672724D01*
X269744038Y7885160D01*
X269744038Y7885160D01*
G37*
D36*
G04 #@! TO.P,LED66,3*
G04 #@! TO.N,/GND-2*
X266716539Y5328942D03*
D37*
G04 #@! TD*
G04 #@! TO.N,/GND-2*
G04 #@! TO.C,LED66*
G36*
X265587116Y5485160D02*
X267145962Y6385160D01*
X267845962Y5172724D01*
X266287116Y4272724D01*
X265587116Y5485160D01*
X265587116Y5485160D01*
G37*
D36*
G04 #@! TO.P,LED66,4*
G04 #@! TO.N,Net-(LED65-Pad2)*
X268366539Y2471058D03*
D37*
G04 #@! TD*
G04 #@! TO.N,Net-(LED65-Pad2)*
G04 #@! TO.C,LED66*
G36*
X267237116Y2627276D02*
X268795962Y3527276D01*
X269495962Y2314840D01*
X267937116Y1414840D01*
X267237116Y2627276D01*
X267237116Y2627276D01*
G37*
D26*
G04 #@! TO.P,m11,1*
G04 #@! TO.N,N/C*
X279220000Y-105970000D03*
G04 #@! TD*
G04 #@! TO.P,m13,1*
G04 #@! TO.N,N/C*
X276860000Y-41670000D03*
G04 #@! TD*
G04 #@! TO.P,m19,1*
G04 #@! TO.N,N/C*
X278825960Y-151277320D03*
G04 #@! TD*
D38*
G04 #@! TO.P,P4,1*
G04 #@! TO.N,/5V-2*
X254404190Y-69056540D03*
G04 #@! TD*
G04 #@! TO.P,P5,1*
G04 #@! TO.N,/RGB*
X254404190Y-64294020D03*
G04 #@! TD*
G04 #@! TO.P,P6,1*
G04 #@! TO.N,/GND-2*
X254404190Y-59531500D03*
G04 #@! TD*
D39*
G04 #@! TO.P,C35,1*
G04 #@! TO.N,/5V-2*
X173831980Y-98631660D03*
G04 #@! TO.P,C35,2*
G04 #@! TO.N,/GND-2*
X173831980Y-96631660D03*
G04 #@! TD*
G04 #@! TO.P,C36,1*
G04 #@! TO.N,/5V-2*
X192882060Y-98631660D03*
G04 #@! TO.P,C36,2*
G04 #@! TO.N,/GND-2*
X192882060Y-96631660D03*
G04 #@! TD*
G04 #@! TO.P,C37,1*
G04 #@! TO.N,/5V-2*
X211932140Y-98631660D03*
G04 #@! TO.P,C37,2*
G04 #@! TO.N,/GND-2*
X211932140Y-96631660D03*
G04 #@! TD*
G04 #@! TO.P,C38,1*
G04 #@! TO.N,/5V-2*
X230982220Y-98631660D03*
G04 #@! TO.P,C38,2*
G04 #@! TO.N,/GND-2*
X230982220Y-96631660D03*
G04 #@! TD*
G04 #@! TO.P,C39,1*
G04 #@! TO.N,/5V-2*
X250032300Y-98631660D03*
G04 #@! TO.P,C39,2*
G04 #@! TO.N,/GND-2*
X250032300Y-96631660D03*
G04 #@! TD*
G04 #@! TO.P,C40,1*
G04 #@! TO.N,/5V-2*
X150019380Y-79581580D03*
G04 #@! TO.P,C40,2*
G04 #@! TO.N,/GND-2*
X150019380Y-77581580D03*
G04 #@! TD*
G04 #@! TO.P,C41,1*
G04 #@! TO.N,/5V-2*
X173831980Y-79581580D03*
G04 #@! TO.P,C41,2*
G04 #@! TO.N,/GND-2*
X173831980Y-77581580D03*
G04 #@! TD*
G04 #@! TO.P,C42,1*
G04 #@! TO.N,/5V-2*
X192882060Y-79581580D03*
G04 #@! TO.P,C42,2*
G04 #@! TO.N,/GND-2*
X192882060Y-77581580D03*
G04 #@! TD*
G04 #@! TO.P,C43,1*
G04 #@! TO.N,/5V-2*
X211932140Y-79581580D03*
G04 #@! TO.P,C43,2*
G04 #@! TO.N,/GND-2*
X211932140Y-77581580D03*
G04 #@! TD*
G04 #@! TO.P,C44,1*
G04 #@! TO.N,/5V-2*
X230982220Y-79581580D03*
G04 #@! TO.P,C44,2*
G04 #@! TO.N,/GND-2*
X230982220Y-77581580D03*
G04 #@! TD*
G04 #@! TO.P,C45,1*
G04 #@! TO.N,/5V-2*
X250032300Y-79581580D03*
G04 #@! TO.P,C45,2*
G04 #@! TO.N,/GND-2*
X250032300Y-77581580D03*
G04 #@! TD*
G04 #@! TO.P,C46,1*
G04 #@! TO.N,/5V-2*
X150019380Y-60531500D03*
G04 #@! TO.P,C46,2*
G04 #@! TO.N,/GND-2*
X150019380Y-58531500D03*
G04 #@! TD*
G04 #@! TO.P,C47,1*
G04 #@! TO.N,/5V-2*
X173831980Y-60531500D03*
G04 #@! TO.P,C47,2*
G04 #@! TO.N,/GND-2*
X173831980Y-58531500D03*
G04 #@! TD*
G04 #@! TO.P,C48,1*
G04 #@! TO.N,/5V-2*
X192882060Y-60531500D03*
G04 #@! TO.P,C48,2*
G04 #@! TO.N,/GND-2*
X192882060Y-58531500D03*
G04 #@! TD*
G04 #@! TO.P,C49,1*
G04 #@! TO.N,/5V-2*
X211932140Y-60531500D03*
G04 #@! TO.P,C49,2*
G04 #@! TO.N,/GND-2*
X211932140Y-58531500D03*
G04 #@! TD*
G04 #@! TO.P,C50,1*
G04 #@! TO.N,/5V-2*
X230982220Y-60531500D03*
G04 #@! TO.P,C50,2*
G04 #@! TO.N,/GND-2*
X230982220Y-58531500D03*
G04 #@! TD*
G04 #@! TO.P,C51,1*
G04 #@! TO.N,/5V-2*
X250032300Y-60531500D03*
G04 #@! TO.P,C51,2*
G04 #@! TO.N,/GND-2*
X250032300Y-58531500D03*
G04 #@! TD*
G04 #@! TO.P,C52,1*
G04 #@! TO.N,/5V-2*
X150019380Y-41481420D03*
G04 #@! TO.P,C52,2*
G04 #@! TO.N,/GND-2*
X150019380Y-39481420D03*
G04 #@! TD*
G04 #@! TO.P,C53,1*
G04 #@! TO.N,/5V-2*
X173831980Y-41481420D03*
G04 #@! TO.P,C53,2*
G04 #@! TO.N,/GND-2*
X173831980Y-39481420D03*
G04 #@! TD*
G04 #@! TO.P,C54,1*
G04 #@! TO.N,/5V-2*
X192882060Y-41481420D03*
G04 #@! TO.P,C54,2*
G04 #@! TO.N,/GND-2*
X192882060Y-39481420D03*
G04 #@! TD*
G04 #@! TO.P,C55,1*
G04 #@! TO.N,/5V-2*
X211932140Y-41481420D03*
G04 #@! TO.P,C55,2*
G04 #@! TO.N,/GND-2*
X211932140Y-39481420D03*
G04 #@! TD*
G04 #@! TO.P,C56,1*
G04 #@! TO.N,/5V-2*
X230982220Y-41481420D03*
G04 #@! TO.P,C56,2*
G04 #@! TO.N,/GND-2*
X230982220Y-39481420D03*
G04 #@! TD*
G04 #@! TO.P,C57,1*
G04 #@! TO.N,/5V-2*
X250032300Y-41481420D03*
G04 #@! TO.P,C57,2*
G04 #@! TO.N,/GND-2*
X250032300Y-39481420D03*
G04 #@! TD*
G04 #@! TO.P,C58,1*
G04 #@! TO.N,/5V-2*
X150019380Y-22431340D03*
G04 #@! TO.P,C58,2*
G04 #@! TO.N,/GND-2*
X150019380Y-20431340D03*
G04 #@! TD*
G04 #@! TO.P,C59,1*
G04 #@! TO.N,/5V-2*
X173831980Y-22431340D03*
G04 #@! TO.P,C59,2*
G04 #@! TO.N,/GND-2*
X173831980Y-20431340D03*
G04 #@! TD*
G04 #@! TO.P,C60,1*
G04 #@! TO.N,/5V-2*
X192882060Y-22431340D03*
G04 #@! TO.P,C60,2*
G04 #@! TO.N,/GND-2*
X192882060Y-20431340D03*
G04 #@! TD*
G04 #@! TO.P,C61,1*
G04 #@! TO.N,/5V-2*
X211932140Y-22431340D03*
G04 #@! TO.P,C61,2*
G04 #@! TO.N,/GND-2*
X211932140Y-20431340D03*
G04 #@! TD*
G04 #@! TO.P,C62,1*
G04 #@! TO.N,/5V-2*
X230982220Y-22431340D03*
G04 #@! TO.P,C62,2*
G04 #@! TO.N,/GND-2*
X230982220Y-20431340D03*
G04 #@! TD*
D40*
G04 #@! TO.P,C63,1*
G04 #@! TO.N,/5V-2*
X257780000Y-2886025D03*
D37*
G04 #@! TD*
G04 #@! TO.N,/5V-2*
G04 #@! TO.C,C63*
G36*
X258571266Y-3006538D02*
X257488734Y-3631538D01*
X256988734Y-2765512D01*
X258071266Y-2140512D01*
X258571266Y-3006538D01*
X258571266Y-3006538D01*
G37*
D40*
G04 #@! TO.P,C63,2*
G04 #@! TO.N,/GND-2*
X256780000Y-1153975D03*
D37*
G04 #@! TD*
G04 #@! TO.N,/GND-2*
G04 #@! TO.C,C63*
G36*
X257571266Y-1274488D02*
X256488734Y-1899488D01*
X255988734Y-1033462D01*
X257071266Y-408462D01*
X257571266Y-1274488D01*
X257571266Y-1274488D01*
G37*
D40*
G04 #@! TO.P,C64,1*
G04 #@! TO.N,/5V-2*
X262490000Y-11146025D03*
D37*
G04 #@! TD*
G04 #@! TO.N,/5V-2*
G04 #@! TO.C,C64*
G36*
X263281266Y-11266538D02*
X262198734Y-11891538D01*
X261698734Y-11025512D01*
X262781266Y-10400512D01*
X263281266Y-11266538D01*
X263281266Y-11266538D01*
G37*
D40*
G04 #@! TO.P,C64,2*
G04 #@! TO.N,/GND-2*
X261490000Y-9413975D03*
D37*
G04 #@! TD*
G04 #@! TO.N,/GND-2*
G04 #@! TO.C,C64*
G36*
X262281266Y-9534488D02*
X261198734Y-10159488D01*
X260698734Y-9293462D01*
X261781266Y-8668462D01*
X262281266Y-9534488D01*
X262281266Y-9534488D01*
G37*
D40*
G04 #@! TO.P,C65,1*
G04 #@! TO.N,/5V-2*
X274260000Y6623975D03*
D37*
G04 #@! TD*
G04 #@! TO.N,/5V-2*
G04 #@! TO.C,C65*
G36*
X275051266Y6503462D02*
X273968734Y5878462D01*
X273468734Y6744488D01*
X274551266Y7369488D01*
X275051266Y6503462D01*
X275051266Y6503462D01*
G37*
D40*
G04 #@! TO.P,C65,2*
G04 #@! TO.N,/GND-2*
X273260000Y8356025D03*
D37*
G04 #@! TD*
G04 #@! TO.N,/GND-2*
G04 #@! TO.C,C65*
G36*
X274051266Y8235512D02*
X272968734Y7610512D01*
X272468734Y8476538D01*
X273551266Y9101538D01*
X274051266Y8235512D01*
X274051266Y8235512D01*
G37*
D40*
G04 #@! TO.P,C66,1*
G04 #@! TO.N,/5V-2*
X279010000Y-1606025D03*
D37*
G04 #@! TD*
G04 #@! TO.N,/5V-2*
G04 #@! TO.C,C66*
G36*
X279801266Y-1726538D02*
X278718734Y-2351538D01*
X278218734Y-1485512D01*
X279301266Y-860512D01*
X279801266Y-1726538D01*
X279801266Y-1726538D01*
G37*
D40*
G04 #@! TO.P,C66,2*
G04 #@! TO.N,/GND-2*
X278010000Y126025D03*
D37*
G04 #@! TD*
G04 #@! TO.N,/GND-2*
G04 #@! TO.C,C66*
G36*
X278801266Y5512D02*
X277718734Y-619488D01*
X277218734Y246538D01*
X278301266Y871538D01*
X278801266Y5512D01*
X278801266Y5512D01*
G37*
D17*
G04 #@! TO.P,D34,1*
G04 #@! TO.N,/row1*
X254794820Y-184161705D03*
G04 #@! TO.P,D34,2*
G04 #@! TO.N,/k33*
X254794820Y-181361705D03*
D16*
X254794820Y-178861705D03*
D15*
G04 #@! TO.P,D34,1*
G04 #@! TO.N,/row1*
X254794820Y-186661705D03*
D18*
G04 #@! TD*
G04 #@! TO.N,/k33*
G04 #@! TO.C,D34*
X254794820Y-180261705D03*
G04 #@! TO.N,/row1*
G04 #@! TO.C,D34*
X254794820Y-185261705D03*
G04 #@! TD*
D14*
G04 #@! TO.P,K33,1*
G04 #@! TO.N,/k33*
X268129860Y-178435760D03*
D13*
X259319860Y-177175760D03*
D14*
G04 #@! TO.P,K33,2*
G04 #@! TO.N,/col6*
X261779860Y-175895760D03*
D41*
X266859860Y-175895760D03*
D13*
X264319860Y-175075760D03*
D14*
G04 #@! TO.P,K33,1*
G04 #@! TO.N,/k33*
X260509860Y-178435760D03*
D13*
X269319860Y-177175760D03*
G04 #@! TD*
D35*
G04 #@! TO.P,LED68,1*
G04 #@! TO.N,/5V-2*
X266719860Y-42131420D03*
G04 #@! TO.P,LED68,2*
G04 #@! TO.N,Net-(LED68-Pad2)*
X266719860Y-38831420D03*
G04 #@! TO.P,LED68,3*
G04 #@! TO.N,/GND-2*
X261919860Y-38831420D03*
G04 #@! TO.P,LED68,4*
G04 #@! TO.N,Net-(LED62-Pad2)*
X261919860Y-42131420D03*
G04 #@! TD*
D39*
G04 #@! TO.P,C67,1*
G04 #@! TO.N,/5V-2*
X269082380Y-41481420D03*
G04 #@! TO.P,C67,2*
G04 #@! TO.N,/GND-2*
X269082380Y-39481420D03*
G04 #@! TD*
G04 #@! TO.P,C68,1*
G04 #@! TO.N,/5V-2*
X150019380Y-98631660D03*
G04 #@! TO.P,C68,2*
G04 #@! TO.N,/GND-2*
X150019380Y-96631660D03*
G04 #@! TD*
D42*
G04 #@! TO.P,RGB,1*
G04 #@! TO.N,/RGB*
X269400000Y-122289000D03*
G04 #@! TD*
D28*
G04 #@! TO.P,RGB,2*
G04 #@! TO.N,/RGB*
X269277695Y-145256860D03*
G04 #@! TO.P,RGB,1*
G04 #@! TO.N,Net-(SJ11-Pad1)*
X270077695Y-145256860D03*
G04 #@! TD*
D10*
G04 #@! TO.P,E7,1*
G04 #@! TO.N,/rotaryA*
X280697064Y-212540809D03*
D43*
G04 #@! TO.P,E7,3*
G04 #@! TO.N,GND*
X278532000Y-211290809D03*
D44*
G04 #@! TD*
G04 #@! TO.N,GND*
G04 #@! TO.C,E7*
X278348403Y-211184809D02*
X278715597Y-211396809D01*
D10*
G04 #@! TO.P,E7,2*
G04 #@! TO.N,/rotaryB*
X276366936Y-210040809D03*
G04 #@! TO.P,E7,4*
G04 #@! TO.N,/k18*
X268916936Y-222944588D03*
G04 #@! TO.P,E7,5*
G04 #@! TO.N,/col6*
X273247064Y-225444588D03*
G04 #@! TD*
G04 #@! TO.P,E8,1*
G04 #@! TO.N,/rotaryA*
X264197064Y-202980809D03*
D43*
G04 #@! TO.P,E8,3*
G04 #@! TO.N,GND*
X262032000Y-201730809D03*
D44*
G04 #@! TD*
G04 #@! TO.N,GND*
G04 #@! TO.C,E8*
X261848403Y-201624809D02*
X262215597Y-201836809D01*
D10*
G04 #@! TO.P,E8,2*
G04 #@! TO.N,/rotaryB*
X259866936Y-200480809D03*
G04 #@! TO.P,E8,4*
G04 #@! TO.N,/k25*
X252445525Y-213371071D03*
G04 #@! TO.P,E8,5*
G04 #@! TO.N,/col5*
X256775652Y-215871071D03*
G04 #@! TD*
D28*
G04 #@! TO.P,PM & Proton,2*
G04 #@! TO.N,+5V*
X269277695Y-117277055D03*
G04 #@! TO.P,PM & Proton,1*
G04 #@! TO.N,Net-(SJ13-Pad1)*
X270077695Y-117277055D03*
G04 #@! TD*
D26*
G04 #@! TO.P,m1,1*
G04 #@! TO.N,N/C*
X259557340Y-59531500D03*
G04 #@! TD*
G04 #@! TO.P,m2,1*
G04 #@! TO.N,N/C*
X259547960Y-61894000D03*
G04 #@! TD*
G04 #@! TO.P,m3,1*
G04 #@! TO.N,N/C*
X259557340Y-66694040D03*
G04 #@! TD*
G04 #@! TO.P,m4,1*
G04 #@! TO.N,N/C*
X259547960Y-69056540D03*
G04 #@! TD*
G04 #@! TO.P,m5,1*
G04 #@! TO.N,N/C*
X279221250Y-98820000D03*
G04 #@! TD*
G04 #@! TO.P,m6,1*
G04 #@! TO.N,N/C*
X276860000Y-98820000D03*
G04 #@! TD*
G04 #@! TO.P,m7,1*
G04 #@! TO.N,N/C*
X256530000Y1750000D03*
G04 #@! TD*
G04 #@! TO.P,m8,1*
G04 #@! TO.N,N/C*
X258580000Y2930000D03*
G04 #@! TD*
G04 #@! TO.P,m9,1*
G04 #@! TO.N,N/C*
X264930000Y-12800000D03*
G04 #@! TD*
G04 #@! TO.P,m10,1*
G04 #@! TO.N,N/C*
X266970000Y-11620000D03*
G04 #@! TD*
G04 #@! TO.P,m12,1*
G04 #@! TO.N,N/C*
X276860000Y-105970000D03*
G04 #@! TD*
G04 #@! TO.P,m14,1*
G04 #@! TO.N,N/C*
X279230000Y-41670000D03*
G04 #@! TD*
G04 #@! TO.P,m15,1*
G04 #@! TO.N,N/C*
X279230000Y-48820000D03*
G04 #@! TD*
G04 #@! TO.P,m16,1*
G04 #@! TO.N,N/C*
X276860000Y-48820000D03*
G04 #@! TD*
G04 #@! TO.P,m17,1*
G04 #@! TO.N,N/C*
X276466300Y-134475220D03*
G04 #@! TD*
G04 #@! TO.P,m18,1*
G04 #@! TO.N,N/C*
X276443440Y-173852540D03*
G04 #@! TD*
G04 #@! TO.P,m20,1*
G04 #@! TO.N,N/C*
X276463760Y-151277320D03*
G04 #@! TD*
G04 #@! TO.P,m21,1*
G04 #@! TO.N,N/C*
X278825960Y-134477760D03*
G04 #@! TD*
G04 #@! TO.P,m22,1*
G04 #@! TO.N,N/C*
X136913070Y-89297250D03*
G04 #@! TD*
G04 #@! TO.P,m23,1*
G04 #@! TO.N,N/C*
X136913070Y-96441030D03*
G04 #@! TD*
G04 #@! TO.P,m24,1*
G04 #@! TO.N,N/C*
X134550570Y-89297250D03*
G04 #@! TD*
G04 #@! TO.P,m25,1*
G04 #@! TO.N,N/C*
X134550570Y-32147010D03*
G04 #@! TD*
G04 #@! TO.P,m26,1*
G04 #@! TO.N,N/C*
X134550570Y-96441030D03*
G04 #@! TD*
G04 #@! TO.P,m27,1*
G04 #@! TO.N,N/C*
X136913070Y-39290790D03*
G04 #@! TD*
G04 #@! TO.P,m28,1*
G04 #@! TO.N,N/C*
X134550570Y-39290790D03*
G04 #@! TD*
G04 #@! TO.P,m29,1*
G04 #@! TO.N,N/C*
X136913070Y-32147010D03*
G04 #@! TD*
G04 #@! TO.P,m30,1*
G04 #@! TO.N,N/C*
X276443440Y-176215040D03*
G04 #@! TD*
G04 #@! TO.P,m31,1*
G04 #@! TO.N,N/C*
X276443440Y-166684960D03*
G04 #@! TD*
G04 #@! TO.P,m32,1*
G04 #@! TO.N,N/C*
X276443440Y-169047460D03*
G04 #@! TD*
D45*
G04 #@! TO.N,+5V*
X265510490Y-9525040D03*
X270868325Y-9525040D03*
X274800000Y-2800000D03*
X274800000Y-5400000D03*
X265600000Y-142100000D03*
X264300000Y-147200000D03*
X262500000Y-155050000D03*
X254450000Y-155450000D03*
X267950000Y-155500000D03*
X268400000Y-159600000D03*
X268022945Y-117277055D03*
X267891750Y-124900000D03*
G04 #@! TO.N,GND*
X268100000Y-146100000D03*
X264200000Y-144000000D03*
X262600000Y-190000000D03*
X264450000Y-154300000D03*
X265900000Y-161400000D03*
X142400000Y-151800000D03*
X142400000Y-132750000D03*
X142400000Y-170850000D03*
X142400000Y-189900000D03*
X254450000Y-166700000D03*
G04 #@! TO.N,/5V-2*
X267891750Y4167205D03*
X263724545Y-2381260D03*
X253008875Y-39290790D03*
X248166660Y-25578026D03*
G04 #@! TO.N,/GND-2*
X256800000Y-6300000D03*
X254500000Y-6300000D03*
G04 #@! TO.N,/row0*
X236129000Y-134295000D03*
G04 #@! TO.N,/row1*
X234100000Y-164400000D03*
X234100000Y-166500000D03*
X234200000Y-189600000D03*
G04 #@! TO.N,/row3*
X238211000Y-184451000D03*
G04 #@! TO.N,Net-(D33-Pad2)*
X248440000Y-227485000D03*
G04 #@! TO.N,/rotaryA*
X265000000Y-191300000D03*
X259800000Y-188800000D03*
X195100000Y-151200000D03*
X195600000Y-133900000D03*
G04 #@! TO.N,/rotaryB*
X259500000Y-191000000D03*
X252250000Y-130000000D03*
G04 #@! TO.N,/RGB*
X256200000Y-64300000D03*
X142875600Y-97631660D03*
X254454000Y-161900000D03*
X269500000Y-146500000D03*
X264000000Y-157300000D03*
G04 #@! TO.N,/SDA*
X261300000Y-146200000D03*
G04 #@! TO.N,/SCL*
X263300000Y-146100000D03*
G04 #@! TO.N,/SERIAL*
X273300000Y-142100000D03*
X268300000Y-157700000D03*
G04 #@! TO.N,/col6*
X258693750Y-204946875D03*
G04 #@! TO.N,/col5*
X240664000Y-153635000D03*
X249834375Y-207900000D03*
G04 #@! TO.N,Net-(LED29-Pad2)*
X236340055Y-23217285D03*
X238126000Y-23812600D03*
G04 #@! TO.N,Net-(LED62-Pad2)*
X257000000Y-11300000D03*
X255985450Y-7739095D03*
G04 #@! TO.N,/RGBrow10*
X142875600Y-78581580D03*
X245865095Y-96441030D03*
G04 #@! TO.N,/RGBrow12*
X142875600Y-59531500D03*
X245865095Y-77391030D03*
G04 #@! TO.N,/RGBrow23*
X142875600Y-40481420D03*
X245865095Y-58341030D03*
G04 #@! TO.N,/RGBrow34*
X142875600Y-21431340D03*
X245865095Y-39291030D03*
G04 #@! TD*
D46*
G04 #@! TO.N,*
X245269780Y-64889335D02*
X244674465Y-64294020D01*
X245269780Y-45839175D02*
X244674465Y-45243860D01*
X245269780Y-83939415D02*
X244674465Y-83344100D01*
D47*
G04 #@! TO.N,+5V*
X265510490Y-9525040D02*
X270868325Y-9525040D01*
D48*
X274800000Y-2800000D02*
X274800000Y-5400000D01*
X257700000Y-155050000D02*
X257700000Y-147100000D01*
X261800000Y-143000000D02*
X257700000Y-147100000D01*
X264700000Y-143000000D02*
X261800000Y-143000000D01*
X264700000Y-143000000D02*
X265600000Y-142100000D01*
X257700000Y-155050000D02*
X254850000Y-155050000D01*
D49*
X264300000Y-147200000D02*
X263000000Y-147200000D01*
D47*
X268800000Y-159600000D02*
X268900000Y-159600000D01*
X268300000Y-155500000D02*
X267950000Y-155500000D01*
X269500000Y-156700000D02*
X268300000Y-155500000D01*
X269500000Y-159000000D02*
X269500000Y-156700000D01*
X268900000Y-159600000D02*
X269500000Y-159000000D01*
X270225000Y-161375000D02*
X270225000Y-162975000D01*
X270225000Y-162975000D02*
X271100000Y-163850000D01*
X268400000Y-159600000D02*
X268800000Y-159600000D01*
X270600000Y-161400000D02*
X270600000Y-163350000D01*
X268800000Y-159600000D02*
X270600000Y-161400000D01*
X270600000Y-163350000D02*
X271100000Y-163850000D01*
D48*
X262500000Y-155050000D02*
X257700000Y-155050000D01*
X254850000Y-155050000D02*
X254450000Y-155450000D01*
D47*
X269291000Y-124891000D02*
X269300000Y-124900000D01*
D49*
X266205000Y-155050000D02*
X262500000Y-155050000D01*
X267950000Y-155500000D02*
X269150000Y-156700000D01*
X269150000Y-156700000D02*
X269150000Y-158850000D01*
X269150000Y-158850000D02*
X268400000Y-159600000D01*
X266205000Y-155050000D02*
X267500000Y-155050000D01*
X267500000Y-155050000D02*
X267950000Y-155500000D01*
X268400000Y-159600000D02*
X268450000Y-159600000D01*
X266205000Y-159950000D02*
X267500000Y-159950000D01*
X270550000Y-161700000D02*
X270550000Y-163300000D01*
X268450000Y-159600000D02*
X270225000Y-161375000D01*
X270225000Y-161375000D02*
X270550000Y-161700000D01*
X267850000Y-159600000D02*
X268450000Y-159600000D01*
X267500000Y-159950000D02*
X267850000Y-159600000D01*
X270550000Y-163300000D02*
X271100000Y-163850000D01*
D46*
X269291000Y-124891000D02*
X269300000Y-124900000D01*
D48*
X269277695Y-117277055D02*
X268022945Y-117277055D01*
X269300000Y-124900000D02*
X267891750Y-124900000D01*
G04 #@! TO.N,GND*
X254857325Y-167816325D02*
X262366325Y-167816325D01*
X262366325Y-167816325D02*
X262600000Y-168050000D01*
X262600000Y-168050000D02*
X255091000Y-168050000D01*
X255091000Y-168050000D02*
X254857325Y-167816325D01*
X254857325Y-167816325D02*
X254454000Y-167413000D01*
X262600000Y-168050000D02*
X262600000Y-165600000D01*
X254454000Y-167413000D02*
X261963000Y-167413000D01*
X261963000Y-167413000D02*
X262600000Y-168050000D01*
D46*
X247055725Y-170800000D02*
X247706445Y-170800000D01*
X247706445Y-170800000D02*
X249436985Y-169069460D01*
X249436985Y-169069460D02*
X252797540Y-169069460D01*
X252797540Y-169069460D02*
X254454000Y-167413000D01*
D48*
X258800000Y-147500000D02*
X258800000Y-151300000D01*
X258800000Y-151300000D02*
X261500000Y-154000000D01*
X261500000Y-154000000D02*
X261500000Y-154050000D01*
X264200000Y-144000000D02*
X262300000Y-144000000D01*
X262300000Y-144000000D02*
X258800000Y-147500000D01*
X261500000Y-154050000D02*
X264200000Y-154050000D01*
D49*
X258800000Y-151350000D02*
X261500000Y-154050000D01*
X258800000Y-148050000D02*
X258800000Y-151350000D01*
X259650000Y-147200000D02*
X258800000Y-148050000D01*
X260500000Y-147200000D02*
X259650000Y-147200000D01*
D48*
X264200000Y-154050000D02*
X264450000Y-154300000D01*
D49*
X260500000Y-147200000D02*
X260500000Y-145900000D01*
X261600000Y-144800000D02*
X264200000Y-144800000D01*
X260500000Y-145900000D02*
X261600000Y-144800000D01*
X264200000Y-144800000D02*
X266800000Y-144800000D01*
X266800000Y-144800000D02*
X268100000Y-146100000D01*
X264200000Y-144800000D02*
X264200000Y-144700000D01*
X264200000Y-144700000D02*
X264200000Y-144800000D01*
X264200000Y-144000000D02*
X264200000Y-144800000D01*
D46*
X262600000Y-190000000D02*
X264124240Y-188475760D01*
X264124240Y-188475760D02*
X264319860Y-188475760D01*
D49*
X254454000Y-167413000D02*
X254454000Y-165963000D01*
X264450000Y-154300000D02*
X264475000Y-154275000D01*
X264475000Y-154275000D02*
X266205000Y-154275000D01*
X266205000Y-160725000D02*
X266205000Y-160795000D01*
X266205000Y-160795000D02*
X265900000Y-161100000D01*
X265900000Y-161100000D02*
X265900000Y-161400000D01*
X265900000Y-161400000D02*
X265900000Y-164400000D01*
X265900000Y-164400000D02*
X264700000Y-165600000D01*
X264700000Y-165600000D02*
X262600000Y-165600000D01*
X262237000Y-165963000D02*
X262600000Y-165600000D01*
D48*
X271940000Y-119749000D02*
X259240000Y-119749000D01*
X259240000Y-119749000D02*
X256700000Y-122289000D01*
D46*
X142400000Y-151800000D02*
X141450000Y-151800000D01*
X137300000Y-137850000D02*
X142400000Y-132750000D01*
X137300000Y-147650000D02*
X137300000Y-137850000D01*
X141200000Y-151550000D02*
X137300000Y-147650000D01*
X141450000Y-151800000D02*
X141200000Y-151550000D01*
X142400000Y-170850000D02*
X141450000Y-170850000D01*
X137300000Y-156900000D02*
X142400000Y-151800000D01*
X137300000Y-166700000D02*
X137300000Y-156900000D01*
X141200000Y-170600000D02*
X137300000Y-166700000D01*
X141450000Y-170850000D02*
X141200000Y-170600000D01*
X142400000Y-189900000D02*
X141450000Y-189900000D01*
X137300000Y-175950000D02*
X142400000Y-170850000D01*
X137300000Y-185750000D02*
X137300000Y-175950000D01*
X141200000Y-189650000D02*
X137300000Y-185750000D01*
X141450000Y-189900000D02*
X141200000Y-189650000D01*
X142400000Y-132750000D02*
X142400000Y-132800000D01*
X142400000Y-170850000D02*
X142400000Y-170900000D01*
X147638000Y-207526000D02*
X147638000Y-207562000D01*
X147638000Y-207562000D02*
X146500000Y-208700000D01*
X146500000Y-208700000D02*
X141200000Y-208700000D01*
X141200000Y-208700000D02*
X137300000Y-204800000D01*
X137300000Y-204800000D02*
X137300000Y-195000000D01*
X137300000Y-195000000D02*
X142400000Y-189900000D01*
X147638000Y-169426000D02*
X147638000Y-169438000D01*
X147638000Y-169438000D02*
X149000000Y-170800000D01*
X149000000Y-170800000D02*
X247055725Y-170800000D01*
X247055725Y-170800000D02*
X247055725Y-170800000D01*
D49*
X254454000Y-166696000D02*
X254454000Y-165963000D01*
X254450000Y-166700000D02*
X254454000Y-166696000D01*
D47*
G04 #@! TO.N,/5V-2*
X270273010Y-11146025D02*
X269946025Y-11146025D01*
X263236025Y-10400000D02*
X262490000Y-11146025D01*
X269200000Y-10400000D02*
X263236025Y-10400000D01*
X269946025Y-11146025D02*
X269200000Y-10400000D01*
D48*
X257771395Y-55364295D02*
X257771395Y-59531500D01*
X255985450Y-61317445D02*
X251818245Y-61317445D01*
X257771395Y-59531500D02*
X255985450Y-61317445D01*
X257176080Y-41481420D02*
X257176080Y-41672050D01*
X257176080Y-41672050D02*
X257771395Y-42267365D01*
D47*
X228619460Y-27366070D02*
X228619460Y-23081660D01*
X209569460Y-27366070D02*
X209569460Y-23081660D01*
X190519460Y-27366070D02*
X190519460Y-23081660D01*
X171469460Y-27366070D02*
X171469460Y-23081660D01*
X247669460Y-46416070D02*
X247669460Y-42131660D01*
X228619460Y-46416070D02*
X228619460Y-42131660D01*
X209569460Y-46416070D02*
X209569460Y-42131660D01*
X190519460Y-46416070D02*
X190519460Y-42131660D01*
X171469460Y-46416070D02*
X171469460Y-42131660D01*
X247669460Y-65466070D02*
X247669460Y-61181660D01*
X228619460Y-65466070D02*
X228619460Y-61181660D01*
X209569460Y-65466070D02*
X209569460Y-61181660D01*
X190519460Y-65466070D02*
X190519460Y-61181660D01*
X171469460Y-65466070D02*
X171469460Y-61181660D01*
X247669460Y-84516070D02*
X247669460Y-80231660D01*
X228619460Y-84516070D02*
X228619460Y-80231660D01*
X209569460Y-84516070D02*
X209569460Y-80231660D01*
X190519460Y-84516070D02*
X190519460Y-80231660D01*
X171469460Y-84516070D02*
X171469460Y-80231660D01*
X247669460Y-103566070D02*
X247669460Y-99281660D01*
X228619460Y-103566070D02*
X228619460Y-99281660D01*
X209569460Y-103566070D02*
X209569460Y-99281660D01*
X190519460Y-103566070D02*
X190519460Y-99281660D01*
X227410090Y-28575440D02*
X228619460Y-27366070D01*
X208360090Y-28575440D02*
X209569460Y-27366070D01*
X189310090Y-28575440D02*
X190519460Y-27366070D01*
X170260090Y-28575440D02*
X171469460Y-27366070D01*
X246460090Y-47625440D02*
X247669460Y-46416070D01*
X227410090Y-47625440D02*
X228619460Y-46416070D01*
X208360090Y-47625440D02*
X209569460Y-46416070D01*
X189310090Y-47625440D02*
X190519460Y-46416070D01*
X170260090Y-47625440D02*
X171469460Y-46416070D01*
X246460090Y-66675440D02*
X247669460Y-65466070D01*
X227410090Y-66675440D02*
X228619460Y-65466070D01*
X208360090Y-66675440D02*
X209569460Y-65466070D01*
X189310090Y-66675440D02*
X190519460Y-65466070D01*
X170260090Y-66675440D02*
X171469460Y-65466070D01*
X246460090Y-85725440D02*
X247669460Y-84516070D01*
X227410090Y-85725440D02*
X228619460Y-84516070D01*
X208360090Y-85725440D02*
X209569460Y-84516070D01*
X189310090Y-85725440D02*
X190519460Y-84516070D01*
X170260090Y-85725440D02*
X171469460Y-84516070D01*
X246460090Y-104775440D02*
X247669460Y-103566070D01*
X227410090Y-104775440D02*
X228619460Y-103566070D01*
X208360090Y-104775440D02*
X209569460Y-103566070D01*
X189310090Y-104775440D02*
X190519460Y-103566070D01*
X225028830Y-28575440D02*
X227410090Y-28575440D01*
X205978830Y-28575440D02*
X208360090Y-28575440D01*
X186928830Y-28575440D02*
X189310090Y-28575440D01*
X167878830Y-28575440D02*
X170260090Y-28575440D01*
X244078830Y-47625440D02*
X246460090Y-47625440D01*
X225028830Y-47625440D02*
X227410090Y-47625440D01*
X205978830Y-47625440D02*
X208360090Y-47625440D01*
X186928830Y-47625440D02*
X189310090Y-47625440D01*
X167878830Y-47625440D02*
X170260090Y-47625440D01*
X244078830Y-66675440D02*
X246460090Y-66675440D01*
X225028830Y-66675440D02*
X227410090Y-66675440D01*
X205978830Y-66675440D02*
X208360090Y-66675440D01*
X186928830Y-66675440D02*
X189310090Y-66675440D01*
X167878830Y-66675440D02*
X170260090Y-66675440D01*
X244078830Y-85725440D02*
X246460090Y-85725440D01*
X225028830Y-85725440D02*
X227410090Y-85725440D01*
X205978830Y-85725440D02*
X208360090Y-85725440D01*
X186928830Y-85725440D02*
X189310090Y-85725440D01*
X167878830Y-85725440D02*
X170260090Y-85725440D01*
X244078830Y-104775440D02*
X246460090Y-104775440D01*
X225028830Y-104775440D02*
X227410090Y-104775440D01*
X205978830Y-104775440D02*
X208360090Y-104775440D01*
X186928830Y-104775440D02*
X189310090Y-104775440D01*
X223838200Y-27384810D02*
X225028830Y-28575440D01*
X204788200Y-27384810D02*
X205978830Y-28575440D01*
X185738200Y-27384810D02*
X186928830Y-28575440D01*
X166688200Y-27384810D02*
X167878830Y-28575440D01*
X242888200Y-46434810D02*
X244078830Y-47625440D01*
X223838200Y-46434810D02*
X225028830Y-47625440D01*
X204788200Y-46434810D02*
X205978830Y-47625440D01*
X185738200Y-46434810D02*
X186928830Y-47625440D01*
X166688200Y-46434810D02*
X167878830Y-47625440D01*
X242888200Y-65484810D02*
X244078830Y-66675440D01*
X223838200Y-65484810D02*
X225028830Y-66675440D01*
X204788200Y-65484810D02*
X205978830Y-66675440D01*
X185738200Y-65484810D02*
X186928830Y-66675440D01*
X166688200Y-65484810D02*
X167878830Y-66675440D01*
X242888200Y-84534810D02*
X244078830Y-85725440D01*
X223838200Y-84534810D02*
X225028830Y-85725440D01*
X204788200Y-84534810D02*
X205978830Y-85725440D01*
X185738200Y-84534810D02*
X186928830Y-85725440D01*
X166688200Y-84534810D02*
X167878830Y-85725440D01*
X242888200Y-103584810D02*
X244078830Y-104775440D01*
X223838200Y-103584810D02*
X225028830Y-104775440D01*
X204788200Y-103584810D02*
X205978830Y-104775440D01*
X185738200Y-103584810D02*
X186928830Y-104775440D01*
X222647570Y-24408235D02*
X223838200Y-25598865D01*
X203597570Y-24408235D02*
X204788200Y-25598865D01*
X184547570Y-24408235D02*
X185738200Y-25598865D01*
X165497570Y-24408235D02*
X166688200Y-25598865D01*
X241697570Y-43458235D02*
X242888200Y-44648865D01*
X222647570Y-43458235D02*
X223838200Y-44648865D01*
X203597570Y-43458235D02*
X204788200Y-44648865D01*
X184547570Y-43458235D02*
X185738200Y-44648865D01*
X165497570Y-43458235D02*
X166688200Y-44648865D01*
X241697570Y-62508235D02*
X242888200Y-63698865D01*
X222647570Y-62508235D02*
X223838200Y-63698865D01*
X203597570Y-62508235D02*
X204788200Y-63698865D01*
X184547570Y-62508235D02*
X185738200Y-63698865D01*
X165497570Y-62508235D02*
X166688200Y-63698865D01*
X241697570Y-81558235D02*
X242888200Y-82748865D01*
X222647570Y-81558235D02*
X223838200Y-82748865D01*
X203597570Y-81558235D02*
X204788200Y-82748865D01*
X184547570Y-81558235D02*
X185738200Y-82748865D01*
X165497570Y-81558235D02*
X166688200Y-82748865D01*
X241697570Y-100608235D02*
X242888200Y-101798865D01*
X222647570Y-100608235D02*
X223838200Y-101798865D01*
X203597570Y-100608235D02*
X204788200Y-101798865D01*
X184547570Y-100608235D02*
X185738200Y-101798865D01*
X223838200Y-25598865D02*
X223838200Y-27384810D01*
X204788200Y-25598865D02*
X204788200Y-27384810D01*
X185738200Y-25598865D02*
X185738200Y-27384810D01*
X166688200Y-25598865D02*
X166688200Y-27384810D01*
X242888200Y-44648865D02*
X242888200Y-46434810D01*
X223838200Y-44648865D02*
X223838200Y-46434810D01*
X204788200Y-44648865D02*
X204788200Y-46434810D01*
X185738200Y-44648865D02*
X185738200Y-46434810D01*
X166688200Y-44648865D02*
X166688200Y-46434810D01*
X242888200Y-63698865D02*
X242888200Y-65484810D01*
X223838200Y-63698865D02*
X223838200Y-65484810D01*
X204788200Y-63698865D02*
X204788200Y-65484810D01*
X185738200Y-63698865D02*
X185738200Y-65484810D01*
X166688200Y-63698865D02*
X166688200Y-65484810D01*
X242888200Y-82748865D02*
X242888200Y-84534810D01*
X223838200Y-82748865D02*
X223838200Y-84534810D01*
X204788200Y-82748865D02*
X204788200Y-84534810D01*
X185738200Y-82748865D02*
X185738200Y-84534810D01*
X166688200Y-82748865D02*
X166688200Y-84534810D01*
X242888200Y-101798865D02*
X242888200Y-103584810D01*
X223838200Y-101798865D02*
X223838200Y-103584810D01*
X204788200Y-101798865D02*
X204788200Y-103584810D01*
X185738200Y-101798865D02*
X185738200Y-103584810D01*
X230981980Y-41481660D02*
X239721075Y-41481660D01*
X239721075Y-41481660D02*
X241697650Y-43458235D01*
X165497570Y-100608235D02*
X166688200Y-101798865D01*
X150019380Y-98631660D02*
X163520995Y-98631660D01*
X163520995Y-98631660D02*
X165497570Y-100608235D01*
X171469460Y-103566070D02*
X171469460Y-99281660D01*
X170260090Y-104775440D02*
X171469460Y-103566070D01*
X167878830Y-104775440D02*
X170260090Y-104775440D01*
X166688200Y-103584810D02*
X167878830Y-104775440D01*
X166688200Y-101798865D02*
X166688200Y-103584810D01*
X182571075Y-98631660D02*
X184547650Y-100608235D01*
X173831980Y-98631660D02*
X182571075Y-98631660D01*
X260112935Y-1887065D02*
X263230350Y-1887065D01*
X260112935Y-1887065D02*
X259912935Y-2087065D01*
X259113975Y-2886025D02*
X259912935Y-2087065D01*
X257780000Y-2886025D02*
X259100000Y-2886025D01*
X259100000Y-2886025D02*
X259113975Y-2886025D01*
X271463640Y4167205D02*
X272167493Y4871058D01*
X267891750Y4167205D02*
X271463640Y4167205D01*
X263230350Y-1887065D02*
X263724545Y-2381260D01*
X272167493Y4871058D02*
X272523461Y4871058D01*
X270273010Y-11146025D02*
X275795805Y-11146025D01*
X277293461Y-4290534D02*
X277293461Y-3358942D01*
X277293461Y-9648369D02*
X277293461Y-4290534D01*
X275795805Y-11146025D02*
X277293461Y-9648369D01*
X260773461Y-12888942D02*
X260773461Y-16098996D01*
X270868325Y-42862680D02*
X257771395Y-55364295D01*
X270868325Y-38100160D02*
X270868325Y-42862680D01*
X263724545Y-30956380D02*
X270868325Y-38100160D01*
X263724545Y-19050080D02*
X263724545Y-30956380D01*
X260773461Y-16098996D02*
X263724545Y-19050080D01*
D48*
X253008875Y-39290790D02*
X253008875Y-41481420D01*
D47*
X239507260Y-22431340D02*
X239316630Y-22431340D01*
X239316630Y-22431340D02*
X230982220Y-22431340D01*
X257771395Y-41481420D02*
X257771395Y-41672050D01*
X257771395Y-41672050D02*
X257771395Y-42267365D01*
D48*
X251222930Y-61912760D02*
X250491670Y-61181500D01*
X250627615Y-61317445D02*
X250627615Y-61181500D01*
X250491670Y-61181500D02*
X250627615Y-61317445D01*
X251818245Y-61181500D02*
X251818245Y-61317445D01*
X251818245Y-61181500D02*
X251222930Y-61181500D01*
X251818245Y-61317445D02*
X251222930Y-61912760D01*
X251222930Y-69651855D02*
X253808875Y-69651855D01*
X253808875Y-69651855D02*
X254404190Y-69056540D01*
X251222930Y-68461225D02*
X253808875Y-68461225D01*
X253808875Y-68461225D02*
X254404190Y-69056540D01*
X254404190Y-69056540D02*
X251222930Y-69056540D01*
X251222930Y-78390950D02*
X251222930Y-97441030D01*
X251222930Y-97441030D02*
X250032300Y-98631660D01*
X251222930Y-61181500D02*
X251222930Y-61912760D01*
X251222930Y-61912760D02*
X251222930Y-67865910D01*
X251222930Y-67865910D02*
X251222930Y-68461225D01*
X251222930Y-68461225D02*
X251222930Y-69056540D01*
X251222930Y-69056540D02*
X251222930Y-69651855D01*
X251222930Y-69651855D02*
X251222930Y-70247170D01*
X251222930Y-70247170D02*
X251222930Y-78390950D01*
X251222930Y-78390950D02*
X250032300Y-79581580D01*
X258366710Y-41481420D02*
X257771395Y-42267365D01*
X257771395Y-42267365D02*
X257771395Y-55364295D01*
X251222930Y-61181500D02*
X250627615Y-61181500D01*
X250627615Y-61181500D02*
X247669780Y-61181500D01*
D47*
X269082380Y-41481420D02*
X267369860Y-41481420D01*
X267369860Y-41481420D02*
X266719860Y-42131420D01*
D48*
X250032300Y-41481420D02*
X253008875Y-41481420D01*
X253008875Y-41481420D02*
X257176080Y-41481420D01*
X257176080Y-41481420D02*
X257771395Y-41481420D01*
X257771395Y-41481420D02*
X258366710Y-41481420D01*
X258366710Y-41481420D02*
X258962025Y-41481420D01*
X258962025Y-41481420D02*
X259747970Y-41481420D01*
X265069860Y-40481420D02*
X266719860Y-42131420D01*
X260747970Y-40481420D02*
X265069860Y-40481420D01*
X259747970Y-41481420D02*
X260747970Y-40481420D01*
D47*
X274260000Y6623975D02*
X274960020Y6623975D01*
X274960020Y6623975D02*
X279798050Y1785945D01*
X279798050Y-817975D02*
X279010000Y-1606025D01*
X279798050Y1785945D02*
X279798050Y-817975D01*
X270273010Y-11146025D02*
X270437970Y-11146025D01*
D49*
X254450000Y-155450000D02*
X254450000Y-156434000D01*
X254450000Y-156434000D02*
X254454000Y-156438000D01*
X254454000Y-156438000D02*
X254454000Y-157888000D01*
D47*
X257780000Y-2886025D02*
X257780000Y-2912403D01*
X257780000Y-2912403D02*
X256033461Y-4658942D01*
X274260000Y6623975D02*
X274260000Y6607597D01*
X274260000Y6607597D02*
X272523461Y4871058D01*
X279010000Y-1606025D02*
X279010000Y-1642403D01*
X279010000Y-1642403D02*
X277293461Y-3358942D01*
X262490000Y-11146025D02*
X262490000Y-11172403D01*
X262490000Y-11172403D02*
X260773461Y-12888942D01*
X150019380Y-22431660D02*
X163520995Y-22431660D01*
X150019380Y-41481660D02*
X163520995Y-41481660D01*
X150019380Y-60531660D02*
X163520995Y-60531660D01*
X150019380Y-79581660D02*
X163520995Y-79581660D01*
X163520995Y-22431660D02*
X165497570Y-24408235D01*
X163520995Y-41481660D02*
X165497570Y-43458235D01*
X163520995Y-60531660D02*
X165497570Y-62508235D01*
X163520995Y-79581660D02*
X165497570Y-81558235D01*
X211931980Y-22431660D02*
X220671075Y-22431660D01*
X192881980Y-22431660D02*
X201621075Y-22431660D01*
X173831980Y-22431660D02*
X182571075Y-22431660D01*
X211931980Y-41481660D02*
X220671075Y-41481660D01*
X192881980Y-41481660D02*
X201621075Y-41481660D01*
X173831980Y-41481660D02*
X182571075Y-41481660D01*
X230981980Y-60531660D02*
X239721075Y-60531660D01*
X211931980Y-60531660D02*
X220671075Y-60531660D01*
X192881980Y-60531660D02*
X201621075Y-60531660D01*
X173831980Y-60531660D02*
X182571075Y-60531660D01*
X230981980Y-79581660D02*
X239721075Y-79581660D01*
X211931980Y-79581660D02*
X220671075Y-79581660D01*
X192881980Y-79581660D02*
X201621075Y-79581660D01*
X173831980Y-79581660D02*
X182571075Y-79581660D01*
X230981980Y-98631660D02*
X239721075Y-98631660D01*
X211931980Y-98631660D02*
X220671075Y-98631660D01*
X192881980Y-98631660D02*
X201621075Y-98631660D01*
X220671075Y-22431660D02*
X222647650Y-24408235D01*
X201621075Y-22431660D02*
X203597650Y-24408235D01*
X182571075Y-22431660D02*
X184547650Y-24408235D01*
X220671075Y-41481660D02*
X222647650Y-43458235D01*
X201621075Y-41481660D02*
X203597650Y-43458235D01*
X182571075Y-41481660D02*
X184547650Y-43458235D01*
X239721075Y-60531660D02*
X241697650Y-62508235D01*
X220671075Y-60531660D02*
X222647650Y-62508235D01*
X201621075Y-60531660D02*
X203597650Y-62508235D01*
X182571075Y-60531660D02*
X184547650Y-62508235D01*
X239721075Y-79581660D02*
X241697650Y-81558235D01*
X220671075Y-79581660D02*
X222647650Y-81558235D01*
X201621075Y-79581660D02*
X203597650Y-81558235D01*
X182571075Y-79581660D02*
X184547650Y-81558235D01*
X239721075Y-98631660D02*
X241697650Y-100608235D01*
X220671075Y-98631660D02*
X222647650Y-100608235D01*
X201621075Y-98631660D02*
X203597650Y-100608235D01*
X147656860Y-23081660D02*
X149369380Y-23081660D01*
X147656860Y-42131660D02*
X149369380Y-42131660D01*
X147656860Y-61181660D02*
X149369380Y-61181660D01*
X147656860Y-80231660D02*
X149369380Y-80231660D01*
X149369380Y-23081660D02*
X150019380Y-22431660D01*
X149369380Y-42131660D02*
X150019380Y-41481660D01*
X149369380Y-61181660D02*
X150019380Y-60531660D01*
X149369380Y-80231660D02*
X150019380Y-79581660D01*
X230331980Y-23081660D02*
X230981980Y-22431660D01*
X211281980Y-23081660D02*
X211931980Y-22431660D01*
X192231980Y-23081660D02*
X192881980Y-22431660D01*
X173181980Y-23081660D02*
X173831980Y-22431660D01*
X249381980Y-42131660D02*
X250031980Y-41481660D01*
X230331980Y-42131660D02*
X230981980Y-41481660D01*
X211281980Y-42131660D02*
X211931980Y-41481660D01*
X192231980Y-42131660D02*
X192881980Y-41481660D01*
X173181980Y-42131660D02*
X173831980Y-41481660D01*
X249381980Y-61181660D02*
X250031980Y-60531660D01*
X230331980Y-61181660D02*
X230981980Y-60531660D01*
X211281980Y-61181660D02*
X211931980Y-60531660D01*
X192231980Y-61181660D02*
X192881980Y-60531660D01*
X173181980Y-61181660D02*
X173831980Y-60531660D01*
X249381980Y-80231660D02*
X250031980Y-79581660D01*
X230331980Y-80231660D02*
X230981980Y-79581660D01*
X211281980Y-80231660D02*
X211931980Y-79581660D01*
X192231980Y-80231660D02*
X192881980Y-79581660D01*
X173181980Y-80231660D02*
X173831980Y-79581660D01*
X249381980Y-99281660D02*
X250031980Y-98631660D01*
X230331980Y-99281660D02*
X230981980Y-98631660D01*
X211281980Y-99281660D02*
X211931980Y-98631660D01*
X192231980Y-99281660D02*
X192881980Y-98631660D01*
X228619460Y-23081660D02*
X230331980Y-23081660D01*
X209569460Y-23081660D02*
X211281980Y-23081660D01*
X190519460Y-23081660D02*
X192231980Y-23081660D01*
X171469460Y-23081660D02*
X173181980Y-23081660D01*
X247669460Y-42131660D02*
X249381980Y-42131660D01*
X228619460Y-42131660D02*
X230331980Y-42131660D01*
X209569460Y-42131660D02*
X211281980Y-42131660D01*
X190519460Y-42131660D02*
X192231980Y-42131660D01*
X171469460Y-42131660D02*
X173181980Y-42131660D01*
X247669460Y-61181660D02*
X249381980Y-61181660D01*
X228619460Y-61181660D02*
X230331980Y-61181660D01*
X209569460Y-61181660D02*
X211281980Y-61181660D01*
X190519460Y-61181660D02*
X192231980Y-61181660D01*
X171469460Y-61181660D02*
X173181980Y-61181660D01*
X247669460Y-80231660D02*
X249381980Y-80231660D01*
X228619460Y-80231660D02*
X230331980Y-80231660D01*
X209569460Y-80231660D02*
X211281980Y-80231660D01*
X190519460Y-80231660D02*
X192231980Y-80231660D01*
X171469460Y-80231660D02*
X173181980Y-80231660D01*
X247669460Y-99281660D02*
X249381980Y-99281660D01*
X228619460Y-99281660D02*
X230331980Y-99281660D01*
X209569460Y-99281660D02*
X211281980Y-99281660D01*
X190519460Y-99281660D02*
X192231980Y-99281660D01*
X171469460Y-99281660D02*
X173181980Y-99281660D01*
X173181980Y-99281660D02*
X173831980Y-98631660D01*
X147656860Y-99281660D02*
X149369380Y-99281660D01*
X149369380Y-99281660D02*
X150019380Y-98631660D01*
X245019974Y-22431340D02*
X247866661Y-25278027D01*
X247866661Y-25278027D02*
X248166660Y-25578026D01*
X239316630Y-22431340D02*
X245019974Y-22431340D01*
D48*
G04 #@! TO.N,/GND-2*
X150019380Y-58531500D02*
X150019380Y-57904152D01*
X144138360Y-56600000D02*
X142856860Y-57881500D01*
X148715228Y-56600000D02*
X144138360Y-56600000D01*
X150019380Y-57904152D02*
X148715228Y-56600000D01*
X173831980Y-58531500D02*
X173831980Y-57931980D01*
X167950960Y-56600000D02*
X166669460Y-57881500D01*
X172500000Y-56600000D02*
X167950960Y-56600000D01*
X173831980Y-57931980D02*
X172500000Y-56600000D01*
X192882060Y-58531500D02*
X192882060Y-57866832D01*
X187016268Y-56584772D02*
X185719540Y-57881500D01*
X191600000Y-56584772D02*
X187016268Y-56584772D01*
X192882060Y-57866832D02*
X191600000Y-56584772D01*
X211932140Y-58531500D02*
X211932140Y-57916912D01*
X206051120Y-56600000D02*
X204769620Y-57881500D01*
X210615228Y-56600000D02*
X206051120Y-56600000D01*
X211932140Y-57916912D02*
X210615228Y-56600000D01*
X230982220Y-58531500D02*
X230982220Y-57782220D01*
X225101200Y-56600000D02*
X223819700Y-57881500D01*
X229800000Y-56600000D02*
X225101200Y-56600000D01*
X230982220Y-57782220D02*
X229800000Y-56600000D01*
X250032300Y-58531500D02*
X249841670Y-58531500D01*
X249841670Y-58531500D02*
X248841670Y-59531500D01*
X244519780Y-59531500D02*
X242869780Y-57881500D01*
X248841670Y-59531500D02*
X244519780Y-59531500D01*
X230982220Y-58531500D02*
X242219780Y-58531500D01*
X242219780Y-58531500D02*
X242869780Y-57881500D01*
X211932140Y-58531500D02*
X223169700Y-58531500D01*
X223169700Y-58531500D02*
X223819700Y-57881500D01*
X192882060Y-58531500D02*
X204119620Y-58531500D01*
X204119620Y-58531500D02*
X204769620Y-57881500D01*
X173831980Y-58531500D02*
X185069540Y-58531500D01*
X185069540Y-58531500D02*
X185719540Y-57881500D01*
X150019380Y-58531500D02*
X166019460Y-58531500D01*
X166019460Y-58531500D02*
X166669460Y-57881500D01*
D47*
X261919860Y-38831420D02*
X261479230Y-38831420D01*
X261479230Y-38831420D02*
X260747970Y-38100160D01*
X260747970Y-38100160D02*
X250032300Y-38100160D01*
X242869780Y-38831420D02*
X243024465Y-38831420D01*
X243024465Y-38831420D02*
X244674465Y-40481420D01*
X249032300Y-40481420D02*
X250032300Y-39481420D01*
X244674465Y-40481420D02*
X249032300Y-40481420D01*
X242869780Y-57881500D02*
X243024465Y-57881500D01*
X242869780Y-76931580D02*
X242869780Y-77372210D01*
X242869780Y-77372210D02*
X244079150Y-78581580D01*
X244079150Y-78581580D02*
X249032300Y-78581580D01*
X249032300Y-78581580D02*
X250032300Y-77581580D01*
X242869780Y-95981660D02*
X243024465Y-95981660D01*
X243024465Y-95981660D02*
X244674465Y-97631660D01*
X244674465Y-97631660D02*
X249032300Y-97631660D01*
X249032300Y-97631660D02*
X250032300Y-96631660D01*
D48*
X254404190Y-59531500D02*
X253604190Y-59531500D01*
X253604190Y-59531500D02*
X253008875Y-60126815D01*
X253008875Y-60126815D02*
X251222930Y-60126815D01*
X254404190Y-59531500D02*
X254404190Y-59140870D01*
X254404190Y-59140870D02*
X253604190Y-58340870D01*
X253604190Y-58340870D02*
X250627615Y-58340870D01*
X250627615Y-58340870D02*
X250032300Y-58531500D01*
X254404190Y-59531500D02*
X254199505Y-59531500D01*
X254199505Y-59531500D02*
X253199505Y-58531500D01*
X253199505Y-58531500D02*
X250032300Y-58531500D01*
X253604190Y-59531500D02*
X253008875Y-58936185D01*
X253008875Y-58936185D02*
X250436985Y-58936185D01*
X250436985Y-58936185D02*
X250032300Y-58531500D01*
X254404190Y-59531500D02*
X251032300Y-59531500D01*
X251032300Y-59531500D02*
X251222930Y-59722130D01*
X250032300Y-77581580D02*
X250032300Y-77390950D01*
X251222930Y-59722130D02*
X250032300Y-58531500D01*
X251222930Y-60126815D02*
X251222930Y-59722130D01*
X142856860Y-38831420D02*
X142856860Y-38676735D01*
X142856860Y-38676735D02*
X141089655Y-36909530D01*
X141089655Y-21548545D02*
X142856860Y-19781340D01*
X141089655Y-36909530D02*
X141089655Y-21548545D01*
X142856860Y-57881500D02*
X142856860Y-57726815D01*
X142856860Y-57726815D02*
X141089655Y-55959610D01*
X141089655Y-40598625D02*
X142856860Y-38831420D01*
X141089655Y-55959610D02*
X141089655Y-40598625D01*
X142856860Y-76931580D02*
X142856860Y-76776895D01*
X142856860Y-76776895D02*
X141089655Y-75009690D01*
X141089655Y-75009690D02*
X141089655Y-59648705D01*
X141089655Y-59648705D02*
X142856860Y-57881500D01*
X142856860Y-95981660D02*
X142416230Y-95981660D01*
X142416230Y-95981660D02*
X141089655Y-94655085D01*
X141089655Y-78698785D02*
X142856860Y-76931580D01*
X141089655Y-94655085D02*
X141089655Y-78698785D01*
D47*
X239306780Y-12106780D02*
X239306780Y-18293220D01*
X237168660Y-20431340D02*
X230982220Y-20431340D01*
X239306780Y-18293220D02*
X237168660Y-20431340D01*
X250226539Y-4201058D02*
X252401058Y-4201058D01*
X258848218Y-8348218D02*
X258948217Y-8348218D01*
X256800000Y-6300000D02*
X258848218Y-8348218D01*
X252401058Y-4201058D02*
X254500000Y-6300000D01*
X269082380Y-39481420D02*
X269082380Y-38695475D01*
X263246435Y-37504845D02*
X261919860Y-38831420D01*
X267891750Y-37504845D02*
X263246435Y-37504845D01*
X269082380Y-38695475D02*
X267891750Y-37504845D01*
X261269860Y-39481420D02*
X261919860Y-38831420D01*
X271486539Y-2901058D02*
X271486539Y-2358361D01*
X271486539Y-2358361D02*
X275035530Y1190630D01*
X276945395Y1190630D02*
X278010000Y126025D01*
X275035530Y1190630D02*
X276945395Y1190630D01*
X254966539Y-12431058D02*
X254966539Y-12329896D01*
X254966539Y-12329896D02*
X258948217Y-8348218D01*
X258948217Y-8348218D02*
X258962025Y-8334410D01*
X258962025Y-8334410D02*
X260410435Y-8334410D01*
X260410435Y-8334410D02*
X261490000Y-9413975D01*
X266716539Y5328942D02*
X266716539Y5968569D01*
X266716539Y5968569D02*
X270273010Y9525040D01*
X272090985Y9525040D02*
X273260000Y8356025D01*
X270273010Y9525040D02*
X272090985Y9525040D01*
X250226539Y-4201058D02*
X250226539Y-3972966D01*
X250226539Y-3972966D02*
X254199505Y0D01*
X255626025Y0D02*
X256780000Y-1153975D01*
X254199505Y0D02*
X255626025Y0D01*
X250032300Y-39481420D02*
X250032300Y-38100160D01*
X250226539Y-4201058D02*
X247212502Y-4201058D01*
X247212502Y-4201058D02*
X239306780Y-12106780D01*
X239306780Y-12106780D02*
X239300000Y-12113560D01*
X266716539Y5328942D02*
X263262917Y5328942D01*
X263262917Y5328942D02*
X256780000Y-1153975D01*
X271486539Y-2901058D02*
X268002917Y-2901058D01*
X268002917Y-2901058D02*
X261490000Y-9413975D01*
X144183435Y-18455085D02*
X142856860Y-19781660D01*
X144183435Y-37505085D02*
X142856860Y-38831660D01*
X144183435Y-75605085D02*
X142856860Y-76931660D01*
X148828750Y-18455085D02*
X144183435Y-18455085D01*
X148828750Y-37505085D02*
X144183435Y-37505085D01*
X148828750Y-75605085D02*
X144183435Y-75605085D01*
X150019380Y-20431660D02*
X150019380Y-19645715D01*
X150019380Y-39481660D02*
X150019380Y-38695715D01*
X150019380Y-77581660D02*
X150019380Y-76795715D01*
X150019380Y-19645715D02*
X148828750Y-18455085D01*
X150019380Y-38695715D02*
X148828750Y-37505085D01*
X150019380Y-76795715D02*
X148828750Y-75605085D01*
X150019380Y-20431660D02*
X166019460Y-20431660D01*
X150019380Y-39481660D02*
X166019460Y-39481660D01*
X150019380Y-77581660D02*
X166019460Y-77581660D01*
X166019460Y-20431660D02*
X166669460Y-19781660D01*
X166019460Y-39481660D02*
X166669460Y-38831660D01*
X166019460Y-58531660D02*
X166669460Y-57881660D01*
X166019460Y-77581660D02*
X166669460Y-76931660D01*
X150019380Y-96631660D02*
X166019460Y-96631660D01*
X166019460Y-96631660D02*
X166669460Y-95981660D01*
X150019380Y-96631660D02*
X150019380Y-95845715D01*
X144183435Y-94655085D02*
X142856860Y-95981660D01*
X148828750Y-94655085D02*
X144183435Y-94655085D01*
X150019380Y-95845715D02*
X148828750Y-94655085D01*
X223169540Y-20431660D02*
X223819540Y-19781660D01*
X204119540Y-20431660D02*
X204769540Y-19781660D01*
X185069540Y-20431660D02*
X185719540Y-19781660D01*
X242219540Y-39481660D02*
X242869540Y-38831660D01*
X223169540Y-39481660D02*
X223819540Y-38831660D01*
X204119540Y-39481660D02*
X204769540Y-38831660D01*
X185069540Y-39481660D02*
X185719540Y-38831660D01*
X242219540Y-58531660D02*
X242869540Y-57881660D01*
X223169540Y-58531660D02*
X223819540Y-57881660D01*
X204119540Y-58531660D02*
X204769540Y-57881660D01*
X185069540Y-58531660D02*
X185719540Y-57881660D01*
X242219540Y-77581660D02*
X242869540Y-76931660D01*
X223169540Y-77581660D02*
X223819540Y-76931660D01*
X204119540Y-77581660D02*
X204769540Y-76931660D01*
X185069540Y-77581660D02*
X185719540Y-76931660D01*
X242219540Y-96631660D02*
X242869540Y-95981660D01*
X223169540Y-96631660D02*
X223819540Y-95981660D01*
X204119540Y-96631660D02*
X204769540Y-95981660D01*
X211931980Y-20431660D02*
X223169540Y-20431660D01*
X192881980Y-20431660D02*
X204119540Y-20431660D01*
X173831980Y-20431660D02*
X185069540Y-20431660D01*
X230981980Y-39481660D02*
X242219540Y-39481660D01*
X211931980Y-39481660D02*
X223169540Y-39481660D01*
X192881980Y-39481660D02*
X204119540Y-39481660D01*
X173831980Y-39481660D02*
X185069540Y-39481660D01*
X230981980Y-77581660D02*
X242219540Y-77581660D01*
X211931980Y-77581660D02*
X223169540Y-77581660D01*
X192881980Y-77581660D02*
X204119540Y-77581660D01*
X173831980Y-77581660D02*
X185069540Y-77581660D01*
X230981980Y-96631660D02*
X242219540Y-96631660D01*
X211931980Y-96631660D02*
X223169540Y-96631660D01*
X192881980Y-96631660D02*
X204119540Y-96631660D01*
X230981980Y-20431660D02*
X230981980Y-19645715D01*
X211931980Y-20431660D02*
X211931980Y-19645715D01*
X192881980Y-20431660D02*
X192881980Y-19645715D01*
X173831980Y-20431660D02*
X173831980Y-19645715D01*
X230981980Y-39481660D02*
X230981980Y-38695715D01*
X211931980Y-39481660D02*
X211931980Y-38695715D01*
X192881980Y-39481660D02*
X192881980Y-38695715D01*
X173831980Y-39481660D02*
X173831980Y-38695715D01*
X230981980Y-77581660D02*
X230981980Y-76795715D01*
X211931980Y-77581660D02*
X211931980Y-76795715D01*
X192881980Y-77581660D02*
X192881980Y-76795715D01*
X173831980Y-77581660D02*
X173831980Y-76795715D01*
X230981980Y-96631660D02*
X230981980Y-95845715D01*
X211931980Y-96631660D02*
X211931980Y-95845715D01*
X192881980Y-96631660D02*
X192881980Y-95845715D01*
X230981980Y-19645715D02*
X229791350Y-18455085D01*
X211931980Y-19645715D02*
X210741350Y-18455085D01*
X192881980Y-19645715D02*
X191691350Y-18455085D01*
X173831980Y-19645715D02*
X172641350Y-18455085D01*
X230981980Y-38695715D02*
X229791350Y-37505085D01*
X211931980Y-38695715D02*
X210741350Y-37505085D01*
X192881980Y-38695715D02*
X191691350Y-37505085D01*
X173831980Y-38695715D02*
X172641350Y-37505085D01*
X230981980Y-76795715D02*
X229791350Y-75605085D01*
X211931980Y-76795715D02*
X210741350Y-75605085D01*
X192881980Y-76795715D02*
X191691350Y-75605085D01*
X173831980Y-76795715D02*
X172641350Y-75605085D01*
X230981980Y-95845715D02*
X229791350Y-94655085D01*
X211931980Y-95845715D02*
X210741350Y-94655085D01*
X192881980Y-95845715D02*
X191691350Y-94655085D01*
X229791350Y-18455085D02*
X225146035Y-18455085D01*
X210741350Y-18455085D02*
X206096035Y-18455085D01*
X191691350Y-18455085D02*
X187046035Y-18455085D01*
X172641350Y-18455085D02*
X167996035Y-18455085D01*
X229791350Y-37505085D02*
X225146035Y-37505085D01*
X210741350Y-37505085D02*
X206096035Y-37505085D01*
X191691350Y-37505085D02*
X187046035Y-37505085D01*
X172641350Y-37505085D02*
X167996035Y-37505085D01*
X229791350Y-75605085D02*
X225146035Y-75605085D01*
X210741350Y-75605085D02*
X206096035Y-75605085D01*
X191691350Y-75605085D02*
X187046035Y-75605085D01*
X172641350Y-75605085D02*
X167996035Y-75605085D01*
X229791350Y-94655085D02*
X225146035Y-94655085D01*
X210741350Y-94655085D02*
X206096035Y-94655085D01*
X191691350Y-94655085D02*
X187046035Y-94655085D01*
X225146035Y-18455085D02*
X223819460Y-19781660D01*
X206096035Y-18455085D02*
X204769460Y-19781660D01*
X187046035Y-18455085D02*
X185719460Y-19781660D01*
X167996035Y-18455085D02*
X166669460Y-19781660D01*
X225146035Y-37505085D02*
X223819460Y-38831660D01*
X206096035Y-37505085D02*
X204769460Y-38831660D01*
X187046035Y-37505085D02*
X185719460Y-38831660D01*
X167996035Y-37505085D02*
X166669460Y-38831660D01*
X225146035Y-75605085D02*
X223819460Y-76931660D01*
X206096035Y-75605085D02*
X204769460Y-76931660D01*
X187046035Y-75605085D02*
X185719460Y-76931660D01*
X167996035Y-75605085D02*
X166669460Y-76931660D01*
X225146035Y-94655085D02*
X223819460Y-95981660D01*
X206096035Y-94655085D02*
X204769460Y-95981660D01*
X187046035Y-94655085D02*
X185719460Y-95981660D01*
X173831980Y-96631660D02*
X173831980Y-95845715D01*
X167996035Y-94655085D02*
X166669460Y-95981660D01*
X172641350Y-94655085D02*
X167996035Y-94655085D01*
X173831980Y-95845715D02*
X172641350Y-94655085D01*
X173831980Y-96631660D02*
X185069540Y-96631660D01*
X185069540Y-96631660D02*
X185719540Y-95981660D01*
X250032300Y-17365297D02*
X254966539Y-12431058D01*
X250032300Y-22742330D02*
X250032300Y-17365297D01*
X249104025Y-23670605D02*
X250032300Y-22742330D01*
X249104025Y-25611617D02*
X249104025Y-23670605D01*
X250032300Y-26539892D02*
X249104025Y-25611617D01*
X250032300Y-38100160D02*
X250032300Y-26539892D01*
D46*
G04 #@! TO.N,/row0*
X255000000Y-134295000D02*
X256006000Y-134295000D01*
X236129000Y-134295000D02*
X255000000Y-134295000D01*
X256006000Y-134295000D02*
X256700000Y-134989000D01*
X158354000Y-128707000D02*
X158354000Y-127607000D01*
X160735000Y-128707000D02*
X160735000Y-127607000D01*
X178594000Y-128707000D02*
X178594000Y-127607000D01*
X178594000Y-130107000D02*
X178594000Y-128707000D01*
X197645000Y-128707000D02*
X197645000Y-127607000D01*
X197645000Y-130107000D02*
X197645000Y-128707000D01*
X216695000Y-128707000D02*
X216695000Y-127607000D01*
X216695000Y-130107000D02*
X216695000Y-128707000D01*
X235745000Y-128707000D02*
X235745000Y-127607000D01*
X235745000Y-128707000D02*
X235745000Y-130107000D01*
X198990000Y-131452000D02*
X197645000Y-130107000D01*
X215350000Y-131452000D02*
X198990000Y-131452000D01*
X216695000Y-130107000D02*
X215350000Y-131452000D01*
X218085000Y-131497000D02*
X216695000Y-130107000D01*
X234355000Y-131497000D02*
X218085000Y-131497000D01*
X235745000Y-130107000D02*
X234355000Y-131497000D01*
X179941000Y-131454000D02*
X179827100Y-131340100D01*
X196298000Y-131454000D02*
X179941000Y-131454000D01*
X197645000Y-130107000D02*
X196298000Y-131454000D01*
X162158600Y-131530600D02*
X160735000Y-130107000D01*
X179636600Y-131530600D02*
X162158600Y-131530600D01*
X179827100Y-131340100D02*
X179636600Y-131530600D01*
X179827100Y-131340100D02*
X178594000Y-130107000D01*
X160735000Y-129407000D02*
X158354000Y-129407000D01*
X158354000Y-130107000D02*
X158354000Y-129407000D01*
X158354000Y-129407000D02*
X158354000Y-128707000D01*
X160735000Y-130107000D02*
X160735000Y-129407000D01*
X160735000Y-129407000D02*
X160735000Y-128707000D01*
G04 #@! TO.N,Net-(D2-Pad2)*
X161757000Y-121285000D02*
X160735000Y-122307000D01*
X165259000Y-121285000D02*
X161757000Y-121285000D01*
X160735000Y-123707000D02*
X160735000Y-124807000D01*
X160735000Y-122307000D02*
X160735000Y-123707000D01*
X165259000Y-121285000D02*
X165233000Y-121259000D01*
X172879000Y-121285000D02*
X165259000Y-121285000D01*
G04 #@! TO.N,Net-(D3-Pad2)*
X178594000Y-123707000D02*
X178594000Y-124807000D01*
X178594000Y-122307000D02*
X178594000Y-123707000D01*
X179642000Y-121259000D02*
X178594000Y-122307000D01*
X184283000Y-121259000D02*
X179642000Y-121259000D01*
X184309000Y-121285000D02*
X184283000Y-121259000D01*
X191929000Y-121285000D02*
X184309000Y-121285000D01*
G04 #@! TO.N,Net-(D4-Pad2)*
X197645000Y-123707000D02*
X197645000Y-124807000D01*
X197645000Y-122307000D02*
X197645000Y-123707000D01*
X198693000Y-121259000D02*
X197645000Y-122307000D01*
X203333000Y-121259000D02*
X198693000Y-121259000D01*
X203359000Y-121285000D02*
X203333000Y-121259000D01*
X210979000Y-121285000D02*
X203359000Y-121285000D01*
G04 #@! TO.N,Net-(D5-Pad2)*
X216695000Y-123707000D02*
X216695000Y-124807000D01*
X216695000Y-122307000D02*
X216695000Y-123707000D01*
X217743000Y-121259000D02*
X216695000Y-122307000D01*
X222383000Y-121259000D02*
X217743000Y-121259000D01*
X222409000Y-121285000D02*
X222383000Y-121259000D01*
X230029000Y-121285000D02*
X222409000Y-121285000D01*
G04 #@! TO.N,Net-(D6-Pad2)*
X235745000Y-123707000D02*
X235745000Y-124807000D01*
X235745000Y-122307000D02*
X235745000Y-123707000D01*
X236793000Y-121259000D02*
X235745000Y-122307000D01*
X241433000Y-121259000D02*
X236793000Y-121259000D01*
X241459000Y-121285000D02*
X241433000Y-121259000D01*
X249079000Y-121285000D02*
X241459000Y-121285000D01*
G04 #@! TO.N,/row1*
X234200000Y-189600000D02*
X251856525Y-189600000D01*
X251856525Y-189600000D02*
X254794820Y-186661705D01*
X254234000Y-142800000D02*
X254234000Y-142535000D01*
X235745000Y-149157000D02*
X237089000Y-150501000D01*
X250492000Y-150501000D02*
X237089000Y-150501000D01*
X254234000Y-146759000D02*
X250492000Y-150501000D01*
X254234000Y-142800000D02*
X254234000Y-146759000D01*
X254234000Y-142535000D02*
X256700000Y-140069000D01*
X234100000Y-166500000D02*
X234100000Y-164400000D01*
X234238280Y-189638280D02*
X234200000Y-189600000D01*
X158354000Y-147757000D02*
X158354000Y-146657000D01*
X160735000Y-147757000D02*
X160735000Y-146657000D01*
X178594000Y-147757000D02*
X178594000Y-146657000D01*
X197645000Y-147757000D02*
X197645000Y-146657000D01*
X216695000Y-147757000D02*
X216695000Y-146657000D01*
X216695000Y-149157000D02*
X216695000Y-147757000D01*
X235745000Y-147757000D02*
X235745000Y-146657000D01*
X235745000Y-147757000D02*
X235745000Y-149157000D01*
X218114000Y-150576000D02*
X216695000Y-149157000D01*
X234326000Y-150576000D02*
X218114000Y-150576000D01*
X235745000Y-149157000D02*
X234326000Y-150576000D01*
X197645000Y-147757000D02*
X197645000Y-149157000D01*
X215351000Y-150501000D02*
X216695000Y-149157000D01*
X198989000Y-150501000D02*
X215351000Y-150501000D01*
X197645000Y-149157000D02*
X198989000Y-150501000D01*
X178594000Y-149157000D02*
X178594000Y-147757000D01*
X196297000Y-150505000D02*
X197645000Y-149157000D01*
X179942000Y-150505000D02*
X196297000Y-150505000D01*
X178594000Y-149157000D02*
X179942000Y-150505000D01*
X158354000Y-148457000D02*
X160735000Y-148457000D01*
X158354000Y-149157000D02*
X158354000Y-148457000D01*
X158354000Y-148457000D02*
X158354000Y-147757000D01*
X160735000Y-148457000D02*
X160735000Y-147757000D01*
X160735000Y-149157000D02*
X160735000Y-148807000D01*
X160735000Y-148807000D02*
X160735000Y-148457000D01*
X177244400Y-150506600D02*
X178594000Y-149157000D01*
X162434600Y-150506600D02*
X177244400Y-150506600D01*
X160735000Y-148807000D02*
X162434600Y-150506600D01*
G04 #@! TO.N,Net-(D8-Pad2)*
X161757000Y-140335000D02*
X160735000Y-141357000D01*
X165259000Y-140335000D02*
X161757000Y-140335000D01*
X160735000Y-142757000D02*
X160735000Y-143857000D01*
X160735000Y-141357000D02*
X160735000Y-142757000D01*
X165259000Y-140335000D02*
X164782000Y-139858000D01*
X172879000Y-140335000D02*
X165259000Y-140335000D01*
G04 #@! TO.N,Net-(D9-Pad2)*
X178594000Y-142757000D02*
X178594000Y-143857000D01*
X178594000Y-141357000D02*
X178594000Y-142757000D01*
X180093000Y-139858000D02*
X178594000Y-141357000D01*
X183832000Y-139858000D02*
X180093000Y-139858000D01*
X184309000Y-140335000D02*
X183832000Y-139858000D01*
X191929000Y-140335000D02*
X184309000Y-140335000D01*
G04 #@! TO.N,Net-(D10-Pad2)*
X197645000Y-142757000D02*
X197645000Y-143857000D01*
X197645000Y-141357000D02*
X197645000Y-142757000D01*
X199144000Y-139858000D02*
X197645000Y-141357000D01*
X202882000Y-139858000D02*
X199144000Y-139858000D01*
X203359000Y-140335000D02*
X202882000Y-139858000D01*
X210979000Y-140335000D02*
X203359000Y-140335000D01*
G04 #@! TO.N,Net-(D11-Pad2)*
X216695000Y-142757000D02*
X216695000Y-143857000D01*
X216695000Y-141357000D02*
X216695000Y-142757000D01*
X218194000Y-139858000D02*
X216695000Y-141357000D01*
X221932000Y-139858000D02*
X218194000Y-139858000D01*
X222409000Y-140335000D02*
X221932000Y-139858000D01*
X230029000Y-140335000D02*
X222409000Y-140335000D01*
G04 #@! TO.N,Net-(D12-Pad2)*
X235745000Y-142757000D02*
X235745000Y-143857000D01*
X235745000Y-141357000D02*
X235745000Y-142757000D01*
X237244000Y-139858000D02*
X235745000Y-141357000D01*
X240982000Y-139858000D02*
X237244000Y-139858000D01*
X241459000Y-140335000D02*
X240982000Y-139858000D01*
X249079000Y-140335000D02*
X241459000Y-140335000D01*
G04 #@! TO.N,/row2*
X158354000Y-166807000D02*
X158354000Y-165707000D01*
X160735000Y-166807000D02*
X160735000Y-165707000D01*
X178594000Y-166807000D02*
X178594000Y-165707000D01*
X197645000Y-166807000D02*
X197645000Y-165707000D01*
X216695000Y-166807000D02*
X216695000Y-165707000D01*
X216695000Y-168207000D02*
X216695000Y-166807000D01*
X235745000Y-166807000D02*
X235745000Y-165707000D01*
X245270000Y-204907000D02*
X245270000Y-203807000D01*
X245270000Y-206307000D02*
X245270000Y-204907000D01*
X235745000Y-166807000D02*
X235745000Y-168207000D01*
X218114000Y-169626000D02*
X216695000Y-168207000D01*
X234326000Y-169626000D02*
X218114000Y-169626000D01*
X235745000Y-168207000D02*
X234326000Y-169626000D01*
X197645000Y-166807000D02*
X197645000Y-168207000D01*
X215351000Y-169551000D02*
X216695000Y-168207000D01*
X198989000Y-169551000D02*
X215351000Y-169551000D01*
X197645000Y-168207000D02*
X198989000Y-169551000D01*
X178594000Y-168207000D02*
X178594000Y-166807000D01*
X196297000Y-169555000D02*
X197645000Y-168207000D01*
X179942000Y-169555000D02*
X196297000Y-169555000D01*
X178594000Y-168207000D02*
X179942000Y-169555000D01*
X158354000Y-167507000D02*
X160735000Y-167507000D01*
X158354000Y-168207000D02*
X158354000Y-167507000D01*
X158354000Y-167507000D02*
X158354000Y-166807000D01*
X160735000Y-167507000D02*
X160735000Y-166807000D01*
X160735000Y-168207000D02*
X160735000Y-167857000D01*
X160735000Y-167857000D02*
X160735000Y-167507000D01*
X177244400Y-169556600D02*
X178594000Y-168207000D01*
X162434600Y-169556600D02*
X177244400Y-169556600D01*
X160735000Y-167857000D02*
X162434600Y-169556600D01*
G04 #@! TO.N,Net-(D14-Pad2)*
X161756000Y-159386000D02*
X160735000Y-160407000D01*
X165259000Y-159386000D02*
X161756000Y-159386000D01*
X160735000Y-161807000D02*
X160735000Y-162907000D01*
X160735000Y-160407000D02*
X160735000Y-161807000D01*
X165259000Y-159386000D02*
X164782000Y-158909000D01*
X172879000Y-159386000D02*
X165259000Y-159386000D01*
G04 #@! TO.N,Net-(D15-Pad2)*
X178594000Y-161807000D02*
X178594000Y-162907000D01*
X178594000Y-160407000D02*
X178594000Y-161807000D01*
X180092000Y-158909000D02*
X178594000Y-160407000D01*
X183833000Y-158909000D02*
X180092000Y-158909000D01*
X184310000Y-159386000D02*
X183833000Y-158909000D01*
X191930000Y-159386000D02*
X184310000Y-159386000D01*
G04 #@! TO.N,Net-(D16-Pad2)*
X197645000Y-161807000D02*
X197645000Y-162907000D01*
X197645000Y-160407000D02*
X197645000Y-161807000D01*
X199143000Y-158909000D02*
X197645000Y-160407000D01*
X202883000Y-158909000D02*
X199143000Y-158909000D01*
X203360000Y-159386000D02*
X202883000Y-158909000D01*
X210980000Y-159386000D02*
X203360000Y-159386000D01*
G04 #@! TO.N,Net-(D17-Pad2)*
X216695000Y-161807000D02*
X216695000Y-162907000D01*
X216695000Y-160407000D02*
X216695000Y-161807000D01*
X218193000Y-158909000D02*
X216695000Y-160407000D01*
X221933000Y-158909000D02*
X218193000Y-158909000D01*
X222410000Y-159386000D02*
X221933000Y-158909000D01*
X230030000Y-159386000D02*
X222410000Y-159386000D01*
G04 #@! TO.N,Net-(D18-Pad2)*
X235745000Y-161807000D02*
X235745000Y-162907000D01*
X235745000Y-160407000D02*
X235745000Y-161807000D01*
X237243000Y-158909000D02*
X235745000Y-160407000D01*
X240983000Y-158909000D02*
X237243000Y-158909000D01*
X241460000Y-159386000D02*
X240983000Y-158909000D01*
X249080000Y-159386000D02*
X241460000Y-159386000D01*
G04 #@! TO.N,/row3*
X158354000Y-185857000D02*
X158354000Y-184757000D01*
X160735000Y-185857000D02*
X160735000Y-184757000D01*
X178594000Y-185857000D02*
X178594000Y-184757000D01*
X197645000Y-185857000D02*
X197645000Y-184757000D01*
X216695000Y-185857000D02*
X216695000Y-184757000D01*
X216695000Y-187257000D02*
X216695000Y-185857000D01*
X241698000Y-204907000D02*
X241698000Y-203807000D01*
X241698000Y-206307000D02*
X241698000Y-204907000D01*
X235745000Y-185857000D02*
X235745000Y-187257000D01*
X218114000Y-188676000D02*
X216695000Y-187257000D01*
X234326000Y-188676000D02*
X218114000Y-188676000D01*
X235745000Y-187257000D02*
X234326000Y-188676000D01*
X197645000Y-185857000D02*
X197645000Y-187257000D01*
X215351000Y-188601000D02*
X216695000Y-187257000D01*
X198989000Y-188601000D02*
X215351000Y-188601000D01*
X197645000Y-187257000D02*
X198989000Y-188601000D01*
X178594000Y-187257000D02*
X178594000Y-185857000D01*
X235745000Y-185857000D02*
X235745000Y-184757000D01*
X237905000Y-184757000D02*
X238211000Y-184451000D01*
X235745000Y-184757000D02*
X237905000Y-184757000D01*
X196297000Y-188605000D02*
X197645000Y-187257000D01*
X179942000Y-188605000D02*
X196297000Y-188605000D01*
X178594000Y-187257000D02*
X179942000Y-188605000D01*
X158354000Y-186557000D02*
X160735000Y-186557000D01*
X158354000Y-187257000D02*
X158354000Y-186557000D01*
X158354000Y-186557000D02*
X158354000Y-185857000D01*
X160735000Y-186557000D02*
X160735000Y-185857000D01*
X160735000Y-187257000D02*
X160735000Y-186907000D01*
X160735000Y-186907000D02*
X160735000Y-186557000D01*
X177244400Y-188606600D02*
X178594000Y-187257000D01*
X162434600Y-188606600D02*
X177244400Y-188606600D01*
X160735000Y-186907000D02*
X162434600Y-188606600D01*
G04 #@! TO.N,Net-(D21-Pad2)*
X161756000Y-178436000D02*
X160735000Y-179457000D01*
X165259000Y-178436000D02*
X161756000Y-178436000D01*
X160735000Y-180857000D02*
X160735000Y-181957000D01*
X160735000Y-179457000D02*
X160735000Y-180857000D01*
X165259000Y-178436000D02*
X164782000Y-177959000D01*
X172879000Y-178436000D02*
X165259000Y-178436000D01*
G04 #@! TO.N,Net-(D22-Pad2)*
X178594000Y-180857000D02*
X178594000Y-181957000D01*
X178594000Y-179457000D02*
X178594000Y-180857000D01*
X180092000Y-177959000D02*
X178594000Y-179457000D01*
X183833000Y-177959000D02*
X180092000Y-177959000D01*
X184310000Y-178436000D02*
X183833000Y-177959000D01*
X191930000Y-178436000D02*
X184310000Y-178436000D01*
G04 #@! TO.N,Net-(D23-Pad2)*
X197645000Y-180857000D02*
X197645000Y-181957000D01*
X197645000Y-179457000D02*
X197645000Y-180857000D01*
X199143000Y-177959000D02*
X197645000Y-179457000D01*
X202883000Y-177959000D02*
X199143000Y-177959000D01*
X203360000Y-178436000D02*
X202883000Y-177959000D01*
X210980000Y-178436000D02*
X203360000Y-178436000D01*
G04 #@! TO.N,Net-(D24-Pad2)*
X216695000Y-180857000D02*
X216695000Y-181957000D01*
X216695000Y-179457000D02*
X216695000Y-180857000D01*
X218193000Y-177959000D02*
X216695000Y-179457000D01*
X221933000Y-177959000D02*
X218193000Y-177959000D01*
X222410000Y-178436000D02*
X221933000Y-177959000D01*
X230030000Y-178436000D02*
X222410000Y-178436000D01*
G04 #@! TO.N,/k25*
X252445525Y-213371071D02*
X252445525Y-212734213D01*
X252445525Y-212734213D02*
X253224295Y-211955443D01*
X247928500Y-218755000D02*
X247728000Y-218955000D01*
X247928200Y-218755000D02*
X247728100Y-218955100D01*
X247928500Y-218755000D02*
X247928200Y-218755000D01*
X249414000Y-218555000D02*
X249413900Y-218555000D01*
X248129000Y-218555000D02*
X247928500Y-218755000D01*
X249413900Y-218555000D02*
X248129000Y-218555000D01*
X249413900Y-218555000D02*
X249414300Y-218554600D01*
X241698000Y-199907000D02*
X241698000Y-201007000D01*
X241698000Y-198507000D02*
X241698000Y-199907000D01*
X255852000Y-202435000D02*
X255852000Y-202354000D01*
X242823000Y-202132000D02*
X241698000Y-201007000D01*
X248912000Y-202132000D02*
X242823000Y-202132000D01*
X251313000Y-199732000D02*
X248912000Y-202132000D01*
X253311000Y-199732000D02*
X251313000Y-199732000D01*
X255852000Y-202273000D02*
X253311000Y-199732000D01*
X255852000Y-202354000D02*
X255852000Y-202273000D01*
X255851900Y-202354100D02*
X255851900Y-202435100D01*
X255852000Y-202354000D02*
X255851900Y-202354100D01*
X256252000Y-204121000D02*
X256252400Y-204121400D01*
X256252400Y-204121400D02*
X256252400Y-204121300D01*
X264512100Y-207435100D02*
X264512000Y-207435000D01*
X262852000Y-207931000D02*
X263100000Y-207683000D01*
X259144000Y-204223000D02*
X262852000Y-207931000D01*
X256354000Y-204223000D02*
X259144000Y-204223000D01*
X256252400Y-204121400D02*
X256354000Y-204223000D01*
X263348000Y-207435000D02*
X264512000Y-207435000D01*
X263100000Y-207683000D02*
X263348000Y-207435000D01*
X263099900Y-207683000D02*
X262851600Y-207931300D01*
X263100000Y-207683000D02*
X263099900Y-207683000D01*
G04 #@! TO.N,/row4*
X158354000Y-204907000D02*
X158354000Y-203807000D01*
X160735000Y-204907000D02*
X160735000Y-203807000D01*
X178594000Y-204907000D02*
X178594000Y-203807000D01*
X178594000Y-206307000D02*
X178594000Y-204907000D01*
X197645000Y-204907000D02*
X197645000Y-203807000D01*
X197645000Y-206307000D02*
X197645000Y-204907000D01*
X216695000Y-204907000D02*
X216695000Y-203807000D01*
X216695000Y-206307000D02*
X216695000Y-204907000D01*
X234554000Y-204907000D02*
X234554000Y-203807000D01*
X238126000Y-204907000D02*
X238126000Y-203807000D01*
X238126000Y-205607000D02*
X234554000Y-205607000D01*
X234554000Y-205607000D02*
X234554000Y-204907000D01*
X234554000Y-205607000D02*
X234554000Y-206307000D01*
X218060000Y-207672000D02*
X216695000Y-206307000D01*
X233190000Y-207672000D02*
X218060000Y-207672000D01*
X234554000Y-206307000D02*
X233190000Y-207672000D01*
X199054000Y-207716000D02*
X197645000Y-206307000D01*
X215286000Y-207716000D02*
X199054000Y-207716000D01*
X216695000Y-206307000D02*
X215286000Y-207716000D01*
X238126000Y-206307000D02*
X238126000Y-205607000D01*
X238126000Y-205607000D02*
X238126000Y-204907000D01*
X180010000Y-207723000D02*
X179861600Y-207574600D01*
X196229000Y-207723000D02*
X180010000Y-207723000D01*
X197645000Y-206307000D02*
X196229000Y-207723000D01*
X162154000Y-207726000D02*
X160735000Y-206307000D01*
X179710200Y-207726000D02*
X162154000Y-207726000D01*
X179861600Y-207574600D02*
X179710200Y-207726000D01*
X179861600Y-207574600D02*
X178594000Y-206307000D01*
X160735000Y-205607000D02*
X158354000Y-205607000D01*
X160735000Y-206307000D02*
X160735000Y-205607000D01*
X160735000Y-205607000D02*
X160735000Y-204907000D01*
X158354000Y-206307000D02*
X158354000Y-205607000D01*
X158354000Y-205607000D02*
X158354000Y-204907000D01*
G04 #@! TO.N,Net-(D28-Pad2)*
X161756000Y-197486000D02*
X160735000Y-198507000D01*
X165259000Y-197486000D02*
X161756000Y-197486000D01*
X160735000Y-199907000D02*
X160735000Y-201007000D01*
X160735000Y-198507000D02*
X160735000Y-199907000D01*
X165259000Y-197486000D02*
X164782000Y-197009000D01*
X172879000Y-197486000D02*
X165259000Y-197486000D01*
G04 #@! TO.N,Net-(D29-Pad2)*
X178594000Y-199907000D02*
X178594000Y-201007000D01*
X178594000Y-198507000D02*
X178594000Y-199907000D01*
X180092000Y-197009000D02*
X178594000Y-198507000D01*
X183833000Y-197009000D02*
X180092000Y-197009000D01*
X184310000Y-197486000D02*
X183833000Y-197009000D01*
X191930000Y-197486000D02*
X184310000Y-197486000D01*
G04 #@! TO.N,Net-(D30-Pad2)*
X197645000Y-199907000D02*
X197645000Y-201007000D01*
X197645000Y-198507000D02*
X197645000Y-199907000D01*
X199143000Y-197009000D02*
X197645000Y-198507000D01*
X202883000Y-197009000D02*
X199143000Y-197009000D01*
X203360000Y-197486000D02*
X202883000Y-197009000D01*
X210980000Y-197486000D02*
X203360000Y-197486000D01*
G04 #@! TO.N,Net-(D31-Pad2)*
X216695000Y-199907000D02*
X216695000Y-201007000D01*
X216695000Y-198507000D02*
X216695000Y-199907000D01*
X218193000Y-197009000D02*
X216695000Y-198507000D01*
X221933000Y-197009000D02*
X218193000Y-197009000D01*
X222410000Y-197486000D02*
X221933000Y-197009000D01*
X230030000Y-197486000D02*
X222410000Y-197486000D01*
G04 #@! TO.N,Net-(D32-Pad2)*
X243690000Y-225575000D02*
X244186000Y-225079000D01*
X242526000Y-225575000D02*
X243690000Y-225575000D01*
X234554000Y-199907000D02*
X234554000Y-201007000D01*
X234554000Y-198507000D02*
X234554000Y-199907000D01*
G04 #@! TO.N,Net-(D33-Pad2)*
X238126000Y-199907000D02*
X238126000Y-201007000D01*
X238126000Y-198507000D02*
X238126000Y-199907000D01*
X267286000Y-238409000D02*
X267285600Y-238408600D01*
X267285600Y-238408600D02*
X267285600Y-238408700D01*
X259025900Y-235094900D02*
X259025900Y-235095000D01*
X249832000Y-227485000D02*
X248440000Y-227485000D01*
X251169000Y-226148000D02*
X249832000Y-227485000D01*
X253938000Y-226148000D02*
X251169000Y-226148000D01*
X255896000Y-228106000D02*
X253938000Y-226148000D01*
X255896000Y-233469000D02*
X255896000Y-228106000D01*
X257522000Y-235095000D02*
X255896000Y-233469000D01*
X259025900Y-235095000D02*
X257522000Y-235095000D01*
X260686000Y-234599000D02*
X260155500Y-234599000D01*
X264394000Y-238307000D02*
X260686000Y-234599000D01*
X267184000Y-238307000D02*
X264394000Y-238307000D01*
X267285600Y-238408600D02*
X267184000Y-238307000D01*
X259026000Y-235095000D02*
X259025900Y-235095000D01*
X259522000Y-234599000D02*
X259026000Y-235095000D01*
X260155500Y-234599000D02*
X259522000Y-234599000D01*
X260686100Y-234599000D02*
X260686400Y-234598700D01*
X260155500Y-234599000D02*
X260686100Y-234599000D01*
G04 #@! TO.N,/rotaryA*
X268600000Y-200400000D02*
X268600000Y-201800000D01*
X280697064Y-211497064D02*
X276800000Y-207600000D01*
X276800000Y-207600000D02*
X275800000Y-207600000D01*
X268600000Y-200400000D02*
X265000000Y-196800000D01*
X265000000Y-191300000D02*
X265000000Y-196800000D01*
X280697064Y-211497064D02*
X280697064Y-212540809D01*
X274400000Y-207600000D02*
X275800000Y-207600000D01*
X268600000Y-201800000D02*
X274400000Y-207600000D01*
X259900000Y-188900000D02*
X261395620Y-188900000D01*
X259800000Y-188800000D02*
X259900000Y-188900000D01*
X261395620Y-188900000D02*
X261819860Y-188475760D01*
X255000000Y-133600000D02*
X255549000Y-133600000D01*
X145138000Y-150376000D02*
X146562000Y-151800000D01*
X194500000Y-151800000D02*
X146562000Y-151800000D01*
X195100000Y-151200000D02*
X194500000Y-151800000D01*
X195600000Y-133800000D02*
X195600000Y-133900000D01*
X195800000Y-133600000D02*
X195600000Y-133800000D01*
X255000000Y-133600000D02*
X195800000Y-133600000D01*
X255549000Y-133600000D02*
X256700000Y-132449000D01*
X141600000Y-207750000D02*
X144914000Y-207750000D01*
X141600000Y-188700000D02*
X144914000Y-188700000D01*
X141600000Y-169650000D02*
X144914000Y-169650000D01*
X138200000Y-204350000D02*
X141600000Y-207750000D01*
X138200000Y-185300000D02*
X141600000Y-188700000D01*
X138200000Y-166250000D02*
X141600000Y-169650000D01*
X138200000Y-195350000D02*
X138200000Y-204350000D01*
X138200000Y-176300000D02*
X138200000Y-185300000D01*
X138200000Y-157250000D02*
X138200000Y-166250000D01*
X145074000Y-188476000D02*
X138200000Y-195350000D01*
X145074000Y-169426000D02*
X138200000Y-176300000D01*
X145074000Y-150376000D02*
X138200000Y-157250000D01*
X145138000Y-131326000D02*
X145074000Y-131326000D01*
X145074000Y-131326000D02*
X138200000Y-138200000D01*
X138200000Y-138200000D02*
X138200000Y-147200000D01*
X138200000Y-147200000D02*
X141600000Y-150600000D01*
X141600000Y-150600000D02*
X144914000Y-150600000D01*
X144914000Y-150600000D02*
X145138000Y-150376000D01*
G04 #@! TO.N,/rotaryB*
X268000000Y-201673873D02*
X268000000Y-202900000D01*
X264295620Y-197969493D02*
X268000000Y-201673873D01*
X264295620Y-191000000D02*
X264295620Y-197969493D01*
X275140809Y-210040809D02*
X276366936Y-210040809D01*
X268000000Y-202900000D02*
X275140809Y-210040809D01*
X254600000Y-191000000D02*
X259500000Y-191000000D01*
X259500000Y-191000000D02*
X264295620Y-191000000D01*
X150138000Y-188476000D02*
X151962000Y-190300000D01*
X250300000Y-190300000D02*
X151962000Y-190300000D01*
X251000000Y-191000000D02*
X250300000Y-190300000D01*
X254600000Y-191000000D02*
X251000000Y-191000000D01*
X264295620Y-191000000D02*
X266819860Y-188475760D01*
X249003000Y-131372000D02*
X250878000Y-131372000D01*
X150138000Y-131326000D02*
X150793000Y-131981000D01*
X150793000Y-131981000D02*
X248394000Y-131981000D01*
X248394000Y-131981000D02*
X249003000Y-131372000D01*
X250878000Y-131372000D02*
X252250000Y-130000000D01*
G04 #@! TO.N,/col0*
X256000000Y-123500000D02*
X259250000Y-123500000D01*
X250639000Y-116463000D02*
X156994000Y-116463000D01*
X155257000Y-118200000D02*
X156994000Y-116463000D01*
X255250000Y-122750000D02*
X256000000Y-123500000D01*
X255250000Y-119750000D02*
X255250000Y-122750000D01*
X251963000Y-116463000D02*
X255250000Y-119750000D01*
X250639000Y-116463000D02*
X251963000Y-116463000D01*
X263119000Y-127369000D02*
X271940000Y-127369000D01*
X259250000Y-123500000D02*
X263119000Y-127369000D01*
X143537000Y-194126000D02*
X142717000Y-194946000D01*
X145257000Y-194126000D02*
X143537000Y-194126000D01*
X147797000Y-194946000D02*
X147797000Y-194536000D01*
X147387000Y-194126000D02*
X147797000Y-194536000D01*
X145257000Y-194126000D02*
X147387000Y-194126000D01*
X143537000Y-175076000D02*
X142717000Y-175896000D01*
X145257000Y-175076000D02*
X143537000Y-175076000D01*
X147797000Y-175896000D02*
X147797000Y-175486000D01*
X147387000Y-175076000D02*
X147797000Y-175486000D01*
X145257000Y-175076000D02*
X147387000Y-175076000D01*
X143537000Y-156026000D02*
X142717000Y-156846000D01*
X145257000Y-156026000D02*
X143537000Y-156026000D01*
X147797000Y-156846000D02*
X147797000Y-156436000D01*
X147387000Y-156026000D02*
X147797000Y-156436000D01*
X145257000Y-156026000D02*
X147387000Y-156026000D01*
X143536000Y-136975000D02*
X142716000Y-137795000D01*
X145256000Y-136975000D02*
X143536000Y-136975000D01*
X147796000Y-137795000D02*
X147796000Y-137385000D01*
X147386000Y-136975000D02*
X147796000Y-137385000D01*
X145256000Y-136975000D02*
X147386000Y-136975000D01*
X143536000Y-117925000D02*
X142716000Y-118745000D01*
X145256000Y-117925000D02*
X143536000Y-117925000D01*
X147796000Y-118745000D02*
X147796000Y-118335000D01*
X147386000Y-117925000D02*
X147796000Y-118335000D01*
X145256000Y-117925000D02*
X147386000Y-117925000D01*
X154436000Y-117378000D02*
X155257000Y-118200000D01*
X152859000Y-117378000D02*
X154436000Y-117378000D01*
X151902000Y-118335000D02*
X152859000Y-117378000D01*
X147796000Y-118335000D02*
X151902000Y-118335000D01*
X155177000Y-159308500D02*
X155099500Y-159386000D01*
X155254000Y-159231000D02*
X155177000Y-159308500D01*
X155254000Y-156309000D02*
X155254000Y-159231000D01*
X154435000Y-155489000D02*
X155254000Y-156309000D01*
X151964000Y-155489000D02*
X154435000Y-155489000D01*
X151017000Y-156436000D02*
X151964000Y-155489000D01*
X147797000Y-156436000D02*
X151017000Y-156436000D01*
X155177000Y-159308500D02*
X155100000Y-159386000D01*
X155177000Y-178358500D02*
X155099500Y-178436000D01*
X155254000Y-178281000D02*
X155177000Y-178358500D01*
X155254000Y-175359000D02*
X155254000Y-178281000D01*
X154435000Y-174539000D02*
X155254000Y-175359000D01*
X151964000Y-174539000D02*
X154435000Y-174539000D01*
X151017000Y-175486000D02*
X151964000Y-174539000D01*
X147797000Y-175486000D02*
X151017000Y-175486000D01*
X155177000Y-178358500D02*
X155100000Y-178436000D01*
X155098500Y-140335000D02*
X155171400Y-140262100D01*
X155254000Y-140180000D02*
X155171400Y-140262100D01*
X155254000Y-137258000D02*
X155254000Y-140180000D01*
X154434000Y-136438000D02*
X155254000Y-137258000D01*
X151965000Y-136438000D02*
X154434000Y-136438000D01*
X151018000Y-137385000D02*
X151965000Y-136438000D01*
X147796000Y-137385000D02*
X151018000Y-137385000D01*
X155171400Y-140262100D02*
X155098000Y-140335000D01*
X155171000Y-121212500D02*
X155171000Y-121212000D01*
X155098500Y-121285000D02*
X155171000Y-121212500D01*
X155257000Y-121126000D02*
X155171000Y-121212000D01*
X155257000Y-118200000D02*
X155257000Y-121126000D01*
X155171000Y-121212000D02*
X155098000Y-121285000D01*
X155177000Y-197408500D02*
X155099500Y-197486000D01*
X155254000Y-197331000D02*
X155177000Y-197408500D01*
X155254000Y-194409000D02*
X155254000Y-197331000D01*
X154435000Y-193589000D02*
X155254000Y-194409000D01*
X151964000Y-193589000D02*
X154435000Y-193589000D01*
X151017000Y-194536000D02*
X151964000Y-193589000D01*
X147797000Y-194536000D02*
X151017000Y-194536000D01*
X155177000Y-197408500D02*
X155100000Y-197486000D01*
G04 #@! TO.N,/RGB*
X254454000Y-161201000D02*
X254454000Y-159885240D01*
X262272530Y-155972530D02*
X264000000Y-157700000D01*
X256580765Y-155972530D02*
X262272530Y-155972530D01*
X255985450Y-156567845D02*
X256580765Y-155972530D01*
X255985450Y-158353790D02*
X255985450Y-156567845D01*
X254454000Y-159885240D02*
X255985450Y-158353790D01*
X257771395Y-93464455D02*
X257771395Y-95845715D01*
X142875600Y-103584810D02*
X144066230Y-104775440D01*
X257771395Y-93464455D02*
X257771395Y-65871395D01*
X256200000Y-64300000D02*
X257771395Y-65871395D01*
X142875600Y-103584810D02*
X142875600Y-97631660D01*
X145852175Y-106561385D02*
X144066230Y-104775440D01*
X247055725Y-106561385D02*
X145852175Y-106561385D01*
X257771395Y-95845715D02*
X247055725Y-106561385D01*
X256200000Y-64300000D02*
X256194020Y-64294020D01*
X256194020Y-64294020D02*
X254404190Y-64294020D01*
X142856860Y-97650400D02*
X142856860Y-99281660D01*
X142875600Y-97631660D02*
X142856860Y-97650400D01*
X254454000Y-161900000D02*
X254500000Y-161900000D01*
X254500000Y-161900000D02*
X254454000Y-161900000D01*
X269277695Y-146277695D02*
X269277695Y-145256860D01*
X269500000Y-146500000D02*
X269277695Y-146277695D01*
X262420000Y-158998000D02*
X262420000Y-162170000D01*
X263718000Y-157700000D02*
X262420000Y-158998000D01*
X264000000Y-157700000D02*
X263718000Y-157700000D01*
X262420000Y-162170000D02*
X264100000Y-163850000D01*
X264000000Y-157300000D02*
X264000000Y-157700000D01*
X266205000Y-157250000D02*
X264450000Y-157250000D01*
X264450000Y-157250000D02*
X264000000Y-157700000D01*
X264550000Y-158250000D02*
X264000000Y-157700000D01*
X264550000Y-158250000D02*
X266205000Y-158250000D01*
X254454000Y-162651000D02*
X254454000Y-161900000D01*
X254454000Y-161900000D02*
X254454000Y-161201000D01*
D49*
G04 #@! TO.N,Net-(SJ1-Pad1)*
X270100000Y-124900000D02*
X271869000Y-124900000D01*
X271869000Y-124900000D02*
X271940000Y-124829000D01*
D46*
G04 #@! TO.N,Net-(J1-Pad1)*
X260500000Y-148000000D02*
X260500000Y-150500000D01*
G04 #@! TO.N,/SDA*
X266300000Y-145400000D02*
X268100000Y-147200000D01*
X262100000Y-145400000D02*
X266300000Y-145400000D01*
X261300000Y-146200000D02*
X262100000Y-145400000D01*
G04 #@! TO.N,Net-(J1-Pad4)*
X268100000Y-148000000D02*
X268100000Y-150480000D01*
X268100000Y-150480000D02*
X268120000Y-150500000D01*
G04 #@! TO.N,Net-(J1-Pad2)*
X263000000Y-148000000D02*
X263000000Y-150460000D01*
X263000000Y-150460000D02*
X263040000Y-150500000D01*
G04 #@! TO.N,/SCL*
X265600000Y-146500000D02*
X265600000Y-147200000D01*
X263300000Y-146100000D02*
X265200000Y-146100000D01*
X265200000Y-146100000D02*
X265600000Y-146500000D01*
X265600000Y-147200000D02*
X265600000Y-147003000D01*
G04 #@! TO.N,Net-(J1-Pad3)*
X265600000Y-148000000D02*
X265600000Y-150480000D01*
X265600000Y-150480000D02*
X265580000Y-150500000D01*
G04 #@! TO.N,/SERIAL*
X273300000Y-142100000D02*
X273300000Y-118800000D01*
X273300000Y-118800000D02*
X272900000Y-118400000D01*
X272900000Y-118400000D02*
X257891000Y-118400000D01*
X257891000Y-118400000D02*
X256700000Y-117209000D01*
X268300000Y-157700000D02*
X268300000Y-157200000D01*
X266205000Y-157750000D02*
X267750000Y-157750000D01*
X267750000Y-157750000D02*
X268300000Y-157200000D01*
X267850000Y-156750000D02*
X268300000Y-157200000D01*
X267850000Y-156750000D02*
X266205000Y-156750000D01*
G04 #@! TO.N,/col6*
X266890000Y-219975000D02*
X269136000Y-217729000D01*
X266890000Y-220640000D02*
X266890000Y-219975000D01*
X272700000Y-169100000D02*
X272700000Y-170400000D01*
X271700000Y-168100000D02*
X272700000Y-169100000D01*
X271700000Y-165400000D02*
X271700000Y-168100000D01*
X273000000Y-164100000D02*
X271700000Y-165400000D01*
X273000000Y-146300000D02*
X273000000Y-164100000D01*
X273300000Y-146000000D02*
X273000000Y-146300000D01*
X273300000Y-143900000D02*
X273300000Y-146000000D01*
X272009000Y-142609000D02*
X273300000Y-143900000D01*
X264319860Y-173680140D02*
X264319860Y-175075760D01*
X265200000Y-172800000D02*
X264319860Y-173680140D01*
X270300000Y-172800000D02*
X265200000Y-172800000D01*
X272700000Y-170400000D02*
X270300000Y-172800000D01*
X261779860Y-175895760D02*
X261779860Y-174015760D01*
X261779860Y-174015760D02*
X261819860Y-173975760D01*
X266859860Y-175895760D02*
X265139860Y-175895760D01*
X265139860Y-175895760D02*
X264319860Y-175075760D01*
X261779860Y-175895760D02*
X263499860Y-175895760D01*
X263499860Y-175895760D02*
X264319860Y-175075760D01*
X271940000Y-142609000D02*
X272009000Y-142609000D01*
X258902000Y-202836500D02*
X258622000Y-202557000D01*
X258622300Y-202556800D02*
X258622300Y-202556600D01*
X258902000Y-202836500D02*
X258622300Y-202556800D01*
X266890000Y-221305000D02*
X266890000Y-220640000D01*
X266889600Y-220640400D02*
X266889600Y-221305300D01*
X266890000Y-220640000D02*
X266889600Y-220640400D01*
X264636000Y-239693500D02*
X264916000Y-239973000D01*
X264915700Y-239973200D02*
X264915700Y-239973400D01*
X264636000Y-239693500D02*
X264915700Y-239973200D01*
X262306000Y-239414000D02*
X262306500Y-239414000D01*
X264356000Y-239414000D02*
X264636000Y-239693500D01*
X262306500Y-239414000D02*
X264356000Y-239414000D01*
X262306500Y-239414000D02*
X262306000Y-239413500D01*
X274134000Y-214657000D02*
X279521300Y-214657000D01*
X271062000Y-217729000D02*
X274134000Y-214657000D01*
X269136000Y-217729000D02*
X271062000Y-217729000D01*
X279521300Y-214657000D02*
X279522000Y-214657000D01*
X279521300Y-214657000D02*
X279521700Y-214656600D01*
X261232000Y-203116000D02*
X261231500Y-203116000D01*
X259182000Y-203116000D02*
X258902000Y-202836500D01*
X261231500Y-203116000D02*
X259182000Y-203116000D01*
X261231500Y-203116000D02*
X261232000Y-203116500D01*
X247849900Y-216185000D02*
X247849900Y-216185100D01*
X247849600Y-216184700D02*
X247849900Y-216185000D01*
X247849900Y-216185100D02*
X247850000Y-216185000D01*
X250389591Y-210017529D02*
X253097745Y-207309375D01*
X250389591Y-211785295D02*
X250389591Y-210017529D01*
X258129151Y-204946875D02*
X258693750Y-204946875D01*
X253097745Y-207309375D02*
X255766651Y-207309375D01*
X255766651Y-207309375D02*
X258129151Y-204946875D01*
G04 #@! TO.N,/col5*
X270600000Y-138800000D02*
X270669000Y-138800000D01*
X270669000Y-138800000D02*
X271940000Y-137529000D01*
X254900000Y-137518000D02*
X254918000Y-137518000D01*
X254918000Y-137518000D02*
X256200000Y-138800000D01*
X248086000Y-137518000D02*
X254900000Y-137518000D01*
X246990000Y-175076000D02*
X245270000Y-175076000D01*
X247810000Y-175896000D02*
X246990000Y-175076000D01*
X243550000Y-175076000D02*
X242730000Y-175896000D01*
X245270000Y-175076000D02*
X243550000Y-175076000D01*
X246990000Y-156026000D02*
X245270000Y-156026000D01*
X247810000Y-156846000D02*
X246990000Y-156026000D01*
X246989000Y-136975000D02*
X245269000Y-136975000D01*
X247809000Y-137795000D02*
X246989000Y-136975000D01*
X243549000Y-136975000D02*
X242729000Y-137795000D01*
X245269000Y-136975000D02*
X243549000Y-136975000D01*
X246989000Y-117925000D02*
X245269000Y-117925000D01*
X247809000Y-118745000D02*
X246989000Y-117925000D01*
X243549000Y-117925000D02*
X242729000Y-118745000D01*
X245269000Y-117925000D02*
X243549000Y-117925000D01*
X248086000Y-137518000D02*
X247809000Y-137795000D01*
X245270000Y-156026000D02*
X244410000Y-156026000D01*
X243550000Y-156026000D02*
X242730000Y-156846000D01*
X244410000Y-156026000D02*
X243550000Y-156026000D01*
X244410000Y-156026000D02*
X243550000Y-156026000D01*
X240664000Y-153896000D02*
X240664000Y-153635000D01*
X242794000Y-156026000D02*
X240664000Y-153896000D01*
X243550000Y-156026000D02*
X242794000Y-156026000D01*
X245806000Y-229894000D02*
X245806000Y-229893500D01*
X246100000Y-225600000D02*
X246100000Y-217934000D01*
X245806000Y-225894000D02*
X246100000Y-225600000D01*
X245806000Y-229893500D02*
X245806000Y-225894000D01*
X256200000Y-138800000D02*
X270600000Y-138800000D01*
X270600000Y-138800000D02*
X270671000Y-138800000D01*
X246100000Y-217934000D02*
X246100000Y-211634375D01*
X246100000Y-211634375D02*
X249834375Y-207900000D01*
G04 #@! TO.N,/col4*
X271940000Y-140069000D02*
X258831000Y-140069000D01*
X229365000Y-155496000D02*
X228835000Y-156026000D01*
X229365000Y-155496000D02*
X229365000Y-155344000D01*
X229365000Y-155344000D02*
X232284000Y-152425000D01*
X232284000Y-152425000D02*
X250628000Y-152425000D01*
X254700000Y-148353000D02*
X250628000Y-152425000D01*
X254700000Y-142800000D02*
X254700000Y-148353000D01*
X256200000Y-141300000D02*
X254700000Y-142800000D01*
X257600000Y-141300000D02*
X256200000Y-141300000D01*
X258831000Y-140069000D02*
X257600000Y-141300000D01*
X227940000Y-194126000D02*
X226220000Y-194126000D01*
X228760000Y-194946000D02*
X227940000Y-194126000D01*
X224500000Y-194126000D02*
X223680000Y-194946000D01*
X226220000Y-194126000D02*
X224500000Y-194126000D01*
X227940000Y-175076000D02*
X226220000Y-175076000D01*
X228760000Y-175896000D02*
X227940000Y-175076000D01*
X224500000Y-175076000D02*
X223680000Y-175896000D01*
X226220000Y-175076000D02*
X224500000Y-175076000D01*
X224500000Y-156026000D02*
X223680000Y-156846000D01*
X226220000Y-156026000D02*
X224500000Y-156026000D01*
X227939000Y-136975000D02*
X226219000Y-136975000D01*
X228759000Y-137795000D02*
X227939000Y-136975000D01*
X224499000Y-136975000D02*
X223679000Y-137795000D01*
X226219000Y-136975000D02*
X224499000Y-136975000D01*
X227939000Y-117925000D02*
X226219000Y-117925000D01*
X228759000Y-118745000D02*
X227939000Y-117925000D01*
X224499000Y-117925000D02*
X223679000Y-118745000D01*
X226219000Y-117925000D02*
X224499000Y-117925000D01*
X227940000Y-156026000D02*
X227080000Y-156026000D01*
X228760000Y-156846000D02*
X227940000Y-156026000D01*
X227080000Y-156026000D02*
X226220000Y-156026000D01*
X227080000Y-156026000D02*
X227940000Y-156026000D01*
X227940000Y-156026000D02*
X228835000Y-156026000D01*
G04 #@! TO.N,/col3*
X255100000Y-135004000D02*
X255104000Y-135004000D01*
X209709000Y-137795000D02*
X212500000Y-135004000D01*
X212500000Y-135004000D02*
X255100000Y-135004000D01*
X270729000Y-136200000D02*
X271940000Y-134989000D01*
X256300000Y-136200000D02*
X270729000Y-136200000D01*
X255104000Y-135004000D02*
X256300000Y-136200000D01*
X208890000Y-194126000D02*
X207170000Y-194126000D01*
X209710000Y-194946000D02*
X208890000Y-194126000D01*
X205450000Y-194126000D02*
X204630000Y-194946000D01*
X207170000Y-194126000D02*
X205450000Y-194126000D01*
X208890000Y-175076000D02*
X207170000Y-175076000D01*
X209710000Y-175896000D02*
X208890000Y-175076000D01*
X205450000Y-175076000D02*
X204630000Y-175896000D01*
X207170000Y-175076000D02*
X205450000Y-175076000D01*
X208890000Y-156026000D02*
X207170000Y-156026000D01*
X209710000Y-156846000D02*
X208890000Y-156026000D01*
X205450000Y-156026000D02*
X204630000Y-156846000D01*
X207170000Y-156026000D02*
X205450000Y-156026000D01*
X205449000Y-136975000D02*
X204629000Y-137795000D01*
X207169000Y-136975000D02*
X205449000Y-136975000D01*
X208889000Y-117925000D02*
X207169000Y-117925000D01*
X209709000Y-118745000D02*
X208889000Y-117925000D01*
X205449000Y-117925000D02*
X204629000Y-118745000D01*
X207169000Y-117925000D02*
X205449000Y-117925000D01*
X208889000Y-136975000D02*
X207169000Y-136975000D01*
X209709000Y-137795000D02*
X208889000Y-136975000D01*
G04 #@! TO.N,/col2*
X255173000Y-133073000D02*
X255227000Y-133073000D01*
X254400000Y-133073000D02*
X255173000Y-133073000D01*
X270691000Y-131200000D02*
X271940000Y-132449000D01*
X256000000Y-131200000D02*
X270691000Y-131200000D01*
X255400000Y-131800000D02*
X256000000Y-131200000D01*
X255400000Y-132900000D02*
X255400000Y-131800000D01*
X255227000Y-133073000D02*
X255400000Y-132900000D01*
X189840000Y-194126000D02*
X188120000Y-194126000D01*
X190660000Y-194946000D02*
X189840000Y-194126000D01*
X186400000Y-194126000D02*
X185580000Y-194946000D01*
X188120000Y-194126000D02*
X186400000Y-194126000D01*
X189840000Y-175076000D02*
X188120000Y-175076000D01*
X190660000Y-175896000D02*
X189840000Y-175076000D01*
X186400000Y-175076000D02*
X185580000Y-175896000D01*
X188120000Y-175076000D02*
X186400000Y-175076000D01*
X189840000Y-156026000D02*
X188120000Y-156026000D01*
X190660000Y-156846000D02*
X189840000Y-156026000D01*
X186400000Y-156026000D02*
X185580000Y-156846000D01*
X188120000Y-156026000D02*
X186400000Y-156026000D01*
X186399000Y-136975000D02*
X185579000Y-137795000D01*
X188119000Y-136975000D02*
X186399000Y-136975000D01*
X189839000Y-117925000D02*
X188119000Y-117925000D01*
X190659000Y-118745000D02*
X189839000Y-117925000D01*
X186399000Y-117925000D02*
X185579000Y-118745000D01*
X188119000Y-117925000D02*
X186399000Y-117925000D01*
X189839000Y-136975000D02*
X188119000Y-136975000D01*
X190659000Y-137795000D02*
X189839000Y-136975000D01*
X195381000Y-133073000D02*
X254400000Y-133073000D01*
X254400000Y-133073000D02*
X254424000Y-133073000D01*
X190659000Y-137795000D02*
X195381000Y-133073000D01*
G04 #@! TO.N,/col1*
X254500000Y-132593000D02*
X254507000Y-132593000D01*
X254507000Y-132593000D02*
X254800000Y-132300000D01*
X270631000Y-128600000D02*
X271940000Y-129909000D01*
X255900000Y-128600000D02*
X270631000Y-128600000D01*
X254800000Y-129700000D02*
X255900000Y-128600000D01*
X254800000Y-132300000D02*
X254800000Y-129700000D01*
X253550000Y-132593000D02*
X254500000Y-132593000D01*
X171609000Y-137795000D02*
X176791000Y-132593000D01*
X176791000Y-132593000D02*
X253550000Y-132593000D01*
X170789000Y-194126000D02*
X169069000Y-194126000D01*
X171609000Y-194946000D02*
X170789000Y-194126000D01*
X167349000Y-194126000D02*
X166529000Y-194946000D01*
X169069000Y-194126000D02*
X167349000Y-194126000D01*
X170789000Y-175076000D02*
X169069000Y-175076000D01*
X171609000Y-175896000D02*
X170789000Y-175076000D01*
X167349000Y-175076000D02*
X166529000Y-175896000D01*
X169069000Y-175076000D02*
X167349000Y-175076000D01*
X170789000Y-156026000D02*
X169069000Y-156026000D01*
X171609000Y-156846000D02*
X170789000Y-156026000D01*
X167349000Y-156026000D02*
X166529000Y-156846000D01*
X169069000Y-156026000D02*
X167349000Y-156026000D01*
X167349000Y-136975000D02*
X166529000Y-137795000D01*
X169069000Y-136975000D02*
X167349000Y-136975000D01*
X170789000Y-117925000D02*
X169069000Y-117925000D01*
X171609000Y-118745000D02*
X170789000Y-117925000D01*
X167349000Y-117925000D02*
X166529000Y-118745000D01*
X169069000Y-117925000D02*
X167349000Y-117925000D01*
X170789000Y-136975000D02*
X169069000Y-136975000D01*
X171609000Y-137795000D02*
X170789000Y-136975000D01*
G04 #@! TO.N,/k0*
X158354000Y-123707000D02*
X158354000Y-124807000D01*
X158354000Y-122307000D02*
X158354000Y-123707000D01*
X141446000Y-121285000D02*
X141420000Y-121259000D01*
X149066000Y-121285000D02*
X141446000Y-121285000D01*
X150266000Y-120015000D02*
X152558000Y-120015000D01*
X150256000Y-120025000D02*
X150266000Y-120015000D01*
X152558000Y-120015000D02*
X152558500Y-120015000D01*
G04 #@! TO.N,/k6*
X158354000Y-141357000D02*
X158354000Y-142757000D01*
X141446000Y-140335000D02*
X140969000Y-139858000D01*
X149066000Y-140335000D02*
X141446000Y-140335000D01*
X150266000Y-139065000D02*
X152558000Y-139065000D01*
X150256000Y-139075000D02*
X150266000Y-139065000D01*
X152558000Y-139065000D02*
X152558500Y-139065000D01*
X158354000Y-142757000D02*
X158354000Y-143857000D01*
X154923500Y-147875000D02*
X153818500Y-147875000D01*
X158354000Y-144444500D02*
X154923500Y-147875000D01*
X158354000Y-143857000D02*
X158354000Y-144444500D01*
G04 #@! TO.N,/k12*
X158354000Y-161807000D02*
X158354000Y-162907000D01*
X158354000Y-160407000D02*
X158354000Y-161807000D01*
X141447000Y-159386000D02*
X140970000Y-158909000D01*
X149067000Y-159386000D02*
X141447000Y-159386000D01*
X150267000Y-158116000D02*
X152559500Y-158116000D01*
X150257000Y-158126000D02*
X150267000Y-158116000D01*
X152559500Y-158116000D02*
X152560000Y-158116000D01*
G04 #@! TO.N,/k19*
X158354000Y-180857000D02*
X158354000Y-181957000D01*
X158354000Y-179457000D02*
X158354000Y-180857000D01*
X141447000Y-178436000D02*
X140970000Y-177959000D01*
X149067000Y-178436000D02*
X141447000Y-178436000D01*
X150267000Y-177166000D02*
X152559500Y-177166000D01*
X150257000Y-177176000D02*
X150267000Y-177166000D01*
X152559500Y-177166000D02*
X152560000Y-177166000D01*
G04 #@! TO.N,/k26*
X158354000Y-199907000D02*
X158354000Y-201007000D01*
X158354000Y-198507000D02*
X158354000Y-199907000D01*
X141447000Y-197486000D02*
X140970000Y-197009000D01*
X149067000Y-197486000D02*
X141447000Y-197486000D01*
X150267000Y-196216000D02*
X152559500Y-196216000D01*
X150257000Y-196226000D02*
X150267000Y-196216000D01*
X152559500Y-196216000D02*
X152560000Y-196216000D01*
G04 #@! TO.N,Net-(LED29-Pad2)*
X237530685Y-23217285D02*
X236340055Y-23217285D01*
X238126000Y-23812600D02*
X237530685Y-23217285D01*
G04 #@! TO.N,Net-(LED34-Pad2)*
X147656860Y-95981660D02*
X147656860Y-96459770D01*
X147656860Y-96459770D02*
X148828750Y-97631660D01*
X148828750Y-97631660D02*
X165019460Y-97631660D01*
X165019460Y-97631660D02*
X166669460Y-99281660D01*
G04 #@! TO.N,Net-(LED35-Pad2)*
X171469460Y-95981660D02*
X171469460Y-96459770D01*
X171469460Y-96459770D02*
X172641350Y-97631660D01*
X172641350Y-97631660D02*
X184069540Y-97631660D01*
X184069540Y-97631660D02*
X185719540Y-99281660D01*
G04 #@! TO.N,Net-(LED36-Pad2)*
X190519460Y-96459770D02*
X191691350Y-97631660D01*
X191691350Y-97631660D02*
X203119540Y-97631660D01*
X203119540Y-97631660D02*
X204769540Y-99281660D01*
G04 #@! TO.N,Net-(LED37-Pad2)*
X209569460Y-96459770D02*
X210741350Y-97631660D01*
X210741350Y-97631660D02*
X222169540Y-97631660D01*
X222169540Y-97631660D02*
X223819540Y-99281660D01*
G04 #@! TO.N,Net-(LED38-Pad2)*
X228619460Y-96459770D02*
X229791350Y-97631660D01*
X229791350Y-97631660D02*
X241219540Y-97631660D01*
X241219540Y-97631660D02*
X242869540Y-99281660D01*
G04 #@! TO.N,Net-(LED40-Pad2)*
X147656860Y-76931660D02*
X147656860Y-77409770D01*
X147656860Y-77409770D02*
X148828750Y-78581660D01*
X148828750Y-78581660D02*
X165019460Y-78581660D01*
X165019460Y-78581660D02*
X166669460Y-80231660D01*
G04 #@! TO.N,Net-(LED41-Pad2)*
X171469460Y-77409770D02*
X172641350Y-78581660D01*
X172641350Y-78581660D02*
X184069540Y-78581660D01*
X184069540Y-78581660D02*
X185719540Y-80231660D01*
G04 #@! TO.N,Net-(LED42-Pad2)*
X190519460Y-77409770D02*
X191691350Y-78581660D01*
X191691350Y-78581660D02*
X203119540Y-78581660D01*
X203119540Y-78581660D02*
X204769540Y-80231660D01*
G04 #@! TO.N,Net-(LED43-Pad2)*
X209569460Y-77409770D02*
X210741350Y-78581660D01*
X210741350Y-78581660D02*
X222169540Y-78581660D01*
X222169540Y-78581660D02*
X223819540Y-80231660D01*
G04 #@! TO.N,Net-(LED44-Pad2)*
X228619460Y-77409770D02*
X229791350Y-78581660D01*
X229791350Y-78581660D02*
X241219540Y-78581660D01*
X241219540Y-78581660D02*
X242869540Y-80231660D01*
G04 #@! TO.N,Net-(LED46-Pad2)*
X147656860Y-57881660D02*
X147656860Y-58359770D01*
X147656860Y-58359770D02*
X148828750Y-59531660D01*
X148828750Y-59531660D02*
X165019460Y-59531660D01*
X165019460Y-59531660D02*
X166669460Y-61181660D01*
G04 #@! TO.N,Net-(LED47-Pad2)*
X171469460Y-58359770D02*
X172641350Y-59531660D01*
X172641350Y-59531660D02*
X184069540Y-59531660D01*
X184069540Y-59531660D02*
X185719540Y-61181660D01*
G04 #@! TO.N,Net-(LED48-Pad2)*
X190519460Y-58359770D02*
X191691350Y-59531660D01*
X191691350Y-59531660D02*
X203119540Y-59531660D01*
X203119540Y-59531660D02*
X204769540Y-61181660D01*
G04 #@! TO.N,Net-(LED49-Pad2)*
X209569460Y-58359770D02*
X210741350Y-59531660D01*
X210741350Y-59531660D02*
X222169540Y-59531660D01*
X222169540Y-59531660D02*
X223819540Y-61181660D01*
G04 #@! TO.N,Net-(LED50-Pad2)*
X228619460Y-58359770D02*
X229791350Y-59531660D01*
X229791350Y-59531660D02*
X241219540Y-59531660D01*
X241219540Y-59531660D02*
X242869540Y-61181660D01*
G04 #@! TO.N,Net-(LED52-Pad2)*
X147656860Y-38831660D02*
X147656860Y-39309770D01*
X147656860Y-39309770D02*
X148828750Y-40481660D01*
X148828750Y-40481660D02*
X165019460Y-40481660D01*
X165019460Y-40481660D02*
X166669460Y-42131660D01*
G04 #@! TO.N,Net-(LED53-Pad2)*
X171469460Y-39309770D02*
X172641350Y-40481660D01*
X172641350Y-40481660D02*
X184069540Y-40481660D01*
X184069540Y-40481660D02*
X185719540Y-42131660D01*
G04 #@! TO.N,Net-(LED54-Pad2)*
X190519460Y-39309770D02*
X191691350Y-40481660D01*
X191691350Y-40481660D02*
X203119540Y-40481660D01*
X203119540Y-40481660D02*
X204769540Y-42131660D01*
G04 #@! TO.N,Net-(LED55-Pad2)*
X209569460Y-39309770D02*
X210741350Y-40481660D01*
X210741350Y-40481660D02*
X222169540Y-40481660D01*
X222169540Y-40481660D02*
X223819540Y-42131660D01*
G04 #@! TO.N,Net-(LED56-Pad2)*
X228619460Y-39309770D02*
X229791350Y-40481660D01*
X229791350Y-40481660D02*
X241219540Y-40481660D01*
X241219540Y-40481660D02*
X242869540Y-42131660D01*
G04 #@! TO.N,Net-(LED58-Pad2)*
X147656860Y-19781660D02*
X147656860Y-20259770D01*
X147656860Y-20259770D02*
X148828750Y-21431660D01*
X148828750Y-21431660D02*
X165019460Y-21431660D01*
X165019460Y-21431660D02*
X166669460Y-23081660D01*
G04 #@! TO.N,Net-(LED59-Pad2)*
X184069540Y-21431660D02*
X185719540Y-23081660D01*
X171469460Y-20259770D02*
X172641350Y-21431660D01*
X172641350Y-21431660D02*
X184069540Y-21431660D01*
G04 #@! TO.N,Net-(LED60-Pad2)*
X190519460Y-20259770D02*
X191691350Y-21431660D01*
X191691350Y-21431660D02*
X203119540Y-21431660D01*
X203119540Y-21431660D02*
X204769540Y-23081660D01*
G04 #@! TO.N,Net-(LED61-Pad2)*
X209569460Y-20259770D02*
X210741350Y-21431660D01*
X210741350Y-21431660D02*
X222169540Y-21431660D01*
X222169540Y-21431660D02*
X223819540Y-23081660D01*
G04 #@! TO.N,Net-(LED62-Pad2)*
X251876539Y-7058942D02*
X255305297Y-7058942D01*
X256616539Y-11683461D02*
X257000000Y-11300000D01*
X256616539Y-13692245D02*
X256616539Y-11683461D01*
X256616539Y-13692245D02*
X256616539Y-15288942D01*
X255305297Y-7058942D02*
X255985450Y-7739095D01*
X256616539Y-15288942D02*
X256174698Y-15288942D01*
X256174698Y-15288942D02*
X255390135Y-16073505D01*
X264583915Y-42131420D02*
X265910490Y-43457995D01*
X265910490Y-43457995D02*
X269082380Y-43457995D01*
X269082380Y-43457995D02*
X270273010Y-42267365D01*
X270273010Y-42267365D02*
X270273010Y-38695475D01*
X270273010Y-38695475D02*
X256616539Y-25039004D01*
X261919860Y-42131420D02*
X264583915Y-42131420D01*
X255390135Y-23812600D02*
X256616539Y-25039004D01*
X255390135Y-16073505D02*
X255390135Y-23812600D01*
X252358942Y-7058942D02*
X251876539Y-7058942D01*
X236340055Y-21431660D02*
X237503821Y-21431660D01*
X237503821Y-21431660D02*
X251876539Y-7058942D01*
X228619460Y-20259770D02*
X229791350Y-21431660D01*
X229791350Y-21431660D02*
X236340055Y-21431660D01*
X236340055Y-21431660D02*
X236340055Y-21431660D01*
G04 #@! TO.N,Net-(LED63-Pad2)*
X259123461Y-10031058D02*
X260531058Y-10031058D01*
X266641058Y-5758942D02*
X273136539Y-5758942D01*
X261900000Y-10500000D02*
X266641058Y-5758942D01*
X261000000Y-10500000D02*
X261900000Y-10500000D01*
X260531058Y-10031058D02*
X261000000Y-10500000D01*
G04 #@! TO.N,Net-(LED65-Pad2)*
X264595481Y-1300000D02*
X265100000Y-795481D01*
X268366539Y2471058D02*
X265100000Y-795481D01*
X258800000Y-1600000D02*
X259100000Y-1300000D01*
X259100000Y-1300000D02*
X264595481Y-1300000D01*
X255601058Y-1801058D02*
X254383461Y-1801058D01*
X256900000Y-2400000D02*
X257700000Y-1600000D01*
X256200000Y-2400000D02*
X256900000Y-2400000D01*
X255601058Y-1801058D02*
X256200000Y-2400000D01*
X257700000Y-1600000D02*
X258800000Y-1600000D01*
G04 #@! TO.N,/k33*
X259319860Y-177175760D02*
X256480765Y-177175760D01*
X256480765Y-177175760D02*
X254794820Y-178861705D01*
X266819860Y-173975760D02*
X268035530Y-173975760D01*
X269319860Y-175260090D02*
X269319860Y-177175760D01*
X268035530Y-173975760D02*
X269319860Y-175260090D01*
X260509860Y-178435760D02*
X268129860Y-178435760D01*
X268129860Y-178435760D02*
X268129860Y-178365760D01*
X268129860Y-178365760D02*
X269319860Y-177175760D01*
X259319860Y-177175760D02*
X259319860Y-177245760D01*
X259319860Y-177245760D02*
X260509860Y-178435760D01*
G04 #@! TO.N,Net-(SJ11-Pad1)*
X270077695Y-145256860D02*
X271832140Y-145256860D01*
X271832140Y-145256860D02*
X271940000Y-145149000D01*
G04 #@! TO.N,/k18*
X245270000Y-198507000D02*
X261807000Y-198507000D01*
X272351873Y-209051873D02*
X272351873Y-211995103D01*
X261807000Y-198507000D02*
X272351873Y-209051873D01*
X268916936Y-222944588D02*
X268916936Y-222282802D01*
X268916936Y-222282802D02*
X269724295Y-221475443D01*
X245270000Y-199907000D02*
X245270000Y-201007000D01*
X245270000Y-198507000D02*
X245270000Y-199282000D01*
X245270000Y-199282000D02*
X245270000Y-199907000D01*
X281012000Y-216995000D02*
X281012100Y-216995100D01*
X279848000Y-216995000D02*
X279600000Y-217243000D01*
X281012000Y-216995000D02*
X279848000Y-216995000D01*
X279600000Y-217243000D02*
X279352000Y-217491000D01*
X279599900Y-217243000D02*
X279351600Y-217491300D01*
X279600000Y-217243000D02*
X279599900Y-217243000D01*
X272351900Y-211995100D02*
X272352000Y-211995000D01*
X264428500Y-228275000D02*
X264228000Y-228475000D01*
X264428200Y-228275000D02*
X264228100Y-228475100D01*
X264428500Y-228275000D02*
X264428200Y-228275000D01*
X265914000Y-228075000D02*
X265913900Y-228075000D01*
X264629000Y-228075000D02*
X264428500Y-228275000D01*
X265913900Y-228075000D02*
X264629000Y-228075000D01*
X265913900Y-228075000D02*
X265914300Y-228074600D01*
G04 #@! TO.N,Net-(D25-Pad2)*
X235745000Y-180857000D02*
X235745000Y-181957000D01*
X235745000Y-179457000D02*
X235745000Y-180857000D01*
X237243000Y-177959000D02*
X235745000Y-179457000D01*
X240983000Y-177959000D02*
X237243000Y-177959000D01*
X241460000Y-178436000D02*
X240983000Y-177959000D01*
X249080000Y-178436000D02*
X241460000Y-178436000D01*
D49*
G04 #@! TO.N,Net-(SJ13-Pad1)*
X270077695Y-117277055D02*
X271871945Y-117277055D01*
X271871945Y-117277055D02*
X271940000Y-117209000D01*
D46*
G04 #@! TO.N,/RGBrow10*
X142856860Y-80231580D02*
X142856860Y-78600320D01*
X142856860Y-78600320D02*
X142875600Y-78581580D01*
X246324465Y-95981660D02*
X247669780Y-95981660D01*
X245865095Y-96441030D02*
X246324465Y-95981660D01*
X247669780Y-95981660D02*
X247669780Y-95269140D01*
X247669780Y-95269140D02*
X246460410Y-94059770D01*
X246460410Y-94059770D02*
X143470915Y-94059770D01*
X143470915Y-94059770D02*
X142280285Y-92869140D01*
X142280285Y-92869140D02*
X142280285Y-80808155D01*
X142280285Y-80808155D02*
X142856860Y-80231580D01*
G04 #@! TO.N,/RGBrow12*
X142856860Y-59550240D02*
X142856860Y-61181500D01*
X142875600Y-59531500D02*
X142856860Y-59550240D01*
X245865135Y-77390990D02*
X245865095Y-77391030D01*
X245865135Y-77390990D02*
X246324465Y-76931660D01*
X246324465Y-76931660D02*
X247669780Y-76931660D01*
X246324465Y-76931660D02*
X247669780Y-76931660D01*
X142280285Y-73819140D02*
X142280285Y-61758155D01*
X143470915Y-75009770D02*
X142280285Y-73819140D01*
X246460410Y-75009770D02*
X143470915Y-75009770D01*
X247669780Y-76219140D02*
X246460410Y-75009770D01*
X247669780Y-76931660D02*
X247669780Y-76219140D01*
G04 #@! TO.N,/RGBrow23*
X142856860Y-42131420D02*
X142856860Y-40500160D01*
X142856860Y-40500160D02*
X142875600Y-40481420D01*
X245865095Y-58341030D02*
X245865175Y-58340950D01*
X245865175Y-58340950D02*
X245865095Y-58341030D01*
X245865095Y-58341030D02*
X246324465Y-57881660D01*
X246324465Y-57881660D02*
X247669780Y-57881660D01*
X246324465Y-57881660D02*
X247669780Y-57881660D01*
X142280285Y-54769140D02*
X142280285Y-42708155D01*
X143470915Y-55959770D02*
X142280285Y-54769140D01*
X246460410Y-55959770D02*
X143470915Y-55959770D01*
X247669780Y-57169140D02*
X246460410Y-55959770D01*
X247669780Y-57881660D02*
X247669780Y-57169140D01*
G04 #@! TO.N,/RGBrow34*
X142856860Y-21450080D02*
X142856860Y-23081340D01*
X142875600Y-21431340D02*
X142856860Y-21450080D01*
X245865215Y-39290910D02*
X245865095Y-39291030D01*
X245865215Y-39290910D02*
X246324465Y-38831660D01*
X246324465Y-38831660D02*
X247669780Y-38831660D01*
X246324465Y-38831660D02*
X247669780Y-38831660D01*
X142280285Y-35719140D02*
X142280285Y-23658155D01*
X143470915Y-36909770D02*
X142280285Y-35719140D01*
X246460410Y-36909770D02*
X143470915Y-36909770D01*
X247669780Y-38119140D02*
X246460410Y-36909770D01*
X247669780Y-38831660D02*
X247669780Y-38119140D01*
G04 #@! TD*
M02*
