M48
;DRILL file {KiCad (5.0.2)-1} date 4/21/2019 2:01:47 AM
;FORMAT={-:-/ absolute / inch / decimal}
FMAT,2
INCH,TZ
T1C0.0236
T2C0.0256
T3C0.0472
T4C0.0670
T5C0.0748
T6C0.1200
T7C0.1570
T8C0.1594
%
G90
G05
T2
X10.5571Y-6.087
X10.5571Y-6.3146
X10.5571Y-6.087
X10.5571Y-6.3146
T3
X10.4685Y-6.5335
X10.4685Y-6.6024
X10.7441Y-6.5335
X10.7441Y-6.6024
T4
X9.4563Y-6.375
X9.8563Y-6.375
X5.5188Y-6.375
X5.5188Y-7.875
X6.4563Y-4.875
X6.8563Y-4.875
X10.2063Y-7.125
X10.6063Y-7.125
X7.2063Y-7.875
X7.6063Y-7.875
X6.4563Y-6.375
X6.8563Y-6.375
X9.9954Y-8.0979
X10.3418Y-8.2979
X8.7063Y-5.625
X9.1063Y-5.625
X5.5187Y-4.875
X10.645Y-8.4743
X10.9914Y-8.6743
X8.7063Y-6.375
X9.1063Y-6.375
X7.9563Y-5.625
X8.3563Y-5.625
X10.5307Y-9.0726
X10.7307Y-8.7262
X9.4563Y-7.125
X9.8563Y-7.125
X5.5187Y-5.625
X6.4563Y-5.625
X6.8563Y-5.625
X10.2699Y-9.1246
X10.6164Y-9.3246
X6.4563Y-7.125
X6.8563Y-7.125
X8.7063Y-7.125
X9.1063Y-7.125
X9.4563Y-4.875
X9.8563Y-4.875
X7.9563Y-4.875
X8.3563Y-4.875
X9.6203Y-8.7498
X9.9667Y-8.9498
X9.8811Y-8.6978
X10.0811Y-8.3514
X9.4563Y-5.625
X9.8563Y-5.625
X7.2063Y-7.125
X7.6063Y-7.125
X5.5188Y-7.125
X8.7063Y-4.875
X9.1063Y-4.875
X7.2063Y-4.875
X7.6063Y-4.875
X7.2063Y-6.375
X7.6063Y-6.375
X7.9563Y-7.125
X8.3563Y-7.125
X7.9563Y-6.375
X8.3563Y-6.375
X6.4563Y-7.875
X6.8563Y-7.875
X7.2063Y-5.625
X7.6063Y-5.625
X8.7063Y-7.875
X9.1063Y-7.875
X7.9563Y-7.875
X8.3563Y-7.875
T5
X9.4397Y-4.875
X9.8728Y-4.875
X7.9397Y-4.875
X8.3728Y-4.875
X9.606Y-8.7415
X9.9811Y-8.958
X9.8728Y-8.7121
X10.0893Y-8.3371
X9.4397Y-5.625
X9.8728Y-5.625
X7.1898Y-7.125
X7.6228Y-7.125
X5.5022Y-7.125
X8.6897Y-4.875
X9.1228Y-4.875
X7.1897Y-4.875
X7.6228Y-4.875
X7.1898Y-6.375
X7.6228Y-6.375
X7.9398Y-7.125
X8.3728Y-7.125
X7.9398Y-6.375
X8.3728Y-6.375
X6.4397Y-7.875
X6.8728Y-7.875
X7.1897Y-5.625
X7.6228Y-5.625
X8.6898Y-7.875
X9.1228Y-7.875
X7.9398Y-7.875
X8.3728Y-7.875
X9.4398Y-6.375
X9.8728Y-6.375
X5.5022Y-6.375
X5.5022Y-7.875
X6.4397Y-4.875
X6.8728Y-4.875
X10.1898Y-7.125
X10.6228Y-7.125
X7.1898Y-7.875
X7.6228Y-7.875
X6.4397Y-6.375
X6.8728Y-6.375
X9.9811Y-8.0896
X10.3561Y-8.3061
X8.6897Y-5.625
X9.1228Y-5.625
X5.5022Y-4.875
X10.6307Y-8.466
X11.0057Y-8.6825
X8.6898Y-6.375
X9.1228Y-6.375
X7.9397Y-5.625
X8.3728Y-5.625
X10.5224Y-9.0869
X10.7389Y-8.7119
X9.4398Y-7.125
X9.8728Y-7.125
X5.5022Y-5.625
X6.4397Y-5.625
X6.8728Y-5.625
X10.2556Y-9.1163
X10.6307Y-9.3328
X6.4397Y-7.125
X6.8728Y-7.125
X8.6898Y-7.125
X9.1228Y-7.125
T6
X9.9842Y-9.0691
X10.4542Y-8.2551
X10.1575Y-9.1689
X10.6275Y-8.3549
T7
X10.8182Y-8.5743
X8.9063Y-6.375
X8.9063Y-1.0313
X8.9063Y-1.7813
X9.9811Y-0.3809
X5.9063Y-3.2813
X8.1563Y-5.625
X9.6563Y-4.0313
X10.6307Y-8.8994
X9.6563Y-7.125
X8.1563Y-2.5313
X5.7188Y-1.7813
X5.7187Y-5.625
X5.9062Y-5.63
X10.4063Y-1.7813
X10.1686Y-0.7046
X6.6563Y-5.625
X7.4063Y-4.0313
X9.4646Y-8.7691
X9.9346Y-7.9551
X10.4431Y-9.2246
X5.7188Y-4.0313
X6.6563Y-7.125
X8.9063Y-7.125
X5.7188Y-2.5313
X8.9063Y-2.5313
X9.6563Y-4.875
X5.9063Y-1.0313
X10.6771Y-9.4689
X11.1471Y-8.6549
X10.8182Y-0.3309
X8.1563Y-4.875
X6.6563Y-4.0313
X9.7935Y-8.8498
X9.9811Y-8.5246
X9.6563Y-5.625
X7.4063Y-7.125
X5.7188Y-7.125
X5.9063Y-7.13
X7.4063Y-1.0313
X5.7188Y-1.0313
X10.6307Y-0.0065
X8.9063Y-4.875
X5.9063Y-1.7813
X7.4063Y-4.875
X7.4063Y-1.7813
X6.6563Y-3.2813
X7.4063Y-6.375
X8.1563Y-7.125
X8.1563Y-6.375
X6.6563Y-7.875
X9.6563Y-1.7813
X9.6563Y-2.5313
X8.1563Y-3.2813
X10.4431Y0.318
X5.9063Y-2.5313
X6.6563Y-2.5313
X7.4063Y-5.625
X8.9063Y-4.0313
X8.9063Y-7.875
X8.1563Y-7.875
X9.6563Y-6.375
X5.7188Y-6.375
X5.9063Y-6.38
X5.7188Y-7.875
X5.9063Y-7.88
X8.1563Y-1.7813
X8.9063Y-3.2813
X8.1563Y-1.0313
X6.6563Y-4.875
X5.9063Y-4.0313
X9.7935Y-0.0572
X10.4063Y-7.125
X7.4063Y-7.875
X6.6563Y-6.375
X10.1686Y-8.1979
X7.4063Y-2.5313
X9.6563Y-3.2813
X7.4063Y-3.2813
X6.6563Y-1.7813
X8.9063Y-5.625
X6.6563Y-1.0313
X8.1563Y-4.0313
X5.7188Y-3.2813
X5.7187Y-4.875
X5.9062Y-4.88
T8
X9.9842Y0.1636
X10.4542Y-0.6504
X10.1575Y0.263
X10.6275Y-0.551
T1
X10.5579Y-6.0307G85X10.5146Y-6.0307
G05
X10.5579Y-6.3709G85X10.5146Y-6.3709
G05
X10.7126Y-6.0307G85X10.689Y-6.0307
G05
X10.7126Y-6.3709G85X10.689Y-6.3709
G05
X10.5146Y-6.0307G85X10.5579Y-6.0307
G05
X10.5146Y-6.3709G85X10.5579Y-6.3709
G05
X10.689Y-6.0307G85X10.7126Y-6.0307
G05
X10.689Y-6.3709G85X10.7126Y-6.3709
G05
T3
X10.5935Y-8.4673G85X10.6132Y-8.4332
G05
X11.0231Y-8.7153G85X11.0428Y-8.6812
G05
X5.5645Y-5.6054G85X5.5645Y-5.6447
G05
X6.0606Y-5.6054G85X6.0606Y-5.6447
G05
X9.9439Y-8.0909G85X9.9636Y-8.0568
G05
X10.3735Y-8.3389G85X10.3932Y-8.3048
G05
X5.5645Y-7.1054G85X5.5645Y-7.1447
G05
X6.0606Y-7.1054G85X6.0606Y-7.1447
G05
X5.5645Y-7.8554G85X5.5645Y-7.8947
G05
X6.0606Y-7.8554G85X6.0606Y-7.8947
G05
X5.5645Y-4.8554G85X5.5645Y-4.8947
G05
X6.0606Y-4.8554G85X6.0606Y-4.8947
G05
X10.1583Y-7.1053G85X10.1583Y-7.1447
G05
X10.6543Y-7.1053G85X10.6543Y-7.1447
G05
X5.5645Y-6.3554G85X5.5645Y-6.3947
G05
X6.0606Y-6.3554G85X6.0606Y-6.3947
G05
T7
X9.4646Y-0.1364G85X9.4305Y-0.1561
G05
X9.9346Y-0.9504G85X9.9005Y-0.9701
G05
X10.6771Y0.563G85X10.7112Y0.5827
G05
X11.1471Y-0.251G85X11.1812Y-0.2313
G05
T0
M30
