M48
;DRILL file {KiCad (5.0.2)-1} date 4/21/2019 2:01:47 AM
;FORMAT={-:-/ absolute / inch / decimal}
FMAT,2
INCH,TZ
T1C0.0157
T2C0.0394
T3C0.0472
T4C0.0591
%
G90
G05
T1
X5.6063Y-5.2264
X5.6063Y-5.9764
X5.6063Y-6.7264
X5.6063Y-7.4764
X5.625Y-0.8438
X5.625Y-1.5938
X5.625Y-2.3438
X5.625Y-3.0938
X5.625Y-3.8438
X7.6811Y-5.9528
X7.7008Y-5.2717
X9.2165Y-6.4724
X9.2165Y-6.5551
X9.2205Y-7.4646
X9.2964Y-5.2872
X9.3047Y-0.9141
X9.375Y-0.9375
X9.3784Y-7.2619
X9.475Y-6.0486
X9.6797Y-1.5469
X9.6797Y-2.2969
X9.6797Y-3.0469
X9.6797Y-3.7969
X9.7703Y-1.007
X9.7811Y-8.9561
X9.836Y-8.185
X9.9311Y-5.1181
X9.961Y-1.5469
X10.0177Y-6.1201
X10.0177Y-6.563
X10.0179Y-6.374
X10.0197Y-0.248
X10.0782Y-0.3047
X10.0866Y-2.5315
X10.1102Y-0.248
X10.1181Y-0.4449
X10.1848Y-8.0688
X10.2165Y-7.5197
X10.2283Y-7.4331
X10.2874Y-5.7559
X10.3346Y-6.1043
X10.3386Y-7.4803
X10.3661Y-5.752
X10.3829Y-0.0938
X10.3937Y-6.1929
X10.4016Y-5.6693
X10.4055Y-5.7953
X10.4114Y-6.0748
X10.4331Y-7.5315
X10.4532Y-0.375
X10.4567Y-5.5945
X10.4685Y-6.3543
X10.5469Y0.1641
X10.5469Y-4.9173
X10.5492Y-6.122
X10.5521Y-4.6172
X10.5551Y-5.752
X10.563Y-6.2087
X10.5669Y-6.2835
X10.6102Y-5.7677
X10.6641Y-0.375
X10.7598Y-5.5945
X10.8189Y-0.1102
X10.8189Y-0.2126
T2
X10.9Y-1.6406
X10.9774Y-5.2944
X10.9933Y-1.922
X5.7141Y-6.8494
X5.7141Y-7.4203
X5.8125Y-7.4203
X5.9109Y-6.8494
X5.9109Y-7.4203
X7.7813Y-4.8152
X7.7813Y-5.1223
X7.0313Y-7.0652
X7.0313Y-7.3723
X10.6063Y-4.8145
X8.5313Y-5.5652
X8.5313Y-5.8723
X7.7813Y-6.3152
X7.7813Y-6.6223
X5.7141Y-7.5994
X5.7141Y-8.1703
X5.8125Y-8.1703
X5.9109Y-7.5994
X5.9109Y-8.1703
X7.0313Y-4.8152
X7.0313Y-5.1223
X10.9774Y-5.9558
X10.2184Y-2.7188
X10.4303Y-0.5039
X5.3903Y-1.2656
X5.2973Y-3.7969
X5.7141Y-4.5994
X5.7141Y-5.1703
X5.8125Y-5.1703
X5.9109Y-4.5994
X5.9109Y-5.1703
X6.3281Y-4.8152
X6.3281Y-5.1223
X6.2344Y-7.0652
X6.2344Y-7.3723
X6.2344Y-7.8152
X6.2344Y-8.1223
X6.3281Y-5.5652
X6.3281Y-5.8723
X10.3079Y-6.8494
X10.3079Y-7.4203
X10.4063Y-7.4203
X10.5047Y-6.8494
X10.5047Y-7.4203
X10.2188Y-2.6257
X10.8844Y-5.9558
X5.3903Y-3.5156
X10.1803Y0.1154
X10.9933Y-1.6406
X9.2344Y-7.8152
X9.2344Y-8.1223
X6.2344Y-4.8152
X6.2344Y-5.1223
X9.2813Y-7.0652
X9.2813Y-7.3723
X6.2344Y-6.3152
X6.2344Y-6.6223
X9.6563Y-7.8152
X9.6563Y-8.1223
X9.2813Y-4.8152
X9.2813Y-5.1223
X10.2184Y-2.4368
X10.8836Y-6.5624
X10.9Y-1.922
X10.0996Y0.0689
X10.8836Y-6.6554
X8.5313Y-7.8152
X8.5313Y-8.1223
X5.7141Y-6.0994
X5.7141Y-6.6703
X5.8125Y-6.6703
X5.9109Y-6.0994
X5.9109Y-6.6703
X9.375Y-7.8152
X9.375Y-8.1223
X9.2813Y-5.5652
X9.2813Y-5.8723
X8.5313Y-6.3152
X8.5313Y-6.6223
X8.5313Y-4.8152
X8.5313Y-5.1223
X10.2188Y-2.3438
X5.2973Y-1.5469
X10.9Y-3.8906
X10.5873Y-8.7773
X10.7578Y-8.8758
X10.8806Y-8.2693
X10.9658Y-8.3185
X11.0511Y-8.3677
X10.8836Y-6.9376
X5.2973Y-1.2656
X6.3281Y-7.8152
X6.3281Y-8.1223
X7.0313Y-6.3152
X7.0313Y-6.6223
X7.7813Y-7.8152
X7.7813Y-8.1223
X7.7813Y-5.5652
X7.7813Y-5.8723
X6.3281Y-7.0652
X6.3281Y-7.3723
X10.9929Y-4.172
X5.3903Y-1.5469
X10.993Y-3.8906
X10.0313Y-7.0418
X10.0313Y-7.3489
X10.8836Y-6.8446
X10.5106Y-0.4575
X10.8845Y-5.2943
X7.7813Y-7.0652
X7.7813Y-7.3723
X5.7141Y-5.3494
X5.7141Y-5.9203
X5.8125Y-5.9203
X5.9109Y-5.3494
X5.9109Y-5.9203
X6.3281Y-6.3152
X6.3281Y-6.6223
X7.0313Y-7.8152
X7.0313Y-8.1223
X7.0313Y-5.5652
X7.0313Y-5.8723
X8.5313Y-7.0652
X8.5313Y-7.3723
X5.2973Y-3.5156
X10.2559Y-5.9252
X10.3559Y-5.9252
X10.4559Y-5.9252
X10.5559Y-5.9252
X10.9Y-4.172
X5.3903Y-3.7969
X9.2813Y-6.3152
X9.2813Y-6.6223
X9.9388Y-8.4004
X10.1093Y-8.4989
X10.231Y-7.8929
X10.3162Y-7.9422
X10.4015Y-7.9914
X10.1063Y-4.6145
X10.1063Y-4.7145
X10.1063Y-4.8145
X10.1063Y-4.9145
X10.1063Y-5.0145
X10.1063Y-5.1145
X10.1063Y-5.2145
X10.1063Y-5.3145
X10.1063Y-5.4145
X10.1063Y-5.5145
X10.1063Y-5.6145
X10.1063Y-5.7145
X10.7063Y-4.6145
X10.7063Y-4.7145
X10.7063Y-4.8145
X10.7063Y-4.9145
X10.7063Y-5.0145
X10.7063Y-5.1145
X10.7063Y-5.2145
X10.7063Y-5.3145
X10.7063Y-5.4145
X10.7063Y-5.5145
X10.7063Y-5.6145
X10.7063Y-5.7145
X9.5157Y-7.8152
X9.5157Y-8.1223
X6.2344Y-5.5652
X6.2344Y-5.8723
T2
X10.3484Y-6.5197G85X10.3287Y-6.5197
G05
X10.3484Y-6.6161G85X10.3287Y-6.6161
G05
X10.4075Y-6.4508G85X10.3878Y-6.4508
G05
X10.4075Y-6.685G85X10.3878Y-6.685
G05
X10.565Y-6.4508G85X10.5453Y-6.4508
G05
X10.565Y-6.685G85X10.5453Y-6.685
G05
X10.6831Y-6.4508G85X10.6634Y-6.4508
G05
X10.6831Y-6.685G85X10.6634Y-6.685
G05
T3
X10.1979Y-9.2557G85X10.1979Y-9.2557
G05
X10.327Y-9.4257G85X10.327Y-9.4257
G05
X10.5388Y-9.4526G85X10.5388Y-9.4526
G05
X6.4594Y-6.9754G85X6.4594Y-6.9754
G05
X6.6563Y-6.8928G85X6.6563Y-6.8928
G05
X6.8531Y-6.9754G85X6.8531Y-6.9754
G05
X8.7094Y-6.9754G85X8.7094Y-6.9754
G05
X8.9063Y-6.8928G85X8.9063Y-6.8928
G05
X9.1031Y-6.9754G85X9.1031Y-6.9754
G05
X9.4594Y-4.7254G85X9.4594Y-4.7254
G05
X9.6563Y-4.6427G85X9.6563Y-4.6427
G05
X9.8531Y-4.7254G85X9.8531Y-4.7254
G05
X7.9594Y-4.7254G85X7.9594Y-4.7254
G05
X8.1563Y-4.6427G85X8.1563Y-4.6427
G05
X8.3531Y-4.7254G85X8.3531Y-4.7254
G05
X9.5483Y-8.8809G85X9.5483Y-8.8809
G05
X9.6774Y-9.0509G85X9.6774Y-9.0509
G05
X9.8892Y-9.0778G85X9.8892Y-9.0778
G05
X9.7531Y-8.6203G85X9.7531Y-8.6203
G05
X9.7799Y-8.4085G85X9.7799Y-8.4085
G05
X9.9499Y-8.2793G85X9.9499Y-8.2793
G05
X9.4594Y-5.4754G85X9.4594Y-5.4754
G05
X9.6563Y-5.3927G85X9.6563Y-5.3927
G05
X9.8531Y-5.4754G85X9.8531Y-5.4754
G05
X7.2094Y-6.9754G85X7.2094Y-6.9754
G05
X7.4063Y-6.8928G85X7.4063Y-6.8928
G05
X7.6031Y-6.9754G85X7.6031Y-6.9754
G05
X5.5219Y-6.9754G85X5.5219Y-6.9754
G05
X5.7188Y-6.8928G85X5.7188Y-6.8928
G05
X5.9156Y-6.9754G85X5.9156Y-6.9754
G05
X6.0559Y-6.9282G85X6.0559Y-6.9282
G05
X6.0559Y-7.3219G85X6.0559Y-7.3219
G05
X6.1386Y-7.125G85X6.1386Y-7.125
G05
X8.7094Y-4.7254G85X8.7094Y-4.7254
G05
X8.9063Y-4.6427G85X8.9063Y-4.6427
G05
X9.1031Y-4.7254G85X9.1031Y-4.7254
G05
X7.2094Y-4.7254G85X7.2094Y-4.7254
G05
X7.4063Y-4.6427G85X7.4063Y-4.6427
G05
X7.6031Y-4.7254G85X7.6031Y-4.7254
G05
X7.2094Y-6.2254G85X7.2094Y-6.2254
G05
X7.4063Y-6.1428G85X7.4063Y-6.1428
G05
X7.6031Y-6.2254G85X7.6031Y-6.2254
G05
X7.9594Y-6.9754G85X7.9594Y-6.9754
G05
X8.1563Y-6.8928G85X8.1563Y-6.8928
G05
X8.3531Y-6.9754G85X8.3531Y-6.9754
G05
X7.9594Y-6.2254G85X7.9594Y-6.2254
G05
X8.1563Y-6.1428G85X8.1563Y-6.1428
G05
X8.3531Y-6.2254G85X8.3531Y-6.2254
G05
X6.4594Y-7.7254G85X6.4594Y-7.7254
G05
X6.6563Y-7.6428G85X6.6563Y-7.6428
G05
X6.8531Y-7.7254G85X6.8531Y-7.7254
G05
X7.2094Y-5.4754G85X7.2094Y-5.4754
G05
X7.4063Y-5.3927G85X7.4063Y-5.3927
G05
X7.6031Y-5.4754G85X7.6031Y-5.4754
G05
X8.7094Y-7.7254G85X8.7094Y-7.7254
G05
X8.9063Y-7.6428G85X8.9063Y-7.6428
G05
X9.1031Y-7.7254G85X9.1031Y-7.7254
G05
X7.9594Y-7.7254G85X7.9594Y-7.7254
G05
X8.1563Y-7.6428G85X8.1563Y-7.6428
G05
X8.3531Y-7.7254G85X8.3531Y-7.7254
G05
X9.4594Y-6.2254G85X9.4594Y-6.2254
G05
X9.6563Y-6.1428G85X9.6563Y-6.1428
G05
X9.8531Y-6.2254G85X9.8531Y-6.2254
G05
X5.5219Y-6.2254G85X5.5219Y-6.2254
G05
X5.7188Y-6.1428G85X5.7188Y-6.1428
G05
X5.9156Y-6.2254G85X5.9156Y-6.2254
G05
X6.0559Y-6.1782G85X6.0559Y-6.1782
G05
X6.0559Y-6.5719G85X6.0559Y-6.5719
G05
X6.1386Y-6.375G85X6.1386Y-6.375
G05
X5.5219Y-7.7254G85X5.5219Y-7.7254
G05
X5.7188Y-7.6428G85X5.7188Y-7.6428
G05
X5.9156Y-7.7254G85X5.9156Y-7.7254
G05
X6.0559Y-7.6782G85X6.0559Y-7.6782
G05
X6.0559Y-8.0719G85X6.0559Y-8.0719
G05
X6.1386Y-7.875G85X6.1386Y-7.875
G05
X6.4594Y-4.7254G85X6.4594Y-4.7254
G05
X6.6563Y-4.6427G85X6.6563Y-4.6427
G05
X6.8531Y-4.7254G85X6.8531Y-4.7254
G05
X10.2094Y-6.9754G85X10.2094Y-6.9754
G05
X10.4063Y-6.8927G85X10.4063Y-6.8927
G05
X10.6031Y-6.9754G85X10.6031Y-6.9754
G05
X7.2094Y-7.7254G85X7.2094Y-7.7254
G05
X7.4063Y-7.6428G85X7.4063Y-7.6428
G05
X7.6031Y-7.7254G85X7.6031Y-7.7254
G05
X6.4594Y-6.2254G85X6.4594Y-6.2254
G05
X6.6563Y-6.1428G85X6.6563Y-6.1428
G05
X6.8531Y-6.2254G85X6.8531Y-6.2254
G05
X10.0729Y-7.9699G85X10.0729Y-7.9699
G05
X10.2847Y-7.9967G85X10.2847Y-7.9967
G05
X10.4139Y-8.1667G85X10.4139Y-8.1667
G05
X8.7094Y-5.4754G85X8.7094Y-5.4754
G05
X8.9063Y-5.3927G85X8.9063Y-5.3927
G05
X9.1031Y-5.4754G85X9.1031Y-5.4754
G05
X5.5219Y-4.7254G85X5.5219Y-4.7254
G05
X5.7187Y-4.6427G85X5.7187Y-4.6427
G05
X5.9156Y-4.7254G85X5.9156Y-4.7254
G05
X6.0558Y-4.6781G85X6.0558Y-4.6781
G05
X6.0558Y-5.0719G85X6.0558Y-5.0719
G05
X6.1385Y-4.875G85X6.1385Y-4.875
G05
X10.7225Y-8.3463G85X10.7225Y-8.3463
G05
X10.9343Y-8.3731G85X10.9343Y-8.3731
G05
X11.0635Y-8.5431G85X11.0635Y-8.5431
G05
X8.7094Y-6.2254G85X8.7094Y-6.2254
G05
X8.9063Y-6.1428G85X8.9063Y-6.1428
G05
X9.1031Y-6.2254G85X9.1031Y-6.2254
G05
X7.9594Y-5.4754G85X7.9594Y-5.4754
G05
X8.1563Y-5.3927G85X8.1563Y-5.3927
G05
X8.3531Y-5.4754G85X8.3531Y-5.4754
G05
X10.4027Y-8.9951G85X10.4027Y-8.9951
G05
X10.4295Y-8.7833G85X10.4295Y-8.7833
G05
X10.5995Y-8.6541G85X10.5995Y-8.6541
G05
X9.4594Y-6.9754G85X9.4594Y-6.9754
G05
X9.6563Y-6.8928G85X9.6563Y-6.8928
G05
X9.8531Y-6.9754G85X9.8531Y-6.9754
G05
X5.5219Y-5.4754G85X5.5219Y-5.4754
G05
X5.7187Y-5.3927G85X5.7187Y-5.3927
G05
X5.9156Y-5.4754G85X5.9156Y-5.4754
G05
X6.0558Y-5.4281G85X6.0558Y-5.4281
G05
X6.0558Y-5.8219G85X6.0558Y-5.8219
G05
X6.1385Y-5.625G85X6.1385Y-5.625
G05
X6.4594Y-5.4754G85X6.4594Y-5.4754
G05
X6.6563Y-5.3927G85X6.6563Y-5.3927
G05
X6.8531Y-5.4754G85X6.8531Y-5.4754
G05
T4
X6.5063Y-5.525G85X6.5063Y-5.525
G05
X6.5563Y-5.425G85X6.5563Y-5.425
G05
X6.7563Y-5.425G85X6.7563Y-5.425
G05
X6.8063Y-5.525G85X6.8063Y-5.525
G05
X10.2565Y-9.3478G85X10.2565Y-9.3478
G05
X10.2632Y-9.2362G85X10.2632Y-9.2362
G05
X10.4298Y-9.4478G85X10.4298Y-9.4478
G05
X10.5231Y-9.3862G85X10.5231Y-9.3862
G05
X6.5063Y-7.025G85X6.5063Y-7.025
G05
X6.5563Y-6.925G85X6.5563Y-6.925
G05
X6.7563Y-6.925G85X6.7563Y-6.925
G05
X6.8063Y-7.025G85X6.8063Y-7.025
G05
X8.7563Y-7.025G85X8.7563Y-7.025
G05
X8.8063Y-6.925G85X8.8063Y-6.925
G05
X9.0063Y-6.925G85X9.0063Y-6.925
G05
X9.0563Y-7.025G85X9.0563Y-7.025
G05
X9.5063Y-4.775G85X9.5063Y-4.775
G05
X9.5563Y-4.675G85X9.5563Y-4.675
G05
X9.7563Y-4.675G85X9.7563Y-4.675
G05
X9.8063Y-4.775G85X9.8063Y-4.775
G05
X8.0063Y-4.775G85X8.0063Y-4.775
G05
X8.0563Y-4.675G85X8.0563Y-4.675
G05
X8.2563Y-4.675G85X8.2563Y-4.675
G05
X8.3063Y-4.775G85X8.3063Y-4.775
G05
X9.6069Y-8.973G85X9.6069Y-8.973
G05
X9.6136Y-8.8614G85X9.6136Y-8.8614
G05
X9.7801Y-9.073G85X9.7801Y-9.073
G05
X9.8734Y-9.0114G85X9.8734Y-9.0114
G05
X9.7579Y-8.5112G85X9.7579Y-8.5112
G05
X9.8195Y-8.6045G85X9.8195Y-8.6045
G05
X9.8579Y-8.338G85X9.8579Y-8.338
G05
X9.9695Y-8.3447G85X9.9695Y-8.3447
G05
X9.5063Y-5.525G85X9.5063Y-5.525
G05
X9.5563Y-5.425G85X9.5563Y-5.425
G05
X9.7563Y-5.425G85X9.7563Y-5.425
G05
X9.8063Y-5.525G85X9.8063Y-5.525
G05
X7.2563Y-7.025G85X7.2563Y-7.025
G05
X7.3063Y-6.925G85X7.3063Y-6.925
G05
X7.5063Y-6.925G85X7.5063Y-6.925
G05
X7.5563Y-7.025G85X7.5563Y-7.025
G05
X5.5688Y-7.025G85X5.5688Y-7.025
G05
X5.6188Y-6.925G85X5.6188Y-6.925
G05
X5.8188Y-6.925G85X5.8188Y-6.925
G05
X5.8688Y-7.025G85X5.8688Y-7.025
G05
X6.0063Y-6.975G85X6.0063Y-6.975
G05
X6.0063Y-7.275G85X6.0063Y-7.275
G05
X6.1063Y-7.025G85X6.1063Y-7.025
G05
X6.1063Y-7.225G85X6.1063Y-7.225
G05
X8.7563Y-4.775G85X8.7563Y-4.775
G05
X8.8063Y-4.675G85X8.8063Y-4.675
G05
X9.0063Y-4.675G85X9.0063Y-4.675
G05
X9.0563Y-4.775G85X9.0563Y-4.775
G05
X7.2563Y-4.775G85X7.2563Y-4.775
G05
X7.3063Y-4.675G85X7.3063Y-4.675
G05
X7.5063Y-4.675G85X7.5063Y-4.675
G05
X7.5563Y-4.775G85X7.5563Y-4.775
G05
X7.2563Y-6.275G85X7.2563Y-6.275
G05
X7.3063Y-6.175G85X7.3063Y-6.175
G05
X7.5063Y-6.175G85X7.5063Y-6.175
G05
X7.5563Y-6.275G85X7.5563Y-6.275
G05
X8.0063Y-7.025G85X8.0063Y-7.025
G05
X8.0563Y-6.925G85X8.0563Y-6.925
G05
X8.2563Y-6.925G85X8.2563Y-6.925
G05
X8.3063Y-7.025G85X8.3063Y-7.025
G05
X8.0063Y-6.275G85X8.0063Y-6.275
G05
X8.0563Y-6.175G85X8.0563Y-6.175
G05
X8.2563Y-6.175G85X8.2563Y-6.175
G05
X8.3063Y-6.275G85X8.3063Y-6.275
G05
X6.5063Y-7.775G85X6.5063Y-7.775
G05
X6.5563Y-7.675G85X6.5563Y-7.675
G05
X6.7563Y-7.675G85X6.7563Y-7.675
G05
X6.8063Y-7.775G85X6.8063Y-7.775
G05
X7.2563Y-5.525G85X7.2563Y-5.525
G05
X7.3063Y-5.425G85X7.3063Y-5.425
G05
X7.5063Y-5.425G85X7.5063Y-5.425
G05
X7.5563Y-5.525G85X7.5563Y-5.525
G05
X8.7563Y-7.775G85X8.7563Y-7.775
G05
X8.8063Y-7.675G85X8.8063Y-7.675
G05
X9.0063Y-7.675G85X9.0063Y-7.675
G05
X9.0563Y-7.775G85X9.0563Y-7.775
G05
X8.0063Y-7.775G85X8.0063Y-7.775
G05
X8.0563Y-7.675G85X8.0563Y-7.675
G05
X8.2563Y-7.675G85X8.2563Y-7.675
G05
X8.3063Y-7.775G85X8.3063Y-7.775
G05
X9.5063Y-6.275G85X9.5063Y-6.275
G05
X9.5563Y-6.175G85X9.5563Y-6.175
G05
X9.7563Y-6.175G85X9.7563Y-6.175
G05
X9.8063Y-6.275G85X9.8063Y-6.275
G05
X5.5688Y-6.275G85X5.5688Y-6.275
G05
X5.6188Y-6.175G85X5.6188Y-6.175
G05
X5.8188Y-6.175G85X5.8188Y-6.175
G05
X5.8688Y-6.275G85X5.8688Y-6.275
G05
X6.0063Y-6.225G85X6.0063Y-6.225
G05
X6.0063Y-6.525G85X6.0063Y-6.525
G05
X6.1063Y-6.275G85X6.1063Y-6.275
G05
X6.1063Y-6.475G85X6.1063Y-6.475
G05
X5.5688Y-7.775G85X5.5688Y-7.775
G05
X5.6188Y-7.675G85X5.6188Y-7.675
G05
X5.8188Y-7.675G85X5.8188Y-7.675
G05
X5.8688Y-7.775G85X5.8688Y-7.775
G05
X6.0063Y-7.725G85X6.0063Y-7.725
G05
X6.0063Y-8.025G85X6.0063Y-8.025
G05
X6.1063Y-7.775G85X6.1063Y-7.775
G05
X6.1063Y-7.975G85X6.1063Y-7.975
G05
X6.5063Y-4.775G85X6.5063Y-4.775
G05
X6.5563Y-4.675G85X6.5563Y-4.675
G05
X6.7563Y-4.675G85X6.7563Y-4.675
G05
X6.8063Y-4.775G85X6.8063Y-4.775
G05
X10.2563Y-7.025G85X10.2563Y-7.025
G05
X10.3063Y-6.925G85X10.3063Y-6.925
G05
X10.5063Y-6.925G85X10.5063Y-6.925
G05
X10.5563Y-7.025G85X10.5563Y-7.025
G05
X7.2563Y-7.775G85X7.2563Y-7.775
G05
X7.3063Y-7.675G85X7.3063Y-7.675
G05
X7.5063Y-7.675G85X7.5063Y-7.675
G05
X7.5563Y-7.775G85X7.5563Y-7.775
G05
X6.5063Y-6.275G85X6.5063Y-6.275
G05
X6.5563Y-6.175G85X6.5563Y-6.175
G05
X6.7563Y-6.175G85X6.7563Y-6.175
G05
X6.8063Y-6.275G85X6.8063Y-6.275
G05
X10.0887Y-8.0363G85X10.0887Y-8.0363
G05
X10.182Y-7.9747G85X10.182Y-7.9747
G05
X10.3485Y-8.1863G85X10.3485Y-8.1863
G05
X10.3552Y-8.0747G85X10.3552Y-8.0747
G05
X8.7563Y-5.525G85X8.7563Y-5.525
G05
X8.8063Y-5.425G85X8.8063Y-5.425
G05
X9.0063Y-5.425G85X9.0063Y-5.425
G05
X9.0563Y-5.525G85X9.0563Y-5.525
G05
X5.5687Y-4.775G85X5.5687Y-4.775
G05
X5.6187Y-4.675G85X5.6187Y-4.675
G05
X5.8187Y-4.675G85X5.8187Y-4.675
G05
X5.8687Y-4.775G85X5.8687Y-4.775
G05
X6.0062Y-4.725G85X6.0062Y-4.725
G05
X6.0062Y-5.025G85X6.0062Y-5.025
G05
X6.1062Y-4.775G85X6.1062Y-4.775
G05
X6.1062Y-4.975G85X6.1062Y-4.975
G05
X10.7383Y-8.4126G85X10.7383Y-8.4126
G05
X10.8316Y-8.351G85X10.8316Y-8.351
G05
X10.9981Y-8.5626G85X10.9981Y-8.5626
G05
X11.0048Y-8.451G85X11.0048Y-8.451
G05
X8.7563Y-6.275G85X8.7563Y-6.275
G05
X8.8063Y-6.175G85X8.8063Y-6.175
G05
X9.0063Y-6.175G85X9.0063Y-6.175
G05
X9.0563Y-6.275G85X9.0563Y-6.275
G05
X8.0063Y-5.525G85X8.0063Y-5.525
G05
X8.0563Y-5.425G85X8.0563Y-5.425
G05
X8.2563Y-5.425G85X8.2563Y-5.425
G05
X8.3063Y-5.525G85X8.3063Y-5.525
G05
X10.4075Y-8.886G85X10.4075Y-8.886
G05
X10.4691Y-8.9793G85X10.4691Y-8.9793
G05
X10.5075Y-8.7128G85X10.5075Y-8.7128
G05
X10.6191Y-8.7195G85X10.6191Y-8.7195
G05
X9.5063Y-7.025G85X9.5063Y-7.025
G05
X9.5563Y-6.925G85X9.5563Y-6.925
G05
X9.7563Y-6.925G85X9.7563Y-6.925
G05
X9.8063Y-7.025G85X9.8063Y-7.025
G05
X5.5687Y-5.525G85X5.5687Y-5.525
G05
X5.6187Y-5.425G85X5.6187Y-5.425
G05
X5.8187Y-5.425G85X5.8187Y-5.425
G05
X5.8687Y-5.525G85X5.8687Y-5.525
G05
X6.0062Y-5.475G85X6.0062Y-5.475
G05
X6.0062Y-5.775G85X6.0062Y-5.775
G05
X6.1062Y-5.525G85X6.1062Y-5.525
G05
X6.1062Y-5.725G85X6.1062Y-5.725
G05
T0
M30
