M48
; DRILL file {KiCad (5.99.0-574-gd3edeaec5)} date 12/28/2019 10:11:54 AM
; FORMAT={-:-/ absolute / inch / decimal}
; #@! TF.CreationDate,2019-12-28T10:11:54-05:00
; #@! TF.GenerationSoftware,Kicad,Pcbnew,(5.99.0-574-gd3edeaec5)
; #@! TF.FileFunction,NonPlated,1,2,NPTH
FMAT,2
INCH
T1C0.0256
T2C0.0669
T3C0.1201
T4C0.1575
%
G90
G05
T1
X2.9065Y-3.8919
X3.1341Y-3.8919
T2
X3.9712Y-4.2497
X4.3712Y-4.2497
X4.4399Y-7.2497
X4.8399Y-7.2497
X7.7212Y-4.2497
X8.1212Y-4.2497
X11.0025Y-7.2497
X11.4025Y-7.2497
X12.9712Y-7.2497
X13.3712Y-7.2497
X9.9712Y-4.2497
X10.3712Y-4.2497
X5.4712Y-4.2497
X5.8712Y-4.2497
X5.6587Y-6.4997
X3.2212Y-4.2497
X10.9087Y-6.4997
X11.3087Y-6.4997
X6.0587Y-6.4997
X3.6212Y-4.2497
X12.7837Y-4.9997
X13.1837Y-4.9997
X12.5025Y-5.7497
X12.9025Y-5.7497
X14.1212Y-6.4997
X10.7212Y-4.2497
X11.1212Y-4.2497
X11.2837Y-5.7497
X11.6837Y-5.7497
X3.7837Y-5.7497
X4.1837Y-5.7497
X7.9087Y-6.4997
X11.8462Y-4.9997
X12.2462Y-4.9997
X10.3462Y-4.9997
X10.7462Y-4.9997
X8.3087Y-6.4997
X13.7212Y-6.4997
X2.4712Y-4.2497
X2.8712Y-4.2497
X8.6587Y-6.4997
X8.2837Y-5.7497
X12.2212Y-7.2497
X6.2212Y-4.2497
X6.6212Y-4.2497
X7.5337Y-5.7497
X7.9337Y-5.7497
X9.0587Y-6.4997
X12.6212Y-7.2497
X13.7212Y-5.7497
X14.1212Y-5.7497
X5.0962Y-4.9997
X5.4962Y-4.9997
X4.1587Y-6.4997
X4.5587Y-6.4997
X13.7212Y-4.9997
X14.1212Y-4.9997
X7.3462Y-4.9997
X7.7462Y-4.9997
X11.0962Y-4.9997
X11.4962Y-4.9997
X8.0962Y-4.9997
X8.4962Y-4.9997
X11.4712Y-4.2497
X11.8712Y-4.2497
X8.8462Y-4.9997
X9.2462Y-4.9997
X2.9399Y-6.4997
X3.3399Y-6.4997
X11.9399Y-6.4997
X12.3399Y-6.4997
X8.6837Y-5.7497
X4.3462Y-4.9997
X4.7462Y-4.9997
X5.1212Y-4.2497
X13.7212Y-4.2497
X14.1212Y-4.2497
X9.0337Y-5.7497
X9.4337Y-5.7497
X6.5962Y-4.9997
X6.9962Y-4.9997
X4.9337Y-5.7497
X10.0649Y-7.2497
X10.4649Y-7.2497
X12.9712Y-6.4997
X13.3712Y-6.4997
X9.2212Y-4.2497
X9.6212Y-4.2497
X4.5337Y-5.7497
X4.7212Y-4.2497
X10.1587Y-6.4997
X10.5587Y-6.4997
X13.7212Y-7.2497
X14.1212Y-7.2497
X6.4087Y-6.4997
X6.8087Y-6.4997
X2.5649Y-7.2497
X2.9649Y-7.2497
X6.2462Y-4.9997
X6.9712Y-4.2497
X5.8462Y-4.9997
X7.3712Y-4.2497
X8.4712Y-4.2497
X7.1587Y-6.4997
X7.2525Y-7.2497
X9.4087Y-6.4997
X5.6837Y-5.7497
X9.8087Y-6.4997
X6.0337Y-5.7497
X6.4337Y-5.7497
X5.2837Y-5.7497
X8.8712Y-4.2497
X3.5024Y-7.2497
X3.9024Y-7.2497
X6.7837Y-5.7497
X7.1837Y-5.7497
X12.5962Y-4.2497
X12.9962Y-4.2497
X10.1837Y-5.7497
X10.5337Y-5.7497
X10.9337Y-5.7497
X7.6525Y-7.2497
X9.7837Y-5.7497
X7.5587Y-6.4997
X2.6587Y-4.9997
X3.0587Y-4.9997
X2.7524Y-5.7497
X3.1524Y-5.7497
X3.5962Y-4.9997
X3.9962Y-4.9997
X9.5962Y-4.9997
X9.9962Y-4.9997
X4.9087Y-6.4997
X5.3087Y-6.4997
T3
X2.6714Y-6.2241
X3.6084Y-6.2241
X12.234Y-5.4741
X13.171Y-5.4741
X12.3277Y-3.9741
X13.2647Y-3.9741
X5.484Y-7.5253
X9.421Y-7.5253
T4
X9.0462Y-4.9997
X12.9837Y-4.9997
X8.8587Y-6.4997
X9.6087Y-6.4997
X3.7962Y-4.9997
X4.3587Y-6.4997
X7.9212Y-4.2497
X11.2962Y-4.9997
X13.1712Y-7.2497
X10.5462Y-4.9997
X8.1087Y-6.4997
X5.6712Y-4.2497
X13.9212Y-4.9997
X2.9524Y-5.7497
X12.0462Y-4.9997
X12.7025Y-5.7497
X13.171Y-6.0741
X2.6714Y-6.8241
X3.6084Y-6.8241
X11.1087Y-6.4997
X3.9837Y-5.7497
X4.5462Y-4.9997
X12.234Y-6.0741
X3.1399Y-6.4997
X5.1087Y-6.4997
X12.1399Y-6.4997
X5.8587Y-6.4997
X4.9212Y-4.2497
X10.9212Y-4.2497
X11.4837Y-5.7497
X3.7024Y-7.2497
X13.9212Y-6.4997
X7.7337Y-5.7497
X11.6712Y-4.2497
X12.4212Y-7.2497
X8.4837Y-5.7497
X9.2337Y-5.7497
X5.2962Y-4.9997
X12.3277Y-4.5741
X10.2649Y-7.2497
X8.6712Y-4.2497
X13.9212Y-4.2497
X6.4212Y-4.2497
X4.7337Y-5.7497
X6.6087Y-6.4997
X13.9212Y-5.7497
X2.7649Y-7.2497
X5.4837Y-5.7497
X10.1712Y-4.2497
X13.1712Y-6.4997
X6.7962Y-4.9997
X6.0462Y-4.9997
X6.2337Y-5.7497
X6.9837Y-5.7497
X9.4212Y-4.2497
X12.7962Y-4.2497
X13.2647Y-4.5741
X5.484Y-6.9253
X9.421Y-6.9253
X9.9837Y-5.7497
X7.1712Y-4.2497
X13.9212Y-7.2497
X7.5462Y-4.9997
X3.4212Y-4.2497
X10.7337Y-5.7497
X7.4525Y-7.2497
X9.7962Y-4.9997
X4.1712Y-4.2497
X4.6399Y-7.2497
X10.3587Y-6.4997
X8.2962Y-4.9997
X11.2025Y-7.2497
X7.3587Y-6.4997
X2.8587Y-4.9997
X2.6712Y-4.2497
T0
M30
