M48
INCH,TZ
T1C0.016
T2C0.024
T3C0.028
T4C0.031
T5C0.035
T6C0.039
T7C0.040
T8C0.045
%
G90
G05
T1
X4.8799Y-4.0728
X4.8898Y-4.0236
X4.8898Y-4.122
X4.9488Y-4.0079
X4.9488Y-4.185
X5.0394Y-3.9764
X5.4921Y-4.0217
X5.5197Y-3.9469
X5.5217Y-4.0413
X5.5354Y-3.9193
X5.5669Y-3.9193
X5.5709Y-4.061
X5.5827Y-3.9469
X5.5984Y-3.9193
X5.6142Y-3.9469
X5.6299Y-4.0413
X5.6457Y-3.9469
X5.6614Y-3.9193
X5.6772Y-3.9469
X5.689Y-4.061
X5.6929Y-3.9193
X5.7244Y-3.9193
X5.7382Y-4.0413
X5.7402Y-3.9469
X5.7677Y-4.0217
X6.6614Y-3.9469
X6.6634Y-4.0551
X6.6772Y-3.9193
X6.7087Y-3.9193
X6.7244Y-3.9469
X6.7402Y-3.9193
X6.7559Y-3.9469
X6.7717Y-4.0472
X6.7874Y-3.9469
X6.8031Y-3.9193
X6.8189Y-3.9469
X6.8346Y-3.9193
X6.8661Y-3.9193
X6.8819Y-3.9469
X7.063Y-4.2756
X7.063Y-4.4488
T2
X5.4594Y-3.689
X5.8004Y-3.689
X6.6012Y-3.689
X6.9421Y-3.689
T3
X5.0326Y-4.3307
X5.0826Y-4.3307
X5.1326Y-4.3307
X5.1826Y-4.3307
X5.2326Y-4.3307
X5.2826Y-4.3307
X5.3326Y-4.3307
X5.3826Y-4.3307
X5.4326Y-4.3307
X5.4826Y-4.3307
X5.5326Y-4.3307
X5.5826Y-4.3307
X5.6326Y-4.3307
X5.6826Y-4.3307
X5.7326Y-4.3307
X5.9826Y-4.3307
X6.0326Y-4.3307
X6.0826Y-4.3307
X6.1326Y-4.3307
X6.1826Y-4.3307
X6.2326Y-4.3307
X6.2756Y-3.939
X6.2826Y-4.3307
X6.3071Y-3.8917
X6.3386Y-3.939
X6.3701Y-3.8917
X6.4016Y-3.939
T4
X6.5492Y-4.5571
X6.5846Y-4.2697
X6.7894Y-4.2697
X6.9232Y-4.2697
X6.939Y-4.5571
T5
X6.4197Y-4.1339
X6.5197Y-4.1339
T6
X5.9394Y-3.6551
X5.9394Y-3.7551
X5.9394Y-3.8551
X5.9394Y-3.9551
X6.0079Y-4.2047
X6.0394Y-3.6551
X6.0394Y-3.9551
X6.0394Y-4.0551
X6.1079Y-4.2047
X6.2079Y-4.2047
T7
X6.6142Y-4.1339
X6.8504Y-4.1339
T8
X5.5433Y-4.1417
X5.7433Y-4.1417
T6
X4.8198Y-3.9314G85X4.8198Y-3.983
G05
X5.3371Y-3.9314G85X5.3371Y-3.983
G05
T0
M30
