G04 EAGLE Gerber RS-274X export*
G75*
%MOMM*%
%FSLAX34Y34*%
%LPD*%
%INVias*%
%IPPOS*%
%AMOC8*
5,1,8,0,0,1.08239X$1,22.5*%
G01*
%ADD10C,0.525000*%


D10*
X1687271Y2718D03*
X1632915Y56744D03*
X1614449Y151499D03*
X2747594Y731929D03*
X2647772Y731243D03*
X2847873Y729491D03*
X192024Y730098D03*
X292786Y731495D03*
X393090Y731799D03*
X1636395Y198095D03*
X1677035Y210210D03*
X1591890Y51054D03*
X1521612Y140818D03*
X1545285Y59080D03*
X1553032Y77445D03*
X1545692Y70030D03*
X1593825Y96545D03*
X1502283Y95123D03*
X1651787Y170713D03*
X1487424Y288188D03*
X1583817Y332613D03*
X1608912Y205715D03*
X1557884Y144983D03*
X1492021Y250190D03*
X1525880Y290601D03*
X2668829Y694334D03*
X2768244Y693776D03*
X2868397Y693598D03*
X204267Y696849D03*
X304571Y697459D03*
X404393Y697687D03*
X1439316Y186233D03*
X1523111Y185674D03*
X1664995Y252908D03*
X1909750Y156235D03*
X1605305Y290220D03*
X1474292Y185674D03*
X1636827Y186055D03*
X1727079Y232912D03*
X1602171Y824900D03*
X1609423Y448640D03*
X1597386Y622529D03*
X1602568Y458748D03*
X1585595Y406984D03*
X1435938Y326387D03*
X1742796Y21361D03*
X1341145Y94031D03*
X-106477Y202463D03*
X-127203Y409346D03*
X-91237Y18237D03*
X1577594Y177038D03*
X1451094Y241950D03*
X206375Y284709D03*
X1592047Y179603D03*
X1459078Y249022D03*
X1732331Y222174D03*
X468503Y291338D03*
X675996Y293116D03*
X882523Y318973D03*
X1045642Y353060D03*
X1233018Y390423D03*
X1582649Y386651D03*
X1527708Y219354D03*
X1659153Y143993D03*
X2174820Y292282D03*
X1747266Y372135D03*
X1577518Y256362D03*
X2368169Y261391D03*
X1759915Y380213D03*
X1605661Y250520D03*
X2557653Y263119D03*
X1774622Y386029D03*
X1579369Y227358D03*
X2747696Y241376D03*
X1792104Y386252D03*
X1581658Y214401D03*
X2982747Y227406D03*
X1808277Y389001D03*
X1593825Y203479D03*
X3022261Y70866D03*
X1513662Y167183D03*
X1587144Y501879D03*
X2549347Y482346D03*
X2613431Y722528D03*
X2628748Y763219D03*
M02*
