G04 EAGLE Gerber RS-274X export*
G75*
%MOMM*%
%FSLAX34Y34*%
%LPD*%
%INSoldermask Bottom*%
%IPPOS*%
%AMOC8*
5,1,8,0,0,1.08239X$1,22.5*%
G01*
%ADD10C,1.828800*%
%ADD11C,4.127000*%
%ADD12C,3.175000*%
%ADD13C,2.527000*%
%ADD14C,4.114800*%
%ADD15C,5.377000*%
%ADD16C,8.127000*%
%ADD17C,2.667000*%
%ADD18C,3.124200*%
%ADD19C,0.781000*%
%ADD20C,1.127000*%
%ADD21R,1.627000X1.027000*%
%ADD22C,1.752600*%
%ADD23C,0.652000*%


D10*
X1630828Y310635D03*
D11*
X2482146Y762000D03*
D12*
X1320234Y936852D03*
D11*
X1680856Y301814D03*
D12*
X3139628Y450850D03*
D10*
X2588765Y190500D03*
D13*
X115603Y762000D03*
D10*
X2532946Y762000D03*
X2690365Y190500D03*
X799498Y580666D03*
D13*
X1545955Y771464D03*
D10*
X361359Y381000D03*
D14*
X2901503Y298450D03*
D10*
X426447Y0D03*
D12*
X2901503Y450850D03*
D14*
X1112190Y745417D03*
D15*
X96185Y381000D03*
D14*
X1346698Y786767D03*
D10*
X987104Y613746D03*
D12*
X1085726Y895502D03*
D13*
X2977396Y762000D03*
D10*
X259759Y381000D03*
D11*
X2639565Y190500D03*
D10*
X337547Y0D03*
X1087161Y631388D03*
X235947Y0D03*
X899555Y598308D03*
X889925Y790049D03*
D11*
X286747Y0D03*
X1037132Y622567D03*
X477247Y0D03*
D14*
X3139628Y298450D03*
D11*
X667747Y-19402D03*
D10*
X789869Y772407D03*
X718547Y-19402D03*
D13*
X143372Y0D03*
D11*
X849526Y589487D03*
D10*
X616947Y-19402D03*
D11*
X839897Y781228D03*
D10*
X528047Y0D03*
D15*
X1545955Y450217D03*
D10*
X1265138Y856209D03*
D11*
X1215109Y847388D03*
D10*
X1165081Y838567D03*
X1730885Y292993D03*
D11*
X310559Y381000D03*
D10*
X2193446Y598308D03*
X1295831Y87866D03*
X2469703Y381000D03*
X2293503Y580666D03*
X1195774Y70224D03*
D11*
X1058196Y45965D03*
X2243474Y589487D03*
D10*
X1108225Y54786D03*
D11*
X1245802Y79045D03*
D10*
X2431346Y762000D03*
X3170Y381000D03*
D11*
X-47630Y381000D03*
D10*
X-98430Y381000D03*
X2177401Y407699D03*
D11*
X2127372Y416520D03*
D10*
X2077344Y425341D03*
X2952302Y0D03*
D11*
X2901502Y0D03*
D10*
X2850702Y0D03*
X2303131Y772407D03*
D11*
X2253103Y781228D03*
D10*
X2203075Y790049D03*
X385171Y571500D03*
D11*
X334371Y571500D03*
D10*
X283571Y571500D03*
D14*
X1980811Y745417D03*
D12*
X2007275Y895502D03*
X1772767Y936852D03*
D14*
X1746303Y786767D03*
D10*
X3142802Y0D03*
D11*
X3092002Y0D03*
D10*
X694733Y571500D03*
D11*
X643933Y571500D03*
D10*
X593133Y571500D03*
X804308Y194636D03*
D11*
X754280Y185815D03*
D10*
X704251Y176994D03*
X1990242Y53822D03*
D11*
X1940213Y62643D03*
D10*
X1890185Y71464D03*
X2880865Y190500D03*
D11*
X2830065Y190500D03*
D10*
X2779265Y190500D03*
X3214241Y571500D03*
D11*
X3163441Y571500D03*
D10*
X3112641Y571500D03*
X3118990Y190500D03*
D11*
X3068190Y190500D03*
D10*
X3017390Y190500D03*
X2365007Y374619D03*
D11*
X2314978Y383440D03*
D10*
X2264950Y392261D03*
X1203082Y458389D03*
D11*
X1153053Y449568D03*
D10*
X1103025Y440747D03*
X1015476Y425309D03*
D11*
X965447Y416488D03*
D10*
X915419Y407667D03*
X1462373Y697548D03*
D11*
X1412344Y688727D03*
D10*
X1362316Y679906D03*
X827870Y392229D03*
D11*
X777841Y383408D03*
D10*
X727813Y374587D03*
X1730685Y679906D03*
D11*
X1680656Y688727D03*
D10*
X1630628Y697548D03*
X2690366Y571500D03*
D11*
X2639566Y571500D03*
D10*
X2588766Y571500D03*
X361359Y190500D03*
D11*
X310559Y190500D03*
D10*
X259759Y190500D03*
X661653Y762000D03*
D11*
X610853Y762000D03*
D10*
X560053Y762000D03*
X2293703Y193753D03*
D11*
X2243674Y202574D03*
D10*
X2193646Y211395D03*
X1483437Y120946D03*
D11*
X1433408Y112125D03*
D10*
X1383380Y103304D03*
X3071366Y381000D03*
D11*
X3020566Y381000D03*
D10*
X2969766Y381000D03*
X2571302Y-19402D03*
D11*
X2520502Y-19402D03*
D10*
X2469702Y-19402D03*
X599484Y190500D03*
D11*
X548684Y190500D03*
D10*
X497884Y190500D03*
X2177848Y20742D03*
D11*
X2127819Y29563D03*
D10*
X2077791Y38384D03*
X1927920Y838567D03*
D11*
X1877892Y847388D03*
D10*
X1827864Y856209D03*
X1367126Y293876D03*
D11*
X1317097Y285055D03*
D10*
X1267069Y276234D03*
X2106097Y226833D03*
D11*
X2056068Y235654D03*
D10*
X2006040Y244475D03*
X2105897Y613746D03*
D11*
X2055868Y622567D03*
D10*
X2005840Y631388D03*
X1918491Y259913D03*
D11*
X1868462Y268734D03*
D10*
X1818434Y277555D03*
X1274767Y664468D03*
D11*
X1224738Y655647D03*
D10*
X1174710Y646826D03*
X1179520Y260796D03*
D11*
X1129491Y251975D03*
D10*
X1079463Y243154D03*
X2499865Y179895D03*
D11*
X2449065Y179895D03*
D10*
X2398265Y179895D03*
X1918291Y646826D03*
D11*
X1868262Y655647D03*
D10*
X1818234Y664468D03*
X2761802Y0D03*
D11*
X2711002Y0D03*
D10*
X2660202Y0D03*
X1290631Y473827D03*
X991914Y227716D03*
D11*
X941885Y218895D03*
D16*
X1545955Y551464D03*
D10*
X891857Y210074D03*
D11*
X1340659Y482648D03*
X572496Y381000D03*
D10*
X623296Y381000D03*
X521696Y381000D03*
X1390688Y491469D03*
X1008168Y37144D03*
X50796Y0D03*
D11*
X-4Y0D03*
D10*
X-50804Y0D03*
D14*
X453433Y488950D03*
D12*
X453433Y641350D03*
X215308Y641350D03*
D14*
X215308Y488950D03*
D10*
X2952304Y571500D03*
D11*
X2901504Y571500D03*
D10*
X2850704Y571500D03*
X920619Y21706D03*
D11*
X870590Y12885D03*
D10*
X820562Y4064D03*
X2365454Y-12338D03*
D11*
X2315425Y-3517D03*
D10*
X2265397Y5304D03*
X1802636Y86902D03*
D11*
X1752607Y95723D03*
D10*
X1702579Y104544D03*
X2499866Y571500D03*
D11*
X2449066Y571500D03*
D10*
X2398266Y571500D03*
X-20643Y571500D03*
D11*
X-71443Y571500D03*
D10*
X-122243Y571500D03*
X1802189Y473859D03*
D11*
X1752160Y482680D03*
D10*
X1702132Y491501D03*
X2761803Y381000D03*
D11*
X2711003Y381000D03*
D10*
X2660203Y381000D03*
X26983Y190500D03*
D11*
X-23817Y190500D03*
D10*
X-74617Y190500D03*
X1989795Y440779D03*
D11*
X1939766Y449600D03*
D10*
X1889738Y458421D03*
X2571303Y381000D03*
D11*
X2520503Y381000D03*
D10*
X3041202Y0D03*
D17*
X-85690Y355520D03*
X-22190Y330120D03*
D18*
X-72990Y431720D03*
X-9490Y406320D03*
D17*
X272440Y355600D03*
X335940Y330200D03*
D18*
X285140Y431800D03*
X348640Y406400D03*
D17*
X534420Y355570D03*
X597920Y330170D03*
D18*
X547120Y431770D03*
X610620Y406370D03*
D17*
X744710Y351780D03*
X811655Y337792D03*
D18*
X743985Y429028D03*
X810931Y415040D03*
D17*
X1004050Y590900D03*
X1070995Y576912D03*
D18*
X1003325Y668148D03*
X1070271Y654160D03*
D17*
X1191650Y624020D03*
X1258595Y610032D03*
D18*
X1190925Y701268D03*
X1257871Y687280D03*
D17*
X1307550Y450970D03*
X1374495Y436982D03*
D18*
X1306825Y528218D03*
X1373771Y514230D03*
D17*
X1710188Y464252D03*
X1768313Y428211D03*
D18*
X1735927Y537089D03*
X1794052Y501048D03*
D17*
X1897838Y431212D03*
X1955963Y395171D03*
D18*
X1923577Y504049D03*
X1981702Y468008D03*
D17*
X2085448Y398082D03*
X2143573Y362041D03*
D18*
X2111187Y470919D03*
X2169312Y434878D03*
D17*
X2273078Y365012D03*
X2331203Y328971D03*
D18*
X2298817Y437849D03*
X2356942Y401808D03*
D17*
X2482420Y355600D03*
X2545920Y330200D03*
D18*
X2495120Y431800D03*
X2558620Y406400D03*
D17*
X2672940Y355630D03*
X2736440Y330230D03*
D18*
X2685640Y431830D03*
X2749140Y406430D03*
D17*
X2982440Y355570D03*
X3045940Y330170D03*
D18*
X2995140Y431770D03*
X3058640Y406370D03*
D17*
X3030090Y165070D03*
X3093590Y139670D03*
D18*
X3042790Y241270D03*
X3106290Y215870D03*
D17*
X-109520Y546070D03*
X-46020Y520670D03*
D18*
X-96820Y622270D03*
X-33320Y596870D03*
D17*
X296320Y546070D03*
X359820Y520670D03*
D18*
X309020Y622270D03*
X372520Y596870D03*
D17*
X605840Y546050D03*
X669340Y520650D03*
D18*
X618540Y622250D03*
X682040Y596850D03*
D17*
X816440Y557800D03*
X883385Y543812D03*
D18*
X815715Y635048D03*
X882661Y621060D03*
D17*
X2211178Y762802D03*
X2269303Y726761D03*
D18*
X2236917Y835639D03*
X2295042Y799598D03*
D17*
X2444040Y736600D03*
X2507540Y711200D03*
D18*
X2456740Y812800D03*
X2520240Y787400D03*
D17*
X1379230Y657070D03*
X1446175Y643082D03*
D18*
X1378505Y734318D03*
X1445451Y720330D03*
D17*
X1638758Y670352D03*
X1696883Y634311D03*
D18*
X1664497Y743189D03*
X1722622Y707148D03*
D17*
X1826418Y637252D03*
X1884543Y601211D03*
D18*
X1852157Y710089D03*
X1910282Y674048D03*
D17*
X2013948Y604132D03*
X2072073Y568091D03*
D18*
X2039687Y676969D03*
X2097812Y640928D03*
D17*
X2201578Y571082D03*
X2259703Y535041D03*
D18*
X2227317Y643919D03*
X2285442Y607878D03*
D17*
X2410970Y546100D03*
X2474470Y520700D03*
D18*
X2423670Y622300D03*
X2487170Y596900D03*
D17*
X2601490Y546050D03*
X2664990Y520650D03*
D18*
X2614190Y622250D03*
X2677690Y596850D03*
D17*
X2863420Y546100D03*
X2926920Y520700D03*
D18*
X2876120Y622300D03*
X2939620Y596900D03*
D17*
X3125340Y546070D03*
X3188840Y520670D03*
D18*
X3138040Y622270D03*
X3201540Y596870D03*
D17*
X572800Y736570D03*
X636300Y711170D03*
D18*
X585500Y812770D03*
X649000Y787370D03*
D17*
X806840Y749600D03*
X873785Y735612D03*
D18*
X806115Y826848D03*
X873061Y812860D03*
D17*
X1182000Y815740D03*
X1248945Y801752D03*
D18*
X1181275Y892988D03*
X1248221Y879000D03*
D17*
X1835988Y828972D03*
X1894113Y792931D03*
D18*
X1861727Y901809D03*
X1919852Y865768D03*
D17*
X932340Y384880D03*
X999285Y370892D03*
D18*
X931615Y462128D03*
X998561Y448140D03*
D17*
X1119970Y417920D03*
X1186915Y403932D03*
D18*
X1119245Y495168D03*
X1186191Y481180D03*
D17*
X1284080Y253430D03*
X1351025Y239442D03*
D18*
X1283355Y330678D03*
X1350301Y316690D03*
D17*
X1638888Y283382D03*
X1697013Y247341D03*
D18*
X1664627Y356219D03*
X1722752Y320178D03*
D17*
X1826538Y250312D03*
X1884663Y214271D03*
D18*
X1852277Y323149D03*
X1910402Y287108D03*
D17*
X2014168Y217292D03*
X2072293Y181251D03*
D18*
X2039907Y290129D03*
X2098032Y254088D03*
D17*
X2201728Y184222D03*
X2259853Y148181D03*
D18*
X2227467Y257059D03*
X2285592Y221018D03*
D17*
X2410970Y154460D03*
X2474470Y129060D03*
D18*
X2423670Y230660D03*
X2487170Y205260D03*
D17*
X2601490Y165050D03*
X2664990Y139650D03*
D18*
X2614190Y241250D03*
X2677690Y215850D03*
D17*
X2791970Y165070D03*
X2855470Y139670D03*
D18*
X2804670Y241270D03*
X2868170Y215870D03*
D17*
X-61870Y165130D03*
X1630Y139730D03*
D18*
X-49170Y241330D03*
X14330Y215930D03*
D17*
X272490Y165100D03*
X335990Y139700D03*
D18*
X285190Y241300D03*
X348690Y215900D03*
D17*
X510590Y165070D03*
X574090Y139670D03*
D18*
X523290Y241270D03*
X586790Y215870D03*
D17*
X721170Y154200D03*
X788115Y140212D03*
D18*
X720445Y231448D03*
X787391Y217460D03*
D17*
X908750Y187240D03*
X975695Y173252D03*
D18*
X908025Y264488D03*
X974971Y250500D03*
D17*
X1096400Y220340D03*
X1163345Y206352D03*
D18*
X1095675Y297588D03*
X1162621Y283600D03*
D17*
X1212680Y47390D03*
X1279625Y33402D03*
D18*
X1211955Y124638D03*
X1278901Y110650D03*
D17*
X1400310Y80460D03*
X1467255Y66472D03*
D18*
X1399585Y157708D03*
X1466531Y143720D03*
D17*
X1710698Y77312D03*
X1768823Y41271D03*
D18*
X1736437Y150149D03*
X1794562Y114108D03*
D17*
X1898298Y44212D03*
X1956423Y8171D03*
D18*
X1924037Y117049D03*
X1982162Y81008D03*
D17*
X2085878Y11172D03*
X2144003Y-24869D03*
D18*
X2111617Y84009D03*
X2169742Y47968D03*
D17*
X2273558Y-21928D03*
X2331683Y-57969D03*
D18*
X2299297Y50909D03*
X2357422Y14868D03*
D17*
X2482420Y-44780D03*
X2545920Y-70180D03*
D18*
X2495120Y31420D03*
X2558620Y6020D03*
D17*
X2672940Y-25370D03*
X2736440Y-50770D03*
D18*
X2685640Y50830D03*
X2749140Y25430D03*
D17*
X2863420Y-25430D03*
X2926920Y-50830D03*
D18*
X2876120Y50770D03*
X2939620Y25370D03*
D17*
X-38070Y-25430D03*
X25430Y-50830D03*
D18*
X-25370Y50770D03*
X38130Y25370D03*
D17*
X248670Y-25430D03*
X312170Y-50830D03*
D18*
X261370Y50770D03*
X324870Y25370D03*
D17*
X439220Y-25400D03*
X502720Y-50800D03*
D18*
X451920Y50800D03*
X515420Y25400D03*
D17*
X629640Y-44830D03*
X693140Y-70230D03*
D18*
X642340Y31370D03*
X705840Y5970D03*
D17*
X837500Y-18780D03*
X904445Y-32768D03*
D18*
X836775Y58468D03*
X903721Y44480D03*
D17*
X1025100Y14340D03*
X1092045Y352D03*
D18*
X1024375Y91588D03*
X1091321Y77600D03*
D17*
X3053944Y-25476D03*
X3117444Y-50876D03*
D18*
X3066644Y50724D03*
X3130144Y25324D03*
D19*
X1574200Y29490D03*
X1570200Y22490D03*
X1562200Y22490D03*
X1566200Y29490D03*
X1558200Y29490D03*
X1554200Y22490D03*
X1550200Y29490D03*
X1542200Y29490D03*
X1538200Y22490D03*
X1534200Y29490D03*
X1530200Y22490D03*
X1522200Y22490D03*
X1526200Y29490D03*
X1518200Y29490D03*
D20*
X1503500Y22990D02*
X1503500Y12990D01*
X1588900Y12990D02*
X1588900Y22990D01*
X1588900Y-24310D02*
X1588900Y-34310D01*
X1503500Y-34310D02*
X1503500Y-24310D01*
D21*
X2648000Y745500D03*
X2648000Y778500D03*
X2697000Y745500D03*
X2697000Y778500D03*
X2748000Y745500D03*
X2748000Y778500D03*
X2797000Y745500D03*
X2797000Y778500D03*
X2848000Y745500D03*
X2848000Y778500D03*
X2897000Y745500D03*
X2897000Y778500D03*
X395500Y745500D03*
X395500Y778500D03*
X444500Y745500D03*
X444500Y778500D03*
X295500Y745500D03*
X295500Y778500D03*
X344500Y745500D03*
X344500Y778500D03*
X195500Y745500D03*
X195500Y778500D03*
X244500Y745500D03*
X244500Y778500D03*
D22*
X1773617Y205265D03*
X1748603Y209675D03*
X1744192Y184661D03*
X1769206Y180251D03*
X1778028Y230279D03*
X1753014Y234689D03*
D23*
X1687271Y2718D03*
X1632915Y56744D03*
X1614449Y151499D03*
X2747594Y731929D03*
X2647772Y731243D03*
X2847873Y729491D03*
X192024Y730098D03*
X292786Y731495D03*
X393090Y731799D03*
X1636395Y198095D03*
X1677035Y210210D03*
X1591890Y51054D03*
X1521612Y140818D03*
X1545285Y59080D03*
X1553032Y77445D03*
X1545692Y70030D03*
X1593825Y96545D03*
X1502283Y95123D03*
X1651787Y170713D03*
X1487424Y288188D03*
X1583817Y332613D03*
X1608912Y205715D03*
X1557884Y144983D03*
X1492021Y250190D03*
X1525880Y290601D03*
X2668829Y694334D03*
X2768244Y693776D03*
X2868397Y693598D03*
X204267Y696849D03*
X304571Y697459D03*
X404393Y697687D03*
X1439316Y186233D03*
X1523111Y185674D03*
X1664995Y252908D03*
X1909750Y156235D03*
X1605305Y290220D03*
X1474292Y185674D03*
X1636827Y186055D03*
X1727079Y232912D03*
X1602171Y824900D03*
X1609423Y448640D03*
X1597386Y622529D03*
X1602568Y458748D03*
X1585595Y406984D03*
X1435938Y326387D03*
X1742796Y21361D03*
X1341145Y94031D03*
X-106477Y202463D03*
X-127203Y409346D03*
X-91237Y18237D03*
X1577594Y177038D03*
X1451094Y241950D03*
X206375Y284709D03*
X1592047Y179603D03*
X1459078Y249022D03*
X1732331Y222174D03*
X468503Y291338D03*
X675996Y293116D03*
X882523Y318973D03*
X1045642Y353060D03*
X1233018Y390423D03*
X1582649Y386651D03*
X1527708Y219354D03*
X1659153Y143993D03*
X2174820Y292282D03*
X1747266Y372135D03*
X1577518Y256362D03*
X2368169Y261391D03*
X1759915Y380213D03*
X1605661Y250520D03*
X2557653Y263119D03*
X1774622Y386029D03*
X1579369Y227358D03*
X2747696Y241376D03*
X1792104Y386252D03*
X1581658Y214401D03*
X2982747Y227406D03*
X1808277Y389001D03*
X1593825Y203479D03*
X3022261Y70866D03*
X1513662Y167183D03*
X1587144Y501879D03*
X2549347Y482346D03*
X2613431Y722528D03*
X2628748Y763219D03*
M02*
