M48
;GenerationSoftware,Autodesk,EAGLE,9.6.1*%
;CreationDate,2020-05-24T12:27:47Z*%
FMAT,2
ICI,OFF
METRIC,TZ,000.000
T13C0.350
T12C0.400
T11C0.600
T10C0.900
T9C1.500
T8C1.702
T7C2.400
T6C2.997
T5C3.048
T4C3.988
T3C4.000
T2C5.250
T1C8.000
%
G90
M71
T1
X154596Y55146
T2
X9619Y38100
X154596Y45022
T3
X248215Y76200
X75428Y18582
X252050Y38100
X244906Y17990
X193977Y44960
X-2382Y19050
X112949Y25197
X271100Y38100
X175216Y48268
X122474Y65565
X-7144Y57150
X244907Y57150
X186846Y26873
X175261Y9572
X231542Y-352
X205587Y62257
X87059Y1289
X290150Y57150
X205607Y23565
X28675Y0
X306819Y19050
X131710Y28505
X263957Y19050
X316344Y57150
X187789Y84739
X0Y0
X134066Y48265
X212782Y2956
X94188Y21889
X54868Y19050
X271100Y0
X186826Y65565
X252050Y-1940
X64393Y57150
X309200Y0
X302057Y38100
X283007Y19050
X194021Y6264
X143341Y11212
X224367Y20257
X33437Y57150
X168086Y30181
X61085Y76200
X225310Y78123
X290150Y0
X31056Y19050
X212737Y41652
X-4763Y38100
X263957Y57150
X124580Y7904
X224347Y58949
X168066Y68873
X105820Y4597
X57250Y38100
X77784Y38341
X31056Y38100
X121511Y84739
X141234Y68873
X83990Y78123
X96545Y41649
X84953Y58949
X66775Y-1940
X115305Y44957
X47725Y0
X231498Y38344
X103713Y62257
T4
X21531Y48895
X45343Y48895
X174630Y78677
X134670Y78677
X198081Y74542
X111219Y74542
X313963Y29845
X290150Y29845
T5
X21531Y64135
X45343Y64135
X177277Y93685
X200727Y89550
X290150Y45085
X108573Y89550
X313963Y45085
X132023Y93685
T6
X87306Y81286
X34869Y21590
X34864Y40640
X-7299Y43172
X-949Y40632
X28514Y43180
X54712Y43177
X61062Y40637
X74398Y42903
X81093Y41504
X100332Y66815
X107027Y65416
X119092Y70127
X125787Y68728
X130682Y52822
X137377Y51423
X173593Y53709
X179405Y50105
X192358Y50405
X198170Y46801
X211119Y47092
X216931Y43488
X229882Y43785
X235694Y40181
X249512Y43180
X255862Y40640
X268564Y43183
X274914Y40643
X299514Y43177
X305864Y40637
X304279Y24127
X310629Y21587
X-9682Y62227
X-3332Y59687
X30902Y62227
X37252Y59687
X61854Y62225
X68204Y59685
X81571Y63505
X88266Y62106
X223692Y83564
X229504Y79960
X245674Y81280
X252024Y78740
X137850Y73432
X144545Y72033
X166450Y74319
X172262Y70715
X185216Y71009
X203969Y67697
X209781Y64093
X222732Y64392
X228544Y60788
X242367Y62230
X248717Y59690
X261419Y62225
X267769Y59685
X287612Y62230
X293962Y59690
X313804Y62227
X320154Y59687
X58550Y81277
X64900Y78737
X80611Y82685
X118127Y89299
X124822Y87900
X186173Y90181
X191985Y86577
X93161Y46213
X99856Y44814
X111924Y49517
X118619Y48118
X128335Y33068
X135030Y31669
X166463Y35622
X172275Y32018
X185228Y32315
X191040Y28711
X203991Y29013
X209803Y25409
X222747Y25706
X228559Y22102
X242367Y23066
X248717Y20526
X261419Y24125
X267769Y21585
X280467Y24127
X286817Y21587
X-4917Y24133
X1433Y21593
X28519Y24130
X191028Y67405
X52329Y24127
X58679Y21587
X72044Y23145
X78739Y21746
X90802Y26449
X97497Y25050
X109567Y29759
X116262Y28360
X121195Y12464
X127890Y11065
X139958Y15771
X146653Y14372
X173644Y15015
X179456Y11411
X192404Y11705
X198216Y8101
X211162Y8401
X216974Y4797
X229930Y5091
X235742Y1487
X249512Y3142
X255862Y602
X268564Y5083
X274914Y2543
X287612Y5077
X293962Y2537
X-2537Y5077
X3813Y2537
X26137Y5077
X32487Y2537
X45192Y5080
X51542Y2540
X64234Y3137
X70584Y597
X83677Y5847
X90372Y4448
X102437Y9159
X109132Y7760
X306664Y5072
X313014Y2532
T7
X14337Y0
X297740Y76200
X11560Y76200
X154596Y77146
T8
X191829Y64683
X56005Y76200
X70425Y17699
X163083Y31063
X199024Y5382
X258876Y19050
X253295Y76200
X269037Y19050
X79950Y58067
X36136Y38100
X189018Y7146
X42645Y0
X288087Y19050
X277927Y19050
X321424Y57150
X311264Y57150
X98710Y61375
X80431Y19464
X25976Y38100
X311899Y19050
X33755Y0
X108716Y63139
X23595Y0
X89955Y59831
X88992Y79005
X301739Y19050
X236501Y37462
X226495Y39226
X120308Y45839
X110302Y44075
X78987Y77241
X71855Y-1940
X101548Y42531
X61695Y-1940
X91542Y40767
X52805Y0
X146237Y69755
X126514Y85621
X136232Y67991
X116508Y83857
X173089Y29299
X82787Y39223
X219345Y59831
X72781Y37459
X246970Y38100
X229350Y58067
X119577Y7022
X173069Y67991
X163063Y69755
X110822Y5479
X269037Y57150
X243135Y76200
X317Y38100
X258877Y57150
X-9843Y38100
X217740Y40770
X36136Y19050
X207734Y42534
X295230Y0
X25976Y19050
X285070Y0
X230313Y77241
X66165Y76200
X220307Y79005
X38517Y57150
X229370Y19375
X28357Y57150
X219365Y21140
X148344Y12095
X138338Y10330
X307137Y38100
X314280Y0
X296977Y38100
X69473Y57150
X257130Y-1940
X59313Y57150
X246970Y-1940
X181823Y66447
X276180Y0
X59948Y19050
X266020Y0
X129063Y47383
X99191Y22772
X49788Y19050
X217785Y2074
X89186Y21007
X207779Y3838
X129583Y8787
X62330Y38100
X52170Y38100
X139069Y49147
X100817Y3714
X5080Y0
X192792Y83857
X-5080Y0
X182786Y85621
X136713Y29388
X126707Y27623
X210610Y22683
X295230Y57150
X200604Y24447
X285070Y57150
X92062Y2171
X210590Y61375
X82056Y406
X236545Y-1234
X200584Y63139
X226540Y530
X180264Y8690
X191849Y25991
X170258Y10454
X249987Y57150
X181843Y27755
X239827Y57150
X-2064Y57150
X127477Y66447
X-12224Y57150
X180219Y47386
X117471Y64683
X170213Y49150
X276180Y38100
X117952Y26080
X266020Y38100
X2698Y19050
X107946Y24315
X-7462Y19050
X198979Y44078
X249986Y17990
X188974Y45842
X257130Y38100
X239826Y17990
X304120Y0
T9
X225985Y14818
X-8569Y35552
X-2219Y33012
X27244Y35560
X33594Y33020
X53442Y35557
X59792Y33017
X74471Y35178
X81166Y33779
X100405Y59090
X107100Y57691
X119165Y62402
X125860Y61003
X130755Y45097
X137450Y43698
X171019Y46425
X176831Y42821
X189784Y43121
X195596Y39517
X208545Y39808
X214357Y36204
X227308Y36501
X233120Y32897
X248242Y35560
X254592Y33020
X267294Y35563
X273644Y33023
X298244Y35557
X304594Y33017
X303009Y16507
X309359Y13967
X-10952Y54607
X-4602Y52067
X29632Y54607
X35982Y52067
X60584Y54605
X66934Y52065
X81644Y55780
X88339Y54381
X221118Y76280
X226930Y72676
X244404Y73660
X250754Y71120
X137923Y65707
X144618Y64308
X163876Y67035
X169688Y63431
X182642Y63725
X188454Y60121
X201395Y60413
X207207Y56809
X220158Y57108
X225970Y53504
X241097Y54610
X247447Y52070
X260149Y54605
X266499Y52065
X286342Y54610
X292692Y52070
X312534Y54607
X318884Y52067
X57280Y73657
X63630Y71117
X80684Y74960
X87379Y73561
X118200Y81574
X124895Y80175
X183599Y82897
X189411Y79293
X93234Y38488
X99929Y37089
X111997Y41792
X118692Y40393
X128408Y25343
X135103Y23944
X163889Y28338
X169701Y24734
X182654Y25031
X188466Y21427
X201417Y21729
X207229Y18125
X220173Y18422
X241097Y15446
X247447Y12906
X260149Y16505
X266499Y13965
X279197Y16507
X285547Y13967
X-6187Y16513
X163Y13973
X27249Y16510
X33599Y13970
X51059Y16507
X57409Y13967
X72117Y15420
X78812Y14021
X90875Y18724
X97570Y17325
X109640Y22034
X116335Y20635
X121268Y4739
X127963Y3340
X140031Y8046
X146726Y6647
X171070Y7731
X176882Y4127
X189830Y4421
X195642Y817
X208588Y1117
X214400Y-2487
X227356Y-2193
X233168Y-5797
X248242Y-4478
X254592Y-7018
X267294Y-2537
X273644Y-5077
X286342Y-2543
X292692Y-5083
X-3807Y-2543
X2543Y-5083
X24867Y-2543
X31217Y-5083
X43922Y-2540
X50272Y-5080
X62964Y-4483
X69314Y-7023
X83750Y-1878
X90445Y-3277
X102510Y1434
X109205Y35
X305394Y-2548
X311744Y-5088
T10
X175301Y23469
X177362Y20526
X174860Y20968
X174419Y18466
X176921Y18025
X177803Y23028
T11
X150350Y1799
X158890Y1799
X158890Y-2931
X150350Y-2931
T12
X153020Y2249
X157420Y2949
X157020Y2249
X156220Y2249
X156620Y2949
X155820Y2949
X155420Y2249
X155020Y2949
X154220Y2949
X153820Y2249
X153420Y2949
X152220Y2249
X152620Y2949
X151820Y2949
T13
X159739Y62253
X160942Y44864
X160217Y82490
X172708Y23291
X163683Y18606
X147429Y18567
X160531Y29022
X190975Y15624
X166500Y25291
X152311Y18567
X168727Y272
X143932Y18623
X40439Y69769
X30457Y69746
X20427Y69685
X286840Y69360
X276824Y69378
X266883Y69433
X152588Y29060
X149202Y25019
X155788Y14498
X160891Y20571
X158382Y33261
X148742Y28819
X165179Y17071
X150228Y9512
X159382Y9655
X154569Y7003
X155303Y7744
X154529Y5908
X20637Y28471
X159189Y5105
X167704Y21021
X163640Y19809
X39309Y73180
X29279Y73149
X19202Y73010
X284787Y72949
X264777Y73124
X274759Y73193
X161445Y15150
X163292Y5674
X179210Y38625
X262875Y76322
X261343Y72253
X254935Y48235
X158714Y50188
X151366Y16718
X302226Y7087
X159382Y20348
X180828Y38900
X298275Y22741
X158166Y21440
X274770Y24138
X157937Y22736
X177462Y38603
X255765Y26312
X160566Y25052
X174727Y37214
X236817Y26139
X157752Y25636
X217482Y29228
X165915Y14399
X152771Y21935
X158265Y38665
X123302Y39042
X104564Y35306
X88252Y31897
X67600Y29312
X46850Y29134
X173233Y22217
X152161Y14082
X145908Y24902
X159205Y17960
X145109Y24195
X157759Y17704
X-9124Y1824
X-12720Y40935
X-10648Y20246
X134115Y9403
X174280Y2136
X143594Y32639
X158560Y40698
X160257Y45875
X175992Y38021
M30