M48
; DRILL file {KiCad (5.99.0-574-gd3edeaec5)} date 12/28/2019 10:11:54 AM
; FORMAT={-:-/ absolute / inch / decimal}
; #@! TF.CreationDate,2019-12-28T10:11:54-05:00
; #@! TF.GenerationSoftware,Kicad,Pcbnew,(5.99.0-574-gd3edeaec5)
; #@! TF.FileFunction,Plated,1,2,PTH
FMAT,2
INCH
T1C0.0157
T2C0.0236
T3C0.0400
T4C0.0591
%
G90
G05
T1
X2.5533Y-5.4665
X2.6256Y-5.0552
X2.7614Y-5.4712
X2.8048Y-4.5205
X2.8277Y-4.0855
X2.8328Y-4.3201
X2.855Y-4.1769
X2.8757Y-4.3216
X2.8901Y-4.0819
X2.9602Y-4.0401
X3.196Y-5.1296
X3.196Y-5.5533
X3.2373Y-4.9374
X3.2435Y-5.5409
X3.2565Y-5.1229
X3.2602Y-5.3859
X3.2621Y-5.3446
X3.2642Y-5.2991
X3.2947Y-4.8791
X3.4295Y-5.1524
X3.4316Y-4.5167
X3.4502Y-6.7416
X3.4647Y-4.4539
X3.475Y-7.4071
X3.4771Y-4.8982
X3.4812Y-5.1975
X3.5019Y-4.4824
X3.5019Y-7.5187
X3.5143Y-4.8031
X3.5308Y-4.6833
X3.5659Y-5.1606
X3.5796Y-5.2959
X3.664Y-6.0297
X3.6729Y-5.9911
X3.7022Y-5.5348
X3.7416Y-5.5331
X3.7674Y-6.0224
X3.7685Y-6.7664
X3.7766Y-5.2915
X3.9462Y-6.0183
X4.469Y-4.2477
X4.4876Y-4.3567
X4.5529Y-4.3969
X4.7253Y-4.3629
X4.7604Y-4.5882
X5.0932Y-4.6233
X5.18Y-5.0718
X5.353Y-4.895
X5.407Y-5.032
X5.43Y-4.6151
X5.4499Y-5.1065
X11.1443Y-4.4291
X11.2911Y-4.458
X12.0619Y-6.0224
X12.1508Y-5.9797
X12.9609Y-5.111
X13.0436Y-5.1255
X13.0973Y-4.334
X13.1035Y-4.1769
X13.2048Y-4.2224
X13.5978Y-4.4546
X13.7897Y-5.2392
X13.8103Y-5.5182
X13.831Y-5.4644
X13.9405Y-4.878
X13.9798Y-4.8754
X14.0418Y-5.0759
X14.0521Y-4.9106
T3
X4.8562Y-4.7147
X4.8562Y-4.8147
X4.8562Y-4.9147
X4.9562Y-4.7147
X4.9562Y-4.8147
X4.9562Y-4.9147
T4
X6.6462Y-4.8997
X6.8962Y-4.7997
X4.7712Y-4.1497
X4.5837Y-5.6497
X4.8337Y-5.5497
X10.2087Y-6.3997
X10.4587Y-6.2997
X10.5837Y-5.6497
X10.8337Y-5.5497
X2.8024Y-5.6497
X3.0524Y-5.5497
X6.4587Y-6.3997
X6.7087Y-6.2997
X5.8962Y-4.8997
X6.1462Y-4.7997
X8.5212Y-4.1497
X8.7712Y-4.0497
X3.5524Y-7.1497
X6.0837Y-5.6497
X6.3337Y-5.5497
X3.8024Y-7.0497
X5.0212Y-4.0497
X7.2087Y-6.3997
X7.4587Y-6.2997
X11.2087Y-6.2997
X6.8337Y-5.6497
X7.0837Y-5.5497
X7.5837Y-5.6497
X7.8337Y-5.5497
X12.6462Y-4.1497
X12.8962Y-4.0497
X7.3025Y-7.1497
X7.5525Y-7.0497
X10.0837Y-5.5497
X13.7712Y-4.1497
X7.0212Y-4.1497
X7.2712Y-4.0497
X2.7087Y-4.8997
X9.8337Y-5.6497
X14.0212Y-4.0497
X9.2712Y-4.1497
X9.5212Y-4.0497
X5.1462Y-4.8997
X5.3962Y-4.7997
X4.4899Y-7.1497
X13.7712Y-7.1497
X4.0212Y-4.1497
X4.2712Y-4.0497
X4.7399Y-7.0497
X14.0212Y-7.0497
X11.0525Y-7.1497
X2.9587Y-4.7997
X9.4587Y-6.3997
X9.7087Y-6.2997
X3.6462Y-4.8997
X3.8962Y-4.7997
X9.6462Y-4.8997
X9.8962Y-4.7997
X4.2087Y-6.3997
X4.4587Y-6.2997
X4.9587Y-6.3997
X5.2087Y-6.2997
X7.7712Y-4.1497
X8.0212Y-4.0497
X10.9587Y-6.3997
X4.3962Y-4.8997
X4.6462Y-4.7997
X13.2712Y-7.0497
X8.8962Y-4.8997
X11.3962Y-4.7997
X9.1462Y-4.7997
X11.8962Y-4.8997
X12.1462Y-4.7997
X2.6149Y-7.1497
X5.3337Y-5.6497
X5.5837Y-5.5497
X8.1462Y-4.8997
X11.3025Y-7.0497
X13.7712Y-4.8997
X14.0212Y-4.7997
X11.1462Y-4.8997
X13.0212Y-7.1497
X8.3962Y-4.7997
X3.5212Y-4.0497
X10.0212Y-4.1497
X10.2712Y-4.0497
X5.5212Y-4.1497
X5.7712Y-4.0497
X3.2712Y-4.1497
X10.3962Y-4.8997
X10.6462Y-4.7997
X7.9587Y-6.3997
X8.2087Y-6.2997
X2.5212Y-4.1497
X12.8025Y-5.5497
X2.7712Y-4.0497
X11.5212Y-4.1497
X12.5525Y-5.6497
X10.7712Y-4.1497
X2.8649Y-7.0497
X11.0212Y-4.0497
X11.7712Y-4.0497
X11.3337Y-5.6497
X11.5837Y-5.5497
X2.9899Y-6.3997
X3.2399Y-6.2997
X6.2712Y-4.1497
X6.5212Y-4.0497
X11.9899Y-6.3997
X12.2399Y-6.2997
X7.3962Y-4.8997
X7.6462Y-4.7997
X4.0837Y-5.5497
X8.3337Y-5.6497
X3.8337Y-5.6497
X8.5837Y-5.5497
X9.0837Y-5.6497
X9.3337Y-5.5497
X5.7087Y-6.3997
X5.9587Y-6.2997
X12.8337Y-4.8997
X13.0837Y-4.7997
X13.7712Y-6.3997
X14.0212Y-6.2997
X12.2712Y-7.1497
X12.5212Y-7.0497
X13.0212Y-6.3997
X13.2712Y-6.2997
X8.7087Y-6.3997
X8.9587Y-6.2997
X13.7712Y-5.6497
X14.0212Y-5.5497
X10.1149Y-7.1497
X10.3649Y-7.0497
T2
G00X2.8502Y-3.7363
M15
G01X2.8502Y-3.76
M16
G05
G00X2.8502Y-3.8911
M15
G01X2.8502Y-3.9344
M16
G05
G00X3.1904Y-3.7363
M15
G01X3.1904Y-3.76
M16
G05
G00X3.1904Y-3.8911
M15
G01X3.1904Y-3.9344
M16
G05
T0
M30
