G04 #@! TF.GenerationSoftware,KiCad,Pcbnew,(5.99.0-574-gd3edeaec5)*
G04 #@! TF.CreationDate,2019-12-28T10:11:49-05:00*
G04 #@! TF.ProjectId,mullet-pcb,6d756c6c-6574-42d7-9063-622e6b696361,rev?*
G04 #@! TF.SameCoordinates,Original*
G04 #@! TF.FileFunction,Legend,Top*
G04 #@! TF.FilePolarity,Positive*
%FSLAX46Y46*%
G04 Gerber Fmt 4.6, Leading zero omitted, Abs format (unit mm)*
G04 Created by KiCad (PCBNEW (5.99.0-574-gd3edeaec5)) date 2019-12-28 10:11:49*
%MOMM*%
%LPD*%
G04 APERTURE LIST*
%ADD10C,0.100000*%
%ADD11C,0.010000*%
%ADD12C,0.120000*%
%ADD13C,4.102000*%
%ADD14C,3.152000*%
%ADD15C,1.802000*%
%ADD16C,2.302000*%
%ADD17C,0.752000*%
%ADD18O,1.102000X2.202000*%
%ADD19O,1.102000X1.702000*%
%ADD20R,1.802000X1.802000*%
G04 APERTURE END LIST*
G36*
X155487722Y-175590200D02*
G01*
X155868722Y-175691800D01*
X156198922Y-175844200D01*
X156529122Y-176022000D01*
X156783122Y-176225200D01*
X157011722Y-176403000D01*
X157214922Y-176606200D01*
X157494322Y-177012600D01*
X157595922Y-177266600D01*
X157672122Y-177469800D01*
X157697522Y-177698400D01*
X157722922Y-177977800D01*
X157926122Y-178536600D01*
X158027722Y-178866800D01*
X158078522Y-179374800D01*
X158129322Y-180111400D01*
X158103922Y-180238400D01*
X158053122Y-180873400D01*
X158129322Y-181356000D01*
X158205522Y-181686200D01*
X158230922Y-182067200D01*
X158205522Y-182524400D01*
X158103922Y-182930800D01*
X157976922Y-183464200D01*
X157799122Y-183870600D01*
X157468922Y-184454800D01*
X157189522Y-184886600D01*
X156910122Y-185166000D01*
X156554522Y-185369200D01*
X156148122Y-185521600D01*
X155741722Y-185623200D01*
X155157522Y-185623200D01*
X154598722Y-185547000D01*
X154090722Y-185394600D01*
X153760522Y-185216800D01*
X153201722Y-184861200D01*
X152871522Y-184454800D01*
X152693722Y-184124600D01*
X152439722Y-183515000D01*
X152261922Y-183057800D01*
X152084122Y-182549800D01*
X151982522Y-182194200D01*
X151906322Y-181787800D01*
X151728522Y-181279800D01*
X151550722Y-180924200D01*
X151347522Y-180619400D01*
X151296722Y-180390800D01*
X151372922Y-180162200D01*
X151449122Y-180009800D01*
X151474522Y-179095400D01*
X151550722Y-178714400D01*
X151753922Y-178181000D01*
X151830122Y-177850800D01*
X151957122Y-177368200D01*
X152084122Y-177038000D01*
X152185722Y-176885600D01*
X152287322Y-176682400D01*
X152490522Y-176428400D01*
X152846122Y-176174400D01*
X153531922Y-175818800D01*
X153938322Y-175666400D01*
X154395522Y-175590200D01*
X155182922Y-175564800D01*
X155487722Y-175590200D01*
G37*
D10*
X155487722Y-175590200D02*
X155868722Y-175691800D01*
X156198922Y-175844200D01*
X156529122Y-176022000D01*
X156783122Y-176225200D01*
X157011722Y-176403000D01*
X157214922Y-176606200D01*
X157494322Y-177012600D01*
X157595922Y-177266600D01*
X157672122Y-177469800D01*
X157697522Y-177698400D01*
X157722922Y-177977800D01*
X157926122Y-178536600D01*
X158027722Y-178866800D01*
X158078522Y-179374800D01*
X158129322Y-180111400D01*
X158103922Y-180238400D01*
X158053122Y-180873400D01*
X158129322Y-181356000D01*
X158205522Y-181686200D01*
X158230922Y-182067200D01*
X158205522Y-182524400D01*
X158103922Y-182930800D01*
X157976922Y-183464200D01*
X157799122Y-183870600D01*
X157468922Y-184454800D01*
X157189522Y-184886600D01*
X156910122Y-185166000D01*
X156554522Y-185369200D01*
X156148122Y-185521600D01*
X155741722Y-185623200D01*
X155157522Y-185623200D01*
X154598722Y-185547000D01*
X154090722Y-185394600D01*
X153760522Y-185216800D01*
X153201722Y-184861200D01*
X152871522Y-184454800D01*
X152693722Y-184124600D01*
X152439722Y-183515000D01*
X152261922Y-183057800D01*
X152084122Y-182549800D01*
X151982522Y-182194200D01*
X151906322Y-181787800D01*
X151728522Y-181279800D01*
X151550722Y-180924200D01*
X151347522Y-180619400D01*
X151296722Y-180390800D01*
X151372922Y-180162200D01*
X151449122Y-180009800D01*
X151474522Y-179095400D01*
X151550722Y-178714400D01*
X151753922Y-178181000D01*
X151830122Y-177850800D01*
X151957122Y-177368200D01*
X152084122Y-177038000D01*
X152185722Y-176885600D01*
X152287322Y-176682400D01*
X152490522Y-176428400D01*
X152846122Y-176174400D01*
X153531922Y-175818800D01*
X153938322Y-175666400D01*
X154395522Y-175590200D01*
X155182922Y-175564800D01*
X155487722Y-175590200D01*
%LPC*%
G36*
X167220737Y-177200765D02*
G01*
X167296085Y-177200879D01*
X167365456Y-177201093D01*
X167427415Y-177201410D01*
X167480529Y-177201836D01*
X167523364Y-177202373D01*
X167554486Y-177203025D01*
X167572460Y-177203797D01*
X167576429Y-177204377D01*
X167577854Y-177213220D01*
X167578939Y-177234481D01*
X167579688Y-177265044D01*
X167580108Y-177301795D01*
X167580202Y-177341619D01*
X167579975Y-177381404D01*
X167579432Y-177418033D01*
X167578579Y-177448393D01*
X167577420Y-177469369D01*
X167576001Y-177477811D01*
X167567391Y-177478922D01*
X167545335Y-177479849D01*
X167511926Y-177480561D01*
X167469251Y-177481023D01*
X167419402Y-177481203D01*
X167368390Y-177481087D01*
X167299187Y-177480999D01*
X167244575Y-177481520D01*
X167203620Y-177482684D01*
X167175389Y-177484527D01*
X167158948Y-177487083D01*
X167154186Y-177489107D01*
X167152053Y-177492877D01*
X167150208Y-177501070D01*
X167148632Y-177514695D01*
X167147306Y-177534764D01*
X167146209Y-177562285D01*
X167145322Y-177598269D01*
X167144625Y-177643725D01*
X167144099Y-177699665D01*
X167143724Y-177767098D01*
X167143480Y-177847033D01*
X167143349Y-177940481D01*
X167143309Y-178048453D01*
X167143309Y-178599229D01*
X166962065Y-178599229D01*
X166910499Y-178599016D01*
X166864196Y-178598418D01*
X166825391Y-178597498D01*
X166796321Y-178596318D01*
X166779220Y-178594939D01*
X166775643Y-178594050D01*
X166774787Y-178585617D01*
X166773975Y-178562899D01*
X166773218Y-178527148D01*
X166772530Y-178479616D01*
X166771920Y-178421554D01*
X166771401Y-178354212D01*
X166770985Y-178278842D01*
X166770683Y-178196695D01*
X166770507Y-178109023D01*
X166770465Y-178038668D01*
X166770438Y-177947711D01*
X166770361Y-177861404D01*
X166770238Y-177780986D01*
X166770073Y-177707698D01*
X166769870Y-177642780D01*
X166769634Y-177587474D01*
X166769370Y-177543019D01*
X166769082Y-177510656D01*
X166768773Y-177491626D01*
X166768523Y-177486837D01*
X166760565Y-177486265D01*
X166739081Y-177485467D01*
X166706077Y-177484499D01*
X166663561Y-177483414D01*
X166613539Y-177482266D01*
X166558018Y-177481110D01*
X166552973Y-177481011D01*
X166339364Y-177476813D01*
X166337228Y-177345346D01*
X166336877Y-177301549D01*
X166337250Y-177263181D01*
X166338268Y-177232930D01*
X166339850Y-177213487D01*
X166341369Y-177207603D01*
X166349816Y-177206706D01*
X166372364Y-177205858D01*
X166407577Y-177205060D01*
X166454023Y-177204319D01*
X166510266Y-177203636D01*
X166574873Y-177203016D01*
X166646410Y-177202462D01*
X166723443Y-177201979D01*
X166804537Y-177201570D01*
X166888258Y-177201238D01*
X166973173Y-177200988D01*
X167057847Y-177200824D01*
X167140847Y-177200748D01*
X167220737Y-177200765D01*
G37*
D11*
X167220737Y-177200765D02*
X167296085Y-177200879D01*
X167365456Y-177201093D01*
X167427415Y-177201410D01*
X167480529Y-177201836D01*
X167523364Y-177202373D01*
X167554486Y-177203025D01*
X167572460Y-177203797D01*
X167576429Y-177204377D01*
X167577854Y-177213220D01*
X167578939Y-177234481D01*
X167579688Y-177265044D01*
X167580108Y-177301795D01*
X167580202Y-177341619D01*
X167579975Y-177381404D01*
X167579432Y-177418033D01*
X167578579Y-177448393D01*
X167577420Y-177469369D01*
X167576001Y-177477811D01*
X167567391Y-177478922D01*
X167545335Y-177479849D01*
X167511926Y-177480561D01*
X167469251Y-177481023D01*
X167419402Y-177481203D01*
X167368390Y-177481087D01*
X167299187Y-177480999D01*
X167244575Y-177481520D01*
X167203620Y-177482684D01*
X167175389Y-177484527D01*
X167158948Y-177487083D01*
X167154186Y-177489107D01*
X167152053Y-177492877D01*
X167150208Y-177501070D01*
X167148632Y-177514695D01*
X167147306Y-177534764D01*
X167146209Y-177562285D01*
X167145322Y-177598269D01*
X167144625Y-177643725D01*
X167144099Y-177699665D01*
X167143724Y-177767098D01*
X167143480Y-177847033D01*
X167143349Y-177940481D01*
X167143309Y-178048453D01*
X167143309Y-178599229D01*
X166962065Y-178599229D01*
X166910499Y-178599016D01*
X166864196Y-178598418D01*
X166825391Y-178597498D01*
X166796321Y-178596318D01*
X166779220Y-178594939D01*
X166775643Y-178594050D01*
X166774787Y-178585617D01*
X166773975Y-178562899D01*
X166773218Y-178527148D01*
X166772530Y-178479616D01*
X166771920Y-178421554D01*
X166771401Y-178354212D01*
X166770985Y-178278842D01*
X166770683Y-178196695D01*
X166770507Y-178109023D01*
X166770465Y-178038668D01*
X166770438Y-177947711D01*
X166770361Y-177861404D01*
X166770238Y-177780986D01*
X166770073Y-177707698D01*
X166769870Y-177642780D01*
X166769634Y-177587474D01*
X166769370Y-177543019D01*
X166769082Y-177510656D01*
X166768773Y-177491626D01*
X166768523Y-177486837D01*
X166760565Y-177486265D01*
X166739081Y-177485467D01*
X166706077Y-177484499D01*
X166663561Y-177483414D01*
X166613539Y-177482266D01*
X166558018Y-177481110D01*
X166552973Y-177481011D01*
X166339364Y-177476813D01*
X166337228Y-177345346D01*
X166336877Y-177301549D01*
X166337250Y-177263181D01*
X166338268Y-177232930D01*
X166339850Y-177213487D01*
X166341369Y-177207603D01*
X166349816Y-177206706D01*
X166372364Y-177205858D01*
X166407577Y-177205060D01*
X166454023Y-177204319D01*
X166510266Y-177203636D01*
X166574873Y-177203016D01*
X166646410Y-177202462D01*
X166723443Y-177201979D01*
X166804537Y-177201570D01*
X166888258Y-177201238D01*
X166973173Y-177200988D01*
X167057847Y-177200824D01*
X167140847Y-177200748D01*
X167220737Y-177200765D01*
G36*
X169279126Y-177896315D02*
G01*
X169279300Y-177805965D01*
X169279498Y-177717121D01*
X169279648Y-177658272D01*
X169644149Y-177658272D01*
X169644310Y-177697668D01*
X169646642Y-177725408D01*
X169652833Y-177743405D01*
X169664573Y-177753577D01*
X169683550Y-177757837D01*
X169711453Y-177758102D01*
X169749970Y-177756288D01*
X169776520Y-177755088D01*
X169830471Y-177751925D01*
X169872089Y-177746931D01*
X169904512Y-177739675D01*
X169915913Y-177735932D01*
X169943415Y-177723706D01*
X169967759Y-177709132D01*
X169978054Y-177700745D01*
X169987590Y-177689792D01*
X169993712Y-177677455D01*
X169997370Y-177659853D01*
X169999518Y-177633109D01*
X170000551Y-177609075D01*
X170001583Y-177575088D01*
X170001075Y-177552546D01*
X169998174Y-177537373D01*
X169992028Y-177525497D01*
X169981784Y-177512841D01*
X169979983Y-177510785D01*
X169954409Y-177489225D01*
X169922603Y-177472661D01*
X169919071Y-177471384D01*
X169893140Y-177465141D01*
X169856266Y-177459643D01*
X169813035Y-177455222D01*
X169768034Y-177452205D01*
X169725851Y-177450924D01*
X169691071Y-177451707D01*
X169673314Y-177453712D01*
X169644471Y-177459123D01*
X169644471Y-177605302D01*
X169644149Y-177658272D01*
X169279648Y-177658272D01*
X169279718Y-177631120D01*
X169279958Y-177549296D01*
X169280213Y-177472985D01*
X169280482Y-177403523D01*
X169280761Y-177342243D01*
X169281049Y-177290482D01*
X169281343Y-177249575D01*
X169281639Y-177220856D01*
X169281936Y-177205662D01*
X169282085Y-177203551D01*
X169290212Y-177202968D01*
X169312394Y-177202437D01*
X169347149Y-177201968D01*
X169392998Y-177201572D01*
X169448460Y-177201258D01*
X169512054Y-177201035D01*
X169582300Y-177200914D01*
X169657716Y-177200905D01*
X169676285Y-177200921D01*
X169764637Y-177201034D01*
X169838890Y-177201217D01*
X169900480Y-177201523D01*
X169950844Y-177202005D01*
X169991417Y-177202718D01*
X170023637Y-177203715D01*
X170048938Y-177205049D01*
X170068759Y-177206774D01*
X170084534Y-177208944D01*
X170097699Y-177211613D01*
X170109693Y-177214834D01*
X170118121Y-177217434D01*
X170150105Y-177228335D01*
X170181336Y-177240151D01*
X170200704Y-177248378D01*
X170221158Y-177257325D01*
X170235524Y-177262602D01*
X170238464Y-177263204D01*
X170250892Y-177268839D01*
X170269780Y-177283720D01*
X170292075Y-177304811D01*
X170314726Y-177329073D01*
X170334679Y-177353472D01*
X170346335Y-177370522D01*
X170370128Y-177423724D01*
X170383537Y-177484360D01*
X170386458Y-177548217D01*
X170378787Y-177611082D01*
X170360422Y-177668742D01*
X170353991Y-177682152D01*
X170336208Y-177710730D01*
X170312625Y-177740832D01*
X170286003Y-177769734D01*
X170259107Y-177794713D01*
X170234698Y-177813046D01*
X170215540Y-177822010D01*
X170211618Y-177822470D01*
X170201573Y-177828143D01*
X170199317Y-177831106D01*
X170199769Y-177841574D01*
X170212231Y-177849736D01*
X170233176Y-177853391D01*
X170235021Y-177853422D01*
X170256869Y-177857773D01*
X170269975Y-177864146D01*
X170289995Y-177875013D01*
X170304716Y-177880727D01*
X170322171Y-177889584D01*
X170346287Y-177906092D01*
X170372776Y-177926882D01*
X170397350Y-177948581D01*
X170415724Y-177967821D01*
X170416126Y-177968314D01*
X170446799Y-178017782D01*
X170467771Y-178077126D01*
X170478466Y-178143650D01*
X170478306Y-178214656D01*
X170475052Y-178243862D01*
X170469437Y-178278282D01*
X170462622Y-178305657D01*
X170452663Y-178330920D01*
X170437616Y-178359007D01*
X170415592Y-178394762D01*
X170399036Y-178416553D01*
X170375548Y-178441988D01*
X170347971Y-178468587D01*
X170319147Y-178493870D01*
X170291920Y-178515357D01*
X170269130Y-178530566D01*
X170253621Y-178537019D01*
X170252484Y-178537088D01*
X170242217Y-178540474D01*
X170224304Y-178548914D01*
X170218269Y-178552074D01*
X170191132Y-178563736D01*
X170162513Y-178572055D01*
X170160127Y-178572515D01*
X170136155Y-178578339D01*
X170116562Y-178585542D01*
X170114410Y-178586658D01*
X170103361Y-178588983D01*
X170078712Y-178591099D01*
X170040156Y-178593015D01*
X169987386Y-178594742D01*
X169920097Y-178596288D01*
X169837983Y-178597662D01*
X169740738Y-178598875D01*
X169706612Y-178599229D01*
X169629488Y-178599941D01*
X169556703Y-178600514D01*
X169489808Y-178600943D01*
X169430355Y-178601222D01*
X169379896Y-178601345D01*
X169339981Y-178601309D01*
X169312162Y-178601107D01*
X169297990Y-178600734D01*
X169296872Y-178600630D01*
X169283171Y-178595218D01*
X169279308Y-178588979D01*
X169279092Y-178556992D01*
X169278927Y-178513160D01*
X169278811Y-178458818D01*
X169278740Y-178395302D01*
X169278713Y-178323947D01*
X169278725Y-178246088D01*
X169278776Y-178163060D01*
X169278861Y-178076198D01*
X169278936Y-178018602D01*
X169644471Y-178018602D01*
X169644471Y-178180210D01*
X169644508Y-178234147D01*
X169644762Y-178274563D01*
X169645445Y-178303473D01*
X169646770Y-178322892D01*
X169648949Y-178334833D01*
X169652195Y-178341311D01*
X169656721Y-178344342D01*
X169661948Y-178345759D01*
X169675372Y-178346905D01*
X169701304Y-178347549D01*
X169736726Y-178347674D01*
X169778619Y-178347260D01*
X169809215Y-178346663D01*
X169863001Y-178344997D01*
X169903350Y-178342727D01*
X169932351Y-178339646D01*
X169952097Y-178335550D01*
X169962239Y-178331611D01*
X169983810Y-178323097D01*
X170002726Y-178319596D01*
X170020056Y-178313337D01*
X170041014Y-178297120D01*
X170062085Y-178274782D01*
X170079755Y-178250161D01*
X170090510Y-178227095D01*
X170091616Y-178222522D01*
X170093984Y-178198748D01*
X170094379Y-178168089D01*
X170093539Y-178149426D01*
X170085262Y-178107578D01*
X170066234Y-178075152D01*
X170034915Y-178050217D01*
X170002602Y-178035332D01*
X169982318Y-178028800D01*
X169959225Y-178023822D01*
X169930359Y-178020039D01*
X169892758Y-178017090D01*
X169843458Y-178014616D01*
X169826268Y-178013925D01*
X169780555Y-178012497D01*
X169738619Y-178011810D01*
X169703627Y-178011868D01*
X169678744Y-178012675D01*
X169668974Y-178013701D01*
X169644471Y-178018602D01*
X169278936Y-178018602D01*
X169278978Y-177986838D01*
X169279126Y-177896315D01*
G37*
X169279126Y-177896315D02*
X169279300Y-177805965D01*
X169279498Y-177717121D01*
X169279648Y-177658272D01*
X169644149Y-177658272D01*
X169644310Y-177697668D01*
X169646642Y-177725408D01*
X169652833Y-177743405D01*
X169664573Y-177753577D01*
X169683550Y-177757837D01*
X169711453Y-177758102D01*
X169749970Y-177756288D01*
X169776520Y-177755088D01*
X169830471Y-177751925D01*
X169872089Y-177746931D01*
X169904512Y-177739675D01*
X169915913Y-177735932D01*
X169943415Y-177723706D01*
X169967759Y-177709132D01*
X169978054Y-177700745D01*
X169987590Y-177689792D01*
X169993712Y-177677455D01*
X169997370Y-177659853D01*
X169999518Y-177633109D01*
X170000551Y-177609075D01*
X170001583Y-177575088D01*
X170001075Y-177552546D01*
X169998174Y-177537373D01*
X169992028Y-177525497D01*
X169981784Y-177512841D01*
X169979983Y-177510785D01*
X169954409Y-177489225D01*
X169922603Y-177472661D01*
X169919071Y-177471384D01*
X169893140Y-177465141D01*
X169856266Y-177459643D01*
X169813035Y-177455222D01*
X169768034Y-177452205D01*
X169725851Y-177450924D01*
X169691071Y-177451707D01*
X169673314Y-177453712D01*
X169644471Y-177459123D01*
X169644471Y-177605302D01*
X169644149Y-177658272D01*
X169279648Y-177658272D01*
X169279718Y-177631120D01*
X169279958Y-177549296D01*
X169280213Y-177472985D01*
X169280482Y-177403523D01*
X169280761Y-177342243D01*
X169281049Y-177290482D01*
X169281343Y-177249575D01*
X169281639Y-177220856D01*
X169281936Y-177205662D01*
X169282085Y-177203551D01*
X169290212Y-177202968D01*
X169312394Y-177202437D01*
X169347149Y-177201968D01*
X169392998Y-177201572D01*
X169448460Y-177201258D01*
X169512054Y-177201035D01*
X169582300Y-177200914D01*
X169657716Y-177200905D01*
X169676285Y-177200921D01*
X169764637Y-177201034D01*
X169838890Y-177201217D01*
X169900480Y-177201523D01*
X169950844Y-177202005D01*
X169991417Y-177202718D01*
X170023637Y-177203715D01*
X170048938Y-177205049D01*
X170068759Y-177206774D01*
X170084534Y-177208944D01*
X170097699Y-177211613D01*
X170109693Y-177214834D01*
X170118121Y-177217434D01*
X170150105Y-177228335D01*
X170181336Y-177240151D01*
X170200704Y-177248378D01*
X170221158Y-177257325D01*
X170235524Y-177262602D01*
X170238464Y-177263204D01*
X170250892Y-177268839D01*
X170269780Y-177283720D01*
X170292075Y-177304811D01*
X170314726Y-177329073D01*
X170334679Y-177353472D01*
X170346335Y-177370522D01*
X170370128Y-177423724D01*
X170383537Y-177484360D01*
X170386458Y-177548217D01*
X170378787Y-177611082D01*
X170360422Y-177668742D01*
X170353991Y-177682152D01*
X170336208Y-177710730D01*
X170312625Y-177740832D01*
X170286003Y-177769734D01*
X170259107Y-177794713D01*
X170234698Y-177813046D01*
X170215540Y-177822010D01*
X170211618Y-177822470D01*
X170201573Y-177828143D01*
X170199317Y-177831106D01*
X170199769Y-177841574D01*
X170212231Y-177849736D01*
X170233176Y-177853391D01*
X170235021Y-177853422D01*
X170256869Y-177857773D01*
X170269975Y-177864146D01*
X170289995Y-177875013D01*
X170304716Y-177880727D01*
X170322171Y-177889584D01*
X170346287Y-177906092D01*
X170372776Y-177926882D01*
X170397350Y-177948581D01*
X170415724Y-177967821D01*
X170416126Y-177968314D01*
X170446799Y-178017782D01*
X170467771Y-178077126D01*
X170478466Y-178143650D01*
X170478306Y-178214656D01*
X170475052Y-178243862D01*
X170469437Y-178278282D01*
X170462622Y-178305657D01*
X170452663Y-178330920D01*
X170437616Y-178359007D01*
X170415592Y-178394762D01*
X170399036Y-178416553D01*
X170375548Y-178441988D01*
X170347971Y-178468587D01*
X170319147Y-178493870D01*
X170291920Y-178515357D01*
X170269130Y-178530566D01*
X170253621Y-178537019D01*
X170252484Y-178537088D01*
X170242217Y-178540474D01*
X170224304Y-178548914D01*
X170218269Y-178552074D01*
X170191132Y-178563736D01*
X170162513Y-178572055D01*
X170160127Y-178572515D01*
X170136155Y-178578339D01*
X170116562Y-178585542D01*
X170114410Y-178586658D01*
X170103361Y-178588983D01*
X170078712Y-178591099D01*
X170040156Y-178593015D01*
X169987386Y-178594742D01*
X169920097Y-178596288D01*
X169837983Y-178597662D01*
X169740738Y-178598875D01*
X169706612Y-178599229D01*
X169629488Y-178599941D01*
X169556703Y-178600514D01*
X169489808Y-178600943D01*
X169430355Y-178601222D01*
X169379896Y-178601345D01*
X169339981Y-178601309D01*
X169312162Y-178601107D01*
X169297990Y-178600734D01*
X169296872Y-178600630D01*
X169283171Y-178595218D01*
X169279308Y-178588979D01*
X169279092Y-178556992D01*
X169278927Y-178513160D01*
X169278811Y-178458818D01*
X169278740Y-178395302D01*
X169278713Y-178323947D01*
X169278725Y-178246088D01*
X169278776Y-178163060D01*
X169278861Y-178076198D01*
X169278936Y-178018602D01*
X169644471Y-178018602D01*
X169644471Y-178180210D01*
X169644508Y-178234147D01*
X169644762Y-178274563D01*
X169645445Y-178303473D01*
X169646770Y-178322892D01*
X169648949Y-178334833D01*
X169652195Y-178341311D01*
X169656721Y-178344342D01*
X169661948Y-178345759D01*
X169675372Y-178346905D01*
X169701304Y-178347549D01*
X169736726Y-178347674D01*
X169778619Y-178347260D01*
X169809215Y-178346663D01*
X169863001Y-178344997D01*
X169903350Y-178342727D01*
X169932351Y-178339646D01*
X169952097Y-178335550D01*
X169962239Y-178331611D01*
X169983810Y-178323097D01*
X170002726Y-178319596D01*
X170020056Y-178313337D01*
X170041014Y-178297120D01*
X170062085Y-178274782D01*
X170079755Y-178250161D01*
X170090510Y-178227095D01*
X170091616Y-178222522D01*
X170093984Y-178198748D01*
X170094379Y-178168089D01*
X170093539Y-178149426D01*
X170085262Y-178107578D01*
X170066234Y-178075152D01*
X170034915Y-178050217D01*
X170002602Y-178035332D01*
X169982318Y-178028800D01*
X169959225Y-178023822D01*
X169930359Y-178020039D01*
X169892758Y-178017090D01*
X169843458Y-178014616D01*
X169826268Y-178013925D01*
X169780555Y-178012497D01*
X169738619Y-178011810D01*
X169703627Y-178011868D01*
X169678744Y-178012675D01*
X169668974Y-178013701D01*
X169644471Y-178018602D01*
X169278936Y-178018602D01*
X169278978Y-177986838D01*
X169279126Y-177896315D01*
G36*
X168971224Y-177200547D02*
G01*
X169007897Y-177201243D01*
X169035392Y-177202368D01*
X169051238Y-177203950D01*
X169053781Y-177204729D01*
X169060728Y-177211763D01*
X169058846Y-177221508D01*
X169047027Y-177237303D01*
X169040541Y-177244653D01*
X168992710Y-177298740D01*
X168940947Y-177358816D01*
X168890724Y-177418499D01*
X168871452Y-177441859D01*
X168848625Y-177469459D01*
X168828821Y-177492924D01*
X168814460Y-177509413D01*
X168808545Y-177515651D01*
X168800352Y-177524553D01*
X168784787Y-177542835D01*
X168764170Y-177567733D01*
X168743363Y-177593327D01*
X168720676Y-177621293D01*
X168701475Y-177644643D01*
X168687891Y-177660805D01*
X168682186Y-177667119D01*
X168675582Y-177674143D01*
X168660882Y-177690648D01*
X168640113Y-177714329D01*
X168615305Y-177742886D01*
X168609425Y-177749688D01*
X168578263Y-177786904D01*
X168557241Y-177814848D01*
X168545324Y-177835038D01*
X168541476Y-177848993D01*
X168541474Y-177849249D01*
X168543113Y-177859971D01*
X168548891Y-177873407D01*
X168560104Y-177891519D01*
X168578046Y-177916270D01*
X168604010Y-177949623D01*
X168624759Y-177975549D01*
X168634649Y-177987997D01*
X168648051Y-178005179D01*
X168665824Y-178028219D01*
X168688824Y-178058237D01*
X168717910Y-178096356D01*
X168753939Y-178143696D01*
X168797770Y-178201380D01*
X168840526Y-178257704D01*
X168890544Y-178323550D01*
X168932253Y-178378301D01*
X168966679Y-178423281D01*
X168994850Y-178459811D01*
X169017791Y-178489216D01*
X169036530Y-178512817D01*
X169052093Y-178531938D01*
X169065506Y-178547901D01*
X169067721Y-178550484D01*
X169081835Y-178568762D01*
X169089804Y-178582813D01*
X169090518Y-178587154D01*
X169087045Y-178591824D01*
X169079044Y-178595473D01*
X169064943Y-178598191D01*
X169043173Y-178600067D01*
X169012161Y-178601189D01*
X168970338Y-178601647D01*
X168916133Y-178601530D01*
X168847975Y-178600927D01*
X168847656Y-178600924D01*
X168645062Y-178598736D01*
X168622396Y-178567328D01*
X168607469Y-178546939D01*
X168586671Y-178518911D01*
X168563524Y-178487979D01*
X168553125Y-178474171D01*
X168525754Y-178437833D01*
X168494818Y-178396651D01*
X168466034Y-178358240D01*
X168459914Y-178350056D01*
X168432543Y-178313501D01*
X168401606Y-178272292D01*
X168372822Y-178234045D01*
X168366703Y-178225933D01*
X168340981Y-178191799D01*
X168313389Y-178155107D01*
X168288774Y-178122306D01*
X168282343Y-178113719D01*
X168263438Y-178090188D01*
X168246768Y-178072513D01*
X168235268Y-178063723D01*
X168233425Y-178063265D01*
X168219850Y-178069388D01*
X168201606Y-178085556D01*
X168181982Y-178108472D01*
X168167596Y-178129290D01*
X168163342Y-178137262D01*
X168160009Y-178147088D01*
X168157486Y-178160637D01*
X168155663Y-178179775D01*
X168154427Y-178206371D01*
X168153667Y-178242292D01*
X168153273Y-178289405D01*
X168153133Y-178349578D01*
X168153124Y-178372271D01*
X168152977Y-178439029D01*
X168152512Y-178491726D01*
X168151660Y-178531833D01*
X168150354Y-178560822D01*
X168148527Y-178580165D01*
X168146111Y-178591334D01*
X168143037Y-178595800D01*
X168142854Y-178595879D01*
X168132290Y-178597123D01*
X168109061Y-178598316D01*
X168076036Y-178599416D01*
X168036084Y-178600385D01*
X167992075Y-178601181D01*
X167946879Y-178601763D01*
X167903366Y-178602093D01*
X167864404Y-178602128D01*
X167832863Y-178601829D01*
X167811613Y-178601155D01*
X167805496Y-178600630D01*
X167791795Y-178595218D01*
X167787932Y-178588979D01*
X167787713Y-178556659D01*
X167787546Y-178512528D01*
X167787429Y-178457921D01*
X167787357Y-178394174D01*
X167787330Y-178322621D01*
X167787343Y-178244596D01*
X167787395Y-178161436D01*
X167787482Y-178074475D01*
X167787602Y-177985047D01*
X167787752Y-177894488D01*
X167787930Y-177804132D01*
X167788132Y-177715315D01*
X167788356Y-177629371D01*
X167788599Y-177547636D01*
X167788859Y-177471444D01*
X167789132Y-177402129D01*
X167789417Y-177341028D01*
X167789710Y-177289475D01*
X167790008Y-177248804D01*
X167790310Y-177220352D01*
X167790611Y-177205452D01*
X167790757Y-177203504D01*
X167799391Y-177202332D01*
X167820846Y-177201451D01*
X167852411Y-177200847D01*
X167891373Y-177200509D01*
X167935021Y-177200425D01*
X167980644Y-177200582D01*
X168025529Y-177200969D01*
X168066967Y-177201572D01*
X168102244Y-177202381D01*
X168128650Y-177203382D01*
X168143473Y-177204565D01*
X168145556Y-177205089D01*
X168147581Y-177214028D01*
X168149328Y-177237546D01*
X168150774Y-177274688D01*
X168151892Y-177324500D01*
X168152658Y-177386025D01*
X168153049Y-177458311D01*
X168153095Y-177496232D01*
X168153281Y-177564968D01*
X168153815Y-177627209D01*
X168154660Y-177681416D01*
X168155777Y-177726047D01*
X168157130Y-177759564D01*
X168158680Y-177780426D01*
X168160162Y-177787083D01*
X168173212Y-177788582D01*
X168189141Y-177777560D01*
X168209260Y-177753073D01*
X168211181Y-177750375D01*
X168221493Y-177736508D01*
X168239894Y-177712509D01*
X168264794Y-177680398D01*
X168294606Y-177642197D01*
X168327739Y-177599926D01*
X168362605Y-177555604D01*
X168397614Y-177511254D01*
X168431177Y-177468895D01*
X168461706Y-177430547D01*
X168487611Y-177398232D01*
X168505094Y-177376667D01*
X168522038Y-177355393D01*
X168543832Y-177327277D01*
X168566099Y-177297976D01*
X168568686Y-177294527D01*
X168588421Y-177268678D01*
X168606078Y-177246444D01*
X168618497Y-177231781D01*
X168620424Y-177229750D01*
X168631714Y-177216478D01*
X168635933Y-177209237D01*
X168644000Y-177207263D01*
X168665129Y-177205478D01*
X168696850Y-177203910D01*
X168736692Y-177202586D01*
X168782184Y-177201531D01*
X168830854Y-177200774D01*
X168880232Y-177200339D01*
X168927846Y-177200255D01*
X168971224Y-177200547D01*
G37*
X168971224Y-177200547D02*
X169007897Y-177201243D01*
X169035392Y-177202368D01*
X169051238Y-177203950D01*
X169053781Y-177204729D01*
X169060728Y-177211763D01*
X169058846Y-177221508D01*
X169047027Y-177237303D01*
X169040541Y-177244653D01*
X168992710Y-177298740D01*
X168940947Y-177358816D01*
X168890724Y-177418499D01*
X168871452Y-177441859D01*
X168848625Y-177469459D01*
X168828821Y-177492924D01*
X168814460Y-177509413D01*
X168808545Y-177515651D01*
X168800352Y-177524553D01*
X168784787Y-177542835D01*
X168764170Y-177567733D01*
X168743363Y-177593327D01*
X168720676Y-177621293D01*
X168701475Y-177644643D01*
X168687891Y-177660805D01*
X168682186Y-177667119D01*
X168675582Y-177674143D01*
X168660882Y-177690648D01*
X168640113Y-177714329D01*
X168615305Y-177742886D01*
X168609425Y-177749688D01*
X168578263Y-177786904D01*
X168557241Y-177814848D01*
X168545324Y-177835038D01*
X168541476Y-177848993D01*
X168541474Y-177849249D01*
X168543113Y-177859971D01*
X168548891Y-177873407D01*
X168560104Y-177891519D01*
X168578046Y-177916270D01*
X168604010Y-177949623D01*
X168624759Y-177975549D01*
X168634649Y-177987997D01*
X168648051Y-178005179D01*
X168665824Y-178028219D01*
X168688824Y-178058237D01*
X168717910Y-178096356D01*
X168753939Y-178143696D01*
X168797770Y-178201380D01*
X168840526Y-178257704D01*
X168890544Y-178323550D01*
X168932253Y-178378301D01*
X168966679Y-178423281D01*
X168994850Y-178459811D01*
X169017791Y-178489216D01*
X169036530Y-178512817D01*
X169052093Y-178531938D01*
X169065506Y-178547901D01*
X169067721Y-178550484D01*
X169081835Y-178568762D01*
X169089804Y-178582813D01*
X169090518Y-178587154D01*
X169087045Y-178591824D01*
X169079044Y-178595473D01*
X169064943Y-178598191D01*
X169043173Y-178600067D01*
X169012161Y-178601189D01*
X168970338Y-178601647D01*
X168916133Y-178601530D01*
X168847975Y-178600927D01*
X168847656Y-178600924D01*
X168645062Y-178598736D01*
X168622396Y-178567328D01*
X168607469Y-178546939D01*
X168586671Y-178518911D01*
X168563524Y-178487979D01*
X168553125Y-178474171D01*
X168525754Y-178437833D01*
X168494818Y-178396651D01*
X168466034Y-178358240D01*
X168459914Y-178350056D01*
X168432543Y-178313501D01*
X168401606Y-178272292D01*
X168372822Y-178234045D01*
X168366703Y-178225933D01*
X168340981Y-178191799D01*
X168313389Y-178155107D01*
X168288774Y-178122306D01*
X168282343Y-178113719D01*
X168263438Y-178090188D01*
X168246768Y-178072513D01*
X168235268Y-178063723D01*
X168233425Y-178063265D01*
X168219850Y-178069388D01*
X168201606Y-178085556D01*
X168181982Y-178108472D01*
X168167596Y-178129290D01*
X168163342Y-178137262D01*
X168160009Y-178147088D01*
X168157486Y-178160637D01*
X168155663Y-178179775D01*
X168154427Y-178206371D01*
X168153667Y-178242292D01*
X168153273Y-178289405D01*
X168153133Y-178349578D01*
X168153124Y-178372271D01*
X168152977Y-178439029D01*
X168152512Y-178491726D01*
X168151660Y-178531833D01*
X168150354Y-178560822D01*
X168148527Y-178580165D01*
X168146111Y-178591334D01*
X168143037Y-178595800D01*
X168142854Y-178595879D01*
X168132290Y-178597123D01*
X168109061Y-178598316D01*
X168076036Y-178599416D01*
X168036084Y-178600385D01*
X167992075Y-178601181D01*
X167946879Y-178601763D01*
X167903366Y-178602093D01*
X167864404Y-178602128D01*
X167832863Y-178601829D01*
X167811613Y-178601155D01*
X167805496Y-178600630D01*
X167791795Y-178595218D01*
X167787932Y-178588979D01*
X167787713Y-178556659D01*
X167787546Y-178512528D01*
X167787429Y-178457921D01*
X167787357Y-178394174D01*
X167787330Y-178322621D01*
X167787343Y-178244596D01*
X167787395Y-178161436D01*
X167787482Y-178074475D01*
X167787602Y-177985047D01*
X167787752Y-177894488D01*
X167787930Y-177804132D01*
X167788132Y-177715315D01*
X167788356Y-177629371D01*
X167788599Y-177547636D01*
X167788859Y-177471444D01*
X167789132Y-177402129D01*
X167789417Y-177341028D01*
X167789710Y-177289475D01*
X167790008Y-177248804D01*
X167790310Y-177220352D01*
X167790611Y-177205452D01*
X167790757Y-177203504D01*
X167799391Y-177202332D01*
X167820846Y-177201451D01*
X167852411Y-177200847D01*
X167891373Y-177200509D01*
X167935021Y-177200425D01*
X167980644Y-177200582D01*
X168025529Y-177200969D01*
X168066967Y-177201572D01*
X168102244Y-177202381D01*
X168128650Y-177203382D01*
X168143473Y-177204565D01*
X168145556Y-177205089D01*
X168147581Y-177214028D01*
X168149328Y-177237546D01*
X168150774Y-177274688D01*
X168151892Y-177324500D01*
X168152658Y-177386025D01*
X168153049Y-177458311D01*
X168153095Y-177496232D01*
X168153281Y-177564968D01*
X168153815Y-177627209D01*
X168154660Y-177681416D01*
X168155777Y-177726047D01*
X168157130Y-177759564D01*
X168158680Y-177780426D01*
X168160162Y-177787083D01*
X168173212Y-177788582D01*
X168189141Y-177777560D01*
X168209260Y-177753073D01*
X168211181Y-177750375D01*
X168221493Y-177736508D01*
X168239894Y-177712509D01*
X168264794Y-177680398D01*
X168294606Y-177642197D01*
X168327739Y-177599926D01*
X168362605Y-177555604D01*
X168397614Y-177511254D01*
X168431177Y-177468895D01*
X168461706Y-177430547D01*
X168487611Y-177398232D01*
X168505094Y-177376667D01*
X168522038Y-177355393D01*
X168543832Y-177327277D01*
X168566099Y-177297976D01*
X168568686Y-177294527D01*
X168588421Y-177268678D01*
X168606078Y-177246444D01*
X168618497Y-177231781D01*
X168620424Y-177229750D01*
X168631714Y-177216478D01*
X168635933Y-177209237D01*
X168644000Y-177207263D01*
X168665129Y-177205478D01*
X168696850Y-177203910D01*
X168736692Y-177202586D01*
X168782184Y-177201531D01*
X168830854Y-177200774D01*
X168880232Y-177200339D01*
X168927846Y-177200255D01*
X168971224Y-177200547D01*
G36*
X165845244Y-177200793D02*
G01*
X165934552Y-177200949D01*
X166010272Y-177201256D01*
X166073377Y-177201733D01*
X166124841Y-177202400D01*
X166165637Y-177203275D01*
X166196738Y-177204376D01*
X166219117Y-177205724D01*
X166233749Y-177207337D01*
X166241606Y-177209233D01*
X166243493Y-177210545D01*
X166245897Y-177222005D01*
X166247708Y-177245633D01*
X166248928Y-177278074D01*
X166249560Y-177315975D01*
X166249607Y-177355979D01*
X166249069Y-177394733D01*
X166247951Y-177428880D01*
X166246253Y-177455067D01*
X166243979Y-177469937D01*
X166243312Y-177471508D01*
X166238760Y-177474236D01*
X166228043Y-177476442D01*
X166209856Y-177478167D01*
X166182893Y-177479452D01*
X166145849Y-177480341D01*
X166097418Y-177480873D01*
X166036296Y-177481092D01*
X165961177Y-177481039D01*
X165946321Y-177481004D01*
X165879591Y-177480970D01*
X165816908Y-177481195D01*
X165760175Y-177481654D01*
X165711294Y-177482319D01*
X165672170Y-177483165D01*
X165644704Y-177484165D01*
X165630800Y-177485294D01*
X165630572Y-177485338D01*
X165605327Y-177490406D01*
X165605327Y-177719550D01*
X165629601Y-177724405D01*
X165642940Y-177725548D01*
X165669834Y-177726595D01*
X165708304Y-177727514D01*
X165756371Y-177728272D01*
X165812054Y-177728836D01*
X165873375Y-177729174D01*
X165924311Y-177729259D01*
X166001575Y-177729480D01*
X166067268Y-177730127D01*
X166120622Y-177731179D01*
X166160875Y-177732616D01*
X166187259Y-177734414D01*
X166199012Y-177736554D01*
X166199509Y-177736965D01*
X166201127Y-177747015D01*
X166202509Y-177769784D01*
X166203554Y-177802452D01*
X166204160Y-177842203D01*
X166204271Y-177869076D01*
X166203986Y-177911795D01*
X166203201Y-177949172D01*
X166202015Y-177978390D01*
X166200531Y-177996631D01*
X166199509Y-178001187D01*
X166190413Y-178003385D01*
X166166549Y-178005245D01*
X166128684Y-178006747D01*
X166077581Y-178007868D01*
X166014006Y-178008588D01*
X165938724Y-178008885D01*
X165924311Y-178008892D01*
X165859945Y-178009029D01*
X165799659Y-178009418D01*
X165745431Y-178010026D01*
X165699242Y-178010821D01*
X165663071Y-178011770D01*
X165638897Y-178012840D01*
X165629601Y-178013747D01*
X165605327Y-178018602D01*
X165605327Y-178305275D01*
X165605229Y-178382232D01*
X165604903Y-178444960D01*
X165604303Y-178494764D01*
X165603383Y-178532949D01*
X165602098Y-178560822D01*
X165600401Y-178579686D01*
X165598247Y-178590848D01*
X165595588Y-178595612D01*
X165595086Y-178595879D01*
X165584523Y-178597123D01*
X165561293Y-178598316D01*
X165528268Y-178599416D01*
X165488316Y-178600385D01*
X165444308Y-178601181D01*
X165399112Y-178601763D01*
X165355598Y-178602093D01*
X165316636Y-178602128D01*
X165285095Y-178601829D01*
X165263845Y-178601155D01*
X165257728Y-178600630D01*
X165244027Y-178595218D01*
X165240164Y-178588979D01*
X165239961Y-178558423D01*
X165239805Y-178515877D01*
X165239694Y-178462676D01*
X165239626Y-178400157D01*
X165239598Y-178329656D01*
X165239607Y-178252510D01*
X165239652Y-178170055D01*
X165239729Y-178083627D01*
X165239837Y-177994564D01*
X165239972Y-177904200D01*
X165240132Y-177813874D01*
X165240315Y-177724920D01*
X165240519Y-177638677D01*
X165240740Y-177556479D01*
X165240976Y-177479663D01*
X165241225Y-177409567D01*
X165241484Y-177347525D01*
X165241751Y-177294875D01*
X165242024Y-177252953D01*
X165242299Y-177223096D01*
X165242575Y-177206639D01*
X165242739Y-177203754D01*
X165250790Y-177203261D01*
X165273065Y-177202789D01*
X165308252Y-177202349D01*
X165355039Y-177201946D01*
X165412116Y-177201589D01*
X165478170Y-177201287D01*
X165551890Y-177201046D01*
X165631964Y-177200875D01*
X165717081Y-177200781D01*
X165741375Y-177200769D01*
X165845244Y-177200793D01*
G37*
X165845244Y-177200793D02*
X165934552Y-177200949D01*
X166010272Y-177201256D01*
X166073377Y-177201733D01*
X166124841Y-177202400D01*
X166165637Y-177203275D01*
X166196738Y-177204376D01*
X166219117Y-177205724D01*
X166233749Y-177207337D01*
X166241606Y-177209233D01*
X166243493Y-177210545D01*
X166245897Y-177222005D01*
X166247708Y-177245633D01*
X166248928Y-177278074D01*
X166249560Y-177315975D01*
X166249607Y-177355979D01*
X166249069Y-177394733D01*
X166247951Y-177428880D01*
X166246253Y-177455067D01*
X166243979Y-177469937D01*
X166243312Y-177471508D01*
X166238760Y-177474236D01*
X166228043Y-177476442D01*
X166209856Y-177478167D01*
X166182893Y-177479452D01*
X166145849Y-177480341D01*
X166097418Y-177480873D01*
X166036296Y-177481092D01*
X165961177Y-177481039D01*
X165946321Y-177481004D01*
X165879591Y-177480970D01*
X165816908Y-177481195D01*
X165760175Y-177481654D01*
X165711294Y-177482319D01*
X165672170Y-177483165D01*
X165644704Y-177484165D01*
X165630800Y-177485294D01*
X165630572Y-177485338D01*
X165605327Y-177490406D01*
X165605327Y-177719550D01*
X165629601Y-177724405D01*
X165642940Y-177725548D01*
X165669834Y-177726595D01*
X165708304Y-177727514D01*
X165756371Y-177728272D01*
X165812054Y-177728836D01*
X165873375Y-177729174D01*
X165924311Y-177729259D01*
X166001575Y-177729480D01*
X166067268Y-177730127D01*
X166120622Y-177731179D01*
X166160875Y-177732616D01*
X166187259Y-177734414D01*
X166199012Y-177736554D01*
X166199509Y-177736965D01*
X166201127Y-177747015D01*
X166202509Y-177769784D01*
X166203554Y-177802452D01*
X166204160Y-177842203D01*
X166204271Y-177869076D01*
X166203986Y-177911795D01*
X166203201Y-177949172D01*
X166202015Y-177978390D01*
X166200531Y-177996631D01*
X166199509Y-178001187D01*
X166190413Y-178003385D01*
X166166549Y-178005245D01*
X166128684Y-178006747D01*
X166077581Y-178007868D01*
X166014006Y-178008588D01*
X165938724Y-178008885D01*
X165924311Y-178008892D01*
X165859945Y-178009029D01*
X165799659Y-178009418D01*
X165745431Y-178010026D01*
X165699242Y-178010821D01*
X165663071Y-178011770D01*
X165638897Y-178012840D01*
X165629601Y-178013747D01*
X165605327Y-178018602D01*
X165605327Y-178305275D01*
X165605229Y-178382232D01*
X165604903Y-178444960D01*
X165604303Y-178494764D01*
X165603383Y-178532949D01*
X165602098Y-178560822D01*
X165600401Y-178579686D01*
X165598247Y-178590848D01*
X165595588Y-178595612D01*
X165595086Y-178595879D01*
X165584523Y-178597123D01*
X165561293Y-178598316D01*
X165528268Y-178599416D01*
X165488316Y-178600385D01*
X165444308Y-178601181D01*
X165399112Y-178601763D01*
X165355598Y-178602093D01*
X165316636Y-178602128D01*
X165285095Y-178601829D01*
X165263845Y-178601155D01*
X165257728Y-178600630D01*
X165244027Y-178595218D01*
X165240164Y-178588979D01*
X165239961Y-178558423D01*
X165239805Y-178515877D01*
X165239694Y-178462676D01*
X165239626Y-178400157D01*
X165239598Y-178329656D01*
X165239607Y-178252510D01*
X165239652Y-178170055D01*
X165239729Y-178083627D01*
X165239837Y-177994564D01*
X165239972Y-177904200D01*
X165240132Y-177813874D01*
X165240315Y-177724920D01*
X165240519Y-177638677D01*
X165240740Y-177556479D01*
X165240976Y-177479663D01*
X165241225Y-177409567D01*
X165241484Y-177347525D01*
X165241751Y-177294875D01*
X165242024Y-177252953D01*
X165242299Y-177223096D01*
X165242575Y-177206639D01*
X165242739Y-177203754D01*
X165250790Y-177203261D01*
X165273065Y-177202789D01*
X165308252Y-177202349D01*
X165355039Y-177201946D01*
X165412116Y-177201589D01*
X165478170Y-177201287D01*
X165551890Y-177201046D01*
X165631964Y-177200875D01*
X165717081Y-177200781D01*
X165741375Y-177200769D01*
X165845244Y-177200793D01*
G36*
X164575135Y-177171136D02*
G01*
X164608589Y-177172063D01*
X164635334Y-177174057D01*
X164658310Y-177177300D01*
X164680456Y-177181976D01*
X164693357Y-177185227D01*
X164723325Y-177192703D01*
X164748391Y-177198276D01*
X164764028Y-177200959D01*
X164765799Y-177201064D01*
X164780952Y-177204083D01*
X164805697Y-177212026D01*
X164835562Y-177223218D01*
X164866074Y-177235986D01*
X164892248Y-177248391D01*
X164913121Y-177257798D01*
X164929565Y-177262901D01*
X164932465Y-177263204D01*
X164944806Y-177268870D01*
X164959216Y-177282631D01*
X164960205Y-177283863D01*
X164965608Y-177291476D01*
X164969620Y-177300138D01*
X164972411Y-177312061D01*
X164974149Y-177329458D01*
X164975005Y-177354539D01*
X164975149Y-177389517D01*
X164974750Y-177436604D01*
X164974362Y-177468343D01*
X164972269Y-177632165D01*
X164947340Y-177634575D01*
X164931114Y-177633803D01*
X164913851Y-177626918D01*
X164891598Y-177612005D01*
X164876557Y-177600294D01*
X164802706Y-177548159D01*
X164723236Y-177504540D01*
X164643404Y-177472276D01*
X164634379Y-177469404D01*
X164596283Y-177461983D01*
X164548558Y-177459099D01*
X164496387Y-177460598D01*
X164444949Y-177466326D01*
X164399428Y-177476128D01*
X164398333Y-177476447D01*
X164353536Y-177494541D01*
X164307381Y-177521429D01*
X164266853Y-177552800D01*
X164253768Y-177565653D01*
X164235079Y-177587597D01*
X164216917Y-177612067D01*
X164201997Y-177635024D01*
X164193034Y-177652430D01*
X164191627Y-177658100D01*
X164187642Y-177671289D01*
X164179643Y-177685955D01*
X164174864Y-177694188D01*
X164170671Y-177704448D01*
X164166522Y-177719121D01*
X164161877Y-177740590D01*
X164156198Y-177771240D01*
X164148944Y-177813455D01*
X164143755Y-177844458D01*
X164140326Y-177867418D01*
X164138499Y-177888329D01*
X164138493Y-177910159D01*
X164140526Y-177935877D01*
X164144815Y-177968452D01*
X164151579Y-178010852D01*
X164159259Y-178055819D01*
X164176830Y-178115669D01*
X164207204Y-178173847D01*
X164247772Y-178226703D01*
X164295930Y-178270590D01*
X164327382Y-178291099D01*
X164373863Y-178312204D01*
X164426931Y-178328358D01*
X164482675Y-178339045D01*
X164537180Y-178343749D01*
X164586535Y-178341953D01*
X164626827Y-178333142D01*
X164631694Y-178331247D01*
X164652983Y-178323603D01*
X164669663Y-178319718D01*
X164671713Y-178319596D01*
X164689105Y-178315285D01*
X164715943Y-178303565D01*
X164749174Y-178286250D01*
X164785746Y-178265155D01*
X164822605Y-178242096D01*
X164856699Y-178218888D01*
X164884975Y-178197346D01*
X164900142Y-178183764D01*
X164920224Y-178168818D01*
X164942210Y-178165338D01*
X164946497Y-178165654D01*
X164972269Y-178168128D01*
X164974364Y-178332733D01*
X164976459Y-178497337D01*
X164955025Y-178517213D01*
X164938204Y-178530299D01*
X164924421Y-178536897D01*
X164922710Y-178537088D01*
X164909335Y-178540156D01*
X164888604Y-178547868D01*
X164879909Y-178551667D01*
X164844793Y-178566952D01*
X164810319Y-178580659D01*
X164780183Y-178591438D01*
X164758078Y-178597938D01*
X164749813Y-178599229D01*
X164736261Y-178601498D01*
X164713246Y-178607415D01*
X164688752Y-178614764D01*
X164670201Y-178620138D01*
X164651219Y-178624102D01*
X164629130Y-178626843D01*
X164601256Y-178628552D01*
X164564920Y-178629416D01*
X164517445Y-178629625D01*
X164479958Y-178629502D01*
X164422704Y-178629003D01*
X164378436Y-178628021D01*
X164344608Y-178626369D01*
X164318674Y-178623857D01*
X164298087Y-178620295D01*
X164280302Y-178615495D01*
X164277070Y-178614442D01*
X164250190Y-178606422D01*
X164226701Y-178601036D01*
X164216128Y-178599703D01*
X164195542Y-178595661D01*
X164177290Y-178588311D01*
X164159303Y-178579180D01*
X164133409Y-178566492D01*
X164110067Y-178555303D01*
X164060602Y-178529583D01*
X164017853Y-178501646D01*
X163977611Y-178468214D01*
X163935666Y-178426011D01*
X163915878Y-178404147D01*
X163888769Y-178369693D01*
X163862210Y-178329548D01*
X163843837Y-178296293D01*
X163834166Y-178277269D01*
X163827514Y-178265223D01*
X163816590Y-178242007D01*
X163803925Y-178207388D01*
X163790763Y-178165209D01*
X163778349Y-178119311D01*
X163772953Y-178096790D01*
X163765952Y-178062266D01*
X163761198Y-178027960D01*
X163758337Y-177989634D01*
X163757020Y-177943050D01*
X163756828Y-177902601D01*
X163757409Y-177857790D01*
X163758888Y-177816047D01*
X163761070Y-177780945D01*
X163763761Y-177756055D01*
X163765204Y-177748678D01*
X163771578Y-177723237D01*
X163779141Y-177691308D01*
X163783753Y-177671002D01*
X163810468Y-177583596D01*
X163850071Y-177500317D01*
X163900929Y-177423292D01*
X163961413Y-177354647D01*
X164029891Y-177296508D01*
X164104734Y-177251002D01*
X164106565Y-177250098D01*
X164156898Y-177226321D01*
X164201411Y-177207957D01*
X164243503Y-177194284D01*
X164286571Y-177184584D01*
X164334016Y-177178135D01*
X164389236Y-177174218D01*
X164455631Y-177172112D01*
X164476343Y-177171754D01*
X164532033Y-177171094D01*
X164575135Y-177171136D01*
G37*
X164575135Y-177171136D02*
X164608589Y-177172063D01*
X164635334Y-177174057D01*
X164658310Y-177177300D01*
X164680456Y-177181976D01*
X164693357Y-177185227D01*
X164723325Y-177192703D01*
X164748391Y-177198276D01*
X164764028Y-177200959D01*
X164765799Y-177201064D01*
X164780952Y-177204083D01*
X164805697Y-177212026D01*
X164835562Y-177223218D01*
X164866074Y-177235986D01*
X164892248Y-177248391D01*
X164913121Y-177257798D01*
X164929565Y-177262901D01*
X164932465Y-177263204D01*
X164944806Y-177268870D01*
X164959216Y-177282631D01*
X164960205Y-177283863D01*
X164965608Y-177291476D01*
X164969620Y-177300138D01*
X164972411Y-177312061D01*
X164974149Y-177329458D01*
X164975005Y-177354539D01*
X164975149Y-177389517D01*
X164974750Y-177436604D01*
X164974362Y-177468343D01*
X164972269Y-177632165D01*
X164947340Y-177634575D01*
X164931114Y-177633803D01*
X164913851Y-177626918D01*
X164891598Y-177612005D01*
X164876557Y-177600294D01*
X164802706Y-177548159D01*
X164723236Y-177504540D01*
X164643404Y-177472276D01*
X164634379Y-177469404D01*
X164596283Y-177461983D01*
X164548558Y-177459099D01*
X164496387Y-177460598D01*
X164444949Y-177466326D01*
X164399428Y-177476128D01*
X164398333Y-177476447D01*
X164353536Y-177494541D01*
X164307381Y-177521429D01*
X164266853Y-177552800D01*
X164253768Y-177565653D01*
X164235079Y-177587597D01*
X164216917Y-177612067D01*
X164201997Y-177635024D01*
X164193034Y-177652430D01*
X164191627Y-177658100D01*
X164187642Y-177671289D01*
X164179643Y-177685955D01*
X164174864Y-177694188D01*
X164170671Y-177704448D01*
X164166522Y-177719121D01*
X164161877Y-177740590D01*
X164156198Y-177771240D01*
X164148944Y-177813455D01*
X164143755Y-177844458D01*
X164140326Y-177867418D01*
X164138499Y-177888329D01*
X164138493Y-177910159D01*
X164140526Y-177935877D01*
X164144815Y-177968452D01*
X164151579Y-178010852D01*
X164159259Y-178055819D01*
X164176830Y-178115669D01*
X164207204Y-178173847D01*
X164247772Y-178226703D01*
X164295930Y-178270590D01*
X164327382Y-178291099D01*
X164373863Y-178312204D01*
X164426931Y-178328358D01*
X164482675Y-178339045D01*
X164537180Y-178343749D01*
X164586535Y-178341953D01*
X164626827Y-178333142D01*
X164631694Y-178331247D01*
X164652983Y-178323603D01*
X164669663Y-178319718D01*
X164671713Y-178319596D01*
X164689105Y-178315285D01*
X164715943Y-178303565D01*
X164749174Y-178286250D01*
X164785746Y-178265155D01*
X164822605Y-178242096D01*
X164856699Y-178218888D01*
X164884975Y-178197346D01*
X164900142Y-178183764D01*
X164920224Y-178168818D01*
X164942210Y-178165338D01*
X164946497Y-178165654D01*
X164972269Y-178168128D01*
X164974364Y-178332733D01*
X164976459Y-178497337D01*
X164955025Y-178517213D01*
X164938204Y-178530299D01*
X164924421Y-178536897D01*
X164922710Y-178537088D01*
X164909335Y-178540156D01*
X164888604Y-178547868D01*
X164879909Y-178551667D01*
X164844793Y-178566952D01*
X164810319Y-178580659D01*
X164780183Y-178591438D01*
X164758078Y-178597938D01*
X164749813Y-178599229D01*
X164736261Y-178601498D01*
X164713246Y-178607415D01*
X164688752Y-178614764D01*
X164670201Y-178620138D01*
X164651219Y-178624102D01*
X164629130Y-178626843D01*
X164601256Y-178628552D01*
X164564920Y-178629416D01*
X164517445Y-178629625D01*
X164479958Y-178629502D01*
X164422704Y-178629003D01*
X164378436Y-178628021D01*
X164344608Y-178626369D01*
X164318674Y-178623857D01*
X164298087Y-178620295D01*
X164280302Y-178615495D01*
X164277070Y-178614442D01*
X164250190Y-178606422D01*
X164226701Y-178601036D01*
X164216128Y-178599703D01*
X164195542Y-178595661D01*
X164177290Y-178588311D01*
X164159303Y-178579180D01*
X164133409Y-178566492D01*
X164110067Y-178555303D01*
X164060602Y-178529583D01*
X164017853Y-178501646D01*
X163977611Y-178468214D01*
X163935666Y-178426011D01*
X163915878Y-178404147D01*
X163888769Y-178369693D01*
X163862210Y-178329548D01*
X163843837Y-178296293D01*
X163834166Y-178277269D01*
X163827514Y-178265223D01*
X163816590Y-178242007D01*
X163803925Y-178207388D01*
X163790763Y-178165209D01*
X163778349Y-178119311D01*
X163772953Y-178096790D01*
X163765952Y-178062266D01*
X163761198Y-178027960D01*
X163758337Y-177989634D01*
X163757020Y-177943050D01*
X163756828Y-177902601D01*
X163757409Y-177857790D01*
X163758888Y-177816047D01*
X163761070Y-177780945D01*
X163763761Y-177756055D01*
X163765204Y-177748678D01*
X163771578Y-177723237D01*
X163779141Y-177691308D01*
X163783753Y-177671002D01*
X163810468Y-177583596D01*
X163850071Y-177500317D01*
X163900929Y-177423292D01*
X163961413Y-177354647D01*
X164029891Y-177296508D01*
X164104734Y-177251002D01*
X164106565Y-177250098D01*
X164156898Y-177226321D01*
X164201411Y-177207957D01*
X164243503Y-177194284D01*
X164286571Y-177184584D01*
X164334016Y-177178135D01*
X164389236Y-177174218D01*
X164455631Y-177172112D01*
X164476343Y-177171754D01*
X164532033Y-177171094D01*
X164575135Y-177171136D01*
G36*
X161489278Y-183873678D02*
G01*
X161489065Y-183730500D01*
X161488884Y-183580349D01*
X161488736Y-183423883D01*
X161488623Y-183261759D01*
X161488548Y-183094637D01*
X161488523Y-182978071D01*
X162212252Y-182978071D01*
X162212274Y-183038313D01*
X162212465Y-183090617D01*
X162212818Y-183133348D01*
X162213325Y-183164865D01*
X162213977Y-183183532D01*
X162214466Y-183187976D01*
X162218063Y-183189819D01*
X162227915Y-183191407D01*
X162244883Y-183192750D01*
X162269831Y-183193860D01*
X162303620Y-183194748D01*
X162347114Y-183195424D01*
X162401173Y-183195899D01*
X162466661Y-183196184D01*
X162544440Y-183196290D01*
X162635373Y-183196228D01*
X162740321Y-183196009D01*
X162830132Y-183195744D01*
X163442055Y-183193755D01*
X163443191Y-183003755D01*
X163633537Y-183003755D01*
X163633848Y-183063629D01*
X163634564Y-183110620D01*
X163635702Y-183145609D01*
X163637280Y-183169479D01*
X163639315Y-183183113D01*
X163640838Y-183186842D01*
X163644996Y-183189235D01*
X163653939Y-183191260D01*
X163668809Y-183192946D01*
X163690747Y-183194321D01*
X163720897Y-183195413D01*
X163760399Y-183196252D01*
X163810396Y-183196864D01*
X163872030Y-183197279D01*
X163946443Y-183197525D01*
X164034778Y-183197630D01*
X164075606Y-183197639D01*
X164180043Y-183197494D01*
X164270432Y-183197065D01*
X164346545Y-183196355D01*
X164408154Y-183195368D01*
X164455029Y-183194108D01*
X164486944Y-183192579D01*
X164503668Y-183190786D01*
X164506267Y-183189786D01*
X164507556Y-183180127D01*
X164508624Y-183156984D01*
X164509477Y-183122298D01*
X164510121Y-183078012D01*
X164510563Y-183026068D01*
X164510768Y-182978065D01*
X164884299Y-182978065D01*
X164884319Y-183038301D01*
X164884508Y-183090599D01*
X164884858Y-183133322D01*
X164885362Y-183164832D01*
X164886010Y-183183490D01*
X164886497Y-183187929D01*
X164894913Y-183190226D01*
X164917148Y-183192245D01*
X164951489Y-183193985D01*
X164996222Y-183195448D01*
X165049635Y-183196636D01*
X165110013Y-183197548D01*
X165175644Y-183198187D01*
X165244813Y-183198554D01*
X165315808Y-183198649D01*
X165386916Y-183198473D01*
X165456422Y-183198028D01*
X165522614Y-183197315D01*
X165583777Y-183196335D01*
X165638200Y-183195088D01*
X165684167Y-183193576D01*
X165719967Y-183191801D01*
X165743885Y-183189763D01*
X165754208Y-183187462D01*
X165754298Y-183187381D01*
X165756825Y-183182220D01*
X165758842Y-183171476D01*
X165760372Y-183153898D01*
X165761438Y-183128231D01*
X165762063Y-183093224D01*
X165762271Y-183047622D01*
X165762084Y-182990174D01*
X165761524Y-182919627D01*
X165761426Y-182910349D01*
X165954228Y-182910349D01*
X165954253Y-182971614D01*
X165954467Y-183028995D01*
X165954878Y-183080551D01*
X165955494Y-183124338D01*
X165956322Y-183158416D01*
X165957370Y-183180842D01*
X165958571Y-183189577D01*
X165967372Y-183191603D01*
X165991146Y-183193334D01*
X166029978Y-183194771D01*
X166083956Y-183195915D01*
X166153166Y-183196768D01*
X166237695Y-183197332D01*
X166337630Y-183197608D01*
X166389361Y-183197639D01*
X166483780Y-183197583D01*
X166563806Y-183197399D01*
X166630582Y-183197058D01*
X166685248Y-183196530D01*
X166728948Y-183195789D01*
X166762823Y-183194805D01*
X166788016Y-183193550D01*
X166805668Y-183191996D01*
X166816921Y-183190115D01*
X166822917Y-183187877D01*
X166824129Y-183186842D01*
X166826460Y-183179198D01*
X166828324Y-183161872D01*
X166829737Y-183133983D01*
X166830716Y-183094649D01*
X166831280Y-183042986D01*
X166831380Y-183003315D01*
X168263012Y-183003315D01*
X168263315Y-183063026D01*
X168264020Y-183109922D01*
X168265145Y-183144907D01*
X168266707Y-183168888D01*
X168268726Y-183182770D01*
X168270364Y-183186897D01*
X168274166Y-183189079D01*
X168282372Y-183190937D01*
X168296024Y-183192490D01*
X168316168Y-183193754D01*
X168343849Y-183194747D01*
X168380110Y-183195487D01*
X168425998Y-183195992D01*
X168482557Y-183196278D01*
X168550832Y-183196364D01*
X168631866Y-183196267D01*
X168726706Y-183196005D01*
X168796859Y-183195751D01*
X169314349Y-183193755D01*
X169316373Y-182852452D01*
X169316651Y-182781029D01*
X169316629Y-182714382D01*
X169316327Y-182654120D01*
X169315768Y-182601852D01*
X169314971Y-182559188D01*
X169313959Y-182527736D01*
X169312752Y-182509106D01*
X169311823Y-182504574D01*
X169303206Y-182503509D01*
X169280621Y-182502533D01*
X169245634Y-182501649D01*
X169199809Y-182500861D01*
X169144712Y-182500170D01*
X169081910Y-182499579D01*
X169012968Y-182499090D01*
X168939451Y-182498706D01*
X168862926Y-182498428D01*
X168784959Y-182498261D01*
X168707114Y-182498205D01*
X168630958Y-182498263D01*
X168558057Y-182498438D01*
X168489975Y-182498733D01*
X168428280Y-182499149D01*
X168374536Y-182499689D01*
X168330310Y-182500355D01*
X168297167Y-182501151D01*
X168276673Y-182502077D01*
X168270375Y-182502962D01*
X168269345Y-182511467D01*
X168268294Y-182533893D01*
X168267255Y-182568623D01*
X168266260Y-182614045D01*
X168265342Y-182668542D01*
X168264532Y-182730499D01*
X168263865Y-182798303D01*
X168263541Y-182841825D01*
X168263094Y-182929883D01*
X168263012Y-183003315D01*
X166831380Y-183003315D01*
X166831445Y-182978112D01*
X166831229Y-182899145D01*
X166830905Y-182841825D01*
X166830340Y-182771249D01*
X166829612Y-182705533D01*
X166828754Y-182646292D01*
X166827799Y-182595142D01*
X166826779Y-182553697D01*
X166825728Y-182523573D01*
X166824677Y-182506384D01*
X166824051Y-182502941D01*
X166815379Y-182501831D01*
X166792897Y-182500880D01*
X166758327Y-182500085D01*
X166713394Y-182499441D01*
X166659820Y-182498947D01*
X166599330Y-182498598D01*
X166533646Y-182498391D01*
X166464493Y-182498323D01*
X166393593Y-182498390D01*
X166322671Y-182498590D01*
X166253450Y-182498919D01*
X166187653Y-182499374D01*
X166127003Y-182499951D01*
X166073226Y-182500648D01*
X166028043Y-182501460D01*
X165993179Y-182502385D01*
X165970356Y-182503419D01*
X165961299Y-182504559D01*
X165961263Y-182504590D01*
X165959927Y-182513427D01*
X165958712Y-182535857D01*
X165957626Y-182569938D01*
X165956675Y-182613728D01*
X165955868Y-182665285D01*
X165955212Y-182722668D01*
X165954715Y-182783934D01*
X165954384Y-182847141D01*
X165954228Y-182910349D01*
X165761426Y-182910349D01*
X165760679Y-182840128D01*
X165756795Y-182503133D01*
X165738904Y-182498902D01*
X165727903Y-182498170D01*
X165702870Y-182497619D01*
X165665305Y-182497253D01*
X165616709Y-182497071D01*
X165558585Y-182497076D01*
X165492433Y-182497268D01*
X165419755Y-182497649D01*
X165342052Y-182498219D01*
X165303919Y-182498556D01*
X164886826Y-182502440D01*
X164884799Y-182840330D01*
X164884457Y-182911529D01*
X164884299Y-182978065D01*
X164510768Y-182978065D01*
X164510810Y-182968410D01*
X164510867Y-182906978D01*
X164510741Y-182843717D01*
X164510439Y-182780568D01*
X164509967Y-182719473D01*
X164509331Y-182662376D01*
X164508538Y-182611219D01*
X164507594Y-182567944D01*
X164506506Y-182534493D01*
X164505279Y-182512810D01*
X164504007Y-182504893D01*
X164495299Y-182503716D01*
X164472781Y-182502644D01*
X164438177Y-182501680D01*
X164393211Y-182500829D01*
X164339606Y-182500094D01*
X164279086Y-182499480D01*
X164213375Y-182498989D01*
X164144197Y-182498627D01*
X164073275Y-182498398D01*
X164002334Y-182498303D01*
X163933096Y-182498349D01*
X163867287Y-182498539D01*
X163806629Y-182498876D01*
X163752847Y-182499365D01*
X163707664Y-182500009D01*
X163672804Y-182500812D01*
X163649990Y-182501779D01*
X163640948Y-182502913D01*
X163640915Y-182502941D01*
X163639881Y-182511451D01*
X163638827Y-182533881D01*
X163637784Y-182568615D01*
X163636786Y-182614041D01*
X163635865Y-182668541D01*
X163635053Y-182730501D01*
X163634385Y-182798306D01*
X163634061Y-182841825D01*
X163633614Y-182930115D01*
X163633537Y-183003755D01*
X163443191Y-183003755D01*
X163444078Y-182855518D01*
X163444493Y-182769864D01*
X163444607Y-182698587D01*
X163444395Y-182640531D01*
X163443829Y-182594540D01*
X163442886Y-182559458D01*
X163441539Y-182534130D01*
X163439762Y-182517398D01*
X163437530Y-182508108D01*
X163436310Y-182505976D01*
X163432881Y-182503881D01*
X163425829Y-182502083D01*
X163414164Y-182500571D01*
X163396899Y-182499332D01*
X163373044Y-182498354D01*
X163341612Y-182497626D01*
X163301612Y-182497136D01*
X163252057Y-182496872D01*
X163191958Y-182496821D01*
X163120326Y-182496972D01*
X163036172Y-182497314D01*
X162938508Y-182497834D01*
X162826346Y-182498519D01*
X162820648Y-182498556D01*
X162214777Y-182502440D01*
X162212750Y-182840330D01*
X162212408Y-182911531D01*
X162212252Y-182978071D01*
X161488523Y-182978071D01*
X161488511Y-182923175D01*
X161488508Y-182852240D01*
X161488524Y-182636606D01*
X161488573Y-182436058D01*
X161488657Y-182250144D01*
X161488779Y-182078416D01*
X161488941Y-181920422D01*
X161489138Y-181779771D01*
X162210819Y-181779771D01*
X162210928Y-181843425D01*
X162211170Y-181905160D01*
X162211545Y-181963035D01*
X162212052Y-182015113D01*
X162212688Y-182059454D01*
X162213453Y-182094118D01*
X162214345Y-182117166D01*
X162215364Y-182126658D01*
X162215386Y-182126697D01*
X162223724Y-182127974D01*
X162246166Y-182129173D01*
X162281283Y-182130271D01*
X162327642Y-182131245D01*
X162383814Y-182132072D01*
X162448367Y-182132729D01*
X162519871Y-182133193D01*
X162596896Y-182133442D01*
X162640968Y-182133479D01*
X162737817Y-182133399D01*
X162820137Y-182133144D01*
X162888933Y-182132690D01*
X162945210Y-182132016D01*
X162989973Y-182131099D01*
X163024227Y-182129917D01*
X163048977Y-182128447D01*
X163065229Y-182126666D01*
X163073988Y-182124553D01*
X163075417Y-182123770D01*
X163078581Y-182120330D01*
X163081197Y-182114227D01*
X163083319Y-182104078D01*
X163085000Y-182088499D01*
X163086294Y-182066109D01*
X163087254Y-182035524D01*
X163087935Y-181995361D01*
X163088390Y-181944237D01*
X163088672Y-181880771D01*
X163088835Y-181803577D01*
X163088870Y-181776825D01*
X163088871Y-181765544D01*
X163282820Y-181765544D01*
X163282820Y-181775448D01*
X163282935Y-181863012D01*
X163283297Y-181936032D01*
X163283934Y-181995498D01*
X163284871Y-182042401D01*
X163286135Y-182077729D01*
X163287753Y-182102474D01*
X163289750Y-182117625D01*
X163292141Y-182124158D01*
X163298278Y-182126320D01*
X163312631Y-182128155D01*
X163336113Y-182129681D01*
X163369633Y-182130919D01*
X163414104Y-182131889D01*
X163470437Y-182132611D01*
X163539541Y-182133103D01*
X163622330Y-182133386D01*
X163719714Y-182133479D01*
X163722968Y-182133479D01*
X163814593Y-182133463D01*
X163891923Y-182133386D01*
X163956198Y-182133204D01*
X164008657Y-182132874D01*
X164050542Y-182132353D01*
X164083092Y-182131598D01*
X164107547Y-182130564D01*
X164125148Y-182129209D01*
X164137134Y-182127489D01*
X164144745Y-182125360D01*
X164149221Y-182122781D01*
X164151803Y-182119706D01*
X164152516Y-182118455D01*
X164154685Y-182106788D01*
X164156530Y-182081811D01*
X164158055Y-182045492D01*
X164159263Y-181999798D01*
X164160159Y-181946695D01*
X164160746Y-181888149D01*
X164161028Y-181826128D01*
X164161009Y-181765544D01*
X164346979Y-181765544D01*
X164346979Y-181775448D01*
X164347094Y-181863012D01*
X164347456Y-181936032D01*
X164348093Y-181995498D01*
X164349030Y-182042401D01*
X164350294Y-182077729D01*
X164351912Y-182102474D01*
X164353909Y-182117625D01*
X164356300Y-182124158D01*
X164362437Y-182126320D01*
X164376790Y-182128155D01*
X164400272Y-182129681D01*
X164433792Y-182130919D01*
X164478263Y-182131889D01*
X164534596Y-182132611D01*
X164603700Y-182133103D01*
X164686489Y-182133386D01*
X164783873Y-182133479D01*
X164787127Y-182133479D01*
X164878752Y-182133463D01*
X164956082Y-182133386D01*
X165020357Y-182133204D01*
X165072816Y-182132874D01*
X165114701Y-182132353D01*
X165147251Y-182131598D01*
X165171706Y-182130564D01*
X165189307Y-182129209D01*
X165201293Y-182127489D01*
X165208904Y-182125360D01*
X165213380Y-182122781D01*
X165215962Y-182119706D01*
X165216675Y-182118455D01*
X165218844Y-182106788D01*
X165220689Y-182081811D01*
X165222214Y-182045492D01*
X165223422Y-181999798D01*
X165224318Y-181946695D01*
X165224905Y-181888149D01*
X165225187Y-181826128D01*
X165225173Y-181781052D01*
X165596644Y-181781052D01*
X165596729Y-181844664D01*
X165596963Y-181906303D01*
X165597345Y-181964024D01*
X165597876Y-182015880D01*
X165598555Y-182059927D01*
X165599381Y-182094219D01*
X165600355Y-182116811D01*
X165601442Y-182125709D01*
X165610385Y-182127585D01*
X165634512Y-182129215D01*
X165673473Y-182130591D01*
X165726920Y-182131707D01*
X165794502Y-182132558D01*
X165875871Y-182133136D01*
X165970677Y-182133436D01*
X166028564Y-182133479D01*
X166121276Y-182133440D01*
X166199674Y-182133298D01*
X166264978Y-182133021D01*
X166318409Y-182132572D01*
X166361189Y-182131919D01*
X166394538Y-182131027D01*
X166419677Y-182129861D01*
X166437827Y-182128387D01*
X166450208Y-182126572D01*
X166458042Y-182124380D01*
X166462549Y-182121777D01*
X166463091Y-182121273D01*
X166466082Y-182116799D01*
X166468549Y-182108994D01*
X166470542Y-182096477D01*
X166472109Y-182077867D01*
X166473298Y-182051781D01*
X166474159Y-182016838D01*
X166474740Y-181971658D01*
X166475091Y-181914858D01*
X166475260Y-181845057D01*
X166475297Y-181775889D01*
X166661719Y-181775889D01*
X166661773Y-181857592D01*
X166661969Y-181925141D01*
X166662354Y-181979918D01*
X166662979Y-182023305D01*
X166663891Y-182056683D01*
X166665139Y-182081433D01*
X166666773Y-182098938D01*
X166668841Y-182110578D01*
X166671392Y-182117734D01*
X166673925Y-182121273D01*
X166677972Y-182123952D01*
X166685131Y-182126214D01*
X166696622Y-182128093D01*
X166713666Y-182129624D01*
X166737484Y-182130842D01*
X166769297Y-182131780D01*
X166810326Y-182132473D01*
X166861791Y-182132955D01*
X166924913Y-182133260D01*
X167000914Y-182133423D01*
X167091014Y-182133478D01*
X167108451Y-182133479D01*
X167204566Y-182133405D01*
X167286155Y-182133166D01*
X167354229Y-182132740D01*
X167409798Y-182132105D01*
X167453872Y-182131236D01*
X167487459Y-182130112D01*
X167511569Y-182128709D01*
X167527213Y-182127004D01*
X167535401Y-182124975D01*
X167537055Y-182123770D01*
X167538966Y-182113256D01*
X167540657Y-182089262D01*
X167542122Y-182053751D01*
X167543356Y-182008687D01*
X167544356Y-181956033D01*
X167545115Y-181897752D01*
X167545628Y-181835807D01*
X167545843Y-181783652D01*
X167911348Y-181783652D01*
X167911433Y-181847202D01*
X167911869Y-181908677D01*
X167912659Y-181966121D01*
X167913806Y-182017577D01*
X167915314Y-182061088D01*
X167917187Y-182094700D01*
X167919427Y-182116454D01*
X167921621Y-182124158D01*
X167926980Y-182125869D01*
X167939918Y-182127375D01*
X167961177Y-182128686D01*
X167991495Y-182129812D01*
X168031613Y-182130764D01*
X168082272Y-182131550D01*
X168144212Y-182132182D01*
X168218172Y-182132667D01*
X168304893Y-182133017D01*
X168405115Y-182133241D01*
X168519579Y-182133350D01*
X168614878Y-182133361D01*
X168716741Y-182133274D01*
X168814234Y-182133056D01*
X168906229Y-182132718D01*
X168991594Y-182132270D01*
X169069202Y-182131722D01*
X169137922Y-182131085D01*
X169196624Y-182130369D01*
X169244180Y-182129583D01*
X169279460Y-182128740D01*
X169301334Y-182127848D01*
X169308605Y-182127026D01*
X169311024Y-182122344D01*
X169312990Y-182110906D01*
X169314529Y-182091572D01*
X169315664Y-182063198D01*
X169316423Y-182024644D01*
X169316830Y-181974769D01*
X169316909Y-181912430D01*
X169316688Y-181836486D01*
X169316372Y-181775662D01*
X169314349Y-181430513D01*
X168623880Y-181428529D01*
X168494351Y-181428217D01*
X168379763Y-181428073D01*
X168279521Y-181428102D01*
X168193034Y-181428311D01*
X168119708Y-181428706D01*
X168058948Y-181429291D01*
X168010162Y-181430073D01*
X167972757Y-181431057D01*
X167946138Y-181432249D01*
X167929712Y-181433656D01*
X167922886Y-181435281D01*
X167922856Y-181435306D01*
X167920265Y-181445029D01*
X167917996Y-181468328D01*
X167916053Y-181503246D01*
X167914439Y-181547827D01*
X167913158Y-181600114D01*
X167912214Y-181658152D01*
X167911609Y-181719983D01*
X167911348Y-181783652D01*
X167545843Y-181783652D01*
X167545891Y-181772161D01*
X167545898Y-181708779D01*
X167545645Y-181647622D01*
X167545126Y-181590654D01*
X167544336Y-181539839D01*
X167543271Y-181497139D01*
X167541924Y-181464518D01*
X167540292Y-181443940D01*
X167538821Y-181437516D01*
X167534695Y-181435088D01*
X167525904Y-181433037D01*
X167511289Y-181431332D01*
X167489693Y-181429944D01*
X167459958Y-181428845D01*
X167420925Y-181428004D01*
X167371437Y-181427393D01*
X167310335Y-181426980D01*
X167236461Y-181426738D01*
X167148658Y-181426637D01*
X167110777Y-181426629D01*
X167006056Y-181426783D01*
X166915275Y-181427239D01*
X166838685Y-181427994D01*
X166776535Y-181429043D01*
X166729076Y-181430381D01*
X166696558Y-181432005D01*
X166679232Y-181433908D01*
X166676743Y-181434670D01*
X166673106Y-181437139D01*
X166670108Y-181441223D01*
X166667687Y-181448324D01*
X166665783Y-181459842D01*
X166664333Y-181477180D01*
X166663276Y-181501738D01*
X166662549Y-181534920D01*
X166662092Y-181578125D01*
X166661843Y-181632755D01*
X166661739Y-181700213D01*
X166661719Y-181775889D01*
X166475297Y-181775889D01*
X166475273Y-181695211D01*
X166475161Y-181628666D01*
X166474900Y-181574854D01*
X166474426Y-181532372D01*
X166473679Y-181499819D01*
X166472597Y-181475793D01*
X166471119Y-181458894D01*
X166469181Y-181447719D01*
X166466724Y-181440867D01*
X166463684Y-181436937D01*
X166460272Y-181434670D01*
X166449462Y-181432921D01*
X166425104Y-181431377D01*
X166388924Y-181430039D01*
X166342648Y-181428907D01*
X166288002Y-181427981D01*
X166226713Y-181427262D01*
X166160506Y-181426750D01*
X166091108Y-181426445D01*
X166020245Y-181426347D01*
X165949643Y-181426456D01*
X165881028Y-181426774D01*
X165816126Y-181427299D01*
X165756664Y-181428033D01*
X165704367Y-181428975D01*
X165660961Y-181430126D01*
X165628174Y-181431485D01*
X165607730Y-181433055D01*
X165601349Y-181434549D01*
X165600235Y-181443917D01*
X165599272Y-181466875D01*
X165598459Y-181501476D01*
X165597796Y-181545775D01*
X165597284Y-181597828D01*
X165596921Y-181655689D01*
X165596708Y-181717412D01*
X165596644Y-181781052D01*
X165225173Y-181781052D01*
X165225167Y-181762598D01*
X165224850Y-181699526D01*
X165224238Y-181638878D01*
X165223335Y-181582622D01*
X165222146Y-181532725D01*
X165220673Y-181491152D01*
X165218921Y-181459870D01*
X165216894Y-181440847D01*
X165215395Y-181435950D01*
X165209238Y-181433778D01*
X165194849Y-181431936D01*
X165171311Y-181430405D01*
X165137711Y-181429166D01*
X165093132Y-181428197D01*
X165036661Y-181427478D01*
X164967383Y-181426991D01*
X164884381Y-181426715D01*
X164788813Y-181426629D01*
X164709453Y-181426715D01*
X164634583Y-181426961D01*
X164565678Y-181427352D01*
X164504213Y-181427870D01*
X164451662Y-181428501D01*
X164409502Y-181429227D01*
X164379207Y-181430033D01*
X164362252Y-181430902D01*
X164359265Y-181431344D01*
X164356292Y-181433794D01*
X164353834Y-181439545D01*
X164351844Y-181449942D01*
X164350273Y-181466325D01*
X164349075Y-181490039D01*
X164348200Y-181522425D01*
X164347601Y-181564826D01*
X164347230Y-181618584D01*
X164347038Y-181685043D01*
X164346979Y-181765544D01*
X164161009Y-181765544D01*
X164161008Y-181762598D01*
X164160691Y-181699526D01*
X164160079Y-181638878D01*
X164159176Y-181582622D01*
X164157987Y-181532725D01*
X164156514Y-181491152D01*
X164154762Y-181459870D01*
X164152735Y-181440847D01*
X164151236Y-181435950D01*
X164145079Y-181433778D01*
X164130690Y-181431936D01*
X164107152Y-181430405D01*
X164073552Y-181429166D01*
X164028973Y-181428197D01*
X163972502Y-181427478D01*
X163903224Y-181426991D01*
X163820222Y-181426715D01*
X163724654Y-181426629D01*
X163645294Y-181426715D01*
X163570424Y-181426961D01*
X163501519Y-181427352D01*
X163440054Y-181427870D01*
X163387503Y-181428501D01*
X163345343Y-181429227D01*
X163315048Y-181430033D01*
X163298093Y-181430902D01*
X163295106Y-181431344D01*
X163292133Y-181433794D01*
X163289675Y-181439545D01*
X163287685Y-181449942D01*
X163286114Y-181466325D01*
X163284916Y-181490039D01*
X163284041Y-181522425D01*
X163283442Y-181564826D01*
X163283070Y-181618584D01*
X163282879Y-181685043D01*
X163282820Y-181765544D01*
X163088871Y-181765544D01*
X163088881Y-181692247D01*
X163088675Y-181622022D01*
X163088221Y-181564964D01*
X163087484Y-181519894D01*
X163086432Y-181485626D01*
X163085031Y-181460979D01*
X163083248Y-181444771D01*
X163081051Y-181435818D01*
X163079237Y-181433228D01*
X163069403Y-181431777D01*
X163045916Y-181430513D01*
X163010494Y-181429433D01*
X162964855Y-181428537D01*
X162910716Y-181427821D01*
X162849795Y-181427286D01*
X162783809Y-181426927D01*
X162714476Y-181426744D01*
X162643513Y-181426736D01*
X162572639Y-181426899D01*
X162503570Y-181427232D01*
X162438024Y-181427733D01*
X162377719Y-181428401D01*
X162324371Y-181429233D01*
X162279700Y-181430228D01*
X162245422Y-181431384D01*
X162223255Y-181432699D01*
X162214923Y-181434160D01*
X162213915Y-181443354D01*
X162213050Y-181466142D01*
X162212328Y-181500587D01*
X162211748Y-181544748D01*
X162211309Y-181596686D01*
X162211008Y-181654462D01*
X162210845Y-181716137D01*
X162210819Y-181779771D01*
X161489138Y-181779771D01*
X161489144Y-181775713D01*
X161489391Y-181643839D01*
X161489684Y-181524350D01*
X161490026Y-181416795D01*
X161490417Y-181320725D01*
X161490861Y-181235690D01*
X161491360Y-181161239D01*
X161491916Y-181096923D01*
X161492530Y-181042290D01*
X161493206Y-180996893D01*
X161493944Y-180960279D01*
X161494748Y-180932000D01*
X161495619Y-180911605D01*
X161496560Y-180898644D01*
X161497573Y-180892667D01*
X161497829Y-180892220D01*
X161502188Y-180891186D01*
X161513424Y-180890226D01*
X161531989Y-180889336D01*
X161558335Y-180888514D01*
X161592912Y-180887758D01*
X161636173Y-180887067D01*
X161688568Y-180886437D01*
X161750548Y-180885867D01*
X161822565Y-180885355D01*
X161905071Y-180884898D01*
X161998517Y-180884494D01*
X162103353Y-180884141D01*
X162220032Y-180883838D01*
X162349005Y-180883581D01*
X162490722Y-180883368D01*
X162645636Y-180883198D01*
X162814198Y-180883068D01*
X162996859Y-180882977D01*
X163194070Y-180882921D01*
X163406282Y-180882899D01*
X163446541Y-180882898D01*
X163656426Y-180882887D01*
X163851295Y-180882851D01*
X164031667Y-180882787D01*
X164198060Y-180882693D01*
X164350993Y-180882566D01*
X164490986Y-180882404D01*
X164618558Y-180882202D01*
X164734226Y-180881960D01*
X164838510Y-180881674D01*
X164931930Y-180881341D01*
X165015003Y-180880958D01*
X165088250Y-180880523D01*
X165152188Y-180880034D01*
X165207336Y-180879486D01*
X165254215Y-180878878D01*
X165293341Y-180878207D01*
X165325235Y-180877470D01*
X165350415Y-180876664D01*
X165369401Y-180875787D01*
X165382710Y-180874835D01*
X165390863Y-180873807D01*
X165394377Y-180872699D01*
X165394493Y-180872584D01*
X165397776Y-180860708D01*
X165400555Y-180834079D01*
X165402782Y-180793476D01*
X165404411Y-180739672D01*
X165405154Y-180695871D01*
X165407254Y-180529473D01*
X165507729Y-180527289D01*
X165554301Y-180525548D01*
X165589677Y-180522684D01*
X165612231Y-180518860D01*
X165619307Y-180515890D01*
X165624183Y-180508890D01*
X165626857Y-180496063D01*
X165627496Y-180474648D01*
X165626268Y-180441888D01*
X165625043Y-180420980D01*
X165621478Y-180372331D01*
X165617224Y-180334704D01*
X165611480Y-180303585D01*
X165603449Y-180274458D01*
X165594563Y-180248810D01*
X165573545Y-180205015D01*
X165544890Y-180163690D01*
X165511639Y-180128215D01*
X165476835Y-180101969D01*
X165452136Y-180090562D01*
X165430511Y-180083238D01*
X165404602Y-180073882D01*
X165399486Y-180071964D01*
X165378923Y-180067382D01*
X165346549Y-180063829D01*
X165306058Y-180061366D01*
X165261145Y-180060052D01*
X165215502Y-180059948D01*
X165172825Y-180061114D01*
X165136806Y-180063610D01*
X165112086Y-180067277D01*
X165058663Y-180080228D01*
X165014579Y-180092556D01*
X164982051Y-180103602D01*
X164967187Y-180110306D01*
X164948504Y-180118575D01*
X164934880Y-180121675D01*
X164923370Y-180124500D01*
X164900899Y-180132100D01*
X164870790Y-180143162D01*
X164836369Y-180156373D01*
X164800960Y-180170422D01*
X164767889Y-180183995D01*
X164740478Y-180195781D01*
X164722054Y-180204466D01*
X164716327Y-180207957D01*
X164702436Y-180214250D01*
X164696609Y-180214886D01*
X164682324Y-180218264D01*
X164661410Y-180226722D01*
X164653798Y-180230421D01*
X164633761Y-180239928D01*
X164619496Y-180245419D01*
X164616721Y-180245957D01*
X164606422Y-180249056D01*
X164586356Y-180257119D01*
X164560719Y-180268296D01*
X164533703Y-180280736D01*
X164509503Y-180292586D01*
X164501132Y-180296972D01*
X164483447Y-180305009D01*
X164471522Y-180308097D01*
X164463096Y-180309950D01*
X164446828Y-180315970D01*
X164421055Y-180326853D01*
X164384109Y-180343294D01*
X164350862Y-180358410D01*
X164326881Y-180368180D01*
X164300253Y-180377453D01*
X164298539Y-180377986D01*
X164278773Y-180385445D01*
X164266299Y-180392706D01*
X164265069Y-180394107D01*
X164254283Y-180400501D01*
X164247994Y-180401308D01*
X164233445Y-180404449D01*
X164212035Y-180412328D01*
X164203789Y-180415973D01*
X164178082Y-180427281D01*
X164153756Y-180437015D01*
X164148905Y-180438771D01*
X164129901Y-180445589D01*
X164102266Y-180455720D01*
X164071905Y-180466998D01*
X164071229Y-180467251D01*
X164040119Y-180478561D01*
X164010821Y-180488656D01*
X163989675Y-180495352D01*
X163989670Y-180495353D01*
X163963421Y-180503921D01*
X163939181Y-180513384D01*
X163929437Y-180517459D01*
X163917509Y-180521870D01*
X163901259Y-180527284D01*
X163878550Y-180534370D01*
X163847245Y-180543796D01*
X163805206Y-180556228D01*
X163752759Y-180571612D01*
X163652865Y-180598695D01*
X163559542Y-180619297D01*
X163536127Y-180623683D01*
X163506504Y-180629399D01*
X163482768Y-180634653D01*
X163469120Y-180638496D01*
X163467797Y-180639112D01*
X163457144Y-180641719D01*
X163433749Y-180645195D01*
X163400367Y-180649265D01*
X163359748Y-180653653D01*
X163314645Y-180658083D01*
X163267810Y-180662281D01*
X163221995Y-180665969D01*
X163179953Y-180668874D01*
X163158538Y-180670082D01*
X163088745Y-180670487D01*
X163010007Y-180665709D01*
X162926896Y-180656403D01*
X162843985Y-180643226D01*
X162765845Y-180626831D01*
X162697049Y-180607874D01*
X162676948Y-180601086D01*
X162624589Y-180580764D01*
X162568521Y-180556251D01*
X162512588Y-180529453D01*
X162460634Y-180502276D01*
X162416504Y-180476627D01*
X162389548Y-180458585D01*
X162361218Y-180437790D01*
X162330713Y-180415456D01*
X162319663Y-180407384D01*
X162270047Y-180367144D01*
X162215480Y-180315926D01*
X162158298Y-180256472D01*
X162100835Y-180191522D01*
X162045428Y-180123820D01*
X161994413Y-180056106D01*
X161950127Y-179991123D01*
X161915930Y-179933520D01*
X161887864Y-179880957D01*
X161864588Y-179836216D01*
X161846790Y-179800672D01*
X161835154Y-179775700D01*
X161830366Y-179762676D01*
X161830281Y-179761840D01*
X161826831Y-179749540D01*
X161818212Y-179730203D01*
X161814746Y-179723500D01*
X161804720Y-179700857D01*
X161799209Y-179680803D01*
X161798870Y-179677009D01*
X161795890Y-179658614D01*
X161788912Y-179634699D01*
X161786631Y-179628434D01*
X161773800Y-179589586D01*
X161759685Y-179537123D01*
X161744738Y-179472867D01*
X161729413Y-179398638D01*
X161729237Y-179397734D01*
X161726591Y-179375643D01*
X161724411Y-179339947D01*
X161722755Y-179292571D01*
X161721684Y-179235437D01*
X161721257Y-179170472D01*
X161721288Y-179139855D01*
X161721453Y-179076689D01*
X161721408Y-179027279D01*
X161721032Y-178989848D01*
X161720207Y-178962617D01*
X161718811Y-178943809D01*
X161716724Y-178931646D01*
X161713827Y-178924348D01*
X161709999Y-178920138D01*
X161706289Y-178917854D01*
X161695384Y-178915743D01*
X161671003Y-178913977D01*
X161632833Y-178912551D01*
X161580558Y-178911461D01*
X161513864Y-178910699D01*
X161432436Y-178910261D01*
X161335961Y-178910141D01*
X161277682Y-178910206D01*
X161184026Y-178910312D01*
X161104801Y-178910243D01*
X161038904Y-178909976D01*
X160985232Y-178909484D01*
X160942681Y-178908744D01*
X160910148Y-178907731D01*
X160886530Y-178906418D01*
X160870723Y-178904783D01*
X160861625Y-178902799D01*
X160858286Y-178900735D01*
X160855798Y-178889072D01*
X160853913Y-178864911D01*
X160852618Y-178831275D01*
X160851901Y-178791190D01*
X160851750Y-178747680D01*
X160852151Y-178703769D01*
X160853092Y-178662482D01*
X160854560Y-178626842D01*
X160856544Y-178599876D01*
X160859030Y-178584606D01*
X160859607Y-178583183D01*
X160861815Y-178579905D01*
X160865472Y-178577143D01*
X160871823Y-178574850D01*
X160882111Y-178572985D01*
X160897584Y-178571502D01*
X160919485Y-178570359D01*
X160949060Y-178569511D01*
X160987553Y-178568913D01*
X161036211Y-178568524D01*
X161096277Y-178568297D01*
X161168998Y-178568191D01*
X161255618Y-178568159D01*
X161285873Y-178568158D01*
X161379631Y-178568100D01*
X161458995Y-178567905D01*
X161525102Y-178567545D01*
X161579093Y-178566993D01*
X161622108Y-178566219D01*
X161655285Y-178565195D01*
X161679764Y-178563893D01*
X161696685Y-178562284D01*
X161707188Y-178560340D01*
X161712411Y-178558033D01*
X161712932Y-178557514D01*
X161715675Y-178548500D01*
X161717746Y-178528327D01*
X161719168Y-178496138D01*
X161719965Y-178451077D01*
X161720160Y-178392288D01*
X161719777Y-178318914D01*
X161719709Y-178310893D01*
X161717651Y-178074917D01*
X161453837Y-178072870D01*
X161390414Y-178072176D01*
X161332235Y-178071151D01*
X161281100Y-178069856D01*
X161238811Y-178068352D01*
X161207172Y-178066700D01*
X161187983Y-178064961D01*
X161182903Y-178063704D01*
X161180961Y-178054294D01*
X161179377Y-178032191D01*
X161178156Y-178000231D01*
X161177305Y-177961251D01*
X161176831Y-177918084D01*
X161176740Y-177873569D01*
X161177038Y-177830539D01*
X161177732Y-177791831D01*
X161178828Y-177760282D01*
X161180332Y-177738725D01*
X161182150Y-177730082D01*
X161190757Y-177728862D01*
X161213077Y-177727534D01*
X161247289Y-177726155D01*
X161291572Y-177724783D01*
X161344105Y-177723476D01*
X161403066Y-177722292D01*
X161452249Y-177721492D01*
X161717651Y-177717608D01*
X161717651Y-177236018D01*
X161298202Y-177234138D01*
X161206882Y-177233719D01*
X161129836Y-177233312D01*
X161065805Y-177232863D01*
X161013528Y-177232321D01*
X160971744Y-177231630D01*
X160939192Y-177230738D01*
X160914614Y-177229592D01*
X160896747Y-177228137D01*
X160884332Y-177226322D01*
X160876109Y-177224091D01*
X160870816Y-177221392D01*
X160867193Y-177218172D01*
X160865159Y-177215800D01*
X160860196Y-177208039D01*
X160856589Y-177197011D01*
X160854130Y-177180362D01*
X160852613Y-177155737D01*
X160851829Y-177120782D01*
X160851572Y-177073142D01*
X160851566Y-177061338D01*
X160851806Y-177009532D01*
X160852627Y-176971237D01*
X160854182Y-176944434D01*
X160856623Y-176927105D01*
X160860104Y-176917232D01*
X160862701Y-176914092D01*
X160869519Y-176911907D01*
X160884869Y-176910076D01*
X160909656Y-176908581D01*
X160944782Y-176907404D01*
X160991152Y-176906525D01*
X161049669Y-176905928D01*
X161121238Y-176905592D01*
X161206763Y-176905500D01*
X161280208Y-176905579D01*
X161371146Y-176905700D01*
X161447814Y-176905686D01*
X161511476Y-176905503D01*
X161563398Y-176905116D01*
X161604843Y-176904491D01*
X161637077Y-176903594D01*
X161661364Y-176902389D01*
X161678969Y-176900843D01*
X161691157Y-176898920D01*
X161699191Y-176896587D01*
X161704058Y-176894009D01*
X161709283Y-176890001D01*
X161713347Y-176884989D01*
X161716395Y-176877136D01*
X161718574Y-176864604D01*
X161720030Y-176845555D01*
X161720907Y-176818152D01*
X161721354Y-176780555D01*
X161721514Y-176730928D01*
X161721535Y-176673981D01*
X161721757Y-176605535D01*
X161722454Y-176551492D01*
X161723676Y-176510726D01*
X161725470Y-176482109D01*
X161727885Y-176464517D01*
X161730856Y-176456929D01*
X161740191Y-176453347D01*
X161760797Y-176450687D01*
X161793768Y-176448886D01*
X161840195Y-176447882D01*
X161893535Y-176447608D01*
X161945989Y-176447668D01*
X161985090Y-176448000D01*
X162013020Y-176448832D01*
X162031962Y-176450391D01*
X162044097Y-176452905D01*
X162051609Y-176456602D01*
X162056678Y-176461709D01*
X162058985Y-176464871D01*
X162062733Y-176472308D01*
X162065641Y-176483836D01*
X162067809Y-176501277D01*
X162069336Y-176526452D01*
X162070321Y-176561183D01*
X162070865Y-176607290D01*
X162071068Y-176666596D01*
X162071077Y-176685974D01*
X162071123Y-176747541D01*
X162071352Y-176795396D01*
X162071898Y-176831360D01*
X162072894Y-176857258D01*
X162074474Y-176874912D01*
X162076773Y-176886144D01*
X162079924Y-176892777D01*
X162084062Y-176896634D01*
X162086674Y-176898161D01*
X162097816Y-176900284D01*
X162122803Y-176902048D01*
X162161900Y-176903455D01*
X162215369Y-176904512D01*
X162283475Y-176905223D01*
X162366481Y-176905592D01*
X162464650Y-176905625D01*
X162507850Y-176905545D01*
X162913429Y-176904581D01*
X162927721Y-176922231D01*
X162932919Y-176930008D01*
X162936602Y-176940097D01*
X162938959Y-176954936D01*
X162940181Y-176976963D01*
X162940456Y-177008614D01*
X162939973Y-177052326D01*
X162939588Y-177074997D01*
X162938572Y-177124239D01*
X162937373Y-177160265D01*
X162935713Y-177185392D01*
X162933314Y-177201941D01*
X162929898Y-177212229D01*
X162925188Y-177218575D01*
X162922084Y-177221124D01*
X162916541Y-177223601D01*
X162906462Y-177225691D01*
X162890660Y-177227424D01*
X162867949Y-177228831D01*
X162837141Y-177229942D01*
X162797050Y-177230788D01*
X162746488Y-177231399D01*
X162684268Y-177231806D01*
X162609203Y-177232040D01*
X162520107Y-177232130D01*
X162493876Y-177232134D01*
X162398800Y-177232211D01*
X162318238Y-177232457D01*
X162251172Y-177232897D01*
X162196581Y-177233553D01*
X162153448Y-177234449D01*
X162120751Y-177235610D01*
X162097472Y-177237057D01*
X162082591Y-177238816D01*
X162075089Y-177240909D01*
X162073927Y-177241843D01*
X162072330Y-177251819D01*
X162071128Y-177275338D01*
X162070343Y-177310412D01*
X162069999Y-177355054D01*
X162070120Y-177407275D01*
X162070729Y-177465088D01*
X162071034Y-177484580D01*
X162074960Y-177717608D01*
X162337407Y-177721492D01*
X162409679Y-177722649D01*
X162467913Y-177723816D01*
X162513603Y-177725078D01*
X162548245Y-177726523D01*
X162573335Y-177728237D01*
X162590370Y-177730304D01*
X162600843Y-177732812D01*
X162606252Y-177735847D01*
X162607211Y-177737027D01*
X162609843Y-177748911D01*
X162611890Y-177773270D01*
X162613351Y-177807054D01*
X162614227Y-177847213D01*
X162614517Y-177890697D01*
X162614221Y-177934457D01*
X162613339Y-177975443D01*
X162611870Y-178010605D01*
X162609815Y-178036894D01*
X162607232Y-178051108D01*
X162599657Y-178071033D01*
X162340202Y-178071033D01*
X162265634Y-178071170D01*
X162205354Y-178071611D01*
X162158118Y-178072401D01*
X162122682Y-178073586D01*
X162097800Y-178075211D01*
X162082229Y-178077321D01*
X162074723Y-178079962D01*
X162073938Y-178080742D01*
X162072360Y-178090691D01*
X162071166Y-178114192D01*
X162070379Y-178149265D01*
X162070023Y-178193930D01*
X162070120Y-178246209D01*
X162070694Y-178304122D01*
X162071045Y-178327363D01*
X162074960Y-178564275D01*
X162498066Y-178568158D01*
X162921172Y-178572042D01*
X162931250Y-178591461D01*
X162934655Y-178605797D01*
X162937178Y-178631929D01*
X162938844Y-178666828D01*
X162939679Y-178707464D01*
X162939709Y-178750808D01*
X162938960Y-178793831D01*
X162937457Y-178833503D01*
X162935225Y-178866794D01*
X162932292Y-178890675D01*
X162928682Y-178902118D01*
X162928613Y-178902189D01*
X162920609Y-178904293D01*
X162900802Y-178906058D01*
X162868650Y-178907495D01*
X162823613Y-178908615D01*
X162765150Y-178909427D01*
X162692720Y-178909942D01*
X162605782Y-178910171D01*
X162515132Y-178910142D01*
X162436702Y-178910120D01*
X162362555Y-178910273D01*
X162294224Y-178910585D01*
X162233240Y-178911042D01*
X162181135Y-178911628D01*
X162139441Y-178912329D01*
X162109690Y-178913128D01*
X162093413Y-178914011D01*
X162091201Y-178914333D01*
X162075665Y-178921203D01*
X162069398Y-178928110D01*
X162068852Y-178937796D01*
X162068598Y-178961118D01*
X162068625Y-178996182D01*
X162068922Y-179041091D01*
X162069478Y-179093950D01*
X162070282Y-179152864D01*
X162070931Y-179193449D01*
X162075267Y-179449779D01*
X162096474Y-179493962D01*
X162107513Y-179517655D01*
X162115183Y-179535451D01*
X162117682Y-179542882D01*
X162121570Y-179551356D01*
X162131756Y-179568984D01*
X162145816Y-179591600D01*
X162165298Y-179623303D01*
X162185454Y-179658019D01*
X162196767Y-179678612D01*
X162234458Y-179747197D01*
X162269985Y-179806004D01*
X162306470Y-179859860D01*
X162347036Y-179913597D01*
X162355891Y-179924726D01*
X162425240Y-180005152D01*
X162492407Y-180070722D01*
X162525480Y-180098154D01*
X162546305Y-180114473D01*
X162563684Y-180128289D01*
X162569164Y-180132739D01*
X162588689Y-180146473D01*
X162617993Y-180164306D01*
X162652742Y-180183843D01*
X162688603Y-180202689D01*
X162721241Y-180218448D01*
X162735205Y-180224507D01*
X162829269Y-180257206D01*
X162933332Y-180282661D01*
X162961135Y-180287879D01*
X162999418Y-180293020D01*
X163045930Y-180296799D01*
X163096832Y-180299161D01*
X163148284Y-180300048D01*
X163196446Y-180299403D01*
X163237478Y-180297169D01*
X163267541Y-180293289D01*
X163271168Y-180292490D01*
X163293381Y-180288141D01*
X163325243Y-180283117D01*
X163360945Y-180278312D01*
X163372147Y-180276975D01*
X163408564Y-180271999D01*
X163443650Y-180265875D01*
X163471238Y-180259715D01*
X163477009Y-180258064D01*
X163507500Y-180250091D01*
X163541145Y-180243394D01*
X163550699Y-180241942D01*
X163577855Y-180236815D01*
X163601601Y-180229949D01*
X163608956Y-180226866D01*
X163629458Y-180219307D01*
X163655541Y-180213001D01*
X163661383Y-180212008D01*
X163689411Y-180206068D01*
X163715897Y-180197958D01*
X163719639Y-180196490D01*
X163751997Y-180184123D01*
X163793698Y-180169642D01*
X163839085Y-180154979D01*
X163857621Y-180149312D01*
X163883192Y-180141038D01*
X163915918Y-180129647D01*
X163946948Y-180118264D01*
X163980071Y-180106068D01*
X164013318Y-180094357D01*
X164037884Y-180086185D01*
X164060102Y-180078033D01*
X164075525Y-180070243D01*
X164079122Y-180067100D01*
X164090074Y-180060504D01*
X164097232Y-180059535D01*
X164112262Y-180056136D01*
X164133642Y-180047630D01*
X164141138Y-180043999D01*
X164161645Y-180034451D01*
X164176853Y-180028974D01*
X164179976Y-180028464D01*
X164191595Y-180025162D01*
X164210808Y-180016870D01*
X164218814Y-180012929D01*
X164239013Y-180003408D01*
X164253603Y-179997922D01*
X164256501Y-179997394D01*
X164267439Y-179994360D01*
X164286552Y-179986713D01*
X164295639Y-179982644D01*
X164320083Y-179971754D01*
X164351477Y-179958302D01*
X164378049Y-179947247D01*
X164406978Y-179935019D01*
X164432923Y-179923369D01*
X164449156Y-179915391D01*
X164466824Y-179907300D01*
X164478765Y-179904183D01*
X164490381Y-179901049D01*
X164511969Y-179892777D01*
X164539553Y-179881061D01*
X164569151Y-179867593D01*
X164596787Y-179854068D01*
X164598113Y-179853386D01*
X164616142Y-179845382D01*
X164628656Y-179842042D01*
X164628673Y-179842042D01*
X164640557Y-179839041D01*
X164660284Y-179831497D01*
X164668823Y-179827774D01*
X164706189Y-179811730D01*
X164744844Y-179796526D01*
X164779892Y-179783992D01*
X164806438Y-179775960D01*
X164809150Y-179775309D01*
X164828292Y-179769722D01*
X164840220Y-179764246D01*
X164853314Y-179757879D01*
X164867407Y-179753212D01*
X164884937Y-179748314D01*
X164911308Y-179740809D01*
X164937315Y-179733330D01*
X165001471Y-179715639D01*
X165055988Y-179702886D01*
X165105694Y-179694350D01*
X165155417Y-179689305D01*
X165209985Y-179687029D01*
X165248535Y-179686690D01*
X165354072Y-179691012D01*
X165449142Y-179704434D01*
X165536334Y-179727642D01*
X165618241Y-179761321D01*
X165695536Y-179804927D01*
X165748931Y-179845699D01*
X165801173Y-179897770D01*
X165850080Y-179957944D01*
X165893474Y-180023020D01*
X165929175Y-180089802D01*
X165955003Y-180155089D01*
X165966948Y-180203235D01*
X165972077Y-180229423D01*
X165979159Y-180261062D01*
X165982977Y-180276717D01*
X165987722Y-180304226D01*
X165991310Y-180342476D01*
X165993365Y-180386690D01*
X165993707Y-180413038D01*
X165994551Y-180461977D01*
X165997087Y-180495514D01*
X166001319Y-180513692D01*
X166003028Y-180516268D01*
X166015798Y-180521353D01*
X166039699Y-180524664D01*
X166064337Y-180525590D01*
X166094132Y-180526486D01*
X166111625Y-180529630D01*
X166119970Y-180535705D01*
X166121041Y-180537876D01*
X166122478Y-180549132D01*
X166123739Y-180573362D01*
X166124752Y-180608006D01*
X166125445Y-180650505D01*
X166125748Y-180698299D01*
X166125755Y-180707210D01*
X166126092Y-180767139D01*
X166127144Y-180812649D01*
X166128972Y-180844844D01*
X166131638Y-180864827D01*
X166135077Y-180873577D01*
X166139435Y-180874611D01*
X166150672Y-180875571D01*
X166169237Y-180876461D01*
X166195583Y-180877283D01*
X166230161Y-180878039D01*
X166273422Y-180878730D01*
X166325818Y-180879360D01*
X166387800Y-180879930D01*
X166459818Y-180880442D01*
X166542326Y-180880899D01*
X166635773Y-180881303D01*
X166740612Y-180881656D01*
X166857294Y-180881960D01*
X166986269Y-180882217D01*
X167127990Y-180882429D01*
X167282908Y-180882599D01*
X167451474Y-180882729D01*
X167634140Y-180882820D01*
X167831356Y-180882876D01*
X168043575Y-180882898D01*
X168083536Y-180882898D01*
X168288615Y-180882901D01*
X168478730Y-180882913D01*
X168654449Y-180882937D01*
X168816345Y-180882978D01*
X168964987Y-180883041D01*
X169100946Y-180883128D01*
X169224792Y-180883245D01*
X169337095Y-180883395D01*
X169438426Y-180883583D01*
X169529356Y-180883813D01*
X169610453Y-180884089D01*
X169682290Y-180884415D01*
X169745436Y-180884795D01*
X169800462Y-180885233D01*
X169847938Y-180885734D01*
X169888434Y-180886302D01*
X169922521Y-180886941D01*
X169950769Y-180887655D01*
X169973748Y-180888448D01*
X169992030Y-180889324D01*
X170006184Y-180890288D01*
X170016780Y-180891343D01*
X170024390Y-180892494D01*
X170029582Y-180893745D01*
X170032929Y-180895100D01*
X170035000Y-180896563D01*
X170035530Y-180897103D01*
X170036895Y-180899392D01*
X170038160Y-180903507D01*
X170039329Y-180910016D01*
X170040406Y-180919484D01*
X170041395Y-180932478D01*
X170042300Y-180949565D01*
X170043123Y-180971311D01*
X170043870Y-180998283D01*
X170044543Y-181031047D01*
X170045146Y-181070170D01*
X170045684Y-181116218D01*
X170046160Y-181169757D01*
X170046577Y-181231355D01*
X170046939Y-181301577D01*
X170047251Y-181380991D01*
X170047515Y-181470162D01*
X170047736Y-181569658D01*
X170047917Y-181680044D01*
X170048062Y-181801888D01*
X170048175Y-181935755D01*
X170048259Y-182082212D01*
X170048318Y-182241826D01*
X170048357Y-182415164D01*
X170048378Y-182602791D01*
X170048385Y-182805274D01*
X170048385Y-182847278D01*
X170048357Y-183080554D01*
X170048271Y-183298414D01*
X170048127Y-183500976D01*
X170047925Y-183688360D01*
X170047664Y-183860684D01*
X170047343Y-184018066D01*
X170046963Y-184160626D01*
X170046522Y-184288482D01*
X170046020Y-184401753D01*
X170045458Y-184500557D01*
X170044833Y-184585015D01*
X170044146Y-184655243D01*
X170043396Y-184711361D01*
X170042583Y-184753488D01*
X170041706Y-184781743D01*
X170040765Y-184796243D01*
X170040345Y-184798271D01*
X170039596Y-184799355D01*
X170038282Y-184800385D01*
X170036021Y-184801363D01*
X170032429Y-184802290D01*
X170027122Y-184803168D01*
X170019717Y-184803998D01*
X170009831Y-184804781D01*
X169997080Y-184805520D01*
X169981082Y-184806214D01*
X169961453Y-184806865D01*
X169937809Y-184807476D01*
X169909767Y-184808046D01*
X169876944Y-184808578D01*
X169838957Y-184809073D01*
X169795421Y-184809532D01*
X169745955Y-184809956D01*
X169690175Y-184810347D01*
X169627696Y-184810707D01*
X169558137Y-184811036D01*
X169481113Y-184811336D01*
X169396241Y-184811608D01*
X169303138Y-184811854D01*
X169201421Y-184812074D01*
X169090707Y-184812271D01*
X168970611Y-184812446D01*
X168840751Y-184812599D01*
X168700743Y-184812733D01*
X168550204Y-184812849D01*
X168388751Y-184812947D01*
X168216000Y-184813030D01*
X168031568Y-184813099D01*
X167835072Y-184813155D01*
X167626129Y-184813199D01*
X167404354Y-184813233D01*
X167169365Y-184813258D01*
X166920779Y-184813275D01*
X166658211Y-184813286D01*
X166381279Y-184813292D01*
X166089600Y-184813295D01*
X165782790Y-184813296D01*
X165765584Y-184813296D01*
X165508813Y-184813287D01*
X165255920Y-184813259D01*
X165007351Y-184813214D01*
X164763549Y-184813151D01*
X164524959Y-184813071D01*
X164292026Y-184812976D01*
X164065194Y-184812865D01*
X163844907Y-184812738D01*
X163631610Y-184812598D01*
X163425747Y-184812443D01*
X163227762Y-184812274D01*
X163038101Y-184812093D01*
X162857207Y-184811900D01*
X162685525Y-184811694D01*
X162523499Y-184811477D01*
X162371575Y-184811250D01*
X162230195Y-184811012D01*
X162099805Y-184810764D01*
X161980849Y-184810508D01*
X161873772Y-184810242D01*
X161779017Y-184809969D01*
X161697030Y-184809688D01*
X161628255Y-184809400D01*
X161573136Y-184809106D01*
X161532117Y-184808805D01*
X161505644Y-184808500D01*
X161494160Y-184808189D01*
X161493686Y-184808118D01*
X161493227Y-184799996D01*
X161492778Y-184776997D01*
X161492343Y-184739780D01*
X161491921Y-184689004D01*
X161491516Y-184625327D01*
X161491129Y-184549407D01*
X161490761Y-184461904D01*
X161490415Y-184363475D01*
X161490092Y-184254779D01*
X161489793Y-184136476D01*
X161489609Y-184049992D01*
X162212250Y-184049992D01*
X162212270Y-184110228D01*
X162212459Y-184162526D01*
X162212809Y-184205249D01*
X162213313Y-184236758D01*
X162213962Y-184255417D01*
X162214448Y-184259856D01*
X162222837Y-184262093D01*
X162245039Y-184264066D01*
X162279335Y-184265774D01*
X162324005Y-184267218D01*
X162377329Y-184268398D01*
X162437587Y-184269312D01*
X162503061Y-184269963D01*
X162572029Y-184270349D01*
X162642774Y-184270470D01*
X162713574Y-184270327D01*
X162782710Y-184269919D01*
X162848463Y-184269247D01*
X162909113Y-184268310D01*
X162962940Y-184267109D01*
X163008225Y-184265643D01*
X163043247Y-184263913D01*
X163066288Y-184261918D01*
X163075416Y-184259856D01*
X163078597Y-184256397D01*
X163081224Y-184250264D01*
X163083351Y-184240064D01*
X163085034Y-184224406D01*
X163086326Y-184201899D01*
X163087283Y-184171151D01*
X163087958Y-184130771D01*
X163088408Y-184079368D01*
X163088423Y-184075818D01*
X163284251Y-184075818D01*
X163284617Y-184136713D01*
X163285389Y-184184432D01*
X163286583Y-184219761D01*
X163288214Y-184243485D01*
X163290298Y-184256388D01*
X163291455Y-184258959D01*
X163300026Y-184260047D01*
X163323405Y-184261083D01*
X163360867Y-184262066D01*
X163411684Y-184262998D01*
X163475130Y-184263877D01*
X163550479Y-184264705D01*
X163637004Y-184265480D01*
X163733979Y-184266203D01*
X163840677Y-184266874D01*
X163956372Y-184267493D01*
X164080337Y-184268060D01*
X164211845Y-184268575D01*
X164350171Y-184269038D01*
X164494588Y-184269448D01*
X164644368Y-184269807D01*
X164798787Y-184270114D01*
X164957117Y-184270368D01*
X165118631Y-184270570D01*
X165282604Y-184270720D01*
X165448309Y-184270819D01*
X165615019Y-184270865D01*
X165782008Y-184270859D01*
X165948549Y-184270800D01*
X166113916Y-184270690D01*
X166277383Y-184270528D01*
X166438222Y-184270313D01*
X166595708Y-184270047D01*
X166749114Y-184269728D01*
X166897713Y-184269358D01*
X167040779Y-184268935D01*
X167177586Y-184268460D01*
X167307406Y-184267933D01*
X167429514Y-184267354D01*
X167543183Y-184266723D01*
X167647686Y-184266040D01*
X167742298Y-184265305D01*
X167826291Y-184264517D01*
X167898939Y-184263678D01*
X167959516Y-184262786D01*
X168007294Y-184261843D01*
X168041548Y-184260847D01*
X168061552Y-184259799D01*
X168066784Y-184258959D01*
X168069088Y-184250938D01*
X168070933Y-184232471D01*
X168072334Y-184202772D01*
X168073305Y-184161057D01*
X168073863Y-184106541D01*
X168073934Y-184075818D01*
X168449695Y-184075818D01*
X168450060Y-184136713D01*
X168450833Y-184184432D01*
X168452027Y-184219761D01*
X168453658Y-184243485D01*
X168455741Y-184256388D01*
X168456898Y-184258959D01*
X168461211Y-184261339D01*
X168470637Y-184263350D01*
X168486311Y-184265021D01*
X168509372Y-184266380D01*
X168540955Y-184267455D01*
X168582198Y-184268275D01*
X168634239Y-184268867D01*
X168698213Y-184269260D01*
X168775258Y-184269483D01*
X168866510Y-184269564D01*
X168883248Y-184269565D01*
X168976989Y-184269506D01*
X169056332Y-184269309D01*
X169122414Y-184268946D01*
X169176372Y-184268389D01*
X169219343Y-184267609D01*
X169252464Y-184266579D01*
X169276871Y-184265270D01*
X169293702Y-184263653D01*
X169304094Y-184261701D01*
X169309183Y-184259384D01*
X169309597Y-184258959D01*
X169311902Y-184250938D01*
X169313747Y-184232471D01*
X169315147Y-184202772D01*
X169316119Y-184161057D01*
X169316676Y-184106541D01*
X169316835Y-184038439D01*
X169316611Y-183955965D01*
X169316374Y-183911360D01*
X169314349Y-183574366D01*
X168452147Y-183574366D01*
X168450122Y-183911360D01*
X168449720Y-184000962D01*
X168449695Y-184075818D01*
X168073934Y-184075818D01*
X168074022Y-184038439D01*
X168073798Y-183955965D01*
X168073560Y-183911360D01*
X168071535Y-183574366D01*
X163286703Y-183574366D01*
X163284678Y-183911360D01*
X163284277Y-184000962D01*
X163284251Y-184075818D01*
X163088423Y-184075818D01*
X163088685Y-184015550D01*
X163088845Y-183937926D01*
X163088872Y-183916848D01*
X163088807Y-183846284D01*
X163088458Y-183780507D01*
X163087856Y-183721149D01*
X163087030Y-183669838D01*
X163086010Y-183628205D01*
X163084825Y-183597878D01*
X163083505Y-183580488D01*
X163082669Y-183576950D01*
X163073879Y-183575754D01*
X163050979Y-183574700D01*
X163015394Y-183573801D01*
X162968551Y-183573072D01*
X162911874Y-183572529D01*
X162846789Y-183572187D01*
X162774721Y-183572061D01*
X162697095Y-183572165D01*
X162645423Y-183572358D01*
X162214777Y-183574366D01*
X162212750Y-183912256D01*
X162212408Y-183983455D01*
X162212250Y-184049992D01*
X161489609Y-184049992D01*
X161489522Y-184009222D01*
X161489278Y-183873678D01*
G37*
X161489278Y-183873678D02*
X161489065Y-183730500D01*
X161488884Y-183580349D01*
X161488736Y-183423883D01*
X161488623Y-183261759D01*
X161488548Y-183094637D01*
X161488523Y-182978071D01*
X162212252Y-182978071D01*
X162212274Y-183038313D01*
X162212465Y-183090617D01*
X162212818Y-183133348D01*
X162213325Y-183164865D01*
X162213977Y-183183532D01*
X162214466Y-183187976D01*
X162218063Y-183189819D01*
X162227915Y-183191407D01*
X162244883Y-183192750D01*
X162269831Y-183193860D01*
X162303620Y-183194748D01*
X162347114Y-183195424D01*
X162401173Y-183195899D01*
X162466661Y-183196184D01*
X162544440Y-183196290D01*
X162635373Y-183196228D01*
X162740321Y-183196009D01*
X162830132Y-183195744D01*
X163442055Y-183193755D01*
X163443191Y-183003755D01*
X163633537Y-183003755D01*
X163633848Y-183063629D01*
X163634564Y-183110620D01*
X163635702Y-183145609D01*
X163637280Y-183169479D01*
X163639315Y-183183113D01*
X163640838Y-183186842D01*
X163644996Y-183189235D01*
X163653939Y-183191260D01*
X163668809Y-183192946D01*
X163690747Y-183194321D01*
X163720897Y-183195413D01*
X163760399Y-183196252D01*
X163810396Y-183196864D01*
X163872030Y-183197279D01*
X163946443Y-183197525D01*
X164034778Y-183197630D01*
X164075606Y-183197639D01*
X164180043Y-183197494D01*
X164270432Y-183197065D01*
X164346545Y-183196355D01*
X164408154Y-183195368D01*
X164455029Y-183194108D01*
X164486944Y-183192579D01*
X164503668Y-183190786D01*
X164506267Y-183189786D01*
X164507556Y-183180127D01*
X164508624Y-183156984D01*
X164509477Y-183122298D01*
X164510121Y-183078012D01*
X164510563Y-183026068D01*
X164510768Y-182978065D01*
X164884299Y-182978065D01*
X164884319Y-183038301D01*
X164884508Y-183090599D01*
X164884858Y-183133322D01*
X164885362Y-183164832D01*
X164886010Y-183183490D01*
X164886497Y-183187929D01*
X164894913Y-183190226D01*
X164917148Y-183192245D01*
X164951489Y-183193985D01*
X164996222Y-183195448D01*
X165049635Y-183196636D01*
X165110013Y-183197548D01*
X165175644Y-183198187D01*
X165244813Y-183198554D01*
X165315808Y-183198649D01*
X165386916Y-183198473D01*
X165456422Y-183198028D01*
X165522614Y-183197315D01*
X165583777Y-183196335D01*
X165638200Y-183195088D01*
X165684167Y-183193576D01*
X165719967Y-183191801D01*
X165743885Y-183189763D01*
X165754208Y-183187462D01*
X165754298Y-183187381D01*
X165756825Y-183182220D01*
X165758842Y-183171476D01*
X165760372Y-183153898D01*
X165761438Y-183128231D01*
X165762063Y-183093224D01*
X165762271Y-183047622D01*
X165762084Y-182990174D01*
X165761524Y-182919627D01*
X165761426Y-182910349D01*
X165954228Y-182910349D01*
X165954253Y-182971614D01*
X165954467Y-183028995D01*
X165954878Y-183080551D01*
X165955494Y-183124338D01*
X165956322Y-183158416D01*
X165957370Y-183180842D01*
X165958571Y-183189577D01*
X165967372Y-183191603D01*
X165991146Y-183193334D01*
X166029978Y-183194771D01*
X166083956Y-183195915D01*
X166153166Y-183196768D01*
X166237695Y-183197332D01*
X166337630Y-183197608D01*
X166389361Y-183197639D01*
X166483780Y-183197583D01*
X166563806Y-183197399D01*
X166630582Y-183197058D01*
X166685248Y-183196530D01*
X166728948Y-183195789D01*
X166762823Y-183194805D01*
X166788016Y-183193550D01*
X166805668Y-183191996D01*
X166816921Y-183190115D01*
X166822917Y-183187877D01*
X166824129Y-183186842D01*
X166826460Y-183179198D01*
X166828324Y-183161872D01*
X166829737Y-183133983D01*
X166830716Y-183094649D01*
X166831280Y-183042986D01*
X166831380Y-183003315D01*
X168263012Y-183003315D01*
X168263315Y-183063026D01*
X168264020Y-183109922D01*
X168265145Y-183144907D01*
X168266707Y-183168888D01*
X168268726Y-183182770D01*
X168270364Y-183186897D01*
X168274166Y-183189079D01*
X168282372Y-183190937D01*
X168296024Y-183192490D01*
X168316168Y-183193754D01*
X168343849Y-183194747D01*
X168380110Y-183195487D01*
X168425998Y-183195992D01*
X168482557Y-183196278D01*
X168550832Y-183196364D01*
X168631866Y-183196267D01*
X168726706Y-183196005D01*
X168796859Y-183195751D01*
X169314349Y-183193755D01*
X169316373Y-182852452D01*
X169316651Y-182781029D01*
X169316629Y-182714382D01*
X169316327Y-182654120D01*
X169315768Y-182601852D01*
X169314971Y-182559188D01*
X169313959Y-182527736D01*
X169312752Y-182509106D01*
X169311823Y-182504574D01*
X169303206Y-182503509D01*
X169280621Y-182502533D01*
X169245634Y-182501649D01*
X169199809Y-182500861D01*
X169144712Y-182500170D01*
X169081910Y-182499579D01*
X169012968Y-182499090D01*
X168939451Y-182498706D01*
X168862926Y-182498428D01*
X168784959Y-182498261D01*
X168707114Y-182498205D01*
X168630958Y-182498263D01*
X168558057Y-182498438D01*
X168489975Y-182498733D01*
X168428280Y-182499149D01*
X168374536Y-182499689D01*
X168330310Y-182500355D01*
X168297167Y-182501151D01*
X168276673Y-182502077D01*
X168270375Y-182502962D01*
X168269345Y-182511467D01*
X168268294Y-182533893D01*
X168267255Y-182568623D01*
X168266260Y-182614045D01*
X168265342Y-182668542D01*
X168264532Y-182730499D01*
X168263865Y-182798303D01*
X168263541Y-182841825D01*
X168263094Y-182929883D01*
X168263012Y-183003315D01*
X166831380Y-183003315D01*
X166831445Y-182978112D01*
X166831229Y-182899145D01*
X166830905Y-182841825D01*
X166830340Y-182771249D01*
X166829612Y-182705533D01*
X166828754Y-182646292D01*
X166827799Y-182595142D01*
X166826779Y-182553697D01*
X166825728Y-182523573D01*
X166824677Y-182506384D01*
X166824051Y-182502941D01*
X166815379Y-182501831D01*
X166792897Y-182500880D01*
X166758327Y-182500085D01*
X166713394Y-182499441D01*
X166659820Y-182498947D01*
X166599330Y-182498598D01*
X166533646Y-182498391D01*
X166464493Y-182498323D01*
X166393593Y-182498390D01*
X166322671Y-182498590D01*
X166253450Y-182498919D01*
X166187653Y-182499374D01*
X166127003Y-182499951D01*
X166073226Y-182500648D01*
X166028043Y-182501460D01*
X165993179Y-182502385D01*
X165970356Y-182503419D01*
X165961299Y-182504559D01*
X165961263Y-182504590D01*
X165959927Y-182513427D01*
X165958712Y-182535857D01*
X165957626Y-182569938D01*
X165956675Y-182613728D01*
X165955868Y-182665285D01*
X165955212Y-182722668D01*
X165954715Y-182783934D01*
X165954384Y-182847141D01*
X165954228Y-182910349D01*
X165761426Y-182910349D01*
X165760679Y-182840128D01*
X165756795Y-182503133D01*
X165738904Y-182498902D01*
X165727903Y-182498170D01*
X165702870Y-182497619D01*
X165665305Y-182497253D01*
X165616709Y-182497071D01*
X165558585Y-182497076D01*
X165492433Y-182497268D01*
X165419755Y-182497649D01*
X165342052Y-182498219D01*
X165303919Y-182498556D01*
X164886826Y-182502440D01*
X164884799Y-182840330D01*
X164884457Y-182911529D01*
X164884299Y-182978065D01*
X164510768Y-182978065D01*
X164510810Y-182968410D01*
X164510867Y-182906978D01*
X164510741Y-182843717D01*
X164510439Y-182780568D01*
X164509967Y-182719473D01*
X164509331Y-182662376D01*
X164508538Y-182611219D01*
X164507594Y-182567944D01*
X164506506Y-182534493D01*
X164505279Y-182512810D01*
X164504007Y-182504893D01*
X164495299Y-182503716D01*
X164472781Y-182502644D01*
X164438177Y-182501680D01*
X164393211Y-182500829D01*
X164339606Y-182500094D01*
X164279086Y-182499480D01*
X164213375Y-182498989D01*
X164144197Y-182498627D01*
X164073275Y-182498398D01*
X164002334Y-182498303D01*
X163933096Y-182498349D01*
X163867287Y-182498539D01*
X163806629Y-182498876D01*
X163752847Y-182499365D01*
X163707664Y-182500009D01*
X163672804Y-182500812D01*
X163649990Y-182501779D01*
X163640948Y-182502913D01*
X163640915Y-182502941D01*
X163639881Y-182511451D01*
X163638827Y-182533881D01*
X163637784Y-182568615D01*
X163636786Y-182614041D01*
X163635865Y-182668541D01*
X163635053Y-182730501D01*
X163634385Y-182798306D01*
X163634061Y-182841825D01*
X163633614Y-182930115D01*
X163633537Y-183003755D01*
X163443191Y-183003755D01*
X163444078Y-182855518D01*
X163444493Y-182769864D01*
X163444607Y-182698587D01*
X163444395Y-182640531D01*
X163443829Y-182594540D01*
X163442886Y-182559458D01*
X163441539Y-182534130D01*
X163439762Y-182517398D01*
X163437530Y-182508108D01*
X163436310Y-182505976D01*
X163432881Y-182503881D01*
X163425829Y-182502083D01*
X163414164Y-182500571D01*
X163396899Y-182499332D01*
X163373044Y-182498354D01*
X163341612Y-182497626D01*
X163301612Y-182497136D01*
X163252057Y-182496872D01*
X163191958Y-182496821D01*
X163120326Y-182496972D01*
X163036172Y-182497314D01*
X162938508Y-182497834D01*
X162826346Y-182498519D01*
X162820648Y-182498556D01*
X162214777Y-182502440D01*
X162212750Y-182840330D01*
X162212408Y-182911531D01*
X162212252Y-182978071D01*
X161488523Y-182978071D01*
X161488511Y-182923175D01*
X161488508Y-182852240D01*
X161488524Y-182636606D01*
X161488573Y-182436058D01*
X161488657Y-182250144D01*
X161488779Y-182078416D01*
X161488941Y-181920422D01*
X161489138Y-181779771D01*
X162210819Y-181779771D01*
X162210928Y-181843425D01*
X162211170Y-181905160D01*
X162211545Y-181963035D01*
X162212052Y-182015113D01*
X162212688Y-182059454D01*
X162213453Y-182094118D01*
X162214345Y-182117166D01*
X162215364Y-182126658D01*
X162215386Y-182126697D01*
X162223724Y-182127974D01*
X162246166Y-182129173D01*
X162281283Y-182130271D01*
X162327642Y-182131245D01*
X162383814Y-182132072D01*
X162448367Y-182132729D01*
X162519871Y-182133193D01*
X162596896Y-182133442D01*
X162640968Y-182133479D01*
X162737817Y-182133399D01*
X162820137Y-182133144D01*
X162888933Y-182132690D01*
X162945210Y-182132016D01*
X162989973Y-182131099D01*
X163024227Y-182129917D01*
X163048977Y-182128447D01*
X163065229Y-182126666D01*
X163073988Y-182124553D01*
X163075417Y-182123770D01*
X163078581Y-182120330D01*
X163081197Y-182114227D01*
X163083319Y-182104078D01*
X163085000Y-182088499D01*
X163086294Y-182066109D01*
X163087254Y-182035524D01*
X163087935Y-181995361D01*
X163088390Y-181944237D01*
X163088672Y-181880771D01*
X163088835Y-181803577D01*
X163088870Y-181776825D01*
X163088871Y-181765544D01*
X163282820Y-181765544D01*
X163282820Y-181775448D01*
X163282935Y-181863012D01*
X163283297Y-181936032D01*
X163283934Y-181995498D01*
X163284871Y-182042401D01*
X163286135Y-182077729D01*
X163287753Y-182102474D01*
X163289750Y-182117625D01*
X163292141Y-182124158D01*
X163298278Y-182126320D01*
X163312631Y-182128155D01*
X163336113Y-182129681D01*
X163369633Y-182130919D01*
X163414104Y-182131889D01*
X163470437Y-182132611D01*
X163539541Y-182133103D01*
X163622330Y-182133386D01*
X163719714Y-182133479D01*
X163722968Y-182133479D01*
X163814593Y-182133463D01*
X163891923Y-182133386D01*
X163956198Y-182133204D01*
X164008657Y-182132874D01*
X164050542Y-182132353D01*
X164083092Y-182131598D01*
X164107547Y-182130564D01*
X164125148Y-182129209D01*
X164137134Y-182127489D01*
X164144745Y-182125360D01*
X164149221Y-182122781D01*
X164151803Y-182119706D01*
X164152516Y-182118455D01*
X164154685Y-182106788D01*
X164156530Y-182081811D01*
X164158055Y-182045492D01*
X164159263Y-181999798D01*
X164160159Y-181946695D01*
X164160746Y-181888149D01*
X164161028Y-181826128D01*
X164161009Y-181765544D01*
X164346979Y-181765544D01*
X164346979Y-181775448D01*
X164347094Y-181863012D01*
X164347456Y-181936032D01*
X164348093Y-181995498D01*
X164349030Y-182042401D01*
X164350294Y-182077729D01*
X164351912Y-182102474D01*
X164353909Y-182117625D01*
X164356300Y-182124158D01*
X164362437Y-182126320D01*
X164376790Y-182128155D01*
X164400272Y-182129681D01*
X164433792Y-182130919D01*
X164478263Y-182131889D01*
X164534596Y-182132611D01*
X164603700Y-182133103D01*
X164686489Y-182133386D01*
X164783873Y-182133479D01*
X164787127Y-182133479D01*
X164878752Y-182133463D01*
X164956082Y-182133386D01*
X165020357Y-182133204D01*
X165072816Y-182132874D01*
X165114701Y-182132353D01*
X165147251Y-182131598D01*
X165171706Y-182130564D01*
X165189307Y-182129209D01*
X165201293Y-182127489D01*
X165208904Y-182125360D01*
X165213380Y-182122781D01*
X165215962Y-182119706D01*
X165216675Y-182118455D01*
X165218844Y-182106788D01*
X165220689Y-182081811D01*
X165222214Y-182045492D01*
X165223422Y-181999798D01*
X165224318Y-181946695D01*
X165224905Y-181888149D01*
X165225187Y-181826128D01*
X165225173Y-181781052D01*
X165596644Y-181781052D01*
X165596729Y-181844664D01*
X165596963Y-181906303D01*
X165597345Y-181964024D01*
X165597876Y-182015880D01*
X165598555Y-182059927D01*
X165599381Y-182094219D01*
X165600355Y-182116811D01*
X165601442Y-182125709D01*
X165610385Y-182127585D01*
X165634512Y-182129215D01*
X165673473Y-182130591D01*
X165726920Y-182131707D01*
X165794502Y-182132558D01*
X165875871Y-182133136D01*
X165970677Y-182133436D01*
X166028564Y-182133479D01*
X166121276Y-182133440D01*
X166199674Y-182133298D01*
X166264978Y-182133021D01*
X166318409Y-182132572D01*
X166361189Y-182131919D01*
X166394538Y-182131027D01*
X166419677Y-182129861D01*
X166437827Y-182128387D01*
X166450208Y-182126572D01*
X166458042Y-182124380D01*
X166462549Y-182121777D01*
X166463091Y-182121273D01*
X166466082Y-182116799D01*
X166468549Y-182108994D01*
X166470542Y-182096477D01*
X166472109Y-182077867D01*
X166473298Y-182051781D01*
X166474159Y-182016838D01*
X166474740Y-181971658D01*
X166475091Y-181914858D01*
X166475260Y-181845057D01*
X166475297Y-181775889D01*
X166661719Y-181775889D01*
X166661773Y-181857592D01*
X166661969Y-181925141D01*
X166662354Y-181979918D01*
X166662979Y-182023305D01*
X166663891Y-182056683D01*
X166665139Y-182081433D01*
X166666773Y-182098938D01*
X166668841Y-182110578D01*
X166671392Y-182117734D01*
X166673925Y-182121273D01*
X166677972Y-182123952D01*
X166685131Y-182126214D01*
X166696622Y-182128093D01*
X166713666Y-182129624D01*
X166737484Y-182130842D01*
X166769297Y-182131780D01*
X166810326Y-182132473D01*
X166861791Y-182132955D01*
X166924913Y-182133260D01*
X167000914Y-182133423D01*
X167091014Y-182133478D01*
X167108451Y-182133479D01*
X167204566Y-182133405D01*
X167286155Y-182133166D01*
X167354229Y-182132740D01*
X167409798Y-182132105D01*
X167453872Y-182131236D01*
X167487459Y-182130112D01*
X167511569Y-182128709D01*
X167527213Y-182127004D01*
X167535401Y-182124975D01*
X167537055Y-182123770D01*
X167538966Y-182113256D01*
X167540657Y-182089262D01*
X167542122Y-182053751D01*
X167543356Y-182008687D01*
X167544356Y-181956033D01*
X167545115Y-181897752D01*
X167545628Y-181835807D01*
X167545843Y-181783652D01*
X167911348Y-181783652D01*
X167911433Y-181847202D01*
X167911869Y-181908677D01*
X167912659Y-181966121D01*
X167913806Y-182017577D01*
X167915314Y-182061088D01*
X167917187Y-182094700D01*
X167919427Y-182116454D01*
X167921621Y-182124158D01*
X167926980Y-182125869D01*
X167939918Y-182127375D01*
X167961177Y-182128686D01*
X167991495Y-182129812D01*
X168031613Y-182130764D01*
X168082272Y-182131550D01*
X168144212Y-182132182D01*
X168218172Y-182132667D01*
X168304893Y-182133017D01*
X168405115Y-182133241D01*
X168519579Y-182133350D01*
X168614878Y-182133361D01*
X168716741Y-182133274D01*
X168814234Y-182133056D01*
X168906229Y-182132718D01*
X168991594Y-182132270D01*
X169069202Y-182131722D01*
X169137922Y-182131085D01*
X169196624Y-182130369D01*
X169244180Y-182129583D01*
X169279460Y-182128740D01*
X169301334Y-182127848D01*
X169308605Y-182127026D01*
X169311024Y-182122344D01*
X169312990Y-182110906D01*
X169314529Y-182091572D01*
X169315664Y-182063198D01*
X169316423Y-182024644D01*
X169316830Y-181974769D01*
X169316909Y-181912430D01*
X169316688Y-181836486D01*
X169316372Y-181775662D01*
X169314349Y-181430513D01*
X168623880Y-181428529D01*
X168494351Y-181428217D01*
X168379763Y-181428073D01*
X168279521Y-181428102D01*
X168193034Y-181428311D01*
X168119708Y-181428706D01*
X168058948Y-181429291D01*
X168010162Y-181430073D01*
X167972757Y-181431057D01*
X167946138Y-181432249D01*
X167929712Y-181433656D01*
X167922886Y-181435281D01*
X167922856Y-181435306D01*
X167920265Y-181445029D01*
X167917996Y-181468328D01*
X167916053Y-181503246D01*
X167914439Y-181547827D01*
X167913158Y-181600114D01*
X167912214Y-181658152D01*
X167911609Y-181719983D01*
X167911348Y-181783652D01*
X167545843Y-181783652D01*
X167545891Y-181772161D01*
X167545898Y-181708779D01*
X167545645Y-181647622D01*
X167545126Y-181590654D01*
X167544336Y-181539839D01*
X167543271Y-181497139D01*
X167541924Y-181464518D01*
X167540292Y-181443940D01*
X167538821Y-181437516D01*
X167534695Y-181435088D01*
X167525904Y-181433037D01*
X167511289Y-181431332D01*
X167489693Y-181429944D01*
X167459958Y-181428845D01*
X167420925Y-181428004D01*
X167371437Y-181427393D01*
X167310335Y-181426980D01*
X167236461Y-181426738D01*
X167148658Y-181426637D01*
X167110777Y-181426629D01*
X167006056Y-181426783D01*
X166915275Y-181427239D01*
X166838685Y-181427994D01*
X166776535Y-181429043D01*
X166729076Y-181430381D01*
X166696558Y-181432005D01*
X166679232Y-181433908D01*
X166676743Y-181434670D01*
X166673106Y-181437139D01*
X166670108Y-181441223D01*
X166667687Y-181448324D01*
X166665783Y-181459842D01*
X166664333Y-181477180D01*
X166663276Y-181501738D01*
X166662549Y-181534920D01*
X166662092Y-181578125D01*
X166661843Y-181632755D01*
X166661739Y-181700213D01*
X166661719Y-181775889D01*
X166475297Y-181775889D01*
X166475273Y-181695211D01*
X166475161Y-181628666D01*
X166474900Y-181574854D01*
X166474426Y-181532372D01*
X166473679Y-181499819D01*
X166472597Y-181475793D01*
X166471119Y-181458894D01*
X166469181Y-181447719D01*
X166466724Y-181440867D01*
X166463684Y-181436937D01*
X166460272Y-181434670D01*
X166449462Y-181432921D01*
X166425104Y-181431377D01*
X166388924Y-181430039D01*
X166342648Y-181428907D01*
X166288002Y-181427981D01*
X166226713Y-181427262D01*
X166160506Y-181426750D01*
X166091108Y-181426445D01*
X166020245Y-181426347D01*
X165949643Y-181426456D01*
X165881028Y-181426774D01*
X165816126Y-181427299D01*
X165756664Y-181428033D01*
X165704367Y-181428975D01*
X165660961Y-181430126D01*
X165628174Y-181431485D01*
X165607730Y-181433055D01*
X165601349Y-181434549D01*
X165600235Y-181443917D01*
X165599272Y-181466875D01*
X165598459Y-181501476D01*
X165597796Y-181545775D01*
X165597284Y-181597828D01*
X165596921Y-181655689D01*
X165596708Y-181717412D01*
X165596644Y-181781052D01*
X165225173Y-181781052D01*
X165225167Y-181762598D01*
X165224850Y-181699526D01*
X165224238Y-181638878D01*
X165223335Y-181582622D01*
X165222146Y-181532725D01*
X165220673Y-181491152D01*
X165218921Y-181459870D01*
X165216894Y-181440847D01*
X165215395Y-181435950D01*
X165209238Y-181433778D01*
X165194849Y-181431936D01*
X165171311Y-181430405D01*
X165137711Y-181429166D01*
X165093132Y-181428197D01*
X165036661Y-181427478D01*
X164967383Y-181426991D01*
X164884381Y-181426715D01*
X164788813Y-181426629D01*
X164709453Y-181426715D01*
X164634583Y-181426961D01*
X164565678Y-181427352D01*
X164504213Y-181427870D01*
X164451662Y-181428501D01*
X164409502Y-181429227D01*
X164379207Y-181430033D01*
X164362252Y-181430902D01*
X164359265Y-181431344D01*
X164356292Y-181433794D01*
X164353834Y-181439545D01*
X164351844Y-181449942D01*
X164350273Y-181466325D01*
X164349075Y-181490039D01*
X164348200Y-181522425D01*
X164347601Y-181564826D01*
X164347230Y-181618584D01*
X164347038Y-181685043D01*
X164346979Y-181765544D01*
X164161009Y-181765544D01*
X164161008Y-181762598D01*
X164160691Y-181699526D01*
X164160079Y-181638878D01*
X164159176Y-181582622D01*
X164157987Y-181532725D01*
X164156514Y-181491152D01*
X164154762Y-181459870D01*
X164152735Y-181440847D01*
X164151236Y-181435950D01*
X164145079Y-181433778D01*
X164130690Y-181431936D01*
X164107152Y-181430405D01*
X164073552Y-181429166D01*
X164028973Y-181428197D01*
X163972502Y-181427478D01*
X163903224Y-181426991D01*
X163820222Y-181426715D01*
X163724654Y-181426629D01*
X163645294Y-181426715D01*
X163570424Y-181426961D01*
X163501519Y-181427352D01*
X163440054Y-181427870D01*
X163387503Y-181428501D01*
X163345343Y-181429227D01*
X163315048Y-181430033D01*
X163298093Y-181430902D01*
X163295106Y-181431344D01*
X163292133Y-181433794D01*
X163289675Y-181439545D01*
X163287685Y-181449942D01*
X163286114Y-181466325D01*
X163284916Y-181490039D01*
X163284041Y-181522425D01*
X163283442Y-181564826D01*
X163283070Y-181618584D01*
X163282879Y-181685043D01*
X163282820Y-181765544D01*
X163088871Y-181765544D01*
X163088881Y-181692247D01*
X163088675Y-181622022D01*
X163088221Y-181564964D01*
X163087484Y-181519894D01*
X163086432Y-181485626D01*
X163085031Y-181460979D01*
X163083248Y-181444771D01*
X163081051Y-181435818D01*
X163079237Y-181433228D01*
X163069403Y-181431777D01*
X163045916Y-181430513D01*
X163010494Y-181429433D01*
X162964855Y-181428537D01*
X162910716Y-181427821D01*
X162849795Y-181427286D01*
X162783809Y-181426927D01*
X162714476Y-181426744D01*
X162643513Y-181426736D01*
X162572639Y-181426899D01*
X162503570Y-181427232D01*
X162438024Y-181427733D01*
X162377719Y-181428401D01*
X162324371Y-181429233D01*
X162279700Y-181430228D01*
X162245422Y-181431384D01*
X162223255Y-181432699D01*
X162214923Y-181434160D01*
X162213915Y-181443354D01*
X162213050Y-181466142D01*
X162212328Y-181500587D01*
X162211748Y-181544748D01*
X162211309Y-181596686D01*
X162211008Y-181654462D01*
X162210845Y-181716137D01*
X162210819Y-181779771D01*
X161489138Y-181779771D01*
X161489144Y-181775713D01*
X161489391Y-181643839D01*
X161489684Y-181524350D01*
X161490026Y-181416795D01*
X161490417Y-181320725D01*
X161490861Y-181235690D01*
X161491360Y-181161239D01*
X161491916Y-181096923D01*
X161492530Y-181042290D01*
X161493206Y-180996893D01*
X161493944Y-180960279D01*
X161494748Y-180932000D01*
X161495619Y-180911605D01*
X161496560Y-180898644D01*
X161497573Y-180892667D01*
X161497829Y-180892220D01*
X161502188Y-180891186D01*
X161513424Y-180890226D01*
X161531989Y-180889336D01*
X161558335Y-180888514D01*
X161592912Y-180887758D01*
X161636173Y-180887067D01*
X161688568Y-180886437D01*
X161750548Y-180885867D01*
X161822565Y-180885355D01*
X161905071Y-180884898D01*
X161998517Y-180884494D01*
X162103353Y-180884141D01*
X162220032Y-180883838D01*
X162349005Y-180883581D01*
X162490722Y-180883368D01*
X162645636Y-180883198D01*
X162814198Y-180883068D01*
X162996859Y-180882977D01*
X163194070Y-180882921D01*
X163406282Y-180882899D01*
X163446541Y-180882898D01*
X163656426Y-180882887D01*
X163851295Y-180882851D01*
X164031667Y-180882787D01*
X164198060Y-180882693D01*
X164350993Y-180882566D01*
X164490986Y-180882404D01*
X164618558Y-180882202D01*
X164734226Y-180881960D01*
X164838510Y-180881674D01*
X164931930Y-180881341D01*
X165015003Y-180880958D01*
X165088250Y-180880523D01*
X165152188Y-180880034D01*
X165207336Y-180879486D01*
X165254215Y-180878878D01*
X165293341Y-180878207D01*
X165325235Y-180877470D01*
X165350415Y-180876664D01*
X165369401Y-180875787D01*
X165382710Y-180874835D01*
X165390863Y-180873807D01*
X165394377Y-180872699D01*
X165394493Y-180872584D01*
X165397776Y-180860708D01*
X165400555Y-180834079D01*
X165402782Y-180793476D01*
X165404411Y-180739672D01*
X165405154Y-180695871D01*
X165407254Y-180529473D01*
X165507729Y-180527289D01*
X165554301Y-180525548D01*
X165589677Y-180522684D01*
X165612231Y-180518860D01*
X165619307Y-180515890D01*
X165624183Y-180508890D01*
X165626857Y-180496063D01*
X165627496Y-180474648D01*
X165626268Y-180441888D01*
X165625043Y-180420980D01*
X165621478Y-180372331D01*
X165617224Y-180334704D01*
X165611480Y-180303585D01*
X165603449Y-180274458D01*
X165594563Y-180248810D01*
X165573545Y-180205015D01*
X165544890Y-180163690D01*
X165511639Y-180128215D01*
X165476835Y-180101969D01*
X165452136Y-180090562D01*
X165430511Y-180083238D01*
X165404602Y-180073882D01*
X165399486Y-180071964D01*
X165378923Y-180067382D01*
X165346549Y-180063829D01*
X165306058Y-180061366D01*
X165261145Y-180060052D01*
X165215502Y-180059948D01*
X165172825Y-180061114D01*
X165136806Y-180063610D01*
X165112086Y-180067277D01*
X165058663Y-180080228D01*
X165014579Y-180092556D01*
X164982051Y-180103602D01*
X164967187Y-180110306D01*
X164948504Y-180118575D01*
X164934880Y-180121675D01*
X164923370Y-180124500D01*
X164900899Y-180132100D01*
X164870790Y-180143162D01*
X164836369Y-180156373D01*
X164800960Y-180170422D01*
X164767889Y-180183995D01*
X164740478Y-180195781D01*
X164722054Y-180204466D01*
X164716327Y-180207957D01*
X164702436Y-180214250D01*
X164696609Y-180214886D01*
X164682324Y-180218264D01*
X164661410Y-180226722D01*
X164653798Y-180230421D01*
X164633761Y-180239928D01*
X164619496Y-180245419D01*
X164616721Y-180245957D01*
X164606422Y-180249056D01*
X164586356Y-180257119D01*
X164560719Y-180268296D01*
X164533703Y-180280736D01*
X164509503Y-180292586D01*
X164501132Y-180296972D01*
X164483447Y-180305009D01*
X164471522Y-180308097D01*
X164463096Y-180309950D01*
X164446828Y-180315970D01*
X164421055Y-180326853D01*
X164384109Y-180343294D01*
X164350862Y-180358410D01*
X164326881Y-180368180D01*
X164300253Y-180377453D01*
X164298539Y-180377986D01*
X164278773Y-180385445D01*
X164266299Y-180392706D01*
X164265069Y-180394107D01*
X164254283Y-180400501D01*
X164247994Y-180401308D01*
X164233445Y-180404449D01*
X164212035Y-180412328D01*
X164203789Y-180415973D01*
X164178082Y-180427281D01*
X164153756Y-180437015D01*
X164148905Y-180438771D01*
X164129901Y-180445589D01*
X164102266Y-180455720D01*
X164071905Y-180466998D01*
X164071229Y-180467251D01*
X164040119Y-180478561D01*
X164010821Y-180488656D01*
X163989675Y-180495352D01*
X163989670Y-180495353D01*
X163963421Y-180503921D01*
X163939181Y-180513384D01*
X163929437Y-180517459D01*
X163917509Y-180521870D01*
X163901259Y-180527284D01*
X163878550Y-180534370D01*
X163847245Y-180543796D01*
X163805206Y-180556228D01*
X163752759Y-180571612D01*
X163652865Y-180598695D01*
X163559542Y-180619297D01*
X163536127Y-180623683D01*
X163506504Y-180629399D01*
X163482768Y-180634653D01*
X163469120Y-180638496D01*
X163467797Y-180639112D01*
X163457144Y-180641719D01*
X163433749Y-180645195D01*
X163400367Y-180649265D01*
X163359748Y-180653653D01*
X163314645Y-180658083D01*
X163267810Y-180662281D01*
X163221995Y-180665969D01*
X163179953Y-180668874D01*
X163158538Y-180670082D01*
X163088745Y-180670487D01*
X163010007Y-180665709D01*
X162926896Y-180656403D01*
X162843985Y-180643226D01*
X162765845Y-180626831D01*
X162697049Y-180607874D01*
X162676948Y-180601086D01*
X162624589Y-180580764D01*
X162568521Y-180556251D01*
X162512588Y-180529453D01*
X162460634Y-180502276D01*
X162416504Y-180476627D01*
X162389548Y-180458585D01*
X162361218Y-180437790D01*
X162330713Y-180415456D01*
X162319663Y-180407384D01*
X162270047Y-180367144D01*
X162215480Y-180315926D01*
X162158298Y-180256472D01*
X162100835Y-180191522D01*
X162045428Y-180123820D01*
X161994413Y-180056106D01*
X161950127Y-179991123D01*
X161915930Y-179933520D01*
X161887864Y-179880957D01*
X161864588Y-179836216D01*
X161846790Y-179800672D01*
X161835154Y-179775700D01*
X161830366Y-179762676D01*
X161830281Y-179761840D01*
X161826831Y-179749540D01*
X161818212Y-179730203D01*
X161814746Y-179723500D01*
X161804720Y-179700857D01*
X161799209Y-179680803D01*
X161798870Y-179677009D01*
X161795890Y-179658614D01*
X161788912Y-179634699D01*
X161786631Y-179628434D01*
X161773800Y-179589586D01*
X161759685Y-179537123D01*
X161744738Y-179472867D01*
X161729413Y-179398638D01*
X161729237Y-179397734D01*
X161726591Y-179375643D01*
X161724411Y-179339947D01*
X161722755Y-179292571D01*
X161721684Y-179235437D01*
X161721257Y-179170472D01*
X161721288Y-179139855D01*
X161721453Y-179076689D01*
X161721408Y-179027279D01*
X161721032Y-178989848D01*
X161720207Y-178962617D01*
X161718811Y-178943809D01*
X161716724Y-178931646D01*
X161713827Y-178924348D01*
X161709999Y-178920138D01*
X161706289Y-178917854D01*
X161695384Y-178915743D01*
X161671003Y-178913977D01*
X161632833Y-178912551D01*
X161580558Y-178911461D01*
X161513864Y-178910699D01*
X161432436Y-178910261D01*
X161335961Y-178910141D01*
X161277682Y-178910206D01*
X161184026Y-178910312D01*
X161104801Y-178910243D01*
X161038904Y-178909976D01*
X160985232Y-178909484D01*
X160942681Y-178908744D01*
X160910148Y-178907731D01*
X160886530Y-178906418D01*
X160870723Y-178904783D01*
X160861625Y-178902799D01*
X160858286Y-178900735D01*
X160855798Y-178889072D01*
X160853913Y-178864911D01*
X160852618Y-178831275D01*
X160851901Y-178791190D01*
X160851750Y-178747680D01*
X160852151Y-178703769D01*
X160853092Y-178662482D01*
X160854560Y-178626842D01*
X160856544Y-178599876D01*
X160859030Y-178584606D01*
X160859607Y-178583183D01*
X160861815Y-178579905D01*
X160865472Y-178577143D01*
X160871823Y-178574850D01*
X160882111Y-178572985D01*
X160897584Y-178571502D01*
X160919485Y-178570359D01*
X160949060Y-178569511D01*
X160987553Y-178568913D01*
X161036211Y-178568524D01*
X161096277Y-178568297D01*
X161168998Y-178568191D01*
X161255618Y-178568159D01*
X161285873Y-178568158D01*
X161379631Y-178568100D01*
X161458995Y-178567905D01*
X161525102Y-178567545D01*
X161579093Y-178566993D01*
X161622108Y-178566219D01*
X161655285Y-178565195D01*
X161679764Y-178563893D01*
X161696685Y-178562284D01*
X161707188Y-178560340D01*
X161712411Y-178558033D01*
X161712932Y-178557514D01*
X161715675Y-178548500D01*
X161717746Y-178528327D01*
X161719168Y-178496138D01*
X161719965Y-178451077D01*
X161720160Y-178392288D01*
X161719777Y-178318914D01*
X161719709Y-178310893D01*
X161717651Y-178074917D01*
X161453837Y-178072870D01*
X161390414Y-178072176D01*
X161332235Y-178071151D01*
X161281100Y-178069856D01*
X161238811Y-178068352D01*
X161207172Y-178066700D01*
X161187983Y-178064961D01*
X161182903Y-178063704D01*
X161180961Y-178054294D01*
X161179377Y-178032191D01*
X161178156Y-178000231D01*
X161177305Y-177961251D01*
X161176831Y-177918084D01*
X161176740Y-177873569D01*
X161177038Y-177830539D01*
X161177732Y-177791831D01*
X161178828Y-177760282D01*
X161180332Y-177738725D01*
X161182150Y-177730082D01*
X161190757Y-177728862D01*
X161213077Y-177727534D01*
X161247289Y-177726155D01*
X161291572Y-177724783D01*
X161344105Y-177723476D01*
X161403066Y-177722292D01*
X161452249Y-177721492D01*
X161717651Y-177717608D01*
X161717651Y-177236018D01*
X161298202Y-177234138D01*
X161206882Y-177233719D01*
X161129836Y-177233312D01*
X161065805Y-177232863D01*
X161013528Y-177232321D01*
X160971744Y-177231630D01*
X160939192Y-177230738D01*
X160914614Y-177229592D01*
X160896747Y-177228137D01*
X160884332Y-177226322D01*
X160876109Y-177224091D01*
X160870816Y-177221392D01*
X160867193Y-177218172D01*
X160865159Y-177215800D01*
X160860196Y-177208039D01*
X160856589Y-177197011D01*
X160854130Y-177180362D01*
X160852613Y-177155737D01*
X160851829Y-177120782D01*
X160851572Y-177073142D01*
X160851566Y-177061338D01*
X160851806Y-177009532D01*
X160852627Y-176971237D01*
X160854182Y-176944434D01*
X160856623Y-176927105D01*
X160860104Y-176917232D01*
X160862701Y-176914092D01*
X160869519Y-176911907D01*
X160884869Y-176910076D01*
X160909656Y-176908581D01*
X160944782Y-176907404D01*
X160991152Y-176906525D01*
X161049669Y-176905928D01*
X161121238Y-176905592D01*
X161206763Y-176905500D01*
X161280208Y-176905579D01*
X161371146Y-176905700D01*
X161447814Y-176905686D01*
X161511476Y-176905503D01*
X161563398Y-176905116D01*
X161604843Y-176904491D01*
X161637077Y-176903594D01*
X161661364Y-176902389D01*
X161678969Y-176900843D01*
X161691157Y-176898920D01*
X161699191Y-176896587D01*
X161704058Y-176894009D01*
X161709283Y-176890001D01*
X161713347Y-176884989D01*
X161716395Y-176877136D01*
X161718574Y-176864604D01*
X161720030Y-176845555D01*
X161720907Y-176818152D01*
X161721354Y-176780555D01*
X161721514Y-176730928D01*
X161721535Y-176673981D01*
X161721757Y-176605535D01*
X161722454Y-176551492D01*
X161723676Y-176510726D01*
X161725470Y-176482109D01*
X161727885Y-176464517D01*
X161730856Y-176456929D01*
X161740191Y-176453347D01*
X161760797Y-176450687D01*
X161793768Y-176448886D01*
X161840195Y-176447882D01*
X161893535Y-176447608D01*
X161945989Y-176447668D01*
X161985090Y-176448000D01*
X162013020Y-176448832D01*
X162031962Y-176450391D01*
X162044097Y-176452905D01*
X162051609Y-176456602D01*
X162056678Y-176461709D01*
X162058985Y-176464871D01*
X162062733Y-176472308D01*
X162065641Y-176483836D01*
X162067809Y-176501277D01*
X162069336Y-176526452D01*
X162070321Y-176561183D01*
X162070865Y-176607290D01*
X162071068Y-176666596D01*
X162071077Y-176685974D01*
X162071123Y-176747541D01*
X162071352Y-176795396D01*
X162071898Y-176831360D01*
X162072894Y-176857258D01*
X162074474Y-176874912D01*
X162076773Y-176886144D01*
X162079924Y-176892777D01*
X162084062Y-176896634D01*
X162086674Y-176898161D01*
X162097816Y-176900284D01*
X162122803Y-176902048D01*
X162161900Y-176903455D01*
X162215369Y-176904512D01*
X162283475Y-176905223D01*
X162366481Y-176905592D01*
X162464650Y-176905625D01*
X162507850Y-176905545D01*
X162913429Y-176904581D01*
X162927721Y-176922231D01*
X162932919Y-176930008D01*
X162936602Y-176940097D01*
X162938959Y-176954936D01*
X162940181Y-176976963D01*
X162940456Y-177008614D01*
X162939973Y-177052326D01*
X162939588Y-177074997D01*
X162938572Y-177124239D01*
X162937373Y-177160265D01*
X162935713Y-177185392D01*
X162933314Y-177201941D01*
X162929898Y-177212229D01*
X162925188Y-177218575D01*
X162922084Y-177221124D01*
X162916541Y-177223601D01*
X162906462Y-177225691D01*
X162890660Y-177227424D01*
X162867949Y-177228831D01*
X162837141Y-177229942D01*
X162797050Y-177230788D01*
X162746488Y-177231399D01*
X162684268Y-177231806D01*
X162609203Y-177232040D01*
X162520107Y-177232130D01*
X162493876Y-177232134D01*
X162398800Y-177232211D01*
X162318238Y-177232457D01*
X162251172Y-177232897D01*
X162196581Y-177233553D01*
X162153448Y-177234449D01*
X162120751Y-177235610D01*
X162097472Y-177237057D01*
X162082591Y-177238816D01*
X162075089Y-177240909D01*
X162073927Y-177241843D01*
X162072330Y-177251819D01*
X162071128Y-177275338D01*
X162070343Y-177310412D01*
X162069999Y-177355054D01*
X162070120Y-177407275D01*
X162070729Y-177465088D01*
X162071034Y-177484580D01*
X162074960Y-177717608D01*
X162337407Y-177721492D01*
X162409679Y-177722649D01*
X162467913Y-177723816D01*
X162513603Y-177725078D01*
X162548245Y-177726523D01*
X162573335Y-177728237D01*
X162590370Y-177730304D01*
X162600843Y-177732812D01*
X162606252Y-177735847D01*
X162607211Y-177737027D01*
X162609843Y-177748911D01*
X162611890Y-177773270D01*
X162613351Y-177807054D01*
X162614227Y-177847213D01*
X162614517Y-177890697D01*
X162614221Y-177934457D01*
X162613339Y-177975443D01*
X162611870Y-178010605D01*
X162609815Y-178036894D01*
X162607232Y-178051108D01*
X162599657Y-178071033D01*
X162340202Y-178071033D01*
X162265634Y-178071170D01*
X162205354Y-178071611D01*
X162158118Y-178072401D01*
X162122682Y-178073586D01*
X162097800Y-178075211D01*
X162082229Y-178077321D01*
X162074723Y-178079962D01*
X162073938Y-178080742D01*
X162072360Y-178090691D01*
X162071166Y-178114192D01*
X162070379Y-178149265D01*
X162070023Y-178193930D01*
X162070120Y-178246209D01*
X162070694Y-178304122D01*
X162071045Y-178327363D01*
X162074960Y-178564275D01*
X162498066Y-178568158D01*
X162921172Y-178572042D01*
X162931250Y-178591461D01*
X162934655Y-178605797D01*
X162937178Y-178631929D01*
X162938844Y-178666828D01*
X162939679Y-178707464D01*
X162939709Y-178750808D01*
X162938960Y-178793831D01*
X162937457Y-178833503D01*
X162935225Y-178866794D01*
X162932292Y-178890675D01*
X162928682Y-178902118D01*
X162928613Y-178902189D01*
X162920609Y-178904293D01*
X162900802Y-178906058D01*
X162868650Y-178907495D01*
X162823613Y-178908615D01*
X162765150Y-178909427D01*
X162692720Y-178909942D01*
X162605782Y-178910171D01*
X162515132Y-178910142D01*
X162436702Y-178910120D01*
X162362555Y-178910273D01*
X162294224Y-178910585D01*
X162233240Y-178911042D01*
X162181135Y-178911628D01*
X162139441Y-178912329D01*
X162109690Y-178913128D01*
X162093413Y-178914011D01*
X162091201Y-178914333D01*
X162075665Y-178921203D01*
X162069398Y-178928110D01*
X162068852Y-178937796D01*
X162068598Y-178961118D01*
X162068625Y-178996182D01*
X162068922Y-179041091D01*
X162069478Y-179093950D01*
X162070282Y-179152864D01*
X162070931Y-179193449D01*
X162075267Y-179449779D01*
X162096474Y-179493962D01*
X162107513Y-179517655D01*
X162115183Y-179535451D01*
X162117682Y-179542882D01*
X162121570Y-179551356D01*
X162131756Y-179568984D01*
X162145816Y-179591600D01*
X162165298Y-179623303D01*
X162185454Y-179658019D01*
X162196767Y-179678612D01*
X162234458Y-179747197D01*
X162269985Y-179806004D01*
X162306470Y-179859860D01*
X162347036Y-179913597D01*
X162355891Y-179924726D01*
X162425240Y-180005152D01*
X162492407Y-180070722D01*
X162525480Y-180098154D01*
X162546305Y-180114473D01*
X162563684Y-180128289D01*
X162569164Y-180132739D01*
X162588689Y-180146473D01*
X162617993Y-180164306D01*
X162652742Y-180183843D01*
X162688603Y-180202689D01*
X162721241Y-180218448D01*
X162735205Y-180224507D01*
X162829269Y-180257206D01*
X162933332Y-180282661D01*
X162961135Y-180287879D01*
X162999418Y-180293020D01*
X163045930Y-180296799D01*
X163096832Y-180299161D01*
X163148284Y-180300048D01*
X163196446Y-180299403D01*
X163237478Y-180297169D01*
X163267541Y-180293289D01*
X163271168Y-180292490D01*
X163293381Y-180288141D01*
X163325243Y-180283117D01*
X163360945Y-180278312D01*
X163372147Y-180276975D01*
X163408564Y-180271999D01*
X163443650Y-180265875D01*
X163471238Y-180259715D01*
X163477009Y-180258064D01*
X163507500Y-180250091D01*
X163541145Y-180243394D01*
X163550699Y-180241942D01*
X163577855Y-180236815D01*
X163601601Y-180229949D01*
X163608956Y-180226866D01*
X163629458Y-180219307D01*
X163655541Y-180213001D01*
X163661383Y-180212008D01*
X163689411Y-180206068D01*
X163715897Y-180197958D01*
X163719639Y-180196490D01*
X163751997Y-180184123D01*
X163793698Y-180169642D01*
X163839085Y-180154979D01*
X163857621Y-180149312D01*
X163883192Y-180141038D01*
X163915918Y-180129647D01*
X163946948Y-180118264D01*
X163980071Y-180106068D01*
X164013318Y-180094357D01*
X164037884Y-180086185D01*
X164060102Y-180078033D01*
X164075525Y-180070243D01*
X164079122Y-180067100D01*
X164090074Y-180060504D01*
X164097232Y-180059535D01*
X164112262Y-180056136D01*
X164133642Y-180047630D01*
X164141138Y-180043999D01*
X164161645Y-180034451D01*
X164176853Y-180028974D01*
X164179976Y-180028464D01*
X164191595Y-180025162D01*
X164210808Y-180016870D01*
X164218814Y-180012929D01*
X164239013Y-180003408D01*
X164253603Y-179997922D01*
X164256501Y-179997394D01*
X164267439Y-179994360D01*
X164286552Y-179986713D01*
X164295639Y-179982644D01*
X164320083Y-179971754D01*
X164351477Y-179958302D01*
X164378049Y-179947247D01*
X164406978Y-179935019D01*
X164432923Y-179923369D01*
X164449156Y-179915391D01*
X164466824Y-179907300D01*
X164478765Y-179904183D01*
X164490381Y-179901049D01*
X164511969Y-179892777D01*
X164539553Y-179881061D01*
X164569151Y-179867593D01*
X164596787Y-179854068D01*
X164598113Y-179853386D01*
X164616142Y-179845382D01*
X164628656Y-179842042D01*
X164628673Y-179842042D01*
X164640557Y-179839041D01*
X164660284Y-179831497D01*
X164668823Y-179827774D01*
X164706189Y-179811730D01*
X164744844Y-179796526D01*
X164779892Y-179783992D01*
X164806438Y-179775960D01*
X164809150Y-179775309D01*
X164828292Y-179769722D01*
X164840220Y-179764246D01*
X164853314Y-179757879D01*
X164867407Y-179753212D01*
X164884937Y-179748314D01*
X164911308Y-179740809D01*
X164937315Y-179733330D01*
X165001471Y-179715639D01*
X165055988Y-179702886D01*
X165105694Y-179694350D01*
X165155417Y-179689305D01*
X165209985Y-179687029D01*
X165248535Y-179686690D01*
X165354072Y-179691012D01*
X165449142Y-179704434D01*
X165536334Y-179727642D01*
X165618241Y-179761321D01*
X165695536Y-179804927D01*
X165748931Y-179845699D01*
X165801173Y-179897770D01*
X165850080Y-179957944D01*
X165893474Y-180023020D01*
X165929175Y-180089802D01*
X165955003Y-180155089D01*
X165966948Y-180203235D01*
X165972077Y-180229423D01*
X165979159Y-180261062D01*
X165982977Y-180276717D01*
X165987722Y-180304226D01*
X165991310Y-180342476D01*
X165993365Y-180386690D01*
X165993707Y-180413038D01*
X165994551Y-180461977D01*
X165997087Y-180495514D01*
X166001319Y-180513692D01*
X166003028Y-180516268D01*
X166015798Y-180521353D01*
X166039699Y-180524664D01*
X166064337Y-180525590D01*
X166094132Y-180526486D01*
X166111625Y-180529630D01*
X166119970Y-180535705D01*
X166121041Y-180537876D01*
X166122478Y-180549132D01*
X166123739Y-180573362D01*
X166124752Y-180608006D01*
X166125445Y-180650505D01*
X166125748Y-180698299D01*
X166125755Y-180707210D01*
X166126092Y-180767139D01*
X166127144Y-180812649D01*
X166128972Y-180844844D01*
X166131638Y-180864827D01*
X166135077Y-180873577D01*
X166139435Y-180874611D01*
X166150672Y-180875571D01*
X166169237Y-180876461D01*
X166195583Y-180877283D01*
X166230161Y-180878039D01*
X166273422Y-180878730D01*
X166325818Y-180879360D01*
X166387800Y-180879930D01*
X166459818Y-180880442D01*
X166542326Y-180880899D01*
X166635773Y-180881303D01*
X166740612Y-180881656D01*
X166857294Y-180881960D01*
X166986269Y-180882217D01*
X167127990Y-180882429D01*
X167282908Y-180882599D01*
X167451474Y-180882729D01*
X167634140Y-180882820D01*
X167831356Y-180882876D01*
X168043575Y-180882898D01*
X168083536Y-180882898D01*
X168288615Y-180882901D01*
X168478730Y-180882913D01*
X168654449Y-180882937D01*
X168816345Y-180882978D01*
X168964987Y-180883041D01*
X169100946Y-180883128D01*
X169224792Y-180883245D01*
X169337095Y-180883395D01*
X169438426Y-180883583D01*
X169529356Y-180883813D01*
X169610453Y-180884089D01*
X169682290Y-180884415D01*
X169745436Y-180884795D01*
X169800462Y-180885233D01*
X169847938Y-180885734D01*
X169888434Y-180886302D01*
X169922521Y-180886941D01*
X169950769Y-180887655D01*
X169973748Y-180888448D01*
X169992030Y-180889324D01*
X170006184Y-180890288D01*
X170016780Y-180891343D01*
X170024390Y-180892494D01*
X170029582Y-180893745D01*
X170032929Y-180895100D01*
X170035000Y-180896563D01*
X170035530Y-180897103D01*
X170036895Y-180899392D01*
X170038160Y-180903507D01*
X170039329Y-180910016D01*
X170040406Y-180919484D01*
X170041395Y-180932478D01*
X170042300Y-180949565D01*
X170043123Y-180971311D01*
X170043870Y-180998283D01*
X170044543Y-181031047D01*
X170045146Y-181070170D01*
X170045684Y-181116218D01*
X170046160Y-181169757D01*
X170046577Y-181231355D01*
X170046939Y-181301577D01*
X170047251Y-181380991D01*
X170047515Y-181470162D01*
X170047736Y-181569658D01*
X170047917Y-181680044D01*
X170048062Y-181801888D01*
X170048175Y-181935755D01*
X170048259Y-182082212D01*
X170048318Y-182241826D01*
X170048357Y-182415164D01*
X170048378Y-182602791D01*
X170048385Y-182805274D01*
X170048385Y-182847278D01*
X170048357Y-183080554D01*
X170048271Y-183298414D01*
X170048127Y-183500976D01*
X170047925Y-183688360D01*
X170047664Y-183860684D01*
X170047343Y-184018066D01*
X170046963Y-184160626D01*
X170046522Y-184288482D01*
X170046020Y-184401753D01*
X170045458Y-184500557D01*
X170044833Y-184585015D01*
X170044146Y-184655243D01*
X170043396Y-184711361D01*
X170042583Y-184753488D01*
X170041706Y-184781743D01*
X170040765Y-184796243D01*
X170040345Y-184798271D01*
X170039596Y-184799355D01*
X170038282Y-184800385D01*
X170036021Y-184801363D01*
X170032429Y-184802290D01*
X170027122Y-184803168D01*
X170019717Y-184803998D01*
X170009831Y-184804781D01*
X169997080Y-184805520D01*
X169981082Y-184806214D01*
X169961453Y-184806865D01*
X169937809Y-184807476D01*
X169909767Y-184808046D01*
X169876944Y-184808578D01*
X169838957Y-184809073D01*
X169795421Y-184809532D01*
X169745955Y-184809956D01*
X169690175Y-184810347D01*
X169627696Y-184810707D01*
X169558137Y-184811036D01*
X169481113Y-184811336D01*
X169396241Y-184811608D01*
X169303138Y-184811854D01*
X169201421Y-184812074D01*
X169090707Y-184812271D01*
X168970611Y-184812446D01*
X168840751Y-184812599D01*
X168700743Y-184812733D01*
X168550204Y-184812849D01*
X168388751Y-184812947D01*
X168216000Y-184813030D01*
X168031568Y-184813099D01*
X167835072Y-184813155D01*
X167626129Y-184813199D01*
X167404354Y-184813233D01*
X167169365Y-184813258D01*
X166920779Y-184813275D01*
X166658211Y-184813286D01*
X166381279Y-184813292D01*
X166089600Y-184813295D01*
X165782790Y-184813296D01*
X165765584Y-184813296D01*
X165508813Y-184813287D01*
X165255920Y-184813259D01*
X165007351Y-184813214D01*
X164763549Y-184813151D01*
X164524959Y-184813071D01*
X164292026Y-184812976D01*
X164065194Y-184812865D01*
X163844907Y-184812738D01*
X163631610Y-184812598D01*
X163425747Y-184812443D01*
X163227762Y-184812274D01*
X163038101Y-184812093D01*
X162857207Y-184811900D01*
X162685525Y-184811694D01*
X162523499Y-184811477D01*
X162371575Y-184811250D01*
X162230195Y-184811012D01*
X162099805Y-184810764D01*
X161980849Y-184810508D01*
X161873772Y-184810242D01*
X161779017Y-184809969D01*
X161697030Y-184809688D01*
X161628255Y-184809400D01*
X161573136Y-184809106D01*
X161532117Y-184808805D01*
X161505644Y-184808500D01*
X161494160Y-184808189D01*
X161493686Y-184808118D01*
X161493227Y-184799996D01*
X161492778Y-184776997D01*
X161492343Y-184739780D01*
X161491921Y-184689004D01*
X161491516Y-184625327D01*
X161491129Y-184549407D01*
X161490761Y-184461904D01*
X161490415Y-184363475D01*
X161490092Y-184254779D01*
X161489793Y-184136476D01*
X161489609Y-184049992D01*
X162212250Y-184049992D01*
X162212270Y-184110228D01*
X162212459Y-184162526D01*
X162212809Y-184205249D01*
X162213313Y-184236758D01*
X162213962Y-184255417D01*
X162214448Y-184259856D01*
X162222837Y-184262093D01*
X162245039Y-184264066D01*
X162279335Y-184265774D01*
X162324005Y-184267218D01*
X162377329Y-184268398D01*
X162437587Y-184269312D01*
X162503061Y-184269963D01*
X162572029Y-184270349D01*
X162642774Y-184270470D01*
X162713574Y-184270327D01*
X162782710Y-184269919D01*
X162848463Y-184269247D01*
X162909113Y-184268310D01*
X162962940Y-184267109D01*
X163008225Y-184265643D01*
X163043247Y-184263913D01*
X163066288Y-184261918D01*
X163075416Y-184259856D01*
X163078597Y-184256397D01*
X163081224Y-184250264D01*
X163083351Y-184240064D01*
X163085034Y-184224406D01*
X163086326Y-184201899D01*
X163087283Y-184171151D01*
X163087958Y-184130771D01*
X163088408Y-184079368D01*
X163088423Y-184075818D01*
X163284251Y-184075818D01*
X163284617Y-184136713D01*
X163285389Y-184184432D01*
X163286583Y-184219761D01*
X163288214Y-184243485D01*
X163290298Y-184256388D01*
X163291455Y-184258959D01*
X163300026Y-184260047D01*
X163323405Y-184261083D01*
X163360867Y-184262066D01*
X163411684Y-184262998D01*
X163475130Y-184263877D01*
X163550479Y-184264705D01*
X163637004Y-184265480D01*
X163733979Y-184266203D01*
X163840677Y-184266874D01*
X163956372Y-184267493D01*
X164080337Y-184268060D01*
X164211845Y-184268575D01*
X164350171Y-184269038D01*
X164494588Y-184269448D01*
X164644368Y-184269807D01*
X164798787Y-184270114D01*
X164957117Y-184270368D01*
X165118631Y-184270570D01*
X165282604Y-184270720D01*
X165448309Y-184270819D01*
X165615019Y-184270865D01*
X165782008Y-184270859D01*
X165948549Y-184270800D01*
X166113916Y-184270690D01*
X166277383Y-184270528D01*
X166438222Y-184270313D01*
X166595708Y-184270047D01*
X166749114Y-184269728D01*
X166897713Y-184269358D01*
X167040779Y-184268935D01*
X167177586Y-184268460D01*
X167307406Y-184267933D01*
X167429514Y-184267354D01*
X167543183Y-184266723D01*
X167647686Y-184266040D01*
X167742298Y-184265305D01*
X167826291Y-184264517D01*
X167898939Y-184263678D01*
X167959516Y-184262786D01*
X168007294Y-184261843D01*
X168041548Y-184260847D01*
X168061552Y-184259799D01*
X168066784Y-184258959D01*
X168069088Y-184250938D01*
X168070933Y-184232471D01*
X168072334Y-184202772D01*
X168073305Y-184161057D01*
X168073863Y-184106541D01*
X168073934Y-184075818D01*
X168449695Y-184075818D01*
X168450060Y-184136713D01*
X168450833Y-184184432D01*
X168452027Y-184219761D01*
X168453658Y-184243485D01*
X168455741Y-184256388D01*
X168456898Y-184258959D01*
X168461211Y-184261339D01*
X168470637Y-184263350D01*
X168486311Y-184265021D01*
X168509372Y-184266380D01*
X168540955Y-184267455D01*
X168582198Y-184268275D01*
X168634239Y-184268867D01*
X168698213Y-184269260D01*
X168775258Y-184269483D01*
X168866510Y-184269564D01*
X168883248Y-184269565D01*
X168976989Y-184269506D01*
X169056332Y-184269309D01*
X169122414Y-184268946D01*
X169176372Y-184268389D01*
X169219343Y-184267609D01*
X169252464Y-184266579D01*
X169276871Y-184265270D01*
X169293702Y-184263653D01*
X169304094Y-184261701D01*
X169309183Y-184259384D01*
X169309597Y-184258959D01*
X169311902Y-184250938D01*
X169313747Y-184232471D01*
X169315147Y-184202772D01*
X169316119Y-184161057D01*
X169316676Y-184106541D01*
X169316835Y-184038439D01*
X169316611Y-183955965D01*
X169316374Y-183911360D01*
X169314349Y-183574366D01*
X168452147Y-183574366D01*
X168450122Y-183911360D01*
X168449720Y-184000962D01*
X168449695Y-184075818D01*
X168073934Y-184075818D01*
X168074022Y-184038439D01*
X168073798Y-183955965D01*
X168073560Y-183911360D01*
X168071535Y-183574366D01*
X163286703Y-183574366D01*
X163284678Y-183911360D01*
X163284277Y-184000962D01*
X163284251Y-184075818D01*
X163088423Y-184075818D01*
X163088685Y-184015550D01*
X163088845Y-183937926D01*
X163088872Y-183916848D01*
X163088807Y-183846284D01*
X163088458Y-183780507D01*
X163087856Y-183721149D01*
X163087030Y-183669838D01*
X163086010Y-183628205D01*
X163084825Y-183597878D01*
X163083505Y-183580488D01*
X163082669Y-183576950D01*
X163073879Y-183575754D01*
X163050979Y-183574700D01*
X163015394Y-183573801D01*
X162968551Y-183573072D01*
X162911874Y-183572529D01*
X162846789Y-183572187D01*
X162774721Y-183572061D01*
X162697095Y-183572165D01*
X162645423Y-183572358D01*
X162214777Y-183574366D01*
X162212750Y-183912256D01*
X162212408Y-183983455D01*
X162212250Y-184049992D01*
X161489609Y-184049992D01*
X161489522Y-184009222D01*
X161489278Y-183873678D01*
D12*
X157310058Y-177142543D02*
X157151422Y-177076100D01*
X154611422Y-177101500D02*
X154306622Y-177050700D01*
X153646222Y-177304700D02*
X153443022Y-177431700D01*
X152655622Y-178320700D02*
X152477822Y-178523900D01*
X153824022Y-177152300D02*
X153646222Y-177304700D01*
X152858822Y-177914300D02*
X152655622Y-178320700D01*
X154103422Y-177076100D02*
X153951022Y-177126900D01*
X153087422Y-177761900D02*
X152858822Y-177914300D01*
X155678222Y-176999900D02*
X155094022Y-177076100D01*
X153443022Y-177431700D02*
X153087422Y-177761900D01*
X154306622Y-177050700D02*
X154103422Y-177076100D01*
X152046022Y-179184300D02*
X151969822Y-179438300D01*
X156719622Y-176949100D02*
X156440222Y-176923700D01*
X156160822Y-176923700D02*
X155678222Y-176999900D01*
X156440222Y-176923700D02*
X156160822Y-176923700D01*
X156795822Y-176949100D02*
X156719622Y-176949100D01*
X156948222Y-176999900D02*
X156795822Y-176949100D01*
X157405422Y-177203100D02*
X157354622Y-177126900D01*
X155094022Y-177076100D02*
X154611422Y-177101500D01*
X151969822Y-179438300D02*
X151868222Y-179641500D01*
X157151422Y-177076100D02*
X156948222Y-176999900D01*
X151868222Y-179641500D02*
X151792022Y-179717700D01*
X153951022Y-177126900D02*
X153824022Y-177152300D01*
X152477822Y-178523900D02*
X152223822Y-178752500D01*
X152223822Y-178752500D02*
X152046022Y-179184300D01*
G36*
X154962377Y-178582499D02*
G01*
X154962404Y-178585570D01*
X154926214Y-178676576D01*
X154830863Y-178779594D01*
X154696176Y-178878150D01*
X154541978Y-178955771D01*
X154497911Y-178971540D01*
X154219129Y-179082430D01*
X153984784Y-179217387D01*
X153832028Y-179346634D01*
X153738567Y-179431670D01*
X153679188Y-179453413D01*
X153660916Y-179416825D01*
X153698069Y-179328258D01*
X153799658Y-179221922D01*
X153950882Y-179107828D01*
X154136938Y-178995986D01*
X154343024Y-178896404D01*
X154536982Y-178824412D01*
X154685405Y-178755111D01*
X154798606Y-178660606D01*
X154807274Y-178649562D01*
X154887954Y-178558418D01*
X154941912Y-178535133D01*
X154962377Y-178582499D01*
G37*
D11*
X154962377Y-178582499D02*
X154962404Y-178585570D01*
X154926214Y-178676576D01*
X154830863Y-178779594D01*
X154696176Y-178878150D01*
X154541978Y-178955771D01*
X154497911Y-178971540D01*
X154219129Y-179082430D01*
X153984784Y-179217387D01*
X153832028Y-179346634D01*
X153738567Y-179431670D01*
X153679188Y-179453413D01*
X153660916Y-179416825D01*
X153698069Y-179328258D01*
X153799658Y-179221922D01*
X153950882Y-179107828D01*
X154136938Y-178995986D01*
X154343024Y-178896404D01*
X154536982Y-178824412D01*
X154685405Y-178755111D01*
X154798606Y-178660606D01*
X154807274Y-178649562D01*
X154887954Y-178558418D01*
X154941912Y-178535133D01*
X154962377Y-178582499D01*
G36*
X151199365Y-180323288D02*
G01*
X151244738Y-180217587D01*
X151318665Y-180105103D01*
X151323557Y-180099071D01*
X151390735Y-179990599D01*
X151394839Y-179891196D01*
X151390729Y-179875422D01*
X151356630Y-179661878D01*
X151356910Y-179396036D01*
X151388546Y-179100773D01*
X151448515Y-178798967D01*
X151533793Y-178513496D01*
X151589071Y-178374709D01*
X151655765Y-178201964D01*
X151720203Y-177999691D01*
X151755520Y-177865322D01*
X151873536Y-177416440D01*
X152001503Y-177049800D01*
X152139251Y-176765836D01*
X152245137Y-176611911D01*
X152374592Y-176461390D01*
X152495872Y-176341130D01*
X152628590Y-176236202D01*
X152792358Y-176131679D01*
X153006788Y-176012630D01*
X153090570Y-175968367D01*
X153423797Y-175801505D01*
X153710175Y-175677820D01*
X153970524Y-175590775D01*
X154225663Y-175533834D01*
X154496412Y-175500460D01*
X154605544Y-175492727D01*
X155030293Y-175482920D01*
X155399776Y-175510225D01*
X155735492Y-175577730D01*
X156058941Y-175688524D01*
X156105894Y-175708278D01*
X156561998Y-175944429D01*
X156970220Y-176237300D01*
X157321313Y-176578803D01*
X157606032Y-176960848D01*
X157677873Y-177083521D01*
X157741403Y-177217621D01*
X157782878Y-177359858D01*
X157809453Y-177539661D01*
X157820752Y-177671290D01*
X157844968Y-177900055D01*
X157886942Y-178097887D01*
X157956742Y-178306011D01*
X158005296Y-178426993D01*
X158071812Y-178593789D01*
X158118901Y-178735734D01*
X158151720Y-178877370D01*
X158175423Y-179043238D01*
X158195166Y-179257879D01*
X158203748Y-179371621D01*
X158225610Y-179692504D01*
X158238465Y-179941836D01*
X158242029Y-180131581D01*
X158236021Y-180273698D01*
X158220158Y-180380151D01*
X158194157Y-180462901D01*
X158177122Y-180499406D01*
X158144614Y-180572055D01*
X158130427Y-180644353D01*
X158134409Y-180739863D01*
X158156408Y-180882148D01*
X158174017Y-180977674D01*
X158236048Y-181308445D01*
X158283680Y-181569716D01*
X158318203Y-181774474D01*
X158340905Y-181935708D01*
X158353076Y-182066405D01*
X158356003Y-182179555D01*
X158350977Y-182288144D01*
X158339285Y-182405162D01*
X158326241Y-182511649D01*
X158288551Y-182744062D01*
X158232650Y-183009456D01*
X158168585Y-183261742D01*
X158145895Y-183339059D01*
X158083826Y-183539515D01*
X158038140Y-183680526D01*
X158000903Y-183783017D01*
X157964185Y-183867911D01*
X157920053Y-183956135D01*
X157891266Y-184010794D01*
X157844383Y-184101643D01*
X157771800Y-184245063D01*
X157684976Y-184418328D01*
X157626630Y-184535588D01*
X157505385Y-184764226D01*
X157390864Y-184950660D01*
X157290256Y-185084716D01*
X157210749Y-185156220D01*
X157181685Y-185165340D01*
X157134369Y-185187865D01*
X157037613Y-185247613D01*
X156910190Y-185332844D01*
X156876633Y-185356134D01*
X156609877Y-185523052D01*
X156346698Y-185642349D01*
X156064792Y-185720614D01*
X155741850Y-185764437D01*
X155445214Y-185778991D01*
X155155073Y-185780629D01*
X154938170Y-185770575D01*
X154784503Y-185748191D01*
X154731495Y-185733302D01*
X154600401Y-185695378D01*
X154486396Y-185673857D01*
X154466498Y-185672368D01*
X154374802Y-185653188D01*
X154243391Y-185607385D01*
X154151622Y-185568069D01*
X153979996Y-185489260D01*
X153796559Y-185406241D01*
X153723891Y-185373769D01*
X153603572Y-185317186D01*
X153518178Y-185271169D01*
X153492982Y-185252714D01*
X153450245Y-185216060D01*
X153358292Y-185146614D01*
X153236962Y-185059357D01*
X153235983Y-185058668D01*
X153101687Y-184952692D01*
X152960010Y-184822458D01*
X152825554Y-184683831D01*
X152712921Y-184552680D01*
X152636715Y-184444869D01*
X152611329Y-184379939D01*
X152596240Y-184299558D01*
X152555780Y-184161796D01*
X152497163Y-183986655D01*
X152427605Y-183794142D01*
X152354318Y-183604260D01*
X152284518Y-183437014D01*
X152228398Y-183318067D01*
X152164064Y-183183539D01*
X152120246Y-183070028D01*
X152107618Y-183013117D01*
X152087225Y-182912767D01*
X152066788Y-182866175D01*
X152038676Y-182794635D01*
X151996776Y-182663052D01*
X151946741Y-182492193D01*
X151894223Y-182302825D01*
X151844874Y-182115713D01*
X151804349Y-181951623D01*
X151778299Y-181831323D01*
X151771660Y-181781961D01*
X151753612Y-181706928D01*
X151707540Y-181590588D01*
X151672876Y-181517223D01*
X151602017Y-181363714D01*
X151539293Y-181207509D01*
X151520870Y-181154267D01*
X151461384Y-181017638D01*
X151384296Y-180897750D01*
X151371630Y-180883026D01*
X151284066Y-180749614D01*
X151220528Y-180582965D01*
X151195535Y-180438964D01*
X151278606Y-180438964D01*
X151309353Y-180619041D01*
X151411142Y-180778087D01*
X151485711Y-180883243D01*
X151563393Y-181030703D01*
X151609072Y-181140345D01*
X151682857Y-181319377D01*
X151749809Y-181423684D01*
X151817918Y-181461188D01*
X151895174Y-181439811D01*
X151905108Y-181433872D01*
X151977689Y-181400549D01*
X152010059Y-181401314D01*
X152012185Y-181453072D01*
X151971545Y-181524074D01*
X151911445Y-181581748D01*
X151870245Y-181596745D01*
X151824931Y-181617509D01*
X151833105Y-181691053D01*
X151833152Y-181691207D01*
X151861004Y-181787333D01*
X151898436Y-181924097D01*
X151917379Y-181995588D01*
X152001251Y-182310030D01*
X152072553Y-182560909D01*
X152137378Y-182766528D01*
X152201817Y-182945191D01*
X152271961Y-183115202D01*
X152339695Y-183264602D01*
X152434914Y-183479863D01*
X152529591Y-183713209D01*
X152608500Y-183926426D01*
X152634162Y-184003580D01*
X152742291Y-184289396D01*
X152876829Y-184526810D01*
X153052778Y-184734728D01*
X153285141Y-184932057D01*
X153477237Y-185066035D01*
X153836144Y-185279944D01*
X154183468Y-185435996D01*
X154552419Y-185547357D01*
X154836453Y-185604935D01*
X155119735Y-185646164D01*
X155354690Y-185660937D01*
X155572653Y-185649342D01*
X155804958Y-185611470D01*
X155823065Y-185607733D01*
X156276355Y-185487131D01*
X156658102Y-185328649D01*
X156972758Y-185130113D01*
X157171792Y-184948935D01*
X157246858Y-184850520D01*
X157342165Y-184699920D01*
X157442988Y-184521291D01*
X157500534Y-184409637D01*
X157599806Y-184209228D01*
X157670850Y-184066366D01*
X157722776Y-183963388D01*
X157764696Y-183882633D01*
X157805721Y-183806441D01*
X157854961Y-183717148D01*
X157895047Y-183644874D01*
X157993417Y-183426430D01*
X158083699Y-183150504D01*
X158159579Y-182843559D01*
X158214743Y-182532062D01*
X158242875Y-182242477D01*
X158244915Y-182178444D01*
X158224734Y-181805003D01*
X158157480Y-181407819D01*
X158089541Y-181085221D01*
X158044102Y-180820103D01*
X158019638Y-180589484D01*
X158014626Y-180370388D01*
X158026949Y-180150414D01*
X158115503Y-180150414D01*
X158119842Y-180358232D01*
X158162466Y-180197376D01*
X158184254Y-180069019D01*
X158163648Y-179995683D01*
X158158127Y-179989558D01*
X158129782Y-179983171D01*
X158116621Y-180043513D01*
X158115503Y-180150414D01*
X158026949Y-180150414D01*
X158027542Y-180139834D01*
X158056195Y-179880089D01*
X158090840Y-179524186D01*
X158093319Y-179220867D01*
X158060650Y-178943984D01*
X157989852Y-178667389D01*
X157885518Y-178383423D01*
X157788319Y-178114031D01*
X157739683Y-177898956D01*
X157732503Y-177798708D01*
X157725945Y-177697176D01*
X157709453Y-177573585D01*
X157686831Y-177445492D01*
X157661878Y-177330456D01*
X157638397Y-177246033D01*
X157620189Y-177209783D01*
X157611117Y-177238095D01*
X157576235Y-177287551D01*
X157499892Y-177298210D01*
X157413393Y-177273177D01*
X157348044Y-177215555D01*
X157345853Y-177211802D01*
X157329336Y-177132487D01*
X157360324Y-177078975D01*
X157418010Y-177074870D01*
X157447825Y-177096116D01*
X157516468Y-177142067D01*
X157560133Y-177131627D01*
X157565379Y-177108805D01*
X157540363Y-177058525D01*
X157474357Y-176961774D01*
X157380927Y-176835915D01*
X157273638Y-176698308D01*
X157166053Y-176566313D01*
X157071738Y-176457292D01*
X157004257Y-176388605D01*
X156999604Y-176384702D01*
X156905378Y-176305386D01*
X156809677Y-176221582D01*
X156727544Y-176164953D01*
X156588133Y-176085636D01*
X156411501Y-175993655D01*
X156217703Y-175899034D01*
X156026796Y-175811796D01*
X155858835Y-175741964D01*
X155823065Y-175728505D01*
X155530276Y-175650474D01*
X155187018Y-175606018D01*
X154820037Y-175595726D01*
X154456081Y-175620184D01*
X154121896Y-175679981D01*
X154082516Y-175690250D01*
X153945769Y-175734920D01*
X153770920Y-175802996D01*
X153572435Y-175887559D01*
X153364781Y-175981689D01*
X153162423Y-176078469D01*
X152979829Y-176170978D01*
X152831466Y-176252298D01*
X152731799Y-176315510D01*
X152695296Y-176353694D01*
X152695296Y-176353724D01*
X152670043Y-176377755D01*
X152657522Y-176372404D01*
X152613610Y-176390119D01*
X152531639Y-176458186D01*
X152427765Y-176562839D01*
X152406118Y-176586578D01*
X152275754Y-176748776D01*
X152169473Y-176924868D01*
X152078820Y-177133503D01*
X151995337Y-177393330D01*
X151933258Y-177629307D01*
X151870016Y-177874968D01*
X151806171Y-178104357D01*
X151746449Y-178301996D01*
X151695576Y-178452406D01*
X151658280Y-178540110D01*
X151652189Y-178549691D01*
X151601225Y-178659971D01*
X151555653Y-178840331D01*
X151518318Y-179076921D01*
X151494981Y-179314631D01*
X151480512Y-179543494D01*
X151480581Y-179703532D01*
X151500526Y-179809382D01*
X151545683Y-179875681D01*
X151621385Y-179917065D01*
X151725274Y-179946353D01*
X151886683Y-179995954D01*
X152024538Y-180058460D01*
X152118719Y-180123070D01*
X152149511Y-180174135D01*
X152113692Y-180207551D01*
X152007540Y-180198447D01*
X151833018Y-180147018D01*
X151817531Y-180141568D01*
X151620978Y-180095507D01*
X151471096Y-180116069D01*
X151361492Y-180204802D01*
X151327159Y-180260380D01*
X151278606Y-180438964D01*
X151195535Y-180438964D01*
X151192068Y-180418990D01*
X151199365Y-180323288D01*
G37*
X151199365Y-180323288D02*
X151244738Y-180217587D01*
X151318665Y-180105103D01*
X151323557Y-180099071D01*
X151390735Y-179990599D01*
X151394839Y-179891196D01*
X151390729Y-179875422D01*
X151356630Y-179661878D01*
X151356910Y-179396036D01*
X151388546Y-179100773D01*
X151448515Y-178798967D01*
X151533793Y-178513496D01*
X151589071Y-178374709D01*
X151655765Y-178201964D01*
X151720203Y-177999691D01*
X151755520Y-177865322D01*
X151873536Y-177416440D01*
X152001503Y-177049800D01*
X152139251Y-176765836D01*
X152245137Y-176611911D01*
X152374592Y-176461390D01*
X152495872Y-176341130D01*
X152628590Y-176236202D01*
X152792358Y-176131679D01*
X153006788Y-176012630D01*
X153090570Y-175968367D01*
X153423797Y-175801505D01*
X153710175Y-175677820D01*
X153970524Y-175590775D01*
X154225663Y-175533834D01*
X154496412Y-175500460D01*
X154605544Y-175492727D01*
X155030293Y-175482920D01*
X155399776Y-175510225D01*
X155735492Y-175577730D01*
X156058941Y-175688524D01*
X156105894Y-175708278D01*
X156561998Y-175944429D01*
X156970220Y-176237300D01*
X157321313Y-176578803D01*
X157606032Y-176960848D01*
X157677873Y-177083521D01*
X157741403Y-177217621D01*
X157782878Y-177359858D01*
X157809453Y-177539661D01*
X157820752Y-177671290D01*
X157844968Y-177900055D01*
X157886942Y-178097887D01*
X157956742Y-178306011D01*
X158005296Y-178426993D01*
X158071812Y-178593789D01*
X158118901Y-178735734D01*
X158151720Y-178877370D01*
X158175423Y-179043238D01*
X158195166Y-179257879D01*
X158203748Y-179371621D01*
X158225610Y-179692504D01*
X158238465Y-179941836D01*
X158242029Y-180131581D01*
X158236021Y-180273698D01*
X158220158Y-180380151D01*
X158194157Y-180462901D01*
X158177122Y-180499406D01*
X158144614Y-180572055D01*
X158130427Y-180644353D01*
X158134409Y-180739863D01*
X158156408Y-180882148D01*
X158174017Y-180977674D01*
X158236048Y-181308445D01*
X158283680Y-181569716D01*
X158318203Y-181774474D01*
X158340905Y-181935708D01*
X158353076Y-182066405D01*
X158356003Y-182179555D01*
X158350977Y-182288144D01*
X158339285Y-182405162D01*
X158326241Y-182511649D01*
X158288551Y-182744062D01*
X158232650Y-183009456D01*
X158168585Y-183261742D01*
X158145895Y-183339059D01*
X158083826Y-183539515D01*
X158038140Y-183680526D01*
X158000903Y-183783017D01*
X157964185Y-183867911D01*
X157920053Y-183956135D01*
X157891266Y-184010794D01*
X157844383Y-184101643D01*
X157771800Y-184245063D01*
X157684976Y-184418328D01*
X157626630Y-184535588D01*
X157505385Y-184764226D01*
X157390864Y-184950660D01*
X157290256Y-185084716D01*
X157210749Y-185156220D01*
X157181685Y-185165340D01*
X157134369Y-185187865D01*
X157037613Y-185247613D01*
X156910190Y-185332844D01*
X156876633Y-185356134D01*
X156609877Y-185523052D01*
X156346698Y-185642349D01*
X156064792Y-185720614D01*
X155741850Y-185764437D01*
X155445214Y-185778991D01*
X155155073Y-185780629D01*
X154938170Y-185770575D01*
X154784503Y-185748191D01*
X154731495Y-185733302D01*
X154600401Y-185695378D01*
X154486396Y-185673857D01*
X154466498Y-185672368D01*
X154374802Y-185653188D01*
X154243391Y-185607385D01*
X154151622Y-185568069D01*
X153979996Y-185489260D01*
X153796559Y-185406241D01*
X153723891Y-185373769D01*
X153603572Y-185317186D01*
X153518178Y-185271169D01*
X153492982Y-185252714D01*
X153450245Y-185216060D01*
X153358292Y-185146614D01*
X153236962Y-185059357D01*
X153235983Y-185058668D01*
X153101687Y-184952692D01*
X152960010Y-184822458D01*
X152825554Y-184683831D01*
X152712921Y-184552680D01*
X152636715Y-184444869D01*
X152611329Y-184379939D01*
X152596240Y-184299558D01*
X152555780Y-184161796D01*
X152497163Y-183986655D01*
X152427605Y-183794142D01*
X152354318Y-183604260D01*
X152284518Y-183437014D01*
X152228398Y-183318067D01*
X152164064Y-183183539D01*
X152120246Y-183070028D01*
X152107618Y-183013117D01*
X152087225Y-182912767D01*
X152066788Y-182866175D01*
X152038676Y-182794635D01*
X151996776Y-182663052D01*
X151946741Y-182492193D01*
X151894223Y-182302825D01*
X151844874Y-182115713D01*
X151804349Y-181951623D01*
X151778299Y-181831323D01*
X151771660Y-181781961D01*
X151753612Y-181706928D01*
X151707540Y-181590588D01*
X151672876Y-181517223D01*
X151602017Y-181363714D01*
X151539293Y-181207509D01*
X151520870Y-181154267D01*
X151461384Y-181017638D01*
X151384296Y-180897750D01*
X151371630Y-180883026D01*
X151284066Y-180749614D01*
X151220528Y-180582965D01*
X151195535Y-180438964D01*
X151278606Y-180438964D01*
X151309353Y-180619041D01*
X151411142Y-180778087D01*
X151485711Y-180883243D01*
X151563393Y-181030703D01*
X151609072Y-181140345D01*
X151682857Y-181319377D01*
X151749809Y-181423684D01*
X151817918Y-181461188D01*
X151895174Y-181439811D01*
X151905108Y-181433872D01*
X151977689Y-181400549D01*
X152010059Y-181401314D01*
X152012185Y-181453072D01*
X151971545Y-181524074D01*
X151911445Y-181581748D01*
X151870245Y-181596745D01*
X151824931Y-181617509D01*
X151833105Y-181691053D01*
X151833152Y-181691207D01*
X151861004Y-181787333D01*
X151898436Y-181924097D01*
X151917379Y-181995588D01*
X152001251Y-182310030D01*
X152072553Y-182560909D01*
X152137378Y-182766528D01*
X152201817Y-182945191D01*
X152271961Y-183115202D01*
X152339695Y-183264602D01*
X152434914Y-183479863D01*
X152529591Y-183713209D01*
X152608500Y-183926426D01*
X152634162Y-184003580D01*
X152742291Y-184289396D01*
X152876829Y-184526810D01*
X153052778Y-184734728D01*
X153285141Y-184932057D01*
X153477237Y-185066035D01*
X153836144Y-185279944D01*
X154183468Y-185435996D01*
X154552419Y-185547357D01*
X154836453Y-185604935D01*
X155119735Y-185646164D01*
X155354690Y-185660937D01*
X155572653Y-185649342D01*
X155804958Y-185611470D01*
X155823065Y-185607733D01*
X156276355Y-185487131D01*
X156658102Y-185328649D01*
X156972758Y-185130113D01*
X157171792Y-184948935D01*
X157246858Y-184850520D01*
X157342165Y-184699920D01*
X157442988Y-184521291D01*
X157500534Y-184409637D01*
X157599806Y-184209228D01*
X157670850Y-184066366D01*
X157722776Y-183963388D01*
X157764696Y-183882633D01*
X157805721Y-183806441D01*
X157854961Y-183717148D01*
X157895047Y-183644874D01*
X157993417Y-183426430D01*
X158083699Y-183150504D01*
X158159579Y-182843559D01*
X158214743Y-182532062D01*
X158242875Y-182242477D01*
X158244915Y-182178444D01*
X158224734Y-181805003D01*
X158157480Y-181407819D01*
X158089541Y-181085221D01*
X158044102Y-180820103D01*
X158019638Y-180589484D01*
X158014626Y-180370388D01*
X158026949Y-180150414D01*
X158115503Y-180150414D01*
X158119842Y-180358232D01*
X158162466Y-180197376D01*
X158184254Y-180069019D01*
X158163648Y-179995683D01*
X158158127Y-179989558D01*
X158129782Y-179983171D01*
X158116621Y-180043513D01*
X158115503Y-180150414D01*
X158026949Y-180150414D01*
X158027542Y-180139834D01*
X158056195Y-179880089D01*
X158090840Y-179524186D01*
X158093319Y-179220867D01*
X158060650Y-178943984D01*
X157989852Y-178667389D01*
X157885518Y-178383423D01*
X157788319Y-178114031D01*
X157739683Y-177898956D01*
X157732503Y-177798708D01*
X157725945Y-177697176D01*
X157709453Y-177573585D01*
X157686831Y-177445492D01*
X157661878Y-177330456D01*
X157638397Y-177246033D01*
X157620189Y-177209783D01*
X157611117Y-177238095D01*
X157576235Y-177287551D01*
X157499892Y-177298210D01*
X157413393Y-177273177D01*
X157348044Y-177215555D01*
X157345853Y-177211802D01*
X157329336Y-177132487D01*
X157360324Y-177078975D01*
X157418010Y-177074870D01*
X157447825Y-177096116D01*
X157516468Y-177142067D01*
X157560133Y-177131627D01*
X157565379Y-177108805D01*
X157540363Y-177058525D01*
X157474357Y-176961774D01*
X157380927Y-176835915D01*
X157273638Y-176698308D01*
X157166053Y-176566313D01*
X157071738Y-176457292D01*
X157004257Y-176388605D01*
X156999604Y-176384702D01*
X156905378Y-176305386D01*
X156809677Y-176221582D01*
X156727544Y-176164953D01*
X156588133Y-176085636D01*
X156411501Y-175993655D01*
X156217703Y-175899034D01*
X156026796Y-175811796D01*
X155858835Y-175741964D01*
X155823065Y-175728505D01*
X155530276Y-175650474D01*
X155187018Y-175606018D01*
X154820037Y-175595726D01*
X154456081Y-175620184D01*
X154121896Y-175679981D01*
X154082516Y-175690250D01*
X153945769Y-175734920D01*
X153770920Y-175802996D01*
X153572435Y-175887559D01*
X153364781Y-175981689D01*
X153162423Y-176078469D01*
X152979829Y-176170978D01*
X152831466Y-176252298D01*
X152731799Y-176315510D01*
X152695296Y-176353694D01*
X152695296Y-176353724D01*
X152670043Y-176377755D01*
X152657522Y-176372404D01*
X152613610Y-176390119D01*
X152531639Y-176458186D01*
X152427765Y-176562839D01*
X152406118Y-176586578D01*
X152275754Y-176748776D01*
X152169473Y-176924868D01*
X152078820Y-177133503D01*
X151995337Y-177393330D01*
X151933258Y-177629307D01*
X151870016Y-177874968D01*
X151806171Y-178104357D01*
X151746449Y-178301996D01*
X151695576Y-178452406D01*
X151658280Y-178540110D01*
X151652189Y-178549691D01*
X151601225Y-178659971D01*
X151555653Y-178840331D01*
X151518318Y-179076921D01*
X151494981Y-179314631D01*
X151480512Y-179543494D01*
X151480581Y-179703532D01*
X151500526Y-179809382D01*
X151545683Y-179875681D01*
X151621385Y-179917065D01*
X151725274Y-179946353D01*
X151886683Y-179995954D01*
X152024538Y-180058460D01*
X152118719Y-180123070D01*
X152149511Y-180174135D01*
X152113692Y-180207551D01*
X152007540Y-180198447D01*
X151833018Y-180147018D01*
X151817531Y-180141568D01*
X151620978Y-180095507D01*
X151471096Y-180116069D01*
X151361492Y-180204802D01*
X151327159Y-180260380D01*
X151278606Y-180438964D01*
X151195535Y-180438964D01*
X151192068Y-180418990D01*
X151199365Y-180323288D01*
G36*
X154941412Y-182887874D02*
G01*
X154973585Y-182932660D01*
X154987840Y-183013824D01*
X155002685Y-183129110D01*
X155023820Y-183202612D01*
X155032984Y-183263491D01*
X155000514Y-183273070D01*
X154949055Y-183234071D01*
X154919309Y-183190040D01*
X154891763Y-183100511D01*
X154886975Y-183000157D01*
X154902747Y-182919021D01*
X154936882Y-182887147D01*
X154941412Y-182887874D01*
G37*
X154941412Y-182887874D02*
X154973585Y-182932660D01*
X154987840Y-183013824D01*
X155002685Y-183129110D01*
X155023820Y-183202612D01*
X155032984Y-183263491D01*
X155000514Y-183273070D01*
X154949055Y-183234071D01*
X154919309Y-183190040D01*
X154891763Y-183100511D01*
X154886975Y-183000157D01*
X154902747Y-182919021D01*
X154936882Y-182887147D01*
X154941412Y-182887874D01*
G36*
X154720652Y-179272934D02*
G01*
X154729381Y-179314612D01*
X154685580Y-179358695D01*
X154633135Y-179407584D01*
X154649517Y-179442816D01*
X154668520Y-179455588D01*
X154705398Y-179491961D01*
X154675685Y-179533815D01*
X154648908Y-179554345D01*
X154593755Y-179608418D01*
X154606673Y-179661040D01*
X154624242Y-179683733D01*
X154657927Y-179761994D01*
X154625895Y-179812705D01*
X154545414Y-179821112D01*
X154485883Y-179801960D01*
X154391084Y-179778930D01*
X154346760Y-179794141D01*
X154292958Y-179834331D01*
X154189795Y-179901931D01*
X154068717Y-179976757D01*
X153928246Y-180054422D01*
X153849613Y-180080451D01*
X153828850Y-180062575D01*
X153861933Y-180011680D01*
X153948557Y-179935172D01*
X154066697Y-179851804D01*
X154255848Y-179719506D01*
X154385035Y-179598246D01*
X154472745Y-179469119D01*
X154502456Y-179406125D01*
X154572698Y-179301269D01*
X154658545Y-179258245D01*
X154720652Y-179272934D01*
G37*
X154720652Y-179272934D02*
X154729381Y-179314612D01*
X154685580Y-179358695D01*
X154633135Y-179407584D01*
X154649517Y-179442816D01*
X154668520Y-179455588D01*
X154705398Y-179491961D01*
X154675685Y-179533815D01*
X154648908Y-179554345D01*
X154593755Y-179608418D01*
X154606673Y-179661040D01*
X154624242Y-179683733D01*
X154657927Y-179761994D01*
X154625895Y-179812705D01*
X154545414Y-179821112D01*
X154485883Y-179801960D01*
X154391084Y-179778930D01*
X154346760Y-179794141D01*
X154292958Y-179834331D01*
X154189795Y-179901931D01*
X154068717Y-179976757D01*
X153928246Y-180054422D01*
X153849613Y-180080451D01*
X153828850Y-180062575D01*
X153861933Y-180011680D01*
X153948557Y-179935172D01*
X154066697Y-179851804D01*
X154255848Y-179719506D01*
X154385035Y-179598246D01*
X154472745Y-179469119D01*
X154502456Y-179406125D01*
X154572698Y-179301269D01*
X154658545Y-179258245D01*
X154720652Y-179272934D01*
G36*
X156631589Y-181113858D02*
G01*
X156641743Y-181155918D01*
X156607161Y-181208293D01*
X156564283Y-181218893D01*
X156478781Y-181248376D01*
X156410834Y-181302860D01*
X156330258Y-181365878D01*
X156267880Y-181385691D01*
X156249976Y-181361999D01*
X156302584Y-181292724D01*
X156357738Y-181238749D01*
X156482444Y-181139156D01*
X156576767Y-181096639D01*
X156631589Y-181113858D01*
G37*
X156631589Y-181113858D02*
X156641743Y-181155918D01*
X156607161Y-181208293D01*
X156564283Y-181218893D01*
X156478781Y-181248376D01*
X156410834Y-181302860D01*
X156330258Y-181365878D01*
X156267880Y-181385691D01*
X156249976Y-181361999D01*
X156302584Y-181292724D01*
X156357738Y-181238749D01*
X156482444Y-181139156D01*
X156576767Y-181096639D01*
X156631589Y-181113858D01*
G36*
X156923301Y-182724811D02*
G01*
X156935627Y-182793273D01*
X156926905Y-182880527D01*
X156899131Y-182886174D01*
X156853137Y-182817025D01*
X156814649Y-182730833D01*
X156826895Y-182694457D01*
X156872652Y-182688315D01*
X156923301Y-182724811D01*
G37*
X156923301Y-182724811D02*
X156935627Y-182793273D01*
X156926905Y-182880527D01*
X156899131Y-182886174D01*
X156853137Y-182817025D01*
X156814649Y-182730833D01*
X156826895Y-182694457D01*
X156872652Y-182688315D01*
X156923301Y-182724811D01*
G36*
X156028213Y-182877482D02*
G01*
X156019267Y-182881034D01*
X155942246Y-182901790D01*
X155811695Y-182924640D01*
X155676123Y-182942249D01*
X155519207Y-182962432D01*
X155385296Y-182984863D01*
X155313506Y-183001832D01*
X155226052Y-183012000D01*
X155198368Y-182967482D01*
X155230129Y-182872238D01*
X155309117Y-182748812D01*
X156221908Y-182748812D01*
X156242149Y-182807229D01*
X156306395Y-182797262D01*
X156339797Y-182778152D01*
X156375390Y-182707985D01*
X156366634Y-182631456D01*
X156330299Y-182532567D01*
X156293953Y-182491135D01*
X156271755Y-182512184D01*
X156277697Y-182599907D01*
X156286730Y-182689770D01*
X156266078Y-182710472D01*
X156263259Y-182708916D01*
X156227843Y-182718800D01*
X156221908Y-182748812D01*
X155309117Y-182748812D01*
X155321011Y-182730228D01*
X155337518Y-182708052D01*
X155443559Y-182583356D01*
X156179925Y-182583356D01*
X156200916Y-182604348D01*
X156221908Y-182583356D01*
X156200916Y-182562364D01*
X156179925Y-182583356D01*
X155443559Y-182583356D01*
X155488364Y-182530669D01*
X155628143Y-182422368D01*
X155775001Y-182373512D01*
X155947090Y-182374465D01*
X155962169Y-182376362D01*
X156121294Y-182383588D01*
X156276509Y-182369449D01*
X156318111Y-182360222D01*
X156470337Y-182347719D01*
X156583274Y-182407338D01*
X156660261Y-182541483D01*
X156683221Y-182623022D01*
X156703975Y-182762274D01*
X156688666Y-182831117D01*
X156638287Y-182826736D01*
X156617013Y-182811163D01*
X156584270Y-182787669D01*
X156567513Y-182789965D01*
X156569034Y-182827694D01*
X156591124Y-182910501D01*
X156636077Y-183048031D01*
X156706184Y-183249929D01*
X156752453Y-183381042D01*
X156847480Y-183651560D01*
X156914178Y-183854010D01*
X156952131Y-183999515D01*
X156960922Y-184099200D01*
X156940133Y-184164187D01*
X156889349Y-184205601D01*
X156808153Y-184234565D01*
X156719647Y-184256574D01*
X156647743Y-184264576D01*
X156599178Y-184233512D01*
X156552475Y-184145715D01*
X156535317Y-184104944D01*
X156483888Y-183971003D01*
X156421696Y-183796432D01*
X156366788Y-183632943D01*
X156315235Y-183481656D01*
X156275268Y-183394904D01*
X156235273Y-183356526D01*
X156183633Y-183350359D01*
X156165064Y-183352259D01*
X156043262Y-183343048D01*
X155965975Y-183315909D01*
X155862242Y-183283472D01*
X155728870Y-183268698D01*
X155709148Y-183268626D01*
X155594788Y-183259151D01*
X155560544Y-183226599D01*
X155561896Y-183221009D01*
X155614388Y-183189832D01*
X155733931Y-183179973D01*
X155906319Y-183191591D01*
X156066482Y-183215336D01*
X156168974Y-183230511D01*
X156208717Y-183216650D01*
X156205564Y-183159792D01*
X156197120Y-183123473D01*
X156148205Y-182965936D01*
X156135676Y-182947656D01*
X156263891Y-182947656D01*
X156275386Y-182998382D01*
X156306334Y-183109116D01*
X156351430Y-183262601D01*
X156405369Y-183441580D01*
X156462848Y-183628798D01*
X156518561Y-183806997D01*
X156567203Y-183958921D01*
X156603470Y-184067314D01*
X156622058Y-184114920D01*
X156622969Y-184115753D01*
X156662309Y-184103501D01*
X156750311Y-184073527D01*
X156764000Y-184068766D01*
X156855978Y-184023496D01*
X156876436Y-183970796D01*
X156871179Y-183953311D01*
X156839442Y-183871559D01*
X156786947Y-183733288D01*
X156722030Y-183560743D01*
X156653028Y-183376170D01*
X156588275Y-183201817D01*
X156536108Y-183059928D01*
X156526204Y-183032670D01*
X156471018Y-182913409D01*
X156418605Y-182872411D01*
X156400929Y-182875232D01*
X156322754Y-182896323D01*
X156302441Y-182898232D01*
X156266114Y-182931154D01*
X156263891Y-182947656D01*
X156135676Y-182947656D01*
X156093446Y-182886044D01*
X156028213Y-182877482D01*
G37*
X156028213Y-182877482D02*
X156019267Y-182881034D01*
X155942246Y-182901790D01*
X155811695Y-182924640D01*
X155676123Y-182942249D01*
X155519207Y-182962432D01*
X155385296Y-182984863D01*
X155313506Y-183001832D01*
X155226052Y-183012000D01*
X155198368Y-182967482D01*
X155230129Y-182872238D01*
X155309117Y-182748812D01*
X156221908Y-182748812D01*
X156242149Y-182807229D01*
X156306395Y-182797262D01*
X156339797Y-182778152D01*
X156375390Y-182707985D01*
X156366634Y-182631456D01*
X156330299Y-182532567D01*
X156293953Y-182491135D01*
X156271755Y-182512184D01*
X156277697Y-182599907D01*
X156286730Y-182689770D01*
X156266078Y-182710472D01*
X156263259Y-182708916D01*
X156227843Y-182718800D01*
X156221908Y-182748812D01*
X155309117Y-182748812D01*
X155321011Y-182730228D01*
X155337518Y-182708052D01*
X155443559Y-182583356D01*
X156179925Y-182583356D01*
X156200916Y-182604348D01*
X156221908Y-182583356D01*
X156200916Y-182562364D01*
X156179925Y-182583356D01*
X155443559Y-182583356D01*
X155488364Y-182530669D01*
X155628143Y-182422368D01*
X155775001Y-182373512D01*
X155947090Y-182374465D01*
X155962169Y-182376362D01*
X156121294Y-182383588D01*
X156276509Y-182369449D01*
X156318111Y-182360222D01*
X156470337Y-182347719D01*
X156583274Y-182407338D01*
X156660261Y-182541483D01*
X156683221Y-182623022D01*
X156703975Y-182762274D01*
X156688666Y-182831117D01*
X156638287Y-182826736D01*
X156617013Y-182811163D01*
X156584270Y-182787669D01*
X156567513Y-182789965D01*
X156569034Y-182827694D01*
X156591124Y-182910501D01*
X156636077Y-183048031D01*
X156706184Y-183249929D01*
X156752453Y-183381042D01*
X156847480Y-183651560D01*
X156914178Y-183854010D01*
X156952131Y-183999515D01*
X156960922Y-184099200D01*
X156940133Y-184164187D01*
X156889349Y-184205601D01*
X156808153Y-184234565D01*
X156719647Y-184256574D01*
X156647743Y-184264576D01*
X156599178Y-184233512D01*
X156552475Y-184145715D01*
X156535317Y-184104944D01*
X156483888Y-183971003D01*
X156421696Y-183796432D01*
X156366788Y-183632943D01*
X156315235Y-183481656D01*
X156275268Y-183394904D01*
X156235273Y-183356526D01*
X156183633Y-183350359D01*
X156165064Y-183352259D01*
X156043262Y-183343048D01*
X155965975Y-183315909D01*
X155862242Y-183283472D01*
X155728870Y-183268698D01*
X155709148Y-183268626D01*
X155594788Y-183259151D01*
X155560544Y-183226599D01*
X155561896Y-183221009D01*
X155614388Y-183189832D01*
X155733931Y-183179973D01*
X155906319Y-183191591D01*
X156066482Y-183215336D01*
X156168974Y-183230511D01*
X156208717Y-183216650D01*
X156205564Y-183159792D01*
X156197120Y-183123473D01*
X156148205Y-182965936D01*
X156135676Y-182947656D01*
X156263891Y-182947656D01*
X156275386Y-182998382D01*
X156306334Y-183109116D01*
X156351430Y-183262601D01*
X156405369Y-183441580D01*
X156462848Y-183628798D01*
X156518561Y-183806997D01*
X156567203Y-183958921D01*
X156603470Y-184067314D01*
X156622058Y-184114920D01*
X156622969Y-184115753D01*
X156662309Y-184103501D01*
X156750311Y-184073527D01*
X156764000Y-184068766D01*
X156855978Y-184023496D01*
X156876436Y-183970796D01*
X156871179Y-183953311D01*
X156839442Y-183871559D01*
X156786947Y-183733288D01*
X156722030Y-183560743D01*
X156653028Y-183376170D01*
X156588275Y-183201817D01*
X156536108Y-183059928D01*
X156526204Y-183032670D01*
X156471018Y-182913409D01*
X156418605Y-182872411D01*
X156400929Y-182875232D01*
X156322754Y-182896323D01*
X156302441Y-182898232D01*
X156266114Y-182931154D01*
X156263891Y-182947656D01*
X156135676Y-182947656D01*
X156093446Y-182886044D01*
X156028213Y-182877482D01*
G36*
X155416979Y-181174033D02*
G01*
X155468357Y-181195996D01*
X155579314Y-181253919D01*
X155684790Y-181323461D01*
X155768803Y-181391443D01*
X155815372Y-181444684D01*
X155808515Y-181470005D01*
X155801323Y-181470586D01*
X155729126Y-181448315D01*
X155623958Y-181392176D01*
X155583137Y-181365835D01*
X155475594Y-181295199D01*
X155406667Y-181268980D01*
X155344710Y-181285621D01*
X155258080Y-181343564D01*
X155249856Y-181349424D01*
X155148456Y-181407990D01*
X155102221Y-181407577D01*
X155115772Y-181356255D01*
X155193730Y-181262095D01*
X155197618Y-181258187D01*
X155280822Y-181180729D01*
X155341900Y-181155444D01*
X155416979Y-181174033D01*
G37*
X155416979Y-181174033D02*
X155468357Y-181195996D01*
X155579314Y-181253919D01*
X155684790Y-181323461D01*
X155768803Y-181391443D01*
X155815372Y-181444684D01*
X155808515Y-181470005D01*
X155801323Y-181470586D01*
X155729126Y-181448315D01*
X155623958Y-181392176D01*
X155583137Y-181365835D01*
X155475594Y-181295199D01*
X155406667Y-181268980D01*
X155344710Y-181285621D01*
X155258080Y-181343564D01*
X155249856Y-181349424D01*
X155148456Y-181407990D01*
X155102221Y-181407577D01*
X155115772Y-181356255D01*
X155193730Y-181262095D01*
X155197618Y-181258187D01*
X155280822Y-181180729D01*
X155341900Y-181155444D01*
X155416979Y-181174033D01*
G36*
X151631483Y-180395564D02*
G01*
X151706530Y-180443766D01*
X151763837Y-180520894D01*
X151803217Y-180659076D01*
X151819217Y-180767802D01*
X151840281Y-180923273D01*
X151863149Y-181056871D01*
X151878748Y-181124431D01*
X151884001Y-181200220D01*
X151849299Y-181216128D01*
X151794792Y-181170904D01*
X151769665Y-181131199D01*
X151740933Y-181039421D01*
X151719549Y-180902260D01*
X151713289Y-180818057D01*
X151690506Y-180642973D01*
X151642309Y-180525870D01*
X151632793Y-180514098D01*
X151569105Y-180424994D01*
X151571446Y-180382833D01*
X151631483Y-180395564D01*
G37*
X151631483Y-180395564D02*
X151706530Y-180443766D01*
X151763837Y-180520894D01*
X151803217Y-180659076D01*
X151819217Y-180767802D01*
X151840281Y-180923273D01*
X151863149Y-181056871D01*
X151878748Y-181124431D01*
X151884001Y-181200220D01*
X151849299Y-181216128D01*
X151794792Y-181170904D01*
X151769665Y-181131199D01*
X151740933Y-181039421D01*
X151719549Y-180902260D01*
X151713289Y-180818057D01*
X151690506Y-180642973D01*
X151642309Y-180525870D01*
X151632793Y-180514098D01*
X151569105Y-180424994D01*
X151571446Y-180382833D01*
X151631483Y-180395564D01*
G36*
X156248811Y-178847739D02*
G01*
X156306348Y-178910430D01*
X156352434Y-178962188D01*
X156408670Y-178993695D01*
X156496079Y-179010284D01*
X156635689Y-179017292D01*
X156733807Y-179018896D01*
X157005369Y-179036554D01*
X157214242Y-179085918D01*
X157377527Y-179172548D01*
X157475415Y-179259995D01*
X157547498Y-179355262D01*
X157556919Y-179407307D01*
X157512083Y-179405589D01*
X157421394Y-179339568D01*
X157415973Y-179334546D01*
X157267873Y-179236078D01*
X157075608Y-179161617D01*
X156872344Y-179120022D01*
X156691247Y-179120148D01*
X156647422Y-179129305D01*
X156467757Y-179150549D01*
X156331940Y-179101364D01*
X156240568Y-178989260D01*
X156199680Y-178884631D01*
X156205003Y-178834371D01*
X156248811Y-178847739D01*
G37*
X156248811Y-178847739D02*
X156306348Y-178910430D01*
X156352434Y-178962188D01*
X156408670Y-178993695D01*
X156496079Y-179010284D01*
X156635689Y-179017292D01*
X156733807Y-179018896D01*
X157005369Y-179036554D01*
X157214242Y-179085918D01*
X157377527Y-179172548D01*
X157475415Y-179259995D01*
X157547498Y-179355262D01*
X157556919Y-179407307D01*
X157512083Y-179405589D01*
X157421394Y-179339568D01*
X157415973Y-179334546D01*
X157267873Y-179236078D01*
X157075608Y-179161617D01*
X156872344Y-179120022D01*
X156691247Y-179120148D01*
X156647422Y-179129305D01*
X156467757Y-179150549D01*
X156331940Y-179101364D01*
X156240568Y-178989260D01*
X156199680Y-178884631D01*
X156205003Y-178834371D01*
X156248811Y-178847739D01*
G36*
X154833411Y-184431117D02*
G01*
X154883792Y-184479401D01*
X154953171Y-184534662D01*
X155070403Y-184602658D01*
X155163022Y-184647335D01*
X155445049Y-184730364D01*
X155764504Y-184752474D01*
X156101940Y-184714516D01*
X156437907Y-184617339D01*
X156508706Y-184588521D01*
X156618980Y-184552614D01*
X156672229Y-184557904D01*
X156660149Y-184598529D01*
X156598600Y-184652008D01*
X156399106Y-184757682D01*
X156144860Y-184836678D01*
X155862384Y-184883416D01*
X155578202Y-184892313D01*
X155487197Y-184885857D01*
X155335009Y-184852536D01*
X155168998Y-184788030D01*
X155008482Y-184703705D01*
X154872782Y-184610925D01*
X154781216Y-184521057D01*
X154752486Y-184453625D01*
X154776090Y-184412187D01*
X154833411Y-184431117D01*
G37*
X154833411Y-184431117D02*
X154883792Y-184479401D01*
X154953171Y-184534662D01*
X155070403Y-184602658D01*
X155163022Y-184647335D01*
X155445049Y-184730364D01*
X155764504Y-184752474D01*
X156101940Y-184714516D01*
X156437907Y-184617339D01*
X156508706Y-184588521D01*
X156618980Y-184552614D01*
X156672229Y-184557904D01*
X156660149Y-184598529D01*
X156598600Y-184652008D01*
X156399106Y-184757682D01*
X156144860Y-184836678D01*
X155862384Y-184883416D01*
X155578202Y-184892313D01*
X155487197Y-184885857D01*
X155335009Y-184852536D01*
X155168998Y-184788030D01*
X155008482Y-184703705D01*
X154872782Y-184610925D01*
X154781216Y-184521057D01*
X154752486Y-184453625D01*
X154776090Y-184412187D01*
X154833411Y-184431117D01*
G36*
X156634103Y-179622069D02*
G01*
X156760891Y-179684099D01*
X156775996Y-179696500D01*
X156859546Y-179735812D01*
X156987807Y-179763103D01*
X157048888Y-179768660D01*
X157206590Y-179777515D01*
X157298236Y-179786975D01*
X157341671Y-179801077D01*
X157354737Y-179823855D01*
X157355462Y-179837990D01*
X157320734Y-179865754D01*
X157246933Y-179857286D01*
X157120356Y-179845959D01*
X157022597Y-179873546D01*
X156978189Y-179932398D01*
X156977610Y-179941227D01*
X156947957Y-179991033D01*
X156880293Y-179997629D01*
X156806565Y-179964242D01*
X156769170Y-179920166D01*
X156733279Y-179826468D01*
X156725710Y-179778120D01*
X156690952Y-179719536D01*
X156611186Y-179691310D01*
X156523169Y-179704709D01*
X156509944Y-179711991D01*
X156422522Y-179745473D01*
X156393831Y-179748829D01*
X156361241Y-179736736D01*
X156389980Y-179689006D01*
X156405382Y-179671529D01*
X156505751Y-179617215D01*
X156634103Y-179622069D01*
G37*
X156634103Y-179622069D02*
X156760891Y-179684099D01*
X156775996Y-179696500D01*
X156859546Y-179735812D01*
X156987807Y-179763103D01*
X157048888Y-179768660D01*
X157206590Y-179777515D01*
X157298236Y-179786975D01*
X157341671Y-179801077D01*
X157354737Y-179823855D01*
X157355462Y-179837990D01*
X157320734Y-179865754D01*
X157246933Y-179857286D01*
X157120356Y-179845959D01*
X157022597Y-179873546D01*
X156978189Y-179932398D01*
X156977610Y-179941227D01*
X156947957Y-179991033D01*
X156880293Y-179997629D01*
X156806565Y-179964242D01*
X156769170Y-179920166D01*
X156733279Y-179826468D01*
X156725710Y-179778120D01*
X156690952Y-179719536D01*
X156611186Y-179691310D01*
X156523169Y-179704709D01*
X156509944Y-179711991D01*
X156422522Y-179745473D01*
X156393831Y-179748829D01*
X156361241Y-179736736D01*
X156389980Y-179689006D01*
X156405382Y-179671529D01*
X156505751Y-179617215D01*
X156634103Y-179622069D01*
G36*
X156118218Y-180081076D02*
G01*
X156136366Y-180175883D01*
X156137941Y-180216809D01*
X156156869Y-180311153D01*
X156202550Y-180424346D01*
X156204012Y-180427194D01*
X156246295Y-180529032D01*
X156245650Y-180574275D01*
X156208367Y-180554491D01*
X156158080Y-180488773D01*
X156096379Y-180365624D01*
X156054617Y-180228273D01*
X156040127Y-180107902D01*
X156053514Y-180044100D01*
X156087392Y-180030583D01*
X156118218Y-180081076D01*
G37*
X156118218Y-180081076D02*
X156136366Y-180175883D01*
X156137941Y-180216809D01*
X156156869Y-180311153D01*
X156202550Y-180424346D01*
X156204012Y-180427194D01*
X156246295Y-180529032D01*
X156245650Y-180574275D01*
X156208367Y-180554491D01*
X156158080Y-180488773D01*
X156096379Y-180365624D01*
X156054617Y-180228273D01*
X156040127Y-180107902D01*
X156053514Y-180044100D01*
X156087392Y-180030583D01*
X156118218Y-180081076D01*
D13*
X239292362Y-175902967D03*
X139292362Y-175902967D03*
D14*
X139292362Y-191142967D03*
X239292362Y-191142967D03*
D15*
X194372362Y-184142967D03*
X184212362Y-184142967D03*
D13*
X189292362Y-184142967D03*
D16*
X185482362Y-181602967D03*
X191832362Y-179062967D03*
D17*
X79606248Y-98853065D03*
X73826248Y-98853065D03*
D18*
X72396248Y-99383065D03*
X81036248Y-99383065D03*
D19*
X72396248Y-95203065D03*
X81036248Y-95203065D03*
D20*
X125887362Y-119753967D03*
D15*
X123347362Y-119753967D03*
X125887362Y-122293967D03*
X123347362Y-122293967D03*
X125887362Y-124833967D03*
X123347362Y-124833967D03*
D16*
X298988362Y-102862967D03*
X292638362Y-105402967D03*
D13*
X296448362Y-107942967D03*
D15*
X291368362Y-107942967D03*
X301528362Y-107942967D03*
D16*
X137063362Y-121912967D03*
X130713362Y-124452967D03*
D13*
X134523362Y-126992967D03*
D15*
X129443362Y-126992967D03*
X139603362Y-126992967D03*
D16*
X70388362Y-102862967D03*
X64038362Y-105402967D03*
D13*
X67848362Y-107942967D03*
D15*
X62768362Y-107942967D03*
X72928362Y-107942967D03*
D16*
X89438362Y-102862967D03*
X83088362Y-105402967D03*
D13*
X86898362Y-107942967D03*
D15*
X81818362Y-107942967D03*
X91978362Y-107942967D03*
D16*
X108488362Y-102862967D03*
X102138362Y-105402967D03*
D13*
X105948362Y-107942967D03*
D15*
X100868362Y-107942967D03*
X111028362Y-107942967D03*
D16*
X127538362Y-102862967D03*
X121188362Y-105402967D03*
D13*
X124998362Y-107942967D03*
D15*
X119918362Y-107942967D03*
X130078362Y-107942967D03*
D16*
X146588362Y-102862967D03*
X140238362Y-105402967D03*
D13*
X144048362Y-107942967D03*
D15*
X138968362Y-107942967D03*
X149128362Y-107942967D03*
X168178362Y-107942967D03*
X158018362Y-107942967D03*
D13*
X163098362Y-107942967D03*
D16*
X159288362Y-105402967D03*
X165638362Y-102862967D03*
D15*
X187228362Y-107942967D03*
X177068362Y-107942967D03*
D13*
X182148362Y-107942967D03*
D16*
X178338362Y-105402967D03*
X184688362Y-102862967D03*
D15*
X206278362Y-107942967D03*
X196118362Y-107942967D03*
D13*
X201198362Y-107942967D03*
D16*
X197388362Y-105402967D03*
X203738362Y-102862967D03*
D15*
X225328362Y-107942967D03*
X215168362Y-107942967D03*
D13*
X220248362Y-107942967D03*
D16*
X216438362Y-105402967D03*
X222788362Y-102862967D03*
X241838362Y-102862967D03*
X235488362Y-105402967D03*
D13*
X239298362Y-107942967D03*
D15*
X234218362Y-107942967D03*
X244378362Y-107942967D03*
X263428362Y-107942967D03*
X253268362Y-107942967D03*
D13*
X258348362Y-107942967D03*
D16*
X254538362Y-105402967D03*
X260888362Y-102862967D03*
D15*
X282478362Y-107942967D03*
X272318362Y-107942967D03*
D13*
X277398362Y-107942967D03*
D16*
X273588362Y-105402967D03*
X279938362Y-102862967D03*
X356138362Y-102862967D03*
X349788362Y-105402967D03*
D13*
X353598362Y-107942967D03*
D15*
X348518362Y-107942967D03*
X358678362Y-107942967D03*
D16*
X98963362Y-121912967D03*
X92613362Y-124452967D03*
D13*
X96423362Y-126992967D03*
D15*
X91343362Y-126992967D03*
X101503362Y-126992967D03*
X120553362Y-126992967D03*
X110393362Y-126992967D03*
D13*
X115473362Y-126992967D03*
D16*
X111663362Y-124452967D03*
X118013362Y-121912967D03*
D15*
X158653362Y-126992967D03*
X148493362Y-126992967D03*
D13*
X153573362Y-126992967D03*
D16*
X149763362Y-124452967D03*
X156113362Y-121912967D03*
D15*
X177703362Y-126992967D03*
X167543362Y-126992967D03*
D13*
X172623362Y-126992967D03*
D16*
X168813362Y-124452967D03*
X175163362Y-121912967D03*
X194213362Y-121912967D03*
X187863362Y-124452967D03*
D13*
X191673362Y-126992967D03*
D15*
X186593362Y-126992967D03*
X196753362Y-126992967D03*
D16*
X213263362Y-121912967D03*
X206913362Y-124452967D03*
D13*
X210723362Y-126992967D03*
D15*
X205643362Y-126992967D03*
X215803362Y-126992967D03*
D16*
X232313362Y-121912967D03*
X225963362Y-124452967D03*
D13*
X229773362Y-126992967D03*
D15*
X224693362Y-126992967D03*
X234853362Y-126992967D03*
D16*
X251363362Y-121912967D03*
X245013362Y-124452967D03*
D13*
X248823362Y-126992967D03*
D15*
X243743362Y-126992967D03*
X253903362Y-126992967D03*
D16*
X270413362Y-121912967D03*
X264063362Y-124452967D03*
D13*
X267873362Y-126992967D03*
D15*
X262793362Y-126992967D03*
X272953362Y-126992967D03*
D16*
X289463362Y-121912967D03*
X283113362Y-124452967D03*
D13*
X286923362Y-126992967D03*
D15*
X281843362Y-126992967D03*
X292003362Y-126992967D03*
X311053362Y-126992967D03*
X300893362Y-126992967D03*
D13*
X305973362Y-126992967D03*
D16*
X302163362Y-124452967D03*
X308513362Y-121912967D03*
D15*
X358678362Y-126992967D03*
X348518362Y-126992967D03*
D13*
X353598362Y-126992967D03*
D16*
X349788362Y-124452967D03*
X356138362Y-121912967D03*
D15*
X106265862Y-146042967D03*
X96105862Y-146042967D03*
D13*
X101185862Y-146042967D03*
D16*
X97375862Y-143502967D03*
X103725862Y-140962967D03*
D15*
X125315862Y-146042967D03*
X115155862Y-146042967D03*
D13*
X120235862Y-146042967D03*
D16*
X116425862Y-143502967D03*
X122775862Y-140962967D03*
D15*
X144365862Y-146042967D03*
X134205862Y-146042967D03*
D13*
X139285862Y-146042967D03*
D16*
X135475862Y-143502967D03*
X141825862Y-140962967D03*
D15*
X163415362Y-146042967D03*
X153255362Y-146042967D03*
D13*
X158335362Y-146042967D03*
D16*
X154525362Y-143502967D03*
X160875362Y-140962967D03*
D15*
X182465362Y-146042967D03*
X172305362Y-146042967D03*
D13*
X177385362Y-146042967D03*
D16*
X173575362Y-143502967D03*
X179925362Y-140962967D03*
X198975362Y-140962967D03*
X192625362Y-143502967D03*
D13*
X196435362Y-146042967D03*
D15*
X191355362Y-146042967D03*
X201515362Y-146042967D03*
X220565362Y-146042967D03*
X210405362Y-146042967D03*
D13*
X215485362Y-146042967D03*
D16*
X211675362Y-143502967D03*
X218025362Y-140962967D03*
X237075362Y-140962967D03*
X230725362Y-143502967D03*
D13*
X234535362Y-146042967D03*
D15*
X229455362Y-146042967D03*
X239615362Y-146042967D03*
D16*
X256125362Y-140962967D03*
X249775362Y-143502967D03*
D13*
X253585362Y-146042967D03*
D15*
X248505362Y-146042967D03*
X258665362Y-146042967D03*
X277715362Y-146042967D03*
X267555362Y-146042967D03*
D13*
X272635362Y-146042967D03*
D16*
X268825362Y-143502967D03*
X275175362Y-140962967D03*
D15*
X296765362Y-146042967D03*
X286605362Y-146042967D03*
D13*
X291685362Y-146042967D03*
D16*
X287875362Y-143502967D03*
X294225362Y-140962967D03*
D15*
X358678362Y-146042967D03*
X348518362Y-146042967D03*
D13*
X353598362Y-146042967D03*
D16*
X349788362Y-143502967D03*
X356138362Y-140962967D03*
X113250862Y-160012967D03*
X106900862Y-162552967D03*
D13*
X110710862Y-165092967D03*
D15*
X105630862Y-165092967D03*
X115790862Y-165092967D03*
X134840862Y-165092967D03*
X124680862Y-165092967D03*
D13*
X129760862Y-165092967D03*
D16*
X125950862Y-162552967D03*
X132300862Y-160012967D03*
X151350862Y-160012967D03*
X145000862Y-162552967D03*
D13*
X148810862Y-165092967D03*
D15*
X143730862Y-165092967D03*
X153890862Y-165092967D03*
D16*
X170401362Y-160012967D03*
X164051362Y-162552967D03*
D13*
X167861362Y-165092967D03*
D15*
X162781362Y-165092967D03*
X172941362Y-165092967D03*
D16*
X189451362Y-160012967D03*
X183101362Y-162552967D03*
D13*
X186911362Y-165092967D03*
D15*
X181831362Y-165092967D03*
X191991362Y-165092967D03*
D16*
X208501362Y-160012967D03*
X202151362Y-162552967D03*
D13*
X205961362Y-165092967D03*
D15*
X200881362Y-165092967D03*
X211041362Y-165092967D03*
X230091362Y-165092967D03*
X219931362Y-165092967D03*
D13*
X225011362Y-165092967D03*
D16*
X221201362Y-162552967D03*
X227551362Y-160012967D03*
D15*
X249141362Y-165092967D03*
X238981362Y-165092967D03*
D13*
X244061362Y-165092967D03*
D16*
X240251362Y-162552967D03*
X246601362Y-160012967D03*
D15*
X268191362Y-165092967D03*
X258031362Y-165092967D03*
D13*
X263111362Y-165092967D03*
D16*
X259301362Y-162552967D03*
X265651362Y-160012967D03*
D15*
X287241362Y-165092967D03*
X277081362Y-165092967D03*
D13*
X282161362Y-165092967D03*
D16*
X278351362Y-162552967D03*
X284701362Y-160012967D03*
D15*
X339628362Y-165092967D03*
X329468362Y-165092967D03*
D13*
X334548362Y-165092967D03*
D16*
X330738362Y-162552967D03*
X337088362Y-160012967D03*
D15*
X358678362Y-165092967D03*
X348518362Y-165092967D03*
D13*
X353598362Y-165092967D03*
D16*
X349788362Y-162552967D03*
X356138362Y-160012967D03*
X318038362Y-179062967D03*
X311688362Y-181602967D03*
D13*
X315498362Y-184142967D03*
D15*
X310418362Y-184142967D03*
X320578362Y-184142967D03*
D16*
X337088362Y-179062967D03*
X330738362Y-181602967D03*
D13*
X334548362Y-184142967D03*
D15*
X329468362Y-184142967D03*
X339628362Y-184142967D03*
D16*
X356138362Y-179062967D03*
X349788362Y-181602967D03*
D13*
X353598362Y-184142967D03*
D15*
X348518362Y-184142967D03*
X358678362Y-184142967D03*
D16*
X327563362Y-102862967D03*
X321213362Y-105402967D03*
D13*
X325023362Y-107942967D03*
D15*
X319943362Y-107942967D03*
X330103362Y-107942967D03*
D13*
X336923362Y-116182967D03*
X313123362Y-116182967D03*
D14*
X313123362Y-100942967D03*
X336923362Y-100942967D03*
D16*
X75150862Y-121912967D03*
X68800862Y-124452967D03*
D13*
X72610862Y-126992967D03*
D15*
X67530862Y-126992967D03*
X77690862Y-126992967D03*
X334865362Y-126992967D03*
X324705362Y-126992967D03*
D13*
X329785362Y-126992967D03*
D16*
X325975362Y-124452967D03*
X332325362Y-121912967D03*
D15*
X80072162Y-146042967D03*
X69912162Y-146042967D03*
D13*
X74992162Y-146042967D03*
D16*
X71182162Y-143502967D03*
X77532162Y-140962967D03*
X325182362Y-140962967D03*
X318832362Y-143502967D03*
D13*
X322642362Y-146042967D03*
D15*
X317562362Y-146042967D03*
X327722362Y-146042967D03*
D13*
X334542362Y-154282967D03*
X310742362Y-154282967D03*
D14*
X310742362Y-139042967D03*
X334542362Y-139042967D03*
X91654562Y-158092967D03*
X67854562Y-158092967D03*
D13*
X67854562Y-173332967D03*
X91654562Y-173332967D03*
D15*
X84834562Y-165092967D03*
X74674562Y-165092967D03*
D13*
X79754562Y-165092967D03*
D16*
X75944562Y-162552967D03*
X82294562Y-160012967D03*
X310894362Y-160012967D03*
X304544362Y-162552967D03*
D13*
X308354362Y-165092967D03*
D15*
X303274362Y-165092967D03*
X313434362Y-165092967D03*
D16*
X72769562Y-179062967D03*
X66419562Y-181602967D03*
D13*
X70229562Y-184142967D03*
D15*
X65149562Y-184142967D03*
X75309562Y-184142967D03*
X99122162Y-184142967D03*
X88962162Y-184142967D03*
D13*
X94042162Y-184142967D03*
D16*
X90232162Y-181602967D03*
X96582162Y-179062967D03*
X120394562Y-179062967D03*
X114044562Y-181602967D03*
D13*
X117854562Y-184142967D03*
D15*
X112774562Y-184142967D03*
X122934562Y-184142967D03*
X265809362Y-184142967D03*
X255649362Y-184142967D03*
D13*
X260729362Y-184142967D03*
D16*
X256919362Y-181602967D03*
X263269362Y-179062967D03*
X287082362Y-179062967D03*
X280732362Y-181602967D03*
D13*
X284542362Y-184142967D03*
D15*
X279462362Y-184142967D03*
X289622362Y-184142967D03*
M02*
