M48
; DRILL file {KiCad (5.1.5)-3} date 27/07/2020 19:11:12
; FORMAT={-:-/ absolute / metric / decimal}
; #@! TF.CreationDate,2020-07-27T19:11:12+07:00
; #@! TF.GenerationSoftware,Kicad,Pcbnew,(5.1.5)-3
; #@! TF.FileFunction,Plated,1,2,PTH
FMAT,2
METRIC
T1C0.400
T2C0.600
T3C0.813
T4C1.000
T5C1.092
T6C1.200
T7C1.470
T8C2.200
T9C4.800
%
G90
G05
T1
X17.631Y-50.647
X20.15Y-51.749
X21.523Y-32.533
X29.164Y-26.573
X31.539Y-54.851
X35.071Y-25.134
X35.413Y-35.204
X38.234Y-57.97
X39.072Y-40.432
X39.451Y-35.204
X39.473Y-41.84
X40.001Y-51.273
X40.685Y-49.054
X42.667Y-60.715
X42.829Y-43.265
X46.876Y-64.102
X47.196Y-39.534
X47.648Y-63.305
X49.337Y-66.68
X50.481Y-38.744
X51.501Y-30.207
X52.214Y-50.897
X53.211Y-70.318
X68.014Y-44.627
X69.562Y-43.937
X71.218Y-26.448
X73.571Y-44.589
X77.208Y-37.761
X77.55Y-75.375
X81.431Y-34.484
X81.59Y-30.834
X85.96Y-73.875
X86.294Y-62.168
X86.855Y-73.2
X89.413Y-38.186
X89.799Y-40.596
X90.458Y-42.527
X90.668Y-24.977
X93.336Y-62.78
X93.923Y-42.527
X96.037Y-73.472
X103.164Y-84.355
X108.232Y-64.212
X108.726Y-82.249
X111.684Y-44.757
X112.454Y-27.7
X114.365Y-80.735
X115.436Y-42.147
X118.787Y-38.8
X118.787Y-78.722
X120.932Y-38.038
X122.022Y-81.3
X123.075Y-41.591
X124.379Y-39.475
X124.998Y-38.886
X140.521Y-55.394
X153.761Y-37.059
X164.81Y-52.696
X171.391Y-75.658
X171.903Y-32.964
X172.986Y-35.82
X175.598Y-40.14
X175.76Y-64.083
X179.97Y-38.814
X181.477Y-60.514
X184.069Y-28.184
X185.013Y-76.41
X186.661Y-35.377
X187.137Y-44.987
X190.656Y-26.212
X192.63Y-62.405
X194.326Y-83.52
X196.202Y-64.017
X198.976Y-37.881
X200.853Y-76.41
X209.391Y-64.431
X209.485Y-44.86
X210.701Y-24.075
X214.589Y-37.517
X215.498Y-62.105
X217.334Y-34.487
X221.106Y-36.378
X221.549Y-37.729
X221.999Y-58.085
X224.356Y-69.541
X224.581Y-37.611
X228.742Y-44.987
X230.228Y-26.223
X234.124Y-37.079
X234.202Y-63.293
X239.002Y-59.349
X240.729Y-45.684
X245.945Y-55.337
X247.602Y-30.957
X247.602Y-48.847
X250.278Y-40.721
X251.759Y-42.287
X252.547Y-63.752
X252.595Y-44.349
X255.602Y-61.928
X255.971Y-41.309
X255.98Y-42.734
X257.831Y-40.451
X258.255Y-64.007
X265.978Y-33.599
X270.275Y-48.763
X281.021Y-50.231
T3
X138.861Y-66.167
X138.861Y-71.247
X136.271Y-66.167
X136.271Y-71.247
X159.893Y-73.736
X162.332Y-73.762
X136.321Y-73.762
X138.76Y-73.736
X159.792Y-66.167
X159.792Y-71.247
X162.382Y-66.167
X162.382Y-71.247
T4
X135.351Y-60.528
X137.891Y-60.528
X140.431Y-60.528
X142.971Y-60.528
X155.682Y-60.528
X158.222Y-60.528
X160.762Y-60.528
X163.302Y-60.528
X267.602Y-31.115
X267.602Y-36.115
X282.102Y-31.115
X282.102Y-33.615
X282.102Y-36.115
X16.551Y-31.115
X16.551Y-33.615
X16.551Y-36.115
X31.051Y-31.115
X31.051Y-36.115
T5
X131.541Y-28.067
X131.541Y-30.607
X131.541Y-33.147
X131.541Y-35.687
X131.541Y-38.227
X131.541Y-40.767
X131.541Y-43.307
X131.541Y-45.847
X131.541Y-48.387
X131.541Y-50.927
X131.541Y-53.467
X131.541Y-56.007
X146.781Y-28.067
X146.781Y-30.607
X146.781Y-33.147
X146.781Y-35.687
X146.781Y-38.227
X146.781Y-40.767
X146.781Y-43.307
X146.781Y-45.847
X146.781Y-48.387
X146.781Y-50.927
X146.781Y-53.467
X146.781Y-56.007
X151.872Y-28.169
X151.872Y-30.709
X151.872Y-33.249
X151.872Y-35.789
X151.872Y-38.329
X151.872Y-40.869
X151.872Y-43.409
X151.872Y-45.949
X151.872Y-48.489
X151.872Y-51.029
X151.872Y-53.569
X151.872Y-56.109
X167.112Y-28.169
X167.112Y-30.709
X167.112Y-33.249
X167.112Y-35.789
X167.112Y-38.329
X167.112Y-40.869
X167.112Y-43.409
X167.112Y-45.949
X167.112Y-48.489
X167.112Y-51.029
X167.112Y-53.569
X167.112Y-56.109
T6
X183.256Y-94.204
X188.629Y-94.939
X203.102Y-90.29
X208.102Y-92.39
X174.602Y-73.04
X179.602Y-75.14
X193.602Y-70.665
X198.602Y-72.765
X212.602Y-68.29
X217.602Y-70.39
X231.602Y-70.665
X236.602Y-72.765
X250.602Y-75.415
X255.602Y-77.515
X269.602Y-75.415
X274.602Y-77.515
X174.602Y-54.04
X179.602Y-56.14
X193.602Y-51.665
X198.602Y-53.765
X212.602Y-49.29
X217.602Y-51.39
X231.602Y-51.665
X236.602Y-53.765
X250.602Y-56.415
X255.602Y-58.515
X95.051Y-32.665
X100.051Y-34.765
X76.051Y-30.29
X81.051Y-32.39
X57.051Y-32.665
X62.051Y-34.765
X38.051Y-37.415
X43.051Y-39.515
X19.051Y-37.415
X24.051Y-39.515
X158.299Y-90.56
X158.98Y-95.94
X134.592Y-99.22
X138.911Y-95.94
X269.602Y-56.415
X274.602Y-58.515
X174.602Y-35.04
X179.602Y-37.14
X193.602Y-32.665
X198.602Y-34.765
X212.602Y-30.29
X217.602Y-32.39
X231.602Y-32.665
X236.602Y-34.765
X250.602Y-37.415
X255.602Y-39.515
X269.602Y-37.415
X274.602Y-39.515
X105.738Y-91.616
X110.024Y-94.939
X85.551Y-90.29
X90.551Y-92.39
X114.051Y-73.04
X119.051Y-75.14
X95.051Y-70.665
X100.051Y-72.765
X76.051Y-68.29
X81.051Y-70.39
X57.051Y-70.665
X62.051Y-72.765
X38.051Y-75.415
X43.051Y-77.515
X19.051Y-75.415
X24.051Y-77.515
X114.051Y-54.04
X119.051Y-56.14
X95.051Y-51.665
X100.051Y-53.765
X76.051Y-49.29
X81.051Y-51.39
X57.051Y-51.665
X62.051Y-53.765
X38.051Y-56.415
X43.051Y-58.515
X19.051Y-56.415
X24.051Y-58.515
X114.051Y-35.04
X119.051Y-37.14
T7
X185.852Y-94.234
X185.963Y-94.804
X190.552Y-92.456
X191.44Y-90.707
X205.562Y-91.57
X205.602Y-90.99
X210.602Y-90.49
X211.912Y-89.03
X177.062Y-74.32
X177.102Y-73.74
X182.102Y-73.24
X183.412Y-71.78
X196.062Y-71.945
X196.102Y-71.365
X201.102Y-70.865
X202.412Y-69.405
X215.062Y-69.57
X215.102Y-68.99
X220.102Y-68.49
X221.412Y-67.03
X234.062Y-71.945
X234.102Y-71.365
X239.102Y-70.865
X240.412Y-69.405
X253.062Y-76.695
X253.102Y-76.115
X258.102Y-75.615
X259.412Y-74.155
X272.062Y-76.695
X272.102Y-76.115
X277.102Y-75.615
X278.412Y-74.155
X177.062Y-55.32
X177.102Y-54.74
X182.102Y-54.24
X183.412Y-52.78
X196.062Y-52.945
X196.102Y-52.365
X201.102Y-51.865
X202.412Y-50.405
X215.062Y-50.57
X215.102Y-49.99
X220.102Y-49.49
X221.412Y-48.03
X234.062Y-52.945
X234.102Y-52.365
X239.102Y-51.865
X240.412Y-50.405
X253.062Y-57.695
X253.102Y-57.115
X258.102Y-56.615
X259.412Y-55.155
X97.511Y-33.945
X97.551Y-33.365
X102.551Y-32.865
X103.861Y-31.405
X78.511Y-31.57
X78.551Y-30.99
X83.551Y-30.49
X84.861Y-29.03
X59.511Y-33.945
X59.551Y-33.365
X64.551Y-32.865
X65.861Y-31.405
X40.511Y-38.695
X40.551Y-38.115
X45.551Y-37.615
X46.861Y-36.155
X21.511Y-38.695
X21.551Y-38.115
X26.551Y-37.615
X27.861Y-36.155
X158.421Y-93.33
X158.943Y-93.075
X161.876Y-97.155
X163.795Y-97.559
X136.448Y-97.405
X136.93Y-97.73
X137.906Y-90.96
X138.515Y-92.825
X272.062Y-57.695
X272.102Y-57.115
X277.102Y-56.615
X278.412Y-55.155
X177.062Y-36.32
X177.102Y-35.74
X182.102Y-35.24
X183.412Y-33.78
X196.062Y-33.945
X196.102Y-33.365
X201.102Y-32.865
X202.412Y-31.405
X215.062Y-31.57
X215.102Y-30.99
X220.102Y-30.49
X221.412Y-29.03
X234.062Y-33.945
X234.102Y-33.365
X239.102Y-32.865
X240.412Y-31.405
X253.062Y-38.695
X253.102Y-38.115
X258.102Y-37.615
X259.412Y-36.155
X272.062Y-38.695
X272.102Y-38.115
X277.102Y-37.615
X278.412Y-36.155
X107.783Y-93.489
X107.971Y-92.939
X112.931Y-93.751
X114.574Y-92.679
X88.011Y-91.57
X88.051Y-90.99
X93.051Y-90.49
X94.361Y-89.03
X116.511Y-74.32
X116.551Y-73.74
X121.551Y-73.24
X122.861Y-71.78
X97.511Y-71.945
X97.551Y-71.365
X102.551Y-70.865
X103.861Y-69.405
X78.511Y-69.57
X78.551Y-68.99
X83.551Y-68.49
X84.861Y-67.03
X59.511Y-71.945
X59.551Y-71.365
X64.551Y-70.865
X65.861Y-69.405
X40.511Y-76.695
X40.551Y-76.115
X45.551Y-75.615
X46.861Y-74.155
X21.511Y-76.695
X21.551Y-76.115
X26.551Y-75.615
X27.861Y-74.155
X116.511Y-55.32
X116.551Y-54.74
X121.551Y-54.24
X122.861Y-52.78
X97.511Y-52.945
X97.551Y-52.365
X102.551Y-51.865
X103.861Y-50.405
X78.511Y-50.57
X78.551Y-49.99
X83.551Y-49.49
X84.861Y-48.03
X59.511Y-52.945
X59.551Y-52.365
X64.551Y-51.865
X65.861Y-50.405
X40.511Y-57.695
X40.551Y-57.115
X45.551Y-56.615
X46.861Y-55.155
X21.511Y-57.695
X21.551Y-57.115
X26.551Y-56.615
X27.861Y-55.155
X116.511Y-36.32
X116.551Y-35.74
X121.551Y-35.24
X122.861Y-33.78
T8
X166.852Y-72.24
X152.352Y-80.74
X131.801Y-72.24
X146.301Y-80.74
T9
X189.102Y-39.49
X221.852Y-79.24
X175.352Y-86.99
X246.102Y-43.24
X265.102Y-61.99
X246.102Y-62.24
X264.922Y-43.18
X109.551Y-39.49
X123.301Y-86.99
X52.551Y-43.24
X76.801Y-79.24
X52.551Y-62.24
X33.551Y-61.99
X33.551Y-43.24
T2
G00X150.852Y-66.292
M15
G01X151.652Y-66.292
M16
G05
G00X150.852Y-74.932
M15
G01X151.652Y-74.932
M16
G05
G00X154.872Y-66.292
M15
G01X155.972Y-66.292
M16
G05
G00X154.872Y-74.932
M15
G01X155.972Y-74.932
M16
G05
G00X143.019Y-66.292
M15
G01X141.919Y-66.292
M16
G05
G00X143.019Y-74.932
M15
G01X141.919Y-74.932
M16
G05
G00X147.039Y-66.292
M15
G01X146.239Y-66.292
M16
G05
G00X147.039Y-74.932
M15
G01X146.239Y-74.932
M16
G05
T0
M30
