M48
; DRILL file {KiCad (5.1.5)-3} date 27/07/2020 19:11:12
; FORMAT={-:-/ absolute / metric / decimal}
; #@! TF.CreationDate,2020-07-27T19:11:12+07:00
; #@! TF.GenerationSoftware,Kicad,Pcbnew,(5.1.5)-3
; #@! TF.FileFunction,NonPlated,1,2,NPTH
FMAT,2
METRIC
T1C0.600
T2C1.000
T3C1.050
T4C1.200
T5C1.700
T6C1.750
T7C3.988
%
G90
G05
T1
X154.942Y-67.722
X154.942Y-73.502
X142.949Y-67.722
X142.949Y-73.502
T4
X191.057Y-83.832
X213.322Y-82.29
X184.822Y-65.04
X203.822Y-62.665
X222.822Y-60.29
X241.822Y-62.665
X260.822Y-67.415
X279.822Y-67.415
X184.822Y-46.04
X203.822Y-43.665
X222.822Y-41.29
X241.822Y-43.665
X260.822Y-48.415
X105.271Y-24.665
X86.271Y-22.29
X67.271Y-24.665
X48.271Y-29.415
X29.271Y-29.415
X170.337Y-95.41
X132.774Y-86.369
X279.822Y-48.415
X184.822Y-27.04
X203.822Y-24.665
X222.822Y-22.29
X241.822Y-24.665
X260.822Y-29.415
X279.822Y-29.415
X117.68Y-86.534
X95.771Y-82.29
X124.271Y-65.04
X105.271Y-62.665
X86.271Y-60.29
X67.271Y-62.665
X48.271Y-67.415
X29.271Y-67.415
X124.271Y-46.04
X105.271Y-43.665
X86.271Y-41.29
X67.271Y-43.665
X48.271Y-48.415
X29.271Y-48.415
X124.271Y-27.04
T5
X181.789Y-90.663
X192.415Y-87.816
X202.602Y-86.49
X213.602Y-86.49
X174.102Y-69.24
X185.102Y-69.24
X193.102Y-66.865
X204.102Y-66.865
X212.102Y-64.49
X223.102Y-64.49
X231.102Y-66.865
X242.102Y-66.865
X250.102Y-71.615
X261.102Y-71.615
X269.102Y-71.615
X280.102Y-71.615
X174.102Y-50.24
X185.102Y-50.24
X193.102Y-47.865
X204.102Y-47.865
X212.102Y-45.49
X223.102Y-45.49
X231.102Y-47.865
X242.102Y-47.865
X250.102Y-52.615
X261.102Y-52.615
X94.551Y-28.865
X105.551Y-28.865
X75.551Y-26.49
X86.551Y-26.49
X56.551Y-28.865
X67.551Y-28.865
X37.551Y-33.615
X48.551Y-33.615
X18.551Y-33.615
X29.551Y-33.615
X161.34Y-88.227
X166.84Y-97.753
X131.051Y-97.753
X136.551Y-88.227
X269.102Y-52.615
X280.102Y-52.615
X174.102Y-31.24
X185.102Y-31.24
X193.102Y-28.865
X204.102Y-28.865
X212.102Y-26.49
X223.102Y-26.49
X231.102Y-28.865
X242.102Y-28.865
X250.102Y-33.615
X261.102Y-33.615
X269.102Y-33.615
X280.102Y-33.615
X106.238Y-87.816
X116.864Y-90.663
X85.051Y-86.49
X96.051Y-86.49
X113.551Y-69.24
X124.551Y-69.24
X94.551Y-66.865
X105.551Y-66.865
X75.551Y-64.49
X86.551Y-64.49
X56.551Y-66.865
X67.551Y-66.865
X37.551Y-71.615
X48.551Y-71.615
X18.551Y-71.615
X29.551Y-71.615
X113.551Y-50.24
X124.551Y-50.24
X94.551Y-47.865
X105.551Y-47.865
X75.551Y-45.49
X86.551Y-45.49
X56.551Y-47.865
X67.551Y-47.865
X37.551Y-52.615
X48.551Y-52.615
X18.551Y-52.615
X29.551Y-52.615
X113.551Y-31.24
X124.551Y-31.24
T6
X182.195Y-90.555
X192.009Y-87.925
X203.022Y-86.49
X213.182Y-86.49
X174.522Y-69.24
X184.682Y-69.24
X193.522Y-66.865
X203.682Y-66.865
X212.522Y-64.49
X222.682Y-64.49
X231.522Y-66.865
X241.682Y-66.865
X250.522Y-71.615
X260.682Y-71.615
X269.522Y-71.615
X279.682Y-71.615
X174.522Y-50.24
X184.682Y-50.24
X193.522Y-47.865
X203.682Y-47.865
X212.522Y-45.49
X222.682Y-45.49
X231.522Y-47.865
X241.682Y-47.865
X250.522Y-52.615
X260.682Y-52.615
X94.971Y-28.865
X105.131Y-28.865
X75.971Y-26.49
X86.131Y-26.49
X56.971Y-28.865
X67.131Y-28.865
X37.971Y-33.615
X48.131Y-33.615
X18.971Y-33.615
X29.131Y-33.615
X161.55Y-88.59
X166.63Y-97.389
X131.261Y-97.389
X136.341Y-88.59
X269.522Y-52.615
X279.682Y-52.615
X174.522Y-31.24
X184.682Y-31.24
X193.522Y-28.865
X203.682Y-28.865
X212.522Y-26.49
X222.682Y-26.49
X231.522Y-28.865
X241.682Y-28.865
X250.522Y-33.615
X260.682Y-33.615
X269.522Y-33.615
X279.682Y-33.615
X106.644Y-87.925
X116.458Y-90.555
X85.471Y-86.49
X95.631Y-86.49
X113.971Y-69.24
X124.131Y-69.24
X94.971Y-66.865
X105.131Y-66.865
X75.971Y-64.49
X86.131Y-64.49
X56.971Y-66.865
X67.131Y-66.865
X37.971Y-71.615
X48.131Y-71.615
X18.971Y-71.615
X29.131Y-71.615
X113.971Y-50.24
X124.131Y-50.24
X94.971Y-47.865
X105.131Y-47.865
X75.971Y-45.49
X86.131Y-45.49
X56.971Y-47.865
X67.131Y-47.865
X37.971Y-52.615
X48.131Y-52.615
X18.971Y-52.615
X29.131Y-52.615
X113.971Y-31.24
X124.131Y-31.24
T7
X187.102Y-89.24
X208.102Y-86.49
X179.602Y-69.24
X198.602Y-66.865
X217.602Y-64.49
X236.602Y-66.865
X255.602Y-71.615
X274.602Y-71.615
X179.602Y-50.24
X198.602Y-47.865
X217.602Y-45.49
X236.602Y-47.865
X255.602Y-52.615
X100.051Y-28.865
X81.051Y-26.49
X62.051Y-28.865
X43.051Y-33.615
X24.051Y-33.615
X164.09Y-92.99
X133.801Y-92.99
X274.602Y-52.615
X179.602Y-31.24
X198.602Y-28.865
X217.602Y-26.49
X236.602Y-28.865
X255.602Y-33.615
X274.602Y-33.615
X111.551Y-89.24
X90.551Y-86.49
X119.051Y-69.24
X100.051Y-66.865
X81.051Y-64.49
X62.051Y-66.865
X43.051Y-71.615
X24.051Y-71.615
X119.051Y-50.24
X100.051Y-47.865
X81.051Y-45.49
X62.051Y-47.865
X43.051Y-52.615
X24.051Y-52.615
X119.051Y-31.24
X274.602Y-33.615
X24.051Y-33.615
T2
G00X265.102Y-27.118
M15
G01X265.102Y-32.268
M16
G05
G00X265.102Y-72.99
M15
G01X265.102Y-78.156
M16
G05
G00X265.102Y-53.99
M15
G01X265.102Y-69.99
M16
G05
G00X265.102Y-34.99
M15
G01X265.102Y-50.99
M16
G05
G00X33.551Y-27.118
M15
G01X33.551Y-32.268
M16
G05
G00X33.551Y-34.99
M15
G01X33.551Y-50.99
M16
G05
G00X33.551Y-53.99
M15
G01X33.551Y-69.99
M16
G05
G00X33.551Y-72.99
M15
G01X33.551Y-78.156
M16
G05
T3
G00X149.327Y-24.39
M15
G01X149.327Y-83.34
M16
G05
T0
M30
