G04 #@! TF.GenerationSoftware,KiCad,Pcbnew,(5.1.5)-3*
G04 #@! TF.CreationDate,2020-07-27T19:09:03+07:00*
G04 #@! TF.ProjectId,corne-classic,636f726e-652d-4636-9c61-737369632e6b,1.1*
G04 #@! TF.SameCoordinates,Original*
G04 #@! TF.FileFunction,Soldermask,Top*
G04 #@! TF.FilePolarity,Negative*
%FSLAX46Y46*%
G04 Gerber Fmt 4.6, Leading zero omitted, Abs format (unit mm)*
G04 Created by KiCad (PCBNEW (5.1.5)-3) date 2020-07-27 19:09:03*
%MOMM*%
%LPD*%
G04 APERTURE LIST*
%ADD10C,2.152600*%
%ADD11C,4.387800*%
%ADD12C,1.600000*%
%ADD13C,2.100000*%
%ADD14C,2.400000*%
%ADD15C,2.150000*%
%ADD16C,2.650000*%
%ADD17C,2.650000*%
%ADD18O,1.450000X60.400000*%
%ADD19O,2.100000X2.100000*%
%ADD20C,1.797000*%
%ADD21O,1.400000X6.550000*%
%ADD22O,1.400000X6.566000*%
%ADD23O,1.400000X17.400000*%
%ADD24R,2.400000X2.400000*%
%ADD25R,2.100000X1.300000*%
%ADD26C,5.400000*%
%ADD27R,1.560000X1.000000*%
%ADD28C,1.000000*%
%ADD29R,1.560000X0.700000*%
%ADD30O,2.100000X1.300000*%
%ADD31O,2.400000X1.300000*%
%ADD32C,4.200000*%
G04 APERTURE END LIST*
D10*
X146781000Y-28067000D03*
X131541000Y-48387000D03*
X131541000Y-33147000D03*
X131541000Y-35687000D03*
X131541000Y-38227000D03*
X146781000Y-56007000D03*
X131541000Y-30607000D03*
X131541000Y-28067000D03*
X131541000Y-50927000D03*
X131541000Y-53467000D03*
X131541000Y-56007000D03*
X146781000Y-53467000D03*
X146781000Y-50927000D03*
X146781000Y-48387000D03*
X146781000Y-45847000D03*
X146781000Y-43307000D03*
X146781000Y-40767000D03*
X146781000Y-38227000D03*
X146781000Y-33147000D03*
X146781000Y-35687000D03*
X146781000Y-30607000D03*
X131541000Y-45847000D03*
X131541000Y-43307000D03*
X131541000Y-40767000D03*
X167112000Y-28168600D03*
X151872000Y-48488600D03*
X151872000Y-33248600D03*
X151872000Y-35788600D03*
X151872000Y-38328600D03*
X167112000Y-56108600D03*
X151872000Y-30708600D03*
X151872000Y-28168600D03*
X151872000Y-51028600D03*
X151872000Y-53568600D03*
X151872000Y-56108600D03*
X167112000Y-53568600D03*
X167112000Y-51028600D03*
X167112000Y-48488600D03*
X167112000Y-45948600D03*
X167112000Y-43408600D03*
X167112000Y-40868600D03*
X167112000Y-38328600D03*
X167112000Y-33248600D03*
X167112000Y-35788600D03*
X167112000Y-30708600D03*
X151872000Y-45948600D03*
X151872000Y-43408600D03*
X151872000Y-40868600D03*
D11*
X187102000Y-89239800D03*
D12*
X191057093Y-83831876D03*
D13*
X181789408Y-90663305D03*
X192414592Y-87816295D03*
D14*
X183255883Y-94204413D03*
D15*
X182195097Y-90554601D03*
X192008903Y-87924999D03*
D16*
X190552091Y-92456456D03*
D17*
X191439578Y-90707151D02*
X190552102Y-92456461D01*
D14*
X188629032Y-94938762D03*
D16*
X185963349Y-94804104D03*
D17*
X185851871Y-94233514D02*
X185963799Y-94804016D01*
D11*
X208102000Y-86489800D03*
D12*
X213322000Y-82289800D03*
D13*
X202602000Y-86489800D03*
X213602000Y-86489800D03*
D14*
X203102000Y-90289800D03*
D15*
X203022000Y-86489800D03*
X213182000Y-86489800D03*
D16*
X210602000Y-90489800D03*
D17*
X211912000Y-89029800D02*
X210602010Y-90489808D01*
D14*
X208102000Y-92389800D03*
D16*
X205562000Y-91569800D03*
D17*
X205602000Y-90989800D02*
X205562458Y-91569832D01*
D11*
X179602000Y-69239800D03*
D12*
X184822000Y-65039800D03*
D13*
X174102000Y-69239800D03*
X185102000Y-69239800D03*
D14*
X174602000Y-73039800D03*
D15*
X174522000Y-69239800D03*
X184682000Y-69239800D03*
D16*
X182102000Y-73239800D03*
D17*
X183412000Y-71779800D02*
X182102010Y-73239808D01*
D14*
X179602000Y-75139800D03*
D16*
X177062000Y-74319800D03*
D17*
X177102000Y-73739800D02*
X177062458Y-74319832D01*
D11*
X198602000Y-66864800D03*
D12*
X203822000Y-62664800D03*
D13*
X193102000Y-66864800D03*
X204102000Y-66864800D03*
D14*
X193602000Y-70664800D03*
D15*
X193522000Y-66864800D03*
X203682000Y-66864800D03*
D16*
X201102000Y-70864800D03*
D17*
X202412000Y-69404800D02*
X201102010Y-70864808D01*
D14*
X198602000Y-72764800D03*
D16*
X196062000Y-71944800D03*
D17*
X196102000Y-71364800D02*
X196062458Y-71944832D01*
D11*
X217602000Y-64489800D03*
D12*
X222822000Y-60289800D03*
D13*
X212102000Y-64489800D03*
X223102000Y-64489800D03*
D14*
X212602000Y-68289800D03*
D15*
X212522000Y-64489800D03*
X222682000Y-64489800D03*
D16*
X220102000Y-68489800D03*
D17*
X221412000Y-67029800D02*
X220102010Y-68489808D01*
D14*
X217602000Y-70389800D03*
D16*
X215062000Y-69569800D03*
D17*
X215102000Y-68989800D02*
X215062458Y-69569832D01*
D11*
X236602000Y-66864800D03*
D12*
X241822000Y-62664800D03*
D13*
X231102000Y-66864800D03*
X242102000Y-66864800D03*
D14*
X231602000Y-70664800D03*
D15*
X231522000Y-66864800D03*
X241682000Y-66864800D03*
D16*
X239102000Y-70864800D03*
D17*
X240412000Y-69404800D02*
X239102010Y-70864808D01*
D14*
X236602000Y-72764800D03*
D16*
X234062000Y-71944800D03*
D17*
X234102000Y-71364800D02*
X234062458Y-71944832D01*
D11*
X255602000Y-71614800D03*
D12*
X260822000Y-67414800D03*
D13*
X250102000Y-71614800D03*
X261102000Y-71614800D03*
D14*
X250602000Y-75414800D03*
D15*
X250522000Y-71614800D03*
X260682000Y-71614800D03*
D16*
X258102000Y-75614800D03*
D17*
X259412000Y-74154800D02*
X258102010Y-75614808D01*
D14*
X255602000Y-77514800D03*
D16*
X253062000Y-76694800D03*
D17*
X253102000Y-76114800D02*
X253062458Y-76694832D01*
D11*
X274602000Y-71614800D03*
D12*
X279822000Y-67414800D03*
D13*
X269102000Y-71614800D03*
X280102000Y-71614800D03*
D14*
X269602000Y-75414800D03*
D15*
X269522000Y-71614800D03*
X279682000Y-71614800D03*
D16*
X277102000Y-75614800D03*
D17*
X278412000Y-74154800D02*
X277102010Y-75614808D01*
D14*
X274602000Y-77514800D03*
D16*
X272062000Y-76694800D03*
D17*
X272102000Y-76114800D02*
X272062458Y-76694832D01*
D11*
X179602000Y-50239800D03*
D12*
X184822000Y-46039800D03*
D13*
X174102000Y-50239800D03*
X185102000Y-50239800D03*
D14*
X174602000Y-54039800D03*
D15*
X174522000Y-50239800D03*
X184682000Y-50239800D03*
D16*
X182102000Y-54239800D03*
D17*
X183412000Y-52779800D02*
X182102010Y-54239808D01*
D14*
X179602000Y-56139800D03*
D16*
X177062000Y-55319800D03*
D17*
X177102000Y-54739800D02*
X177062458Y-55319832D01*
D11*
X198602000Y-47864800D03*
D12*
X203822000Y-43664800D03*
D13*
X193102000Y-47864800D03*
X204102000Y-47864800D03*
D14*
X193602000Y-51664800D03*
D15*
X193522000Y-47864800D03*
X203682000Y-47864800D03*
D16*
X201102000Y-51864800D03*
D17*
X202412000Y-50404800D02*
X201102010Y-51864808D01*
D14*
X198602000Y-53764800D03*
D16*
X196062000Y-52944800D03*
D17*
X196102000Y-52364800D02*
X196062458Y-52944832D01*
D11*
X217602000Y-45489800D03*
D12*
X222822000Y-41289800D03*
D13*
X212102000Y-45489800D03*
X223102000Y-45489800D03*
D14*
X212602000Y-49289800D03*
D15*
X212522000Y-45489800D03*
X222682000Y-45489800D03*
D16*
X220102000Y-49489800D03*
D17*
X221412000Y-48029800D02*
X220102010Y-49489808D01*
D14*
X217602000Y-51389800D03*
D16*
X215062000Y-50569800D03*
D17*
X215102000Y-49989800D02*
X215062458Y-50569832D01*
D11*
X236602000Y-47864800D03*
D12*
X241822000Y-43664800D03*
D13*
X231102000Y-47864800D03*
X242102000Y-47864800D03*
D14*
X231602000Y-51664800D03*
D15*
X231522000Y-47864800D03*
X241682000Y-47864800D03*
D16*
X239102000Y-51864800D03*
D17*
X240412000Y-50404800D02*
X239102010Y-51864808D01*
D14*
X236602000Y-53764800D03*
D16*
X234062000Y-52944800D03*
D17*
X234102000Y-52364800D02*
X234062458Y-52944832D01*
D11*
X255602000Y-52614800D03*
D12*
X260822000Y-48414800D03*
D13*
X250102000Y-52614800D03*
X261102000Y-52614800D03*
D14*
X250602000Y-56414800D03*
D15*
X250522000Y-52614800D03*
X260682000Y-52614800D03*
D16*
X258102000Y-56614800D03*
D17*
X259412000Y-55154800D02*
X258102010Y-56614808D01*
D14*
X255602000Y-58514800D03*
D16*
X253062000Y-57694800D03*
D17*
X253102000Y-57114800D02*
X253062458Y-57694832D01*
D11*
X274602000Y-52614800D03*
D12*
X279822000Y-48414800D03*
D13*
X269102000Y-52614800D03*
X280102000Y-52614800D03*
D14*
X269602000Y-56414800D03*
D15*
X269522000Y-52614800D03*
X279682000Y-52614800D03*
D16*
X277102000Y-56614800D03*
D17*
X278412000Y-55154800D02*
X277102010Y-56614808D01*
D14*
X274602000Y-58514800D03*
D16*
X272062000Y-57694800D03*
D17*
X272102000Y-57114800D02*
X272062458Y-57694832D01*
D11*
X179602000Y-31239800D03*
D12*
X184822000Y-27039800D03*
D13*
X174102000Y-31239800D03*
X185102000Y-31239800D03*
D14*
X174602000Y-35039800D03*
D15*
X174522000Y-31239800D03*
X184682000Y-31239800D03*
D16*
X182102000Y-35239800D03*
D17*
X183412000Y-33779800D02*
X182102010Y-35239808D01*
D14*
X179602000Y-37139800D03*
D16*
X177062000Y-36319800D03*
D17*
X177102000Y-35739800D02*
X177062458Y-36319832D01*
D11*
X198602000Y-28864800D03*
D12*
X203822000Y-24664800D03*
D13*
X193102000Y-28864800D03*
X204102000Y-28864800D03*
D14*
X193602000Y-32664800D03*
D15*
X193522000Y-28864800D03*
X203682000Y-28864800D03*
D16*
X201102000Y-32864800D03*
D17*
X202412000Y-31404800D02*
X201102010Y-32864808D01*
D14*
X198602000Y-34764800D03*
D16*
X196062000Y-33944800D03*
D17*
X196102000Y-33364800D02*
X196062458Y-33944832D01*
D11*
X217602000Y-26489800D03*
D12*
X222822000Y-22289800D03*
D13*
X212102000Y-26489800D03*
X223102000Y-26489800D03*
D14*
X212602000Y-30289800D03*
D15*
X212522000Y-26489800D03*
X222682000Y-26489800D03*
D16*
X220102000Y-30489800D03*
D17*
X221412000Y-29029800D02*
X220102010Y-30489808D01*
D14*
X217602000Y-32389800D03*
D16*
X215062000Y-31569800D03*
D17*
X215102000Y-30989800D02*
X215062458Y-31569832D01*
D11*
X236602000Y-28864800D03*
D12*
X241822000Y-24664800D03*
D13*
X231102000Y-28864800D03*
X242102000Y-28864800D03*
D14*
X231602000Y-32664800D03*
D15*
X231522000Y-28864800D03*
X241682000Y-28864800D03*
D16*
X239102000Y-32864800D03*
D17*
X240412000Y-31404800D02*
X239102010Y-32864808D01*
D14*
X236602000Y-34764800D03*
D16*
X234062000Y-33944800D03*
D17*
X234102000Y-33364800D02*
X234062458Y-33944832D01*
D11*
X255602000Y-33614800D03*
D12*
X260822000Y-29414800D03*
D13*
X250102000Y-33614800D03*
X261102000Y-33614800D03*
D14*
X250602000Y-37414800D03*
D15*
X250522000Y-33614800D03*
X260682000Y-33614800D03*
D16*
X258102000Y-37614800D03*
D17*
X259412000Y-36154800D02*
X258102010Y-37614808D01*
D14*
X255602000Y-39514800D03*
D16*
X253062000Y-38694800D03*
D17*
X253102000Y-38114800D02*
X253062458Y-38694832D01*
D11*
X274602000Y-33614800D03*
D12*
X279822000Y-29414800D03*
D13*
X269102000Y-33614800D03*
X280102000Y-33614800D03*
D14*
X269602000Y-37414800D03*
D15*
X269522000Y-33614800D03*
X279682000Y-33614800D03*
D16*
X277102000Y-37614800D03*
D17*
X278412000Y-36154800D02*
X277102010Y-37614808D01*
D14*
X274602000Y-39514800D03*
D16*
X272062000Y-38694800D03*
D17*
X272102000Y-38114800D02*
X272062458Y-38694832D01*
D11*
X111551000Y-89239800D03*
D12*
X117680173Y-86533947D03*
D13*
X106238408Y-87816295D03*
X116863592Y-90663305D03*
D14*
X105737858Y-91616223D03*
D15*
X106644097Y-87924999D03*
X116457903Y-90554601D03*
D16*
X112930538Y-93750551D03*
D17*
X114573777Y-92679352D02*
X112930545Y-93750562D01*
D14*
X110023968Y-94938762D03*
D16*
X107782748Y-93489303D03*
D17*
X107971500Y-92939419D02*
X107783182Y-93489453D01*
D11*
X90551400Y-86489800D03*
D12*
X95771400Y-82289800D03*
D13*
X85051400Y-86489800D03*
X96051400Y-86489800D03*
D14*
X85551400Y-90289800D03*
D15*
X85471400Y-86489800D03*
X95631400Y-86489800D03*
D16*
X93051400Y-90489800D03*
D17*
X94361400Y-89029800D02*
X93051410Y-90489808D01*
D14*
X90551400Y-92389800D03*
D16*
X88011400Y-91569800D03*
D17*
X88051400Y-90989800D02*
X88011858Y-91569832D01*
D11*
X119051000Y-69239800D03*
D12*
X124271000Y-65039800D03*
D13*
X113551000Y-69239800D03*
X124551000Y-69239800D03*
D14*
X114051000Y-73039800D03*
D15*
X113971000Y-69239800D03*
X124131000Y-69239800D03*
D16*
X121551000Y-73239800D03*
D17*
X122861000Y-71779800D02*
X121551010Y-73239808D01*
D14*
X119051000Y-75139800D03*
D16*
X116511000Y-74319800D03*
D17*
X116551000Y-73739800D02*
X116511458Y-74319832D01*
D11*
X100051000Y-66864800D03*
D12*
X105271000Y-62664800D03*
D13*
X94551000Y-66864800D03*
X105551000Y-66864800D03*
D14*
X95051000Y-70664800D03*
D15*
X94971000Y-66864800D03*
X105131000Y-66864800D03*
D16*
X102551000Y-70864800D03*
D17*
X103861000Y-69404800D02*
X102551010Y-70864808D01*
D14*
X100051000Y-72764800D03*
D16*
X97511000Y-71944800D03*
D17*
X97551000Y-71364800D02*
X97511458Y-71944832D01*
D11*
X81051400Y-64489800D03*
D12*
X86271400Y-60289800D03*
D13*
X75551400Y-64489800D03*
X86551400Y-64489800D03*
D14*
X76051400Y-68289800D03*
D15*
X75971400Y-64489800D03*
X86131400Y-64489800D03*
D16*
X83551400Y-68489800D03*
D17*
X84861400Y-67029800D02*
X83551410Y-68489808D01*
D14*
X81051400Y-70389800D03*
D16*
X78511400Y-69569800D03*
D17*
X78551400Y-68989800D02*
X78511858Y-69569832D01*
D11*
X62051400Y-66864800D03*
D12*
X67271400Y-62664800D03*
D13*
X56551400Y-66864800D03*
X67551400Y-66864800D03*
D14*
X57051400Y-70664800D03*
D15*
X56971400Y-66864800D03*
X67131400Y-66864800D03*
D16*
X64551400Y-70864800D03*
D17*
X65861400Y-69404800D02*
X64551410Y-70864808D01*
D14*
X62051400Y-72764800D03*
D16*
X59511400Y-71944800D03*
D17*
X59551400Y-71364800D02*
X59511858Y-71944832D01*
D11*
X43051400Y-71614800D03*
D12*
X48271400Y-67414800D03*
D13*
X37551400Y-71614800D03*
X48551400Y-71614800D03*
D14*
X38051400Y-75414800D03*
D15*
X37971400Y-71614800D03*
X48131400Y-71614800D03*
D16*
X45551400Y-75614800D03*
D17*
X46861400Y-74154800D02*
X45551410Y-75614808D01*
D14*
X43051400Y-77514800D03*
D16*
X40511400Y-76694800D03*
D17*
X40551400Y-76114800D02*
X40511858Y-76694832D01*
D11*
X24051400Y-71614800D03*
D12*
X29271400Y-67414800D03*
D13*
X18551400Y-71614800D03*
X29551400Y-71614800D03*
D14*
X19051400Y-75414800D03*
D15*
X18971400Y-71614800D03*
X29131400Y-71614800D03*
D16*
X26551400Y-75614800D03*
D17*
X27861400Y-74154800D02*
X26551410Y-75614808D01*
D14*
X24051400Y-77514800D03*
D16*
X21511400Y-76694800D03*
D17*
X21551400Y-76114800D02*
X21511858Y-76694832D01*
D11*
X119051000Y-50239800D03*
D12*
X124271000Y-46039800D03*
D13*
X113551000Y-50239800D03*
X124551000Y-50239800D03*
D14*
X114051000Y-54039800D03*
D15*
X113971000Y-50239800D03*
X124131000Y-50239800D03*
D16*
X121551000Y-54239800D03*
D17*
X122861000Y-52779800D02*
X121551010Y-54239808D01*
D14*
X119051000Y-56139800D03*
D16*
X116511000Y-55319800D03*
D17*
X116551000Y-54739800D02*
X116511458Y-55319832D01*
D11*
X100051000Y-47864800D03*
D12*
X105271000Y-43664800D03*
D13*
X94551000Y-47864800D03*
X105551000Y-47864800D03*
D14*
X95051000Y-51664800D03*
D15*
X94971000Y-47864800D03*
X105131000Y-47864800D03*
D16*
X102551000Y-51864800D03*
D17*
X103861000Y-50404800D02*
X102551010Y-51864808D01*
D14*
X100051000Y-53764800D03*
D16*
X97511000Y-52944800D03*
D17*
X97551000Y-52364800D02*
X97511458Y-52944832D01*
D11*
X81051400Y-45489800D03*
D12*
X86271400Y-41289800D03*
D13*
X75551400Y-45489800D03*
X86551400Y-45489800D03*
D14*
X76051400Y-49289800D03*
D15*
X75971400Y-45489800D03*
X86131400Y-45489800D03*
D16*
X83551400Y-49489800D03*
D17*
X84861400Y-48029800D02*
X83551410Y-49489808D01*
D14*
X81051400Y-51389800D03*
D16*
X78511400Y-50569800D03*
D17*
X78551400Y-49989800D02*
X78511858Y-50569832D01*
D11*
X62051400Y-47864800D03*
D12*
X67271400Y-43664800D03*
D13*
X56551400Y-47864800D03*
X67551400Y-47864800D03*
D14*
X57051400Y-51664800D03*
D15*
X56971400Y-47864800D03*
X67131400Y-47864800D03*
D16*
X64551400Y-51864800D03*
D17*
X65861400Y-50404800D02*
X64551410Y-51864808D01*
D14*
X62051400Y-53764800D03*
D16*
X59511400Y-52944800D03*
D17*
X59551400Y-52364800D02*
X59511858Y-52944832D01*
D11*
X43051400Y-52614800D03*
D12*
X48271400Y-48414800D03*
D13*
X37551400Y-52614800D03*
X48551400Y-52614800D03*
D14*
X38051400Y-56414800D03*
D15*
X37971400Y-52614800D03*
X48131400Y-52614800D03*
D16*
X45551400Y-56614800D03*
D17*
X46861400Y-55154800D02*
X45551410Y-56614808D01*
D14*
X43051400Y-58514800D03*
D16*
X40511400Y-57694800D03*
D17*
X40551400Y-57114800D02*
X40511858Y-57694832D01*
D11*
X24051400Y-52614800D03*
D12*
X29271400Y-48414800D03*
D13*
X18551400Y-52614800D03*
X29551400Y-52614800D03*
D14*
X19051400Y-56414800D03*
D15*
X18971400Y-52614800D03*
X29131400Y-52614800D03*
D16*
X26551400Y-56614800D03*
D17*
X27861400Y-55154800D02*
X26551410Y-56614808D01*
D14*
X24051400Y-58514800D03*
D16*
X21511400Y-57694800D03*
D17*
X21551400Y-57114800D02*
X21511858Y-57694832D01*
D11*
X119051000Y-31239800D03*
D12*
X124271000Y-27039800D03*
D13*
X113551000Y-31239800D03*
X124551000Y-31239800D03*
D14*
X114051000Y-35039800D03*
D15*
X113971000Y-31239800D03*
X124131000Y-31239800D03*
D16*
X121551000Y-35239800D03*
D17*
X122861000Y-33779800D02*
X121551010Y-35239808D01*
D14*
X119051000Y-37139800D03*
D16*
X116511000Y-36319800D03*
D17*
X116551000Y-35739800D02*
X116511458Y-36319832D01*
D11*
X100051000Y-28864800D03*
D12*
X105271000Y-24664800D03*
D13*
X94551000Y-28864800D03*
X105551000Y-28864800D03*
D14*
X95051000Y-32664800D03*
D15*
X94971000Y-28864800D03*
X105131000Y-28864800D03*
D16*
X102551000Y-32864800D03*
D17*
X103861000Y-31404800D02*
X102551010Y-32864808D01*
D14*
X100051000Y-34764800D03*
D16*
X97511000Y-33944800D03*
D17*
X97551000Y-33364800D02*
X97511458Y-33944832D01*
D11*
X81051400Y-26489800D03*
D12*
X86271400Y-22289800D03*
D13*
X75551400Y-26489800D03*
X86551400Y-26489800D03*
D14*
X76051400Y-30289800D03*
D15*
X75971400Y-26489800D03*
X86131400Y-26489800D03*
D16*
X83551400Y-30489800D03*
D17*
X84861400Y-29029800D02*
X83551410Y-30489808D01*
D14*
X81051400Y-32389800D03*
D16*
X78511400Y-31569800D03*
D17*
X78551400Y-30989800D02*
X78511858Y-31569832D01*
D11*
X62051400Y-28864800D03*
D12*
X67271400Y-24664800D03*
D13*
X56551400Y-28864800D03*
X67551400Y-28864800D03*
D14*
X57051400Y-32664800D03*
D15*
X56971400Y-28864800D03*
X67131400Y-28864800D03*
D16*
X64551400Y-32864800D03*
D17*
X65861400Y-31404800D02*
X64551410Y-32864808D01*
D14*
X62051400Y-34764800D03*
D16*
X59511400Y-33944800D03*
D17*
X59551400Y-33364800D02*
X59511858Y-33944832D01*
D11*
X43051400Y-33614800D03*
D12*
X48271400Y-29414800D03*
D13*
X37551400Y-33614800D03*
X48551400Y-33614800D03*
D14*
X38051400Y-37414800D03*
D15*
X37971400Y-33614800D03*
X48131400Y-33614800D03*
D16*
X45551400Y-37614800D03*
D17*
X46861400Y-36154800D02*
X45551410Y-37614808D01*
D14*
X43051400Y-39514800D03*
D16*
X40511400Y-38694800D03*
D17*
X40551400Y-38114800D02*
X40511858Y-38694832D01*
D11*
X24051400Y-33614800D03*
D12*
X29271400Y-29414800D03*
D13*
X18551400Y-33614800D03*
X29551400Y-33614800D03*
D14*
X19051400Y-37414800D03*
D15*
X18971400Y-33614800D03*
X29131400Y-33614800D03*
D16*
X26551400Y-37614800D03*
D17*
X27861400Y-36154800D02*
X26551410Y-37614808D01*
D14*
X24051400Y-39514800D03*
D16*
X21511400Y-38694800D03*
D17*
X21551400Y-38114800D02*
X21511858Y-38694832D01*
D18*
X149327000Y-53864800D03*
D15*
X161550000Y-88590391D03*
D12*
X170337307Y-95410453D03*
D13*
X161340000Y-88226660D03*
X166840000Y-97752940D03*
D14*
X158299103Y-90559673D03*
D15*
X166630000Y-97389209D03*
D16*
X161875898Y-97154864D03*
D17*
X158942886Y-93074736D02*
X158420792Y-93330506D01*
D11*
X164090000Y-92989800D03*
D17*
X163795295Y-97559357D02*
X161875895Y-97154875D01*
D14*
X158980450Y-95939800D03*
D16*
X158420591Y-93330095D03*
D15*
X131261000Y-97389209D03*
D12*
X132773693Y-86369147D03*
D13*
X131051000Y-97752940D03*
X136551000Y-88226660D03*
D14*
X134591897Y-99219927D03*
D15*
X136341000Y-88590391D03*
D16*
X138515102Y-92824736D03*
D17*
X136448114Y-97404864D02*
X136930664Y-97729124D01*
D11*
X133801000Y-92989800D03*
D17*
X137905705Y-90960243D02*
X138515115Y-92824733D01*
D14*
X138910550Y-95939800D03*
D16*
X136930409Y-97729505D03*
D19*
X135351000Y-60528200D03*
X140431000Y-60528200D03*
X137891000Y-60528200D03*
X142971000Y-60528200D03*
X155682000Y-60528200D03*
X160762000Y-60528200D03*
X158222000Y-60528200D03*
X163302000Y-60528200D03*
D20*
X138861000Y-71246800D03*
X138861000Y-66166800D03*
X136271000Y-71246800D03*
X136271000Y-66166800D03*
X159893000Y-73735800D03*
X162332000Y-73761800D03*
X136321000Y-73761800D03*
X138760000Y-73735800D03*
D21*
X265102000Y-29692600D03*
D22*
X265102000Y-75572800D03*
D23*
X265102000Y-61989800D03*
X265102000Y-42989800D03*
D20*
X159792000Y-71246800D03*
X159792000Y-66166800D03*
X162382000Y-71246800D03*
X162382000Y-66166800D03*
D11*
X274602000Y-33614800D03*
D14*
X267602000Y-31114800D03*
X282102000Y-31114800D03*
X267602000Y-36114800D03*
D24*
X282102000Y-36114800D03*
D14*
X282102000Y-33614800D03*
D25*
X146951000Y-63599800D03*
X146951000Y-60199800D03*
D26*
X189102000Y-39489800D03*
D25*
X151702000Y-63599800D03*
X151702000Y-60199800D03*
D27*
X156002000Y-73811800D03*
X156002000Y-73011800D03*
X156002000Y-73811800D03*
X156002000Y-73011800D03*
X156002000Y-67411800D03*
X156002000Y-67411800D03*
X156002000Y-68211800D03*
X156002000Y-68211800D03*
D28*
X154942000Y-67721800D03*
X154942000Y-73501800D03*
D29*
X156002000Y-72361800D03*
X156002000Y-71361800D03*
X156002000Y-71861800D03*
X156002000Y-69361800D03*
X156002000Y-68861800D03*
X156002000Y-70861800D03*
X156002000Y-70361800D03*
X156002000Y-69861800D03*
D30*
X151252000Y-74931800D03*
X151252000Y-66291800D03*
D31*
X155422000Y-74931800D03*
X155422000Y-66291800D03*
D26*
X221852000Y-79239800D03*
X175352000Y-86989800D03*
X246102000Y-43239800D03*
X265102000Y-61989800D03*
X246102000Y-62239800D03*
X264922000Y-43180000D03*
D32*
X166852000Y-72239800D03*
X152352000Y-80739800D03*
D11*
X24051400Y-33614800D03*
D14*
X31051400Y-36114800D03*
X16551400Y-36114800D03*
X31051400Y-31114800D03*
D24*
X16551400Y-31114800D03*
D14*
X16551400Y-33614800D03*
D21*
X33551400Y-29692600D03*
D23*
X33551400Y-42989800D03*
X33551400Y-61989800D03*
D22*
X33551400Y-75572800D03*
D27*
X141889000Y-67411800D03*
X141889000Y-68211800D03*
X141889000Y-67411800D03*
X141889000Y-68211800D03*
X141889000Y-73811800D03*
X141889000Y-73811800D03*
X141889000Y-73011800D03*
X141889000Y-73011800D03*
D28*
X142949000Y-73501800D03*
X142949000Y-67721800D03*
D29*
X141889000Y-68861800D03*
X141889000Y-69861800D03*
X141889000Y-69361800D03*
X141889000Y-71861800D03*
X141889000Y-72361800D03*
X141889000Y-70361800D03*
X141889000Y-70861800D03*
X141889000Y-71361800D03*
D30*
X146639000Y-66291800D03*
X146639000Y-74931800D03*
D31*
X142469000Y-66291800D03*
X142469000Y-74931800D03*
D26*
X109551000Y-39489800D03*
X123301000Y-86989800D03*
X52551400Y-43239800D03*
X76801400Y-79239800D03*
X52551400Y-62239800D03*
X33551400Y-61989800D03*
X33551400Y-43239800D03*
D32*
X131801000Y-72239800D03*
X146301000Y-80739800D03*
M02*
