G04 #@! TF.GenerationSoftware,KiCad,Pcbnew,(5.1.5)-3*
G04 #@! TF.CreationDate,2020-07-27T19:09:03+07:00*
G04 #@! TF.ProjectId,corne-classic,636f726e-652d-4636-9c61-737369632e6b,1.1*
G04 #@! TF.SameCoordinates,Original*
G04 #@! TF.FileFunction,Legend,Bot*
G04 #@! TF.FilePolarity,Positive*
%FSLAX46Y46*%
G04 Gerber Fmt 4.6, Leading zero omitted, Abs format (unit mm)*
G04 Created by KiCad (PCBNEW (5.1.5)-3) date 2020-07-27 19:09:03*
%MOMM*%
%LPD*%
G04 APERTURE LIST*
%ADD10C,0.125000*%
%ADD11C,0.300000*%
%ADD12C,0.120000*%
%ADD13C,0.150000*%
%ADD14C,0.200000*%
%ADD15C,2.152600*%
%ADD16C,4.387800*%
%ADD17C,1.600000*%
%ADD18C,2.100000*%
%ADD19C,2.400000*%
%ADD20C,2.150000*%
%ADD21C,2.650000*%
%ADD22C,2.650000*%
%ADD23O,1.450000X60.400000*%
%ADD24O,2.100000X2.100000*%
%ADD25R,1.924000X1.924000*%
%ADD26C,0.100000*%
%ADD27R,2.000000X1.400000*%
%ADD28R,2.400000X1.400000*%
%ADD29R,1.600000X1.300000*%
%ADD30R,1.300000X1.600000*%
%ADD31C,1.797000*%
%ADD32O,1.400000X6.550000*%
%ADD33O,1.400000X6.566000*%
%ADD34O,1.400000X17.400000*%
%ADD35R,2.400000X2.400000*%
%ADD36C,5.400000*%
%ADD37R,1.543000X1.035000*%
%ADD38C,1.000000*%
%ADD39O,2.100000X1.300000*%
%ADD40O,2.400000X1.300000*%
%ADD41C,4.200000*%
G04 APERTURE END LIST*
D10*
X169302733Y-58847666D02*
X169069400Y-59547666D01*
X168836066Y-58847666D01*
X168202733Y-59481000D02*
X168236066Y-59514333D01*
X168336066Y-59547666D01*
X168402733Y-59547666D01*
X168502733Y-59514333D01*
X168569400Y-59447666D01*
X168602733Y-59381000D01*
X168636066Y-59247666D01*
X168636066Y-59147666D01*
X168602733Y-59014333D01*
X168569400Y-58947666D01*
X168502733Y-58881000D01*
X168402733Y-58847666D01*
X168336066Y-58847666D01*
X168236066Y-58881000D01*
X168202733Y-58914333D01*
X167502733Y-59481000D02*
X167536066Y-59514333D01*
X167636066Y-59547666D01*
X167702733Y-59547666D01*
X167802733Y-59514333D01*
X167869400Y-59447666D01*
X167902733Y-59381000D01*
X167936066Y-59247666D01*
X167936066Y-59147666D01*
X167902733Y-59014333D01*
X167869400Y-58947666D01*
X167802733Y-58881000D01*
X167702733Y-58847666D01*
X167636066Y-58847666D01*
X167536066Y-58881000D01*
X167502733Y-58914333D01*
X169002733Y-64081000D02*
X169069400Y-64047666D01*
X169169400Y-64047666D01*
X169269400Y-64081000D01*
X169336066Y-64147666D01*
X169369400Y-64214333D01*
X169402733Y-64347666D01*
X169402733Y-64447666D01*
X169369400Y-64581000D01*
X169336066Y-64647666D01*
X169269400Y-64714333D01*
X169169400Y-64747666D01*
X169102733Y-64747666D01*
X169002733Y-64714333D01*
X168969400Y-64681000D01*
X168969400Y-64447666D01*
X169102733Y-64447666D01*
X168669400Y-64747666D02*
X168669400Y-64047666D01*
X168269400Y-64747666D01*
X168269400Y-64047666D01*
X167936066Y-64747666D02*
X167936066Y-64047666D01*
X167769400Y-64047666D01*
X167669400Y-64081000D01*
X167602733Y-64147666D01*
X167569400Y-64214333D01*
X167536066Y-64347666D01*
X167536066Y-64447666D01*
X167569400Y-64581000D01*
X167602733Y-64647666D01*
X167669400Y-64714333D01*
X167769400Y-64747666D01*
X167936066Y-64747666D01*
X168919400Y-62247666D02*
X169252733Y-62247666D01*
X169252733Y-61547666D01*
X168686066Y-61881000D02*
X168452733Y-61881000D01*
X168352733Y-62247666D02*
X168686066Y-62247666D01*
X168686066Y-61547666D01*
X168352733Y-61547666D01*
X168052733Y-62247666D02*
X168052733Y-61547666D01*
X167886066Y-61547666D01*
X167786066Y-61581000D01*
X167719400Y-61647666D01*
X167686066Y-61714333D01*
X167652733Y-61847666D01*
X167652733Y-61947666D01*
X167686066Y-62081000D01*
X167719400Y-62147666D01*
X167786066Y-62214333D01*
X167886066Y-62247666D01*
X168052733Y-62247666D01*
X126501400Y-62806466D02*
X126834733Y-62806466D01*
X126834733Y-62106466D01*
X126268066Y-62439800D02*
X126034733Y-62439800D01*
X125934733Y-62806466D02*
X126268066Y-62806466D01*
X126268066Y-62106466D01*
X125934733Y-62106466D01*
X125634733Y-62806466D02*
X125634733Y-62106466D01*
X125468066Y-62106466D01*
X125368066Y-62139800D01*
X125301400Y-62206466D01*
X125268066Y-62273133D01*
X125234733Y-62406466D01*
X125234733Y-62506466D01*
X125268066Y-62639800D01*
X125301400Y-62706466D01*
X125368066Y-62773133D01*
X125468066Y-62806466D01*
X125634733Y-62806466D01*
X126984733Y-64606466D02*
X126751400Y-65306466D01*
X126518066Y-64606466D01*
X125884733Y-65239800D02*
X125918066Y-65273133D01*
X126018066Y-65306466D01*
X126084733Y-65306466D01*
X126184733Y-65273133D01*
X126251400Y-65206466D01*
X126284733Y-65139800D01*
X126318066Y-65006466D01*
X126318066Y-64906466D01*
X126284733Y-64773133D01*
X126251400Y-64706466D01*
X126184733Y-64639800D01*
X126084733Y-64606466D01*
X126018066Y-64606466D01*
X125918066Y-64639800D01*
X125884733Y-64673133D01*
X125184733Y-65239800D02*
X125218066Y-65273133D01*
X125318066Y-65306466D01*
X125384733Y-65306466D01*
X125484733Y-65273133D01*
X125551400Y-65206466D01*
X125584733Y-65139800D01*
X125618066Y-65006466D01*
X125618066Y-64906466D01*
X125584733Y-64773133D01*
X125551400Y-64706466D01*
X125484733Y-64639800D01*
X125384733Y-64606466D01*
X125318066Y-64606466D01*
X125218066Y-64639800D01*
X125184733Y-64673133D01*
X126484733Y-59439800D02*
X126551400Y-59406466D01*
X126651400Y-59406466D01*
X126751400Y-59439800D01*
X126818066Y-59506466D01*
X126851400Y-59573133D01*
X126884733Y-59706466D01*
X126884733Y-59806466D01*
X126851400Y-59939800D01*
X126818066Y-60006466D01*
X126751400Y-60073133D01*
X126651400Y-60106466D01*
X126584733Y-60106466D01*
X126484733Y-60073133D01*
X126451400Y-60039800D01*
X126451400Y-59806466D01*
X126584733Y-59806466D01*
X126151400Y-60106466D02*
X126151400Y-59406466D01*
X125751400Y-60106466D01*
X125751400Y-59406466D01*
X125418066Y-60106466D02*
X125418066Y-59406466D01*
X125251400Y-59406466D01*
X125151400Y-59439800D01*
X125084733Y-59506466D01*
X125051400Y-59573133D01*
X125018066Y-59706466D01*
X125018066Y-59806466D01*
X125051400Y-59939800D01*
X125084733Y-60006466D01*
X125151400Y-60073133D01*
X125251400Y-60106466D01*
X125418066Y-60106466D01*
D11*
X172702641Y-92410267D02*
X171446904Y-93135267D01*
X171446904Y-93135267D02*
X170421904Y-91359915D01*
X170421904Y-91359915D02*
X171677641Y-90634915D01*
X171677641Y-90634915D02*
X172702641Y-92410267D01*
X182702985Y-86423031D02*
X182327697Y-85022438D01*
X182327697Y-85022438D02*
X184307845Y-84491859D01*
X184307845Y-84491859D02*
X184683133Y-85892452D01*
X184683133Y-85892452D02*
X182702985Y-86423031D01*
X211532000Y-79389800D02*
X211532000Y-80839800D01*
X211532000Y-80839800D02*
X209482000Y-80839800D01*
X209482000Y-80839800D02*
X209482000Y-79389800D01*
X209482000Y-79389800D02*
X211532000Y-79389800D01*
X183032000Y-62139800D02*
X183032000Y-63589800D01*
X183032000Y-63589800D02*
X180982000Y-63589800D01*
X180982000Y-63589800D02*
X180982000Y-62139800D01*
X180982000Y-62139800D02*
X183032000Y-62139800D01*
X202032000Y-59764800D02*
X202032000Y-61214800D01*
X202032000Y-61214800D02*
X199982000Y-61214800D01*
X199982000Y-61214800D02*
X199982000Y-59764800D01*
X199982000Y-59764800D02*
X202032000Y-59764800D01*
X221032000Y-57389800D02*
X221032000Y-58839800D01*
X221032000Y-58839800D02*
X218982000Y-58839800D01*
X218982000Y-58839800D02*
X218982000Y-57389800D01*
X218982000Y-57389800D02*
X221032000Y-57389800D01*
X240032000Y-59764800D02*
X240032000Y-61214800D01*
X240032000Y-61214800D02*
X237982000Y-61214800D01*
X237982000Y-61214800D02*
X237982000Y-59764800D01*
X237982000Y-59764800D02*
X240032000Y-59764800D01*
X259032000Y-64514800D02*
X259032000Y-65964800D01*
X259032000Y-65964800D02*
X256982000Y-65964800D01*
X256982000Y-65964800D02*
X256982000Y-64514800D01*
X256982000Y-64514800D02*
X259032000Y-64514800D01*
X278032000Y-64514800D02*
X278032000Y-65964800D01*
X278032000Y-65964800D02*
X275982000Y-65964800D01*
X275982000Y-65964800D02*
X275982000Y-64514800D01*
X275982000Y-64514800D02*
X278032000Y-64514800D01*
X183032000Y-43139800D02*
X183032000Y-44589800D01*
X183032000Y-44589800D02*
X180982000Y-44589800D01*
X180982000Y-44589800D02*
X180982000Y-43139800D01*
X180982000Y-43139800D02*
X183032000Y-43139800D01*
X202032000Y-40764800D02*
X202032000Y-42214800D01*
X202032000Y-42214800D02*
X199982000Y-42214800D01*
X199982000Y-42214800D02*
X199982000Y-40764800D01*
X199982000Y-40764800D02*
X202032000Y-40764800D01*
X221032000Y-38389800D02*
X221032000Y-39839800D01*
X221032000Y-39839800D02*
X218982000Y-39839800D01*
X218982000Y-39839800D02*
X218982000Y-38389800D01*
X218982000Y-38389800D02*
X221032000Y-38389800D01*
X240032000Y-40764800D02*
X240032000Y-42214800D01*
X240032000Y-42214800D02*
X237982000Y-42214800D01*
X237982000Y-42214800D02*
X237982000Y-40764800D01*
X237982000Y-40764800D02*
X240032000Y-40764800D01*
X259032000Y-45514800D02*
X259032000Y-46964800D01*
X259032000Y-46964800D02*
X256982000Y-46964800D01*
X256982000Y-46964800D02*
X256982000Y-45514800D01*
X256982000Y-45514800D02*
X259032000Y-45514800D01*
X278032000Y-45514800D02*
X278032000Y-46964800D01*
X278032000Y-46964800D02*
X275982000Y-46964800D01*
X275982000Y-46964800D02*
X275982000Y-45514800D01*
X275982000Y-45514800D02*
X278032000Y-45514800D01*
X183032000Y-24139800D02*
X183032000Y-25589800D01*
X183032000Y-25589800D02*
X180982000Y-25589800D01*
X180982000Y-25589800D02*
X180982000Y-24139800D01*
X180982000Y-24139800D02*
X183032000Y-24139800D01*
X202032000Y-21764800D02*
X202032000Y-23214800D01*
X202032000Y-23214800D02*
X199982000Y-23214800D01*
X199982000Y-23214800D02*
X199982000Y-21764800D01*
X199982000Y-21764800D02*
X202032000Y-21764800D01*
X221032000Y-19389800D02*
X221032000Y-20839800D01*
X221032000Y-20839800D02*
X218982000Y-20839800D01*
X218982000Y-20839800D02*
X218982000Y-19389800D01*
X218982000Y-19389800D02*
X221032000Y-19389800D01*
X240032000Y-21764800D02*
X240032000Y-23214800D01*
X240032000Y-23214800D02*
X237982000Y-23214800D01*
X237982000Y-23214800D02*
X237982000Y-21764800D01*
X237982000Y-21764800D02*
X240032000Y-21764800D01*
X259032000Y-26514800D02*
X259032000Y-27964800D01*
X259032000Y-27964800D02*
X256982000Y-27964800D01*
X256982000Y-27964800D02*
X256982000Y-26514800D01*
X256982000Y-26514800D02*
X259032000Y-26514800D01*
X278032000Y-26514800D02*
X278032000Y-27964800D01*
X278032000Y-27964800D02*
X275982000Y-27964800D01*
X275982000Y-27964800D02*
X275982000Y-26514800D01*
X275982000Y-26514800D02*
X278032000Y-26514800D01*
X128721641Y-94010267D02*
X127465904Y-93285267D01*
X127465904Y-93285267D02*
X128490904Y-91509915D01*
X128490904Y-91509915D02*
X129746641Y-92234915D01*
X129746641Y-92234915D02*
X128721641Y-94010267D01*
X116778236Y-83332068D02*
X116402948Y-84732660D01*
X116402948Y-84732660D02*
X114422800Y-84202081D01*
X114422800Y-84202081D02*
X114798088Y-82801489D01*
X114798088Y-82801489D02*
X116778236Y-83332068D01*
X93981400Y-79389800D02*
X93981400Y-80839800D01*
X93981400Y-80839800D02*
X91931400Y-80839800D01*
X91931400Y-80839800D02*
X91931400Y-79389800D01*
X91931400Y-79389800D02*
X93981400Y-79389800D01*
X122481000Y-62139800D02*
X122481000Y-63589800D01*
X122481000Y-63589800D02*
X120431000Y-63589800D01*
X120431000Y-63589800D02*
X120431000Y-62139800D01*
X120431000Y-62139800D02*
X122481000Y-62139800D01*
X103481000Y-59764800D02*
X103481000Y-61214800D01*
X103481000Y-61214800D02*
X101431000Y-61214800D01*
X101431000Y-61214800D02*
X101431000Y-59764800D01*
X101431000Y-59764800D02*
X103481000Y-59764800D01*
X84481400Y-57389800D02*
X84481400Y-58839800D01*
X84481400Y-58839800D02*
X82431400Y-58839800D01*
X82431400Y-58839800D02*
X82431400Y-57389800D01*
X82431400Y-57389800D02*
X84481400Y-57389800D01*
X65481400Y-59764800D02*
X65481400Y-61214800D01*
X65481400Y-61214800D02*
X63431400Y-61214800D01*
X63431400Y-61214800D02*
X63431400Y-59764800D01*
X63431400Y-59764800D02*
X65481400Y-59764800D01*
X46481400Y-64514800D02*
X46481400Y-65964800D01*
X46481400Y-65964800D02*
X44431400Y-65964800D01*
X44431400Y-65964800D02*
X44431400Y-64514800D01*
X44431400Y-64514800D02*
X46481400Y-64514800D01*
X27481400Y-64514800D02*
X27481400Y-65964800D01*
X27481400Y-65964800D02*
X25431400Y-65964800D01*
X25431400Y-65964800D02*
X25431400Y-64514800D01*
X25431400Y-64514800D02*
X27481400Y-64514800D01*
X122481000Y-43139800D02*
X122481000Y-44589800D01*
X122481000Y-44589800D02*
X120431000Y-44589800D01*
X120431000Y-44589800D02*
X120431000Y-43139800D01*
X120431000Y-43139800D02*
X122481000Y-43139800D01*
X103481000Y-40764800D02*
X103481000Y-42214800D01*
X103481000Y-42214800D02*
X101431000Y-42214800D01*
X101431000Y-42214800D02*
X101431000Y-40764800D01*
X101431000Y-40764800D02*
X103481000Y-40764800D01*
X84481400Y-38389800D02*
X84481400Y-39839800D01*
X84481400Y-39839800D02*
X82431400Y-39839800D01*
X82431400Y-39839800D02*
X82431400Y-38389800D01*
X82431400Y-38389800D02*
X84481400Y-38389800D01*
X65481400Y-40764800D02*
X65481400Y-42214800D01*
X65481400Y-42214800D02*
X63431400Y-42214800D01*
X63431400Y-42214800D02*
X63431400Y-40764800D01*
X63431400Y-40764800D02*
X65481400Y-40764800D01*
X46481400Y-45514800D02*
X46481400Y-46964800D01*
X46481400Y-46964800D02*
X44431400Y-46964800D01*
X44431400Y-46964800D02*
X44431400Y-45514800D01*
X44431400Y-45514800D02*
X46481400Y-45514800D01*
X27481400Y-45514800D02*
X27481400Y-46964800D01*
X27481400Y-46964800D02*
X25431400Y-46964800D01*
X25431400Y-46964800D02*
X25431400Y-45514800D01*
X25431400Y-45514800D02*
X27481400Y-45514800D01*
X122481000Y-24139800D02*
X122481000Y-25589800D01*
X122481000Y-25589800D02*
X120431000Y-25589800D01*
X120431000Y-25589800D02*
X120431000Y-24139800D01*
X120431000Y-24139800D02*
X122481000Y-24139800D01*
X103481000Y-21764800D02*
X103481000Y-23214800D01*
X103481000Y-23214800D02*
X101431000Y-23214800D01*
X101431000Y-23214800D02*
X101431000Y-21764800D01*
X101431000Y-21764800D02*
X103481000Y-21764800D01*
X84481400Y-19389800D02*
X84481400Y-20839800D01*
X84481400Y-20839800D02*
X82431400Y-20839800D01*
X82431400Y-20839800D02*
X82431400Y-19389800D01*
X82431400Y-19389800D02*
X84481400Y-19389800D01*
X65481400Y-21764800D02*
X65481400Y-23214800D01*
X65481400Y-23214800D02*
X63431400Y-23214800D01*
X63431400Y-23214800D02*
X63431400Y-21764800D01*
X63431400Y-21764800D02*
X65481400Y-21764800D01*
X46481400Y-26514800D02*
X46481400Y-27964800D01*
X46481400Y-27964800D02*
X44431400Y-27964800D01*
X44431400Y-27964800D02*
X44431400Y-26514800D01*
X44431400Y-26514800D02*
X46481400Y-26514800D01*
X27481400Y-26514800D02*
X27481400Y-27964800D01*
X27481400Y-27964800D02*
X25431400Y-27964800D01*
X25431400Y-27964800D02*
X25431400Y-26514800D01*
X25431400Y-26514800D02*
X27481400Y-26514800D01*
D12*
X177824000Y-77597000D02*
X181380000Y-77597000D01*
X177824000Y-81153000D02*
X177824000Y-77597000D01*
X181380000Y-81153000D02*
X177824000Y-81153000D01*
X181380000Y-77597000D02*
X181380000Y-81153000D01*
D11*
X182778000Y-79525000D02*
X182778000Y-80975000D01*
X180328000Y-79525000D02*
X182748000Y-79525000D01*
X180328000Y-80975000D02*
X180328000Y-79525000D01*
X182778000Y-80975000D02*
X180328000Y-80975000D01*
D12*
X215824000Y-72694800D02*
X219380000Y-72694800D01*
X215824000Y-76250800D02*
X215824000Y-72694800D01*
X219380000Y-76250800D02*
X215824000Y-76250800D01*
X219380000Y-72694800D02*
X219380000Y-76250800D01*
D11*
X220778000Y-74622800D02*
X220778000Y-76072800D01*
X218328000Y-74622800D02*
X220748000Y-74622800D01*
X218328000Y-76072800D02*
X218328000Y-74622800D01*
X220778000Y-76072800D02*
X218328000Y-76072800D01*
D12*
X253824000Y-59611800D02*
X257380000Y-59611800D01*
X253824000Y-63167800D02*
X253824000Y-59611800D01*
X257380000Y-63167800D02*
X253824000Y-63167800D01*
X257380000Y-59611800D02*
X257380000Y-63167800D01*
D11*
X258778000Y-61539800D02*
X258778000Y-62989800D01*
X256328000Y-61539800D02*
X258748000Y-61539800D01*
X256328000Y-62989800D02*
X256328000Y-61539800D01*
X258778000Y-62989800D02*
X256328000Y-62989800D01*
D12*
X181380000Y-41767800D02*
X177824000Y-41767800D01*
X181380000Y-38211800D02*
X181380000Y-41767800D01*
X177824000Y-38211800D02*
X181380000Y-38211800D01*
X177824000Y-41767800D02*
X177824000Y-38211800D01*
D11*
X176426000Y-39839800D02*
X176426000Y-38389800D01*
X178876000Y-39839800D02*
X176456000Y-39839800D01*
X178876000Y-38389800D02*
X178876000Y-39839800D01*
X176426000Y-38389800D02*
X178876000Y-38389800D01*
D12*
X215824000Y-33511800D02*
X219380000Y-33511800D01*
X215824000Y-37067800D02*
X215824000Y-33511800D01*
X219380000Y-37067800D02*
X215824000Y-37067800D01*
X219380000Y-33511800D02*
X219380000Y-37067800D01*
D11*
X220778000Y-35439800D02*
X220778000Y-36889800D01*
X218328000Y-35439800D02*
X220748000Y-35439800D01*
X218328000Y-36889800D02*
X218328000Y-35439800D01*
X220778000Y-36889800D02*
X218328000Y-36889800D01*
D12*
X253824000Y-40611800D02*
X257380000Y-40611800D01*
X253824000Y-44167800D02*
X253824000Y-40611800D01*
X257380000Y-44167800D02*
X253824000Y-44167800D01*
X257380000Y-40611800D02*
X257380000Y-44167800D01*
D11*
X258778000Y-42539800D02*
X258778000Y-43989800D01*
X256328000Y-42539800D02*
X258748000Y-42539800D01*
X256328000Y-43989800D02*
X256328000Y-42539800D01*
X258778000Y-43989800D02*
X256328000Y-43989800D01*
D12*
X120829000Y-81153000D02*
X117273000Y-81153000D01*
X120829000Y-77597000D02*
X120829000Y-81153000D01*
X117273000Y-77597000D02*
X120829000Y-77597000D01*
X117273000Y-81153000D02*
X117273000Y-77597000D01*
D11*
X115875000Y-79225000D02*
X115875000Y-77775000D01*
X118325000Y-79225000D02*
X115905000Y-79225000D01*
X118325000Y-77775000D02*
X118325000Y-79225000D01*
X115875000Y-77775000D02*
X118325000Y-77775000D01*
D12*
X82829400Y-76250800D02*
X79273400Y-76250800D01*
X82829400Y-72694800D02*
X82829400Y-76250800D01*
X79273400Y-72694800D02*
X82829400Y-72694800D01*
X79273400Y-76250800D02*
X79273400Y-72694800D01*
D11*
X77875400Y-74322800D02*
X77875400Y-72872800D01*
X80325400Y-74322800D02*
X77905400Y-74322800D01*
X80325400Y-72872800D02*
X80325400Y-74322800D01*
X77875400Y-72872800D02*
X80325400Y-72872800D01*
D12*
X44829400Y-63167800D02*
X41273400Y-63167800D01*
X44829400Y-59611800D02*
X44829400Y-63167800D01*
X41273400Y-59611800D02*
X44829400Y-59611800D01*
X41273400Y-63167800D02*
X41273400Y-59611800D01*
D11*
X39875400Y-61239800D02*
X39875400Y-59789800D01*
X42325400Y-61239800D02*
X39905400Y-61239800D01*
X42325400Y-59789800D02*
X42325400Y-61239800D01*
X39875400Y-59789800D02*
X42325400Y-59789800D01*
D12*
X117273000Y-38211800D02*
X120829000Y-38211800D01*
X117273000Y-41767800D02*
X117273000Y-38211800D01*
X120829000Y-41767800D02*
X117273000Y-41767800D01*
X120829000Y-38211800D02*
X120829000Y-41767800D01*
D11*
X122227000Y-40139800D02*
X122227000Y-41589800D01*
X119777000Y-40139800D02*
X122197000Y-40139800D01*
X119777000Y-41589800D02*
X119777000Y-40139800D01*
X122227000Y-41589800D02*
X119777000Y-41589800D01*
D12*
X79273400Y-33511800D02*
X82829400Y-33511800D01*
X79273400Y-37067800D02*
X79273400Y-33511800D01*
X82829400Y-37067800D02*
X79273400Y-37067800D01*
X82829400Y-33511800D02*
X82829400Y-37067800D01*
D11*
X84227400Y-35439800D02*
X84227400Y-36889800D01*
X81777400Y-35439800D02*
X84197400Y-35439800D01*
X81777400Y-36889800D02*
X81777400Y-35439800D01*
X84227400Y-36889800D02*
X81777400Y-36889800D01*
D12*
X41273400Y-40611800D02*
X44829400Y-40611800D01*
X41273400Y-44167800D02*
X41273400Y-40611800D01*
X44829400Y-44167800D02*
X41273400Y-44167800D01*
X44829400Y-40611800D02*
X44829400Y-44167800D01*
D11*
X46227400Y-42539800D02*
X46227400Y-43989800D01*
X43777400Y-42539800D02*
X46197400Y-42539800D01*
X43777400Y-43989800D02*
X43777400Y-42539800D01*
X46227400Y-43989800D02*
X43777400Y-43989800D01*
D12*
X196102000Y-83989800D02*
X196102000Y-87889800D01*
X198102000Y-83989800D02*
X198102000Y-87889800D01*
X196102000Y-83989800D02*
X198102000Y-83989800D01*
X199102000Y-83989800D02*
X199102000Y-87889800D01*
X201102000Y-83989800D02*
X201102000Y-87889800D01*
X199102000Y-83989800D02*
X201102000Y-83989800D01*
X215102000Y-84239800D02*
X215102000Y-88139800D01*
X217102000Y-84239800D02*
X217102000Y-88139800D01*
X215102000Y-84239800D02*
X217102000Y-84239800D01*
X186602000Y-64614800D02*
X186602000Y-68514800D01*
X188602000Y-64614800D02*
X188602000Y-68514800D01*
X186602000Y-64614800D02*
X188602000Y-64614800D01*
X189602000Y-64614800D02*
X189602000Y-68514800D01*
X191602000Y-64614800D02*
X191602000Y-68514800D01*
X189602000Y-64614800D02*
X191602000Y-64614800D01*
X208602000Y-62239800D02*
X208602000Y-66139800D01*
X210602000Y-62239800D02*
X210602000Y-66139800D01*
X208602000Y-62239800D02*
X210602000Y-62239800D01*
X227602000Y-64614800D02*
X227602000Y-68514800D01*
X229602000Y-64614800D02*
X229602000Y-68514800D01*
X227602000Y-64614800D02*
X229602000Y-64614800D01*
X246602000Y-69364800D02*
X246602000Y-73264800D01*
X248602000Y-69364800D02*
X248602000Y-73264800D01*
X246602000Y-69364800D02*
X248602000Y-69364800D01*
X281602000Y-69364800D02*
X281602000Y-73264800D01*
X283602000Y-69364800D02*
X283602000Y-73264800D01*
X281602000Y-69364800D02*
X283602000Y-69364800D01*
X186602000Y-45614800D02*
X186602000Y-49514800D01*
X188602000Y-45614800D02*
X188602000Y-49514800D01*
X186602000Y-45614800D02*
X188602000Y-45614800D01*
X189602000Y-45614800D02*
X189602000Y-49514800D01*
X191602000Y-45614800D02*
X191602000Y-49514800D01*
X189602000Y-45614800D02*
X191602000Y-45614800D01*
X208602000Y-43239800D02*
X208602000Y-47139800D01*
X210602000Y-43239800D02*
X210602000Y-47139800D01*
X208602000Y-43239800D02*
X210602000Y-43239800D01*
X227602000Y-45614800D02*
X227602000Y-49514800D01*
X229602000Y-45614800D02*
X229602000Y-49514800D01*
X227602000Y-45614800D02*
X229602000Y-45614800D01*
X246602000Y-50364800D02*
X246602000Y-54264800D01*
X248602000Y-50364800D02*
X248602000Y-54264800D01*
X246602000Y-50364800D02*
X248602000Y-50364800D01*
X281602000Y-50364800D02*
X281602000Y-54264800D01*
X283602000Y-50364800D02*
X283602000Y-54264800D01*
X281602000Y-50364800D02*
X283602000Y-50364800D01*
X186602000Y-26614800D02*
X186602000Y-30514800D01*
X188602000Y-26614800D02*
X188602000Y-30514800D01*
X186602000Y-26614800D02*
X188602000Y-26614800D01*
X189602000Y-26614800D02*
X189602000Y-30514800D01*
X191602000Y-26614800D02*
X191602000Y-30514800D01*
X189602000Y-26614800D02*
X191602000Y-26614800D01*
X208602000Y-24239800D02*
X208602000Y-28139800D01*
X210602000Y-24239800D02*
X210602000Y-28139800D01*
X208602000Y-24239800D02*
X210602000Y-24239800D01*
X227602000Y-26614800D02*
X227602000Y-30514800D01*
X229602000Y-26614800D02*
X229602000Y-30514800D01*
X227602000Y-26614800D02*
X229602000Y-26614800D01*
X246602000Y-31364800D02*
X246602000Y-35264800D01*
X248602000Y-31364800D02*
X248602000Y-35264800D01*
X246602000Y-31364800D02*
X248602000Y-31364800D01*
X269301000Y-43265600D02*
X273201000Y-43265600D01*
X269301000Y-41265600D02*
X273201000Y-41265600D01*
X269301000Y-43265600D02*
X269301000Y-41265600D01*
X100551000Y-83989800D02*
X100551000Y-87889800D01*
X102551000Y-83989800D02*
X102551000Y-87889800D01*
X100551000Y-83989800D02*
X102551000Y-83989800D01*
X97551400Y-83989800D02*
X97551400Y-87889800D01*
X99551400Y-83989800D02*
X99551400Y-87889800D01*
X97551400Y-83989800D02*
X99551400Y-83989800D01*
X81551400Y-84239800D02*
X81551400Y-88139800D01*
X83551400Y-84239800D02*
X83551400Y-88139800D01*
X81551400Y-84239800D02*
X83551400Y-84239800D01*
X110051000Y-64614800D02*
X110051000Y-68514800D01*
X112051000Y-64614800D02*
X112051000Y-68514800D01*
X110051000Y-64614800D02*
X112051000Y-64614800D01*
X107051000Y-64614800D02*
X107051000Y-68514800D01*
X109051000Y-64614800D02*
X109051000Y-68514800D01*
X107051000Y-64614800D02*
X109051000Y-64614800D01*
X88051400Y-62239800D02*
X88051400Y-66139800D01*
X90051400Y-62239800D02*
X90051400Y-66139800D01*
X88051400Y-62239800D02*
X90051400Y-62239800D01*
X69051400Y-64614800D02*
X69051400Y-68514800D01*
X71051400Y-64614800D02*
X71051400Y-68514800D01*
X69051400Y-64614800D02*
X71051400Y-64614800D01*
X50051400Y-69364800D02*
X50051400Y-73264800D01*
X52051400Y-69364800D02*
X52051400Y-73264800D01*
X50051400Y-69364800D02*
X52051400Y-69364800D01*
X15051400Y-69364800D02*
X15051400Y-73264800D01*
X17051400Y-69364800D02*
X17051400Y-73264800D01*
X15051400Y-69364800D02*
X17051400Y-69364800D01*
X110051000Y-45614800D02*
X110051000Y-49514800D01*
X112051000Y-45614800D02*
X112051000Y-49514800D01*
X110051000Y-45614800D02*
X112051000Y-45614800D01*
X107051000Y-45614800D02*
X107051000Y-49514800D01*
X109051000Y-45614800D02*
X109051000Y-49514800D01*
X107051000Y-45614800D02*
X109051000Y-45614800D01*
X88051400Y-43239800D02*
X88051400Y-47139800D01*
X90051400Y-43239800D02*
X90051400Y-47139800D01*
X88051400Y-43239800D02*
X90051400Y-43239800D01*
X69051400Y-45614800D02*
X69051400Y-49514800D01*
X71051400Y-45614800D02*
X71051400Y-49514800D01*
X69051400Y-45614800D02*
X71051400Y-45614800D01*
X50051400Y-50364800D02*
X50051400Y-54264800D01*
X52051400Y-50364800D02*
X52051400Y-54264800D01*
X50051400Y-50364800D02*
X52051400Y-50364800D01*
X15051400Y-50364800D02*
X15051400Y-54264800D01*
X17051400Y-50364800D02*
X17051400Y-54264800D01*
X15051400Y-50364800D02*
X17051400Y-50364800D01*
X110051000Y-26614800D02*
X110051000Y-30514800D01*
X112051000Y-26614800D02*
X112051000Y-30514800D01*
X110051000Y-26614800D02*
X112051000Y-26614800D01*
X107051000Y-26614800D02*
X107051000Y-30514800D01*
X109051000Y-26614800D02*
X109051000Y-30514800D01*
X107051000Y-26614800D02*
X109051000Y-26614800D01*
X88051400Y-24239800D02*
X88051400Y-28139800D01*
X90051400Y-24239800D02*
X90051400Y-28139800D01*
X88051400Y-24239800D02*
X90051400Y-24239800D01*
X69051400Y-26614800D02*
X69051400Y-30514800D01*
X71051400Y-26614800D02*
X71051400Y-30514800D01*
X69051400Y-26614800D02*
X71051400Y-26614800D01*
X50051400Y-31364800D02*
X50051400Y-35264800D01*
X52051400Y-31364800D02*
X52051400Y-35264800D01*
X50051400Y-31364800D02*
X52051400Y-31364800D01*
X29351800Y-41265600D02*
X25451800Y-41265600D01*
X29351800Y-43265600D02*
X25451800Y-43265600D01*
X29351800Y-41265600D02*
X29351800Y-43265600D01*
D13*
X137861000Y-67206800D02*
X139861000Y-67206800D01*
X137861000Y-70206800D02*
X137861000Y-67206800D01*
X139861000Y-70206800D02*
X137861000Y-70206800D01*
X139861000Y-67206800D02*
X139861000Y-70206800D01*
X135271000Y-67206800D02*
X137271000Y-67206800D01*
X135271000Y-70206800D02*
X135271000Y-67206800D01*
X137271000Y-70206800D02*
X135271000Y-70206800D01*
X137271000Y-67206800D02*
X137271000Y-70206800D01*
X160893000Y-72735800D02*
X160893000Y-74735800D01*
X160893000Y-74735800D02*
X158893000Y-74735800D01*
X158893000Y-74735800D02*
X158893000Y-72735800D01*
X158893000Y-72735800D02*
X160893000Y-72735800D01*
X163332000Y-72761800D02*
X163332000Y-74761800D01*
X163332000Y-74761800D02*
X161332000Y-74761800D01*
X161332000Y-74761800D02*
X161332000Y-72761800D01*
X161332000Y-72761800D02*
X163332000Y-72761800D01*
X137321000Y-72761800D02*
X137321000Y-74761800D01*
X137321000Y-74761800D02*
X135321000Y-74761800D01*
X135321000Y-74761800D02*
X135321000Y-72761800D01*
X135321000Y-72761800D02*
X137321000Y-72761800D01*
X139760000Y-72735800D02*
X139760000Y-74735800D01*
X139760000Y-74735800D02*
X137760000Y-74735800D01*
X137760000Y-74735800D02*
X137760000Y-72735800D01*
X137760000Y-72735800D02*
X139760000Y-72735800D01*
X158792000Y-67206800D02*
X160792000Y-67206800D01*
X158792000Y-70206800D02*
X158792000Y-67206800D01*
X160792000Y-70206800D02*
X158792000Y-70206800D01*
X160792000Y-67206800D02*
X160792000Y-70206800D01*
X161382000Y-67206800D02*
X163382000Y-67206800D01*
X161382000Y-70206800D02*
X161382000Y-67206800D01*
X163382000Y-70206800D02*
X161382000Y-70206800D01*
X163382000Y-67206800D02*
X163382000Y-70206800D01*
X164414000Y-67436800D02*
G75*
G03X163906000Y-67944800I0J-508000D01*
G01*
X163906000Y-69468800D02*
G75*
G03X164414000Y-69976800I508000J0D01*
G01*
X165430000Y-69976800D02*
G75*
G03X165938000Y-69468800I0J508000D01*
G01*
X165938000Y-67944800D02*
G75*
G03X165430000Y-67436800I-508000J0D01*
G01*
X163906000Y-67944800D02*
X163906000Y-69468800D01*
X164414000Y-69976800D02*
X165430000Y-69976800D01*
X165938000Y-69468800D02*
X165938000Y-67944800D01*
X165430000Y-67436800D02*
X164414000Y-67436800D01*
X133223000Y-67436800D02*
G75*
G03X132715000Y-67944800I0J-508000D01*
G01*
X132715000Y-69468800D02*
G75*
G03X133223000Y-69976800I508000J0D01*
G01*
X134239000Y-69976800D02*
G75*
G03X134747000Y-69468800I0J508000D01*
G01*
X134747000Y-67944800D02*
G75*
G03X134239000Y-67436800I-508000J0D01*
G01*
X132715000Y-67944800D02*
X132715000Y-69468800D01*
X133223000Y-69976800D02*
X134239000Y-69976800D01*
X134747000Y-69468800D02*
X134747000Y-67944800D01*
X134239000Y-67436800D02*
X133223000Y-67436800D01*
D14*
X160153904Y-68954419D02*
X159772952Y-68687752D01*
X160153904Y-68497276D02*
X159353904Y-68497276D01*
X159353904Y-68802038D01*
X159392000Y-68878228D01*
X159430095Y-68916323D01*
X159506285Y-68954419D01*
X159620571Y-68954419D01*
X159696761Y-68916323D01*
X159734857Y-68878228D01*
X159772952Y-68802038D01*
X159772952Y-68497276D01*
X162743904Y-68459180D02*
X162362952Y-68725847D01*
X162743904Y-68916323D02*
X161943904Y-68916323D01*
X161943904Y-68611561D01*
X161982000Y-68535371D01*
X162020095Y-68497276D01*
X162096285Y-68459180D01*
X162210571Y-68459180D01*
X162286761Y-68497276D01*
X162324857Y-68535371D01*
X162362952Y-68611561D01*
X162362952Y-68916323D01*
%LPC*%
D15*
X146781000Y-28067000D03*
X131541000Y-48387000D03*
X131541000Y-33147000D03*
X131541000Y-35687000D03*
X131541000Y-38227000D03*
X146781000Y-56007000D03*
X131541000Y-30607000D03*
X131541000Y-28067000D03*
X131541000Y-50927000D03*
X131541000Y-53467000D03*
X131541000Y-56007000D03*
X146781000Y-53467000D03*
X146781000Y-50927000D03*
X146781000Y-48387000D03*
X146781000Y-45847000D03*
X146781000Y-43307000D03*
X146781000Y-40767000D03*
X146781000Y-38227000D03*
X146781000Y-33147000D03*
X146781000Y-35687000D03*
X146781000Y-30607000D03*
X131541000Y-45847000D03*
X131541000Y-43307000D03*
X131541000Y-40767000D03*
X167112000Y-28168600D03*
X151872000Y-48488600D03*
X151872000Y-33248600D03*
X151872000Y-35788600D03*
X151872000Y-38328600D03*
X167112000Y-56108600D03*
X151872000Y-30708600D03*
X151872000Y-28168600D03*
X151872000Y-51028600D03*
X151872000Y-53568600D03*
X151872000Y-56108600D03*
X167112000Y-53568600D03*
X167112000Y-51028600D03*
X167112000Y-48488600D03*
X167112000Y-45948600D03*
X167112000Y-43408600D03*
X167112000Y-40868600D03*
X167112000Y-38328600D03*
X167112000Y-33248600D03*
X167112000Y-35788600D03*
X167112000Y-30708600D03*
X151872000Y-45948600D03*
X151872000Y-43408600D03*
X151872000Y-40868600D03*
D16*
X187102000Y-89239800D03*
D17*
X191057093Y-83831876D03*
D18*
X181789408Y-90663305D03*
X192414592Y-87816295D03*
D19*
X183255883Y-94204413D03*
D20*
X182195097Y-90554601D03*
X192008903Y-87924999D03*
D21*
X190552091Y-92456456D03*
D22*
X191439578Y-90707151D02*
X190552102Y-92456461D01*
D19*
X188629032Y-94938762D03*
D21*
X185963349Y-94804104D03*
D22*
X185851871Y-94233514D02*
X185963799Y-94804016D01*
D16*
X208102000Y-86489800D03*
D17*
X213322000Y-82289800D03*
D18*
X202602000Y-86489800D03*
X213602000Y-86489800D03*
D19*
X203102000Y-90289800D03*
D20*
X203022000Y-86489800D03*
X213182000Y-86489800D03*
D21*
X210602000Y-90489800D03*
D22*
X211912000Y-89029800D02*
X210602010Y-90489808D01*
D19*
X208102000Y-92389800D03*
D21*
X205562000Y-91569800D03*
D22*
X205602000Y-90989800D02*
X205562458Y-91569832D01*
D16*
X179602000Y-69239800D03*
D17*
X184822000Y-65039800D03*
D18*
X174102000Y-69239800D03*
X185102000Y-69239800D03*
D19*
X174602000Y-73039800D03*
D20*
X174522000Y-69239800D03*
X184682000Y-69239800D03*
D21*
X182102000Y-73239800D03*
D22*
X183412000Y-71779800D02*
X182102010Y-73239808D01*
D19*
X179602000Y-75139800D03*
D21*
X177062000Y-74319800D03*
D22*
X177102000Y-73739800D02*
X177062458Y-74319832D01*
D16*
X198602000Y-66864800D03*
D17*
X203822000Y-62664800D03*
D18*
X193102000Y-66864800D03*
X204102000Y-66864800D03*
D19*
X193602000Y-70664800D03*
D20*
X193522000Y-66864800D03*
X203682000Y-66864800D03*
D21*
X201102000Y-70864800D03*
D22*
X202412000Y-69404800D02*
X201102010Y-70864808D01*
D19*
X198602000Y-72764800D03*
D21*
X196062000Y-71944800D03*
D22*
X196102000Y-71364800D02*
X196062458Y-71944832D01*
D16*
X217602000Y-64489800D03*
D17*
X222822000Y-60289800D03*
D18*
X212102000Y-64489800D03*
X223102000Y-64489800D03*
D19*
X212602000Y-68289800D03*
D20*
X212522000Y-64489800D03*
X222682000Y-64489800D03*
D21*
X220102000Y-68489800D03*
D22*
X221412000Y-67029800D02*
X220102010Y-68489808D01*
D19*
X217602000Y-70389800D03*
D21*
X215062000Y-69569800D03*
D22*
X215102000Y-68989800D02*
X215062458Y-69569832D01*
D16*
X236602000Y-66864800D03*
D17*
X241822000Y-62664800D03*
D18*
X231102000Y-66864800D03*
X242102000Y-66864800D03*
D19*
X231602000Y-70664800D03*
D20*
X231522000Y-66864800D03*
X241682000Y-66864800D03*
D21*
X239102000Y-70864800D03*
D22*
X240412000Y-69404800D02*
X239102010Y-70864808D01*
D19*
X236602000Y-72764800D03*
D21*
X234062000Y-71944800D03*
D22*
X234102000Y-71364800D02*
X234062458Y-71944832D01*
D16*
X255602000Y-71614800D03*
D17*
X260822000Y-67414800D03*
D18*
X250102000Y-71614800D03*
X261102000Y-71614800D03*
D19*
X250602000Y-75414800D03*
D20*
X250522000Y-71614800D03*
X260682000Y-71614800D03*
D21*
X258102000Y-75614800D03*
D22*
X259412000Y-74154800D02*
X258102010Y-75614808D01*
D19*
X255602000Y-77514800D03*
D21*
X253062000Y-76694800D03*
D22*
X253102000Y-76114800D02*
X253062458Y-76694832D01*
D16*
X274602000Y-71614800D03*
D17*
X279822000Y-67414800D03*
D18*
X269102000Y-71614800D03*
X280102000Y-71614800D03*
D19*
X269602000Y-75414800D03*
D20*
X269522000Y-71614800D03*
X279682000Y-71614800D03*
D21*
X277102000Y-75614800D03*
D22*
X278412000Y-74154800D02*
X277102010Y-75614808D01*
D19*
X274602000Y-77514800D03*
D21*
X272062000Y-76694800D03*
D22*
X272102000Y-76114800D02*
X272062458Y-76694832D01*
D16*
X179602000Y-50239800D03*
D17*
X184822000Y-46039800D03*
D18*
X174102000Y-50239800D03*
X185102000Y-50239800D03*
D19*
X174602000Y-54039800D03*
D20*
X174522000Y-50239800D03*
X184682000Y-50239800D03*
D21*
X182102000Y-54239800D03*
D22*
X183412000Y-52779800D02*
X182102010Y-54239808D01*
D19*
X179602000Y-56139800D03*
D21*
X177062000Y-55319800D03*
D22*
X177102000Y-54739800D02*
X177062458Y-55319832D01*
D16*
X198602000Y-47864800D03*
D17*
X203822000Y-43664800D03*
D18*
X193102000Y-47864800D03*
X204102000Y-47864800D03*
D19*
X193602000Y-51664800D03*
D20*
X193522000Y-47864800D03*
X203682000Y-47864800D03*
D21*
X201102000Y-51864800D03*
D22*
X202412000Y-50404800D02*
X201102010Y-51864808D01*
D19*
X198602000Y-53764800D03*
D21*
X196062000Y-52944800D03*
D22*
X196102000Y-52364800D02*
X196062458Y-52944832D01*
D16*
X217602000Y-45489800D03*
D17*
X222822000Y-41289800D03*
D18*
X212102000Y-45489800D03*
X223102000Y-45489800D03*
D19*
X212602000Y-49289800D03*
D20*
X212522000Y-45489800D03*
X222682000Y-45489800D03*
D21*
X220102000Y-49489800D03*
D22*
X221412000Y-48029800D02*
X220102010Y-49489808D01*
D19*
X217602000Y-51389800D03*
D21*
X215062000Y-50569800D03*
D22*
X215102000Y-49989800D02*
X215062458Y-50569832D01*
D16*
X236602000Y-47864800D03*
D17*
X241822000Y-43664800D03*
D18*
X231102000Y-47864800D03*
X242102000Y-47864800D03*
D19*
X231602000Y-51664800D03*
D20*
X231522000Y-47864800D03*
X241682000Y-47864800D03*
D21*
X239102000Y-51864800D03*
D22*
X240412000Y-50404800D02*
X239102010Y-51864808D01*
D19*
X236602000Y-53764800D03*
D21*
X234062000Y-52944800D03*
D22*
X234102000Y-52364800D02*
X234062458Y-52944832D01*
D16*
X255602000Y-52614800D03*
D17*
X260822000Y-48414800D03*
D18*
X250102000Y-52614800D03*
X261102000Y-52614800D03*
D19*
X250602000Y-56414800D03*
D20*
X250522000Y-52614800D03*
X260682000Y-52614800D03*
D21*
X258102000Y-56614800D03*
D22*
X259412000Y-55154800D02*
X258102010Y-56614808D01*
D19*
X255602000Y-58514800D03*
D21*
X253062000Y-57694800D03*
D22*
X253102000Y-57114800D02*
X253062458Y-57694832D01*
D16*
X274602000Y-52614800D03*
D17*
X279822000Y-48414800D03*
D18*
X269102000Y-52614800D03*
X280102000Y-52614800D03*
D19*
X269602000Y-56414800D03*
D20*
X269522000Y-52614800D03*
X279682000Y-52614800D03*
D21*
X277102000Y-56614800D03*
D22*
X278412000Y-55154800D02*
X277102010Y-56614808D01*
D19*
X274602000Y-58514800D03*
D21*
X272062000Y-57694800D03*
D22*
X272102000Y-57114800D02*
X272062458Y-57694832D01*
D16*
X179602000Y-31239800D03*
D17*
X184822000Y-27039800D03*
D18*
X174102000Y-31239800D03*
X185102000Y-31239800D03*
D19*
X174602000Y-35039800D03*
D20*
X174522000Y-31239800D03*
X184682000Y-31239800D03*
D21*
X182102000Y-35239800D03*
D22*
X183412000Y-33779800D02*
X182102010Y-35239808D01*
D19*
X179602000Y-37139800D03*
D21*
X177062000Y-36319800D03*
D22*
X177102000Y-35739800D02*
X177062458Y-36319832D01*
D16*
X198602000Y-28864800D03*
D17*
X203822000Y-24664800D03*
D18*
X193102000Y-28864800D03*
X204102000Y-28864800D03*
D19*
X193602000Y-32664800D03*
D20*
X193522000Y-28864800D03*
X203682000Y-28864800D03*
D21*
X201102000Y-32864800D03*
D22*
X202412000Y-31404800D02*
X201102010Y-32864808D01*
D19*
X198602000Y-34764800D03*
D21*
X196062000Y-33944800D03*
D22*
X196102000Y-33364800D02*
X196062458Y-33944832D01*
D16*
X217602000Y-26489800D03*
D17*
X222822000Y-22289800D03*
D18*
X212102000Y-26489800D03*
X223102000Y-26489800D03*
D19*
X212602000Y-30289800D03*
D20*
X212522000Y-26489800D03*
X222682000Y-26489800D03*
D21*
X220102000Y-30489800D03*
D22*
X221412000Y-29029800D02*
X220102010Y-30489808D01*
D19*
X217602000Y-32389800D03*
D21*
X215062000Y-31569800D03*
D22*
X215102000Y-30989800D02*
X215062458Y-31569832D01*
D16*
X236602000Y-28864800D03*
D17*
X241822000Y-24664800D03*
D18*
X231102000Y-28864800D03*
X242102000Y-28864800D03*
D19*
X231602000Y-32664800D03*
D20*
X231522000Y-28864800D03*
X241682000Y-28864800D03*
D21*
X239102000Y-32864800D03*
D22*
X240412000Y-31404800D02*
X239102010Y-32864808D01*
D19*
X236602000Y-34764800D03*
D21*
X234062000Y-33944800D03*
D22*
X234102000Y-33364800D02*
X234062458Y-33944832D01*
D16*
X255602000Y-33614800D03*
D17*
X260822000Y-29414800D03*
D18*
X250102000Y-33614800D03*
X261102000Y-33614800D03*
D19*
X250602000Y-37414800D03*
D20*
X250522000Y-33614800D03*
X260682000Y-33614800D03*
D21*
X258102000Y-37614800D03*
D22*
X259412000Y-36154800D02*
X258102010Y-37614808D01*
D19*
X255602000Y-39514800D03*
D21*
X253062000Y-38694800D03*
D22*
X253102000Y-38114800D02*
X253062458Y-38694832D01*
D16*
X274602000Y-33614800D03*
D17*
X279822000Y-29414800D03*
D18*
X269102000Y-33614800D03*
X280102000Y-33614800D03*
D19*
X269602000Y-37414800D03*
D20*
X269522000Y-33614800D03*
X279682000Y-33614800D03*
D21*
X277102000Y-37614800D03*
D22*
X278412000Y-36154800D02*
X277102010Y-37614808D01*
D19*
X274602000Y-39514800D03*
D21*
X272062000Y-38694800D03*
D22*
X272102000Y-38114800D02*
X272062458Y-38694832D01*
D16*
X111551000Y-89239800D03*
D17*
X117680173Y-86533947D03*
D18*
X106238408Y-87816295D03*
X116863592Y-90663305D03*
D19*
X105737858Y-91616223D03*
D20*
X106644097Y-87924999D03*
X116457903Y-90554601D03*
D21*
X112930538Y-93750551D03*
D22*
X114573777Y-92679352D02*
X112930545Y-93750562D01*
D19*
X110023968Y-94938762D03*
D21*
X107782748Y-93489303D03*
D22*
X107971500Y-92939419D02*
X107783182Y-93489453D01*
D16*
X90551400Y-86489800D03*
D17*
X95771400Y-82289800D03*
D18*
X85051400Y-86489800D03*
X96051400Y-86489800D03*
D19*
X85551400Y-90289800D03*
D20*
X85471400Y-86489800D03*
X95631400Y-86489800D03*
D21*
X93051400Y-90489800D03*
D22*
X94361400Y-89029800D02*
X93051410Y-90489808D01*
D19*
X90551400Y-92389800D03*
D21*
X88011400Y-91569800D03*
D22*
X88051400Y-90989800D02*
X88011858Y-91569832D01*
D16*
X119051000Y-69239800D03*
D17*
X124271000Y-65039800D03*
D18*
X113551000Y-69239800D03*
X124551000Y-69239800D03*
D19*
X114051000Y-73039800D03*
D20*
X113971000Y-69239800D03*
X124131000Y-69239800D03*
D21*
X121551000Y-73239800D03*
D22*
X122861000Y-71779800D02*
X121551010Y-73239808D01*
D19*
X119051000Y-75139800D03*
D21*
X116511000Y-74319800D03*
D22*
X116551000Y-73739800D02*
X116511458Y-74319832D01*
D16*
X100051000Y-66864800D03*
D17*
X105271000Y-62664800D03*
D18*
X94551000Y-66864800D03*
X105551000Y-66864800D03*
D19*
X95051000Y-70664800D03*
D20*
X94971000Y-66864800D03*
X105131000Y-66864800D03*
D21*
X102551000Y-70864800D03*
D22*
X103861000Y-69404800D02*
X102551010Y-70864808D01*
D19*
X100051000Y-72764800D03*
D21*
X97511000Y-71944800D03*
D22*
X97551000Y-71364800D02*
X97511458Y-71944832D01*
D16*
X81051400Y-64489800D03*
D17*
X86271400Y-60289800D03*
D18*
X75551400Y-64489800D03*
X86551400Y-64489800D03*
D19*
X76051400Y-68289800D03*
D20*
X75971400Y-64489800D03*
X86131400Y-64489800D03*
D21*
X83551400Y-68489800D03*
D22*
X84861400Y-67029800D02*
X83551410Y-68489808D01*
D19*
X81051400Y-70389800D03*
D21*
X78511400Y-69569800D03*
D22*
X78551400Y-68989800D02*
X78511858Y-69569832D01*
D16*
X62051400Y-66864800D03*
D17*
X67271400Y-62664800D03*
D18*
X56551400Y-66864800D03*
X67551400Y-66864800D03*
D19*
X57051400Y-70664800D03*
D20*
X56971400Y-66864800D03*
X67131400Y-66864800D03*
D21*
X64551400Y-70864800D03*
D22*
X65861400Y-69404800D02*
X64551410Y-70864808D01*
D19*
X62051400Y-72764800D03*
D21*
X59511400Y-71944800D03*
D22*
X59551400Y-71364800D02*
X59511858Y-71944832D01*
D16*
X43051400Y-71614800D03*
D17*
X48271400Y-67414800D03*
D18*
X37551400Y-71614800D03*
X48551400Y-71614800D03*
D19*
X38051400Y-75414800D03*
D20*
X37971400Y-71614800D03*
X48131400Y-71614800D03*
D21*
X45551400Y-75614800D03*
D22*
X46861400Y-74154800D02*
X45551410Y-75614808D01*
D19*
X43051400Y-77514800D03*
D21*
X40511400Y-76694800D03*
D22*
X40551400Y-76114800D02*
X40511858Y-76694832D01*
D16*
X24051400Y-71614800D03*
D17*
X29271400Y-67414800D03*
D18*
X18551400Y-71614800D03*
X29551400Y-71614800D03*
D19*
X19051400Y-75414800D03*
D20*
X18971400Y-71614800D03*
X29131400Y-71614800D03*
D21*
X26551400Y-75614800D03*
D22*
X27861400Y-74154800D02*
X26551410Y-75614808D01*
D19*
X24051400Y-77514800D03*
D21*
X21511400Y-76694800D03*
D22*
X21551400Y-76114800D02*
X21511858Y-76694832D01*
D16*
X119051000Y-50239800D03*
D17*
X124271000Y-46039800D03*
D18*
X113551000Y-50239800D03*
X124551000Y-50239800D03*
D19*
X114051000Y-54039800D03*
D20*
X113971000Y-50239800D03*
X124131000Y-50239800D03*
D21*
X121551000Y-54239800D03*
D22*
X122861000Y-52779800D02*
X121551010Y-54239808D01*
D19*
X119051000Y-56139800D03*
D21*
X116511000Y-55319800D03*
D22*
X116551000Y-54739800D02*
X116511458Y-55319832D01*
D16*
X100051000Y-47864800D03*
D17*
X105271000Y-43664800D03*
D18*
X94551000Y-47864800D03*
X105551000Y-47864800D03*
D19*
X95051000Y-51664800D03*
D20*
X94971000Y-47864800D03*
X105131000Y-47864800D03*
D21*
X102551000Y-51864800D03*
D22*
X103861000Y-50404800D02*
X102551010Y-51864808D01*
D19*
X100051000Y-53764800D03*
D21*
X97511000Y-52944800D03*
D22*
X97551000Y-52364800D02*
X97511458Y-52944832D01*
D16*
X81051400Y-45489800D03*
D17*
X86271400Y-41289800D03*
D18*
X75551400Y-45489800D03*
X86551400Y-45489800D03*
D19*
X76051400Y-49289800D03*
D20*
X75971400Y-45489800D03*
X86131400Y-45489800D03*
D21*
X83551400Y-49489800D03*
D22*
X84861400Y-48029800D02*
X83551410Y-49489808D01*
D19*
X81051400Y-51389800D03*
D21*
X78511400Y-50569800D03*
D22*
X78551400Y-49989800D02*
X78511858Y-50569832D01*
D16*
X62051400Y-47864800D03*
D17*
X67271400Y-43664800D03*
D18*
X56551400Y-47864800D03*
X67551400Y-47864800D03*
D19*
X57051400Y-51664800D03*
D20*
X56971400Y-47864800D03*
X67131400Y-47864800D03*
D21*
X64551400Y-51864800D03*
D22*
X65861400Y-50404800D02*
X64551410Y-51864808D01*
D19*
X62051400Y-53764800D03*
D21*
X59511400Y-52944800D03*
D22*
X59551400Y-52364800D02*
X59511858Y-52944832D01*
D16*
X43051400Y-52614800D03*
D17*
X48271400Y-48414800D03*
D18*
X37551400Y-52614800D03*
X48551400Y-52614800D03*
D19*
X38051400Y-56414800D03*
D20*
X37971400Y-52614800D03*
X48131400Y-52614800D03*
D21*
X45551400Y-56614800D03*
D22*
X46861400Y-55154800D02*
X45551410Y-56614808D01*
D19*
X43051400Y-58514800D03*
D21*
X40511400Y-57694800D03*
D22*
X40551400Y-57114800D02*
X40511858Y-57694832D01*
D16*
X24051400Y-52614800D03*
D17*
X29271400Y-48414800D03*
D18*
X18551400Y-52614800D03*
X29551400Y-52614800D03*
D19*
X19051400Y-56414800D03*
D20*
X18971400Y-52614800D03*
X29131400Y-52614800D03*
D21*
X26551400Y-56614800D03*
D22*
X27861400Y-55154800D02*
X26551410Y-56614808D01*
D19*
X24051400Y-58514800D03*
D21*
X21511400Y-57694800D03*
D22*
X21551400Y-57114800D02*
X21511858Y-57694832D01*
D16*
X119051000Y-31239800D03*
D17*
X124271000Y-27039800D03*
D18*
X113551000Y-31239800D03*
X124551000Y-31239800D03*
D19*
X114051000Y-35039800D03*
D20*
X113971000Y-31239800D03*
X124131000Y-31239800D03*
D21*
X121551000Y-35239800D03*
D22*
X122861000Y-33779800D02*
X121551010Y-35239808D01*
D19*
X119051000Y-37139800D03*
D21*
X116511000Y-36319800D03*
D22*
X116551000Y-35739800D02*
X116511458Y-36319832D01*
D16*
X100051000Y-28864800D03*
D17*
X105271000Y-24664800D03*
D18*
X94551000Y-28864800D03*
X105551000Y-28864800D03*
D19*
X95051000Y-32664800D03*
D20*
X94971000Y-28864800D03*
X105131000Y-28864800D03*
D21*
X102551000Y-32864800D03*
D22*
X103861000Y-31404800D02*
X102551010Y-32864808D01*
D19*
X100051000Y-34764800D03*
D21*
X97511000Y-33944800D03*
D22*
X97551000Y-33364800D02*
X97511458Y-33944832D01*
D16*
X81051400Y-26489800D03*
D17*
X86271400Y-22289800D03*
D18*
X75551400Y-26489800D03*
X86551400Y-26489800D03*
D19*
X76051400Y-30289800D03*
D20*
X75971400Y-26489800D03*
X86131400Y-26489800D03*
D21*
X83551400Y-30489800D03*
D22*
X84861400Y-29029800D02*
X83551410Y-30489808D01*
D19*
X81051400Y-32389800D03*
D21*
X78511400Y-31569800D03*
D22*
X78551400Y-30989800D02*
X78511858Y-31569832D01*
D16*
X62051400Y-28864800D03*
D17*
X67271400Y-24664800D03*
D18*
X56551400Y-28864800D03*
X67551400Y-28864800D03*
D19*
X57051400Y-32664800D03*
D20*
X56971400Y-28864800D03*
X67131400Y-28864800D03*
D21*
X64551400Y-32864800D03*
D22*
X65861400Y-31404800D02*
X64551410Y-32864808D01*
D19*
X62051400Y-34764800D03*
D21*
X59511400Y-33944800D03*
D22*
X59551400Y-33364800D02*
X59511858Y-33944832D01*
D16*
X43051400Y-33614800D03*
D17*
X48271400Y-29414800D03*
D18*
X37551400Y-33614800D03*
X48551400Y-33614800D03*
D19*
X38051400Y-37414800D03*
D20*
X37971400Y-33614800D03*
X48131400Y-33614800D03*
D21*
X45551400Y-37614800D03*
D22*
X46861400Y-36154800D02*
X45551410Y-37614808D01*
D19*
X43051400Y-39514800D03*
D21*
X40511400Y-38694800D03*
D22*
X40551400Y-38114800D02*
X40511858Y-38694832D01*
D16*
X24051400Y-33614800D03*
D17*
X29271400Y-29414800D03*
D18*
X18551400Y-33614800D03*
X29551400Y-33614800D03*
D19*
X19051400Y-37414800D03*
D20*
X18971400Y-33614800D03*
X29131400Y-33614800D03*
D21*
X26551400Y-37614800D03*
D22*
X27861400Y-36154800D02*
X26551410Y-37614808D01*
D19*
X24051400Y-39514800D03*
D21*
X21511400Y-38694800D03*
D22*
X21551400Y-38114800D02*
X21511858Y-38694832D01*
D23*
X149327000Y-53864800D03*
D20*
X161550000Y-88590391D03*
D17*
X170337307Y-95410453D03*
D18*
X161340000Y-88226660D03*
X166840000Y-97752940D03*
D19*
X158299103Y-90559673D03*
D20*
X166630000Y-97389209D03*
D21*
X161875898Y-97154864D03*
D22*
X158942886Y-93074736D02*
X158420792Y-93330506D01*
D16*
X164090000Y-92989800D03*
D22*
X163795295Y-97559357D02*
X161875895Y-97154875D01*
D19*
X158980450Y-95939800D03*
D21*
X158420591Y-93330095D03*
D20*
X131261000Y-97389209D03*
D17*
X132773693Y-86369147D03*
D18*
X131051000Y-97752940D03*
X136551000Y-88226660D03*
D19*
X134591897Y-99219927D03*
D20*
X136341000Y-88590391D03*
D21*
X138515102Y-92824736D03*
D22*
X136448114Y-97404864D02*
X136930664Y-97729124D01*
D16*
X133801000Y-92989800D03*
D22*
X137905705Y-90960243D02*
X138515115Y-92824733D01*
D19*
X138910550Y-95939800D03*
D21*
X136930409Y-97729505D03*
D24*
X135351000Y-60528200D03*
X140431000Y-60528200D03*
X137891000Y-60528200D03*
X142971000Y-60528200D03*
X155682000Y-60528200D03*
X160762000Y-60528200D03*
X158222000Y-60528200D03*
X163302000Y-60528200D03*
D25*
X128051000Y-64389800D03*
X128051000Y-59309800D03*
X128051000Y-61849800D03*
X170602000Y-64389800D03*
X170602000Y-59309800D03*
X170602000Y-61849800D03*
D26*
G36*
X166538010Y-88082814D02*
G01*
X167750446Y-87382814D01*
X168750446Y-89114864D01*
X167538010Y-89814864D01*
X166538010Y-88082814D01*
G37*
G36*
X168053554Y-87207814D02*
G01*
X169265990Y-86507814D01*
X170265990Y-88239864D01*
X169053554Y-88939864D01*
X168053554Y-87207814D01*
G37*
G36*
X170453554Y-91364736D02*
G01*
X171665990Y-90664736D01*
X172665990Y-92396786D01*
X171453554Y-93096786D01*
X170453554Y-91364736D01*
G37*
G36*
X168938010Y-92239736D02*
G01*
X170150446Y-91539736D01*
X171150446Y-93271786D01*
X169938010Y-93971786D01*
X168938010Y-92239736D01*
G37*
G36*
X188478507Y-81588482D02*
G01*
X188840854Y-82940778D01*
X186909003Y-83458416D01*
X186546656Y-82106120D01*
X188478507Y-81588482D01*
G37*
G36*
X188931441Y-83278852D02*
G01*
X189293788Y-84631148D01*
X187361937Y-85148786D01*
X186999590Y-83796490D01*
X188931441Y-83278852D01*
G37*
G36*
X184294997Y-84521184D02*
G01*
X184657344Y-85873480D01*
X182725493Y-86391118D01*
X182363146Y-85038822D01*
X184294997Y-84521184D01*
G37*
G36*
X183842063Y-82830814D02*
G01*
X184204410Y-84183110D01*
X182272559Y-84700748D01*
X181910212Y-83348452D01*
X183842063Y-82830814D01*
G37*
D27*
X205702000Y-81864800D03*
X205702000Y-80114800D03*
X210502000Y-80114800D03*
X210502000Y-81864800D03*
X177202000Y-64614800D03*
X177202000Y-62864800D03*
X182002000Y-62864800D03*
X182002000Y-64614800D03*
X196202000Y-62239800D03*
X196202000Y-60489800D03*
X201002000Y-60489800D03*
X201002000Y-62239800D03*
X215202000Y-59864800D03*
X215202000Y-58114800D03*
X220002000Y-58114800D03*
X220002000Y-59864800D03*
X234202000Y-62239800D03*
X234202000Y-60489800D03*
X239002000Y-60489800D03*
X239002000Y-62239800D03*
X253202000Y-66989800D03*
X253202000Y-65239800D03*
X258002000Y-65239800D03*
X258002000Y-66989800D03*
X272202000Y-66989800D03*
X272202000Y-65239800D03*
X277002000Y-65239800D03*
X277002000Y-66989800D03*
X177202000Y-45614800D03*
X177202000Y-43864800D03*
X182002000Y-43864800D03*
X182002000Y-45614800D03*
X196202000Y-43239800D03*
X196202000Y-41489800D03*
X201002000Y-41489800D03*
X201002000Y-43239800D03*
X215202000Y-40864800D03*
X215202000Y-39114800D03*
X220002000Y-39114800D03*
X220002000Y-40864800D03*
X234202000Y-43239800D03*
X234202000Y-41489800D03*
X239002000Y-41489800D03*
X239002000Y-43239800D03*
X253202000Y-47989800D03*
X253202000Y-46239800D03*
X258002000Y-46239800D03*
X258002000Y-47989800D03*
X272202000Y-47989800D03*
X272202000Y-46239800D03*
X277002000Y-46239800D03*
X277002000Y-47989800D03*
X177202000Y-26614800D03*
X177202000Y-24864800D03*
X182002000Y-24864800D03*
X182002000Y-26614800D03*
X196202000Y-24239800D03*
X196202000Y-22489800D03*
X201002000Y-22489800D03*
X201002000Y-24239800D03*
X215202000Y-21864800D03*
X215202000Y-20114800D03*
X220002000Y-20114800D03*
X220002000Y-21864800D03*
X234202000Y-24239800D03*
X234202000Y-22489800D03*
X239002000Y-22489800D03*
X239002000Y-24239800D03*
X253202000Y-28989800D03*
X253202000Y-27239800D03*
X258002000Y-27239800D03*
X258002000Y-28989800D03*
X272202000Y-28989800D03*
X272202000Y-27239800D03*
X277002000Y-27239800D03*
X277002000Y-28989800D03*
D26*
G36*
X129387010Y-86507814D02*
G01*
X130599446Y-87207814D01*
X129599446Y-88939864D01*
X128387010Y-88239864D01*
X129387010Y-86507814D01*
G37*
G36*
X130902554Y-87382814D02*
G01*
X132114990Y-88082814D01*
X131114990Y-89814864D01*
X129902554Y-89114864D01*
X130902554Y-87382814D01*
G37*
G36*
X128502554Y-91539736D02*
G01*
X129714990Y-92239736D01*
X128714990Y-93971786D01*
X127502554Y-93271786D01*
X128502554Y-91539736D01*
G37*
G36*
X126987010Y-90664736D02*
G01*
X128199446Y-91364736D01*
X127199446Y-93096786D01*
X125987010Y-92396786D01*
X126987010Y-90664736D01*
G37*
G36*
X109359212Y-84631148D02*
G01*
X109721559Y-83278852D01*
X111653410Y-83796490D01*
X111291063Y-85148786D01*
X109359212Y-84631148D01*
G37*
G36*
X109812146Y-82940778D02*
G01*
X110174493Y-81588482D01*
X112106344Y-82106120D01*
X111743997Y-83458416D01*
X109812146Y-82940778D01*
G37*
G36*
X114448590Y-84183110D02*
G01*
X114810937Y-82830814D01*
X116742788Y-83348452D01*
X116380441Y-84700748D01*
X114448590Y-84183110D01*
G37*
G36*
X113995656Y-85873480D02*
G01*
X114358003Y-84521184D01*
X116289854Y-85038822D01*
X115927507Y-86391118D01*
X113995656Y-85873480D01*
G37*
D27*
X88151400Y-81864800D03*
X88151400Y-80114800D03*
X92951400Y-80114800D03*
X92951400Y-81864800D03*
X116651000Y-64614800D03*
X116651000Y-62864800D03*
X121451000Y-62864800D03*
X121451000Y-64614800D03*
X97651000Y-62239800D03*
X97651000Y-60489800D03*
X102451000Y-60489800D03*
X102451000Y-62239800D03*
X78651400Y-59864800D03*
X78651400Y-58114800D03*
X83451400Y-58114800D03*
X83451400Y-59864800D03*
X59651400Y-62239800D03*
X59651400Y-60489800D03*
X64451400Y-60489800D03*
X64451400Y-62239800D03*
X40651400Y-66989800D03*
X40651400Y-65239800D03*
X45451400Y-65239800D03*
X45451400Y-66989800D03*
X21651400Y-66989800D03*
X21651400Y-65239800D03*
X26451400Y-65239800D03*
X26451400Y-66989800D03*
X116651000Y-45614800D03*
X116651000Y-43864800D03*
X121451000Y-43864800D03*
X121451000Y-45614800D03*
X97651000Y-43239800D03*
X97651000Y-41489800D03*
X102451000Y-41489800D03*
X102451000Y-43239800D03*
X78651400Y-40864800D03*
X78651400Y-39114800D03*
X83451400Y-39114800D03*
X83451400Y-40864800D03*
X59651400Y-43239800D03*
X59651400Y-41489800D03*
X64451400Y-41489800D03*
X64451400Y-43239800D03*
X40651400Y-47989800D03*
X40651400Y-46239800D03*
X45451400Y-46239800D03*
X45451400Y-47989800D03*
X21651400Y-47989800D03*
X21651400Y-46239800D03*
X26451400Y-46239800D03*
X26451400Y-47989800D03*
X116651000Y-26614800D03*
X116651000Y-24864800D03*
X121451000Y-24864800D03*
X121451000Y-26614800D03*
X97651000Y-24239800D03*
X97651000Y-22489800D03*
X102451000Y-22489800D03*
X102451000Y-24239800D03*
X78651400Y-21864800D03*
X78651400Y-20114800D03*
X83451400Y-20114800D03*
X83451400Y-21864800D03*
X59651400Y-24239800D03*
X59651400Y-22489800D03*
X64451400Y-22489800D03*
X64451400Y-24239800D03*
X40651400Y-28989800D03*
X40651400Y-27239800D03*
X45451400Y-27239800D03*
X45451400Y-28989800D03*
X21651400Y-28989800D03*
X21651400Y-27239800D03*
X26451400Y-27239800D03*
X26451400Y-28989800D03*
D28*
X181548000Y-78500000D03*
X181548000Y-80250000D03*
X177656000Y-80250000D03*
X177656000Y-78500000D03*
X219548000Y-73597800D03*
X219548000Y-75347800D03*
X215656000Y-75347800D03*
X215656000Y-73597800D03*
X257548000Y-60514800D03*
X257548000Y-62264800D03*
X253656000Y-62264800D03*
X253656000Y-60514800D03*
X177656000Y-40864800D03*
X177656000Y-39114800D03*
X181548000Y-39114800D03*
X181548000Y-40864800D03*
X219548000Y-34414800D03*
X219548000Y-36164800D03*
X215656000Y-36164800D03*
X215656000Y-34414800D03*
X257548000Y-41514800D03*
X257548000Y-43264800D03*
X253656000Y-43264800D03*
X253656000Y-41514800D03*
X117105000Y-80250000D03*
X117105000Y-78500000D03*
X120997000Y-78500000D03*
X120997000Y-80250000D03*
X79105400Y-75347800D03*
X79105400Y-73597800D03*
X82997400Y-73597800D03*
X82997400Y-75347800D03*
X41105400Y-62264800D03*
X41105400Y-60514800D03*
X44997400Y-60514800D03*
X44997400Y-62264800D03*
X120997000Y-39114800D03*
X120997000Y-40864800D03*
X117105000Y-40864800D03*
X117105000Y-39114800D03*
X82997400Y-34414800D03*
X82997400Y-36164800D03*
X79105400Y-36164800D03*
X79105400Y-34414800D03*
X44997400Y-41514800D03*
X44997400Y-43264800D03*
X41105400Y-43264800D03*
X41105400Y-41514800D03*
D29*
X197102000Y-87889800D03*
X197102000Y-84589800D03*
X200102000Y-87889800D03*
X200102000Y-84589800D03*
X216102000Y-88139800D03*
X216102000Y-84839800D03*
X187602000Y-68514800D03*
X187602000Y-65214800D03*
X190602000Y-68514800D03*
X190602000Y-65214800D03*
X209602000Y-66139800D03*
X209602000Y-62839800D03*
X228602000Y-68514800D03*
X228602000Y-65214800D03*
X247602000Y-73264800D03*
X247602000Y-69964800D03*
X282602000Y-73264800D03*
X282602000Y-69964800D03*
X187602000Y-49514800D03*
X187602000Y-46214800D03*
X190602000Y-49514800D03*
X190602000Y-46214800D03*
X209602000Y-47139800D03*
X209602000Y-43839800D03*
X228602000Y-49514800D03*
X228602000Y-46214800D03*
X247602000Y-54264800D03*
X247602000Y-50964800D03*
X282602000Y-54264800D03*
X282602000Y-50964800D03*
X187602000Y-30514800D03*
X187602000Y-27214800D03*
X190602000Y-30514800D03*
X190602000Y-27214800D03*
X209602000Y-28139800D03*
X209602000Y-24839800D03*
X228602000Y-30514800D03*
X228602000Y-27214800D03*
X247602000Y-35264800D03*
X247602000Y-31964800D03*
D30*
X273201000Y-42265600D03*
X269901000Y-42265600D03*
D29*
X101551000Y-87889800D03*
X101551000Y-84589800D03*
X98551400Y-87889800D03*
X98551400Y-84589800D03*
X82551400Y-88139800D03*
X82551400Y-84839800D03*
X111051000Y-68514800D03*
X111051000Y-65214800D03*
X108051000Y-68514800D03*
X108051000Y-65214800D03*
X89051400Y-66139800D03*
X89051400Y-62839800D03*
X70051400Y-68514800D03*
X70051400Y-65214800D03*
X51051400Y-73264800D03*
X51051400Y-69964800D03*
X16051400Y-73264800D03*
X16051400Y-69964800D03*
X111051000Y-49514800D03*
X111051000Y-46214800D03*
X108051000Y-49514800D03*
X108051000Y-46214800D03*
X89051400Y-47139800D03*
X89051400Y-43839800D03*
X70051400Y-49514800D03*
X70051400Y-46214800D03*
X51051400Y-54264800D03*
X51051400Y-50964800D03*
X16051400Y-54264800D03*
X16051400Y-50964800D03*
X111051000Y-30514800D03*
X111051000Y-27214800D03*
X108051000Y-30514800D03*
X108051000Y-27214800D03*
X89051400Y-28139800D03*
X89051400Y-24839800D03*
X70051400Y-30514800D03*
X70051400Y-27214800D03*
X51051400Y-35264800D03*
X51051400Y-31964800D03*
D30*
X25451800Y-42265600D03*
X28751800Y-42265600D03*
D31*
X138861000Y-71246800D03*
X138861000Y-66166800D03*
X136271000Y-71246800D03*
X136271000Y-66166800D03*
X159893000Y-73735800D03*
X162332000Y-73761800D03*
X136321000Y-73761800D03*
X138760000Y-73735800D03*
D32*
X265102000Y-29692600D03*
D33*
X265102000Y-75572800D03*
D34*
X265102000Y-61989800D03*
X265102000Y-42989800D03*
D31*
X159792000Y-71246800D03*
X159792000Y-66166800D03*
X162382000Y-71246800D03*
X162382000Y-66166800D03*
D16*
X274602000Y-33614800D03*
D19*
X267602000Y-31114800D03*
X282102000Y-31114800D03*
X267602000Y-36114800D03*
D35*
X282102000Y-36114800D03*
D19*
X282102000Y-33614800D03*
D36*
X189102000Y-39489800D03*
D37*
X164922000Y-68206420D03*
X164922000Y-69207180D03*
D38*
X154942000Y-67721800D03*
X154942000Y-73501800D03*
D39*
X151252000Y-74931800D03*
X151252000Y-66291800D03*
D40*
X155422000Y-74931800D03*
X155422000Y-66291800D03*
D36*
X221852000Y-79239800D03*
X175352000Y-86989800D03*
X246102000Y-43239800D03*
X265102000Y-61989800D03*
X246102000Y-62239800D03*
X264922000Y-43180000D03*
D41*
X166852000Y-72239800D03*
X152352000Y-80739800D03*
D16*
X24051400Y-33614800D03*
D19*
X31051400Y-36114800D03*
X16551400Y-36114800D03*
X31051400Y-31114800D03*
D35*
X16551400Y-31114800D03*
D19*
X16551400Y-33614800D03*
D32*
X33551400Y-29692600D03*
D34*
X33551400Y-42989800D03*
X33551400Y-61989800D03*
D33*
X33551400Y-75572800D03*
D38*
X142949000Y-73501800D03*
X142949000Y-67721800D03*
D39*
X146639000Y-66291800D03*
X146639000Y-74931800D03*
D40*
X142469000Y-66291800D03*
X142469000Y-74931800D03*
D37*
X133731000Y-68206420D03*
X133731000Y-69207180D03*
D36*
X109551000Y-39489800D03*
X123301000Y-86989800D03*
X52551400Y-43239800D03*
X76801400Y-79239800D03*
X52551400Y-62239800D03*
X33551400Y-61989800D03*
X33551400Y-43239800D03*
D41*
X131801000Y-72239800D03*
X146301000Y-80739800D03*
M02*
