G04 #@! TF.GenerationSoftware,KiCad,Pcbnew,(5.1.5)-3*
G04 #@! TF.CreationDate,2020-07-27T19:09:03+07:00*
G04 #@! TF.ProjectId,corne-classic,636f726e-652d-4636-9c61-737369632e6b,1.1*
G04 #@! TF.SameCoordinates,Original*
G04 #@! TF.FileFunction,Profile,NP*
%FSLAX46Y46*%
G04 Gerber Fmt 4.6, Leading zero omitted, Abs format (unit mm)*
G04 Created by KiCad (PCBNEW (5.1.5)-3) date 2020-07-27 19:09:03*
%MOMM*%
%LPD*%
G04 APERTURE LIST*
%ADD10C,0.150000*%
G04 APERTURE END LIST*
D10*
X149351800Y-84489800D02*
G75*
G02X149851800Y-84989800I0J-500000D01*
G01*
X148801200Y-84988600D02*
G75*
G02X149301200Y-84488600I500000J0D01*
G01*
X149301200Y-84488600D02*
X149351800Y-84489800D01*
X149352000Y-23241000D02*
X149301400Y-23239800D01*
X149852000Y-22741000D02*
G75*
G02X149352000Y-23241000I-500000J0D01*
G01*
X149301400Y-23239800D02*
G75*
G02X148801400Y-22739800I0J500000D01*
G01*
X181351800Y-61489800D02*
X181351800Y-65989800D01*
X172501800Y-90689800D02*
X168501800Y-92889800D01*
X183301800Y-82289800D02*
X186701800Y-81389800D01*
X184501800Y-86689800D02*
X183301800Y-82289800D01*
X187901800Y-85789800D02*
X184501800Y-86689800D01*
X186701800Y-81389800D02*
X187901800Y-85789800D01*
X206351800Y-83239800D02*
X206351800Y-78789800D01*
X209851800Y-83239800D02*
X206351800Y-83239800D01*
X209851800Y-78789800D02*
X209851800Y-83239800D01*
X177851800Y-61489800D02*
X181351800Y-61489800D01*
X177851800Y-65989800D02*
X177851800Y-61489800D01*
X181351800Y-65989800D02*
X177851800Y-65989800D01*
X196851800Y-59139800D02*
X200351800Y-59139800D01*
X196851800Y-63639800D02*
X196851800Y-59139800D01*
X200351800Y-63639800D02*
X196851800Y-63639800D01*
X200351800Y-59139800D02*
X200351800Y-63639800D01*
X215851800Y-56739800D02*
X219351800Y-56739800D01*
X215851800Y-61239800D02*
X215851800Y-56739800D01*
X219351800Y-61239800D02*
X215851800Y-61239800D01*
X219351800Y-56739800D02*
X219351800Y-61239800D01*
X234851800Y-59139800D02*
X238351800Y-59139800D01*
X234851800Y-63639800D02*
X234851800Y-59139800D01*
X238351800Y-63639800D02*
X234851800Y-63639800D01*
X238351800Y-59139800D02*
X238351800Y-63639800D01*
X177851800Y-42489800D02*
X181351800Y-42489800D01*
X177851800Y-46989800D02*
X177851800Y-42489800D01*
X181351800Y-46989800D02*
X177851800Y-46989800D01*
X181351800Y-42489800D02*
X181351800Y-46989800D01*
X196851800Y-40139800D02*
X200351800Y-40139800D01*
X196851800Y-44639800D02*
X196851800Y-40139800D01*
X200351800Y-44639800D02*
X196851800Y-44639800D01*
X200351800Y-40139800D02*
X200351800Y-44639800D01*
X215851800Y-37739800D02*
X219351800Y-37739800D01*
X215851800Y-42239800D02*
X215851800Y-37739800D01*
X219351800Y-42239800D02*
X215851800Y-42239800D01*
X219351800Y-37739800D02*
X219351800Y-42239800D01*
X234851800Y-40139800D02*
X238351800Y-40139800D01*
X234851800Y-44639800D02*
X234851800Y-40139800D01*
X238351800Y-44639800D02*
X234851800Y-44639800D01*
X238351800Y-40139800D02*
X238351800Y-44639800D01*
X177851800Y-23489800D02*
X181351800Y-23489800D01*
X177851800Y-27989800D02*
X177851800Y-23489800D01*
X181351800Y-27989800D02*
X177851800Y-27989800D01*
X181351800Y-23489800D02*
X181351800Y-27989800D01*
X196851800Y-21139800D02*
X200351800Y-21139800D01*
X196851800Y-25639800D02*
X196851800Y-21139800D01*
X200351800Y-25639800D02*
X196851800Y-25639800D01*
X200351800Y-21139800D02*
X200351800Y-25639800D01*
X215851800Y-18739800D02*
X219351800Y-18739800D01*
X215851800Y-23239800D02*
X215851800Y-18739800D01*
X219351800Y-23239800D02*
X215851800Y-23239800D01*
X219351800Y-18739800D02*
X219351800Y-23239800D01*
X234851800Y-21139800D02*
X238351800Y-21139800D01*
X234851800Y-25639800D02*
X234851800Y-21139800D01*
X238351800Y-25639800D02*
X234851800Y-25639800D01*
X238351800Y-21139800D02*
X238351800Y-25639800D01*
X253851800Y-63889800D02*
X257351800Y-63889800D01*
X253851800Y-68389800D02*
X253851800Y-63889800D01*
X257351800Y-68389800D02*
X253851800Y-68389800D01*
X257351800Y-63889800D02*
X257351800Y-68389800D01*
X272851800Y-63889800D02*
X276351800Y-63889800D01*
X272851800Y-68389800D02*
X272851800Y-63889800D01*
X276351800Y-68389800D02*
X272851800Y-68389800D01*
X276351800Y-63889800D02*
X276351800Y-68389800D01*
X253851800Y-44889800D02*
X257351800Y-44889800D01*
X253851800Y-49389800D02*
X253851800Y-44889800D01*
X257351800Y-49389800D02*
X253851800Y-49389800D01*
X257351800Y-44889800D02*
X257351800Y-49389800D01*
X272851800Y-44889800D02*
X276351800Y-44889800D01*
X272851800Y-49389800D02*
X272851800Y-44889800D01*
X276351800Y-49389800D02*
X272851800Y-49389800D01*
X276351800Y-44889800D02*
X276351800Y-49389800D01*
X253851800Y-25889800D02*
X257351800Y-25889800D01*
X253851800Y-30389800D02*
X253851800Y-25889800D01*
X257351800Y-30389800D02*
X253851800Y-30389800D01*
X257351800Y-25889800D02*
X257351800Y-30389800D01*
X272851800Y-25889800D02*
X276351800Y-25889800D01*
X272851800Y-30389800D02*
X272851800Y-25889800D01*
X276351800Y-30389800D02*
X272851800Y-30389800D01*
X276351800Y-25889800D02*
X276351800Y-30389800D01*
X283101800Y-80739800D02*
X266101800Y-80739800D01*
X246101800Y-24489800D02*
X264101800Y-24489800D01*
X245601800Y-20239800D02*
X245601800Y-23989800D01*
X227101800Y-19739800D02*
X245101800Y-19739800D01*
X226601800Y-17989800D02*
X226601800Y-19239800D01*
X209101800Y-17489800D02*
X226101800Y-17489800D01*
X208601800Y-19239800D02*
X208601800Y-17989800D01*
X190101800Y-19739800D02*
X208101800Y-19739800D01*
X189601800Y-21739800D02*
X189601800Y-20239800D01*
X170101800Y-22239800D02*
X189101800Y-22239800D01*
X265101800Y-79739800D02*
G75*
G02X265601800Y-80239800I0J-500000D01*
G01*
X265601800Y-24989800D02*
G75*
G02X265101800Y-25489800I-500000J0D01*
G01*
X265101800Y-25489800D02*
G75*
G02X264601800Y-24989800I0J500000D01*
G01*
X283601800Y-24989800D02*
X283601800Y-80239800D01*
X266101800Y-24489800D02*
X283101800Y-24489800D01*
X283101800Y-24489800D02*
G75*
G02X283601800Y-24989800I0J-500000D01*
G01*
X150351800Y-22239800D02*
X170101800Y-22239800D01*
X165031800Y-109519800D02*
G75*
G02X163801800Y-109289800I-500000J730000D01*
G01*
X217205353Y-95343353D02*
G75*
G02X216851800Y-95489800I-353553J353553D01*
G01*
X227748247Y-80886247D02*
G75*
G02X228101800Y-80739800I353553J-353553D01*
G01*
X227748247Y-80886247D02*
X217205353Y-95343353D01*
X283601800Y-80239800D02*
G75*
G02X283101800Y-80739800I-500000J0D01*
G01*
X266101800Y-80739800D02*
G75*
G02X265601800Y-80239800I0J500000D01*
G01*
X264601800Y-80239800D02*
G75*
G02X264101800Y-80739800I-500000J0D01*
G01*
X264601800Y-80239800D02*
G75*
G02X265101800Y-79739800I500000J0D01*
G01*
X265601800Y-24989800D02*
G75*
G02X266101800Y-24489800I500000J0D01*
G01*
X264101800Y-24489800D02*
G75*
G02X264601800Y-24989800I0J-500000D01*
G01*
X246101800Y-24489800D02*
G75*
G02X245601800Y-23989800I0J500000D01*
G01*
X245101800Y-19739800D02*
G75*
G02X245601800Y-20239800I0J-500000D01*
G01*
X227101800Y-19739800D02*
G75*
G02X226601800Y-19239800I0J500000D01*
G01*
X226101800Y-17489800D02*
G75*
G02X226601800Y-17989800I0J-500000D01*
G01*
X208601800Y-17989800D02*
G75*
G02X209101800Y-17489800I500000J0D01*
G01*
X208601800Y-19239800D02*
G75*
G02X208101800Y-19739800I-500000J0D01*
G01*
X189601800Y-20239800D02*
G75*
G02X190101800Y-19739800I500000J0D01*
G01*
X189601800Y-21739800D02*
G75*
G02X189101800Y-22239800I-500000J0D01*
G01*
X149851800Y-22739800D02*
G75*
G02X150351800Y-22239800I500000J0D01*
G01*
X163801800Y-109289800D02*
X149851800Y-84989800D01*
X179851800Y-100989800D02*
X165031800Y-109519800D01*
X216851800Y-95489800D02*
X179851800Y-100989800D01*
X206351800Y-78789800D02*
X209851800Y-78789800D01*
X228101800Y-80739800D02*
X264101800Y-80739800D01*
X170701800Y-87589800D02*
X172501800Y-90689800D01*
X166801800Y-89889800D02*
X170701800Y-87589800D01*
X168501800Y-92889800D02*
X166801800Y-89889800D01*
X33551400Y-25489800D02*
G75*
G03X34051400Y-24989800I0J500000D01*
G01*
X33051400Y-24989800D02*
G75*
G03X33551400Y-25489800I500000J0D01*
G01*
X33551400Y-79739800D02*
G75*
G03X33051400Y-80239800I0J-500000D01*
G01*
X128551400Y-22239800D02*
X109551400Y-22239800D01*
X109051400Y-21739800D02*
X109051400Y-20239800D01*
X108551400Y-19739800D02*
X90551400Y-19739800D01*
X90051400Y-19239800D02*
X90051400Y-17989800D01*
X89551400Y-17489800D02*
X72551400Y-17489800D01*
X72051400Y-17989800D02*
X72051400Y-19239800D01*
X71551400Y-19739800D02*
X53551400Y-19739800D01*
X53051400Y-20239800D02*
X53051400Y-23989800D01*
X52551400Y-24489800D02*
X34551400Y-24489800D01*
X15551400Y-80739800D02*
X32551400Y-80739800D01*
X22301400Y-25889800D02*
X22301400Y-30389800D01*
X22301400Y-30389800D02*
X25801400Y-30389800D01*
X25801400Y-30389800D02*
X25801400Y-25889800D01*
X25801400Y-25889800D02*
X22301400Y-25889800D01*
X41301400Y-25889800D02*
X41301400Y-30389800D01*
X41301400Y-30389800D02*
X44801400Y-30389800D01*
X44801400Y-30389800D02*
X44801400Y-25889800D01*
X44801400Y-25889800D02*
X41301400Y-25889800D01*
X22301400Y-44889800D02*
X22301400Y-49389800D01*
X22301400Y-49389800D02*
X25801400Y-49389800D01*
X25801400Y-49389800D02*
X25801400Y-44889800D01*
X25801400Y-44889800D02*
X22301400Y-44889800D01*
X41301400Y-44889800D02*
X41301400Y-49389800D01*
X41301400Y-49389800D02*
X44801400Y-49389800D01*
X44801400Y-49389800D02*
X44801400Y-44889800D01*
X44801400Y-44889800D02*
X41301400Y-44889800D01*
X22301400Y-63889800D02*
X22301400Y-68389800D01*
X22301400Y-68389800D02*
X25801400Y-68389800D01*
X25801400Y-68389800D02*
X25801400Y-63889800D01*
X25801400Y-63889800D02*
X22301400Y-63889800D01*
X41301400Y-63889800D02*
X41301400Y-68389800D01*
X41301400Y-68389800D02*
X44801400Y-68389800D01*
X44801400Y-68389800D02*
X44801400Y-63889800D01*
X44801400Y-63889800D02*
X41301400Y-63889800D01*
X60301400Y-21139800D02*
X60301400Y-25639800D01*
X60301400Y-25639800D02*
X63801400Y-25639800D01*
X63801400Y-25639800D02*
X63801400Y-21139800D01*
X63801400Y-21139800D02*
X60301400Y-21139800D01*
X79301400Y-18739800D02*
X79301400Y-23239800D01*
X79301400Y-23239800D02*
X82801400Y-23239800D01*
X82801400Y-23239800D02*
X82801400Y-18739800D01*
X82801400Y-18739800D02*
X79301400Y-18739800D01*
X98301400Y-21139800D02*
X98301400Y-25639800D01*
X98301400Y-25639800D02*
X101801400Y-25639800D01*
X101801400Y-25639800D02*
X101801400Y-21139800D01*
X101801400Y-21139800D02*
X98301400Y-21139800D01*
X117301400Y-23489800D02*
X117301400Y-27989800D01*
X117301400Y-27989800D02*
X120801400Y-27989800D01*
X120801400Y-27989800D02*
X120801400Y-23489800D01*
X120801400Y-23489800D02*
X117301400Y-23489800D01*
X60301400Y-40139800D02*
X60301400Y-44639800D01*
X60301400Y-44639800D02*
X63801400Y-44639800D01*
X63801400Y-44639800D02*
X63801400Y-40139800D01*
X63801400Y-40139800D02*
X60301400Y-40139800D01*
X79301400Y-37739800D02*
X79301400Y-42239800D01*
X79301400Y-42239800D02*
X82801400Y-42239800D01*
X82801400Y-42239800D02*
X82801400Y-37739800D01*
X82801400Y-37739800D02*
X79301400Y-37739800D01*
X98301400Y-40139800D02*
X98301400Y-44639800D01*
X98301400Y-44639800D02*
X101801400Y-44639800D01*
X101801400Y-44639800D02*
X101801400Y-40139800D01*
X101801400Y-40139800D02*
X98301400Y-40139800D01*
X117301400Y-42489800D02*
X117301400Y-46989800D01*
X117301400Y-46989800D02*
X120801400Y-46989800D01*
X120801400Y-46989800D02*
X120801400Y-42489800D01*
X120801400Y-42489800D02*
X117301400Y-42489800D01*
X60301400Y-59139800D02*
X60301400Y-63639800D01*
X60301400Y-63639800D02*
X63801400Y-63639800D01*
X63801400Y-63639800D02*
X63801400Y-59139800D01*
X63801400Y-59139800D02*
X60301400Y-59139800D01*
X79301400Y-56739800D02*
X79301400Y-61239800D01*
X79301400Y-61239800D02*
X82801400Y-61239800D01*
X82801400Y-61239800D02*
X82801400Y-56739800D01*
X82801400Y-56739800D02*
X79301400Y-56739800D01*
X98301400Y-59139800D02*
X98301400Y-63639800D01*
X98301400Y-63639800D02*
X101801400Y-63639800D01*
X101801400Y-63639800D02*
X101801400Y-59139800D01*
X101801400Y-59139800D02*
X98301400Y-59139800D01*
X117301400Y-61489800D02*
X117301400Y-65989800D01*
X117301400Y-65989800D02*
X120801400Y-65989800D01*
X120801400Y-65989800D02*
X120801400Y-61489800D01*
X120801400Y-61489800D02*
X117301400Y-61489800D01*
X88801400Y-78789800D02*
X88801400Y-83239800D01*
X88801400Y-83239800D02*
X92301400Y-83239800D01*
X92301400Y-83239800D02*
X92301400Y-78789800D01*
X111951400Y-81389800D02*
X110751400Y-85789800D01*
X110751400Y-85789800D02*
X114151400Y-86689800D01*
X114151400Y-86689800D02*
X115351400Y-82289800D01*
X115351400Y-82289800D02*
X111951400Y-81389800D01*
X126151400Y-90689800D02*
X130151400Y-92889800D01*
X130151400Y-92889800D02*
X131851400Y-89889800D01*
X131851400Y-89889800D02*
X127951400Y-87589800D01*
X127951400Y-87589800D02*
X126151400Y-90689800D01*
X70551400Y-80739800D02*
X34551400Y-80739800D01*
X92301400Y-78789800D02*
X88801400Y-78789800D01*
X81801400Y-95489800D02*
X118801400Y-100989800D01*
X118801400Y-100989800D02*
X133621400Y-109519800D01*
X134851400Y-109289800D02*
X148801400Y-84989800D01*
X148801400Y-22739800D02*
G75*
G03X148301400Y-22239800I-500000J0D01*
G01*
X109051400Y-21739800D02*
G75*
G03X109551400Y-22239800I500000J0D01*
G01*
X109051400Y-20239800D02*
G75*
G03X108551400Y-19739800I-500000J0D01*
G01*
X90051400Y-19239800D02*
G75*
G03X90551400Y-19739800I500000J0D01*
G01*
X90051400Y-17989800D02*
G75*
G03X89551400Y-17489800I-500000J0D01*
G01*
X72551400Y-17489800D02*
G75*
G03X72051400Y-17989800I0J-500000D01*
G01*
X71551400Y-19739800D02*
G75*
G03X72051400Y-19239800I0J500000D01*
G01*
X53551400Y-19739800D02*
G75*
G03X53051400Y-20239800I0J-500000D01*
G01*
X52551400Y-24489800D02*
G75*
G03X53051400Y-23989800I0J500000D01*
G01*
X34551400Y-24489800D02*
G75*
G03X34051400Y-24989800I0J-500000D01*
G01*
X33051400Y-24989800D02*
G75*
G03X32551400Y-24489800I-500000J0D01*
G01*
X34051400Y-80239800D02*
G75*
G03X33551400Y-79739800I-500000J0D01*
G01*
X34051400Y-80239800D02*
G75*
G03X34551400Y-80739800I500000J0D01*
G01*
X32551400Y-80739800D02*
G75*
G03X33051400Y-80239800I0J500000D01*
G01*
X15051400Y-80239800D02*
G75*
G03X15551400Y-80739800I500000J0D01*
G01*
X70904953Y-80886247D02*
X81447847Y-95343353D01*
X70904953Y-80886247D02*
G75*
G03X70551400Y-80739800I-353553J-353553D01*
G01*
X81447847Y-95343353D02*
G75*
G03X81801400Y-95489800I353553J353553D01*
G01*
X133621400Y-109519800D02*
G75*
G03X134851400Y-109289800I500000J730000D01*
G01*
X148301400Y-22239800D02*
X128551400Y-22239800D01*
X15551400Y-24489800D02*
G75*
G03X15051400Y-24989800I0J-500000D01*
G01*
X32551400Y-24489800D02*
X15551400Y-24489800D01*
X15051400Y-24989800D02*
X15051400Y-80239800D01*
M02*
