<?xml version="1.0" encoding="UTF-8" standalone="no"?>
<svg
   xmlns:dc="http://purl.org/dc/elements/1.1/"
   xmlns:cc="http://creativecommons.org/ns#"
   xmlns:rdf="http://www.w3.org/1999/02/22-rdf-syntax-ns#"
   xmlns:svg="http://www.w3.org/2000/svg"
   xmlns="http://www.w3.org/2000/svg"
   xmlns:sodipodi="http://sodipodi.sourceforge.net/DTD/sodipodi-0.dtd"
   xmlns:inkscape="http://www.inkscape.org/namespaces/inkscape"
   width="793.700787402"
   height="1122.51968504"
   version="1.1"
   id="svg26"
   sodipodi:docname="03 Guard.dxf"
   inkscape:version="0.92.4 (5da689c313, 2019-01-14)">
  <metadata
     id="metadata30">
    <rdf:RDF>
      <cc:Work
         rdf:about="">
        <dc:format>image/svg+xml</dc:format>
        <dc:type
           rdf:resource="http://purl.org/dc/dcmitype/StillImage" />
        <dc:title></dc:title>
      </cc:Work>
    </rdf:RDF>
  </metadata>
  <sodipodi:namedview
     pagecolor="#ffffff"
     bordercolor="#666666"
     borderopacity="1"
     objecttolerance="10"
     gridtolerance="10"
     guidetolerance="10"
     inkscape:pageopacity="0"
     inkscape:pageshadow="2"
     inkscape:window-width="1366"
     inkscape:window-height="716"
     id="namedview28"
     showgrid="false"
     inkscape:zoom="0.21024131"
     inkscape:cx="313.61272"
     inkscape:cy="561.25983"
     inkscape:window-x="-8"
     inkscape:window-y="-8"
     inkscape:window-maximized="1"
     inkscape:current-layer="g24" />
  <desc
     id="desc2">C:\Users\Tran Kien\Desktop\PCB\kyria--case-master\Plate Case\No Kerf\03 Guard.dxf - scale = 1.000000, origin = (0.000000, 0.000000), method = manual</desc>
  <defs
     id="defs16">
    <marker
       id="DistanceX"
       orient="auto"
       refX="0.0"
       refY="0.0"
       style="overflow:visible">
      <path
         d="M 3,-3 L -3,3 M 0,-5 L  0,5"
         style="stroke:#000000; stroke-width:0.5"
         id="path4" />
    </marker>
    <pattern
       height="8"
       id="Hatch"
       patternUnits="userSpaceOnUse"
       width="8"
       x="0"
       y="0">
      <path
         d="M8 4 l-4,4"
         linecap="square"
         stroke="#000000"
         stroke-width="0.25"
         id="path7" />
      <path
         d="M6 2 l-4,4"
         linecap="square"
         stroke="#000000"
         stroke-width="0.25"
         id="path9" />
      <path
         d="M4 0 l-4,4"
         linecap="square"
         stroke="#000000"
         stroke-width="0.25"
         id="path11" />
    </pattern>
    <symbol
       id="*MODEL_SPACE" />
    <symbol
       id="*PAPER_SPACE" />
  </defs>
  <g
     inkscape:groupmode="layer"
     inkscape:label="0"
     id="g24">
    <path
       d="m 328.17988,470.08007 a 4.535435,4.535435 0 1 0 -9.07087,0 4.535435,4.535435 0 1 0 9.07087,0 z"
       style="fill:none;stroke:#000000"
       id="path18"
       inkscape:connector-curvature="0" />
    <path
       d="m 422.66806,414.46877 a 4.535433,4.535433 0 1 0 -9.07086,0 4.535433,4.535433 0 1 0 9.07086,0 z"
       style="fill:none;stroke:#000000"
       id="path20"
       inkscape:connector-curvature="0" />
    <path
       d="m 434.19562,419.58877 a 3.779528,3.779528 0 0 1 -2.36487,3.5048 421.22668,421.22668 0 0 0 -115.18694,69.6948 3.779528,3.779528 0 0 1 -6.22771,-2.8794 V 291.85916 a 3.779528,3.779528 0 0 1 2.01599,-3.34287 593.78637,593.78637 0 0 1 116.96498,-46.61157 3.779528,3.779528 0 0 1 4.79855,3.63956 z"
       style="fill:none;stroke:#000000"
       id="path22"
       inkscape:connector-curvature="0" />
  </g>
</svg>
