  0
SECTION
  2
HEADER
  9
$ACADVER
  1
AC1014
  9
$HANDSEED
  5
FFFF
  9
$MEASUREMENT
 70
     1
  0
ENDSEC
  0
SECTION
  2
TABLES
  0
TABLE
  2
VPORT
  5
8
330
0
100
AcDbSymbolTable
 70
     4
  0
VPORT
  5
2E
330
8
100
AcDbSymbolTableRecord
100
AcDbViewportTableRecord
  2
*ACTIVE
 70
     0
 10
0.0
 20
0.0
 11
1.0
 21
1.0
 12
210.0
 22
148.5
 13
0.0
 23
0.0
 14
10.0
 24
10.0
 15
10.0
 25
10.0
 16
0.0
 26
0.0
 36
1.0
 17
0.0
 27
0.0
 37
0.0
 40
341.0
 41
1.24
 42
50.0
 43
0.0
 44
0.0
 50
0.0
 51
0.0
 71
     0
 72
   100
 73
     1
 74
     3
 75
     0
 76
     0
 77
     0
 78
     0
  0
ENDTAB
  0
TABLE
  2
LTYPE
  5
5
330
0
100
AcDbSymbolTable
 70
     1
  0
LTYPE
  5
14
330
5
100
AcDbSymbolTableRecord
100
AcDbLinetypeTableRecord
  2
BYBLOCK
 70
     0
  3

 72
    65
 73
     0
 40
0.0
  0
LTYPE
  5
15
330
5
100
AcDbSymbolTableRecord
100
AcDbLinetypeTableRecord
  2
BYLAYER
 70
     0
  3

 72
    65
 73
     0
 40
0.0
  0
LTYPE
  5
16
330
5
100
AcDbSymbolTableRecord
100
AcDbLinetypeTableRecord
  2
CONTINUOUS
 70
     0
  3
Solid line
 72
    65
 73
     0
 40
0.0
  0
ENDTAB
  0
TABLE
  2
LAYER
  5
2
100
AcDbSymbolTable
 70
2
  0
LAYER
  5
50
100
AcDbSymbolTableRecord
100
AcDbLayerTableRecord
  2
0
 70
0
  6
CONTINUOUS
  0
LAYER
  5
51
100
AcDbSymbolTableRecord
100
AcDbLayerTableRecord
  2
orthodox-case-middle-layer
 70
0
  6
CONTINUOUS
  0
ENDTAB
  0
TABLE
  2
STYLE
  5
3
330
0
100
AcDbSymbolTable
 70
     1
  0
STYLE
  5
11
330
3
100
AcDbSymbolTableRecord
100
AcDbTextStyleTableRecord
  2
STANDARD
 70
     0
 40
0.0
 41
1.0
 50
0.0
 71
     0
 42
2.5
  3
txt
  4

  0
ENDTAB
  0
TABLE
  2
VIEW
  5
6
330
0
100
AcDbSymbolTable
 70
     0
  0
ENDTAB
  0
TABLE
  2
UCS
  5
7
330
0
100
AcDbSymbolTable
 70
     0
  0
ENDTAB
  0
TABLE
  2
APPID
  5
9
330
0
100
AcDbSymbolTable
 70
     2
  0
APPID
  5
12
330
9
100
AcDbSymbolTableRecord
100
AcDbRegAppTableRecord
  2
ACAD
 70
     0
  0
ENDTAB
  0
TABLE
  2
DIMSTYLE
  5
A
330
0
100
AcDbSymbolTable
 70
     1
  0
DIMSTYLE
105
27
330
A
100
AcDbSymbolTableRecord
100
AcDbDimStyleTableRecord
  2
ISO-25
 70
     0
  3

  4

  5

  6

  7

 40
1.0
 41
2.5
 42
0.625
 43
3.75
 44
1.25
 45
0.0
 46
0.0
 47
0.0
 48
0.0
140
2.5
141
2.5
142
0.0
143
0.03937007874016
144
1.0
145
0.0
146
1.0
147
0.625
 71
     0
 72
     0
 73
     0
 74
     0
 75
     0
 76
     0
 77
     1
 78
     8
170
     0
171
     3
172
     1
173
     0
174
     0
175
     0
176
     0
177
     0
178
     0
270
     2
271
     2
272
     2
273
     2
274
     3
340
11
275
     0
280
     0
281
     0
282
     0
283
     0
284
     8
285
     0
286
     0
287
     3
288
     0
  0
ENDTAB
  0
TABLE
  2
BLOCK_RECORD
  5
1
330
0
100
AcDbSymbolTable
 70
     1
  0
BLOCK_RECORD
  5
1F
330
1
100
AcDbSymbolTableRecord
100
AcDbBlockTableRecord
  2
*MODEL_SPACE
  0
BLOCK_RECORD
  5
1B
330
1
100
AcDbSymbolTableRecord
100
AcDbBlockTableRecord
  2
*PAPER_SPACE
  0
ENDTAB
  0
ENDSEC
  0
SECTION
  2
BLOCKS
  0
BLOCK
  5
20
330
1F
100
AcDbEntity
  8
0
100
AcDbBlockBegin
  2
*MODEL_SPACE
 70
     0
 10
0.0
 20
0.0
 30
0.0
  3
*MODEL_SPACE
  1

  0
ENDBLK
  5
21
330
1F
100
AcDbEntity
  8
0
100
AcDbBlockEnd
  0
BLOCK
  5
1C
330
1B
100
AcDbEntity
 67
     1
  8
0
100
AcDbBlockBegin
  2
*PAPER_SPACE
  1

  0
ENDBLK
  5
1D
330
1B
100
AcDbEntity
 67
     1
  8
0
100
AcDbBlockEnd
  0
ENDSEC
  0
SECTION
  2
ENTITIES
  0
LINE
  5
100
100
AcDbEntity
  8
orthodox-case-middle-layer
 62
7
100
AcDbLine
 10
125.301125
 20
116.431236
 30
0.0
 11
125.301125
 21
116.431236
 31
0.0
  0
SPLINE
  5
101
100
AcDbEntity
  8
orthodox-case-middle-layer
 62
7
100
AcDbSpline
 70
0
 71
3
 72
19
 73
15
 74
13
 40
0.000000
 40
0.000000
 40
0.000000
 40
0.000000
 40
0.878456
 40
1.730888
 40
2.609280
 40
3.487672
 40
4.340103
 40
5.218560
 40
6.096928
 40
6.949239
 40
7.827607
 40
8.705976
 40
9.558287
 40
10.436655
 40
10.436655
 40
10.436655
 40
10.436655
 10
125.301125
 20
116.431236
 30
0.0
 10
125.004955
 20
116.477413
 30
0.0
 10
124.421390
 20
116.568398
 30
0.0
 10
123.778840
 20
117.237137
 30
0.0
 10
123.540662
 20
118.109622
 30
0.0
 10
123.778839
 20
118.991267
 30
0.0
 10
124.421392
 20
119.633067
 30
0.0
 10
125.301091
 20
119.871287
 30
0.0
 10
126.180775
 20
119.633088
 30
0.0
 10
126.823165
 20
118.991213
 30
0.0
 10
127.061185
 20
118.109622
 30
0.0
 10
126.823165
 20
117.237190
 30
0.0
 10
126.180774
 20
116.568381
 30
0.0
 10
125.597270
 20
116.477408
 30
0.0
 10
125.301125
 20
116.431236
 30
0.0
 11
125.301125
 21
116.431236
 31
0.0
 11
124.453139
 21
116.660594
 31
0.0
 11
123.850294
 21
117.263269
 31
0.0
 11
123.620844
 21
118.111164
 31
0.0
 11
123.850294
 21
118.959059
 31
0.0
 11
124.453139
 21
119.561734
 31
0.0
 11
125.301125
 21
119.791092
 31
0.0
 11
126.149020
 21
119.561734
 31
0.0
 11
126.751695
 21
118.959059
 31
0.0
 11
126.981053
 21
118.111164
 31
0.0
 11
126.751695
 21
117.263269
 31
0.0
 11
126.149020
 21
116.660594
 31
0.0
 11
125.301125
 21
116.431236
 31
0.0
  0
LINE
  5
102
100
AcDbEntity
  8
orthodox-case-middle-layer
 62
7
100
AcDbLine
 10
125.301125
 20
66.706504
 30
0.0
 11
125.301125
 21
66.706504
 31
0.0
  0
SPLINE
  5
103
100
AcDbEntity
  8
orthodox-case-middle-layer
 62
7
100
AcDbSpline
 70
0
 71
3
 72
19
 73
15
 74
13
 40
0.000000
 40
0.000000
 40
0.000000
 40
0.000000
 40
0.878480
 40
1.731032
 40
2.609512
 40
3.487904
 40
4.340336
 40
5.218792
 40
6.097160
 40
6.949472
 40
7.827840
 40
8.706296
 40
9.558728
 40
10.437120
 40
10.437120
 40
10.437120
 40
10.437120
 10
125.301125
 20
66.706504
 30
0.0
 10
125.004948
 20
66.752710
 30
0.0
 10
124.421337
 20
66.843757
 30
0.0
 10
123.778860
 20
67.512678
 30
0.0
 10
123.540658
 20
68.385208
 30
0.0
 10
123.778838
 20
69.266889
 30
0.0
 10
124.421392
 20
69.908687
 30
0.0
 10
125.301091
 20
70.146908
 30
0.0
 10
126.180775
 20
69.908709
 30
0.0
 10
126.823166
 20
69.266835
 30
0.0
 10
127.061189
 20
68.385208
 30
0.0
 10
126.823145
 20
67.512730
 30
0.0
 10
126.180827
 20
66.843741
 30
0.0
 10
125.597276
 20
66.752705
 30
0.0
 10
125.301125
 20
66.706504
 30
0.0
 11
125.301125
 21
66.706504
 31
0.0
 11
124.453139
 21
66.935953
 31
0.0
 11
123.850294
 21
67.538798
 31
0.0
 11
123.620844
 21
68.386785
 31
0.0
 11
123.850294
 21
69.234679
 31
0.0
 11
124.453139
 21
69.837354
 31
0.0
 11
125.301125
 21
70.066712
 31
0.0
 11
126.149020
 21
69.837354
 31
0.0
 11
126.751695
 21
69.234679
 31
0.0
 11
126.981053
 21
68.386785
 31
0.0
 11
126.751695
 21
67.538798
 31
0.0
 11
126.149020
 21
66.935953
 31
0.0
 11
125.301125
 21
66.706504
 31
0.0
  0
LINE
  5
104
100
AcDbEntity
  8
orthodox-case-middle-layer
 62
7
100
AcDbLine
 10
64.175321
 20
116.431236
 30
0.0
 11
64.175321
 21
116.431236
 31
0.0
  0
SPLINE
  5
105
100
AcDbEntity
  8
orthodox-case-middle-layer
 62
7
100
AcDbSpline
 70
0
 71
3
 72
19
 73
15
 74
13
 40
0.000000
 40
0.000000
 40
0.000000
 40
0.000000
 40
0.878217
 40
1.730584
 40
2.608972
 40
3.487361
 40
4.339728
 40
5.217944
 40
6.096552
 40
6.948928
 40
7.827300
 40
8.705671
 40
9.558047
 40
10.436655
 40
10.436655
 40
10.436655
 40
10.436655
 10
64.175321
 20
116.431236
 30
0.0
 10
63.879235
 20
116.477424
 30
0.0
 10
63.295779
 20
116.568440
 30
0.0
 10
62.653380
 20
117.237170
 30
0.0
 10
62.415212
 20
118.109622
 30
0.0
 10
62.653379
 20
118.991233
 30
0.0
 10
63.295782
 20
119.633031
 30
0.0
 10
64.175443
 20
119.871287
 30
0.0
 10
65.055165
 20
119.633124
 30
0.0
 10
65.697705
 20
118.991247
 30
0.0
 10
65.935735
 20
118.109622
 30
0.0
 10
65.697705
 20
117.237157
 30
0.0
 10
65.055162
 20
116.568339
 30
0.0
 10
64.471550
 20
116.477396
 30
0.0
 10
64.175321
 20
116.431236
 30
0.0
 11
64.175321
 21
116.431236
 31
0.0
 11
63.327583
 21
116.660594
 31
0.0
 11
62.724829
 21
117.263269
 31
0.0
 11
62.495393
 21
118.111164
 31
0.0
 11
62.724829
 21
118.959059
 31
0.0
 11
63.327583
 21
119.561734
 31
0.0
 11
64.175321
 21
119.791092
 31
0.0
 11
65.023464
 21
119.561734
 31
0.0
 11
65.626231
 21
118.959059
 31
0.0
 11
65.855601
 21
118.111164
 31
0.0
 11
65.626231
 21
117.263269
 31
0.0
 11
65.023464
 21
116.660594
 31
0.0
 11
64.175321
 21
116.431236
 31
0.0
  0
LINE
  5
106
100
AcDbEntity
  8
orthodox-case-middle-layer
 62
7
100
AcDbLine
 10
128.301147
 20
72.196079
 30
0.0
 11
128.301147
 21
118.111164
 31
0.0
  0
SPLINE
  5
107
100
AcDbEntity
  8
orthodox-case-middle-layer
 62
7
100
AcDbSpline
 70
0
 71
3
 72
10
 73
6
 74
4
 40
0.000000
 40
0.000000
 40
0.000000
 40
0.000000
 40
1.133106
 40
2.247284
 40
3.380301
 40
3.380301
 40
3.380301
 40
3.380301
 10
130.030816
 20
69.478632
 30
0.0
 10
129.706044
 20
69.677671
 30
0.0
 10
129.061925
 20
70.072424
 30
0.0
 10
128.428932
 20
71.066982
 30
0.0
 10
128.343979
 20
71.817616
 30
0.0
 10
128.301147
 20
72.196079
 30
0.0
 11
130.030816
 21
69.478632
 31
0.0
 11
129.113268
 21
70.143487
 31
0.0
 11
128.515022
 21
71.083431
 31
0.0
 11
128.301147
 21
72.196079
 31
0.0
  0
LINE
  5
108
100
AcDbEntity
  8
orthodox-case-middle-layer
 62
7
100
AcDbLine
 10
125.301125
 20
121.111186
 30
0.0
 11
45.674949
 21
121.111186
 31
0.0
  0
LINE
  5
109
100
AcDbEntity
  8
orthodox-case-middle-layer
 62
7
100
AcDbLine
 10
45.674949
 20
121.111186
 30
0.0
 11
45.674949
 21
115.111142
 31
0.0
  0
LINE
  5
10a
100
AcDbEntity
  8
orthodox-case-middle-layer
 62
7
100
AcDbLine
 10
45.674949
 20
115.111142
 30
0.0
 11
122.301103
 21
115.111142
 31
0.0
  0
LINE
  5
10b
100
AcDbEntity
  8
orthodox-case-middle-layer
 62
7
100
AcDbLine
 10
122.301103
 20
115.111142
 30
0.0
 11
122.301103
 21
66.468379
 31
0.0
  0
LINE
  5
10c
100
AcDbEntity
  8
orthodox-case-middle-layer
 62
7
100
AcDbLine
 10
122.301103
 20
66.468379
 30
0.0
 11
135.152091
 21
60.461632
 31
0.0
  0
LINE
  5
10d
100
AcDbEntity
  8
orthodox-case-middle-layer
 62
7
100
AcDbLine
 10
135.152091
 20
60.461632
 30
0.0
 11
137.687505
 21
65.899348
 31
0.0
  0
LINE
  5
10e
100
AcDbEntity
  8
orthodox-case-middle-layer
 62
7
100
AcDbLine
 10
137.687505
 20
65.899348
 30
0.0
 11
130.030816
 21
69.478632
 31
0.0
  0
SPLINE
  5
10f
100
AcDbEntity
  8
orthodox-case-middle-layer
 62
7
100
AcDbSpline
 70
0
 71
3
 72
10
 73
6
 74
4
 40
0.000000
 40
0.000000
 40
0.000000
 40
0.000000
 40
1.568658
 40
3.090737
 40
4.659224
 40
4.659224
 40
4.659224
 40
4.659224
 10
128.301147
 20
118.111164
 30
0.0
 10
128.218619
 20
118.636869
 30
0.0
 10
128.056014
 20
119.672669
 30
0.0
 10
126.862501
 20
120.866080
 30
0.0
 10
125.826768
 20
121.028670
 30
0.0
 10
125.301125
 20
121.111186
 30
0.0
 11
128.301147
 21
118.111164
 31
0.0
 11
127.891507
 21
119.625391
 31
0.0
 11
126.815195
 21
120.701624
 31
0.0
 11
125.301125
 21
121.111186
 31
0.0
  0
LINE
  5
110
100
AcDbEntity
  8
orthodox-case-middle-layer
 62
7
100
AcDbLine
 10
165.200149
 20
48.042479
 30
0.0
 11
165.200149
 21
48.042479
 31
0.0
  0
SPLINE
  5
111
100
AcDbEntity
  8
orthodox-case-middle-layer
 62
7
100
AcDbSpline
 70
0
 71
3
 72
19
 73
15
 74
13
 40
0.000000
 40
0.000000
 40
0.000000
 40
0.000000
 40
0.878392
 40
1.730823
 40
2.609280
 40
3.487560
 40
4.339751
 40
5.218095
 40
6.096440
 40
6.948631
 40
7.826911
 40
8.705367
 40
9.557799
 40
10.436191
 40
10.436191
 40
10.436191
 40
10.436191
 10
165.200149
 20
48.042479
 30
0.0
 10
164.903998
 20
48.088679
 30
0.0
 10
164.320447
 20
48.179715
 30
0.0
 10
163.678131
 20
48.848706
 30
0.0
 10
163.440089
 20
49.721149
 30
0.0
 10
163.678088
 20
50.602726
 30
0.0
 10
164.320554
 20
51.244437
 30
0.0
 10
165.200149
 20
51.482476
 30
0.0
 10
166.079745
 20
51.244437
 30
0.0
 10
166.722211
 20
50.602726
 30
0.0
 10
166.960210
 20
49.721149
 30
0.0
 10
166.722168
 20
48.848706
 30
0.0
 10
166.079852
 20
48.179715
 30
0.0
 10
165.496301
 20
48.088679
 30
0.0
 10
165.200149
 20
48.042479
 30
0.0
 11
165.200149
 21
48.042479
 31
0.0
 11
164.352255
 21
48.271928
 31
0.0
 11
163.749580
 21
48.874773
 31
0.0
 11
163.520222
 21
49.722759
 31
0.0
 11
163.749580
 21
50.570563
 31
0.0
 11
164.352255
 21
51.173068
 31
0.0
 11
165.200149
 21
51.402334
 31
0.0
 11
166.048044
 21
51.173068
 31
0.0
 11
166.650719
 21
50.570563
 31
0.0
 11
166.880077
 21
49.722759
 31
0.0
 11
166.650719
 21
48.874773
 31
0.0
 11
166.048044
 21
48.271928
 31
0.0
 11
165.200149
 21
48.042479
 31
0.0
  0
LINE
  5
112
100
AcDbEntity
  8
orthodox-case-middle-layer
 62
7
100
AcDbLine
 10
143.491264
 20
1.370685
 30
0.0
 11
143.491264
 21
1.370685
 31
0.0
  0
SPLINE
  5
113
100
AcDbEntity
  8
orthodox-case-middle-layer
 62
7
100
AcDbSpline
 70
0
 71
3
 72
19
 73
15
 74
13
 40
0.000000
 40
0.000000
 40
0.000000
 40
0.000000
 40
0.878460
 40
1.730956
 40
2.609588
 40
3.487980
 40
4.340411
 40
5.218868
 40
6.097236
 40
6.949547
 40
7.827915
 40
8.706523
 40
9.558899
 40
10.437271
 40
10.437271
 40
10.437271
 40
10.437271
 10
143.491264
 20
1.370685
 30
0.0
 10
143.195091
 20
1.416863
 30
0.0
 10
142.611498
 20
1.507854
 30
0.0
 10
141.968935
 20
2.176748
 30
0.0
 10
141.730810
 20
3.049346
 30
0.0
 10
141.968970
 20
3.931068
 30
0.0
 10
142.611533
 20
4.572869
 30
0.0
 10
143.491230
 20
4.811089
 30
0.0
 10
144.370912
 20
4.572891
 30
0.0
 10
145.013312
 20
3.931015
 30
0.0
 10
145.251315
 20
3.049346
 30
0.0
 10
145.013348
 20
2.176800
 30
0.0
 10
144.370944
 20
1.507837
 30
0.0
 10
143.787412
 20
1.416858
 30
0.0
 10
143.491264
 20
1.370685
 30
0.0
 11
143.491264
 21
1.370685
 31
0.0
 11
142.643278
 21
1.600056
 31
0.0
 11
142.040433
 21
2.202823
 31
0.0
 11
141.810983
 21
3.050966
 31
0.0
 11
142.040433
 21
3.898861
 31
0.0
 11
142.643278
 21
4.501536
 31
0.0
 11
143.491264
 21
4.730894
 31
0.0
 11
144.339159
 21
4.501536
 31
0.0
 11
144.941834
 21
3.898861
 31
0.0
 11
145.171192
 21
3.050966
 31
0.0
 11
144.941834
 21
2.202823
 31
0.0
 11
144.339159
 21
1.600056
 31
0.0
 11
143.491264
 21
1.370685
 31
0.0
  0
LINE
  5
114
100
AcDbEntity
  8
orthodox-case-middle-layer
 62
7
100
AcDbLine
 10
85.050099
 20
28.692618
 30
0.0
 11
85.050099
 21
28.692618
 31
0.0
  0
SPLINE
  5
115
100
AcDbEntity
  8
orthodox-case-middle-layer
 62
7
100
AcDbSpline
 70
0
 71
3
 72
19
 73
15
 74
13
 40
0.000000
 40
0.000000
 40
0.000000
 40
0.000000
 40
0.878520
 40
1.730775
 40
2.609123
 40
3.487710
 40
4.340031
 40
5.218554
 40
6.096926
 40
6.949301
 40
7.827909
 40
8.706277
 40
9.558589
 40
10.436957
 40
10.436957
 40
10.436957
 40
10.436957
 10
85.050099
 20
28.692618
 30
0.0
 10
84.753896
 20
28.738773
 30
0.0
 10
84.170345
 20
28.829704
 30
0.0
 10
83.527951
 20
29.498592
 30
0.0
 10
83.290096
 20
30.371082
 30
0.0
 10
83.527916
 20
31.252767
 30
0.0
 10
84.170310
 20
31.894878
 30
0.0
 10
85.050055
 20
32.133006
 30
0.0
 10
85.929777
 20
31.894820
 30
0.0
 10
86.572183
 20
31.252787
 30
0.0
 10
86.810149
 20
30.371082
 30
0.0
 10
86.572147
 20
29.498572
 30
0.0
 10
85.929745
 20
28.829763
 30
0.0
 10
85.346243
 20
28.738790
 30
0.0
 10
85.050099
 20
28.692618
 30
0.0
 11
85.050099
 21
28.692618
 31
0.0
 11
84.202047
 21
28.921976
 31
0.0
 11
83.599450
 21
29.524651
 31
0.0
 11
83.370171
 21
30.372546
 31
0.0
 11
83.599450
 21
31.220689
 31
0.0
 11
84.202047
 21
31.823455
 31
0.0
 11
85.050099
 21
32.052826
 31
0.0
 11
85.897994
 21
31.823455
 31
0.0
 11
86.500669
 21
31.220689
 31
0.0
 11
86.730026
 21
30.372546
 31
0.0
 11
86.500669
 21
29.524651
 31
0.0
 11
85.897994
 21
28.921976
 31
0.0
 11
85.050099
 21
28.692618
 31
0.0
  0
LINE
  5
116
100
AcDbEntity
  8
orthodox-case-middle-layer
 62
7
100
AcDbLine
 10
64.175533
 20
51.293326
 30
0.0
 11
64.175533
 21
51.293326
 31
0.0
  0
SPLINE
  5
117
100
AcDbEntity
  8
orthodox-case-middle-layer
 62
7
100
AcDbSpline
 70
0
 71
3
 72
19
 73
15
 74
13
 40
0.000000
 40
0.000000
 40
0.000000
 40
0.000000
 40
0.878368
 40
1.730679
 40
2.609048
 40
3.487416
 40
4.339727
 40
5.218095
 40
6.096463
 40
6.948775
 40
7.827143
 40
8.705511
 40
9.557822
 40
10.436191
 40
10.436191
 40
10.436191
 40
10.436191
 10
64.175533
 20
51.293326
 30
0.0
 10
63.879388
 20
51.339497
 30
0.0
 10
63.295884
 20
51.430471
 30
0.0
 10
62.653492
 20
52.099280
 30
0.0
 10
62.415473
 20
52.971712
 30
0.0
 10
62.653492
 20
53.853303
 30
0.0
 10
63.295884
 20
54.495177
 30
0.0
 10
64.175533
 20
54.733373
 30
0.0
 10
65.055181
 20
54.495177
 30
0.0
 10
65.697573
 20
53.853303
 30
0.0
 10
65.935593
 20
52.971712
 30
0.0
 10
65.697573
 20
52.099280
 30
0.0
 10
65.055181
 20
51.430471
 30
0.0
 10
64.471677
 20
51.339497
 30
0.0
 10
64.175533
 20
51.293326
 30
0.0
 11
64.175533
 21
51.293326
 31
0.0
 11
63.327638
 21
51.522684
 31
0.0
 11
62.724963
 21
52.125359
 31
0.0
 11
62.495605
 21
52.973254
 31
0.0
 11
62.724963
 21
53.821148
 31
0.0
 11
63.327638
 21
54.423823
 31
0.0
 11
64.175533
 21
54.653181
 31
0.0
 11
65.023427
 21
54.423823
 31
0.0
 11
65.626102
 21
53.821148
 31
0.0
 11
65.855460
 21
52.973254
 31
0.0
 11
65.626102
 21
52.125359
 31
0.0
 11
65.023427
 21
51.522684
 31
0.0
 11
64.175533
 21
51.293326
 31
0.0
  0
LINE
  5
118
100
AcDbEntity
  8
orthodox-case-middle-layer
 62
7
100
AcDbLine
 10
3.050081
 20
116.431271
 30
0.0
 11
3.050081
 21
116.431271
 31
0.0
  0
SPLINE
  5
119
100
AcDbEntity
  8
orthodox-case-middle-layer
 62
7
100
AcDbSpline
 70
0
 71
3
 72
19
 73
15
 74
13
 40
0.000000
 40
0.000000
 40
0.000000
 40
0.000000
 40
0.878520
 40
1.730775
 40
2.609123
 40
3.487471
 40
4.339727
 40
5.218246
 40
6.096614
 40
6.948926
 40
7.827294
 40
8.705662
 40
9.557973
 40
10.436341
 40
10.436341
 40
10.436341
 40
10.436341
 10
3.050081
 20
116.431271
 30
0.0
 10
2.753878
 20
116.477427
 30
0.0
 10
2.170325
 20
116.568358
 30
0.0
 10
1.527942
 20
117.237245
 30
0.0
 10
1.290070
 20
118.109658
 30
0.0
 10
1.527942
 20
118.991227
 30
0.0
 10
2.170324
 20
119.633187
 30
0.0
 10
3.050037
 20
119.871305
 30
0.0
 10
3.929728
 20
119.633130
 30
0.0
 10
4.572122
 20
118.991247
 30
0.0
 10
4.810141
 20
118.109658
 30
0.0
 10
4.572122
 20
117.237225
 30
0.0
 10
3.929730
 20
116.568417
 30
0.0
 10
3.346226
 20
116.477443
 30
0.0
 10
3.050081
 20
116.431271
 30
0.0
 11
3.050081
 21
116.431271
 31
0.0
 11
2.202030
 21
116.660629
 31
0.0
 11
1.599433
 21
117.263304
 31
0.0
 11
1.370154
 21
118.111199
 31
0.0
 11
1.599433
 21
118.959094
 31
0.0
 11
2.202030
 21
119.561769
 31
0.0
 11
3.050081
 21
119.791127
 31
0.0
 11
3.897976
 21
119.561769
 31
0.0
 11
4.500651
 21
118.959094
 31
0.0
 11
4.730009
 21
118.111199
 31
0.0
 11
4.500651
 21
117.263304
 31
0.0
 11
3.897976
 21
116.660629
 31
0.0
 11
3.050081
 21
116.431271
 31
0.0
  0
LINE
  5
11a
100
AcDbEntity
  8
orthodox-case-middle-layer
 62
7
100
AcDbLine
 10
3.050081
 20
51.293326
 30
0.0
 11
3.050081
 21
51.293326
 31
0.0
  0
LINE
  5
11b
100
AcDbEntity
  8
orthodox-case-middle-layer
 62
7
100
AcDbLine
 10
166.476852
 20
52.443381
 30
0.0
 11
148.558917
 21
60.818326
 31
0.0
  0
LINE
  5
11c
100
AcDbEntity
  8
orthodox-case-middle-layer
 62
7
100
AcDbLine
 10
148.558917
 20
60.818326
 30
0.0
 11
146.023503
 21
55.380609
 31
0.0
  0
LINE
  5
11d
100
AcDbEntity
  8
orthodox-case-middle-layer
 62
7
100
AcDbLine
 10
146.023503
 20
55.380609
 30
0.0
 11
161.223638
 21
48.276018
 31
0.0
  0
LINE
  5
11e
100
AcDbEntity
  8
orthodox-case-middle-layer
 62
7
100
AcDbLine
 10
161.223638
 20
48.276018
 30
0.0
 11
142.042053
 21
7.040882
 31
0.0
  0
LINE
  5
11f
100
AcDbEntity
  8
orthodox-case-middle-layer
 62
7
100
AcDbLine
 10
142.042053
 20
7.040882
 30
0.0
 11
88.050121
 21
32.277899
 31
0.0
  0
LINE
  5
120
100
AcDbEntity
  8
orthodox-case-middle-layer
 62
7
100
AcDbLine
 10
88.050121
 20
32.277899
 30
0.0
 11
88.050121
 21
55.972923
 31
0.0
  0
LINE
  5
121
100
AcDbEntity
  8
orthodox-case-middle-layer
 62
7
100
AcDbLine
 10
88.050121
 20
55.972923
 30
0.0
 11
6.050103
 21
55.972923
 31
0.0
  0
LINE
  5
122
100
AcDbEntity
  8
orthodox-case-middle-layer
 62
7
100
AcDbLine
 10
6.050103
 20
55.972923
 30
0.0
 11
6.050103
 21
115.111177
 31
0.0
  0
LINE
  5
123
100
AcDbEntity
  8
orthodox-case-middle-layer
 62
7
100
AcDbLine
 10
6.050103
 20
115.111177
 30
0.0
 11
25.675131
 21
115.111177
 31
0.0
  0
LINE
  5
124
100
AcDbEntity
  8
orthodox-case-middle-layer
 62
7
100
AcDbLine
 10
25.675131
 20
115.111177
 30
0.0
 11
25.675131
 21
121.111221
 31
0.0
  0
LINE
  5
125
100
AcDbEntity
  8
orthodox-case-middle-layer
 62
7
100
AcDbLine
 10
25.675131
 20
121.111221
 30
0.0
 11
3.050081
 21
121.111221
 31
0.0
  0
SPLINE
  5
126
100
AcDbEntity
  8
orthodox-case-middle-layer
 62
7
100
AcDbSpline
 70
0
 71
3
 72
19
 73
15
 74
13
 40
0.000000
 40
0.000000
 40
0.000000
 40
0.000000
 40
0.878520
 40
1.730775
 40
2.609123
 40
3.487471
 40
4.339727
 40
5.218246
 40
6.096614
 40
6.948926
 40
7.827294
 40
8.705662
 40
9.557973
 40
10.436341
 40
10.436341
 40
10.436341
 40
10.436341
 10
3.050081
 20
51.293326
 30
0.0
 10
2.753878
 20
51.339481
 30
0.0
 10
2.170325
 20
51.430412
 30
0.0
 10
1.527942
 20
52.099299
 30
0.0
 10
1.290070
 20
52.971712
 30
0.0
 10
1.527942
 20
53.853282
 30
0.0
 10
2.170324
 20
54.495241
 30
0.0
 10
3.050037
 20
54.733359
 30
0.0
 10
3.929728
 20
54.495184
 30
0.0
 10
4.572122
 20
53.853301
 30
0.0
 10
4.810141
 20
52.971712
 30
0.0
 10
4.572122
 20
52.099279
 30
0.0
 10
3.929730
 20
51.430471
 30
0.0
 10
3.346226
 20
51.339497
 30
0.0
 10
3.050081
 20
51.293326
 30
0.0
 11
3.050081
 21
51.293326
 31
0.0
 11
2.202030
 21
51.522684
 31
0.0
 11
1.599433
 21
52.125359
 31
0.0
 11
1.370154
 21
52.973254
 31
0.0
 11
1.599433
 21
53.821148
 31
0.0
 11
2.202030
 21
54.423823
 31
0.0
 11
3.050081
 21
54.653181
 31
0.0
 11
3.897976
 21
54.423823
 31
0.0
 11
4.500651
 21
53.821148
 31
0.0
 11
4.730009
 21
52.973254
 31
0.0
 11
4.500651
 21
52.125359
 31
0.0
 11
3.897976
 21
51.522684
 31
0.0
 11
3.050081
 21
51.293326
 31
0.0
  0
LINE
  5
127
100
AcDbEntity
  8
orthodox-case-middle-layer
 62
7
100
AcDbLine
 10
0.050059
 20
118.111199
 30
0.0
 11
0.050059
 21
52.973606
 31
0.0
  0
SPLINE
  5
128
100
AcDbEntity
  8
orthodox-case-middle-layer
 62
7
100
AcDbSpline
 70
0
 71
3
 72
10
 73
6
 74
4
 40
0.000000
 40
0.000000
 40
0.000000
 40
0.000000
 40
1.568637
 40
3.090661
 40
4.659299
 40
4.659299
 40
4.659299
 40
4.659299
 10
3.050081
 20
121.111221
 30
0.0
 10
2.524379
 20
121.028722
 30
0.0
 10
1.488596
 20
120.866174
 30
0.0
 10
0.295107
 20
119.672685
 30
0.0
 10
0.132559
 20
118.636902
 30
0.0
 10
0.050059
 20
118.111199
 30
0.0
 11
3.050081
 21
121.111221
 31
0.0
 11
1.535855
 21
120.701659
 31
0.0
 11
0.459621
 21
119.625426
 31
0.0
 11
0.050059
 21
118.111199
 31
0.0
  0
LINE
  5
129
100
AcDbEntity
  8
orthodox-case-middle-layer
 62
7
100
AcDbLine
 10
3.050081
 20
49.973231
 30
0.0
 11
80.049827
 21
49.973231
 31
0.0
  0
SPLINE
  5
12a
100
AcDbEntity
  8
orthodox-case-middle-layer
 62
7
100
AcDbSpline
 70
0
 71
3
 72
10
 73
6
 74
4
 40
0.000000
 40
0.000000
 40
0.000000
 40
0.000000
 40
1.568877
 40
3.090966
 40
4.659607
 40
4.659607
 40
4.659607
 40
4.659607
 10
0.050059
 20
52.973606
 30
0.0
 10
0.132548
 20
52.447821
 30
0.0
 10
0.295064
 20
51.411930
 30
0.0
 10
1.488563
 20
50.218285
 30
0.0
 10
2.524375
 20
50.055732
 30
0.0
 10
3.050081
 20
49.973231
 30
0.0
 11
0.050059
 21
52.973606
 31
0.0
 11
0.459621
 21
51.459131
 31
0.0
 11
1.535855
 21
50.382806
 31
0.0
 11
3.050081
 21
49.973231
 31
0.0
  0
LINE
  5
12b
100
AcDbEntity
  8
orthodox-case-middle-layer
 62
7
100
AcDbLine
 10
82.050077
 20
47.973334
 30
0.0
 11
82.050077
 21
30.368312
 31
0.0
  0
SPLINE
  5
12c
100
AcDbEntity
  8
orthodox-case-middle-layer
 62
7
100
AcDbSpline
 70
0
 71
3
 72
10
 73
6
 74
4
 40
0.000000
 40
0.000000
 40
0.000000
 40
0.000000
 40
1.045917
 40
2.060621
 40
3.106302
 40
3.106302
 40
3.106302
 40
3.106302
 10
80.049827
 20
49.973231
 30
0.0
 10
80.400349
 20
49.918240
 30
0.0
 10
81.090933
 20
49.809897
 30
0.0
 10
81.886693
 20
49.014283
 30
0.0
 10
81.995072
 20
48.323777
 30
0.0
 10
82.050077
 20
47.973334
 30
0.0
 11
80.049827
 21
49.973231
 31
0.0
 11
81.059477
 21
49.700194
 31
0.0
 11
81.777027
 21
48.982736
 31
0.0
 11
82.050077
 21
47.973334
 31
0.0
  0
LINE
  5
12d
100
AcDbEntity
  8
orthodox-case-middle-layer
 62
7
100
AcDbLine
 10
83.779746
 20
27.650513
 30
0.0
 11
142.224439
 21
0.333166
 31
0.0
  0
SPLINE
  5
12e
100
AcDbEntity
  8
orthodox-case-middle-layer
 62
7
100
AcDbSpline
 70
0
 71
3
 72
10
 73
6
 74
4
 40
0.000000
 40
0.000000
 40
0.000000
 40
0.000000
 40
1.133030
 40
2.247285
 40
3.380536
 40
3.380536
 40
3.380536
 40
3.380536
 10
82.050077
 20
30.368312
 30
0.0
 10
82.092911
 20
29.989844
 30
0.0
 10
82.177870
 20
29.239179
 30
0.0
 10
82.810883
 20
28.244564
 30
0.0
 10
83.454977
 20
27.849642
 30
0.0
 10
83.779746
 20
27.650513
 30
0.0
 11
82.050077
 21
30.368312
 31
0.0
 11
82.263951
 21
29.255651
 31
0.0
 11
82.862197
 21
28.315616
 31
0.0
 11
83.779746
 21
27.650513
 31
0.0
  0
LINE
  5
12f
100
AcDbEntity
  8
orthodox-case-middle-layer
 62
7
100
AcDbLine
 10
146.214708
 20
1.785552
 30
0.0
 11
167.926769
 21
48.460168
 31
0.0
  0
SPLINE
  5
130
100
AcDbEntity
  8
orthodox-case-middle-layer
 62
7
100
AcDbSpline
 70
0
 71
3
 72
10
 73
6
 74
4
 40
0.000000
 40
0.000000
 40
0.000000
 40
0.000000
 40
1.570287
 40
3.093886
 40
4.664426
 40
4.664426
 40
4.664426
 40
4.664426
 10
142.224439
 20
0.333166
 30
0.0
 10
142.736203
 20
0.185230
 30
0.0
 10
143.744514
 20
-0.106244
 30
0.0
 10
145.332640
 20
0.471662
 30
0.0
 10
145.917727
 20
1.343182
 30
0.0
 10
146.214708
 20
1.785552
 30
0.0
 11
142.224439
 21
0.333166
 31
0.0
 11
143.771343
 21
0.063186
 31
0.0
 11
145.203085
 21
0.584213
 31
0.0
 11
146.214708
 21
1.785552
 31
0.0
  0
LINE
  5
131
100
AcDbEntity
  8
orthodox-case-middle-layer
 62
7
100
AcDbLine
 10
166.476852
 20
52.443381
 30
0.0
 11
166.476852
 21
52.443381
 31
0.0
  0
SPLINE
  5
132
100
AcDbEntity
  8
orthodox-case-middle-layer
 62
7
100
AcDbSpline
 70
0
 71
3
 72
10
 73
6
 74
4
 40
0.000000
 40
0.000000
 40
0.000000
 40
0.000000
 40
1.566718
 40
3.087093
 40
4.653924
 40
4.653924
 40
4.653924
 40
4.653924
 10
167.926769
 20
48.460168
 30
0.0
 10
168.073547
 20
48.970958
 30
0.0
 10
168.362761
 20
49.977430
 30
0.0
 10
167.786136
 20
51.561285
 30
0.0
 10
166.917637
 20
52.146414
 30
0.0
 10
166.476852
 20
52.443381
 30
0.0
 11
167.926769
 21
48.460168
 31
0.0
 11
168.194096
 21
50.003910
 31
0.0
 11
167.674023
 21
51.432568
 31
0.0
 11
166.476852
 21
52.443381
 31
0.0
  0
LINE
  5
133
100
AcDbEntity
  8
orthodox-case-middle-layer
 62
7
100
AcDbLine
 10
165.200008
 20
48.672230
 30
0.0
 11
165.200008
 21
48.672230
 31
0.0
  0
LINE
  5
134
100
AcDbEntity
  8
orthodox-case-middle-layer
 62
7
100
AcDbLine
 10
149.102406
 20
31.940686
 30
0.0
 11
136.550220
 21
37.793975
 31
0.0
  0
LINE
  5
135
100
AcDbEntity
  8
orthodox-case-middle-layer
 62
7
100
AcDbLine
 10
136.550220
 20
37.793975
 30
0.0
 11
142.403509
 21
50.346161
 31
0.0
  0
LINE
  5
136
100
AcDbEntity
  8
orthodox-case-middle-layer
 62
7
100
AcDbLine
 10
142.403509
 20
50.346161
 30
0.0
 11
154.955695
 21
44.492872
 31
0.0
  0
LINE
  5
137
100
AcDbEntity
  8
orthodox-case-middle-layer
 62
7
100
AcDbLine
 10
154.955695
 20
44.492872
 30
0.0
 11
149.102406
 21
31.940686
 31
0.0
  0
LINE
  5
138
100
AcDbEntity
  8
orthodox-case-middle-layer
 62
7
100
AcDbLine
 10
139.859276
 20
12.473350
 30
0.0
 11
127.306737
 21
18.326286
 31
0.0
  0
LINE
  5
139
100
AcDbEntity
  8
orthodox-case-middle-layer
 62
7
100
AcDbLine
 10
127.306737
 20
18.326286
 30
0.0
 11
133.160026
 21
30.878825
 31
0.0
  0
LINE
  5
13a
100
AcDbEntity
  8
orthodox-case-middle-layer
 62
7
100
AcDbLine
 10
133.160026
 20
30.878825
 30
0.0
 11
145.712564
 21
25.025536
 31
0.0
  0
LINE
  5
13b
100
AcDbEntity
  8
orthodox-case-middle-layer
 62
7
100
AcDbLine
 10
145.712564
 20
25.025536
 30
0.0
 11
139.859276
 21
12.473350
 31
0.0
  0
SPLINE
  5
13c
100
AcDbEntity
  8
orthodox-case-middle-layer
 62
7
100
AcDbSpline
 70
0
 71
3
 72
19
 73
15
 74
13
 40
0.000000
 40
0.000000
 40
0.000000
 40
0.000000
 40
0.549097
 40
1.081944
 40
1.631041
 40
2.179898
 40
2.712681
 40
3.261774
 40
3.810868
 40
4.343650
 40
4.892507
 40
5.441604
 40
5.974451
 40
6.523548
 40
6.523548
 40
6.523548
 40
6.523548
 10
165.200008
 20
48.672230
 30
0.0
 10
165.014880
 20
48.701102
 30
0.0
 10
164.650101
 20
48.757991
 30
0.0
 10
164.248530
 20
49.176092
 30
0.0
 10
164.099672
 20
49.721408
 30
0.0
 10
164.248565
 20
50.272412
 30
0.0
 10
164.650134
 20
50.673519
 30
0.0
 10
165.200008
 20
50.822459
 30
0.0
 10
165.749882
 20
50.673519
 30
0.0
 10
166.151452
 20
50.272412
 30
0.0
 10
166.300345
 20
49.721408
 30
0.0
 10
166.151487
 20
49.176092
 30
0.0
 10
165.749916
 20
48.757991
 30
0.0
 10
165.385137
 20
48.701102
 30
0.0
 10
165.200008
 20
48.672230
 30
0.0
 11
165.200008
 21
48.672230
 31
0.0
 11
164.669966
 21
48.815628
 31
0.0
 11
164.293187
 21
49.192407
 31
0.0
 11
164.149789
 21
49.722449
 31
0.0
 11
164.293187
 21
50.252243
 31
0.0
 11
164.669966
 21
50.628931
 31
0.0
 11
165.200008
 21
50.772316
 31
0.0
 11
165.730050
 21
50.628931
 31
0.0
 11
166.106830
 21
50.252243
 31
0.0
 11
166.250228
 21
49.722449
 31
0.0
 11
166.106830
 21
49.192407
 31
0.0
 11
165.730050
 21
48.815628
 31
0.0
 11
165.200008
 21
48.672230
 31
0.0
  0
LINE
  5
13d
100
AcDbEntity
  8
orthodox-case-middle-layer
 62
7
100
AcDbLine
 10
143.491123
 20
2.000437
 30
0.0
 11
143.491123
 21
2.000437
 31
0.0
  0
LINE
  5
13e
100
AcDbEntity
  8
orthodox-case-middle-layer
 62
7
100
AcDbLine
 10
109.996285
 20
26.398194
 30
0.0
 11
115.849573
 21
38.950733
 31
0.0
  0
LINE
  5
13f
100
AcDbEntity
  8
orthodox-case-middle-layer
 62
7
100
AcDbLine
 10
115.849573
 20
38.950733
 30
0.0
 11
128.401759
 21
33.097444
 31
0.0
  0
LINE
  5
140
100
AcDbEntity
  8
orthodox-case-middle-layer
 62
7
100
AcDbLine
 10
128.401759
 20
33.097444
 30
0.0
 11
122.548823
 21
20.545258
 31
0.0
  0
LINE
  5
141
100
AcDbEntity
  8
orthodox-case-middle-layer
 62
7
100
AcDbLine
 10
122.548823
 20
20.545258
 30
0.0
 11
109.996285
 21
26.398194
 31
0.0
  0
LINE
  5
142
100
AcDbEntity
  8
orthodox-case-middle-layer
 62
7
100
AcDbLine
 10
93.854232
 20
36.739169
 30
0.0
 11
99.707521
 21
49.291708
 31
0.0
  0
LINE
  5
143
100
AcDbEntity
  8
orthodox-case-middle-layer
 62
7
100
AcDbLine
 10
99.707521
 20
49.291708
 30
0.0
 11
112.260060
 21
43.438419
 31
0.0
  0
LINE
  5
144
100
AcDbEntity
  8
orthodox-case-middle-layer
 62
7
100
AcDbLine
 10
112.260060
 20
43.438419
 30
0.0
 11
106.406418
 21
30.885880
 31
0.0
  0
LINE
  5
145
100
AcDbEntity
  8
orthodox-case-middle-layer
 62
7
100
AcDbLine
 10
106.406418
 20
30.885880
 30
0.0
 11
93.854232
 21
36.739169
 31
0.0
  0
SPLINE
  5
146
100
AcDbEntity
  8
orthodox-case-middle-layer
 62
7
100
AcDbSpline
 70
0
 71
3
 72
19
 73
15
 74
13
 40
0.000000
 40
0.000000
 40
0.000000
 40
0.000000
 40
0.549076
 40
1.081868
 40
1.631116
 40
2.179974
 40
2.712756
 40
3.261850
 40
3.810703
 40
4.343421
 40
4.892275
 40
5.441520
 40
5.974247
 40
6.523084
 40
6.523084
 40
6.523084
 40
6.523084
 10
143.491123
 20
2.000437
 30
0.0
 10
143.305997
 20
2.029281
 30
0.0
 10
142.941237
 20
2.086113
 30
0.0
 10
142.539580
 20
2.504188
 30
0.0
 10
142.390800
 20
3.049571
 30
0.0
 10
142.539673
 20
3.600619
 30
0.0
 10
142.941250
 20
4.001718
 30
0.0
 10
143.491045
 20
4.150675
 30
0.0
 10
144.040801
 20
4.001683
 30
0.0
 10
144.442229
 20
3.600585
 30
0.0
 10
144.591092
 20
3.049571
 30
0.0
 10
144.442322
 20
2.504220
 30
0.0
 10
144.040816
 20
2.086155
 30
0.0
 10
143.676164
 20
2.029292
 30
0.0
 10
143.491123
 20
2.000437
 30
0.0
 11
143.491123
 21
2.000437
 31
0.0
 11
142.961081
 21
2.143756
 31
0.0
 11
142.584301
 21
2.520457
 31
0.0
 11
142.440903
 21
3.050656
 31
0.0
 11
142.584301
 21
3.580450
 31
0.0
 11
142.961081
 21
3.957138
 31
0.0
 11
143.491123
 21
4.100523
 31
0.0
 11
144.020917
 21
3.957138
 31
0.0
 11
144.397605
 21
3.580450
 31
0.0
 11
144.540989
 21
3.050656
 31
0.0
 11
144.397605
 21
2.520457
 31
0.0
 11
144.020917
 21
2.143756
 31
0.0
 11
143.491123
 21
2.000437
 31
0.0
  0
LINE
  5
147
100
AcDbEntity
  8
orthodox-case-middle-layer
 62
7
100
AcDbLine
 10
85.049958
 20
29.322369
 30
0.0
 11
85.049958
 21
29.322369
 31
0.0
  0
LINE
  5
148
100
AcDbEntity
  8
orthodox-case-middle-layer
 62
7
100
AcDbLine
 10
85.749869
 20
73.421002
 30
0.0
 11
99.599924
 21
73.421002
 31
0.0
  0
LINE
  5
149
100
AcDbEntity
  8
orthodox-case-middle-layer
 62
7
100
AcDbLine
 10
99.599924
 20
73.421002
 30
0.0
 11
99.599924
 21
59.570946
 31
0.0
  0
LINE
  5
14a
100
AcDbEntity
  8
orthodox-case-middle-layer
 62
7
100
AcDbLine
 10
99.599924
 20
59.570946
 30
0.0
 11
85.749869
 21
59.570946
 31
0.0
  0
LINE
  5
14b
100
AcDbEntity
  8
orthodox-case-middle-layer
 62
7
100
AcDbLine
 10
85.749869
 20
59.570946
 30
0.0
 11
85.749869
 21
73.421002
 31
0.0
  0
LINE
  5
14c
100
AcDbEntity
  8
orthodox-case-middle-layer
 62
7
100
AcDbLine
 10
85.749869
 20
92.467121
 30
0.0
 11
99.599924
 21
92.467121
 31
0.0
  0
LINE
  5
14d
100
AcDbEntity
  8
orthodox-case-middle-layer
 62
7
100
AcDbLine
 10
99.599924
 20
92.467121
 30
0.0
 11
99.599924
 21
78.617065
 31
0.0
  0
LINE
  5
14e
100
AcDbEntity
  8
orthodox-case-middle-layer
 62
7
100
AcDbLine
 10
99.599924
 20
78.617065
 30
0.0
 11
85.749869
 21
78.617065
 31
0.0
  0
LINE
  5
14f
100
AcDbEntity
  8
orthodox-case-middle-layer
 62
7
100
AcDbLine
 10
85.749869
 20
78.617065
 30
0.0
 11
85.749869
 21
92.467121
 31
0.0
  0
LINE
  5
150
100
AcDbEntity
  8
orthodox-case-middle-layer
 62
7
100
AcDbLine
 10
85.749869
 20
111.512887
 30
0.0
 11
99.599924
 21
111.512887
 31
0.0
  0
LINE
  5
151
100
AcDbEntity
  8
orthodox-case-middle-layer
 62
7
100
AcDbLine
 10
99.599924
 20
111.512887
 30
0.0
 11
99.599924
 21
97.662832
 31
0.0
  0
LINE
  5
152
100
AcDbEntity
  8
orthodox-case-middle-layer
 62
7
100
AcDbLine
 10
99.599924
 20
97.662832
 30
0.0
 11
85.749869
 21
97.662832
 31
0.0
  0
LINE
  5
153
100
AcDbEntity
  8
orthodox-case-middle-layer
 62
7
100
AcDbLine
 10
85.749869
 20
97.662832
 30
0.0
 11
85.749869
 21
111.512887
 31
0.0
  0
LINE
  5
154
100
AcDbEntity
  8
orthodox-case-middle-layer
 62
7
100
AcDbLine
 10
104.750832
 20
73.421002
 30
0.0
 11
118.600887
 21
73.421002
 31
0.0
  0
LINE
  5
155
100
AcDbEntity
  8
orthodox-case-middle-layer
 62
7
100
AcDbLine
 10
118.600887
 20
73.421002
 30
0.0
 11
118.600887
 21
59.570946
 31
0.0
  0
LINE
  5
156
100
AcDbEntity
  8
orthodox-case-middle-layer
 62
7
100
AcDbLine
 10
118.600887
 20
59.570946
 30
0.0
 11
104.750832
 21
59.570946
 31
0.0
  0
LINE
  5
157
100
AcDbEntity
  8
orthodox-case-middle-layer
 62
7
100
AcDbLine
 10
104.750832
 20
59.570946
 30
0.0
 11
104.750832
 21
73.421002
 31
0.0
  0
LINE
  5
158
100
AcDbEntity
  8
orthodox-case-middle-layer
 62
7
100
AcDbLine
 10
104.750832
 20
92.467121
 30
0.0
 11
118.600887
 21
92.467121
 31
0.0
  0
LINE
  5
159
100
AcDbEntity
  8
orthodox-case-middle-layer
 62
7
100
AcDbLine
 10
118.600887
 20
92.467121
 30
0.0
 11
118.600887
 21
78.617065
 31
0.0
  0
LINE
  5
15a
100
AcDbEntity
  8
orthodox-case-middle-layer
 62
7
100
AcDbLine
 10
118.600887
 20
78.617065
 30
0.0
 11
104.750832
 21
78.617065
 31
0.0
  0
LINE
  5
15b
100
AcDbEntity
  8
orthodox-case-middle-layer
 62
7
100
AcDbLine
 10
104.750832
 20
78.617065
 30
0.0
 11
104.750832
 21
92.467121
 31
0.0
  0
LINE
  5
15c
100
AcDbEntity
  8
orthodox-case-middle-layer
 62
7
100
AcDbLine
 10
104.750832
 20
111.512887
 30
0.0
 11
118.600887
 21
111.512887
 31
0.0
  0
LINE
  5
15d
100
AcDbEntity
  8
orthodox-case-middle-layer
 62
7
100
AcDbLine
 10
118.600887
 20
111.512887
 30
0.0
 11
118.600887
 21
97.662832
 31
0.0
  0
LINE
  5
15e
100
AcDbEntity
  8
orthodox-case-middle-layer
 62
7
100
AcDbLine
 10
118.600887
 20
97.662832
 30
0.0
 11
104.750832
 21
97.662832
 31
0.0
  0
LINE
  5
15f
100
AcDbEntity
  8
orthodox-case-middle-layer
 62
7
100
AcDbLine
 10
104.750832
 20
97.662832
 30
0.0
 11
104.750832
 21
111.512887
 31
0.0
  0
LINE
  5
160
100
AcDbEntity
  8
orthodox-case-middle-layer
 62
7
100
AcDbLine
 10
125.183368
 20
58.376088
 30
0.0
 11
137.735906
 21
52.522799
 31
0.0
  0
LINE
  5
161
100
AcDbEntity
  8
orthodox-case-middle-layer
 62
7
100
AcDbLine
 10
137.735906
 20
52.522799
 30
0.0
 11
131.882618
 21
39.970261
 31
0.0
  0
LINE
  5
162
100
AcDbEntity
  8
orthodox-case-middle-layer
 62
7
100
AcDbLine
 10
131.882618
 20
39.970261
 30
0.0
 11
119.330432
 21
45.823550
 31
0.0
  0
LINE
  5
163
100
AcDbEntity
  8
orthodox-case-middle-layer
 62
7
100
AcDbLine
 10
119.330432
 20
45.823550
 30
0.0
 11
125.183368
 21
58.376088
 31
0.0
  0
SPLINE
  5
164
100
AcDbEntity
  8
orthodox-case-middle-layer
 62
7
100
AcDbSpline
 70
0
 71
3
 72
19
 73
15
 74
13
 40
0.000000
 40
0.000000
 40
0.000000
 40
0.000000
 40
0.549073
 40
1.081800
 40
1.630809
 40
2.180057
 40
2.712849
 40
3.261925
 40
3.810762
 40
4.343489
 40
4.892734
 40
5.441739
 40
5.974401
 40
6.523235
 40
6.523235
 40
6.523235
 40
6.523235
 10
85.049958
 20
29.322369
 30
0.0
 10
84.864837
 20
29.351212
 30
0.0
 10
84.500107
 20
29.408038
 30
0.0
 10
84.098443
 20
29.825962
 30
0.0
 10
83.949648
 20
30.371350
 30
0.0
 10
84.098408
 20
30.922502
 30
0.0
 10
84.500073
 20
31.323741
 30
0.0
 10
85.049880
 20
31.472561
 30
0.0
 10
85.599648
 20
31.323705
 30
0.0
 10
86.001164
 20
30.922468
 30
0.0
 10
86.149913
 20
30.371350
 30
0.0
 10
86.001128
 20
29.825994
 30
0.0
 10
85.599615
 20
29.408081
 30
0.0
 10
85.234994
 20
29.351223
 30
0.0
 10
85.049958
 20
29.322369
 30
0.0
 11
85.049958
 21
29.322369
 31
0.0
 11
84.519916
 21
29.465676
 31
0.0
 11
84.143136
 21
29.842285
 31
0.0
 11
83.999738
 21
30.372236
 31
0.0
 11
84.143136
 21
30.902435
 31
0.0
 11
84.519916
 21
31.279136
 31
0.0
 11
85.049958
 21
31.422455
 31
0.0
 11
85.579751
 21
31.279136
 31
0.0
 11
85.956440
 21
30.902435
 31
0.0
 11
86.099824
 21
30.372236
 31
0.0
 11
85.956440
 21
29.842285
 31
0.0
 11
85.579751
 21
29.465676
 31
0.0
 11
85.049958
 21
29.322369
 31
0.0
  0
LINE
  5
165
100
AcDbEntity
  8
orthodox-case-middle-layer
 62
7
100
AcDbLine
 10
125.300843
 20
69.436377
 30
0.0
 11
125.300843
 21
69.436377
 31
0.0
  0
SPLINE
  5
166
100
AcDbEntity
  8
orthodox-case-middle-layer
 62
7
100
AcDbSpline
 70
0
 71
3
 72
19
 73
15
 74
13
 40
0.000000
 40
0.000000
 40
0.000000
 40
0.000000
 40
0.549097
 40
1.081944
 40
1.631041
 40
2.179898
 40
2.712681
 40
3.261774
 40
3.810628
 40
4.343346
 40
4.892200
 40
5.441293
 40
5.974075
 40
6.522933
 40
6.522933
 40
6.522933
 40
6.522933
 10
125.300843
 20
69.436377
 30
0.0
 10
125.485971
 20
69.407505
 30
0.0
 10
125.850750
 20
69.350616
 30
0.0
 10
126.252322
 20
68.932514
 30
0.0
 10
126.401179
 20
68.387200
 30
0.0
 10
126.252286
 20
67.836193
 30
0.0
 10
125.850717
 20
67.435096
 30
0.0
 10
125.300921
 20
67.286138
 30
0.0
 10
124.751162
 20
67.435131
 30
0.0
 10
124.349744
 20
67.836226
 30
0.0
 10
124.200861
 20
68.387199
 30
0.0
 10
124.349708
 20
68.932482
 30
0.0
 10
124.751128
 20
69.350573
 30
0.0
 10
125.115798
 20
69.407494
 30
0.0
 10
125.300843
 20
69.436377
 30
0.0
 11
125.300843
 21
69.436377
 31
0.0
 11
125.830885
 21
69.292979
 31
0.0
 11
126.207664
 21
68.916199
 31
0.0
 11
126.351062
 21
68.386157
 31
0.0
 11
126.207664
 21
67.856363
 31
0.0
 11
125.830885
 21
67.479675
 31
0.0
 11
125.300843
 21
67.336291
 31
0.0
 11
124.771049
 21
67.479675
 31
0.0
 11
124.394361
 21
67.856363
 31
0.0
 11
124.250976
 21
68.386157
 31
0.0
 11
124.394361
 21
68.916199
 31
0.0
 11
124.771049
 21
69.292979
 31
0.0
 11
125.300843
 21
69.436377
 31
0.0
  0
LINE
  5
167
100
AcDbEntity
  8
orthodox-case-middle-layer
 62
7
100
AcDbLine
 10
125.300843
 20
119.161109
 30
0.0
 11
125.300843
 21
119.161109
 31
0.0
  0
LINE
  5
168
100
AcDbEntity
  8
orthodox-case-middle-layer
 62
7
100
AcDbLine
 10
80.599666
 20
97.663184
 30
0.0
 11
66.749611
 21
97.663184
 31
0.0
  0
LINE
  5
169
100
AcDbEntity
  8
orthodox-case-middle-layer
 62
7
100
AcDbLine
 10
66.749611
 20
97.663184
 30
0.0
 11
66.749611
 21
111.513240
 31
0.0
  0
LINE
  5
16a
100
AcDbEntity
  8
orthodox-case-middle-layer
 62
7
100
AcDbLine
 10
66.749611
 20
111.513240
 30
0.0
 11
80.599666
 21
111.513240
 31
0.0
  0
LINE
  5
16b
100
AcDbEntity
  8
orthodox-case-middle-layer
 62
7
100
AcDbLine
 10
80.599666
 20
111.513240
 30
0.0
 11
80.599666
 21
97.663184
 31
0.0
  0
LINE
  5
16c
100
AcDbEntity
  8
orthodox-case-middle-layer
 62
7
100
AcDbLine
 10
80.599666
 20
78.617065
 30
0.0
 11
66.749611
 21
78.617065
 31
0.0
  0
LINE
  5
16d
100
AcDbEntity
  8
orthodox-case-middle-layer
 62
7
100
AcDbLine
 10
66.749611
 20
78.617065
 30
0.0
 11
66.749611
 21
92.467121
 31
0.0
  0
LINE
  5
16e
100
AcDbEntity
  8
orthodox-case-middle-layer
 62
7
100
AcDbLine
 10
66.749611
 20
92.467121
 30
0.0
 11
80.599666
 21
92.467121
 31
0.0
  0
LINE
  5
16f
100
AcDbEntity
  8
orthodox-case-middle-layer
 62
7
100
AcDbLine
 10
80.599666
 20
92.467121
 30
0.0
 11
80.599666
 21
78.617065
 31
0.0
  0
LINE
  5
170
100
AcDbEntity
  8
orthodox-case-middle-layer
 62
7
100
AcDbLine
 10
80.599666
 20
59.570946
 30
0.0
 11
66.749611
 21
59.570946
 31
0.0
  0
LINE
  5
171
100
AcDbEntity
  8
orthodox-case-middle-layer
 62
7
100
AcDbLine
 10
66.749611
 20
59.570946
 30
0.0
 11
66.749611
 21
73.421002
 31
0.0
  0
LINE
  5
172
100
AcDbEntity
  8
orthodox-case-middle-layer
 62
7
100
AcDbLine
 10
66.749611
 20
73.421002
 30
0.0
 11
80.599666
 21
73.421002
 31
0.0
  0
LINE
  5
173
100
AcDbEntity
  8
orthodox-case-middle-layer
 62
7
100
AcDbLine
 10
80.599666
 20
73.421002
 30
0.0
 11
80.599666
 21
59.570946
 31
0.0
  0
SPLINE
  5
174
100
AcDbEntity
  8
orthodox-case-middle-layer
 62
7
100
AcDbSpline
 70
0
 71
3
 72
19
 73
15
 74
13
 40
0.000000
 40
0.000000
 40
0.000000
 40
0.000000
 40
0.549097
 40
1.081944
 40
1.631041
 40
2.180138
 40
2.712985
 40
3.262082
 40
3.810939
 40
4.343721
 40
4.892815
 40
5.441909
 40
5.974691
 40
6.523548
 40
6.523548
 40
6.523548
 40
6.523548
 10
125.300843
 20
119.161109
 30
0.0
 10
125.485971
 20
119.132237
 30
0.0
 10
125.850748
 20
119.075348
 30
0.0
 10
126.252330
 20
118.657246
 30
0.0
 10
126.401170
 20
118.111854
 30
0.0
 10
126.252329
 20
117.560731
 30
0.0
 10
125.850749
 20
117.159484
 30
0.0
 10
125.300921
 20
117.010516
 30
0.0
 10
124.751131
 20
117.159519
 30
0.0
 10
124.349700
 20
117.560765
 30
0.0
 10
124.200870
 20
118.111854
 30
0.0
 10
124.349700
 20
118.657213
 30
0.0
 10
124.751130
 20
119.075305
 30
0.0
 10
125.115799
 20
119.132226
 30
0.0
 10
125.300843
 20
119.161109
 30
0.0
 11
125.300843
 21
119.161109
 31
0.0
 11
125.830885
 21
119.017711
 31
0.0
 11
126.207664
 21
118.640931
 31
0.0
 11
126.351062
 21
118.110889
 31
0.0
 11
126.207664
 21
117.580847
 31
0.0
 11
125.830885
 21
117.204068
 31
0.0
 11
125.300843
 21
117.060670
 31
0.0
 11
124.771049
 21
117.204068
 31
0.0
 11
124.394361
 21
117.580847
 31
0.0
 11
124.250976
 21
118.110889
 31
0.0
 11
124.394361
 21
118.640931
 31
0.0
 11
124.771049
 21
119.017711
 31
0.0
 11
125.300843
 21
119.161109
 31
0.0
  0
LINE
  5
175
100
AcDbEntity
  8
orthodox-case-middle-layer
 62
7
100
AcDbLine
 10
64.175391
 20
117.060670
 30
0.0
 11
64.175391
 21
117.060670
 31
0.0
  0
SPLINE
  5
176
100
AcDbEntity
  8
orthodox-case-middle-layer
 62
7
100
AcDbSpline
 70
0
 71
3
 72
19
 73
15
 74
13
 40
0.000000
 40
0.000000
 40
0.000000
 40
0.000000
 40
0.549009
 40
1.081736
 40
1.630809
 40
2.179882
 40
2.712609
 40
3.261617
 40
3.810626
 40
4.343353
 40
4.892426
 40
5.441499
 40
5.974226
 40
6.523235
 40
6.523235
 40
6.523235
 40
6.523235
 10
64.175391
 20
117.060670
 30
0.0
 10
63.990288
 20
117.089537
 30
0.0
 10
63.625572
 20
117.146415
 30
0.0
 10
63.224150
 20
117.564585
 30
0.0
 10
63.075467
 20
118.109925
 30
0.0
 10
63.224150
 20
118.660993
 30
0.0
 10
63.625572
 20
119.062323
 30
0.0
 10
64.175391
 20
119.211245
 30
0.0
 10
64.725211
 20
119.062323
 30
0.0
 10
65.126633
 20
118.660993
 30
0.0
 10
65.275316
 20
118.109925
 30
0.0
 10
65.126633
 20
117.564585
 30
0.0
 10
64.725211
 20
117.146415
 30
0.0
 10
64.360494
 20
117.089537
 30
0.0
 10
64.175391
 20
117.060670
 30
0.0
 11
64.175391
 21
117.060670
 31
0.0
 11
63.645441
 21
117.204068
 31
0.0
 11
63.268831
 21
117.580847
 31
0.0
 11
63.125525
 21
118.110889
 31
0.0
 11
63.268831
 21
118.640931
 31
0.0
 11
63.645441
 21
119.017711
 31
0.0
 11
64.175391
 21
119.161109
 31
0.0
 11
64.705342
 21
119.017711
 31
0.0
 11
65.081952
 21
118.640931
 31
0.0
 11
65.225258
 21
118.110889
 31
0.0
 11
65.081952
 21
117.580847
 31
0.0
 11
64.705342
 21
117.204068
 31
0.0
 11
64.175391
 21
117.060670
 31
0.0
  0
LINE
  5
177
100
AcDbEntity
  8
orthodox-case-middle-layer
 62
7
100
AcDbLine
 10
64.175391
 20
51.923077
 30
0.0
 11
64.175391
 21
51.923077
 31
0.0
  0
LINE
  5
178
100
AcDbEntity
  8
orthodox-case-middle-layer
 62
7
100
AcDbLine
 10
61.600114
 20
97.663184
 30
0.0
 11
47.750059
 21
97.663184
 31
0.0
  0
LINE
  5
179
100
AcDbEntity
  8
orthodox-case-middle-layer
 62
7
100
AcDbLine
 10
47.750059
 20
97.663184
 30
0.0
 11
47.750059
 21
111.513240
 31
0.0
  0
LINE
  5
17a
100
AcDbEntity
  8
orthodox-case-middle-layer
 62
7
100
AcDbLine
 10
47.750059
 20
111.513240
 30
0.0
 11
61.600114
 21
111.513240
 31
0.0
  0
LINE
  5
17b
100
AcDbEntity
  8
orthodox-case-middle-layer
 62
7
100
AcDbLine
 10
61.600114
 20
111.513240
 30
0.0
 11
61.600114
 21
97.663184
 31
0.0
  0
LINE
  5
17c
100
AcDbEntity
  8
orthodox-case-middle-layer
 62
7
100
AcDbLine
 10
61.600114
 20
78.617065
 30
0.0
 11
47.750059
 21
78.617065
 31
0.0
  0
LINE
  5
17d
100
AcDbEntity
  8
orthodox-case-middle-layer
 62
7
100
AcDbLine
 10
47.750059
 20
78.617065
 30
0.0
 11
47.750059
 21
92.467121
 31
0.0
  0
LINE
  5
17e
100
AcDbEntity
  8
orthodox-case-middle-layer
 62
7
100
AcDbLine
 10
47.750059
 20
92.467121
 30
0.0
 11
61.600114
 21
92.467121
 31
0.0
  0
LINE
  5
17f
100
AcDbEntity
  8
orthodox-case-middle-layer
 62
7
100
AcDbLine
 10
61.600114
 20
92.467121
 30
0.0
 11
61.600114
 21
78.617065
 31
0.0
  0
LINE
  5
180
100
AcDbEntity
  8
orthodox-case-middle-layer
 62
7
100
AcDbLine
 10
61.600114
 20
59.570946
 30
0.0
 11
47.750059
 21
59.570946
 31
0.0
  0
LINE
  5
181
100
AcDbEntity
  8
orthodox-case-middle-layer
 62
7
100
AcDbLine
 10
47.750059
 20
59.570946
 30
0.0
 11
47.750059
 21
73.421002
 31
0.0
  0
LINE
  5
182
100
AcDbEntity
  8
orthodox-case-middle-layer
 62
7
100
AcDbLine
 10
47.750059
 20
73.421002
 30
0.0
 11
61.600114
 21
73.421002
 31
0.0
  0
LINE
  5
183
100
AcDbEntity
  8
orthodox-case-middle-layer
 62
7
100
AcDbLine
 10
61.600114
 20
73.421002
 30
0.0
 11
61.600114
 21
59.570946
 31
0.0
  0
LINE
  5
184
100
AcDbEntity
  8
orthodox-case-middle-layer
 62
7
100
AcDbLine
 10
42.599856
 20
97.663184
 30
0.0
 11
28.749801
 21
97.663184
 31
0.0
  0
LINE
  5
185
100
AcDbEntity
  8
orthodox-case-middle-layer
 62
7
100
AcDbLine
 10
28.749801
 20
97.663184
 30
0.0
 11
28.749801
 21
111.513240
 31
0.0
  0
LINE
  5
186
100
AcDbEntity
  8
orthodox-case-middle-layer
 62
7
100
AcDbLine
 10
28.749801
 20
111.513240
 30
0.0
 11
42.599856
 21
111.513240
 31
0.0
  0
LINE
  5
187
100
AcDbEntity
  8
orthodox-case-middle-layer
 62
7
100
AcDbLine
 10
42.599856
 20
111.513240
 30
0.0
 11
42.599856
 21
97.663184
 31
0.0
  0
LINE
  5
188
100
AcDbEntity
  8
orthodox-case-middle-layer
 62
7
100
AcDbLine
 10
42.599856
 20
78.617065
 30
0.0
 11
28.749801
 21
78.617065
 31
0.0
  0
LINE
  5
189
100
AcDbEntity
  8
orthodox-case-middle-layer
 62
7
100
AcDbLine
 10
28.749801
 20
78.617065
 30
0.0
 11
28.749801
 21
92.467121
 31
0.0
  0
LINE
  5
18a
100
AcDbEntity
  8
orthodox-case-middle-layer
 62
7
100
AcDbLine
 10
28.749801
 20
92.467121
 30
0.0
 11
42.599856
 21
92.467121
 31
0.0
  0
LINE
  5
18b
100
AcDbEntity
  8
orthodox-case-middle-layer
 62
7
100
AcDbLine
 10
42.599856
 20
92.467121
 30
0.0
 11
42.599856
 21
78.617065
 31
0.0
  0
LINE
  5
18c
100
AcDbEntity
  8
orthodox-case-middle-layer
 62
7
100
AcDbLine
 10
42.599856
 20
59.570946
 30
0.0
 11
28.749801
 21
59.570946
 31
0.0
  0
LINE
  5
18d
100
AcDbEntity
  8
orthodox-case-middle-layer
 62
7
100
AcDbLine
 10
28.749801
 20
59.570946
 30
0.0
 11
28.749801
 21
73.421002
 31
0.0
  0
LINE
  5
18e
100
AcDbEntity
  8
orthodox-case-middle-layer
 62
7
100
AcDbLine
 10
28.749801
 20
73.421002
 30
0.0
 11
42.599856
 21
73.421002
 31
0.0
  0
LINE
  5
18f
100
AcDbEntity
  8
orthodox-case-middle-layer
 62
7
100
AcDbLine
 10
42.599856
 20
73.421002
 30
0.0
 11
42.599856
 21
59.570946
 31
0.0
  0
LINE
  5
190
100
AcDbEntity
  8
orthodox-case-middle-layer
 62
7
100
AcDbLine
 10
23.599951
 20
97.663184
 30
0.0
 11
9.749896
 21
97.663184
 31
0.0
  0
LINE
  5
191
100
AcDbEntity
  8
orthodox-case-middle-layer
 62
7
100
AcDbLine
 10
9.749896
 20
97.663184
 30
0.0
 11
9.749896
 21
111.513240
 31
0.0
  0
LINE
  5
192
100
AcDbEntity
  8
orthodox-case-middle-layer
 62
7
100
AcDbLine
 10
9.749896
 20
111.513240
 30
0.0
 11
23.599951
 21
111.513240
 31
0.0
  0
LINE
  5
193
100
AcDbEntity
  8
orthodox-case-middle-layer
 62
7
100
AcDbLine
 10
23.599951
 20
111.513240
 30
0.0
 11
23.599951
 21
97.663184
 31
0.0
  0
LINE
  5
194
100
AcDbEntity
  8
orthodox-case-middle-layer
 62
7
100
AcDbLine
 10
23.599951
 20
78.617065
 30
0.0
 11
9.749896
 21
78.617065
 31
0.0
  0
LINE
  5
195
100
AcDbEntity
  8
orthodox-case-middle-layer
 62
7
100
AcDbLine
 10
9.749896
 20
78.617065
 30
0.0
 11
9.749896
 21
92.467121
 31
0.0
  0
LINE
  5
196
100
AcDbEntity
  8
orthodox-case-middle-layer
 62
7
100
AcDbLine
 10
9.749896
 20
92.467121
 30
0.0
 11
23.599951
 21
92.467121
 31
0.0
  0
LINE
  5
197
100
AcDbEntity
  8
orthodox-case-middle-layer
 62
7
100
AcDbLine
 10
23.599951
 20
92.467121
 30
0.0
 11
23.599951
 21
78.617065
 31
0.0
  0
LINE
  5
198
100
AcDbEntity
  8
orthodox-case-middle-layer
 62
7
100
AcDbLine
 10
23.599951
 20
59.570946
 30
0.0
 11
9.749896
 21
59.570946
 31
0.0
  0
LINE
  5
199
100
AcDbEntity
  8
orthodox-case-middle-layer
 62
7
100
AcDbLine
 10
9.749896
 20
59.570946
 30
0.0
 11
9.749896
 21
73.421002
 31
0.0
  0
LINE
  5
19a
100
AcDbEntity
  8
orthodox-case-middle-layer
 62
7
100
AcDbLine
 10
9.749896
 20
73.421002
 30
0.0
 11
23.599951
 21
73.421002
 31
0.0
  0
LINE
  5
19b
100
AcDbEntity
  8
orthodox-case-middle-layer
 62
7
100
AcDbLine
 10
23.599951
 20
73.421002
 30
0.0
 11
23.599951
 21
59.570946
 31
0.0
  0
SPLINE
  5
19c
100
AcDbEntity
  8
orthodox-case-middle-layer
 62
7
100
AcDbSpline
 70
0
 71
3
 72
19
 73
15
 74
13
 40
0.000000
 40
0.000000
 40
0.000000
 40
0.000000
 40
0.548981
 40
1.081523
 40
1.630269
 40
2.179493
 40
2.712165
 40
3.261153
 40
3.810141
 40
4.342812
 40
4.892037
 40
5.440782
 40
5.973324
 40
6.522305
 40
6.522305
 40
6.522305
 40
6.522305
 10
64.175391
 20
51.923077
 30
0.0
 10
63.990299
 20
51.951914
 30
0.0
 10
63.625658
 20
52.008723
 30
0.0
 10
63.224166
 20
52.426560
 30
0.0
 10
63.075476
 20
52.971784
 30
0.0
 10
63.224094
 20
53.522803
 30
0.0
 10
63.625591
 20
53.924123
 30
0.0
 10
64.175391
 20
54.072898
 30
0.0
 10
64.725192
 20
53.924123
 30
0.0
 10
65.126688
 20
53.522803
 30
0.0
 10
65.275307
 20
52.971784
 30
0.0
 10
65.126617
 20
52.426560
 30
0.0
 10
64.725125
 20
52.008723
 30
0.0
 10
64.360483
 20
51.951914
 30
0.0
 10
64.175391
 20
51.923077
 30
0.0
 11
64.175391
 21
51.923077
 31
0.0
 11
63.645441
 21
52.066370
 31
0.0
 11
63.268831
 21
52.442889
 31
0.0
 11
63.125525
 21
52.972591
 31
0.0
 11
63.268831
 21
53.502790
 31
0.0
 11
63.645441
 21
53.879491
 31
0.0
 11
64.175391
 21
54.022810
 31
0.0
 11
64.705342
 21
53.879491
 31
0.0
 11
65.081952
 21
53.502790
 31
0.0
 11
65.225258
 21
52.972591
 31
0.0
 11
65.081952
 21
52.442889
 31
0.0
 11
64.705342
 21
52.066370
 31
0.0
 11
64.175391
 21
51.923077
 31
0.0
  0
LINE
  5
19d
100
AcDbEntity
  8
orthodox-case-middle-layer
 62
7
100
AcDbLine
 10
3.049940
 20
117.060670
 30
0.0
 11
3.049940
 21
117.060670
 31
0.0
  0
SPLINE
  5
19e
100
AcDbEntity
  8
orthodox-case-middle-layer
 62
7
100
AcDbSpline
 70
0
 71
3
 72
19
 73
15
 74
13
 40
0.000000
 40
0.000000
 40
0.000000
 40
0.000000
 40
0.549097
 40
1.081944
 40
1.631041
 40
2.180138
 40
2.712985
 40
3.262082
 40
3.810939
 40
4.343721
 40
4.892815
 40
5.441909
 40
5.974691
 40
6.523548
 40
6.523548
 40
6.523548
 40
6.523548
 10
3.049940
 20
117.060670
 30
0.0
 10
2.864812
 20
117.089542
 30
0.0
 10
2.500035
 20
117.146431
 30
0.0
 10
2.098453
 20
117.564533
 30
0.0
 10
1.949613
 20
118.109925
 30
0.0
 10
2.098454
 20
118.661048
 30
0.0
 10
2.500034
 20
119.062295
 30
0.0
 10
3.049862
 20
119.211263
 30
0.0
 10
3.599652
 20
119.062260
 30
0.0
 10
4.001083
 20
118.661014
 30
0.0
 10
4.149913
 20
118.109925
 30
0.0
 10
4.001083
 20
117.564565
 30
0.0
 10
3.599653
 20
117.146473
 30
0.0
 10
3.234984
 20
117.089553
 30
0.0
 10
3.049940
 20
117.060670
 30
0.0
 11
3.049940
 21
117.060670
 31
0.0
 11
2.519898
 21
117.204068
 31
0.0
 11
2.143118
 21
117.580847
 31
0.0
 11
1.999721
 21
118.110889
 31
0.0
 11
2.143118
 21
118.640931
 31
0.0
 11
2.519898
 21
119.017711
 31
0.0
 11
3.049940
 21
119.161109
 31
0.0
 11
3.579734
 21
119.017711
 31
0.0
 11
3.956422
 21
118.640931
 31
0.0
 11
4.099807
 21
118.110889
 31
0.0
 11
3.956422
 21
117.580847
 31
0.0
 11
3.579734
 21
117.204068
 31
0.0
 11
3.049940
 21
117.060670
 31
0.0
  0
LINE
  5
19f
100
AcDbEntity
  8
orthodox-case-middle-layer
 62
7
100
AcDbLine
 10
3.049940
 20
51.923077
 30
0.0
 11
3.049940
 21
51.923077
 31
0.0
  0
LINE
  5
1a0
100
AcDbEntity
  8
orthodox-case-middle-layer
 62
7
100
AcDbLine
 10
166.476711
 20
52.442719
 30
0.0
 11
130.030887
 21
69.478357
 31
0.0
  0
SPLINE
  5
1a1
100
AcDbEntity
  8
orthodox-case-middle-layer
 62
7
100
AcDbSpline
 70
0
 71
3
 72
19
 73
15
 74
13
 40
0.000000
 40
0.000000
 40
0.000000
 40
0.000000
 40
0.549070
 40
1.081732
 40
1.630501
 40
2.179749
 40
2.712541
 40
3.261617
 40
3.810454
 40
4.343181
 40
4.892426
 40
5.441192
 40
5.973789
 40
6.522619
 40
6.522619
 40
6.522619
 40
6.522619
 10
3.049940
 20
51.923077
 30
0.0
 10
2.864823
 20
51.951918
 30
0.0
 10
2.500121
 20
52.008739
 30
0.0
 10
2.098469
 20
52.426508
 30
0.0
 10
1.949621
 20
52.971783
 30
0.0
 10
2.098398
 20
53.522858
 30
0.0
 10
2.500054
 20
53.924096
 30
0.0
 10
3.049862
 20
54.072916
 30
0.0
 10
3.599633
 20
53.924060
 30
0.0
 10
4.001138
 20
53.522824
 30
0.0
 10
4.149905
 20
52.971783
 30
0.0
 10
4.001067
 20
52.426541
 30
0.0
 10
3.599566
 20
52.008782
 30
0.0
 10
3.234973
 20
51.951930
 30
0.0
 10
3.049940
 20
51.923077
 30
0.0
 11
3.049940
 21
51.923077
 31
0.0
 11
2.519898
 21
52.066370
 31
0.0
 11
2.143118
 21
52.442889
 31
0.0
 11
1.999721
 21
52.972591
 31
0.0
 11
2.143118
 21
53.502790
 31
0.0
 11
2.519898
 21
53.879491
 31
0.0
 11
3.049940
 21
54.022810
 31
0.0
 11
3.579734
 21
53.879491
 31
0.0
 11
3.956422
 21
53.502790
 31
0.0
 11
4.099807
 21
52.972591
 31
0.0
 11
3.956422
 21
52.442889
 31
0.0
 11
3.579734
 21
52.066370
 31
0.0
 11
3.049940
 21
51.923077
 31
0.0
  0
LINE
  5
1a2
100
AcDbEntity
  8
orthodox-case-middle-layer
 62
7
100
AcDbLine
 10
128.300865
 20
72.195804
 30
0.0
 11
128.300865
 21
118.110889
 31
0.0
  0
SPLINE
  5
1a3
100
AcDbEntity
  8
orthodox-case-middle-layer
 62
7
100
AcDbSpline
 70
0
 71
3
 72
10
 73
6
 74
4
 40
0.000000
 40
0.000000
 40
0.000000
 40
0.000000
 40
1.133215
 40
2.247508
 40
3.380605
 40
3.380605
 40
3.380605
 40
3.380605
 10
130.030887
 20
69.478357
 30
0.0
 10
129.706019
 20
69.677324
 30
0.0
 10
129.061709
 20
70.071936
 30
0.0
 10
128.428660
 20
71.066625
 30
0.0
 10
128.343700
 20
71.817317
 30
0.0
 10
128.300865
 20
72.195804
 30
0.0
 11
130.030887
 21
69.478357
 31
0.0
 11
129.113090
 21
70.143056
 31
0.0
 11
128.514753
 21
71.083078
 31
0.0
 11
128.300865
 21
72.195804
 31
0.0
  0
LINE
  5
1a4
100
AcDbEntity
  8
orthodox-case-middle-layer
 62
7
100
AcDbLine
 10
125.300843
 20
121.110912
 30
0.0
 11
3.049940
 21
121.110912
 31
0.0
  0
SPLINE
  5
1a5
100
AcDbEntity
  8
orthodox-case-middle-layer
 62
7
100
AcDbSpline
 70
0
 71
3
 72
10
 73
6
 74
4
 40
0.000000
 40
0.000000
 40
0.000000
 40
0.000000
 40
1.568637
 40
3.090661
 40
4.659299
 40
4.659299
 40
4.659299
 40
4.659299
 10
128.300865
 20
118.110889
 30
0.0
 10
128.218365
 20
118.636592
 30
0.0
 10
128.055817
 20
119.672375
 30
0.0
 10
126.862328
 20
120.865864
 30
0.0
 10
125.826545
 20
121.028412
 30
0.0
 10
125.300843
 20
121.110912
 30
0.0
 11
128.300865
 21
118.110889
 31
0.0
 11
127.891303
 21
119.625116
 31
0.0
 11
126.815069
 21
120.701350
 31
0.0
 11
125.300843
 21
121.110912
 31
0.0
  0
LINE
  5
1a6
100
AcDbEntity
  8
orthodox-case-middle-layer
 62
7
100
AcDbLine
 10
0.049918
 20
118.110889
 30
0.0
 11
0.049918
 21
52.972944
 31
0.0
  0
SPLINE
  5
1a7
100
AcDbEntity
  8
orthodox-case-middle-layer
 62
7
100
AcDbSpline
 70
0
 71
3
 72
10
 73
6
 74
4
 40
0.000000
 40
0.000000
 40
0.000000
 40
0.000000
 40
1.568637
 40
3.090661
 40
4.659299
 40
4.659299
 40
4.659299
 40
4.659299
 10
3.049940
 20
121.110912
 30
0.0
 10
2.524238
 20
121.028412
 30
0.0
 10
1.488455
 20
120.865864
 30
0.0
 10
0.294965
 20
119.672375
 30
0.0
 10
0.132418
 20
118.636592
 30
0.0
 10
0.049918
 20
118.110889
 30
0.0
 11
3.049940
 21
121.110912
 31
0.0
 11
1.535713
 21
120.701350
 31
0.0
 11
0.459480
 21
119.625116
 31
0.0
 11
0.049918
 21
118.110889
 31
0.0
  0
LINE
  5
1a8
100
AcDbEntity
  8
orthodox-case-middle-layer
 62
7
100
AcDbLine
 10
3.049940
 20
49.972922
 30
0.0
 11
80.049685
 21
49.972922
 31
0.0
  0
SPLINE
  5
1a9
100
AcDbEntity
  8
orthodox-case-middle-layer
 62
7
100
AcDbSpline
 70
0
 71
3
 72
10
 73
6
 74
4
 40
0.000000
 40
0.000000
 40
0.000000
 40
0.000000
 40
1.568637
 40
3.090661
 40
4.659299
 40
4.659299
 40
4.659299
 40
4.659299
 10
0.049918
 20
52.972944
 30
0.0
 10
0.132418
 20
52.447241
 30
0.0
 10
0.294965
 20
51.411458
 30
0.0
 10
1.488455
 20
50.217969
 30
0.0
 10
2.524238
 20
50.055421
 30
0.0
 10
3.049940
 20
49.972922
 30
0.0
 11
0.049918
 21
52.972944
 31
0.0
 11
0.459480
 21
51.458717
 31
0.0
 11
1.535713
 21
50.382484
 31
0.0
 11
3.049940
 21
49.972922
 31
0.0
  0
LINE
  5
1aa
100
AcDbEntity
  8
orthodox-case-middle-layer
 62
7
100
AcDbLine
 10
82.049935
 20
47.973024
 30
0.0
 11
82.049935
 21
30.368003
 31
0.0
  0
SPLINE
  5
1ab
100
AcDbEntity
  8
orthodox-case-middle-layer
 62
7
100
AcDbSpline
 70
0
 71
3
 72
10
 73
6
 74
4
 40
0.000000
 40
0.000000
 40
0.000000
 40
0.000000
 40
1.045937
 40
2.060697
 40
3.106226
 40
3.106226
 40
3.106226
 40
3.106226
 10
80.049685
 20
49.972922
 30
0.0
 10
80.400211
 20
49.917902
 30
0.0
 10
81.090812
 20
49.809502
 30
0.0
 10
81.886493
 20
49.013864
 30
0.0
 10
81.994915
 20
48.323408
 30
0.0
 10
82.049935
 20
47.973024
 30
0.0
 11
80.049685
 21
49.972922
 31
0.0
 11
81.059335
 21
49.699806
 31
0.0
 11
81.776885
 21
48.982269
 31
0.0
 11
82.049935
 21
47.973024
 31
0.0
  0
LINE
  5
1ac
100
AcDbEntity
  8
orthodox-case-middle-layer
 62
7
100
AcDbLine
 10
83.779605
 20
27.650203
 30
0.0
 11
142.224298
 21
0.332856
 31
0.0
  0
SPLINE
  5
1ad
100
AcDbEntity
  8
orthodox-case-middle-layer
 62
7
100
AcDbSpline
 70
0
 71
3
 72
10
 73
6
 74
4
 40
0.000000
 40
0.000000
 40
0.000000
 40
0.000000
 40
1.133030
 40
2.247285
 40
3.380536
 40
3.380536
 40
3.380536
 40
3.380536
 10
82.049935
 20
30.368003
 30
0.0
 10
82.092770
 20
29.989534
 30
0.0
 10
82.177729
 20
29.238870
 30
0.0
 10
82.810742
 20
28.244254
 30
0.0
 10
83.454836
 20
27.849333
 30
0.0
 10
83.779605
 20
27.650203
 30
0.0
 11
82.049935
 21
30.368003
 31
0.0
 11
82.263810
 21
29.255342
 31
0.0
 11
82.862056
 21
28.315306
 31
0.0
 11
83.779605
 21
27.650203
 31
0.0
  0
LINE
  5
1ae
100
AcDbEntity
  8
orthodox-case-middle-layer
 62
7
100
AcDbLine
 10
146.214567
 20
1.785242
 30
0.0
 11
167.926628
 21
48.459505
 31
0.0
  0
SPLINE
  5
1af
100
AcDbEntity
  8
orthodox-case-middle-layer
 62
7
100
AcDbSpline
 70
0
 71
3
 72
10
 73
6
 74
4
 40
0.000000
 40
0.000000
 40
0.000000
 40
0.000000
 40
1.570314
 40
3.093940
 40
4.664540
 40
4.664540
 40
4.664540
 40
4.664540
 10
142.224298
 20
0.332856
 30
0.0
 10
142.736061
 20
0.184846
 30
0.0
 10
143.744372
 20
-0.106774
 30
0.0
 10
145.332514
 20
0.471303
 30
0.0
 10
145.917589
 20
1.342852
 30
0.0
 10
146.214567
 20
1.785242
 30
0.0
 11
142.224298
 21
0.332856
 31
0.0
 11
143.771202
 21
0.062720
 31
0.0
 11
145.202944
 21
0.583825
 31
0.0
 11
146.214567
 21
1.785242
 31
0.0
  0
LINE
  5
1b0
100
AcDbEntity
  8
orthodox-case-middle-layer
 62
7
100
AcDbLine
 10
166.476711
 20
52.442719
 30
0.0
 11
166.476711
 21
52.442719
 31
0.0
  0
SPLINE
  5
1b1
100
AcDbEntity
  8
orthodox-case-middle-layer
 62
7
100
AcDbSpline
 70
0
 71
3
 72
10
 73
6
 74
4
 40
0.000000
 40
0.000000
 40
0.000000
 40
0.000000
 40
1.566795
 40
3.087244
 40
4.653974
 40
4.653974
 40
4.653974
 40
4.653974
 10
167.926628
 20
48.459505
 30
0.0
 10
168.073402
 20
48.970318
 30
0.0
 10
168.362609
 20
49.976834
 30
0.0
 10
167.786059
 20
51.560759
 30
0.0
 10
166.917501
 20
52.145808
 30
0.0
 10
166.476711
 20
52.442719
 30
0.0
 11
167.926628
 21
48.459505
 31
0.0
 11
168.193955
 21
50.003326
 31
0.0
 11
167.673882
 21
51.432063
 31
0.0
 11
166.476711
 21
52.442719
 31
0.0
  0
LINE
  5
1b2
100
AcDbEntity
  8
orthodox-case-middle-layer
 62
7
100
AcDbLine
 10
165.200008
 20
48.672230
 30
0.0
 11
165.200008
 21
48.672230
 31
0.0
  0
SPLINE
  5
1b3
100
AcDbEntity
  8
orthodox-case-middle-layer
 62
7
100
AcDbSpline
 70
0
 71
3
 72
19
 73
15
 74
13
 40
0.000000
 40
0.000000
 40
0.000000
 40
0.000000
 40
0.549097
 40
1.081944
 40
1.631041
 40
2.179898
 40
2.712681
 40
3.261774
 40
3.810868
 40
4.343650
 40
4.892507
 40
5.441604
 40
5.974451
 40
6.523548
 40
6.523548
 40
6.523548
 40
6.523548
 10
165.200008
 20
48.672230
 30
0.0
 10
165.014880
 20
48.701102
 30
0.0
 10
164.650101
 20
48.757991
 30
0.0
 10
164.248530
 20
49.176092
 30
0.0
 10
164.099672
 20
49.721408
 30
0.0
 10
164.248565
 20
50.272412
 30
0.0
 10
164.650134
 20
50.673519
 30
0.0
 10
165.200008
 20
50.822459
 30
0.0
 10
165.749882
 20
50.673519
 30
0.0
 10
166.151452
 20
50.272412
 30
0.0
 10
166.300345
 20
49.721408
 30
0.0
 10
166.151487
 20
49.176092
 30
0.0
 10
165.749916
 20
48.757991
 30
0.0
 10
165.385137
 20
48.701102
 30
0.0
 10
165.200008
 20
48.672230
 30
0.0
 11
165.200008
 21
48.672230
 31
0.0
 11
164.669966
 21
48.815628
 31
0.0
 11
164.293187
 21
49.192407
 31
0.0
 11
164.149789
 21
49.722449
 31
0.0
 11
164.293187
 21
50.252243
 31
0.0
 11
164.669966
 21
50.628931
 31
0.0
 11
165.200008
 21
50.772316
 31
0.0
 11
165.730050
 21
50.628931
 31
0.0
 11
166.106830
 21
50.252243
 31
0.0
 11
166.250228
 21
49.722449
 31
0.0
 11
166.106830
 21
49.192407
 31
0.0
 11
165.730050
 21
48.815628
 31
0.0
 11
165.200008
 21
48.672230
 31
0.0
  0
LINE
  5
1b4
100
AcDbEntity
  8
orthodox-case-middle-layer
 62
7
100
AcDbLine
 10
143.491123
 20
2.000437
 30
0.0
 11
143.491123
 21
2.000437
 31
0.0
  0
SPLINE
  5
1b5
100
AcDbEntity
  8
orthodox-case-middle-layer
 62
7
100
AcDbSpline
 70
0
 71
3
 72
19
 73
15
 74
13
 40
0.000000
 40
0.000000
 40
0.000000
 40
0.000000
 40
0.549076
 40
1.081868
 40
1.631116
 40
2.179974
 40
2.712756
 40
3.261850
 40
3.810703
 40
4.343421
 40
4.892275
 40
5.441520
 40
5.974247
 40
6.523084
 40
6.523084
 40
6.523084
 40
6.523084
 10
143.491123
 20
2.000437
 30
0.0
 10
143.305997
 20
2.029281
 30
0.0
 10
142.941237
 20
2.086113
 30
0.0
 10
142.539580
 20
2.504188
 30
0.0
 10
142.390800
 20
3.049571
 30
0.0
 10
142.539673
 20
3.600619
 30
0.0
 10
142.941250
 20
4.001718
 30
0.0
 10
143.491045
 20
4.150675
 30
0.0
 10
144.040801
 20
4.001683
 30
0.0
 10
144.442229
 20
3.600585
 30
0.0
 10
144.591092
 20
3.049571
 30
0.0
 10
144.442322
 20
2.504220
 30
0.0
 10
144.040816
 20
2.086155
 30
0.0
 10
143.676164
 20
2.029292
 30
0.0
 10
143.491123
 20
2.000437
 30
0.0
 11
143.491123
 21
2.000437
 31
0.0
 11
142.961081
 21
2.143756
 31
0.0
 11
142.584301
 21
2.520457
 31
0.0
 11
142.440903
 21
3.050656
 31
0.0
 11
142.584301
 21
3.580450
 31
0.0
 11
142.961081
 21
3.957138
 31
0.0
 11
143.491123
 21
4.100523
 31
0.0
 11
144.020917
 21
3.957138
 31
0.0
 11
144.397605
 21
3.580450
 31
0.0
 11
144.540989
 21
3.050656
 31
0.0
 11
144.397605
 21
2.520457
 31
0.0
 11
144.020917
 21
2.143756
 31
0.0
 11
143.491123
 21
2.000437
 31
0.0
  0
LINE
  5
1b6
100
AcDbEntity
  8
orthodox-case-middle-layer
 62
7
100
AcDbLine
 10
125.300843
 20
117.060670
 30
0.0
 11
125.300843
 21
117.060670
 31
0.0
  0
SPLINE
  5
1b7
100
AcDbEntity
  8
orthodox-case-middle-layer
 62
7
100
AcDbSpline
 70
0
 71
3
 72
19
 73
15
 74
13
 40
0.000000
 40
0.000000
 40
0.000000
 40
0.000000
 40
0.548857
 40
1.081640
 40
1.630733
 40
2.179827
 40
2.712609
 40
3.261466
 40
3.810563
 40
4.343410
 40
4.892507
 40
5.441604
 40
5.974451
 40
6.523548
 40
6.523548
 40
6.523548
 40
6.523548
 10
125.300843
 20
117.060670
 30
0.0
 10
125.115799
 20
117.089553
 30
0.0
 10
124.751130
 20
117.146473
 30
0.0
 10
124.349700
 20
117.564565
 30
0.0
 10
124.200870
 20
118.109925
 30
0.0
 10
124.349700
 20
118.661014
 30
0.0
 10
124.751131
 20
119.062260
 30
0.0
 10
125.300921
 20
119.211263
 30
0.0
 10
125.850749
 20
119.062295
 30
0.0
 10
126.252329
 20
118.661048
 30
0.0
 10
126.401170
 20
118.109925
 30
0.0
 10
126.252330
 20
117.564533
 30
0.0
 10
125.850748
 20
117.146431
 30
0.0
 10
125.485971
 20
117.089542
 30
0.0
 10
125.300843
 20
117.060670
 30
0.0
 11
125.300843
 21
117.060670
 31
0.0
 11
124.771049
 21
117.204068
 31
0.0
 11
124.394361
 21
117.580847
 31
0.0
 11
124.250976
 21
118.110889
 31
0.0
 11
124.394361
 21
118.640931
 31
0.0
 11
124.771049
 21
119.017711
 31
0.0
 11
125.300843
 21
119.161109
 31
0.0
 11
125.830885
 21
119.017711
 31
0.0
 11
126.207664
 21
118.640931
 31
0.0
 11
126.351062
 21
118.110889
 31
0.0
 11
126.207664
 21
117.580847
 31
0.0
 11
125.830885
 21
117.204068
 31
0.0
 11
125.300843
 21
117.060670
 31
0.0
  0
LINE
  5
1b8
100
AcDbEntity
  8
orthodox-case-middle-layer
 62
7
100
AcDbLine
 10
125.300843
 20
67.336291
 30
0.0
 11
125.300843
 21
67.336291
 31
0.0
  0
SPLINE
  5
1b9
100
AcDbEntity
  8
orthodox-case-middle-layer
 62
7
100
AcDbSpline
 70
0
 71
3
 72
19
 73
15
 74
13
 40
0.000000
 40
0.000000
 40
0.000000
 40
0.000000
 40
0.548854
 40
1.081572
 40
1.630425
 40
2.179519
 40
2.712301
 40
3.261159
 40
3.810256
 40
4.343103
 40
4.892200
 40
5.441057
 40
5.973839
 40
6.522933
 40
6.522933
 40
6.522933
 40
6.522933
 10
125.300843
 20
67.336291
 30
0.0
 10
125.115802
 20
67.365173
 30
0.0
 10
124.751162
 20
67.422087
 30
0.0
 10
124.349744
 20
67.840025
 30
0.0
 10
124.200861
 20
68.385271
 30
0.0
 10
124.349708
 20
68.936283
 30
0.0
 10
124.751129
 20
69.337527
 30
0.0
 10
125.300921
 20
69.486531
 30
0.0
 10
125.850751
 20
69.337563
 30
0.0
 10
126.252321
 20
68.936316
 30
0.0
 10
126.401179
 20
68.385271
 30
0.0
 10
126.252286
 20
67.839992
 30
0.0
 10
125.850717
 20
67.422045
 30
0.0
 10
125.485967
 20
67.365161
 30
0.0
 10
125.300843
 20
67.336291
 30
0.0
 11
125.300843
 21
67.336291
 31
0.0
 11
124.771049
 21
67.479675
 31
0.0
 11
124.394361
 21
67.856363
 31
0.0
 11
124.250976
 21
68.386157
 31
0.0
 11
124.394361
 21
68.916199
 31
0.0
 11
124.771049
 21
69.292979
 31
0.0
 11
125.300843
 21
69.436377
 31
0.0
 11
125.830885
 21
69.292979
 31
0.0
 11
126.207664
 21
68.916199
 31
0.0
 11
126.351062
 21
68.386157
 31
0.0
 11
126.207664
 21
67.856363
 31
0.0
 11
125.830885
 21
67.479675
 31
0.0
 11
125.300843
 21
67.336291
 31
0.0
  0
LINE
  5
1ba
100
AcDbEntity
  8
orthodox-case-middle-layer
 62
7
100
AcDbLine
 10
85.049958
 20
29.322369
 30
0.0
 11
85.049958
 21
29.322369
 31
0.0
  0
SPLINE
  5
1bb
100
AcDbEntity
  8
orthodox-case-middle-layer
 62
7
100
AcDbSpline
 70
0
 71
3
 72
19
 73
15
 74
13
 40
0.000000
 40
0.000000
 40
0.000000
 40
0.000000
 40
0.549073
 40
1.081800
 40
1.630809
 40
2.180057
 40
2.712849
 40
3.261925
 40
3.810762
 40
4.343489
 40
4.892734
 40
5.441739
 40
5.974401
 40
6.523235
 40
6.523235
 40
6.523235
 40
6.523235
 10
85.049958
 20
29.322369
 30
0.0
 10
84.864837
 20
29.351212
 30
0.0
 10
84.500107
 20
29.408038
 30
0.0
 10
84.098443
 20
29.825962
 30
0.0
 10
83.949648
 20
30.371350
 30
0.0
 10
84.098408
 20
30.922502
 30
0.0
 10
84.500073
 20
31.323741
 30
0.0
 10
85.049880
 20
31.472561
 30
0.0
 10
85.599648
 20
31.323705
 30
0.0
 10
86.001164
 20
30.922468
 30
0.0
 10
86.149913
 20
30.371350
 30
0.0
 10
86.001128
 20
29.825994
 30
0.0
 10
85.599615
 20
29.408081
 30
0.0
 10
85.234994
 20
29.351223
 30
0.0
 10
85.049958
 20
29.322369
 30
0.0
 11
85.049958
 21
29.322369
 31
0.0
 11
84.519916
 21
29.465676
 31
0.0
 11
84.143136
 21
29.842285
 31
0.0
 11
83.999738
 21
30.372236
 31
0.0
 11
84.143136
 21
30.902435
 31
0.0
 11
84.519916
 21
31.279136
 31
0.0
 11
85.049958
 21
31.422455
 31
0.0
 11
85.579751
 21
31.279136
 31
0.0
 11
85.956440
 21
30.902435
 31
0.0
 11
86.099824
 21
30.372236
 31
0.0
 11
85.956440
 21
29.842285
 31
0.0
 11
85.579751
 21
29.465676
 31
0.0
 11
85.049958
 21
29.322369
 31
0.0
  0
LINE
  5
1bc
100
AcDbEntity
  8
orthodox-case-middle-layer
 62
7
100
AcDbLine
 10
64.175391
 20
117.060670
 30
0.0
 11
64.175391
 21
117.060670
 31
0.0
  0
SPLINE
  5
1bd
100
AcDbEntity
  8
orthodox-case-middle-layer
 62
7
100
AcDbSpline
 70
0
 71
3
 72
19
 73
15
 74
13
 40
0.000000
 40
0.000000
 40
0.000000
 40
0.000000
 40
0.549009
 40
1.081736
 40
1.630809
 40
2.179882
 40
2.712609
 40
3.261617
 40
3.810626
 40
4.343353
 40
4.892426
 40
5.441499
 40
5.974226
 40
6.523235
 40
6.523235
 40
6.523235
 40
6.523235
 10
64.175391
 20
117.060670
 30
0.0
 10
63.990288
 20
117.089537
 30
0.0
 10
63.625572
 20
117.146415
 30
0.0
 10
63.224150
 20
117.564585
 30
0.0
 10
63.075467
 20
118.109925
 30
0.0
 10
63.224150
 20
118.660993
 30
0.0
 10
63.625572
 20
119.062323
 30
0.0
 10
64.175391
 20
119.211245
 30
0.0
 10
64.725211
 20
119.062323
 30
0.0
 10
65.126633
 20
118.660993
 30
0.0
 10
65.275316
 20
118.109925
 30
0.0
 10
65.126633
 20
117.564585
 30
0.0
 10
64.725211
 20
117.146415
 30
0.0
 10
64.360494
 20
117.089537
 30
0.0
 10
64.175391
 20
117.060670
 30
0.0
 11
64.175391
 21
117.060670
 31
0.0
 11
63.645441
 21
117.204068
 31
0.0
 11
63.268831
 21
117.580847
 31
0.0
 11
63.125525
 21
118.110889
 31
0.0
 11
63.268831
 21
118.640931
 31
0.0
 11
63.645441
 21
119.017711
 31
0.0
 11
64.175391
 21
119.161109
 31
0.0
 11
64.705342
 21
119.017711
 31
0.0
 11
65.081952
 21
118.640931
 31
0.0
 11
65.225258
 21
118.110889
 31
0.0
 11
65.081952
 21
117.580847
 31
0.0
 11
64.705342
 21
117.204068
 31
0.0
 11
64.175391
 21
117.060670
 31
0.0
  0
LINE
  5
1be
100
AcDbEntity
  8
orthodox-case-middle-layer
 62
7
100
AcDbLine
 10
64.175391
 20
51.923077
 30
0.0
 11
64.175391
 21
51.923077
 31
0.0
  0
SPLINE
  5
1bf
100
AcDbEntity
  8
orthodox-case-middle-layer
 62
7
100
AcDbSpline
 70
0
 71
3
 72
19
 73
15
 74
13
 40
0.000000
 40
0.000000
 40
0.000000
 40
0.000000
 40
0.548981
 40
1.081523
 40
1.630269
 40
2.179493
 40
2.712165
 40
3.261153
 40
3.810141
 40
4.342812
 40
4.892037
 40
5.440782
 40
5.973324
 40
6.522305
 40
6.522305
 40
6.522305
 40
6.522305
 10
64.175391
 20
51.923077
 30
0.0
 10
63.990299
 20
51.951914
 30
0.0
 10
63.625658
 20
52.008723
 30
0.0
 10
63.224166
 20
52.426560
 30
0.0
 10
63.075476
 20
52.971784
 30
0.0
 10
63.224094
 20
53.522803
 30
0.0
 10
63.625591
 20
53.924123
 30
0.0
 10
64.175391
 20
54.072898
 30
0.0
 10
64.725192
 20
53.924123
 30
0.0
 10
65.126688
 20
53.522803
 30
0.0
 10
65.275307
 20
52.971784
 30
0.0
 10
65.126617
 20
52.426560
 30
0.0
 10
64.725125
 20
52.008723
 30
0.0
 10
64.360483
 20
51.951914
 30
0.0
 10
64.175391
 20
51.923077
 30
0.0
 11
64.175391
 21
51.923077
 31
0.0
 11
63.645441
 21
52.066370
 31
0.0
 11
63.268831
 21
52.442889
 31
0.0
 11
63.125525
 21
52.972591
 31
0.0
 11
63.268831
 21
53.502790
 31
0.0
 11
63.645441
 21
53.879491
 31
0.0
 11
64.175391
 21
54.022810
 31
0.0
 11
64.705342
 21
53.879491
 31
0.0
 11
65.081952
 21
53.502790
 31
0.0
 11
65.225258
 21
52.972591
 31
0.0
 11
65.081952
 21
52.442889
 31
0.0
 11
64.705342
 21
52.066370
 31
0.0
 11
64.175391
 21
51.923077
 31
0.0
  0
LINE
  5
1c0
100
AcDbEntity
  8
orthodox-case-middle-layer
 62
7
100
AcDbLine
 10
3.049940
 20
117.060670
 30
0.0
 11
3.049940
 21
117.060670
 31
0.0
  0
SPLINE
  5
1c1
100
AcDbEntity
  8
orthodox-case-middle-layer
 62
7
100
AcDbSpline
 70
0
 71
3
 72
19
 73
15
 74
13
 40
0.000000
 40
0.000000
 40
0.000000
 40
0.000000
 40
0.549097
 40
1.081944
 40
1.631041
 40
2.180138
 40
2.712985
 40
3.262082
 40
3.810939
 40
4.343721
 40
4.892815
 40
5.441909
 40
5.974691
 40
6.523548
 40
6.523548
 40
6.523548
 40
6.523548
 10
3.049940
 20
117.060670
 30
0.0
 10
2.864812
 20
117.089542
 30
0.0
 10
2.500035
 20
117.146431
 30
0.0
 10
2.098453
 20
117.564533
 30
0.0
 10
1.949613
 20
118.109925
 30
0.0
 10
2.098454
 20
118.661048
 30
0.0
 10
2.500034
 20
119.062295
 30
0.0
 10
3.049862
 20
119.211263
 30
0.0
 10
3.599652
 20
119.062260
 30
0.0
 10
4.001083
 20
118.661014
 30
0.0
 10
4.149913
 20
118.109925
 30
0.0
 10
4.001083
 20
117.564565
 30
0.0
 10
3.599653
 20
117.146473
 30
0.0
 10
3.234984
 20
117.089553
 30
0.0
 10
3.049940
 20
117.060670
 30
0.0
 11
3.049940
 21
117.060670
 31
0.0
 11
2.519898
 21
117.204068
 31
0.0
 11
2.143118
 21
117.580847
 31
0.0
 11
1.999721
 21
118.110889
 31
0.0
 11
2.143118
 21
118.640931
 31
0.0
 11
2.519898
 21
119.017711
 31
0.0
 11
3.049940
 21
119.161109
 31
0.0
 11
3.579734
 21
119.017711
 31
0.0
 11
3.956422
 21
118.640931
 31
0.0
 11
4.099807
 21
118.110889
 31
0.0
 11
3.956422
 21
117.580847
 31
0.0
 11
3.579734
 21
117.204068
 31
0.0
 11
3.049940
 21
117.060670
 31
0.0
  0
LINE
  5
1c2
100
AcDbEntity
  8
orthodox-case-middle-layer
 62
7
100
AcDbLine
 10
3.049940
 20
51.923077
 30
0.0
 11
3.049940
 21
51.923077
 31
0.0
  0
LINE
  5
1c3
100
AcDbEntity
  8
orthodox-case-middle-layer
 62
7
100
AcDbLine
 10
166.476711
 20
52.442719
 30
0.0
 11
148.558775
 21
60.818016
 31
0.0
  0
LINE
  5
1c4
100
AcDbEntity
  8
orthodox-case-middle-layer
 62
7
100
AcDbLine
 10
148.558775
 20
60.818016
 30
0.0
 11
140.964881
 21
44.532736
 31
0.0
  0
LINE
  5
1c5
100
AcDbEntity
  8
orthodox-case-middle-layer
 62
7
100
AcDbLine
 10
140.964881
 20
44.532736
 30
0.0
 11
130.089095
 21
49.604269
 31
0.0
  0
LINE
  5
1c6
100
AcDbEntity
  8
orthodox-case-middle-layer
 62
7
100
AcDbLine
 10
130.089095
 20
49.604269
 30
0.0
 11
137.687576
 21
65.899074
 31
0.0
  0
LINE
  5
1c7
100
AcDbEntity
  8
orthodox-case-middle-layer
 62
7
100
AcDbLine
 10
137.687576
 20
65.899074
 30
0.0
 11
130.030887
 21
69.478357
 31
0.0
  0
SPLINE
  5
1c8
100
AcDbEntity
  8
orthodox-case-middle-layer
 62
7
100
AcDbSpline
 70
0
 71
3
 72
19
 73
15
 74
13
 40
0.000000
 40
0.000000
 40
0.000000
 40
0.000000
 40
0.549070
 40
1.081732
 40
1.630501
 40
2.179749
 40
2.712541
 40
3.261617
 40
3.810454
 40
4.343181
 40
4.892426
 40
5.441192
 40
5.973789
 40
6.522619
 40
6.522619
 40
6.522619
 40
6.522619
 10
3.049940
 20
51.923077
 30
0.0
 10
2.864823
 20
51.951918
 30
0.0
 10
2.500121
 20
52.008739
 30
0.0
 10
2.098469
 20
52.426508
 30
0.0
 10
1.949621
 20
52.971783
 30
0.0
 10
2.098398
 20
53.522858
 30
0.0
 10
2.500054
 20
53.924096
 30
0.0
 10
3.049862
 20
54.072916
 30
0.0
 10
3.599633
 20
53.924060
 30
0.0
 10
4.001138
 20
53.522824
 30
0.0
 10
4.149905
 20
52.971783
 30
0.0
 10
4.001067
 20
52.426541
 30
0.0
 10
3.599566
 20
52.008782
 30
0.0
 10
3.234973
 20
51.951930
 30
0.0
 10
3.049940
 20
51.923077
 30
0.0
 11
3.049940
 21
51.923077
 31
0.0
 11
2.519898
 21
52.066370
 31
0.0
 11
2.143118
 21
52.442889
 31
0.0
 11
1.999721
 21
52.972591
 31
0.0
 11
2.143118
 21
53.502790
 31
0.0
 11
2.519898
 21
53.879491
 31
0.0
 11
3.049940
 21
54.022810
 31
0.0
 11
3.579734
 21
53.879491
 31
0.0
 11
3.956422
 21
53.502790
 31
0.0
 11
4.099807
 21
52.972591
 31
0.0
 11
3.956422
 21
52.442889
 31
0.0
 11
3.579734
 21
52.066370
 31
0.0
 11
3.049940
 21
51.923077
 31
0.0
  0
LINE
  5
1c9
100
AcDbEntity
  8
orthodox-case-middle-layer
 62
7
100
AcDbLine
 10
128.300865
 20
72.195804
 30
0.0
 11
128.300865
 21
118.110889
 31
0.0
  0
SPLINE
  5
1ca
100
AcDbEntity
  8
orthodox-case-middle-layer
 62
7
100
AcDbSpline
 70
0
 71
3
 72
10
 73
6
 74
4
 40
0.000000
 40
0.000000
 40
0.000000
 40
0.000000
 40
1.133215
 40
2.247508
 40
3.380605
 40
3.380605
 40
3.380605
 40
3.380605
 10
130.030887
 20
69.478357
 30
0.0
 10
129.706019
 20
69.677324
 30
0.0
 10
129.061709
 20
70.071936
 30
0.0
 10
128.428660
 20
71.066625
 30
0.0
 10
128.343700
 20
71.817317
 30
0.0
 10
128.300865
 20
72.195804
 30
0.0
 11
130.030887
 21
69.478357
 31
0.0
 11
129.113090
 21
70.143056
 31
0.0
 11
128.514753
 21
71.083078
 31
0.0
 11
128.300865
 21
72.195804
 31
0.0
  0
LINE
  5
1cb
100
AcDbEntity
  8
orthodox-case-middle-layer
 62
7
100
AcDbLine
 10
125.300843
 20
121.110912
 30
0.0
 11
45.674667
 21
121.110912
 31
0.0
  0
LINE
  5
1cc
100
AcDbEntity
  8
orthodox-case-middle-layer
 62
7
100
AcDbLine
 10
45.674667
 20
121.110912
 30
0.0
 11
45.674667
 21
81.110851
 31
0.0
  0
LINE
  5
1cd
100
AcDbEntity
  8
orthodox-case-middle-layer
 62
7
100
AcDbLine
 10
45.674667
 20
81.110851
 30
0.0
 11
25.674990
 21
81.110851
 31
0.0
  0
LINE
  5
1ce
100
AcDbEntity
  8
orthodox-case-middle-layer
 62
7
100
AcDbLine
 10
25.674990
 20
81.110851
 30
0.0
 11
25.674990
 21
121.110912
 31
0.0
  0
LINE
  5
1cf
100
AcDbEntity
  8
orthodox-case-middle-layer
 62
7
100
AcDbLine
 10
25.674990
 20
121.110912
 30
0.0
 11
3.049940
 21
121.110912
 31
0.0
  0
SPLINE
  5
1d0
100
AcDbEntity
  8
orthodox-case-middle-layer
 62
7
100
AcDbSpline
 70
0
 71
3
 72
10
 73
6
 74
4
 40
0.000000
 40
0.000000
 40
0.000000
 40
0.000000
 40
1.568637
 40
3.090661
 40
4.659299
 40
4.659299
 40
4.659299
 40
4.659299
 10
128.300865
 20
118.110889
 30
0.0
 10
128.218365
 20
118.636592
 30
0.0
 10
128.055817
 20
119.672375
 30
0.0
 10
126.862328
 20
120.865864
 30
0.0
 10
125.826545
 20
121.028412
 30
0.0
 10
125.300843
 20
121.110912
 30
0.0
 11
128.300865
 21
118.110889
 31
0.0
 11
127.891303
 21
119.625116
 31
0.0
 11
126.815069
 21
120.701350
 31
0.0
 11
125.300843
 21
121.110912
 31
0.0
  0
LINE
  5
1d1
100
AcDbEntity
  8
orthodox-case-middle-layer
 62
7
100
AcDbLine
 10
0.049918
 20
118.110889
 30
0.0
 11
0.049918
 21
52.972944
 31
0.0
  0
SPLINE
  5
1d2
100
AcDbEntity
  8
orthodox-case-middle-layer
 62
7
100
AcDbSpline
 70
0
 71
3
 72
10
 73
6
 74
4
 40
0.000000
 40
0.000000
 40
0.000000
 40
0.000000
 40
1.568637
 40
3.090661
 40
4.659299
 40
4.659299
 40
4.659299
 40
4.659299
 10
3.049940
 20
121.110912
 30
0.0
 10
2.524238
 20
121.028412
 30
0.0
 10
1.488455
 20
120.865864
 30
0.0
 10
0.294965
 20
119.672375
 30
0.0
 10
0.132418
 20
118.636592
 30
0.0
 10
0.049918
 20
118.110889
 30
0.0
 11
3.049940
 21
121.110912
 31
0.0
 11
1.535713
 21
120.701350
 31
0.0
 11
0.459480
 21
119.625116
 31
0.0
 11
0.049918
 21
118.110889
 31
0.0
  0
LINE
  5
1d3
100
AcDbEntity
  8
orthodox-case-middle-layer
 62
7
100
AcDbLine
 10
3.049940
 20
49.972922
 30
0.0
 11
80.049685
 21
49.972922
 31
0.0
  0
SPLINE
  5
1d4
100
AcDbEntity
  8
orthodox-case-middle-layer
 62
7
100
AcDbSpline
 70
0
 71
3
 72
10
 73
6
 74
4
 40
0.000000
 40
0.000000
 40
0.000000
 40
0.000000
 40
1.568637
 40
3.090661
 40
4.659299
 40
4.659299
 40
4.659299
 40
4.659299
 10
0.049918
 20
52.972944
 30
0.0
 10
0.132418
 20
52.447241
 30
0.0
 10
0.294965
 20
51.411458
 30
0.0
 10
1.488455
 20
50.217969
 30
0.0
 10
2.524238
 20
50.055421
 30
0.0
 10
3.049940
 20
49.972922
 30
0.0
 11
0.049918
 21
52.972944
 31
0.0
 11
0.459480
 21
51.458717
 31
0.0
 11
1.535713
 21
50.382484
 31
0.0
 11
3.049940
 21
49.972922
 31
0.0
  0
LINE
  5
1d5
100
AcDbEntity
  8
orthodox-case-middle-layer
 62
7
100
AcDbLine
 10
82.049935
 20
47.973024
 30
0.0
 11
82.049935
 21
30.368003
 31
0.0
  0
SPLINE
  5
1d6
100
AcDbEntity
  8
orthodox-case-middle-layer
 62
7
100
AcDbSpline
 70
0
 71
3
 72
10
 73
6
 74
4
 40
0.000000
 40
0.000000
 40
0.000000
 40
0.000000
 40
1.045937
 40
2.060697
 40
3.106226
 40
3.106226
 40
3.106226
 40
3.106226
 10
80.049685
 20
49.972922
 30
0.0
 10
80.400211
 20
49.917902
 30
0.0
 10
81.090812
 20
49.809502
 30
0.0
 10
81.886493
 20
49.013864
 30
0.0
 10
81.994915
 20
48.323408
 30
0.0
 10
82.049935
 20
47.973024
 30
0.0
 11
80.049685
 21
49.972922
 31
0.0
 11
81.059335
 21
49.699806
 31
0.0
 11
81.776885
 21
48.982269
 31
0.0
 11
82.049935
 21
47.973024
 31
0.0
  0
LINE
  5
1d7
100
AcDbEntity
  8
orthodox-case-middle-layer
 62
7
100
AcDbLine
 10
83.779605
 20
27.650203
 30
0.0
 11
142.224298
 21
0.332856
 31
0.0
  0
SPLINE
  5
1d8
100
AcDbEntity
  8
orthodox-case-middle-layer
 62
7
100
AcDbSpline
 70
0
 71
3
 72
10
 73
6
 74
4
 40
0.000000
 40
0.000000
 40
0.000000
 40
0.000000
 40
1.133030
 40
2.247285
 40
3.380536
 40
3.380536
 40
3.380536
 40
3.380536
 10
82.049935
 20
30.368003
 30
0.0
 10
82.092770
 20
29.989534
 30
0.0
 10
82.177729
 20
29.238870
 30
0.0
 10
82.810742
 20
28.244254
 30
0.0
 10
83.454836
 20
27.849333
 30
0.0
 10
83.779605
 20
27.650203
 30
0.0
 11
82.049935
 21
30.368003
 31
0.0
 11
82.263810
 21
29.255342
 31
0.0
 11
82.862056
 21
28.315306
 31
0.0
 11
83.779605
 21
27.650203
 31
0.0
  0
LINE
  5
1d9
100
AcDbEntity
  8
orthodox-case-middle-layer
 62
7
100
AcDbLine
 10
146.214567
 20
1.785242
 30
0.0
 11
167.926628
 21
48.459505
 31
0.0
  0
SPLINE
  5
1da
100
AcDbEntity
  8
orthodox-case-middle-layer
 62
7
100
AcDbSpline
 70
0
 71
3
 72
10
 73
6
 74
4
 40
0.000000
 40
0.000000
 40
0.000000
 40
0.000000
 40
1.570314
 40
3.093940
 40
4.664540
 40
4.664540
 40
4.664540
 40
4.664540
 10
142.224298
 20
0.332856
 30
0.0
 10
142.736061
 20
0.184846
 30
0.0
 10
143.744372
 20
-0.106774
 30
0.0
 10
145.332514
 20
0.471303
 30
0.0
 10
145.917589
 20
1.342852
 30
0.0
 10
146.214567
 20
1.785242
 30
0.0
 11
142.224298
 21
0.332856
 31
0.0
 11
143.771202
 21
0.062720
 31
0.0
 11
145.202944
 21
0.583825
 31
0.0
 11
146.214567
 21
1.785242
 31
0.0
  0
LINE
  5
1db
100
AcDbEntity
  8
orthodox-case-middle-layer
 62
7
100
AcDbLine
 10
166.476711
 20
52.442719
 30
0.0
 11
166.476711
 21
52.442719
 31
0.0
  0
SPLINE
  5
1dc
100
AcDbEntity
  8
orthodox-case-middle-layer
 62
7
100
AcDbSpline
 70
0
 71
3
 72
10
 73
6
 74
4
 40
0.000000
 40
0.000000
 40
0.000000
 40
0.000000
 40
1.566795
 40
3.087244
 40
4.653974
 40
4.653974
 40
4.653974
 40
4.653974
 10
167.926628
 20
48.459505
 30
0.0
 10
168.073402
 20
48.970318
 30
0.0
 10
168.362609
 20
49.976834
 30
0.0
 10
167.786059
 20
51.560759
 30
0.0
 10
166.917501
 20
52.145808
 30
0.0
 10
166.476711
 20
52.442719
 30
0.0
 11
167.926628
 21
48.459505
 31
0.0
 11
168.193955
 21
50.003326
 31
0.0
 11
167.673882
 21
51.432063
 31
0.0
 11
166.476711
 21
52.442719
 31
0.0
  0
ENDSEC
  0
SECTION
  2
OBJECTS
  0
DICTIONARY
  5
C
330
0
100
AcDbDictionary
  3
ACAD_GROUP
350
D
  3
ACAD_MLINESTYLE
350
17
  0
DICTIONARY
  5
D
330
C
100
AcDbDictionary
  0
DICTIONARY
  5
1A
330
C
100
AcDbDictionary
  0
DICTIONARY
  5
17
330
C
100
AcDbDictionary
  3
STANDARD
350
18
  0
DICTIONARY
  5
19
330
C
100
AcDbDictionary
  0
ENDSEC
  0
EOF
